<svg width="340" height="94" viewBox="0 0 340 94" fill="none" xmlns="http://www.w3.org/2000/svg">
<g opacity="0.8">
<path d="M25.2 21.7C29.7333 21.7 33.7333 22.8333 37.2 25.1C40.7333 27.3667 43.5333 30.5 45.6 34.5C47.6667 38.4333 48.7 43 48.7 48.2C48.7 53.2667 47.6667 57.8333 45.6 61.9C43.5333 65.9667 40.7333 69.1667 37.2 71.5C33.6667 73.8333 29.7 75 25.3 75C22.9667 75 20.7333 74.6333 18.6 73.9C16.5333 73.1667 14.6333 72.2 12.9 71C11.1667 69.7333 9.63333 68.2667 8.3 66.6C6.96667 64.9333 5.9 63.1333 5.1 61.2L6.9 59.9V71.2C6.9 72.0667 6.6 72.8 6 73.4C5.46667 73.9333 4.76667 74.2 3.9 74.2C3.03333 74.2 2.3 73.9333 1.7 73.4C1.16667 72.8 0.9 72.0667 0.9 71.2V3.09999C0.9 2.23333 1.16667 1.53333 1.7 0.999998C2.23333 0.399998 2.96667 0.0999978 3.9 0.0999978C4.76667 0.0999978 5.46667 0.399998 6 0.999998C6.6 1.53333 6.9 2.23333 6.9 3.09999V36.6L5.5 35.8C6.16667 33.7333 7.13333 31.8667 8.4 30.2C9.73333 28.4667 11.2667 26.9667 13 25.7C14.7333 24.4333 16.6333 23.4667 18.7 22.8C20.7667 22.0667 22.9333 21.7 25.2 21.7ZM24.7 27.3C21.1 27.3 17.9333 28.2 15.2 30C12.4667 31.8 10.3 34.2667 8.7 37.4C7.16667 40.5333 6.4 44.1333 6.4 48.2C6.4 52.2 7.16667 55.8333 8.7 59.1C10.3 62.3 12.4667 64.8333 15.2 66.7C17.9333 68.5 21.1 69.4 24.7 69.4C28.2333 69.4 31.3333 68.4667 34 66.6C36.7333 64.7333 38.9 62.2 40.5 59C42.1 55.7333 42.9 52.1333 42.9 48.2C42.9 44.1333 42.1 40.5333 40.5 37.4C38.9 34.2667 36.7333 31.8 34 30C31.3333 28.2 28.2333 27.3 24.7 27.3ZM80.0313 65.9C79.4979 65.1 79.2313 64.3333 79.2313 63.6C79.2979 62.8 79.7313 62.1667 80.5313 61.7C81.0646 61.2333 81.6646 61.0333 82.3313 61.1C83.0646 61.1667 83.7313 61.5 84.3313 62.1C86.1313 64.4333 88.2979 66.3333 90.8313 67.8C93.4313 69.2 96.4979 69.9 100.031 69.9C101.898 69.9 103.731 69.6 105.531 69C107.398 68.3333 108.931 67.3667 110.131 66.1C111.331 64.7667 111.931 63.1 111.931 61.1C111.931 59.0333 111.331 57.3667 110.131 56.1C108.931 54.8333 107.365 53.8333 105.431 53.1C103.565 52.3667 101.565 51.7333 99.4313 51.2C97.1646 50.6 94.9646 49.9333 92.8313 49.2C90.6979 48.4 88.7979 47.4333 87.1313 46.3C85.5313 45.1 84.2313 43.6667 83.2313 42C82.2313 40.3333 81.7313 38.3 81.7313 35.9C81.7313 33.1 82.4979 30.6333 84.0313 28.5C85.5646 26.3667 87.6313 24.7 90.2313 23.5C92.8979 22.3 95.8979 21.7 99.2313 21.7C100.898 21.7 102.698 21.9333 104.631 22.4C106.565 22.8 108.465 23.5 110.331 24.5C112.198 25.5 113.865 26.8667 115.331 28.6C115.931 29.2 116.231 29.9 116.231 30.7C116.231 31.4333 115.898 32.1 115.231 32.7C114.698 33.1 114.065 33.3 113.331 33.3C112.665 33.3 112.098 33.0333 111.631 32.5C110.031 30.7 108.131 29.3333 105.931 28.4C103.731 27.4667 101.365 27 98.8313 27C96.8979 27 95.0646 27.3333 93.3313 28C91.6646 28.6 90.2646 29.5333 89.1313 30.8C87.9979 32.0667 87.4313 33.7333 87.4313 35.8C87.5646 37.7333 88.2313 39.3 89.4313 40.5C90.6979 41.7 92.3313 42.7 94.3313 43.5C96.3979 44.3 98.6979 45.0333 101.231 45.7C103.365 46.2333 105.398 46.8667 107.331 47.6C109.331 48.3333 111.065 49.2667 112.531 50.4C114.065 51.4667 115.265 52.8333 116.131 54.5C117.065 56.1667 117.531 58.2667 117.531 60.8C117.531 63.7333 116.698 66.2667 115.031 68.4C113.431 70.5333 111.265 72.1667 108.531 73.3C105.798 74.4333 102.765 75 99.4313 75C95.8313 75 92.3313 74.3 88.9313 72.9C85.5979 71.5 82.6313 69.1667 80.0313 65.9ZM126.906 65.9C126.373 65.1 126.106 64.3333 126.106 63.6C126.173 62.8 126.606 62.1667 127.406 61.7C127.94 61.2333 128.54 61.0333 129.206 61.1C129.94 61.1667 130.606 61.5 131.206 62.1C133.006 64.4333 135.173 66.3333 137.706 67.8C140.306 69.2 143.373 69.9 146.906 69.9C148.773 69.9 150.606 69.6 152.406 69C154.273 68.3333 155.806 67.3667 157.006 66.1C158.206 64.7667 158.806 63.1 158.806 61.1C158.806 59.0333 158.206 57.3667 157.006 56.1C155.806 54.8333 154.24 53.8333 152.306 53.1C150.44 52.3667 148.44 51.7333 146.306 51.2C144.04 50.6 141.84 49.9333 139.706 49.2C137.573 48.4 135.673 47.4333 134.006 46.3C132.406 45.1 131.106 43.6667 130.106 42C129.106 40.3333 128.606 38.3 128.606 35.9C128.606 33.1 129.373 30.6333 130.906 28.5C132.44 26.3667 134.506 24.7 137.106 23.5C139.773 22.3 142.773 21.7 146.106 21.7C147.773 21.7 149.573 21.9333 151.506 22.4C153.44 22.8 155.34 23.5 157.206 24.5C159.073 25.5 160.74 26.8667 162.206 28.6C162.806 29.2 163.106 29.9 163.106 30.7C163.106 31.4333 162.773 32.1 162.106 32.7C161.573 33.1 160.94 33.3 160.206 33.3C159.54 33.3 158.973 33.0333 158.506 32.5C156.906 30.7 155.006 29.3333 152.806 28.4C150.606 27.4667 148.24 27 145.706 27C143.773 27 141.94 27.3333 140.206 28C138.54 28.6 137.14 29.5333 136.006 30.8C134.873 32.0667 134.306 33.7333 134.306 35.8C134.44 37.7333 135.106 39.3 136.306 40.5C137.573 41.7 139.206 42.7 141.206 43.5C143.273 44.3 145.573 45.0333 148.106 45.7C150.24 46.2333 152.273 46.8667 154.206 47.6C156.206 48.3333 157.94 49.2667 159.406 50.4C160.94 51.4667 162.14 52.8333 163.006 54.5C163.94 56.1667 164.406 58.2667 164.406 60.8C164.406 63.7333 163.573 66.2667 161.906 68.4C160.306 70.5333 158.14 72.1667 155.406 73.3C152.673 74.4333 149.64 75 146.306 75C142.706 75 139.206 74.3 135.806 72.9C132.473 71.5 129.506 69.1667 126.906 65.9ZM200.981 21.7C205.515 21.7 209.515 22.8333 212.981 25.1C216.515 27.3667 219.315 30.5 221.381 34.5C223.448 38.4333 224.481 43 224.481 48.2C224.481 53.2667 223.448 57.8333 221.381 61.9C219.315 65.9667 216.515 69.1667 212.981 71.5C209.448 73.8333 205.481 75 201.081 75C198.748 75 196.515 74.6333 194.381 73.9C192.315 73.1667 190.415 72.2 188.681 71C186.948 69.7333 185.415 68.2667 184.081 66.6C182.748 64.9333 181.681 63.1333 180.881 61.2L182.681 59.9V71.2C182.681 72.0667 182.381 72.8 181.781 73.4C181.248 73.9333 180.548 74.2 179.681 74.2C178.815 74.2 178.081 73.9333 177.481 73.4C176.948 72.8 176.681 72.0667 176.681 71.2V3.09999C176.681 2.23333 176.948 1.53333 177.481 0.999998C178.015 0.399998 178.748 0.0999978 179.681 0.0999978C180.548 0.0999978 181.248 0.399998 181.781 0.999998C182.381 1.53333 182.681 2.23333 182.681 3.09999V36.6L181.281 35.8C181.948 33.7333 182.915 31.8667 184.181 30.2C185.515 28.4667 187.048 26.9667 188.781 25.7C190.515 24.4333 192.415 23.4667 194.481 22.8C196.548 22.0667 198.715 21.7 200.981 21.7ZM200.481 27.3C196.881 27.3 193.715 28.2 190.981 30C188.248 31.8 186.081 34.2667 184.481 37.4C182.948 40.5333 182.181 44.1333 182.181 48.2C182.181 52.2 182.948 55.8333 184.481 59.1C186.081 62.3 188.248 64.8333 190.981 66.7C193.715 68.5 196.881 69.4 200.481 69.4C204.015 69.4 207.115 68.4667 209.781 66.6C212.515 64.7333 214.681 62.2 216.281 59C217.881 55.7333 218.681 52.1333 218.681 48.2C218.681 44.1333 217.881 40.5333 216.281 37.4C214.681 34.2667 212.515 31.8 209.781 30C207.115 28.2 204.015 27.3 200.481 27.3ZM279.226 22.9C280.092 22.9 280.792 23.2 281.326 23.8C281.926 24.4 282.226 25.1333 282.226 26V71C282.226 71.8 281.926 72.5 281.326 73.1C280.726 73.7 280.026 74 279.226 74C278.359 74 277.626 73.7 277.026 73.1C276.492 72.5 276.226 71.8 276.226 71V59.1L277.926 58.3C277.926 60.1667 277.392 62.0667 276.326 64C275.326 65.9333 273.926 67.7333 272.126 69.4C270.326 71.0667 268.192 72.4333 265.726 73.5C263.326 74.5 260.726 75 257.926 75C253.392 75 249.326 73.8333 245.726 71.5C242.192 69.1667 239.392 65.9667 237.326 61.9C235.326 57.8333 234.326 53.2667 234.326 48.2C234.326 43 235.359 38.4333 237.426 34.5C239.492 30.5 242.292 27.3667 245.826 25.1C249.359 22.8333 253.359 21.7 257.826 21.7C260.692 21.7 263.359 22.2 265.826 23.2C268.359 24.2 270.559 25.5667 272.426 27.3C274.292 29.0333 275.726 31.0333 276.726 33.3C277.792 35.5 278.326 37.8 278.326 40.2L276.226 38.7V26C276.226 25.1333 276.492 24.4 277.026 23.8C277.626 23.2 278.359 22.9 279.226 22.9ZM258.426 69.4C261.959 69.4 265.092 68.5 267.826 66.7C270.559 64.8333 272.692 62.3 274.226 59.1C275.826 55.8333 276.626 52.2 276.626 48.2C276.626 44.2667 275.826 40.7333 274.226 37.6C272.692 34.4667 270.559 31.9667 267.826 30.1C265.092 28.2333 261.959 27.3 258.426 27.3C254.959 27.3 251.826 28.2 249.026 30C246.292 31.8 244.126 34.2667 242.526 37.4C240.992 40.5333 240.226 44.1333 240.226 48.2C240.226 52.2 240.992 55.8333 242.526 59.1C244.126 62.3 246.292 64.8333 249.026 66.7C251.759 68.5 254.892 69.4 258.426 69.4ZM336.07 22C336.937 22 337.637 22.3 338.17 22.9C338.77 23.5 339.07 24.2 339.07 25V69.1C339.07 74.5 338.004 79.0333 335.87 82.7C333.737 86.4333 330.87 89.2333 327.27 91.1C323.67 93.0333 319.57 94 314.97 94C312.104 94 309.437 93.6667 306.97 93C304.57 92.4 302.604 91.6 301.07 90.6C300.27 90.1333 299.67 89.5667 299.27 88.9C298.87 88.2333 298.837 87.5333 299.17 86.8C299.504 85.8667 300.004 85.2333 300.67 84.9C301.404 84.6333 302.137 84.6667 302.87 85C304.004 85.6 305.637 86.3333 307.77 87.2C309.904 88.0667 312.337 88.5 315.07 88.5C318.737 88.5 321.904 87.7333 324.57 86.2C327.304 84.6667 329.404 82.4333 330.87 79.5C332.337 76.6333 333.07 73.2 333.07 69.2V62L333.77 64.4C332.77 66.4667 331.337 68.3 329.47 69.9C327.67 71.5 325.57 72.7667 323.17 73.7C320.837 74.5667 318.337 75 315.67 75C311.67 75 308.337 74.2 305.67 72.6C303.07 70.9333 301.137 68.6667 299.87 65.8C298.604 62.9333 297.97 59.5667 297.97 55.7V25C297.97 24.2 298.237 23.5 298.77 22.9C299.304 22.3 300.037 22 300.97 22C301.837 22 302.537 22.3 303.07 22.9C303.67 23.5 303.97 24.2 303.97 25V54.8C303.97 59.4667 304.97 63.0667 306.97 65.6C309.037 68.1333 312.37 69.4 316.97 69.4C319.837 69.4 322.47 68.7333 324.87 67.4C327.27 66 329.237 64.2 330.77 62C332.304 59.7333 333.07 57.3333 333.07 54.8V25C333.07 24.2 333.337 23.5 333.87 22.9C334.47 22.3 335.204 22 336.07 22Z" fill="black"/>
<path d="M67.3445 71C67.3445 71.8 67.0445 72.5 66.4445 73.1C65.8445 73.7 65.1445 74 64.3445 74C63.4779 74 62.7445 73.7 62.1445 73.1C61.6112 72.5 61.3445 71.8 61.3445 71V25C61.3445 24.2 61.6112 23.5 62.1445 22.9C62.7445 22.3 63.4779 22 64.3445 22C65.2112 22 65.9112 22.3 66.4445 22.9C67.0445 23.5 67.3445 24.2 67.3445 25V71ZM65.4445 7.79999L56.7445 15.1C56.2779 15.5 55.8445 15.8333 55.4445 16.1C55.1112 16.3667 54.6779 16.5 54.1445 16.5C53.6779 16.5 53.2779 16.3333 52.9445 16C52.6112 15.6667 52.4445 15.3 52.4445 14.9C52.4445 14.6333 52.5112 14.3667 52.6445 14.1C52.7112 13.8333 52.9112 13.5667 53.2445 13.3L60.5445 5.3C61.2779 4.16666 62.3779 3.59999 63.8445 3.59999H65.4445C66.1779 3.59999 66.7779 3.73333 67.2445 4C67.7779 4.2 68.2445 4.63333 68.6445 5.3L75.8445 13.2C76.1112 13.5333 76.2779 13.8333 76.3445 14.1C76.4779 14.3 76.5445 14.5667 76.5445 14.9C76.5445 15.2333 76.3779 15.5667 76.0445 15.9C75.7779 16.2333 75.4112 16.4 74.9445 16.4C74.4112 16.4 73.9445 16.2667 73.5445 16C73.1445 15.7333 72.7112 15.4 72.2445 15L63.3445 7.9L65.4445 7.79999Z" fill="#FF4200"/>
</g>
</svg>
