<svg width="354" height="125" viewBox="0 0 354 125" fill="none" xmlns="http://www.w3.org/2000/svg">
<g opacity="0.8">
<path d="M32.2 47.7C36.7333 47.7 40.7333 48.8333 44.2 51.1C47.7333 53.3667 50.5333 56.5 52.6 60.5C54.6667 64.4333 55.7 69 55.7 74.2C55.7 79.2667 54.6667 83.8333 52.6 87.9C50.5333 91.9667 47.7333 95.1667 44.2 97.5C40.6667 99.8333 36.7 101 32.3 101C29.9667 101 27.7333 100.633 25.6 99.9C23.5333 99.1667 21.6333 98.2 19.9 97C18.1667 95.7333 16.6333 94.2667 15.3 92.6C13.9667 90.9333 12.9 89.1333 12.1 87.2L13.9 85.9V97.2C13.9 98.0667 13.6 98.8 13 99.4C12.4667 99.9333 11.7667 100.2 10.9 100.2C10.0333 100.2 9.3 99.9333 8.7 99.4C8.16667 98.8 7.9 98.0667 7.9 97.2V29.1C7.9 28.2333 8.16667 27.5333 8.7 27C9.23333 26.4 9.96667 26.1 10.9 26.1C11.7667 26.1 12.4667 26.4 13 27C13.6 27.5333 13.9 28.2333 13.9 29.1V62.6L12.5 61.8C13.1667 59.7333 14.1333 57.8667 15.4 56.2C16.7333 54.4667 18.2667 52.9667 20 51.7C21.7333 50.4333 23.6333 49.4667 25.7 48.8C27.7667 48.0667 29.9333 47.7 32.2 47.7ZM31.7 53.3C28.1 53.3 24.9333 54.2 22.2 56C19.4667 57.8 17.3 60.2667 15.7 63.4C14.1667 66.5333 13.4 70.1333 13.4 74.2C13.4 78.2 14.1667 81.8333 15.7 85.1C17.3 88.3 19.4667 90.8333 22.2 92.7C24.9333 94.5 28.1 95.4 31.7 95.4C35.2333 95.4 38.3333 94.4667 41 92.6C43.7333 90.7333 45.9 88.2 47.5 85C49.1 81.7333 49.9 78.1333 49.9 74.2C49.9 70.1333 49.1 66.5333 47.5 63.4C45.9 60.2667 43.7333 57.8 41 56C38.3333 54.2 35.2333 53.3 31.7 53.3ZM87.0313 91.9C86.4979 91.1 86.2313 90.3333 86.2313 89.6C86.2979 88.8 86.7313 88.1667 87.5313 87.7C88.0646 87.2333 88.6646 87.0333 89.3313 87.1C90.0646 87.1667 90.7313 87.5 91.3313 88.1C93.1313 90.4333 95.2979 92.3333 97.8313 93.8C100.431 95.2 103.498 95.9 107.031 95.9C108.898 95.9 110.731 95.6 112.531 95C114.398 94.3333 115.931 93.3667 117.131 92.1C118.331 90.7667 118.931 89.1 118.931 87.1C118.931 85.0333 118.331 83.3667 117.131 82.1C115.931 80.8333 114.365 79.8333 112.431 79.1C110.565 78.3667 108.565 77.7333 106.431 77.2C104.165 76.6 101.965 75.9333 99.8313 75.2C97.6979 74.4 95.7979 73.4333 94.1313 72.3C92.5313 71.1 91.2313 69.6667 90.2313 68C89.2313 66.3333 88.7313 64.3 88.7313 61.9C88.7313 59.1 89.4979 56.6333 91.0313 54.5C92.5646 52.3667 94.6313 50.7 97.2313 49.5C99.8979 48.3 102.898 47.7 106.231 47.7C107.898 47.7 109.698 47.9333 111.631 48.4C113.565 48.8 115.465 49.5 117.331 50.5C119.198 51.5 120.865 52.8667 122.331 54.6C122.931 55.2 123.231 55.9 123.231 56.7C123.231 57.4333 122.898 58.1 122.231 58.7C121.698 59.1 121.065 59.3 120.331 59.3C119.665 59.3 119.098 59.0333 118.631 58.5C117.031 56.7 115.131 55.3333 112.931 54.4C110.731 53.4667 108.365 53 105.831 53C103.898 53 102.065 53.3333 100.331 54C98.6646 54.6 97.2646 55.5333 96.1313 56.8C94.9979 58.0667 94.4313 59.7333 94.4313 61.8C94.5646 63.7333 95.2313 65.3 96.4313 66.5C97.6979 67.7 99.3313 68.7 101.331 69.5C103.398 70.3 105.698 71.0333 108.231 71.7C110.365 72.2333 112.398 72.8667 114.331 73.6C116.331 74.3333 118.065 75.2667 119.531 76.4C121.065 77.4667 122.265 78.8333 123.131 80.5C124.065 82.1667 124.531 84.2667 124.531 86.8C124.531 89.7333 123.698 92.2667 122.031 94.4C120.431 96.5333 118.265 98.1667 115.531 99.3C112.798 100.433 109.765 101 106.431 101C102.831 101 99.3313 100.3 95.9313 98.9C92.5979 97.5 89.6313 95.1667 87.0313 91.9ZM133.906 91.9C133.373 91.1 133.106 90.3333 133.106 89.6C133.173 88.8 133.606 88.1667 134.406 87.7C134.94 87.2333 135.54 87.0333 136.206 87.1C136.94 87.1667 137.606 87.5 138.206 88.1C140.006 90.4333 142.173 92.3333 144.706 93.8C147.306 95.2 150.373 95.9 153.906 95.9C155.773 95.9 157.606 95.6 159.406 95C161.273 94.3333 162.806 93.3667 164.006 92.1C165.206 90.7667 165.806 89.1 165.806 87.1C165.806 85.0333 165.206 83.3667 164.006 82.1C162.806 80.8333 161.24 79.8333 159.306 79.1C157.44 78.3667 155.44 77.7333 153.306 77.2C151.04 76.6 148.84 75.9333 146.706 75.2C144.573 74.4 142.673 73.4333 141.006 72.3C139.406 71.1 138.106 69.6667 137.106 68C136.106 66.3333 135.606 64.3 135.606 61.9C135.606 59.1 136.373 56.6333 137.906 54.5C139.44 52.3667 141.506 50.7 144.106 49.5C146.773 48.3 149.773 47.7 153.106 47.7C154.773 47.7 156.573 47.9333 158.506 48.4C160.44 48.8 162.34 49.5 164.206 50.5C166.073 51.5 167.74 52.8667 169.206 54.6C169.806 55.2 170.106 55.9 170.106 56.7C170.106 57.4333 169.773 58.1 169.106 58.7C168.573 59.1 167.94 59.3 167.206 59.3C166.54 59.3 165.973 59.0333 165.506 58.5C163.906 56.7 162.006 55.3333 159.806 54.4C157.606 53.4667 155.24 53 152.706 53C150.773 53 148.94 53.3333 147.206 54C145.54 54.6 144.14 55.5333 143.006 56.8C141.873 58.0667 141.306 59.7333 141.306 61.8C141.44 63.7333 142.106 65.3 143.306 66.5C144.573 67.7 146.206 68.7 148.206 69.5C150.273 70.3 152.573 71.0333 155.106 71.7C157.24 72.2333 159.273 72.8667 161.206 73.6C163.206 74.3333 164.94 75.2667 166.406 76.4C167.94 77.4667 169.14 78.8333 170.006 80.5C170.94 82.1667 171.406 84.2667 171.406 86.8C171.406 89.7333 170.573 92.2667 168.906 94.4C167.306 96.5333 165.14 98.1667 162.406 99.3C159.673 100.433 156.64 101 153.306 101C149.706 101 146.206 100.3 142.806 98.9C139.473 97.5 136.506 95.1667 133.906 91.9ZM207.981 47.7C212.515 47.7 216.515 48.8333 219.981 51.1C223.515 53.3667 226.315 56.5 228.381 60.5C230.448 64.4333 231.481 69 231.481 74.2C231.481 79.2667 230.448 83.8333 228.381 87.9C226.315 91.9667 223.515 95.1667 219.981 97.5C216.448 99.8333 212.481 101 208.081 101C205.748 101 203.515 100.633 201.381 99.9C199.315 99.1667 197.415 98.2 195.681 97C193.948 95.7333 192.415 94.2667 191.081 92.6C189.748 90.9333 188.681 89.1333 187.881 87.2L189.681 85.9V97.2C189.681 98.0667 189.381 98.8 188.781 99.4C188.248 99.9333 187.548 100.2 186.681 100.2C185.815 100.2 185.081 99.9333 184.481 99.4C183.948 98.8 183.681 98.0667 183.681 97.2V29.1C183.681 28.2333 183.948 27.5333 184.481 27C185.015 26.4 185.748 26.1 186.681 26.1C187.548 26.1 188.248 26.4 188.781 27C189.381 27.5333 189.681 28.2333 189.681 29.1V62.6L188.281 61.8C188.948 59.7333 189.915 57.8667 191.181 56.2C192.515 54.4667 194.048 52.9667 195.781 51.7C197.515 50.4333 199.415 49.4667 201.481 48.8C203.548 48.0667 205.715 47.7 207.981 47.7ZM207.481 53.3C203.881 53.3 200.715 54.2 197.981 56C195.248 57.8 193.081 60.2667 191.481 63.4C189.948 66.5333 189.181 70.1333 189.181 74.2C189.181 78.2 189.948 81.8333 191.481 85.1C193.081 88.3 195.248 90.8333 197.981 92.7C200.715 94.5 203.881 95.4 207.481 95.4C211.015 95.4 214.115 94.4667 216.781 92.6C219.515 90.7333 221.681 88.2 223.281 85C224.881 81.7333 225.681 78.1333 225.681 74.2C225.681 70.1333 224.881 66.5333 223.281 63.4C221.681 60.2667 219.515 57.8 216.781 56C214.115 54.2 211.015 53.3 207.481 53.3ZM286.226 48.9C287.092 48.9 287.792 49.2 288.326 49.8C288.926 50.4 289.226 51.1333 289.226 52V97C289.226 97.8 288.926 98.5 288.326 99.1C287.726 99.7 287.026 100 286.226 100C285.359 100 284.626 99.7 284.026 99.1C283.492 98.5 283.226 97.8 283.226 97V85.1L284.926 84.3C284.926 86.1667 284.392 88.0667 283.326 90C282.326 91.9333 280.926 93.7333 279.126 95.4C277.326 97.0667 275.192 98.4333 272.726 99.5C270.326 100.5 267.726 101 264.926 101C260.392 101 256.326 99.8333 252.726 97.5C249.192 95.1667 246.392 91.9667 244.326 87.9C242.326 83.8333 241.326 79.2667 241.326 74.2C241.326 69 242.359 64.4333 244.426 60.5C246.492 56.5 249.292 53.3667 252.826 51.1C256.359 48.8333 260.359 47.7 264.826 47.7C267.692 47.7 270.359 48.2 272.826 49.2C275.359 50.2 277.559 51.5667 279.426 53.3C281.292 55.0333 282.726 57.0333 283.726 59.3C284.792 61.5 285.326 63.8 285.326 66.2L283.226 64.7V52C283.226 51.1333 283.492 50.4 284.026 49.8C284.626 49.2 285.359 48.9 286.226 48.9ZM265.426 95.4C268.959 95.4 272.092 94.5 274.826 92.7C277.559 90.8333 279.692 88.3 281.226 85.1C282.826 81.8333 283.626 78.2 283.626 74.2C283.626 70.2667 282.826 66.7333 281.226 63.6C279.692 60.4667 277.559 57.9667 274.826 56.1C272.092 54.2333 268.959 53.3 265.426 53.3C261.959 53.3 258.826 54.2 256.026 56C253.292 57.8 251.126 60.2667 249.526 63.4C247.992 66.5333 247.226 70.1333 247.226 74.2C247.226 78.2 247.992 81.8333 249.526 85.1C251.126 88.3 253.292 90.8333 256.026 92.7C258.759 94.5 261.892 95.4 265.426 95.4ZM343.07 48C343.937 48 344.637 48.3 345.17 48.9C345.77 49.5 346.07 50.2 346.07 51V95.1C346.07 100.5 345.004 105.033 342.87 108.7C340.737 112.433 337.87 115.233 334.27 117.1C330.67 119.033 326.57 120 321.97 120C319.104 120 316.437 119.667 313.97 119C311.57 118.4 309.604 117.6 308.07 116.6C307.27 116.133 306.67 115.567 306.27 114.9C305.87 114.233 305.837 113.533 306.17 112.8C306.504 111.867 307.004 111.233 307.67 110.9C308.404 110.633 309.137 110.667 309.87 111C311.004 111.6 312.637 112.333 314.77 113.2C316.904 114.067 319.337 114.5 322.07 114.5C325.737 114.5 328.904 113.733 331.57 112.2C334.304 110.667 336.404 108.433 337.87 105.5C339.337 102.633 340.07 99.2 340.07 95.2V88L340.77 90.4C339.77 92.4667 338.337 94.3 336.47 95.9C334.67 97.5 332.57 98.7667 330.17 99.7C327.837 100.567 325.337 101 322.67 101C318.67 101 315.337 100.2 312.67 98.6C310.07 96.9333 308.137 94.6667 306.87 91.8C305.604 88.9333 304.97 85.5667 304.97 81.7V51C304.97 50.2 305.237 49.5 305.77 48.9C306.304 48.3 307.037 48 307.97 48C308.837 48 309.537 48.3 310.07 48.9C310.67 49.5 310.97 50.2 310.97 51V80.8C310.97 85.4667 311.97 89.0667 313.97 91.6C316.037 94.1333 319.37 95.4 323.97 95.4C326.837 95.4 329.47 94.7333 331.87 93.4C334.27 92 336.237 90.2 337.77 88C339.304 85.7333 340.07 83.3333 340.07 80.8V51C340.07 50.2 340.337 49.5 340.87 48.9C341.47 48.3 342.204 48 343.07 48Z" fill="black"/>
<path d="M74.3445 97C74.3445 97.8 74.0445 98.5 73.4445 99.1C72.8445 99.7 72.1445 100 71.3445 100C70.4779 100 69.7445 99.7 69.1445 99.1C68.6112 98.5 68.3445 97.8 68.3445 97V51C68.3445 50.2 68.6112 49.5 69.1445 48.9C69.7445 48.3 70.4779 48 71.3445 48C72.2112 48 72.9112 48.3 73.4445 48.9C74.0445 49.5 74.3445 50.2 74.3445 51V97ZM72.4445 33.8L63.7445 41.1C63.2779 41.5 62.8445 41.8333 62.4445 42.1C62.1112 42.3667 61.6779 42.5 61.1445 42.5C60.6779 42.5 60.2779 42.3333 59.9445 42C59.6112 41.6667 59.4445 41.3 59.4445 40.9C59.4445 40.6333 59.5112 40.3667 59.6445 40.1C59.7112 39.8333 59.9112 39.5667 60.2445 39.3L67.5445 31.3C68.2779 30.1667 69.3779 29.6 70.8445 29.6H72.4445C73.1779 29.6 73.7779 29.7333 74.2445 30C74.7779 30.2 75.2445 30.6333 75.6445 31.3L82.8445 39.2C83.1112 39.5333 83.2779 39.8333 83.3445 40.1C83.4779 40.3 83.5445 40.5667 83.5445 40.9C83.5445 41.2333 83.3779 41.5667 83.0445 41.9C82.7779 42.2333 82.4112 42.4 81.9445 42.4C81.4112 42.4 80.9445 42.2667 80.5445 42C80.1445 41.7333 79.7112 41.4 79.2445 41L70.3445 33.9L72.4445 33.8Z" fill="#FF4200"/>
</g>
<path d="M36.0024 103.874C36.1151 103.874 36.2104 103.909 36.2884 103.978C36.3751 104.039 36.4184 104.134 36.4184 104.264C36.4184 104.307 36.4097 104.364 36.3924 104.433L33.5194 112.753C33.4934 112.831 33.4457 112.892 33.3764 112.935C33.3071 112.978 33.2377 113 33.1684 113C33.0817 113 33.0037 112.983 32.9344 112.948C32.8651 112.905 32.8131 112.84 32.7784 112.753L30.4774 107.059L30.5814 107.085L28.2804 112.753C28.2457 112.84 28.1894 112.905 28.1114 112.948C28.0421 112.983 27.9684 113 27.8904 113C27.8211 113 27.7517 112.978 27.6824 112.935C27.6217 112.892 27.5784 112.831 27.5524 112.753L24.6794 104.433C24.6534 104.364 24.6404 104.312 24.6404 104.277C24.6404 104.147 24.6881 104.047 24.7834 103.978C24.8787 103.909 24.9741 103.874 25.0694 103.874C25.1561 103.874 25.2341 103.896 25.3034 103.939C25.3727 103.982 25.4204 104.043 25.4464 104.121L28.0594 111.739L27.9164 111.752L30.1784 106.11C30.2044 106.032 30.2477 105.971 30.3084 105.928C30.3777 105.876 30.4557 105.854 30.5424 105.863C30.6291 105.854 30.7027 105.876 30.7634 105.928C30.8327 105.971 30.8847 106.032 30.9194 106.11L33.1554 111.726L33.0124 111.778L35.6124 104.121C35.6384 104.043 35.6861 103.982 35.7554 103.939C35.8247 103.896 35.9071 103.874 36.0024 103.874ZM42.1621 106.305C42.7081 106.305 43.1501 106.422 43.4881 106.656C43.8261 106.89 44.0731 107.206 44.2291 107.605C44.3937 108.004 44.4761 108.446 44.4761 108.931V112.61C44.4761 112.714 44.4371 112.805 44.3591 112.883C44.2811 112.961 44.1901 113 44.0861 113C43.9647 113 43.8694 112.961 43.8001 112.883C43.7307 112.805 43.6961 112.714 43.6961 112.61V108.931C43.6961 108.576 43.6397 108.255 43.5271 107.969C43.4231 107.683 43.2497 107.458 43.0071 107.293C42.7644 107.12 42.4394 107.033 42.0321 107.033C41.6681 107.033 41.3214 107.12 40.9921 107.293C40.6714 107.458 40.4114 107.683 40.2121 107.969C40.0127 108.255 39.9131 108.576 39.9131 108.931V112.61C39.9131 112.714 39.8741 112.805 39.7961 112.883C39.7181 112.961 39.6271 113 39.5231 113C39.4017 113 39.3064 112.961 39.2371 112.883C39.1677 112.805 39.1331 112.714 39.1331 112.61V103.77C39.1331 103.666 39.1677 103.575 39.2371 103.497C39.3151 103.419 39.4104 103.38 39.5231 103.38C39.6357 103.38 39.7267 103.419 39.7961 103.497C39.8741 103.575 39.9131 103.666 39.9131 103.77V107.982L39.6141 108.437C39.6314 108.168 39.7137 107.908 39.8611 107.657C40.0171 107.397 40.2164 107.167 40.4591 106.968C40.7017 106.76 40.9704 106.6 41.2651 106.487C41.5597 106.366 41.8587 106.305 42.1621 106.305ZM50.8247 113.13C50.1574 113.13 49.5681 112.987 49.0567 112.701C48.5454 112.415 48.1467 112.016 47.8607 111.505C47.5747 110.994 47.4317 110.396 47.4317 109.711C47.4317 108.974 47.5747 108.346 47.8607 107.826C48.1554 107.306 48.5324 106.907 48.9917 106.63C49.4597 106.344 49.9537 106.201 50.4737 106.201C50.8551 106.201 51.2234 106.27 51.5787 106.409C51.9427 106.539 52.2634 106.738 52.5407 107.007C52.8267 107.267 53.0521 107.588 53.2167 107.969C53.3901 108.35 53.4854 108.792 53.5027 109.295C53.4941 109.399 53.4507 109.49 53.3727 109.568C53.2947 109.637 53.2037 109.672 53.0997 109.672H47.8867L47.7307 108.97H52.8527L52.6837 109.126V108.866C52.6491 108.459 52.5191 108.112 52.2937 107.826C52.0684 107.54 51.7954 107.323 51.4747 107.176C51.1541 107.029 50.8204 106.955 50.4737 106.955C50.2137 106.955 49.9451 107.007 49.6677 107.111C49.3991 107.215 49.1521 107.38 48.9267 107.605C48.7101 107.822 48.5324 108.103 48.3937 108.45C48.2551 108.788 48.1857 109.191 48.1857 109.659C48.1857 110.17 48.2897 110.634 48.4977 111.05C48.7057 111.466 49.0047 111.795 49.3947 112.038C49.7934 112.281 50.2657 112.402 50.8117 112.402C51.1151 112.402 51.3881 112.359 51.6307 112.272C51.8734 112.185 52.0857 112.073 52.2677 111.934C52.4497 111.787 52.6014 111.635 52.7227 111.479C52.8181 111.401 52.9134 111.362 53.0087 111.362C53.0954 111.362 53.1691 111.397 53.2297 111.466C53.2991 111.535 53.3337 111.613 53.3337 111.7C53.3337 111.804 53.2904 111.895 53.2037 111.973C52.9437 112.285 52.6057 112.558 52.1897 112.792C51.7737 113.017 51.3187 113.13 50.8247 113.13ZM56.8623 113C56.741 113 56.6457 112.961 56.5763 112.883C56.507 112.805 56.4723 112.714 56.4723 112.61V106.786C56.4723 106.682 56.507 106.591 56.5763 106.513C56.6543 106.435 56.7497 106.396 56.8623 106.396C56.975 106.396 57.066 106.435 57.1353 106.513C57.2133 106.591 57.2523 106.682 57.2523 106.786V108.736L57.0573 108.775C57.0833 108.472 57.157 108.173 57.2783 107.878C57.4083 107.575 57.5817 107.297 57.7983 107.046C58.015 106.795 58.2707 106.591 58.5653 106.435C58.8687 106.279 59.2067 106.201 59.5793 106.201C59.7353 106.201 59.887 106.236 60.0343 106.305C60.1817 106.366 60.2553 106.47 60.2553 106.617C60.2553 106.747 60.2207 106.847 60.1513 106.916C60.082 106.985 59.9997 107.02 59.9043 107.02C59.8263 107.02 59.7397 106.998 59.6443 106.955C59.5577 106.912 59.4407 106.89 59.2933 106.89C59.0507 106.89 58.808 106.964 58.5653 107.111C58.3227 107.25 58.1017 107.44 57.9023 107.683C57.703 107.926 57.5427 108.199 57.4213 108.502C57.3087 108.797 57.2523 109.096 57.2523 109.399V112.61C57.2523 112.714 57.2133 112.805 57.1353 112.883C57.0573 112.961 56.9663 113 56.8623 113ZM65.4853 113.13C64.8179 113.13 64.2286 112.987 63.7173 112.701C63.2059 112.415 62.8073 112.016 62.5213 111.505C62.2353 110.994 62.0923 110.396 62.0923 109.711C62.0923 108.974 62.2353 108.346 62.5213 107.826C62.8159 107.306 63.1929 106.907 63.6523 106.63C64.1203 106.344 64.6143 106.201 65.1343 106.201C65.5156 106.201 65.8839 106.27 66.2393 106.409C66.6033 106.539 66.9239 106.738 67.2013 107.007C67.4873 107.267 67.7126 107.588 67.8773 107.969C68.0506 108.35 68.1459 108.792 68.1633 109.295C68.1546 109.399 68.1113 109.49 68.0333 109.568C67.9553 109.637 67.8643 109.672 67.7603 109.672H62.5473L62.3913 108.97H67.5133L67.3443 109.126V108.866C67.3096 108.459 67.1796 108.112 66.9543 107.826C66.7289 107.54 66.4559 107.323 66.1353 107.176C65.8146 107.029 65.4809 106.955 65.1343 106.955C64.8743 106.955 64.6056 107.007 64.3283 107.111C64.0596 107.215 63.8126 107.38 63.5873 107.605C63.3706 107.822 63.1929 108.103 63.0543 108.45C62.9156 108.788 62.8463 109.191 62.8463 109.659C62.8463 110.17 62.9503 110.634 63.1583 111.05C63.3663 111.466 63.6653 111.795 64.0553 112.038C64.4539 112.281 64.9263 112.402 65.4723 112.402C65.7756 112.402 66.0486 112.359 66.2913 112.272C66.5339 112.185 66.7463 112.073 66.9283 111.934C67.1103 111.787 67.2619 111.635 67.3833 111.479C67.4786 111.401 67.5739 111.362 67.6693 111.362C67.7559 111.362 67.8296 111.397 67.8903 111.466C67.9596 111.535 67.9943 111.613 67.9943 111.7C67.9943 111.804 67.9509 111.895 67.8643 111.973C67.6043 112.285 67.2663 112.558 66.8503 112.792C66.4343 113.017 65.9793 113.13 65.4853 113.13ZM77.0016 112.597C76.9929 112.71 76.9452 112.805 76.8586 112.883C76.7806 112.961 76.6896 113 76.5856 113C76.4642 113 76.3646 112.961 76.2866 112.883C76.2172 112.805 76.1826 112.71 76.1826 112.597V104.303C76.1826 104.19 76.2216 104.095 76.2996 104.017C76.3776 103.939 76.4772 103.9 76.5986 103.9C76.7026 103.9 76.7936 103.939 76.8716 104.017C76.9582 104.095 77.0016 104.19 77.0016 104.303V112.597ZM83.6706 106.201C84.2426 106.201 84.6976 106.318 85.0356 106.552C85.3822 106.777 85.6292 107.089 85.7766 107.488C85.9326 107.878 86.0106 108.311 86.0106 108.788V112.61C86.0106 112.714 85.9716 112.805 85.8936 112.883C85.8156 112.961 85.7246 113 85.6206 113C85.4992 113 85.4039 112.961 85.3346 112.883C85.2652 112.805 85.2306 112.714 85.2306 112.61V108.827C85.2306 108.48 85.1742 108.164 85.0616 107.878C84.9489 107.592 84.7626 107.362 84.5026 107.189C84.2512 107.016 83.9176 106.929 83.5016 106.929C83.1289 106.929 82.7736 107.016 82.4356 107.189C82.1062 107.362 81.8376 107.592 81.6296 107.878C81.4216 108.164 81.3176 108.48 81.3176 108.827V112.61C81.3176 112.714 81.2786 112.805 81.2006 112.883C81.1226 112.961 81.0316 113 80.9276 113C80.8062 113 80.7109 112.961 80.6416 112.883C80.5722 112.805 80.5376 112.714 80.5376 112.61V106.786C80.5376 106.682 80.5722 106.591 80.6416 106.513C80.7196 106.435 80.8149 106.396 80.9276 106.396C81.0402 106.396 81.1312 106.435 81.2006 106.513C81.2786 106.591 81.3176 106.682 81.3176 106.786V107.878L81.0186 108.346C81.0359 108.069 81.1226 107.804 81.2786 107.553C81.4432 107.293 81.6512 107.063 81.9026 106.864C82.1539 106.656 82.4312 106.496 82.7346 106.383C83.0466 106.262 83.3586 106.201 83.6706 106.201ZM88.9242 106.383H91.9532C92.0572 106.383 92.1438 106.422 92.2132 106.5C92.2825 106.569 92.3172 106.656 92.3172 106.76C92.3172 106.855 92.2825 106.938 92.2132 107.007C92.1438 107.076 92.0572 107.111 91.9532 107.111H88.9242C88.8202 107.111 88.7292 107.076 88.6512 107.007C88.5818 106.929 88.5472 106.842 88.5472 106.747C88.5472 106.643 88.5818 106.556 88.6512 106.487C88.7292 106.418 88.8202 106.383 88.9242 106.383ZM90.2632 104.55C90.3758 104.55 90.4668 104.589 90.5362 104.667C90.6142 104.745 90.6532 104.836 90.6532 104.94V111.466C90.6532 111.709 90.6835 111.891 90.7442 112.012C90.8135 112.133 90.9002 112.216 91.0042 112.259C91.1082 112.294 91.2122 112.311 91.3162 112.311C91.3855 112.311 91.4462 112.302 91.4982 112.285C91.5588 112.259 91.6238 112.246 91.6932 112.246C91.7712 112.246 91.8362 112.276 91.8882 112.337C91.9488 112.398 91.9792 112.476 91.9792 112.571C91.9792 112.692 91.9098 112.796 91.7712 112.883C91.6325 112.961 91.4678 113 91.2772 113C91.1992 113 91.0822 112.996 90.9262 112.987C90.7702 112.97 90.6098 112.922 90.4452 112.844C90.2805 112.757 90.1418 112.61 90.0292 112.402C89.9252 112.194 89.8732 111.895 89.8732 111.505V104.94C89.8732 104.836 89.9078 104.745 89.9772 104.667C90.0552 104.589 90.1505 104.55 90.2632 104.55ZM97.998 113.13C97.3306 113.13 96.7413 112.987 96.23 112.701C95.7186 112.415 95.32 112.016 95.034 111.505C94.748 110.994 94.605 110.396 94.605 109.711C94.605 108.974 94.748 108.346 95.034 107.826C95.3286 107.306 95.7056 106.907 96.165 106.63C96.633 106.344 97.127 106.201 97.647 106.201C98.0283 106.201 98.3966 106.27 98.752 106.409C99.116 106.539 99.4366 106.738 99.714 107.007C100 107.267 100.225 107.588 100.39 107.969C100.563 108.35 100.659 108.792 100.676 109.295C100.667 109.399 100.624 109.49 100.546 109.568C100.468 109.637 100.377 109.672 100.273 109.672H95.06L94.904 108.97H100.026L99.857 109.126V108.866C99.8223 108.459 99.6923 108.112 99.467 107.826C99.2416 107.54 98.9686 107.323 98.648 107.176C98.3273 107.029 97.9936 106.955 97.647 106.955C97.387 106.955 97.1183 107.007 96.841 107.111C96.5723 107.215 96.3253 107.38 96.1 107.605C95.8833 107.822 95.7056 108.103 95.567 108.45C95.4283 108.788 95.359 109.191 95.359 109.659C95.359 110.17 95.463 110.634 95.671 111.05C95.879 111.466 96.178 111.795 96.568 112.038C96.9666 112.281 97.439 112.402 97.985 112.402C98.2883 112.402 98.5613 112.359 98.804 112.272C99.0466 112.185 99.259 112.073 99.441 111.934C99.623 111.787 99.7746 111.635 99.896 111.479C99.9913 111.401 100.087 111.362 100.182 111.362C100.269 111.362 100.342 111.397 100.403 111.466C100.472 111.535 100.507 111.613 100.507 111.7C100.507 111.804 100.464 111.895 100.377 111.973C100.117 112.285 99.779 112.558 99.363 112.792C98.947 113.017 98.492 113.13 97.998 113.13ZM104.504 112.61C104.504 112.714 104.465 112.805 104.387 112.883C104.309 112.961 104.218 113 104.114 113C104.001 113 103.906 112.961 103.828 112.883C103.758 112.805 103.724 112.714 103.724 112.61V103.77C103.724 103.666 103.763 103.575 103.841 103.497C103.919 103.419 104.01 103.38 104.114 103.38C104.226 103.38 104.317 103.419 104.387 103.497C104.465 103.575 104.504 103.666 104.504 103.77V112.61ZM108.8 112.61C108.8 112.714 108.761 112.805 108.683 112.883C108.605 112.961 108.514 113 108.41 113C108.297 113 108.202 112.961 108.124 112.883C108.054 112.805 108.02 112.714 108.02 112.61V103.77C108.02 103.666 108.059 103.575 108.137 103.497C108.215 103.419 108.306 103.38 108.41 103.38C108.522 103.38 108.613 103.419 108.683 103.497C108.761 103.575 108.8 103.666 108.8 103.77V112.61ZM112.992 112.61C112.992 112.714 112.953 112.805 112.875 112.883C112.797 112.961 112.706 113 112.602 113C112.489 113 112.394 112.961 112.316 112.883C112.246 112.805 112.212 112.714 112.212 112.61V106.63C112.212 106.526 112.246 106.435 112.316 106.357C112.394 106.279 112.489 106.24 112.602 106.24C112.714 106.24 112.805 106.279 112.875 106.357C112.953 106.435 112.992 106.526 112.992 106.63V112.61ZM112.602 105.369C112.42 105.369 112.281 105.33 112.186 105.252C112.099 105.165 112.056 105.044 112.056 104.888V104.758C112.056 104.602 112.103 104.485 112.199 104.407C112.303 104.32 112.441 104.277 112.615 104.277C112.779 104.277 112.905 104.32 112.992 104.407C113.087 104.485 113.135 104.602 113.135 104.758V104.888C113.135 105.044 113.087 105.165 112.992 105.252C112.905 105.33 112.775 105.369 112.602 105.369ZM119.087 106.201C119.477 106.201 119.837 106.27 120.166 106.409C120.495 106.539 120.781 106.712 121.024 106.929C121.275 107.137 121.47 107.362 121.609 107.605C121.748 107.839 121.817 108.064 121.817 108.281L121.596 107.969V106.76C121.596 106.647 121.631 106.552 121.7 106.474C121.778 106.396 121.873 106.357 121.986 106.357C122.107 106.357 122.203 106.396 122.272 106.474C122.341 106.552 122.376 106.647 122.376 106.76V112.389C122.376 113.082 122.233 113.667 121.947 114.144C121.661 114.621 121.271 114.98 120.777 115.223C120.292 115.474 119.737 115.6 119.113 115.6C118.81 115.6 118.489 115.561 118.151 115.483C117.822 115.405 117.536 115.305 117.293 115.184C117.059 115.063 116.929 114.937 116.903 114.807C116.834 114.729 116.799 114.651 116.799 114.573C116.808 114.504 116.847 114.443 116.916 114.391C117.003 114.33 117.094 114.322 117.189 114.365C117.284 114.417 117.427 114.482 117.618 114.56C117.705 114.586 117.822 114.625 117.969 114.677C118.116 114.729 118.29 114.772 118.489 114.807C118.697 114.85 118.914 114.872 119.139 114.872C119.919 114.872 120.521 114.647 120.946 114.196C121.379 113.754 121.596 113.169 121.596 112.441V111.193L121.739 111.232C121.661 111.544 121.531 111.817 121.349 112.051C121.176 112.285 120.968 112.484 120.725 112.649C120.482 112.805 120.218 112.922 119.932 113C119.655 113.087 119.377 113.13 119.1 113.13C118.502 113.13 117.965 112.978 117.488 112.675C117.011 112.372 116.63 111.96 116.344 111.44C116.067 110.92 115.928 110.326 115.928 109.659C115.928 109 116.067 108.411 116.344 107.891C116.63 107.362 117.007 106.951 117.475 106.656C117.952 106.353 118.489 106.201 119.087 106.201ZM119.178 106.929C118.701 106.929 118.272 107.05 117.891 107.293C117.518 107.527 117.224 107.852 117.007 108.268C116.799 108.675 116.695 109.139 116.695 109.659C116.695 110.179 116.799 110.647 117.007 111.063C117.224 111.479 117.518 111.808 117.891 112.051C118.272 112.285 118.701 112.402 119.178 112.402C119.655 112.402 120.079 112.285 120.452 112.051C120.825 111.817 121.119 111.496 121.336 111.089C121.553 110.673 121.661 110.196 121.661 109.659C121.661 109.122 121.553 108.649 121.336 108.242C121.119 107.826 120.825 107.505 120.452 107.28C120.079 107.046 119.655 106.929 119.178 106.929ZM128.479 113.13C127.812 113.13 127.223 112.987 126.711 112.701C126.2 112.415 125.801 112.016 125.515 111.505C125.229 110.994 125.086 110.396 125.086 109.711C125.086 108.974 125.229 108.346 125.515 107.826C125.81 107.306 126.187 106.907 126.646 106.63C127.114 106.344 127.608 106.201 128.128 106.201C128.51 106.201 128.878 106.27 129.233 106.409C129.597 106.539 129.918 106.738 130.195 107.007C130.481 107.267 130.707 107.588 130.871 107.969C131.045 108.35 131.14 108.792 131.157 109.295C131.149 109.399 131.105 109.49 131.027 109.568C130.949 109.637 130.858 109.672 130.754 109.672H125.541L125.385 108.97H130.507L130.338 109.126V108.866C130.304 108.459 130.174 108.112 129.948 107.826C129.723 107.54 129.45 107.323 129.129 107.176C128.809 107.029 128.475 106.955 128.128 106.955C127.868 106.955 127.6 107.007 127.322 107.111C127.054 107.215 126.807 107.38 126.581 107.605C126.365 107.822 126.187 108.103 126.048 108.45C125.91 108.788 125.84 109.191 125.84 109.659C125.84 110.17 125.944 110.634 126.152 111.05C126.36 111.466 126.659 111.795 127.049 112.038C127.448 112.281 127.92 112.402 128.466 112.402C128.77 112.402 129.043 112.359 129.285 112.272C129.528 112.185 129.74 112.073 129.922 111.934C130.104 111.787 130.256 111.635 130.377 111.479C130.473 111.401 130.568 111.362 130.663 111.362C130.75 111.362 130.824 111.397 130.884 111.466C130.954 111.535 130.988 111.613 130.988 111.7C130.988 111.804 130.945 111.895 130.858 111.973C130.598 112.285 130.26 112.558 129.844 112.792C129.428 113.017 128.973 113.13 128.479 113.13ZM137.26 106.201C137.832 106.201 138.287 106.318 138.625 106.552C138.972 106.777 139.219 107.089 139.366 107.488C139.522 107.878 139.6 108.311 139.6 108.788V112.61C139.6 112.714 139.561 112.805 139.483 112.883C139.405 112.961 139.314 113 139.21 113C139.089 113 138.993 112.961 138.924 112.883C138.855 112.805 138.82 112.714 138.82 112.61V108.827C138.82 108.48 138.764 108.164 138.651 107.878C138.538 107.592 138.352 107.362 138.092 107.189C137.841 107.016 137.507 106.929 137.091 106.929C136.718 106.929 136.363 107.016 136.025 107.189C135.696 107.362 135.427 107.592 135.219 107.878C135.011 108.164 134.907 108.48 134.907 108.827V112.61C134.907 112.714 134.868 112.805 134.79 112.883C134.712 112.961 134.621 113 134.517 113C134.396 113 134.3 112.961 134.231 112.883C134.162 112.805 134.127 112.714 134.127 112.61V106.786C134.127 106.682 134.162 106.591 134.231 106.513C134.309 106.435 134.404 106.396 134.517 106.396C134.63 106.396 134.721 106.435 134.79 106.513C134.868 106.591 134.907 106.682 134.907 106.786V107.878L134.608 108.346C134.625 108.069 134.712 107.804 134.868 107.553C135.033 107.293 135.241 107.063 135.492 106.864C135.743 106.656 136.021 106.496 136.324 106.383C136.636 106.262 136.948 106.201 137.26 106.201ZM145.868 106.201C146.284 106.201 146.665 106.249 147.012 106.344C147.358 106.431 147.636 106.552 147.844 106.708C148.06 106.864 148.169 107.033 148.169 107.215C148.169 107.302 148.138 107.388 148.078 107.475C148.017 107.553 147.935 107.592 147.831 107.592C147.727 107.592 147.64 107.566 147.571 107.514C147.51 107.462 147.445 107.401 147.376 107.332C147.315 107.263 147.224 107.198 147.103 107.137C146.99 107.085 146.83 107.037 146.622 106.994C146.414 106.951 146.175 106.929 145.907 106.929C145.421 106.929 144.984 107.05 144.594 107.293C144.204 107.536 143.896 107.865 143.671 108.281C143.445 108.688 143.333 109.148 143.333 109.659C143.333 110.179 143.441 110.647 143.658 111.063C143.874 111.479 144.173 111.808 144.555 112.051C144.936 112.285 145.382 112.402 145.894 112.402C146.24 112.402 146.509 112.372 146.7 112.311C146.89 112.25 147.055 112.181 147.194 112.103C147.358 112.008 147.475 111.917 147.545 111.83C147.623 111.735 147.722 111.687 147.844 111.687C147.956 111.687 148.039 111.722 148.091 111.791C148.151 111.852 148.182 111.934 148.182 112.038C148.182 112.177 148.078 112.333 147.87 112.506C147.67 112.671 147.393 112.818 147.038 112.948C146.682 113.069 146.275 113.13 145.816 113.13C145.166 113.13 144.594 112.978 144.1 112.675C143.614 112.372 143.233 111.96 142.956 111.44C142.687 110.911 142.553 110.318 142.553 109.659C142.553 109.026 142.691 108.45 142.969 107.93C143.246 107.41 143.632 106.994 144.126 106.682C144.628 106.361 145.209 106.201 145.868 106.201ZM153.974 113.13C153.307 113.13 152.717 112.987 152.206 112.701C151.695 112.415 151.296 112.016 151.01 111.505C150.724 110.994 150.581 110.396 150.581 109.711C150.581 108.974 150.724 108.346 151.01 107.826C151.305 107.306 151.682 106.907 152.141 106.63C152.609 106.344 153.103 106.201 153.623 106.201C154.004 106.201 154.373 106.27 154.728 106.409C155.092 106.539 155.413 106.738 155.69 107.007C155.976 107.267 156.201 107.588 156.366 107.969C156.539 108.35 156.635 108.792 156.652 109.295C156.643 109.399 156.6 109.49 156.522 109.568C156.444 109.637 156.353 109.672 156.249 109.672H151.036L150.88 108.97H156.002L155.833 109.126V108.866C155.798 108.459 155.668 108.112 155.443 107.826C155.218 107.54 154.945 107.323 154.624 107.176C154.303 107.029 153.97 106.955 153.623 106.955C153.363 106.955 153.094 107.007 152.817 107.111C152.548 107.215 152.301 107.38 152.076 107.605C151.859 107.822 151.682 108.103 151.543 108.45C151.404 108.788 151.335 109.191 151.335 109.659C151.335 110.17 151.439 110.634 151.647 111.05C151.855 111.466 152.154 111.795 152.544 112.038C152.943 112.281 153.415 112.402 153.961 112.402C154.264 112.402 154.537 112.359 154.78 112.272C155.023 112.185 155.235 112.073 155.417 111.934C155.599 111.787 155.751 111.635 155.872 111.479C155.967 111.401 156.063 111.362 156.158 111.362C156.245 111.362 156.318 111.397 156.379 111.466C156.448 111.535 156.483 111.613 156.483 111.7C156.483 111.804 156.44 111.895 156.353 111.973C156.093 112.285 155.755 112.558 155.339 112.792C154.923 113.017 154.468 113.13 153.974 113.13ZM165.061 103.9C165.122 103.9 165.183 103.913 165.243 103.939C165.313 103.965 165.369 104.008 165.412 104.069L169 109.451L168.649 109.438L172.25 104.069C172.346 103.939 172.463 103.883 172.601 103.9C172.705 103.9 172.792 103.939 172.861 104.017C172.939 104.086 172.978 104.177 172.978 104.29V112.61C172.978 112.714 172.939 112.805 172.861 112.883C172.783 112.961 172.688 113 172.575 113C172.454 113 172.354 112.961 172.276 112.883C172.198 112.805 172.159 112.714 172.159 112.61V105.083L172.393 105.109L169.104 110.088C169.078 110.14 169.039 110.183 168.987 110.218C168.935 110.244 168.875 110.253 168.805 110.244C168.745 110.253 168.684 110.244 168.623 110.218C168.571 110.183 168.528 110.14 168.493 110.088L165.191 105.057L165.438 104.888V112.61C165.438 112.714 165.399 112.805 165.321 112.883C165.252 112.961 165.161 113 165.048 113C164.936 113 164.845 112.961 164.775 112.883C164.706 112.805 164.671 112.714 164.671 112.61V104.29C164.671 104.186 164.706 104.095 164.775 104.017C164.853 103.939 164.949 103.9 165.061 103.9ZM179.532 113.13C178.865 113.13 178.276 112.987 177.764 112.701C177.253 112.415 176.854 112.016 176.568 111.505C176.282 110.994 176.139 110.396 176.139 109.711C176.139 108.974 176.282 108.346 176.568 107.826C176.863 107.306 177.24 106.907 177.699 106.63C178.167 106.344 178.661 106.201 179.181 106.201C179.563 106.201 179.931 106.27 180.286 106.409C180.65 106.539 180.971 106.738 181.248 107.007C181.534 107.267 181.76 107.588 181.924 107.969C182.098 108.35 182.193 108.792 182.21 109.295C182.202 109.399 182.158 109.49 182.08 109.568C182.002 109.637 181.911 109.672 181.807 109.672H176.594L176.438 108.97H181.56L181.391 109.126V108.866C181.357 108.459 181.227 108.112 181.001 107.826C180.776 107.54 180.503 107.323 180.182 107.176C179.862 107.029 179.528 106.955 179.181 106.955C178.921 106.955 178.653 107.007 178.375 107.111C178.107 107.215 177.86 107.38 177.634 107.605C177.418 107.822 177.24 108.103 177.101 108.45C176.963 108.788 176.893 109.191 176.893 109.659C176.893 110.17 176.997 110.634 177.205 111.05C177.413 111.466 177.712 111.795 178.102 112.038C178.501 112.281 178.973 112.402 179.519 112.402C179.823 112.402 180.096 112.359 180.338 112.272C180.581 112.185 180.793 112.073 180.975 111.934C181.157 111.787 181.309 111.635 181.43 111.479C181.526 111.401 181.621 111.362 181.716 111.362C181.803 111.362 181.877 111.397 181.937 111.466C182.007 111.535 182.041 111.613 182.041 111.7C182.041 111.804 181.998 111.895 181.911 111.973C181.651 112.285 181.313 112.558 180.897 112.792C180.481 113.017 180.026 113.13 179.532 113.13ZM188.183 113.13C187.516 113.13 186.926 112.987 186.415 112.701C185.904 112.415 185.505 112.016 185.219 111.505C184.933 110.994 184.79 110.396 184.79 109.711C184.79 108.974 184.933 108.346 185.219 107.826C185.514 107.306 185.891 106.907 186.35 106.63C186.818 106.344 187.312 106.201 187.832 106.201C188.213 106.201 188.582 106.27 188.937 106.409C189.301 106.539 189.622 106.738 189.899 107.007C190.185 107.267 190.41 107.588 190.575 107.969C190.748 108.35 190.844 108.792 190.861 109.295C190.852 109.399 190.809 109.49 190.731 109.568C190.653 109.637 190.562 109.672 190.458 109.672H185.245L185.089 108.97H190.211L190.042 109.126V108.866C190.007 108.459 189.877 108.112 189.652 107.826C189.427 107.54 189.154 107.323 188.833 107.176C188.512 107.029 188.179 106.955 187.832 106.955C187.572 106.955 187.303 107.007 187.026 107.111C186.757 107.215 186.51 107.38 186.285 107.605C186.068 107.822 185.891 108.103 185.752 108.45C185.613 108.788 185.544 109.191 185.544 109.659C185.544 110.17 185.648 110.634 185.856 111.05C186.064 111.466 186.363 111.795 186.753 112.038C187.152 112.281 187.624 112.402 188.17 112.402C188.473 112.402 188.746 112.359 188.989 112.272C189.232 112.185 189.444 112.073 189.626 111.934C189.808 111.787 189.96 111.635 190.081 111.479C190.176 111.401 190.272 111.362 190.367 111.362C190.454 111.362 190.527 111.397 190.588 111.466C190.657 111.535 190.692 111.613 190.692 111.7C190.692 111.804 190.649 111.895 190.562 111.973C190.302 112.285 189.964 112.558 189.548 112.792C189.132 113.017 188.677 113.13 188.183 113.13ZM193.402 106.383H196.431C196.535 106.383 196.621 106.422 196.691 106.5C196.76 106.569 196.795 106.656 196.795 106.76C196.795 106.855 196.76 106.938 196.691 107.007C196.621 107.076 196.535 107.111 196.431 107.111H193.402C193.298 107.111 193.207 107.076 193.129 107.007C193.059 106.929 193.025 106.842 193.025 106.747C193.025 106.643 193.059 106.556 193.129 106.487C193.207 106.418 193.298 106.383 193.402 106.383ZM194.741 104.55C194.853 104.55 194.944 104.589 195.014 104.667C195.092 104.745 195.131 104.836 195.131 104.94V111.466C195.131 111.709 195.161 111.891 195.222 112.012C195.291 112.133 195.378 112.216 195.482 112.259C195.586 112.294 195.69 112.311 195.794 112.311C195.863 112.311 195.924 112.302 195.976 112.285C196.036 112.259 196.101 112.246 196.171 112.246C196.249 112.246 196.314 112.276 196.366 112.337C196.426 112.398 196.457 112.476 196.457 112.571C196.457 112.692 196.387 112.796 196.249 112.883C196.11 112.961 195.945 113 195.755 113C195.677 113 195.56 112.996 195.404 112.987C195.248 112.97 195.087 112.922 194.923 112.844C194.758 112.757 194.619 112.61 194.507 112.402C194.403 112.194 194.351 111.895 194.351 111.505V104.94C194.351 104.836 194.385 104.745 194.455 104.667C194.533 104.589 194.628 104.55 194.741 104.55ZM199.413 111.947C199.343 111.843 199.309 111.743 199.309 111.648C199.317 111.544 199.374 111.462 199.478 111.401C199.547 111.34 199.625 111.314 199.712 111.323C199.807 111.332 199.894 111.375 199.972 111.453C200.206 111.756 200.487 112.003 200.817 112.194C201.155 112.376 201.553 112.467 202.013 112.467C202.255 112.467 202.494 112.428 202.728 112.35C202.97 112.263 203.17 112.138 203.326 111.973C203.482 111.8 203.56 111.583 203.56 111.323C203.56 111.054 203.482 110.838 203.326 110.673C203.17 110.508 202.966 110.378 202.715 110.283C202.472 110.188 202.212 110.105 201.935 110.036C201.64 109.958 201.354 109.871 201.077 109.776C200.799 109.672 200.552 109.546 200.336 109.399C200.128 109.243 199.959 109.057 199.829 108.84C199.699 108.623 199.634 108.359 199.634 108.047C199.634 107.683 199.733 107.362 199.933 107.085C200.132 106.808 200.401 106.591 200.739 106.435C201.085 106.279 201.475 106.201 201.909 106.201C202.125 106.201 202.359 106.231 202.611 106.292C202.862 106.344 203.109 106.435 203.352 106.565C203.594 106.695 203.811 106.873 204.002 107.098C204.08 107.176 204.119 107.267 204.119 107.371C204.119 107.466 204.075 107.553 203.989 107.631C203.919 107.683 203.837 107.709 203.742 107.709C203.655 107.709 203.581 107.674 203.521 107.605C203.313 107.371 203.066 107.193 202.78 107.072C202.494 106.951 202.186 106.89 201.857 106.89C201.605 106.89 201.367 106.933 201.142 107.02C200.925 107.098 200.743 107.219 200.596 107.384C200.448 107.549 200.375 107.765 200.375 108.034C200.392 108.285 200.479 108.489 200.635 108.645C200.799 108.801 201.012 108.931 201.272 109.035C201.54 109.139 201.839 109.234 202.169 109.321C202.446 109.39 202.71 109.473 202.962 109.568C203.222 109.663 203.447 109.785 203.638 109.932C203.837 110.071 203.993 110.248 204.106 110.465C204.227 110.682 204.288 110.955 204.288 111.284C204.288 111.665 204.179 111.995 203.963 112.272C203.755 112.549 203.473 112.762 203.118 112.909C202.762 113.056 202.368 113.13 201.935 113.13C201.467 113.13 201.012 113.039 200.57 112.857C200.136 112.675 199.751 112.372 199.413 111.947ZM218.876 104.576C218.98 104.645 219.041 104.736 219.058 104.849C219.075 104.953 219.049 105.057 218.98 105.161C218.919 105.239 218.841 105.282 218.746 105.291C218.651 105.3 218.56 105.282 218.473 105.239C218.144 105.022 217.788 104.853 217.407 104.732C217.034 104.611 216.631 104.55 216.198 104.55C215.669 104.55 215.175 104.645 214.716 104.836C214.265 105.018 213.871 105.287 213.533 105.642C213.195 105.989 212.931 106.4 212.74 106.877C212.558 107.354 212.467 107.878 212.467 108.45C212.467 109.039 212.562 109.577 212.753 110.062C212.944 110.539 213.208 110.95 213.546 111.297C213.893 111.644 214.291 111.908 214.742 112.09C215.193 112.272 215.678 112.363 216.198 112.363C216.623 112.363 217.021 112.302 217.394 112.181C217.775 112.06 218.131 111.895 218.46 111.687C218.547 111.635 218.638 111.618 218.733 111.635C218.837 111.644 218.919 111.691 218.98 111.778C219.058 111.873 219.084 111.977 219.058 112.09C219.041 112.194 218.984 112.276 218.889 112.337C218.672 112.476 218.417 112.606 218.122 112.727C217.827 112.848 217.515 112.944 217.186 113.013C216.857 113.091 216.527 113.13 216.198 113.13C215.574 113.13 214.989 113.017 214.443 112.792C213.897 112.567 213.412 112.25 212.987 111.843C212.562 111.427 212.229 110.933 211.986 110.361C211.752 109.789 211.635 109.152 211.635 108.45C211.635 107.774 211.752 107.154 211.986 106.591C212.22 106.019 212.545 105.525 212.961 105.109C213.377 104.693 213.862 104.368 214.417 104.134C214.972 103.9 215.565 103.783 216.198 103.783C216.692 103.783 217.169 103.852 217.628 103.991C218.087 104.13 218.503 104.325 218.876 104.576ZM228.019 109.672C228.019 110.331 227.876 110.924 227.59 111.453C227.304 111.973 226.914 112.385 226.42 112.688C225.926 112.983 225.363 113.13 224.73 113.13C224.115 113.13 223.556 112.983 223.053 112.688C222.559 112.385 222.165 111.973 221.87 111.453C221.584 110.924 221.441 110.331 221.441 109.672C221.441 109.005 221.584 108.411 221.87 107.891C222.165 107.371 222.559 106.959 223.053 106.656C223.556 106.353 224.115 106.201 224.73 106.201C225.363 106.201 225.926 106.353 226.42 106.656C226.914 106.959 227.304 107.371 227.59 107.891C227.876 108.411 228.019 109.005 228.019 109.672ZM227.239 109.672C227.239 109.143 227.131 108.675 226.914 108.268C226.698 107.852 226.399 107.527 226.017 107.293C225.645 107.05 225.216 106.929 224.73 106.929C224.262 106.929 223.838 107.05 223.456 107.293C223.075 107.527 222.772 107.852 222.546 108.268C222.33 108.675 222.221 109.143 222.221 109.672C222.221 110.201 222.33 110.669 222.546 111.076C222.772 111.483 223.075 111.808 223.456 112.051C223.838 112.285 224.262 112.402 224.73 112.402C225.216 112.402 225.645 112.285 226.017 112.051C226.399 111.808 226.698 111.483 226.914 111.076C227.131 110.669 227.239 110.201 227.239 109.672ZM234.11 106.201C234.682 106.201 235.137 106.318 235.475 106.552C235.822 106.777 236.069 107.089 236.216 107.488C236.372 107.878 236.45 108.311 236.45 108.788V112.61C236.45 112.714 236.411 112.805 236.333 112.883C236.255 112.961 236.164 113 236.06 113C235.939 113 235.843 112.961 235.774 112.883C235.705 112.805 235.67 112.714 235.67 112.61V108.827C235.67 108.48 235.614 108.164 235.501 107.878C235.388 107.592 235.202 107.362 234.942 107.189C234.691 107.016 234.357 106.929 233.941 106.929C233.568 106.929 233.213 107.016 232.875 107.189C232.546 107.362 232.277 107.592 232.069 107.878C231.861 108.164 231.757 108.48 231.757 108.827V112.61C231.757 112.714 231.718 112.805 231.64 112.883C231.562 112.961 231.471 113 231.367 113C231.246 113 231.15 112.961 231.081 112.883C231.012 112.805 230.977 112.714 230.977 112.61V106.786C230.977 106.682 231.012 106.591 231.081 106.513C231.159 106.435 231.254 106.396 231.367 106.396C231.48 106.396 231.571 106.435 231.64 106.513C231.718 106.591 231.757 106.682 231.757 106.786V107.878L231.458 108.346C231.475 108.069 231.562 107.804 231.718 107.553C231.883 107.293 232.091 107.063 232.342 106.864C232.593 106.656 232.871 106.496 233.174 106.383C233.486 106.262 233.798 106.201 234.11 106.201ZM242.926 106.201C243.498 106.201 243.953 106.318 244.291 106.552C244.637 106.777 244.884 107.089 245.032 107.488C245.188 107.878 245.266 108.311 245.266 108.788V112.61C245.266 112.714 245.227 112.805 245.149 112.883C245.071 112.961 244.98 113 244.876 113C244.754 113 244.659 112.961 244.59 112.883C244.52 112.805 244.486 112.714 244.486 112.61V108.827C244.486 108.48 244.429 108.164 244.317 107.878C244.204 107.592 244.018 107.362 243.758 107.189C243.506 107.016 243.173 106.929 242.757 106.929C242.384 106.929 242.029 107.016 241.691 107.189C241.361 107.362 241.093 107.592 240.885 107.878C240.677 108.164 240.573 108.48 240.573 108.827V112.61C240.573 112.714 240.534 112.805 240.456 112.883C240.378 112.961 240.287 113 240.183 113C240.061 113 239.966 112.961 239.897 112.883C239.827 112.805 239.793 112.714 239.793 112.61V106.786C239.793 106.682 239.827 106.591 239.897 106.513C239.975 106.435 240.07 106.396 240.183 106.396C240.295 106.396 240.386 106.435 240.456 106.513C240.534 106.591 240.573 106.682 240.573 106.786V107.878L240.274 108.346C240.291 108.069 240.378 107.804 240.534 107.553C240.698 107.293 240.906 107.063 241.158 106.864C241.409 106.656 241.686 106.496 241.99 106.383C242.302 106.262 242.614 106.201 242.926 106.201ZM251.611 113.13C250.944 113.13 250.355 112.987 249.843 112.701C249.332 112.415 248.933 112.016 248.647 111.505C248.361 110.994 248.218 110.396 248.218 109.711C248.218 108.974 248.361 108.346 248.647 107.826C248.942 107.306 249.319 106.907 249.778 106.63C250.246 106.344 250.74 106.201 251.26 106.201C251.642 106.201 252.01 106.27 252.365 106.409C252.729 106.539 253.05 106.738 253.327 107.007C253.613 107.267 253.839 107.588 254.003 107.969C254.177 108.35 254.272 108.792 254.289 109.295C254.281 109.399 254.237 109.49 254.159 109.568C254.081 109.637 253.99 109.672 253.886 109.672H248.673L248.517 108.97H253.639L253.47 109.126V108.866C253.436 108.459 253.306 108.112 253.08 107.826C252.855 107.54 252.582 107.323 252.261 107.176C251.941 107.029 251.607 106.955 251.26 106.955C251 106.955 250.732 107.007 250.454 107.111C250.186 107.215 249.939 107.38 249.713 107.605C249.497 107.822 249.319 108.103 249.18 108.45C249.042 108.788 248.972 109.191 248.972 109.659C248.972 110.17 249.076 110.634 249.284 111.05C249.492 111.466 249.791 111.795 250.181 112.038C250.58 112.281 251.052 112.402 251.598 112.402C251.902 112.402 252.175 112.359 252.417 112.272C252.66 112.185 252.872 112.073 253.054 111.934C253.236 111.787 253.388 111.635 253.509 111.479C253.605 111.401 253.7 111.362 253.795 111.362C253.882 111.362 253.956 111.397 254.016 111.466C254.086 111.535 254.12 111.613 254.12 111.7C254.12 111.804 254.077 111.895 253.99 111.973C253.73 112.285 253.392 112.558 252.976 112.792C252.56 113.017 252.105 113.13 251.611 113.13ZM260.184 106.201C260.6 106.201 260.981 106.249 261.328 106.344C261.675 106.431 261.952 106.552 262.16 106.708C262.377 106.864 262.485 107.033 262.485 107.215C262.485 107.302 262.455 107.388 262.394 107.475C262.333 107.553 262.251 107.592 262.147 107.592C262.043 107.592 261.956 107.566 261.887 107.514C261.826 107.462 261.761 107.401 261.692 107.332C261.631 107.263 261.54 107.198 261.419 107.137C261.306 107.085 261.146 107.037 260.938 106.994C260.73 106.951 260.492 106.929 260.223 106.929C259.738 106.929 259.3 107.05 258.91 107.293C258.52 107.536 258.212 107.865 257.987 108.281C257.762 108.688 257.649 109.148 257.649 109.659C257.649 110.179 257.757 110.647 257.974 111.063C258.191 111.479 258.49 111.808 258.871 112.051C259.252 112.285 259.699 112.402 260.21 112.402C260.557 112.402 260.825 112.372 261.016 112.311C261.207 112.25 261.371 112.181 261.51 112.103C261.675 112.008 261.792 111.917 261.861 111.83C261.939 111.735 262.039 111.687 262.16 111.687C262.273 111.687 262.355 111.722 262.407 111.791C262.468 111.852 262.498 111.934 262.498 112.038C262.498 112.177 262.394 112.333 262.186 112.506C261.987 112.671 261.709 112.818 261.354 112.948C260.999 113.069 260.591 113.13 260.132 113.13C259.482 113.13 258.91 112.978 258.416 112.675C257.931 112.372 257.549 111.96 257.272 111.44C257.003 110.911 256.869 110.318 256.869 109.659C256.869 109.026 257.008 108.45 257.285 107.93C257.562 107.41 257.948 106.994 258.442 106.682C258.945 106.361 259.525 106.201 260.184 106.201ZM264.858 106.383H267.887C267.991 106.383 268.078 106.422 268.147 106.5C268.217 106.569 268.251 106.656 268.251 106.76C268.251 106.855 268.217 106.938 268.147 107.007C268.078 107.076 267.991 107.111 267.887 107.111H264.858C264.754 107.111 264.663 107.076 264.585 107.007C264.516 106.929 264.481 106.842 264.481 106.747C264.481 106.643 264.516 106.556 264.585 106.487C264.663 106.418 264.754 106.383 264.858 106.383ZM266.197 104.55C266.31 104.55 266.401 104.589 266.47 104.667C266.548 104.745 266.587 104.836 266.587 104.94V111.466C266.587 111.709 266.618 111.891 266.678 112.012C266.748 112.133 266.834 112.216 266.938 112.259C267.042 112.294 267.146 112.311 267.25 112.311C267.32 112.311 267.38 112.302 267.432 112.285C267.493 112.259 267.558 112.246 267.627 112.246C267.705 112.246 267.77 112.276 267.822 112.337C267.883 112.398 267.913 112.476 267.913 112.571C267.913 112.692 267.844 112.796 267.705 112.883C267.567 112.961 267.402 113 267.211 113C267.133 113 267.016 112.996 266.86 112.987C266.704 112.97 266.544 112.922 266.379 112.844C266.215 112.757 266.076 112.61 265.963 112.402C265.859 112.194 265.807 111.895 265.807 111.505V104.94C265.807 104.836 265.842 104.745 265.911 104.667C265.989 104.589 266.085 104.55 266.197 104.55ZM271.747 112.61C271.747 112.714 271.708 112.805 271.63 112.883C271.552 112.961 271.461 113 271.357 113C271.244 113 271.149 112.961 271.071 112.883C271.001 112.805 270.967 112.714 270.967 112.61V106.63C270.967 106.526 271.001 106.435 271.071 106.357C271.149 106.279 271.244 106.24 271.357 106.24C271.469 106.24 271.56 106.279 271.63 106.357C271.708 106.435 271.747 106.526 271.747 106.63V112.61ZM271.357 105.369C271.175 105.369 271.036 105.33 270.941 105.252C270.854 105.165 270.811 105.044 270.811 104.888V104.758C270.811 104.602 270.858 104.485 270.954 104.407C271.058 104.32 271.196 104.277 271.37 104.277C271.534 104.277 271.66 104.32 271.747 104.407C271.842 104.485 271.89 104.602 271.89 104.758V104.888C271.89 105.044 271.842 105.165 271.747 105.252C271.66 105.33 271.53 105.369 271.357 105.369ZM281.261 109.672C281.261 110.331 281.118 110.924 280.832 111.453C280.546 111.973 280.156 112.385 279.662 112.688C279.168 112.983 278.605 113.13 277.972 113.13C277.357 113.13 276.798 112.983 276.295 112.688C275.801 112.385 275.407 111.973 275.112 111.453C274.826 110.924 274.683 110.331 274.683 109.672C274.683 109.005 274.826 108.411 275.112 107.891C275.407 107.371 275.801 106.959 276.295 106.656C276.798 106.353 277.357 106.201 277.972 106.201C278.605 106.201 279.168 106.353 279.662 106.656C280.156 106.959 280.546 107.371 280.832 107.891C281.118 108.411 281.261 109.005 281.261 109.672ZM280.481 109.672C280.481 109.143 280.373 108.675 280.156 108.268C279.939 107.852 279.64 107.527 279.259 107.293C278.886 107.05 278.457 106.929 277.972 106.929C277.504 106.929 277.079 107.05 276.698 107.293C276.317 107.527 276.013 107.852 275.788 108.268C275.571 108.675 275.463 109.143 275.463 109.672C275.463 110.201 275.571 110.669 275.788 111.076C276.013 111.483 276.317 111.808 276.698 112.051C277.079 112.285 277.504 112.402 277.972 112.402C278.457 112.402 278.886 112.285 279.259 112.051C279.64 111.808 279.939 111.483 280.156 111.076C280.373 110.669 280.481 110.201 280.481 109.672ZM287.352 106.201C287.924 106.201 288.379 106.318 288.717 106.552C289.063 106.777 289.31 107.089 289.458 107.488C289.614 107.878 289.692 108.311 289.692 108.788V112.61C289.692 112.714 289.653 112.805 289.575 112.883C289.497 112.961 289.406 113 289.302 113C289.18 113 289.085 112.961 289.016 112.883C288.946 112.805 288.912 112.714 288.912 112.61V108.827C288.912 108.48 288.855 108.164 288.743 107.878C288.63 107.592 288.444 107.362 288.184 107.189C287.932 107.016 287.599 106.929 287.183 106.929C286.81 106.929 286.455 107.016 286.117 107.189C285.787 107.362 285.519 107.592 285.311 107.878C285.103 108.164 284.999 108.48 284.999 108.827V112.61C284.999 112.714 284.96 112.805 284.882 112.883C284.804 112.961 284.713 113 284.609 113C284.487 113 284.392 112.961 284.323 112.883C284.253 112.805 284.219 112.714 284.219 112.61V106.786C284.219 106.682 284.253 106.591 284.323 106.513C284.401 106.435 284.496 106.396 284.609 106.396C284.721 106.396 284.812 106.435 284.882 106.513C284.96 106.591 284.999 106.682 284.999 106.786V107.878L284.7 108.346C284.717 108.069 284.804 107.804 284.96 107.553C285.124 107.293 285.332 107.063 285.584 106.864C285.835 106.656 286.112 106.496 286.416 106.383C286.728 106.262 287.04 106.201 287.352 106.201ZM292.657 111.947C292.588 111.843 292.553 111.743 292.553 111.648C292.562 111.544 292.618 111.462 292.722 111.401C292.792 111.34 292.87 111.314 292.956 111.323C293.052 111.332 293.138 111.375 293.216 111.453C293.45 111.756 293.732 112.003 294.061 112.194C294.399 112.376 294.798 112.467 295.257 112.467C295.5 112.467 295.738 112.428 295.972 112.35C296.215 112.263 296.414 112.138 296.57 111.973C296.726 111.8 296.804 111.583 296.804 111.323C296.804 111.054 296.726 110.838 296.57 110.673C296.414 110.508 296.211 110.378 295.959 110.283C295.717 110.188 295.457 110.105 295.179 110.036C294.885 109.958 294.599 109.871 294.321 109.776C294.044 109.672 293.797 109.546 293.58 109.399C293.372 109.243 293.203 109.057 293.073 108.84C292.943 108.623 292.878 108.359 292.878 108.047C292.878 107.683 292.978 107.362 293.177 107.085C293.377 106.808 293.645 106.591 293.983 106.435C294.33 106.279 294.72 106.201 295.153 106.201C295.37 106.201 295.604 106.231 295.855 106.292C296.107 106.344 296.354 106.435 296.596 106.565C296.839 106.695 297.056 106.873 297.246 107.098C297.324 107.176 297.363 107.267 297.363 107.371C297.363 107.466 297.32 107.553 297.233 107.631C297.164 107.683 297.082 107.709 296.986 107.709C296.9 107.709 296.826 107.674 296.765 107.605C296.557 107.371 296.31 107.193 296.024 107.072C295.738 106.951 295.431 106.89 295.101 106.89C294.85 106.89 294.612 106.933 294.386 107.02C294.17 107.098 293.988 107.219 293.84 107.384C293.693 107.549 293.619 107.765 293.619 108.034C293.637 108.285 293.723 108.489 293.879 108.645C294.044 108.801 294.256 108.931 294.516 109.035C294.785 109.139 295.084 109.234 295.413 109.321C295.691 109.39 295.955 109.473 296.206 109.568C296.466 109.663 296.692 109.785 296.882 109.932C297.082 110.071 297.238 110.248 297.35 110.465C297.472 110.682 297.532 110.955 297.532 111.284C297.532 111.665 297.424 111.995 297.207 112.272C296.999 112.549 296.718 112.762 296.362 112.909C296.007 113.056 295.613 113.13 295.179 113.13C294.711 113.13 294.256 113.039 293.814 112.857C293.381 112.675 292.995 112.372 292.657 111.947ZM300.532 113C300.385 113 300.272 112.952 300.194 112.857C300.116 112.762 300.077 112.64 300.077 112.493V112.22C300.077 112.064 300.116 111.943 300.194 111.856C300.272 111.769 300.385 111.726 300.532 111.726H300.623C300.77 111.726 300.883 111.769 300.961 111.856C301.039 111.943 301.078 112.064 301.078 112.22V112.493C301.078 112.64 301.039 112.762 300.961 112.857C300.883 112.952 300.77 113 300.623 113H300.532Z" fill="black"/>
</svg>
