<?xml version="1.0" encoding="UTF-8"?>
<svg version="1.1" xmlns="http://www.w3.org/2000/svg" width="512" height="512">
<path d="M0 0 C0.78095032 -0.00705963 1.56190063 -0.01411926 2.36651611 -0.02139282 C34.83347489 -0.24834147 34.83347489 -0.24834147 48.57421875 3.203125 C49.39519043 3.40180176 50.21616211 3.60047852 51.06201172 3.80517578 C76.47217295 10.09528616 107.88436664 21.81940631 125.57421875 42.203125 C126.58697906 45.35718854 126.40324474 48.01367158 125.57421875 51.203125 C123.03614276 55.07486195 119.82310522 58.16850047 116.52345276 61.39674377 C115.53799971 62.39257176 114.55451648 63.39035223 113.5728392 64.38990253 C110.8738558 67.12643757 108.14753843 69.83421555 105.41583264 72.53803313 C102.47305256 75.46045028 99.55629164 78.40864181 96.63609314 81.35359192 C90.91298433 87.11672916 85.16579766 92.8552594 79.40962137 98.58534992 C74.7321066 103.2425425 70.06344645 107.90844136 65.40098381 112.58070183 C64.73749562 113.24556912 64.07400743 113.91043641 63.39041353 114.59545119 C62.04260496 115.94613727 60.69481662 117.29684354 59.34704828 118.64756977 C46.70674317 131.31354133 34.03899433 143.95177577 21.36170238 156.58071237 C10.483657 167.41854757 -0.37057473 178.27976345 -11.20776367 189.15844727 C-23.79140586 201.79024874 -36.38951428 214.40732682 -49.01107556 227.00124878 C-50.35680404 228.3441103 -51.70251373 229.68699066 -53.04820442 231.02989006 C-53.71032448 231.69062164 -54.37244453 232.35135321 -55.05462883 233.03210695 C-59.72048702 237.69019298 -64.37581727 242.35864389 -69.02718925 247.03119087 C-74.69569686 252.72493528 -80.37994994 258.40237461 -86.08501875 264.05949367 C-88.99575091 266.94656517 -91.89880815 269.8403785 -94.7828331 272.75415039 C-97.42331178 275.42145008 -100.08367107 278.06707138 -102.76141918 280.69693851 C-104.18344115 282.10414528 -105.58342665 283.53351333 -106.98250192 284.96353632 C-113.94792376 291.73751892 -113.94792376 291.73751892 -119.42054844 291.85888577 C-122.16626208 291.61014561 -123.33347489 291.26154875 -125.703125 289.76171875 C-126.52490234 288.71177734 -126.52490234 288.71177734 -127.36328125 287.640625 C-128.01296875 286.81433594 -128.66265625 285.98804688 -129.33203125 285.13671875 C-130.02296875 284.16863281 -130.71390625 283.20054687 -131.42578125 282.203125 C-131.81378906 281.66703613 -132.20179688 281.13094727 -132.6015625 280.57861328 C-154.66158023 249.82589809 -165.91645851 214.28455233 -165.73828125 176.515625 C-165.73579376 175.67352478 -165.73330627 174.83142456 -165.73074341 173.96380615 C-165.6752245 161.82088277 -165.44988389 150.02711641 -162.42578125 138.203125 C-162.1947168 137.27967285 -161.96365234 136.3562207 -161.72558594 135.40478516 C-158.22411856 121.7578711 -153.78881128 108.78065494 -147.42578125 96.203125 C-147.08321289 95.5234668 -146.74064453 94.84380859 -146.38769531 94.14355469 C-138.81969402 79.39547388 -128.91144728 66.13847453 -117.42578125 54.203125 C-116.95060059 53.70216309 -116.47541992 53.20120117 -115.98583984 52.68505859 C-104.71264746 40.84305171 -92.66376137 31.34638791 -78.42578125 23.203125 C-77.80783691 22.8436377 -77.18989258 22.48415039 -76.55322266 22.11376953 C-53.5738657 8.86197624 -26.68073137 0.1609314 0 0 Z M-4.4609375 18.828125 C-14.48972711 30.57668778 -23.69874739 42.80556727 -31.42578125 56.203125 C-31.82007324 56.87569336 -32.21436523 57.54826172 -32.62060547 58.24121094 C-43.12861436 74.35271132 -43.12861436 74.35271132 -48.42578125 92.203125 C-31.19994852 94.65715096 -15.08021493 95.203125 2.57421875 95.203125 C2.57421875 69.463125 2.57421875 43.723125 2.57421875 17.203125 C-2.20862319 16.68315574 -2.20862319 16.68315574 -4.4609375 18.828125 Z M18.57421875 17.203125 C18.57421875 42.943125 18.57421875 68.683125 18.57421875 95.203125 C41.78006583 97.25749529 41.78006583 97.25749529 64.26171875 89.890625 C66.13572684 87.73575782 66.60804263 86.8130119 66.44921875 83.94921875 C65.28733512 80.30277146 63.63614835 76.96870151 61.88671875 73.578125 C61.52368652 72.86664307 61.1606543 72.15516113 60.78662109 71.42211914 C59.72262912 69.34552783 58.64898961 67.27415178 57.57421875 65.203125 C57.07535156 64.22472656 56.57648438 63.24632812 56.0625 62.23828125 C49.36957649 49.48528946 40.89485693 37.84630419 31.80224609 26.71435547 C30.68514143 25.33962826 29.59121921 23.94614442 28.5 22.55078125 C27.90574219 21.81730469 27.31148437 21.08382812 26.69921875 20.328125 C26.20679688 19.71195313 25.714375 19.09578125 25.20703125 18.4609375 C23.2575693 16.69457487 23.2575693 16.69457487 18.57421875 17.203125 Z M-66.42578125 36.203125 C-67.07708008 36.5630957 -67.72837891 36.92306641 -68.39941406 37.29394531 C-77.10412651 42.17013639 -84.93826029 47.56571559 -92.42578125 54.203125 C-92.91675293 54.63383301 -93.40772461 55.06454102 -93.91357422 55.50830078 C-106.31079089 66.04277534 -106.31079089 66.04277534 -115.42578125 79.203125 C-105.67329799 82.15005458 -95.92940415 84.48848563 -85.92578125 86.453125 C-84.59497456 86.72357716 -83.26424507 86.99440944 -81.93359375 87.265625 C-80.66257813 87.51828125 -79.3915625 87.7709375 -78.08203125 88.03125 C-76.37756836 88.3701123 -76.37756836 88.3701123 -74.63867188 88.71582031 C-71.51125487 89.19016107 -68.58313692 89.29261921 -65.42578125 89.203125 C-65.21598633 88.68741943 -65.00619141 88.17171387 -64.79003906 87.64038086 C-56.10618565 66.45894527 -46.1574457 46.57802428 -32.65576172 28.03637695 C-31.39478447 26.15692515 -30.39352023 24.24678861 -29.42578125 22.203125 C-41.8524836 22.203125 -55.76647963 30.30272727 -66.42578125 36.203125 Z M50.57421875 22.203125 C53.01934642 26.63312102 55.63816545 30.80541538 58.53417969 34.95166016 C66.72900064 46.74559447 73.16972044 59.37230194 79.57421875 72.203125 C85.38313621 67.38445253 90.70487427 62.19056092 96.01171875 56.828125 C96.83865234 55.99667969 97.66558594 55.16523437 98.51757812 54.30859375 C100.53877406 52.2757146 102.5575821 50.24052537 104.57421875 48.203125 C100.82976104 44.11434934 97.05602384 41.4645246 92.19921875 38.828125 C91.49804932 38.44237305 90.79687988 38.05662109 90.07446289 37.65917969 C71.24122298 26.86530611 71.24122298 26.86530611 50.57421875 22.203125 Z M-126.42578125 94.203125 C-139.29146964 117.50643715 -148.42578125 141.17907698 -148.42578125 168.203125 C-126.31578125 168.203125 -104.20578125 168.203125 -81.42578125 168.203125 C-80.27783653 165.90723556 -80.19954311 164.34224116 -80.03125 161.78515625 C-79.96494385 160.8717749 -79.8986377 159.95839355 -79.83032227 159.01733398 C-79.75869873 158.02677002 -79.6870752 157.03620605 -79.61328125 156.015625 C-78.27375653 139.17266157 -75.14568971 122.66953973 -71.42578125 106.203125 C-80.44545807 104.09753339 -89.4802468 102.0718784 -98.52905273 100.09594727 C-100.62185114 99.63875281 -102.71425718 99.17979251 -104.80664062 98.72070312 C-111.99979874 97.14589607 -119.19689351 95.6060679 -126.42578125 94.203125 Z M-54.42578125 108.203125 C-57.54563282 119.79698388 -60.55849422 131.36386947 -62.23828125 143.265625 C-62.34954346 144.04703857 -62.46080566 144.82845215 -62.57543945 145.63354492 C-63.55349896 153.12630418 -63.97064357 160.6641617 -64.42578125 168.203125 C-33.84938894 171.8814017 -33.84938894 171.8814017 -5.53808594 163.69042969 C2.75012092 155.64041108 3.51297483 146.34875061 3.73217773 135.34619141 C3.74861693 127.60575651 3.2615671 119.9096512 2.57421875 112.203125 C1.10335815 112.12795654 1.10335815 112.12795654 -0.3972168 112.05126953 C-18.44391238 111.12201215 -36.45736164 110.18555627 -54.42578125 108.203125 Z M18.57421875 112.203125 C18.57421875 119.133125 18.57421875 126.063125 18.57421875 133.203125 C24.09205229 128.51444304 24.09205229 128.51444304 29.3203125 123.58984375 C29.92939453 122.98205078 30.53847656 122.37425781 31.16601562 121.74804688 C31.77509766 121.13509766 32.38417969 120.52214844 33.01171875 119.890625 C33.64787109 119.25833984 34.28402344 118.62605469 34.93945312 117.97460938 C35.53951172 117.37326172 36.13957031 116.77191406 36.7578125 116.15234375 C37.29978271 115.60924561 37.84175293 115.06614746 38.40014648 114.5065918 C39.68576284 113.37166635 39.68576284 113.37166635 39.57421875 112.203125 C32.64421875 112.203125 25.71421875 112.203125 18.57421875 112.203125 Z M-148.42578125 184.203125 C-148.43791921 185.61740998 -148.44649337 187.03172577 -148.45361328 188.44604492 C-148.4587796 189.23363693 -148.46394592 190.02122894 -148.4692688 190.83268738 C-147.96244388 218.4589132 -134.61090652 248.40978003 -118.42578125 270.203125 C-116.79103342 268.80260688 -115.15652685 267.40180644 -113.52304077 265.99981689 C-112.14291618 264.81748412 -110.76034668 263.63799829 -109.37515259 262.46160889 C-87.82570147 246.0286492 -87.82570147 246.0286492 -74.12792969 224.01806641 C-73.72410993 216.53800977 -75.71526473 209.99155761 -78.41015625 203.07714844 C-79.8360678 199.04209297 -80.07405143 195.26133722 -80.11328125 191.015625 C-79.93548221 187.29147466 -79.93548221 187.29147466 -81.42578125 184.203125 C-83.51197147 184.10894727 -85.60138602 184.08569622 -87.68969727 184.08959961 C-88.34333252 184.08945358 -88.99696777 184.08930756 -89.67041016 184.0891571 C-91.84020253 184.08985617 -94.00991004 184.09764822 -96.1796875 184.10546875 C-97.68041436 184.10733295 -99.18114182 184.10875684 -100.68186951 184.10975647 C-104.63896351 184.11358148 -108.59602103 184.1234116 -112.55310059 184.13446045 C-116.58812974 184.14467494 -120.62316478 184.14925417 -124.65820312 184.15429688 C-132.58074594 184.16503389 -140.50325906 184.1821101 -148.42578125 184.203125 Z M-64.42578125 184.203125 C-64.11640625 188.06 -63.80703125 191.916875 -63.48828125 195.890625 C-63.39297119 197.09807373 -63.29766113 198.30552246 -63.19946289 199.54956055 C-63.12074951 200.511604 -63.04203613 201.47364746 -62.9609375 202.46484375 C-62.88238525 203.44412842 -62.80383301 204.42341309 -62.72290039 205.43237305 C-62.43988719 208.07158161 -61.99052959 210.61107493 -61.42578125 213.203125 C-55.44050389 208.27555444 -49.962679 202.89364275 -44.49829102 197.40600586 C-42.97071004 195.87299128 -41.43776044 194.34548733 -39.90429688 192.81835938 C-38.93327232 191.84667527 -37.96255733 190.87468169 -36.9921875 189.90234375 C-36.11506104 189.02408936 -35.23793457 188.14583496 -34.33422852 187.2409668 C-32.31185556 185.5467996 -32.31185556 185.5467996 -32.42578125 184.203125 C-42.98578125 184.203125 -53.54578125 184.203125 -64.42578125 184.203125 Z " fill="#5C6270" transform="translate(245.42578125,55.796875)"/>
<path d="M0 0 C2.77977759 0.69609552 4.01275722 1.77596279 5.77027744 4.02145332 C6.74480869 5.26088691 6.74480869 5.26088691 7.73902744 6.52535957 C8.77543369 7.97748848 8.77543369 7.97748848 9.83277744 9.45895332 C10.22078525 9.99504219 10.60879307 10.53113106 11.00855869 11.08346504 C38.38186505 49.2431576 50.06468832 96.99796295 42.58277744 143.45895332 C37.81458513 170.58934525 27.96956321 196.03056877 11.83277744 218.45895332 C11.4534708 218.98779121 11.07416416 219.5166291 10.68336338 220.06149238 C0.076047 234.66701737 -12.78108995 247.22923603 -27.14378506 258.10739082 C-32.5066654 262.27851997 -37.00670598 267.0859946 -41.43675381 272.21285957 C-45.00374167 276.30255905 -48.68950232 280.26601239 -52.41722256 284.20895332 C-57.8195916 289.94709669 -63.1798217 295.71830741 -68.49534756 301.53707832 C-71.35599976 304.66539388 -74.22841515 307.78254195 -77.10472256 310.89645332 C-77.84794766 311.70155342 -77.84794766 311.70155342 -78.6061874 312.52291816 C-81.18355735 315.31416386 -83.76362461 318.10286882 -86.34691006 320.88864082 C-87.39134753 322.01609064 -88.435621 323.14369241 -89.47972256 324.27145332 C-90.23056118 325.08199165 -90.23056118 325.08199165 -90.99656826 325.90890449 C-94.36760076 329.55996605 -97.65579639 333.27129447 -100.86253506 337.06832832 C-103.53566389 339.9175315 -106.3453184 339.67789777 -110.09691006 339.88473457 C-113.30371448 339.22522196 -114.23093828 338.11492069 -116.16722256 335.45895332 C-116.73265277 332.11952771 -116.63190425 328.82168624 -116.55784756 325.44332832 C-116.55218777 324.47236213 -116.54652798 323.50139595 -116.54069668 322.50100654 C-116.51832567 319.40315163 -116.46812729 316.30645799 -116.41722256 313.20895332 C-116.39715853 311.10740754 -116.37890759 309.00584361 -116.36253506 306.90426582 C-116.31845836 301.75538162 -116.24942514 296.60736429 -116.16722256 291.45895332 C-117.12797695 291.47466377 -118.08873135 291.49037422 -119.07859951 291.50656074 C-155.55253433 292.04971447 -155.55253433 292.04971447 -170.16722256 288.45895332 C-171.40520596 288.16093818 -171.40520596 288.16093818 -172.66819912 287.85690254 C-198.07289228 281.56464551 -229.48118698 269.83827428 -247.16722256 249.45895332 C-248.17998286 246.30488978 -247.99624855 243.64840674 -247.16722256 240.45895332 C-244.62914657 236.58721638 -241.41610903 233.49357785 -238.11645657 230.26533455 C-237.13100352 229.26950657 -236.14752029 228.27172609 -235.16584301 227.27217579 C-232.46685961 224.53564075 -229.74054224 221.82786277 -227.00883645 219.12404519 C-224.06605637 216.20162804 -221.14929545 213.25343651 -218.22909695 210.3084864 C-212.50598814 204.54534916 -206.75880147 198.80681892 -201.00262517 193.0767284 C-196.32511041 188.41953582 -191.65645026 183.75363696 -186.99398762 179.08137649 C-186.33049943 178.4165092 -185.66701124 177.75164192 -184.98341734 177.06662713 C-183.63560877 175.71594105 -182.28782043 174.36523478 -180.94005208 173.01450855 C-168.29974698 160.34853699 -155.63199814 147.71030255 -142.95470618 135.08136595 C-132.07666081 124.24353075 -121.22242908 113.38231487 -110.38524014 102.50363106 C-97.80159795 89.87182958 -85.20348953 77.2547515 -72.58192825 64.66082954 C-71.23619977 63.31796802 -69.89049008 61.97508766 -68.54479939 60.63218826 C-67.55161931 59.6410909 -67.55161931 59.6410909 -66.53837498 58.62997137 C-61.87251679 53.97188534 -57.21718654 49.30343443 -52.56581455 44.63088745 C-46.89730695 38.93714304 -41.21305387 33.25970371 -35.50798506 27.60258465 C-32.5972529 24.71551315 -29.69419566 21.82169982 -26.81017071 18.90792793 C-24.16969203 16.24062824 -21.50933274 13.59500694 -18.83158462 10.96513981 C-17.40956266 9.55793304 -16.00957716 8.12856499 -14.61050189 6.698542 C-9.87906275 2.09714281 -6.79007397 -0.61512753 0 0 Z M-5.71489155 22.88242382 C-6.38889514 23.55680712 -7.06289873 24.23119043 -7.75732666 24.9260096 C-8.92028396 26.08598032 -8.92028396 26.08598032 -10.10673535 27.2693848 C-10.96761303 28.13317532 -11.82849071 28.99696584 -12.71545559 29.88693184 C-13.62285864 30.79348046 -14.53026169 31.70002908 -15.4651618 32.63404888 C-17.99630955 35.16294843 -20.52430825 37.69497607 -23.0518319 40.22749704 C-25.77328427 42.95324909 -28.49760646 45.67613002 -31.22158962 48.39935249 C-35.94484609 53.12208342 -40.66626137 57.84664865 -45.38644749 62.57244819 C-52.21113218 69.4052438 -59.03856122 76.23529172 -65.86667334 83.06466204 C-76.94350297 94.14368283 -88.01809542 105.22493711 -99.09129483 116.30758613 C-109.85086866 127.07633242 -120.6114874 137.84403281 -131.37352139 148.61032051 C-132.36779683 149.60499004 -132.36779683 149.60499004 -133.38215864 150.6197539 C-136.70733465 153.94623489 -140.03253129 157.27269525 -143.3577382 160.59914535 C-170.96410089 188.21588267 -198.56683882 215.83624066 -226.16722256 243.45895332 C-222.27146083 247.49003277 -222.27146083 247.49003277 -217.70628506 250.66989082 C-217.07778652 251.02406074 -216.44928799 251.37823066 -215.80174404 251.74313301 C-215.13860195 252.10310371 -214.47545986 252.46307441 -213.79222256 252.83395332 C-213.09105313 253.21970527 -212.38988369 253.60545723 -211.6674667 254.00289863 C-189.91776969 265.82333309 -166.76978641 273.63188128 -141.91722256 275.08395332 C-140.72709561 275.15477119 -140.72709561 275.15477119 -139.51292568 275.22701973 C-130.68243486 275.64648475 -121.88451266 275.17021015 -113.06858975 274.60201973 C-111.95645108 274.54191719 -110.8443124 274.48181465 -109.69847256 274.41989082 C-108.70396084 274.35592109 -107.70944912 274.29195137 -106.68480068 274.22604316 C-104.16722256 274.45895332 -104.16722256 274.45895332 -102.35350186 275.50558418 C-100.56515451 278.45033971 -100.68677163 281.40256911 -100.65550381 284.75192207 C-100.63755261 285.45795067 -100.6196014 286.16397926 -100.60110623 286.89140266 C-100.54699078 289.14302573 -100.51310534 291.39443675 -100.47972256 293.64645332 C-100.44655037 295.17447763 -100.41206079 296.70247396 -100.37620693 298.2304377 C-100.29126431 301.97312321 -100.22446008 305.71574573 -100.16722256 309.45895332 C-95.63567649 305.75973204 -91.72147855 301.96150383 -87.93089443 297.5116877 C-85.03579962 294.14209229 -81.96861303 290.93651644 -78.91722256 287.70895332 C-73.5211565 281.97750468 -68.16609744 276.21405472 -62.85862881 270.40035957 C-60.93499195 268.29803946 -59.00629359 266.20147597 -57.06956631 264.11129707 C-56.54830166 263.54846016 -56.02703701 262.98562324 -55.48997647 262.40573066 C-54.45027715 261.28404326 -53.40960313 260.16325843 -52.36790615 259.04342598 C-49.68352091 256.14667681 -47.10968323 253.20142922 -44.60472256 250.14645332 C-42.05900508 247.19781653 -39.3608617 245.06152834 -36.16722256 242.83395332 C-2.99438744 219.54917482 17.2469803 182.77649938 25.28980869 143.63473457 C26.86219437 134.43797518 27.07539228 125.39076316 27.08277744 116.08395332 C27.08345218 115.32195625 27.08412693 114.55995918 27.08482212 113.77487129 C27.06882056 102.40688896 26.58842685 91.524947 23.83277744 80.45895332 C23.58334385 79.38000801 23.58334385 79.38000801 23.32887119 78.27926582 C18.66049391 58.29169493 9.69821061 37.5589163 -3.16722256 21.45895332 C-4.39501013 21.34612709 -4.39501013 21.34612709 -5.71489155 22.88242382 Z " fill="#5C6371" transform="translate(388.16722255945206,116.54104667901993)"/>
<path d="M0 0 C3.08364499 1.85018699 4.63905184 3.06153478 5.9375 6.4375 C6.04786136 10.96231592 4.3073961 13.84624223 1.3125 17.09375 C0.21321724 18.2338958 -0.89123547 19.36907284 -2 20.5 C-12.06246485 31.06920769 -20.47783122 42.49680738 -28 55 C-28.40750488 55.67659668 -28.81500977 56.35319336 -29.23486328 57.05029297 C-45.73098883 84.78079414 -56.91194152 118.1692897 -57.23828125 150.65234375 C-57.2480751 151.46137146 -57.25786896 152.27039917 -57.26795959 153.10394287 C-57.68055779 196.06242379 -49.48315193 243.15981971 -22 278 C-21.38125 276.865625 -20.7625 275.73125 -20.125 274.5625 C-18.25 271.125 -18.25 271.125 -16 270 C-8.78329339 269.41800753 -8.78329339 269.41800753 -5.765625 271.66015625 C-0.73906295 278.32146304 -4.34020546 291.37253761 -5.26953125 299.37109375 C-6.01159219 303.057589 -7.07303673 305.7819228 -9 309 C-15.82477719 312.41238859 -26.08002736 309.73401369 -33.375 308.6875 C-34.65866455 308.51105957 -34.65866455 308.51105957 -35.96826172 308.33105469 C-40.79923838 307.59103045 -44.7719515 306.61065217 -49 304 C-50.6052751 300.7894498 -50.46895333 297.4826681 -50 294 C-48.5625 291.5625 -48.5625 291.5625 -46 290 C-43.78100586 289.62866211 -43.78100586 289.62866211 -41.33984375 289.40234375 C-40.52765381 289.32363037 -39.71546387 289.24491699 -38.87866211 289.16381836 C-38.25870361 289.1097583 -37.63874512 289.05569824 -37 289 C-37.31114746 288.50411377 -37.62229492 288.00822754 -37.94287109 287.49731445 C-52.99512255 263.35571263 -65.02455743 237.93853654 -71 210 C-71.19754883 209.07944824 -71.39509766 208.15889648 -71.59863281 207.21044922 C-77.22440403 179.55577843 -78.09630077 147.65069041 -72 120 C-71.79600586 119.02401855 -71.59201172 118.04803711 -71.38183594 117.04248047 C-63.43151556 79.46072586 -47.15492793 45.12719603 -22 16 C-21.15050781 15.00871094 -20.30101562 14.01742187 -19.42578125 12.99609375 C-6.73305039 -1.46370661 -6.73305039 -1.46370661 0 0 Z " fill="#5C6270" transform="translate(91,70)"/>
<path d="M0 0 C0.717323 -0.00478363 1.434646 -0.00956726 2.17370605 -0.01449585 C3.68662719 -0.01789036 5.19962212 -0.00871885 6.71240234 0.01220703 C9.02477956 0.03898756 11.3323045 0.01245316 13.64453125 -0.01953125 C15.11719818 -0.01622706 16.5898621 -0.00982062 18.0625 0 C18.75114136 -0.01012115 19.43978271 -0.02024231 20.14929199 -0.03067017 C23.83107656 0.05895207 25.28106614 0.42225488 27.96679688 3.01806641 C29.89465314 6.27869472 30.15295992 7.93380298 29.53125 11.6640625 C28.09375 14.5390625 28.09375 14.5390625 25.53125 16.6640625 C23.31225586 16.87158203 23.31225586 16.87158203 20.87109375 16.796875 C20.05890381 16.7777002 19.24671387 16.75852539 18.40991211 16.73876953 C17.78995361 16.71411621 17.16999512 16.68946289 16.53125 16.6640625 C16.89250977 17.17976807 17.25376953 17.69547363 17.62597656 18.22680664 C52.74598401 68.71597717 69.09028526 128.302733 59.07910156 189.61376953 C51.55548035 231.50330761 33.65421432 271.21967525 4.50390625 302.5390625 C2.63413193 304.55323524 0.8570007 306.61915925 -0.90625 308.7265625 C-4.11850188 312.40890003 -4.47562141 312.58397148 -9.34375 312.9765625 C-12.29843653 312.91746877 -13.35933393 312.72971214 -15.96875 311.1640625 C-17.66411287 308.33845772 -18.22713139 306.08682735 -18.02734375 302.78125 C-16.89060601 298.47277549 -13.50665373 295.76878983 -10.46875 292.6640625 C-1.31685656 282.73451281 6.42580836 272.13925261 13.53125 260.6640625 C13.97210938 259.9529834 14.41296875 259.2419043 14.8671875 258.50927734 C43.12971283 212.1437481 50.56332652 154.9553451 37.84375 102.4765625 C31.54061778 77.94136135 20.75508397 54.62218955 6.53125 33.6640625 C5.891875 34.6334375 5.2525 35.6028125 4.59375 36.6015625 C2.53125 39.6640625 2.53125 39.6640625 1.53125 40.6640625 C-0.39453125 40.9375 -0.39453125 40.9375 -2.78125 41.0390625 C-3.56113281 41.08804688 -4.34101563 41.13703125 -5.14453125 41.1875 C-8.63614068 40.40115435 -9.54620302 38.61413911 -11.46875 35.6640625 C-11.98632812 32.421875 -11.98632812 32.421875 -12 28.7890625 C-12.00773437 26.81679687 -12.00773437 26.81679687 -12.015625 24.8046875 C-12.00724609 24.12470703 -11.99886719 23.44472656 -11.99023438 22.74414062 C-11.96880496 20.66938356 -11.99006059 18.59808789 -12.015625 16.5234375 C-12.01046875 15.20859375 -12.0053125 13.89375 -12 12.5390625 C-11.99548828 11.34023437 -11.99097656 10.14140625 -11.98632812 8.90625 C-10.80589339 1.51182864 -6.94426522 -0.10206181 0 0 Z " fill="#5C6371" transform="translate(433.46875,79.3359375)"/>
<path d="M0 0 C4.8846525 2.26787438 7.73212562 5.1153475 10 10 C10.75381535 15.5997712 10.77303575 20.33499991 8.375 25.5 C3.80134327 30.3143755 0.6912538 32.25156236 -6 32.5 C-12.6912538 32.25156236 -15.80134327 30.3143755 -20.375 25.5 C-22.77303575 20.33499991 -22.75381535 15.5997712 -22 10 C-17.52212837 0.3553534 -9.85292056 -1.32635469 0 0 Z " fill="#5C6371" transform="translate(358,296)"/>
<path d="M0 0 C4.8846525 2.26787438 7.73212562 5.1153475 10 10 C10.75381535 15.5997712 10.77303575 20.33499991 8.375 25.5 C3.80134327 30.3143755 0.6912538 32.25156236 -6 32.5 C-12.6912538 32.25156236 -15.80134327 30.3143755 -20.375 25.5 C-22.77303575 20.33499991 -22.75381535 15.5997712 -22 10 C-17.52212837 0.3553534 -9.85292056 -1.32635469 0 0 Z " fill="#5C6371" transform="translate(310,296)"/>
<path d="M0 0 C4.8846525 2.26787438 7.73212562 5.1153475 10 10 C10.75381535 15.5997712 10.77303575 20.33499991 8.375 25.5 C3.80134327 30.3143755 0.6912538 32.25156236 -6 32.5 C-12.6912538 32.25156236 -15.80134327 30.3143755 -20.375 25.5 C-22.77303575 20.33499991 -22.75381535 15.5997712 -22 10 C-17.52212837 0.3553534 -9.85292056 -1.32635469 0 0 Z " fill="#5C6371" transform="translate(262,296)"/>
</svg>
