<svg viewBox="4.5 106.5 491 287.1" xmlns="http://www.w3.org/2000/svg" width="2500" height="928"><path d="M69.5 302.8V300l-1.2-.7H21.8l-.7.7v2.7l.7.7h19.7l.7.7v56.6l.7.7h3.5l.7-.7v-56.2l.7-.7h20.1zm10.4 13.5c-12.4 0-19.7 8.9-19.7 21.7v2c0 12.4 6.2 23.2 20.6 23.2 12.4 0 17-8.2 17.8-13.5l-.7-.7h-3.5l-.7.7c-1.9 5.4-5.4 8.9-12.4 8.9-11.6 0-15.1-10.8-15.1-16.3l.8-.7h32l.8-.8V338c-.1-12.8-7.1-21.7-19.9-21.7zm0 4.6c5.4 0 9 2.2 11.2 5.2s3.1 6.8 3.1 9.9l-.7.8H66.4l-.8-.8c0-3.1.9-6.9 3.1-9.9 2.2-2.9 5.8-5.2 11.2-5.2zm28.6 18.7c0-12.4 6.2-19 15.1-19s12.4 5.4 13.5 10.8l.7.7h3.9l.7-.7c-.7-8.9-8.2-15.1-19-15.1-11.6 0-20.6 7.4-20.6 23.2 0 16.3 8.9 23.3 20.6 23.3 10.8 0 17.8-6.2 19-15.1l-.7-.7h-3.5l-.7.7c-.7 5.4-4.6 10.8-13.5 10.8s-15.5-6.2-15.5-18.9zm77.6 21.6v-27.1c0-11.6-6.2-17.8-16.3-17.8-6.2 0-11.6 2.7-14.4 7.4h-.7v-23.2l-1.2-1.2H150l-.7.7v61.2l.7.7h3.5l.7-.7v-24.4c0-10.1 4.6-16.3 14.4-16.3 7.4 0 11.6 4.6 11.6 13.5v27.1l.7.7h3.5zm45.6 0v-27.1c0-11.6-6.2-17.8-16.3-17.8-6.2 0-11.6 2.7-14.4 7.4h-.7l-.7-5.4-.7-.7h-2.7l-.7.7v43l.7.7h3.5l.7-.7v-24.4c0-10.1 4.6-16.3 14.4-16.3 7.4 0 11.6 4.6 11.6 13.5v27.1l.7.7h3.9zm26-44.5c-11.6 0-20.6 8.2-20.6 23.3s8.9 23.2 20.6 23.2c11.6 0 20.6-8.1 20.6-23.2-.1-15.2-9-23.3-20.6-23.3zm0 4.2c4.4 0 8.2 1.8 10.9 5.1s4.2 8 4.2 13.8-1.6 10.5-4.2 13.8c-2.7 3.3-6.5 5.1-10.9 5.1s-8.2-1.8-10.9-5.1-4.2-8-4.2-13.8c0-6 1.6-10.8 4.2-14 2.7-3.1 6.4-4.9 10.9-4.9zm32.6 40.3V300l-1.2-.7h-3.5l-.7.7v61.2l.7.7h3.5zm26.7-44.5c-11.6 0-20.6 8.2-20.6 23.3s8.9 23.2 20.6 23.2c11.6 0 20.5-8.1 20.5-23.2 0-15.2-8.9-23.3-20.5-23.3zm0 4.2c4.4 0 8.2 1.8 10.9 5.1s4.2 8 4.2 13.8-1.6 10.5-4.2 13.8c-2.7 3.3-6.4 5.1-10.9 5.1-4.4 0-8.2-1.8-10.9-5.1s-4.2-8-4.2-13.8c0-6 1.6-10.8 4.2-14 2.6-3.1 6.4-4.9 10.9-4.9zm44.1-4.6c-12.4 0-19 10.1-19 23.2 0 13.5 6.2 23.3 19 23.3 8.2 0 12.4-3.5 14.4-7.4v.4c0 11.6-2.7 20.6-13.5 20.6-8.2 0-10.8-3.5-11.6-8.1l-.8-.8H346l-.8.8c.7 7.4 6.2 12.4 17.1 12.4 11.6 0 19-7.4 19-25.2v-37.3l-.8-.7h-2.7l-.7.7-.8 5.4h-.7c-2-3.4-6.3-7.3-14.5-7.3zm0 4.3c4.4 0 8 1.6 10.5 4.7s3.8 7.9 3.8 14.3-1.4 11.2-3.8 14.3c-2.5 3.1-6.1 4.7-10.5 4.7s-8-1.6-10.5-4.7-3.8-7.9-3.8-14.3c0-6.2 1.4-11 3.8-14.2s6.1-4.8 10.5-4.8zm34.1-11.2V304l-.7-.7H391l-1.2.7v5.4l.7.7h3.5c.1 0 1.2-.7 1.2-.7zm0 51.8v-43l-.7-.7H391l-1.2.7v43l.7.7h3.5c.1.2 1.2-.7 1.2-.7zm26-44.9c-12.4 0-19.7 8.9-19.7 21.7v2c0 12.4 6.2 23.2 20.6 23.2 12.4 0 17-8.2 17.8-13.5l-.8-.7h-3.5l-.8.7c-1.9 5.4-5.4 8.9-12.4 8.9-11.6 0-15.1-10.8-15.1-16.3l.8-.7h32.1l.8-.8V338c0-12.4-7.4-21.7-19.8-21.7zm0 4.6c5.4 0 9 2.2 11.2 5.2s3.1 6.8 3.1 9.9l-.8.8h-27.1l-.7-.8c0-3.1.9-6.9 3.1-9.9 2.2-2.9 5.8-5.2 11.2-5.2zm57.7 29.5c0-8.2-4.6-11.6-13.5-13.5S451 334.2 451 328c0-4.6 3.5-7.4 10.1-7.4 8.2 0 10.8 3.5 10.8 8.2l.7.7h3.5l.7-.7c0-8.9-7.4-12.4-16.3-12.4-10.1 0-15.1 5.4-15.1 11.6 0 7.4 5.4 10.8 14.4 12.4 8.9 1.9 13.5 2.7 13.5 10.1 0 4.6-2.7 8.2-11.6 8.2-8.2 0-11.6-4.6-11.6-10.1l-.7-.7h-3.5l-.7.7c0 8.2 6.2 14.4 17 14.4 11.3.2 16.7-5.2 16.7-12.6zM474.6 233.8v27.1h-85.2V127.1h31v106.6zM216.9 119.3l-75.6 58.2c-7.8-29.1-33-50.4-63.9-50.4H23.1v133.8h54.3c31 0 58.2-21.3 63.9-50.4l75.6 58.2 75.6-58.2v50.4h85.2v-27.2h-56.2V127.1h-31.1v50.4l-71.7 58.2-15.6-13.5 35-27.2 36.9-29.1-21.3-17.4-71.7 56-15.5-13.5 71.7-54.3zm-164.7 35h23.2c4.9 0 9.6 1.2 14 3 4.3 2 8.4 4.9 11.8 8.5 3.5 3.6 6.2 7.9 8.1 12.8s3 10.4 3 16.1c0 5.3-1 10.5-2.7 15.4-1.7 4.8-4.5 9.2-7.6 13-3.3 3.7-7.2 6.8-11.7 8.9-4.5 2.2-9.5 3.3-14.8 3.3H52.2z" fill="#0076ce"/><path d="M4.5 106.5h491v287.1H4.5z" fill="none"/></svg>