<?xml version="1.0" encoding="UTF-8"?>
<svg version="1.1" xmlns="http://www.w3.org/2000/svg" width="512" height="512">
<path d="M0 0 C1.62382473 -0.00187053 3.24764902 -0.00417219 4.8714726 -0.00686532 C9.31407576 -0.01295977 13.75666005 -0.01285251 18.19926643 -0.01167095 C22.99831556 -0.01146634 27.79735871 -0.01699136 32.59640503 -0.02172852 C41.9911701 -0.03002259 51.38592889 -0.03278279 60.78069732 -0.03334089 C68.4195467 -0.03381662 76.05839401 -0.03587421 83.69724274 -0.03904152 C105.37022921 -0.04784452 127.04321074 -0.05246142 148.71619901 -0.05171105 C150.46751516 -0.05165111 150.46751516 -0.05165111 152.25421143 -0.05158997 C154.00767371 -0.05152864 154.00767371 -0.05152864 155.79655948 -0.05146609 C174.73986341 -0.05105966 193.68314745 -0.06062915 212.62644562 -0.07472833 C232.09242484 -0.08910186 251.55839436 -0.09599799 271.02437901 -0.09513456 C281.9469736 -0.09480294 292.86954735 -0.09753475 303.79213715 -0.10831261 C313.09173714 -0.11743043 322.39130683 -0.1195823 331.69090936 -0.11280318 C336.43185828 -0.10954453 341.17274912 -0.10945762 345.91369247 -0.11815643 C350.26132174 -0.12605127 354.60884715 -0.12455972 358.95647398 -0.1158723 C360.52169018 -0.11434387 362.08691424 -0.11612846 363.65212116 -0.12173238 C382.18312943 -0.18363711 398.63754985 1.35531581 412.93389893 14.13371277 C413.5603833 14.67898621 414.18686768 15.22425964 414.83233643 15.78605652 C425.11820441 25.33080301 429.95187217 38.3424337 430.93389893 52.13371277 C431.0792519 57.47662621 431.07342444 62.81786486 431.06761169 68.16221619 C431.0694817 69.79414016 431.07178316 71.42606368 431.07447702 73.0579865 C431.0805779 77.52758274 431.08046344 81.99716023 431.07928264 86.46675968 C431.0790782 91.29307403 431.08460151 96.11938242 431.08934021 100.94569397 C431.09763787 110.39574019 431.10039465 119.84578018 431.10095259 129.29582974 C431.10142816 136.97904802 431.10348494 144.66226424 431.10665321 152.34548187 C431.11545728 174.14011721 431.12007296 195.93474762 431.11932274 217.72938475 C431.11926281 219.49090407 431.11926281 219.49090407 431.11920166 221.28800964 C431.11916078 222.46379354 431.1191199 223.63957744 431.11907778 224.85099116 C431.11867135 243.90496512 431.1282407 262.95891932 431.14234003 282.01288757 C431.15671075 301.58844149 431.16360983 321.16398578 431.16274625 340.73954511 C431.16241453 351.72527988 431.16515082 362.71099393 431.1759243 373.69672394 C431.18503844 383.05017548 431.18719702 392.4035969 431.18041488 401.75705096 C431.17715434 406.52622264 431.17707617 411.29533656 431.18576813 416.06450272 C431.19365459 420.43679169 431.19217986 424.80897731 431.183484 429.18126383 C431.18195373 430.75658627 431.18374718 432.33191651 431.18934407 433.90722975 C431.25590861 453.98447841 428.67604405 469.56131496 414.61358643 484.61808777 C399.30315554 499.2885328 381.93062201 500.28941415 361.86779785 500.26742554 C360.24397312 500.26929607 358.62014883 500.27159773 356.99632525 500.27429086 C352.55372209 500.28038531 348.11113781 500.28027805 343.66853142 500.27909648 C338.86948229 500.27889188 334.07043914 500.28441689 329.27139282 500.28915405 C319.87662775 500.29744813 310.48186896 500.30020833 301.08710054 500.30076643 C293.44825116 500.30124216 285.80940384 500.30329974 278.17055511 500.30646706 C256.49756864 500.31527006 234.82458711 500.31988696 213.15159884 500.31913658 C211.98405474 500.31909663 210.81651065 500.31905667 209.61358643 500.3190155 C207.86012414 500.31895418 207.86012414 500.31895418 206.07123837 500.31889162 C187.12793445 500.3184852 168.1846504 500.32805468 149.24135223 500.34215387 C129.77537302 500.3565274 110.30940349 500.36342352 90.84341884 500.36256009 C79.92082425 500.36222847 68.99825051 500.36496028 58.07566071 500.37573814 C48.77606072 500.38485597 39.47649103 500.38700784 30.1768885 500.38022872 C25.43593957 500.37697007 20.69504873 500.37688316 15.95410538 500.38558197 C11.60647611 500.39347681 7.2589507 500.39198525 2.91132388 500.38329784 C1.34610768 500.3817694 -0.21911639 500.38355399 -1.7843233 500.38915791 C-20.31533158 500.45106265 -36.769752 498.91210972 -51.06610107 486.13371277 C-51.69258545 485.58843933 -52.31906982 485.04316589 -52.96453857 484.48136902 C-63.25040656 474.93662253 -68.08407432 461.92499184 -69.06610107 448.13371277 C-69.21145405 442.79079932 -69.20562659 437.44956067 -69.19981384 432.10520935 C-69.20168385 430.47328538 -69.20398531 428.84136186 -69.20667917 427.20943904 C-69.21278005 422.7398428 -69.21266559 418.27026531 -69.21148479 413.80066586 C-69.21128035 408.97435151 -69.21680366 404.14804312 -69.22154236 399.32173157 C-69.22984002 389.87168534 -69.2325968 380.42164536 -69.23315474 370.97159579 C-69.2336303 363.28837752 -69.23568709 355.60516129 -69.23885536 347.92194366 C-69.24765943 326.12730833 -69.25227511 304.33267791 -69.25152489 282.53804079 C-69.25148493 281.36369457 -69.25144498 280.18934836 -69.25140381 278.97941589 C-69.25136293 277.80363199 -69.25132205 276.62784809 -69.25127993 275.41643438 C-69.2508735 256.36246041 -69.26044285 237.30850622 -69.27454218 218.25453797 C-69.2889129 198.67898405 -69.29581198 179.10343976 -69.2949484 159.52788043 C-69.29461668 148.54214566 -69.29735296 137.55643161 -69.30812645 126.5707016 C-69.31724059 117.21725006 -69.31939917 107.86382864 -69.31261703 98.51037458 C-69.30935649 93.7412029 -69.30927832 88.97208897 -69.31797028 84.20292282 C-69.32585673 79.83063385 -69.32438201 75.45844822 -69.31568614 71.0861617 C-69.31415588 69.51083926 -69.31594933 67.93550903 -69.32154622 66.36019579 C-69.38196114 48.13779961 -67.60946386 32.16710785 -55.06610107 18.13371277 C-54.52082764 17.50722839 -53.9755542 16.88074402 -53.41375732 16.23527527 C-39.00094899 0.70335475 -19.77756508 -0.02167598 0 0 Z M185.93389893 11.13371277 C185.85447556 11.6940773 185.77505219 12.25444183 185.69322205 12.83178711 C185.32377571 15.41881029 184.94723563 18.00475554 184.57061768 20.59074402 C184.38348206 21.91241577 184.38348206 21.91241577 184.19256592 23.26078796 C179.80685067 53.14837024 164.41942745 79.70444081 140.47344971 98.18986511 C125.03775181 109.64269467 107.87047591 116.9040389 88.93389893 120.13371277 C87.99469101 120.30567673 87.05548309 120.47764069 86.08781433 120.65481567 C80.19438795 121.48091279 74.22615582 121.31241472 68.28765869 121.33903503 C66.90733048 121.34862624 65.52700512 121.35863703 64.14668274 121.36903381 C60.41582967 121.39595439 56.68496413 121.41703308 52.95406842 121.4370358 C49.0489612 121.45897507 45.14389189 121.48632474 41.23881531 121.51309204 C33.85129844 121.56291193 26.46376041 121.60789026 19.07620233 121.6511144 C10.66263213 121.70057853 2.24909998 121.7554625 -6.16443336 121.810794 C-23.46495404 121.92444963 -40.76551012 122.03132412 -58.06610107 122.13371277 C-58.13480117 163.71470001 -58.18764712 205.29568069 -58.21929706 246.87671347 C-58.22304908 251.78822635 -58.22693206 256.69973912 -58.230896 261.61125183 C-58.23168293 262.58902575 -58.23246986 263.56679967 -58.23328064 264.5742031 C-58.2463266 280.39617048 -58.26997598 296.21810509 -58.29755946 312.04005304 C-58.32563619 328.28064716 -58.34228213 344.52122414 -58.34836656 360.76184154 C-58.35247829 370.77927467 -58.36545448 380.79661516 -58.38985047 390.81401977 C-58.40573565 397.68781934 -58.41049514 404.56157117 -58.40660521 411.43538776 C-58.40468799 415.39835934 -58.40758065 419.36116926 -58.4237175 423.32411194 C-58.43840998 426.95905588 -58.4389935 430.59373079 -58.42879776 434.22868761 C-58.42694739 436.15246006 -58.43980207 438.07622975 -58.453345 439.99995542 C-58.39066996 452.23924761 -56.05275526 462.01898553 -49.06610107 472.13371277 C-48.48860107 473.02058777 -47.91110107 473.90746277 -47.31610107 474.82121277 C-38.86522919 483.50683109 -27.89033238 488.79198006 -15.7699064 489.26136327 C-14.56358454 489.26260977 -13.35726268 489.26385626 -12.1143856 489.26514053 C-11.43570822 489.26719317 -10.75703084 489.2692458 -10.05778748 489.27136064 C-7.78509879 489.27701216 -5.51247107 489.27557568 -3.23977661 489.27415466 C-1.59322974 489.27673936 0.05331651 489.27975281 1.69986188 489.28315806 C6.2237711 489.29121905 10.74766444 489.29301713 15.27157998 489.29375553 C20.15109955 489.29560766 25.03061091 489.3031558 29.91012573 489.30989075 C40.57965625 489.32346825 51.249183 489.3294979 61.91872072 489.33390141 C68.58204891 489.33666484 75.24537564 489.34090238 81.90870285 489.34540558 C100.3609718 489.35759754 118.81323958 489.36789696 137.26551247 489.37128067 C138.4463275 489.37150024 139.62714253 489.3717198 140.84373983 489.37194602 C142.02736491 489.3721643 143.21099 489.37238258 144.43048251 489.37260747 C146.82891949 489.37305093 149.22735647 489.3734975 151.62579346 489.37394714 C152.81549863 489.37416857 154.00520381 489.37439 155.23096065 489.37461814 C174.50567179 489.37856562 193.7803451 489.39601844 213.05504163 489.41930667 C232.84858824 489.44302855 252.64211588 489.4554829 272.43567693 489.45664859 C283.54719247 489.45756488 294.65865872 489.46330574 305.77016068 489.4814682 C315.23241792 489.49688046 324.69461066 489.50198299 334.15687807 489.4937301 C338.98263999 489.48982759 343.80827206 489.49073373 348.63401794 489.50478745 C353.05699302 489.51755014 357.47974098 489.51630809 361.90271585 489.50419673 C363.49762723 489.50224384 365.09255483 489.50529924 366.68744345 489.5140411 C382.81192079 489.59678365 395.55678041 487.18428776 407.68389893 476.00871277 C419.18667528 463.91552843 420.23571592 449.76748437 420.19459534 433.94662476 C420.19761852 432.29748767 420.20150883 430.64835198 420.2061879 428.99921876 C420.21645524 424.48206646 420.2142893 419.96499364 420.21000731 415.44783485 C420.20753778 410.57040865 420.21655709 405.69300148 420.2240448 400.81558228 C420.23678769 391.26560112 420.23858598 381.71564809 420.23624454 372.16565987 C420.23446069 364.40186243 420.23621245 356.63807353 420.24046898 348.87427711 C420.24136176 347.2160865 420.24136176 347.2160865 420.24227258 345.52439708 C420.24348435 343.27855966 420.24469848 341.03272224 420.24591496 338.78688482 C420.25678901 317.72974271 420.25462869 296.67261662 420.24853011 275.61547361 C420.24336158 256.36035005 420.25461497 237.10527709 420.27362833 217.85016354 C420.29301004 198.07007882 420.30126211 178.29001803 420.29750508 158.50992376 C420.29559348 147.40851731 420.29807658 136.30715393 420.31221962 125.20575523 C420.32413864 115.7545453 420.32553245 106.30340493 420.31342945 96.85219403 C420.30754435 92.03249045 420.30643117 87.21291408 420.31843185 82.39321899 C420.32930257 77.9759093 420.32617316 73.55883285 420.31217017 69.14153401 C420.30952651 67.54873341 420.31187932 65.95591447 420.31990603 64.3631319 C420.38418419 50.64960349 418.84455835 39.58614197 410.93389893 28.13371277 C410.06764893 26.80340027 410.06764893 26.80340027 409.18389893 25.44621277 C400.56472995 16.58762243 389.48570286 11.41182363 377.15022469 11.01066494 C375.70329474 11.00649701 374.25634251 11.00777243 372.80941772 11.01345825 C372.00799847 11.01260383 371.20657921 11.0117494 370.38087451 11.01086909 C367.70467867 11.00922647 365.02854599 11.01471567 362.35235596 11.02018738 C360.43031313 11.02046954 358.50827019 11.02031095 356.58622742 11.01974487 C351.37392958 11.01945803 346.16165477 11.02533661 340.94936228 11.03231883 C335.50010705 11.03857107 330.05085128 11.03915765 324.60159302 11.04034424 C314.28511647 11.04345203 303.96865052 11.051658 293.65217865 11.06169373 C281.90619428 11.07287199 270.16020941 11.07836964 258.41422105 11.08338916 C234.2541078 11.09384105 210.09400396 11.11142983 185.93389893 11.13371277 Z M-6.06610107 59.13371277 C-6.48276774 61.63371277 -6.48276774 61.63371277 -6.06610107 64.13371277 C-2.56181681 66.46990228 -1.13487233 66.39106444 3.0100708 66.40837097 C4.26146851 66.41790298 5.51286621 66.427435 6.80218506 66.43725586 C8.16900663 66.43699446 9.53582822 66.43605753 10.90264893 66.43449402 C12.3036512 66.43838091 13.70465229 66.44271557 15.10565186 66.44747925 C18.04111554 66.45493966 20.97645894 66.45465122 23.91192627 66.4493866 C27.67494221 66.44358748 31.43746666 66.46053389 35.20040131 66.48373127 C38.09316896 66.49845646 40.98581784 66.49934209 43.87861633 66.49622154 C45.26610794 66.49673522 46.65360611 66.50198171 48.0410614 66.51203346 C49.97991182 66.52435759 51.91886149 66.51567786 53.85772705 66.50602722 C54.96120483 66.50665665 56.06468262 66.50728607 57.20159912 66.50793457 C59.94551127 66.34882042 59.94551127 66.34882042 61.82928467 64.77450562 C63.21058478 63.09732702 63.21058478 63.09732702 62.68389893 60.50871277 C62.15644247 58.20247207 62.15644247 58.20247207 60.93389893 57.13371277 C58.91983764 57.02910559 56.90207982 56.99515449 54.88531494 56.9884491 C53.59049698 56.98206924 52.29567902 56.97568939 50.96162415 56.96911621 C49.5370182 56.96758766 48.11241176 56.96647363 46.68780518 56.96574402 C45.23670925 56.96253315 43.78561366 56.95916921 42.33451843 56.95565796 C39.2887802 56.94966031 36.24307038 56.9478187 33.19732666 56.94841003 C29.28854036 56.94851168 25.37993561 56.93485968 21.47119236 56.91763783 C18.47296812 56.90653606 15.47478802 56.90449026 12.47654533 56.90501976 C11.03520011 56.90383687 9.59385385 56.89939791 8.15252876 56.89168739 C6.13900197 56.88192491 4.12542225 56.88602006 2.11187744 56.89079285 C0.96461685 56.88936783 -0.18264374 56.88794281 -1.3646698 56.88647461 C-4.21584635 56.85697941 -4.21584635 56.85697941 -6.06610107 59.13371277 Z " fill="#ff4200" transform="translate(75.06610107421875,5.8662872314453125)"/>
<path d="M0 0 C2.22681011 -0.00570867 4.45361731 -0.01267484 6.68041992 -0.02079773 C12.7052851 -0.03868964 18.73000432 -0.03756813 24.75488806 -0.03185534 C29.79447092 -0.02875764 34.83402599 -0.03486245 39.87360489 -0.04089409 C52.44667582 -0.05572582 65.01965918 -0.05213688 77.5927235 -0.04003078 C88.48587082 -0.03010196 99.37884819 -0.04303756 110.2719693 -0.06696498 C121.48550792 -0.09140863 132.69896962 -0.1005521 143.91254151 -0.09431225 C150.19671064 -0.09094916 156.4807394 -0.09331476 162.76488876 -0.11056328 C168.67641454 -0.12608193 174.58761701 -0.12202211 180.49913025 -0.10325813 C182.66095546 -0.09958584 184.82280488 -0.10264075 186.9846077 -0.11314392 C203.60418815 -0.18768753 217.06038945 0.7824897 230.02783203 12.40405273 C237.51959267 20.03896803 242.06122926 31.2988662 242.27783203 41.96655273 C242.09439264 54.31202377 237.66766081 64.58164193 229.40283203 73.65405273 C219.66940281 82.84776982 207.50480409 85.72335693 194.52238464 85.66474915 C193.1514765 85.67048747 193.1514765 85.67048747 191.75287324 85.67634171 C188.71320012 85.68659897 185.67371846 85.68269344 182.6340332 85.67871094 C180.44530565 85.68306146 178.25657962 85.68824575 176.06785583 85.69419861 C170.13800288 85.70756386 164.20821376 85.70816997 158.27834868 85.70563531 C153.32079315 85.70456382 148.36325043 85.70945359 143.40569764 85.71424073 C131.03708856 85.7259609 118.66851088 85.72511575 106.29989991 85.71868392 C96.24718308 85.71383881 86.19454678 85.72240527 76.1418457 85.74023438 C64.44596577 85.76090328 52.75014193 85.77132832 41.05424291 85.76765889 C34.87126032 85.76584932 28.68836102 85.7684496 22.50539207 85.78237343 C16.68833571 85.79498355 10.87146082 85.79297747 5.05440712 85.77996254 C2.92602603 85.77760407 0.79763204 85.78030514 -1.33073425 85.78858566 C-18.53441191 85.8506632 -32.90632051 84.90958802 -46.22216797 72.77905273 C-54.61068205 63.91507632 -58.48861061 52.30721072 -58.22216797 40.26733398 C-57.24137154 29.03414985 -52.33987217 18.08181938 -43.97216797 10.40405273 C-30.24940454 -0.17894242 -16.60380368 -0.038448 0 0 Z M-16.97216797 41.40405273 C-16.7018065 44.37802889 -16.11770771 45.25851299 -13.97216797 47.40405273 C-11.72358647 47.70814821 -11.72358647 47.70814821 -9.08229065 47.65802002 C-8.04893585 47.66365967 -7.01558105 47.66929932 -5.95091248 47.67510986 C-4.81267532 47.6710614 -3.67443817 47.66701294 -2.50170898 47.6628418 C-1.30654663 47.66634644 -0.11138428 47.66985107 1.11999512 47.67346191 C4.40308554 47.68077102 7.68601548 47.67903653 10.96910357 47.67270374 C14.40169287 47.66764878 17.83427126 47.6723339 21.26686096 47.67547607 C27.03298881 47.67911769 32.79906547 47.67431204 38.56518555 47.66479492 C45.23396646 47.65391512 51.90262504 47.65743166 58.57140297 47.66844773 C64.29289722 47.67752122 70.01435461 47.67880543 75.73585373 47.67357039 C79.15481418 47.67045036 82.57371711 47.67004214 85.99267387 47.67664337 C89.80452699 47.6817049 93.61614312 47.67400308 97.42797852 47.6628418 C99.1322979 47.66891449 99.1322979 47.66891449 100.87104797 47.67510986 C101.9072226 47.66947021 102.94339722 47.66383057 104.01097107 47.65802002 C104.91265235 47.65726597 105.81433363 47.65651192 106.74333858 47.65573502 C109.30642426 47.5507264 109.30642426 47.5507264 112.02783203 45.40405273 C112.4444987 42.90405273 112.4444987 42.90405273 112.02783203 40.40405273 C109.4906432 37.8668639 108.61605586 38.15129975 105.09999084 38.14335632 C103.53733742 38.13272911 103.53733742 38.13272911 101.94311523 38.12188721 C100.79552734 38.12436462 99.64793945 38.12684204 98.46557617 38.12939453 C97.26066025 38.1242836 96.05574432 38.11917267 94.8143158 38.11390686 C91.50433863 38.10236449 88.19461135 38.09994111 84.8846314 38.10247016 C82.12360473 38.10353814 79.3626013 38.09866092 76.60157961 38.09386474 C70.08877962 38.08276025 63.5760373 38.08233733 57.06323242 38.08837891 C50.33988007 38.09441982 43.61673693 38.08210702 36.89342028 38.06080884 C31.12521435 38.04320677 25.35707509 38.03718928 19.58884329 38.04044658 C16.14189974 38.04226192 12.6951054 38.03959857 9.24818611 38.02573204 C5.40520099 38.01085143 1.56248333 38.02011163 -2.28051758 38.03173828 C-3.42608124 38.02409454 -4.5716449 38.01645081 -5.75192261 38.00857544 C-6.79651138 38.01558975 -7.84110016 38.02260406 -8.91734314 38.02983093 C-9.82639876 38.02966319 -10.73545439 38.02949545 -11.67205715 38.02932262 C-14.41954001 38.47693782 -15.34516082 39.17589749 -16.97216797 41.40405273 Z " fill="#ff4200" transform="translate(163.97216796875,357.595947265625)"/>
<path d="M0 0 C1.05703125 0.37382812 2.1140625 0.74765625 3.203125 1.1328125 C20.27045619 7.74093304 35.5603492 18.86250635 46 34 C47.01320313 35.45986328 47.01320313 35.45986328 48.046875 36.94921875 C62.01166038 58.29014077 66.17897287 83.79373763 61.0390625 108.7265625 C55.57651027 132.54242144 40.99524769 153.51020254 20.515625 166.86328125 C-0.49170723 179.95455086 -26.30544178 184.74960669 -50.5625 179.3125 C-57.68976954 177.5900119 -64.40588424 175.23092778 -71 172 C-72.38058594 171.33871094 -72.38058594 171.33871094 -73.7890625 170.6640625 C-96.03590121 159.32130812 -111.72764336 138.79471779 -119.375 115.3125 C-126.23808962 90.62359797 -123.55417135 65.47841028 -111.65625 42.8359375 C-98.45590718 20.2334637 -78.49572924 5.11764363 -53.55859375 -2.08984375 C-36.64722049 -6.41514558 -16.45702716 -5.91062243 0 0 Z M-94.28515625 36.65625 C-108.72644311 55.57739656 -114.09808891 77.53974416 -111.57421875 100.94921875 C-108.5690644 118.29799324 -99.91645772 135.88249842 -87 148 C-84.87520148 149.23346611 -84.87520148 149.23346611 -83 150 C-82.31035156 149.21496094 -81.62070313 148.42992187 -80.91015625 147.62109375 C-72.3393738 137.98356814 -64.23476002 130.69773486 -52 126 C-51.21753906 125.67902344 -50.43507812 125.35804688 -49.62890625 125.02734375 C-34.49973606 119.82290921 -16.42214948 122.00944598 -2.05859375 128.28515625 C8.10835775 133.3615618 15.8497452 141.31078307 23 150 C39.46872043 136.61916465 49.69912293 118.21919966 52 97 C53.42543429 73.66595243 47.25487425 52.63870222 32.25 34.5078125 C16.23520038 16.65798375 -3.61361016 7.84412201 -27.15234375 5.71484375 C-53.425484 4.88592437 -77.32258293 16.93907075 -94.28515625 36.65625 Z " fill="#ff4200" transform="translate(286,149)"/>
<path d="M0 0 C2.02950676 1.44743025 3.8766407 2.97929609 5.73046875 4.64453125 C6.34664063 5.16917969 6.9628125 5.69382813 7.59765625 6.234375 C15.12548339 13.09988259 19.1529134 22.50420592 20.1015625 32.58984375 C20.46919862 45.1162632 18.06934891 55.8372911 9.734375 65.6484375 C0.72246901 74.62520935 -9.52637325 78.98619048 -22.14453125 79.20703125 C-34.11482339 79.09756583 -44.72222769 75.22528805 -53.26953125 66.64453125 C-62.56074553 55.83864585 -65.51027296 44.63075033 -64.49707031 30.66894531 C-63.52603553 22.02965306 -60.01394642 15.03951874 -54.26953125 8.64453125 C-53.48255859 7.72027344 -53.48255859 7.72027344 -52.6796875 6.77734375 C-39.66738517 -7.49026304 -16.32654172 -9.75096382 0 0 Z M-47.26953125 16.64453125 C-52.67502635 25.1001859 -55.17450728 32.6495356 -53.70703125 42.58203125 C-51.68267582 51.2597682 -46.74511087 58.75783064 -39.26953125 63.64453125 C-31.25726932 68.29343696 -22.59722087 69.89469221 -13.5625 67.49609375 C-4.11205738 63.98638934 2.67336045 58.25725201 7.04296875 49.20703125 C10.3004198 41.12473639 10.2265817 33.9417956 7.73046875 25.64453125 C3.94798087 16.87836002 -2.29246616 10.71462453 -10.95703125 6.70703125 C-24.07887202 2.51642342 -38.42865081 6.08090966 -47.26953125 16.64453125 Z " fill="#ff4200" transform="translate(278.26953125,184.35546875)"/>
</svg>
