<svg version="1.1" id="Layer_1" xmlns="http://www.w3.org/2000/svg" xmlns:xlink="http://www.w3.org/1999/xlink" x="0px" y="0px"
	 width="100%" viewBox="0 0 512 512" enable-background="new 0 0 512 512" xml:space="preserve">
<path fill="#ff4200" opacity="1.000000" stroke="none" 
	d="
M237.468658,513.000000 
	C232.697464,509.231537 227.311493,506.411652 225.804565,500.195709 
	C225.648148,499.550537 225.301315,498.925507 225.269684,498.279968 
	C224.456390,481.683929 223.773712,465.076752 225.662933,448.516571 
	C226.021927,445.369720 226.181824,432.698944 224.882401,429.656891 
	C221.468582,421.664764 222.521484,413.238831 222.822739,405.011810 
	C223.038422,399.121796 221.222504,395.222229 216.626282,391.579590 
	C200.516663,378.812164 184.746887,365.617096 168.754013,352.700867 
	C157.977203,343.997192 152.998413,326.757996 157.653656,313.432800 
	C162.562347,299.382141 174.930939,290.947845 189.941269,290.549377 
	C200.136871,290.278748 208.205750,294.517517 215.755173,300.575592 
	C217.675034,302.116150 219.634735,303.607056 221.527786,305.083069 
	C223.121765,303.837097 222.607956,302.388702 222.615112,301.155518 
	C222.674164,290.989563 222.584534,280.822296 222.705688,270.657410 
	C222.741623,267.641357 221.944595,265.970673 218.834534,264.719208 
	C192.866486,254.269913 173.786545,236.333191 162.157928,210.856567 
	C153.712067,192.352905 151.024902,172.914337 153.365402,152.599243 
	C154.914536,139.152985 159.134018,126.830147 165.464630,115.001572 
	C168.309311,109.686386 171.747284,104.849174 175.500854,100.213951 
	C178.608551,96.376320 185.074738,95.396126 188.454636,97.968224 
	C191.687302,100.428268 192.517456,106.647369 189.981644,110.758797 
	C187.545593,114.708420 184.626678,118.317871 182.193665,122.307236 
	C162.806686,154.095612 167.638184,197.113129 192.505081,224.593857 
	C198.745743,231.490479 205.849060,236.928406 213.376572,242.036896 
	C215.803635,243.683990 218.466141,245.139542 222.157288,245.508804 
	C223.077225,240.525925 222.637711,235.607086 222.470978,230.720886 
	C222.420029,229.227341 221.075851,228.589005 219.908173,227.895157 
	C209.537003,221.732590 201.617477,213.226166 195.740112,202.725357 
	C192.677658,197.253769 193.330566,192.091354 197.611572,189.536362 
	C202.115021,186.848663 208.254135,188.783508 211.353745,193.744232 
	C212.931946,196.270035 214.654724,198.714676 216.446243,201.095078 
	C217.836700,202.942581 219.435028,204.633636 221.135254,206.621414 
	C223.297256,204.221848 222.482361,202.168228 222.630234,200.336105 
	C223.308167,191.937454 221.405792,183.442184 224.330902,175.097610 
	C229.550766,160.206802 244.227127,150.485565 260.391144,151.682938 
	C275.829163,152.826523 288.573914,164.777557 291.415771,180.226486 
	C292.760010,187.534073 291.995819,194.826782 292.365967,202.117645 
	C292.453827,203.848358 291.651489,205.808228 293.839569,207.708435 
	C299.639648,202.940460 304.008118,196.965240 307.261780,190.315445 
	C322.065552,160.059448 306.459656,122.380600 271.032654,113.361084 
	C240.535294,105.596634 210.646576,126.730865 204.669632,155.928467 
	C203.843414,159.964462 203.641937,164.145767 203.375000,168.274277 
	C203.059311,173.156479 200.474197,176.181686 195.550446,177.014343 
	C191.635574,177.676392 188.100906,175.226349 186.478989,170.889420 
	C184.305008,165.076309 185.980026,159.256363 186.969086,153.670898 
	C192.341309,123.332558 215.525513,100.013054 245.819534,94.918144 
	C275.226318,89.972466 304.760803,102.323380 320.574280,129.282913 
	C340.076050,162.530365 331.300140,205.889297 296.558655,228.028763 
	C293.412628,230.033600 292.050842,231.911011 292.284149,235.488388 
	C292.520660,239.115280 292.336334,242.769638 292.336334,247.580856 
	C299.130402,244.683197 304.939270,241.596497 310.105927,237.642914 
	C328.900269,223.261368 341.102539,204.629868 345.379456,181.131897 
	C347.180481,171.236771 347.074066,161.336853 345.293732,151.440536 
	C344.972382,149.654236 344.720642,147.830292 344.696655,146.020294 
	C344.623840,140.524765 347.135132,137.159515 351.487213,136.700775 
	C357.063995,136.112946 361.183014,138.743546 362.160034,144.073334 
	C368.202393,177.035080 361.578003,206.998550 340.577454,233.431137 
	C328.718201,248.357941 313.598389,258.815247 295.820923,265.505432 
	C293.338593,266.439575 292.169067,267.828735 292.277313,270.667664 
	C292.493103,276.325867 292.560669,282.009644 292.265503,287.660675 
	C292.052155,291.745453 293.689240,292.756622 297.514404,292.731445 
	C319.345978,292.587524 341.178955,292.639923 363.011475,292.656891 
	C380.304962,292.670349 394.323761,306.707245 394.338562,324.053894 
	C394.364532,354.552704 394.231262,385.052368 394.428680,415.549927 
	C394.478149,423.191254 392.811951,430.023926 388.070068,435.990387 
	C385.685028,438.991394 384.840485,441.778168 387.028503,445.415863 
	C388.916809,448.555328 389.386749,452.256866 389.366852,455.981110 
	C389.313446,465.980469 388.924530,476.003174 389.462677,485.973785 
	C390.065613,497.144287 387.110168,506.245636 377.143188,512.702515 
	C330.645782,513.000000 284.291534,513.000000 237.468658,513.000000 
M180.871933,311.268677 
	C178.831558,313.601227 176.294601,315.312958 175.046661,318.542023 
	C171.615463,327.420288 175.326187,334.403381 182.887680,340.555725 
	C198.832993,353.529480 214.710342,366.586792 230.649658,379.567963 
	C237.186172,384.891418 241.344940,391.106659 240.440582,400.129303 
	C239.878494,405.737244 240.262451,411.449524 240.367813,417.112274 
	C240.487640,423.552917 245.807098,429.381409 252.115082,430.750641 
	C255.742142,431.537994 259.341919,431.661285 262.994873,431.660248 
	C294.483612,431.651367 325.972748,431.555328 357.460846,431.692657 
	C370.218353,431.748291 377.108307,424.453339 376.857330,412.643585 
	C376.252167,384.166656 376.665497,355.668152 376.660706,327.178345 
	C376.658752,315.621735 371.440948,310.373901 359.945038,310.369537 
	C335.287201,310.360168 310.629333,310.383392 285.971558,310.346893 
	C277.693176,310.334625 274.658752,307.210815 274.656952,298.874939 
	C274.649261,263.054443 274.629211,227.233887 274.698334,191.413513 
	C274.704193,188.375595 274.310059,185.445206 273.553558,182.563217 
	C270.572083,171.205200 258.308594,166.169296 248.367401,172.324356 
	C242.866501,175.730209 240.308899,180.855789 240.323090,187.405914 
	C240.379013,213.229858 240.329941,239.054001 240.324432,264.878082 
	C240.321289,279.539490 240.328735,294.200928 240.328232,308.862335 
	C240.327988,315.698242 237.776611,321.193359 231.600082,324.503204 
	C225.504059,327.769836 219.706985,326.626556 214.355453,322.627930 
	C211.438904,320.448669 208.645432,318.104126 205.807159,315.820831 
	C198.543228,309.977203 191.077393,305.135864 180.871933,311.268677 
M245.397888,450.700745 
	C243.153549,452.480927 242.256134,454.721863 242.292709,457.657166 
	C242.425491,468.315735 242.430511,478.977844 242.307877,489.636627 
	C242.258347,493.942932 244.249680,495.643829 248.357742,495.641418 
	C287.500549,495.618469 326.643402,495.611206 365.786163,495.662384 
	C370.065063,495.667969 371.729767,493.730988 371.683960,489.557465 
	C371.570557,479.231628 371.685822,468.903534 371.631927,458.576752 
	C371.596588,451.804932 369.085052,449.362488 362.272247,449.359833 
	C325.294739,449.345428 288.317261,449.342987 251.339752,449.358459 
	C249.539612,449.359222 247.647247,449.006073 245.397888,450.700745 
z"/>
<path fill="#ff4200" opacity="1.000000" stroke="none" 
	d="
M262.545898,1.000000 
	C265.870667,3.349199 267.318665,6.393827 267.327087,10.087799 
	C267.348328,19.397409 267.421387,28.708300 267.293335,38.016193 
	C267.238525,41.999275 266.095123,45.774040 261.835510,47.170593 
	C257.784180,48.498856 254.063004,47.748528 251.150238,44.191776 
	C249.867630,42.625610 249.653763,40.940826 249.654907,39.088520 
	C249.661118,28.947613 249.808228,18.803036 249.563919,8.667988 
	C249.489380,5.575390 251.295029,3.827304 252.876831,1.345933 
	C256.030609,1.000000 259.061188,1.000000 262.545898,1.000000 
z"/>
<path fill="#ff4200" opacity="1.000000" stroke="none" 
	d="
M334.597961,92.428619 
	C340.448853,98.172775 344.836090,104.620476 349.036957,111.178856 
	C352.383484,116.403526 351.425323,122.030739 347.057587,124.751122 
	C342.466431,127.610641 337.312042,126.406288 333.930145,120.916466 
	C324.230225,105.170555 310.976959,93.543427 294.146881,86.079247 
	C271.170380,75.889130 247.993607,75.557388 224.637497,85.048439 
	C219.841843,86.997200 215.505127,89.722153 210.889465,91.950203 
	C205.157898,94.716919 200.266891,93.687035 197.784424,89.339737 
	C195.215073,84.840355 196.630844,80.129059 201.919815,76.643196 
	C214.585602,68.295410 228.542114,63.554512 243.572739,61.567623 
	C267.015106,58.468777 289.122009,62.317612 309.947083,73.518646 
	C319.081451,78.431671 327.169342,84.713570 334.597961,92.428619 
z"/>
<path fill="#ff4200" opacity="1.000000" stroke="none" 
	d="
M150.460999,256.449524 
	C154.151321,252.825790 157.352692,249.143097 161.110550,246.161850 
	C165.449722,242.719406 170.330017,243.189621 173.708511,246.627731 
	C176.657043,249.628326 177.168121,255.210007 173.769211,258.861481 
	C166.865753,266.278015 159.638626,273.429749 152.126343,280.228149 
	C148.202866,283.778778 142.003372,283.042725 139.054672,279.658722 
	C136.200058,276.382690 136.679840,270.275909 140.274841,266.522980 
	C143.496368,263.159882 146.896606,259.967987 150.460999,256.449524 
z"/>
<path fill="#ff4200" opacity="1.000000" stroke="none" 
	d="
M148.927429,67.071289 
	C144.563782,64.152252 141.295395,60.810440 139.495270,56.110077 
	C138.193237,52.710358 138.979218,49.835209 141.470520,47.556107 
	C144.150131,45.104733 147.300781,43.877228 151.011276,45.543098 
	C153.163208,46.509224 155.034485,47.778778 156.695984,49.457436 
	C162.418686,55.239208 168.186935,60.976025 173.955124,66.712585 
	C176.526031,69.269424 178.321091,72.332443 177.849274,75.946449 
	C176.924759,83.027946 169.740723,85.577759 163.525574,81.666183 
	C157.590775,77.931046 154.539536,71.512596 148.927429,67.071289 
z"/>
<path fill="#ff4200" opacity="1.000000" stroke="none" 
	d="
M371.632233,282.968170 
	C366.570801,285.298676 362.531311,284.888336 358.747589,280.866089 
	C352.488068,274.212006 345.849609,267.915894 339.448639,261.392639 
	C335.506744,257.375458 335.175781,252.016510 338.474182,248.567520 
	C342.387573,244.475464 347.556488,244.521408 352.059082,248.925903 
	C358.472412,255.199524 364.802551,261.560242 371.080109,267.970032 
	C376.345917,273.346771 376.468079,276.370361 371.632233,282.968170 
z"/>
<path fill="#ff4200" opacity="1.000000" stroke="none" 
	d="
M376.847687,55.147270 
	C376.668549,58.649609 375.173340,61.037834 372.908142,63.223557 
	C366.444244,69.460701 360.169769,75.893616 353.775757,82.203903 
	C350.062988,85.868073 343.907104,86.464432 340.804688,83.561882 
	C336.697723,79.719505 336.929596,74.001366 341.445770,69.465179 
	C347.900635,62.981651 354.437073,56.578819 360.854645,50.058849 
	C363.662048,47.206692 366.876709,45.853668 370.745392,47.067822 
	C374.406891,48.216957 376.478668,50.855480 376.847687,55.147270 
z"/>
<path fill="#ff4200" opacity="1.000000" stroke="none" 
	d="
M126.890274,154.647507 
	C129.844620,154.791809 132.486389,154.060425 134.751984,155.224747 
	C138.198944,156.996201 140.642517,159.863205 140.076599,163.954391 
	C139.456436,168.437653 136.798325,171.999634 132.094925,172.173111 
	C121.807289,172.552567 111.490280,172.529755 101.197899,172.233154 
	C95.414352,172.066498 92.376991,168.236923 92.688889,162.731506 
	C92.987717,157.456833 96.046501,154.722412 101.982330,154.668976 
	C110.123413,154.595673 118.265633,154.648621 126.890274,154.647507 
z"/>
<path fill="#ff4200" opacity="1.000000" stroke="none" 
	d="
M399.997681,157.652954 
	C404.651398,157.654129 408.806580,157.606537 412.959991,157.670166 
	C417.594147,157.741150 420.832245,160.419724 421.299408,164.440628 
	C421.867859,169.333069 419.586670,172.954376 415.120239,174.376297 
	C412.392273,175.244781 409.610565,175.497345 406.775330,175.342896 
	C398.017090,174.865799 389.170776,176.458069 380.490967,174.400787 
	C376.082336,173.355865 373.341278,169.393860 373.788513,165.285095 
	C374.316559,160.433975 377.288025,157.767578 382.548798,157.678864 
	C388.197174,157.583618 393.848389,157.654724 399.997681,157.652954 
z"/>
</svg>