<?xml version="1.0" encoding="UTF-8"?>
<svg version="1.1" xmlns="http://www.w3.org/2000/svg" width="512" height="512">
<path d="M0 0 C6.60555033 3.9633302 11.90635918 8.9605033 14.77734375 16.21875 C16.74479128 24.32137417 16.77273604 33.48622772 12.76171875 40.9453125 C7.95316661 48.17941749 4.55672699 50.8778865 -3.5625 54.9375 C-3.8925 65.4975 -4.2225 76.0575 -4.5625 86.9375 C0.34632667 85.57588477 0.34632667 85.57588477 1.56835938 82.95385742 C1.80361328 82.15826416 2.03886719 81.3626709 2.28125 80.54296875 C2.55839844 79.66962891 2.83554688 78.79628906 3.12109375 77.89648438 C3.39050781 76.98189453 3.65992188 76.06730469 3.9375 75.125 C6.28813874 67.24642373 8.36598332 62.65184445 15.4375 57.9375 C18.04120889 57.71775436 20.53537571 57.60952577 23.140625 57.6015625 C23.89664001 57.5949057 24.65265503 57.5882489 25.43157959 57.58139038 C27.0319984 57.57126845 28.63245937 57.56657322 30.23291016 57.56689453 C32.66511022 57.56254009 35.09546702 57.52627161 37.52734375 57.48828125 C39.08593133 57.48240894 40.64452749 57.47844232 42.203125 57.4765625 C43.28318817 57.45500595 43.28318817 57.45500595 44.3850708 57.43301392 C49.9358734 57.4824778 52.99481872 58.83402346 57.4375 61.9375 C59.92653214 65.81746186 61.24604652 69.32115972 62.61328125 73.72265625 C62.82259277 74.39449951 63.0319043 75.06634277 63.24755859 75.75854492 C63.66058628 77.11060793 64.05346609 78.46901726 64.42431641 79.83325195 C65.02716012 81.99910706 65.02716012 81.99910706 66.4375 84.9375 C68.9601163 86.16514941 68.9601163 86.16514941 71.4375 86.9375 C71.51725152 82.4702701 71.53784524 78.00776952 71.50463867 73.5402832 C71.50156425 72.02232682 71.5143986 70.5042489 71.54370117 68.98657227 C71.63067723 64.1617729 71.57529653 59.64460889 70.4375 54.9375 C67.77274132 52.18648906 64.99769742 51.18763666 61.4375 49.9375 C55.10924758 44.56384837 51.90523099 38.63057615 51.08984375 30.44921875 C50.67875034 19.96106644 52.6318852 12.85821426 59.6875 5.0625 C67.09593121 -1.6193047 74.78727335 -2.96688903 84.55859375 -2.5 C93.51910666 -1.48934799 99.20105449 2.7299337 104.80859375 9.62890625 C109.90936376 16.85805511 110.37023199 24.21802794 109.4375 32.9375 C107.55009332 40.61508651 103.76095972 47.06491462 97.12109375 51.4765625 C91.09828911 54.9375 91.09828911 54.9375 88.4375 54.9375 C88.7675 67.8075 89.0975 80.6775 89.4375 93.9375 C95.57213149 97.34899912 95.57213149 97.34899912 98.86523438 96.4519043 C99.93741211 95.86276245 99.93741211 95.86276245 101.03125 95.26171875 C101.83433594 94.84599609 102.63742187 94.43027344 103.46484375 94.00195312 C104.28082031 93.54755859 105.09679687 93.09316406 105.9375 92.625 C116.36066119 86.96882959 116.36066119 86.96882959 122.4375 87.9375 C129.95113815 90.25780132 134.97321789 95.94069249 140.3125 101.4375 C141.16585938 102.29214844 142.01921875 103.14679688 142.8984375 104.02734375 C148.88091249 110.09501221 152.10162214 113.87394947 152.04296875 122.58984375 C151.12643342 127.65739715 148.76887791 131.85241455 146.19580078 136.27832031 C144.42385889 139.41852992 143.42842669 141.29824373 143.48046875 144.96484375 C144.62967089 148.53440632 146.13368598 151.84493824 147.8125 155.1875 C150.03470232 159.66997116 151.73172988 163.67705161 152.6875 168.625 C153.1745572 170.99228207 153.1745572 170.99228207 154.4375 172.9375 C157.95866602 174.94734588 161.49698214 176.04101546 165.4375 176.9375 C165.4060791 176.02254761 165.4060791 176.02254761 165.37402344 175.08911133 C165.29057139 172.30957706 165.23874989 169.5303068 165.1875 166.75 C165.15398437 165.79029297 165.12046875 164.83058594 165.0859375 163.84179688 C165.07304687 162.91044922 165.06015625 161.97910156 165.046875 161.01953125 C165.02592773 160.16593018 165.00498047 159.3123291 164.98339844 158.43286133 C165.62925804 154.88375862 166.75508458 153.3457224 169.4375 150.9375 C172.25287716 150.49050793 174.46450579 150.34881738 177.265625 150.44921875 C177.92997559 150.45425415 178.59432617 150.45928955 179.27880859 150.46447754 C181.74881448 150.49054137 184.21820278 150.56034973 186.6875 150.625 C194.97875 150.7796875 194.97875 150.7796875 203.4375 150.9375 C203.4375 133.1175 203.4375 115.2975 203.4375 96.9375 C201.4575 96.2775 199.4775 95.6175 197.4375 94.9375 C190.29170771 91.04934831 185.33453835 84.72115351 182.796875 76.984375 C181.1218935 67.44426296 182.49187953 59.0777969 187.72265625 50.9375 C192.01454988 45.39031715 197.8486741 42.1337753 204.4375 39.9375 C214.24191016 39.15977696 222.70196677 39.52631732 230.6875 45.66796875 C237.22524481 51.68894329 240.84846079 58.71603731 241.46875 67.6171875 C241.34908367 76.50241226 238.68243086 83.50001557 232.54296875 89.91796875 C228.63210235 93.54468043 225.55291086 95.31329711 220.4375 96.9375 C220.44749275 98.12354073 220.44749275 98.12354073 220.45768738 99.33354187 C220.51785308 106.79305093 220.563502 114.25244197 220.59293652 121.71213055 C220.60857795 125.54704343 220.62978805 129.38175545 220.66381836 133.21655273 C220.69646667 136.91887696 220.71436447 140.62100825 220.72213173 144.32346535 C220.72766547 145.73444467 220.73847164 147.14541369 220.75469017 148.55631065 C220.77653449 150.53572627 220.777726 152.51533693 220.77807617 154.49487305 C220.78806892 156.18364815 220.78806892 156.18364815 220.79826355 157.90653992 C220.39115362 161.32687978 219.48015606 163.18904267 217.4375 165.9375 C213.49655368 168.21822151 209.87196878 168.17098484 205.38671875 168.1328125 C204.18104248 168.12781738 202.97536621 168.12282227 201.7331543 168.11767578 C200.21246338 168.09946777 198.69177246 168.08125977 197.125 168.0625 C192.278125 168.02125 187.43125 167.98 182.4375 167.9375 C182.4375 184.1075 182.4375 200.2775 182.4375 216.9375 C190.3575 216.9375 198.2775 216.9375 206.4375 216.9375 C216.65251014 223.32188134 216.65251014 223.32188134 218.4375 229.9375 C222.0468252 253.13493385 210.49196248 281.05929617 199.4375 300.9375 C198.88304199 301.94925293 198.88304199 301.94925293 198.31738281 302.98144531 C193.29813532 312.07219077 187.69025502 320.5582109 181.54516602 328.9230957 C158.83976719 359.866296 141.59118562 389.59667597 147.5625 429.25 C149.72358539 442.22587925 153.27102696 454.97196871 158.359375 467.10131836 C162.25395964 476.39185801 164.70839676 484.82902066 161.5078125 494.84765625 C158.21047252 502.1643028 153.83144969 506.21701203 146.37031329 509.31594944 C143.14060509 510.35455309 139.91840591 510.35742798 136.56376648 510.33190918 C135.80121687 510.33800028 135.03866727 510.34409139 134.25301009 510.35036707 C131.7136853 510.36693331 129.17486547 510.36223049 126.63549805 510.35742188 C124.80834434 510.36476598 122.98119527 510.37335321 121.15405273 510.38308716 C116.20143322 510.40527747 111.24898022 510.40823503 106.29631782 510.40633965 C102.15633734 510.40621981 98.01639196 510.41478925 93.87642127 510.42311716 C84.10549718 510.44234284 74.33465852 510.44523831 64.5637207 510.43847656 C54.49743883 510.43183833 44.43152362 510.45469336 34.36531609 510.49179029 C25.71114104 510.5225215 17.05708372 510.53384355 8.40285522 510.52995348 C3.23928487 510.52788929 -1.9240002 510.53331416 -7.08751869 510.55784607 C-11.94601189 510.58016674 -16.80391061 510.57819115 -21.66240692 510.55791855 C-23.440093 510.55451776 -25.21781952 510.55955729 -26.99545097 510.57390213 C-37.26947876 510.65105397 -46.3133093 510.52186802 -54.38646412 503.30757904 C-63.69404704 493.56828 -64.87929598 473.61901173 -67.5625 460.9375 C-68.47386719 461.13085938 -69.38523437 461.32421875 -70.32421875 461.5234375 C-93.8013058 466.31373672 -123.69759988 471.26256808 -144.90625 457.40625 C-151.03235697 452.56022508 -155.1443578 445.65849641 -156.5625 437.9375 C-157.11060189 429.7581333 -156.57273978 422.41612446 -154.21875 414.55859375 C-153.5416018 411.85403158 -153.277729 409.71051596 -153.5625 406.9375 C-155.85401077 404.31255218 -155.85401077 404.31255218 -158.5625 401.9375 C-162.1815133 397.70343271 -163.11881342 393.41785092 -163.5625 387.9375 C-163.08446396 384.09383183 -161.78459946 380.60379839 -160.5625 376.9375 C-161.78760601 374.71042769 -161.78760601 374.71042769 -163.5 372.375 C-166.86313089 367.10117582 -167.26640165 363.0640514 -166.5625 356.9375 C-167.67625 356.875625 -168.79 356.81375 -169.9375 356.75 C-176.81561347 355.85974772 -183.18101565 352.76542071 -188.0625 347.8125 C-192.08800788 342.50249958 -193.00446806 336.42814571 -192.1796875 329.9140625 C-189.76286618 319.10781543 -184.53491911 310.46622691 -177.8125 301.8125 C-171.57512594 293.56241131 -166.24047514 285.15609145 -161.5625 275.9375 C-161.05074219 274.93074219 -160.53898437 273.92398437 -160.01171875 272.88671875 C-154.53506384 261.46490453 -153.03264645 250.54111988 -152.56640625 237.99023438 C-152.18646557 231.38977551 -151.4541396 225.74461141 -146.5625 220.9375 C-139.5625 216.9375 -139.5625 216.9375 -115.5625 216.9375 C-115.5625 200.7675 -115.5625 184.5975 -115.5625 167.9375 C-125.21044119 168.01645278 -125.21044119 168.01645278 -134.8581543 168.11767578 C-136.06383057 168.1226709 -137.26950684 168.12766602 -138.51171875 168.1328125 C-139.74237061 168.14328613 -140.97302246 168.15375977 -142.2409668 168.16455078 C-145.57869684 167.93639283 -147.67399072 167.6091506 -150.5625 165.9375 C-153.44537369 162.05850368 -153.93138446 159.27897391 -153.90307617 154.49487305 C-153.90273628 152.57344734 -153.90273628 152.57344734 -153.90238953 150.61320496 C-153.88707193 149.22520596 -153.87142398 147.83721057 -153.85546875 146.44921875 C-153.84986926 145.02147366 -153.84560083 143.59372278 -153.84260559 142.16596985 C-153.83118449 138.41921912 -153.8017414 134.67282064 -153.76849365 130.9262085 C-153.73773342 127.09864059 -153.72408758 123.27101542 -153.70898438 119.44335938 C-153.67686861 111.94124616 -153.62570597 104.43942255 -153.5625 96.9375 C-154.50794678 96.63730957 -155.45339355 96.33711914 -156.42749023 96.02783203 C-163.1641799 93.68486372 -168.11658641 88.13978063 -171.59375 82.03125 C-175.14730657 74.35098258 -175.49560547 66.29565126 -172.62109375 58.328125 C-169.14395603 50.75416165 -164.62944984 45.08959361 -157 41.5 C-148.23016946 38.45251716 -139.49867427 38.59591439 -131.0625 42.5 C-122.98277115 47.12005772 -119.12724132 52.27592273 -116.2578125 61.11328125 C-114.14333064 69.70187893 -115.67919287 77.06200797 -119.5625 84.9375 C-123.19506937 90.80040072 -128.28969056 94.2151007 -134.5625 96.9375 C-135.2225 96.9375 -135.8825 96.9375 -136.5625 96.9375 C-136.5625 114.7575 -136.5625 132.5775 -136.5625 150.9375 C-125.55260391 150.73987974 -125.55260391 150.73987974 -114.54394531 150.48706055 C-113.15952482 150.47245196 -111.7750828 150.45971215 -110.390625 150.44921875 C-109.67696777 150.42363892 -108.96331055 150.39805908 -108.22802734 150.3717041 C-104.52971368 150.36846451 -102.88775418 150.64549288 -100.09765625 153.15039062 C-98.46228347 156.11944528 -98.08967317 157.66980678 -98.171875 161.01953125 C-98.18476563 161.95087891 -98.19765625 162.88222656 -98.2109375 163.84179688 C-98.24445313 164.80150391 -98.27796875 165.76121094 -98.3125 166.75 C-98.33054687 167.72904297 -98.34859375 168.70808594 -98.3671875 169.71679688 C-98.41417113 172.12470771 -98.47984306 174.53059335 -98.5625 176.9375 C-94.40521739 176.28951725 -91.08049394 175.28449029 -87.5625 172.9375 C-85.7298007 169.36417481 -84.69631897 165.775632 -83.69140625 161.9140625 C-82.42309443 157.04534372 -80.07914761 152.88056994 -77.6015625 148.5234375 C-76.32810518 145.3541565 -76.45666234 144.14783927 -77.5625 140.9375 C-78.71186599 138.72972503 -79.90366677 136.54379174 -81.125 134.375 C-84.46668761 128.0484959 -86.24894334 122.13850961 -84.5625 114.9375 C-81.36643693 109.00554002 -76.47686214 104.48454185 -71.75 99.75 C-70.96818359 98.94369141 -70.18636719 98.13738281 -69.38085938 97.30664062 C-63.95132095 91.84988646 -60.0235721 88.58532983 -52.25390625 87.45703125 C-46.21626885 88.24288247 -41.20956351 91.21314318 -35.85742188 94.00195312 C-35.00599609 94.41767578 -34.15457031 94.83339844 -33.27734375 95.26171875 C-32.51542725 95.65447998 -31.75351074 96.04724121 -30.96850586 96.4519043 C-27.83246232 97.34163799 -27.83246232 97.34163799 -22.5625 93.9375 C-22.2325 81.0675 -21.9025 68.1975 -21.5625 54.9375 C-24.5325 53.9475 -24.5325 53.9475 -27.5625 52.9375 C-34.71056496 49.04811171 -39.62475434 42.73892147 -42.203125 35.01953125 C-43.91353812 25.11028999 -42.72970086 17.02802433 -37.08984375 8.78515625 C-28.20944217 -2.48854505 -13.16735641 -6.0509531 0 0 Z M-24.9375 20.75 C-26.16690405 25.05291417 -26.18547139 28.63222662 -24.25 32.6875 C-21.5265051 36.47317502 -21.5265051 36.47317502 -17.51171875 38.5546875 C-12.32893156 39.14547153 -8.98916207 39.09940148 -4.5625 35.9375 C-1.63513833 32.52224471 -1.03317941 29.42865472 -1.203125 24.93359375 C-1.79932531 21.62208984 -3.44381033 19.47992761 -5.5625 16.9375 C-12.25941932 12.47288712 -20.0809984 14.34824788 -24.9375 20.75 Z M70.4375 18.9375 C67.7350575 22.99116375 67.91013183 26.18281551 68.4375 30.9375 C69.79904203 34.4169963 71.02823448 35.64516749 74.0625 37.8125 C78.47872386 39.28457462 81.97985467 39.3002424 86.4375 37.9375 C89.67794458 35.37214804 91.13310167 33.850695 92.4375 29.9375 C92.83859454 25.68589783 92.70128256 23.4368027 90.6875 19.625 C88.09596166 16.52955142 86.24782484 15.21601151 82.25390625 14.6015625 C77.00945792 14.51067085 74.21117502 14.93511741 70.4375 18.9375 Z M-154.5625 60.9375 C-156.96714553 64.84504898 -157.92918766 67.64989162 -157.0625 72.125 C-155.86867181 75.97509593 -154.00620343 77.78518536 -150.5625 79.9375 C-147.33005038 81.55372481 -144.05676864 81.52204308 -140.5625 80.9375 C-136.87919941 78.92696474 -133.79645986 76.00956754 -132.5625 71.9375 C-132.04933111 68.00320518 -132.38415985 66.26233385 -134.3125 62.75 C-137.67216931 58.55041337 -138.96442399 57.11792794 -144.4375 56.5 C-148.77552505 56.69387821 -151.30646796 57.98435466 -154.5625 60.9375 Z M200.4375 62.9375 C198.98676895 67.17809846 198.89757215 70.58768038 200.5625 74.75 C204.01197712 78.77438998 205.95285884 80.74897414 211.375 81.4375 C215.60286373 81.22171111 218.17854519 79.65329568 221.4375 76.9375 C224.2663298 72.6942553 224.09018001 68.92015471 223.4375 63.9375 C221.39585443 60.43753617 219.34660064 58.13194742 215.4375 56.9375 C208.73984977 56.05911964 204.47036791 57.24267211 200.4375 62.9375 Z M22.4375 74.9375 C19.94210319 81.06386904 17.63919012 87.17768872 15.66015625 93.4921875 C11.76677787 101.27894426 3.07967557 102.20815158 -4.5625 104.9375 C-4.5625 121.1075 -4.5625 137.2775 -4.5625 153.9375 C0.7175 151.2975 5.9975 148.6575 11.4375 145.9375 C27.52766931 140.34091937 46.31059137 141.17578156 61.734375 148.50390625 C64.35375415 149.91199219 66.90177599 151.3855032 69.4375 152.9375 C70.0975 153.2675 70.7575 153.5975 71.4375 153.9375 C71.4375 137.7675 71.4375 121.5975 71.4375 104.9375 C66.1575 102.9575 60.8775 100.9775 55.4375 98.9375 C50.93966707 93.31520884 50.93966707 93.31520884 49.76953125 89.546875 C49.51623047 88.75539063 49.26292969 87.96390625 49.00195312 87.1484375 C48.62973633 85.93027344 48.62973633 85.93027344 48.25 84.6875 C47.73809885 83.05652959 47.2238993 81.42627817 46.70703125 79.796875 C46.37602417 78.72131348 46.37602417 78.72131348 46.03833008 77.62402344 C45.56939482 75.92646177 45.56939482 75.92646177 44.4375 74.9375 C42.80277118 74.85049658 41.16435945 74.83048937 39.52734375 74.83984375 C38.04331055 74.84467773 38.04331055 74.84467773 36.52929688 74.84960938 C34.96791992 74.86217773 34.96791992 74.86217773 33.375 74.875 C31.80782227 74.88176758 31.80782227 74.88176758 30.20898438 74.88867188 C27.6184334 74.90050087 25.02799441 74.91698311 22.4375 74.9375 Z M-54.16650391 107.31445312 C-55.09342041 108.25708008 -55.09342041 108.25708008 -56.0390625 109.21875 C-57.04453125 110.23388672 -57.04453125 110.23388672 -58.0703125 111.26953125 C-58.76898438 111.98496094 -59.46765625 112.70039062 -60.1875 113.4375 C-61.24710938 114.51064453 -61.24710938 114.51064453 -62.328125 115.60546875 C-64.07745593 117.37843929 -65.82196536 119.15590011 -67.5625 120.9375 C-66.99660156 122.06027344 -66.43070313 123.18304688 -65.84765625 124.33984375 C-65.10605376 125.85121085 -64.36520869 127.36294978 -63.625 128.875 C-63.25181641 129.61041016 -62.87863281 130.34582031 -62.49414062 131.10351562 C-59.65990732 136.95071768 -57.33116306 142.76014415 -59.24291992 149.24584961 C-60.2693715 151.70570131 -61.41348515 154.06349659 -62.625 156.4375 C-66.13251422 163.68110189 -69.14019175 170.83949166 -71.44555664 178.55664062 C-72.90759097 183.12048998 -74.49670633 185.39637896 -78.5625 187.9375 C-81.140625 189.09765625 -81.140625 189.09765625 -83.8125 190 C-85.11960937 190.45052734 -85.11960937 190.45052734 -86.453125 190.91015625 C-87.47921875 191.24917969 -88.5053125 191.58820313 -89.5625 191.9375 C-92.5325 192.9275 -95.5025 193.9175 -98.5625 194.9375 C-98.5625 202.1975 -98.5625 209.4575 -98.5625 216.9375 C-76.1225 216.9375 -53.6825 216.9375 -30.5625 216.9375 C-30.5625 210.9975 -30.5625 205.0575 -30.5625 198.9375 C-27.80626785 185.05425659 -27.80626785 185.05425659 -24.0078125 178.56494141 C-20.76821073 172.12456889 -20.92658899 166.14224115 -21.07421875 159.0546875 C-21.08129349 157.75927032 -21.08836823 156.46385315 -21.09565735 155.12918091 C-21.11456218 151.71917646 -21.16351275 148.31027178 -21.21917725 144.9006958 C-21.27073246 141.40790679 -21.2932479 137.91493649 -21.31835938 134.421875 C-21.3716536 127.59330405 -21.45675882 120.76545512 -21.5625 113.9375 C-22.37282684 113.95780273 -23.18315369 113.97810547 -24.01803589 113.99902344 C-25.0882901 114.01481445 -26.15854431 114.03060547 -27.26123047 114.046875 C-28.31905731 114.06717773 -29.37688416 114.08748047 -30.46676636 114.10839844 C-35.13910736 113.85046417 -38.63366459 112.14326339 -42.6875 109.9375 C-48.42160876 106.08698699 -48.42160876 106.08698699 -54.16650391 107.31445312 Z M107.4375 111.09375 C102.85694775 113.392235 99.28809766 114.14575412 94.13623047 114.046875 C93.06597626 114.03108398 91.99572205 114.01529297 90.89303589 113.99902344 C89.67754562 113.96856934 89.67754562 113.96856934 88.4375 113.9375 C88.32104555 121.45723593 88.23250324 128.97687698 88.17843914 136.49731255 C88.15247503 139.99039708 88.11732474 143.4828594 88.06030273 146.97558594 C87.99498785 151.00200976 87.97121107 155.02779216 87.94921875 159.0546875 C87.92341232 160.29362762 87.8976059 161.53256775 87.87101746 162.80905151 C87.86879226 169.76455273 88.62333541 174.70245711 92.1900177 180.73147583 C98.38212823 191.68148731 97.4375 204.87576528 97.4375 216.9375 C119.8775 216.9375 142.3175 216.9375 165.4375 216.9375 C165.4375 209.6775 165.4375 202.4175 165.4375 194.9375 C158.75833702 192.88164658 158.75833702 192.88164658 152.06567383 190.87060547 C146.06899447 188.94895407 142.78125182 187.35119342 139.4375 181.9375 C138.13671875 178.6328125 138.13671875 178.6328125 137.125 175.0625 C135.16981122 168.52309765 132.49489133 162.67410641 129.1159668 156.74462891 C125.92851155 150.86140445 124.29980142 144.85285853 126.21337891 138.26733398 C127.32442336 135.54718213 128.55487175 132.9372027 129.875 130.3125 C130.30876953 129.40371094 130.74253906 128.49492187 131.18945312 127.55859375 C132.25174693 125.34061768 133.33414318 123.13525626 134.4375 120.9375 C131.98726242 118.42945282 129.52602402 115.9324924 127.0625 113.4375 C126.36382812 112.72207031 125.66515625 112.00664063 124.9453125 111.26953125 C124.275 110.59277344 123.6046875 109.91601562 122.9140625 109.21875 C122.29611816 108.59033203 121.67817383 107.96191406 121.04150391 107.31445312 C117.10583861 103.93589114 111.34128276 108.96963291 107.4375 111.09375 Z M2.4375 169.9375 C1.37402344 170.79794922 1.37402344 170.79794922 0.2890625 171.67578125 C-7.64798741 178.77655196 -13.61600057 190.25297758 -14.5625 200.9375 C-14.81586029 206.47623749 -14.91206633 211.5392347 -13.5625 216.9375 C17.4575 216.9375 48.4775 216.9375 80.4375 216.9375 C83.01390503 204.05547483 80.92731243 191.98793475 74.30078125 180.609375 C66.08753953 168.8318963 55.43746356 161.75861335 41.4375 158.9375 C26.69502267 157.48957812 13.98522397 160.31439669 2.4375 169.9375 Z M-134.5625 233.9375 C-135.2225 241.5275 -135.8825 249.1175 -136.5625 256.9375 C-140.85029783 278.20497722 -151.89162996 295.59611484 -164.4453125 312.9296875 C-165.12412476 313.86880981 -165.12412476 313.86880981 -165.81665039 314.8269043 C-167.03463514 316.50080944 -168.26865293 318.16301602 -169.50390625 319.82421875 C-173.22420828 325.45055788 -174.98436665 330.04701131 -174.5625 336.9375 C-168.64885084 340.47607381 -163.15713173 340.65587753 -156.46289062 341.109375 C-151.79271051 341.49393457 -148.34424998 341.89109029 -144.5625 344.9375 C-143.40779601 347.86275011 -143.41788955 349.41164381 -144.25 352.4375 C-145.5625 354.9375 -145.5625 354.9375 -147.75 357.5 C-149.75237673 359.70745105 -149.75237673 359.70745105 -149.625 362 C-147.47561912 365.91945924 -144.33999594 367.64410531 -140.25 369.1875 C-138.9196875 369.55875 -138.9196875 369.55875 -137.5625 369.9375 C-137.3388663 371.35183206 -137.13423524 372.76917618 -136.9375 374.1875 C-136.82148438 374.97640625 -136.70546875 375.7653125 -136.5859375 376.578125 C-136.55841285 379.34893995 -137.01343388 380.65262748 -138.5625 382.9375 C-140.78227658 384.56466654 -143.10644278 385.66398885 -145.5625 386.9375 C-145.28134546 390.34064146 -144.94157163 391.60910288 -142.3125 393.88671875 C-141.405 394.46035156 -140.4975 395.03398437 -139.5625 395.625 C-134.64295977 398.77658046 -134.64295977 398.77658046 -133.5625 400.9375 C-133.16933423 405.84849795 -134.24540722 409.43209416 -136 414 C-138.92705545 421.68039336 -141.38481815 429.8089396 -138.94921875 438 C-136.90567688 442.17710762 -134.18775343 444.33129119 -129.95703125 446.16015625 C-117.36095386 450.24925804 -104.48477158 449.13986648 -91.5625 447.5625 C-90.46421875 447.43617188 -89.3659375 447.30984375 -88.234375 447.1796875 C-82.08176261 446.45070499 -76.02084619 445.49948461 -69.93359375 444.35205078 C-67.13178683 443.86219615 -64.40648585 443.60482122 -61.5625 443.5625 C-60.675625 443.53414062 -59.78875 443.50578125 -58.875 443.4765625 C-56.5625 443.9375 -56.5625 443.9375 -55.06420898 445.40600586 C-52.90504788 449.04579476 -52.15556943 452.79989541 -51.22265625 456.90234375 C-50.79507348 458.6894894 -50.36733427 460.47659764 -49.93945312 462.26367188 C-49.27942477 465.0715558 -48.62375045 467.88038638 -47.97192383 470.69018555 C-47.33745521 473.40950709 -46.68704585 476.12465446 -46.03515625 478.83984375 C-45.75213402 480.09473854 -45.75213402 480.09473854 -45.46339417 481.37498474 C-44.32806785 486.0753625 -43.1753634 489.49974451 -39.5625 492.9375 C-35.96579201 494.2470923 -32.3383714 494.06619285 -28.54737854 494.07121277 C-27.84103411 494.07347833 -27.13468968 494.07574388 -26.40694088 494.07807809 C-24.04023888 494.08440794 -21.67359429 494.08358938 -19.30688477 494.08276367 C-17.60999477 494.08575577 -15.91310546 494.08915841 -14.21621704 494.09294128 C-9.60675742 494.10177964 -4.99731636 494.10411931 -0.38784909 494.10475707 C3.45917045 494.10570641 7.30618567 494.10938494 11.15320355 494.11292917 C20.22819587 494.12107285 29.30317827 494.12351345 38.37817383 494.12280273 C47.74284365 494.12220172 57.10745591 494.13275845 66.47211117 494.1485464 C74.51042275 494.16161586 82.5487155 494.16698689 90.58703762 494.16634732 C95.38878437 494.16609219 100.19047994 494.16895181 104.99221611 494.17952538 C109.50740477 494.18919653 114.02249323 494.18929229 118.53768539 494.18200874 C120.19491153 494.18096173 121.85214388 494.1833327 123.50935936 494.1893692 C125.77148947 494.19707557 128.03327238 494.19245347 130.2953949 494.18473816 C131.56135215 494.18528293 132.8273094 494.18582769 134.13162899 494.18638897 C138.09587362 493.88793305 140.9422004 492.91717905 144.25 490.75 C146.11413885 487.90473545 145.88009331 485.19359405 145.4375 481.9375 C144.25763436 477.97922897 142.74762 474.15985954 141.25 470.3125 C137.01508357 458.99975654 133.79103177 447.7782175 131.4375 435.9375 C131.19257813 434.75929688 130.94765625 433.58109375 130.6953125 432.3671875 C124.71430678 398.36557961 134.03138666 367.12911696 153.1953125 339.12890625 C155.31065576 336.11804311 157.43500994 333.11386076 159.56420898 330.11279297 C181.17996182 299.63165804 198.5101786 271.99267816 201.4375 233.9375 C90.5575 233.9375 -20.3225 233.9375 -134.5625 233.9375 Z " fill="#ff4200" transform="translate(231.5625,2.0625)"/>
</svg>
