<!DOCTYPE svg PUBLIC "-//W3C//DTD SVG 1.1//EN" "http://www.w3.org/Graphics/SVG/1.1/DTD/svg11.dtd">
<!-- Uploaded to: SVG Repo, www.svgrepo.com, Transformed by: SVG Repo Mixer Tools -->
<svg version="1.1" id="Uploaded to svgrepo.com" xmlns="http://www.w3.org/2000/svg" xmlns:xlink="http://www.w3.org/1999/xlink" width="800px" height="800px" viewBox="0 0 32 32" xml:space="preserve" fill="#ff4200" stroke="#ff4200">
<g id="SVGRepo_bgCarrier" stroke-width="0"/>
<g id="SVGRepo_tracerCarrier" stroke-linecap="round" stroke-linejoin="round"/>
<g id="SVGRepo_iconCarrier"> <style type="text/css"> .feather_een{fill:#0B1719;} </style> <path class="feather_een" d="M12,15.5c0-0.276,0.224-0.5,0.5-0.5H13c0.552,0,1,0.448,1,1v6.5c0,0.276-0.224,0.5-0.5,0.5 S13,22.776,13,22.5V16h-0.5C12.224,16,12,15.776,12,15.5z M17.5,16H18v6.5c0,0.276,0.224,0.5,0.5,0.5s0.5-0.224,0.5-0.5V16 c0-0.552-0.448-1-1-1h-0.5c-0.276,0-0.5,0.224-0.5,0.5C17,15.776,17.224,16,17.5,16z M30,8v19c0,1.657-1.343,3-3,3H5 c-1.657,0-3-1.343-3-3V8c0-1.657,1.343-3,3-3h1V4c0-1.105,0.895-2,2-2c1.105,0,2,0.895,2,2v1h12V4c0-1.105,0.895-2,2-2 c1.105,0,2,0.895,2,2v1h1C28.657,5,30,6.343,30,8z M23,7c0,0.551,0.449,1,1,1s1-0.449,1-1V4c0-0.551-0.449-1-1-1s-1,0.449-1,1V7z M7,7c0,0.551,0.449,1,1,1s1-0.449,1-1V4c0-0.551-0.449-1-1-1S7,3.449,7,4V7z M28.976,27.242C28.447,27.708,27.76,28,27,28H5 c-0.76,0-1.447-0.292-1.976-0.758C3.145,28.229,3.98,29,5,29h22C28.02,29,28.855,28.229,28.976,27.242z M29,12H3v13 c0,1.103,0.897,2,2,2h22c1.103,0,2-0.897,2-2V12z M29,8c0-1.103-0.897-2-2-2h-1v1c0,1.105-0.895,2-2,2c-1.105,0-2-0.895-2-2V6H10v1 c0,1.105-0.895,2-2,2C6.895,9,6,8.105,6,7V6H5C3.897,6,3,6.897,3,8v3h26V8z"/> </g>
</svg>