<?xml version="1.0" encoding="UTF-8"?>
<svg version="1.1" xmlns="http://www.w3.org/2000/svg" width="512" height="512">
<path d="M0 0 C7.29282406 6.2012994 14.44586564 13.49108383 18.6875 22.1875 C18.6875 22.8475 18.6875 23.5075 18.6875 24.1875 C19.61258865 24.18083817 19.61258865 24.18083817 20.55636597 24.17404175 C27.01346504 24.1295684 33.47052013 24.09953449 39.92773438 24.07763672 C42.33302581 24.06762006 44.7383052 24.05400291 47.14355469 24.03662109 C50.61396267 24.0121816 54.08420872 24.00097321 57.5546875 23.9921875 C58.61863739 23.98186493 59.68258728 23.97154236 60.77877808 23.96090698 C70.04250533 23.95953543 78.54214426 24.31584557 85.9296875 30.40234375 C91.38876707 35.94634234 93.80292312 41.59447011 93.84140015 49.32740784 C93.85000061 50.61285995 93.85860107 51.89831207 93.86746216 53.22271729 C93.87189737 54.65051229 93.87619573 56.07830773 93.88037109 57.50610352 C93.88827361 59.00754485 93.89654266 60.5089843 93.90515137 62.01042175 C93.93136235 66.9457315 93.94668181 71.88104966 93.9609375 76.81640625 C93.96629827 78.51719607 93.97167578 80.21798584 93.97706985 81.91877556 C93.99870055 88.99687369 94.01743477 96.07496956 94.02869225 103.15309238 C94.04491407 113.28508561 94.0780465 123.41669428 94.13509309 133.54854256 C94.17386148 140.678212 94.1933333 147.80777891 94.19861281 154.93755096 C94.20225792 159.19244992 94.2141884 163.44693864 94.24671555 167.7017231 C94.2769167 171.70983112 94.28306563 175.71728332 94.27133179 179.72548103 C94.27111203 181.19034782 94.27933579 182.65524609 94.29698563 184.12000656 C94.39566873 192.7870618 93.95358792 200.01405951 88.6875 207.1875 C83.14120678 212.42030776 77.70125832 215.46572201 69.94921875 215.3828125 C68.34916992 215.37314453 68.34916992 215.37314453 66.71679688 215.36328125 C65.06260742 215.33814453 65.06260742 215.33814453 63.375 215.3125 C62.25287109 215.30347656 61.13074219 215.29445313 59.97460938 215.28515625 C57.21202091 215.26164486 54.44987068 215.22878155 51.6875 215.1875 C51.69749275 216.24865776 51.69749275 216.24865776 51.70768738 217.33125305 C51.76778697 223.99668896 51.81346839 230.6620493 51.84293652 237.32769489 C51.85859574 240.75463223 51.87983804 244.18134577 51.91381836 247.6081543 C51.95263514 251.54733608 51.96720716 255.48642709 51.98046875 259.42578125 C51.99595261 260.65710281 52.01143646 261.88842438 52.02738953 263.15705872 C52.02772942 264.86849312 52.02772942 264.86849312 52.02807617 266.61450195 C52.03806892 268.12340752 52.03806892 268.12340752 52.04826355 269.66279602 C51.6875 272.1875 51.6875 272.1875 50.33418274 273.99674988 C48.6875 275.1875 48.6875 275.1875 46 275.8125 C37.83850239 274.27259479 32.60458524 265.75368819 27.81028557 259.55638123 C12.21169247 239.44665754 -6.40307691 215.97661111 -32.9755342 212.17212296 C-50.69536612 210.05803295 -68.71030884 211.04191489 -86.46556866 212.22289467 C-95.78699008 212.83302454 -105.11457149 213.09461958 -114.45117188 213.35546875 C-117.74901068 213.44934304 -121.04676249 213.54564765 -124.34443665 213.6451416 C-125.14278815 213.66919461 -125.94113965 213.69324761 -126.76368362 213.7180295 C-132.2014176 213.89126816 -137.62992438 214.15412067 -143.06169128 214.45935059 C-145.20720522 214.57217354 -147.35278279 214.68371521 -149.49837303 214.79507637 C-151.45924049 214.90426146 -153.41874139 215.0371924 -155.37808228 215.17100525 C-163.79153241 215.60668712 -170.07585444 214.74515061 -176.65234375 209.22265625 C-184.7741437 199.19451694 -184.46213992 189.94153893 -184.45776367 177.40869141 C-184.46075933 176.01341157 -184.46416279 174.61813255 -184.46794128 173.22285461 C-184.47674346 169.44798737 -184.47911778 165.67314283 -184.47975707 161.89826632 C-184.48046964 159.53610151 -184.48260787 157.17394241 -184.48525429 154.81177902 C-184.49449471 146.56038804 -184.49859075 138.30901317 -184.49780273 130.05761719 C-184.49720207 122.3828698 -184.50775501 114.70819272 -184.5235464 107.03346312 C-184.53664748 100.42941097 -184.54198556 93.82538173 -184.54134732 87.2213167 C-184.54109312 83.28356282 -184.54390131 79.3458715 -184.55452538 75.40813065 C-184.56424988 71.7029886 -184.56425591 67.99796838 -184.55700874 64.29282188 C-184.55547494 62.29670492 -184.56377886 60.30058786 -184.57244873 58.30448914 C-184.54043446 49.10371038 -184.41006838 40.60346155 -178.3125 33.1875 C-172.2486219 27.16693532 -166.56543636 24.29748331 -157.86090088 24.14437866 C-154.85724168 24.17483205 -151.8547846 24.2336351 -148.8515625 24.29296875 C-145.4043012 24.31693491 -141.95708211 24.3304314 -138.50976562 24.34399414 C-136.13158295 24.36463583 -133.75348834 24.40494929 -131.37597656 24.46508789 C-119.01601772 25.38494153 -119.01601772 25.38494153 -107.51077271 22.0463562 C-104.43345722 18.94548348 -102.92420113 15.1748356 -101.3125 11.1875 C-91.48945014 -2.03935875 -75.01893497 -11.01212033 -59.0859375 -14.3046875 C-37.71941395 -17.18009957 -17.35737393 -13.23867503 0 0 Z M-91.4453125 20.51171875 C-101.07694195 32.12387806 -104.63314988 46.31348305 -104.3125 61.1875 C-102.74892934 77.89921226 -94.09882177 90.78492423 -85.26953125 104.51953125 C-81.37557014 110.60737945 -77.81709748 116.8689169 -74.3125 123.1875 C-71.0125 123.1875 -67.7125 123.1875 -64.3125 123.1875 C-64.3125 108.0075 -64.3125 92.8275 -64.3125 77.1875 C-68.2725 76.8575 -72.2325 76.5275 -76.3125 76.1875 C-83.0121866 73.52285192 -87.07824342 71.65601315 -90.3125 65.1875 C-92.30624888 59.20625337 -92.31158576 52.51315978 -89.625 46.75 C-86.66911919 41.66047283 -82.81025713 39.08438696 -77.3125 37.1875 C-70.25195825 36.27986683 -64.09251911 36.83934926 -58.3125 41.1875 C-51.80976862 47.40750393 -51.99880576 55.65477315 -51.3125 64.1875 C-47.0225 64.1875 -42.7325 64.1875 -38.3125 64.1875 C-38.29832031 63.2696875 -38.28414063 62.351875 -38.26953125 61.40625 C-37.9765071 53.86681794 -37.65470022 47.8431093 -32.3125 42.1875 C-25.85187741 37.14821438 -20.30280241 36.43328541 -12.3125 37.1875 C-7.23766036 38.52657533 -4.24085751 40.81114779 -1.375 45.1875 C1.7478874 50.60756219 2.56860962 56.008292 1.26171875 62.20703125 C-0.47373859 67.77540052 -3.46762001 71.0168766 -8.3125 74.1875 C-13.96292615 76.8842943 -18.68365132 76.58487739 -25.3125 77.1875 C-25.3125 92.3675 -25.3125 107.5475 -25.3125 123.1875 C-22.0125 123.1875 -18.7125 123.1875 -15.3125 123.1875 C-14.31283203 121.31771484 -14.31283203 121.31771484 -13.29296875 119.41015625 C-8.63102372 110.77164552 -3.87740922 102.30077547 1.5625 94.125 C12.01475974 78.32808337 16.48358386 62.37531914 13 43.453125 C8.23431507 26.85265583 -1.67203191 14.26701681 -16.3125 5.1875 C-43.19789118 -9.40636565 -71.54334774 -1.17631977 -91.4453125 20.51171875 Z M-168.47358608 42.40866947 C-170.66496322 45.72011632 -170.81704873 47.50156309 -170.8271637 51.44297791 C-170.83988815 52.70330338 -170.85261261 53.96362885 -170.86572266 55.262146 C-170.85954075 56.651247 -170.85293476 58.04034617 -170.84594727 59.42944336 C-170.8530077 60.89826829 -170.86175325 62.36708595 -170.87205505 63.83589172 C-170.89454575 67.81946189 -170.89161014 71.80263469 -170.88273358 75.78624415 C-170.8776211 79.11381141 -170.8849184 82.44130416 -170.89220566 85.76886374 C-170.9092038 93.61998264 -170.90563993 101.47090718 -170.88891602 109.32202148 C-170.87199479 117.41730439 -170.88782914 125.51204808 -170.9201389 133.60727209 C-170.9468435 140.56201442 -170.95410848 147.51658898 -170.94562382 154.47137743 C-170.94069707 158.62322587 -170.94289625 162.77474989 -170.96341133 166.92655754 C-170.98178236 170.83134526 -170.97579334 174.73535809 -170.95121193 178.64010429 C-170.9462084 180.07114781 -170.9496821 181.50225051 -170.96236038 182.93324661 C-171.33026986 191.50629724 -171.33026986 191.50629724 -167.89805603 199.02320862 C-164.09551783 202.20619926 -162.29015396 202.31034956 -157.39328003 202.2986145 C-156.13155472 202.2982872 -154.86982941 202.2979599 -153.56987 202.29762268 C-152.16360461 202.29236256 -150.75733935 202.28706654 -149.35107422 202.28173828 C-147.87609412 202.27985979 -146.40111325 202.2785145 -144.9261322 202.27766418 C-141.74440701 202.27537731 -138.56269755 202.27064964 -135.38097763 202.26446915 C-130.34625348 202.25607411 -125.31160579 202.2614932 -120.27688599 202.27047729 C-119.42740005 202.2719483 -118.57791412 202.27341931 -117.70268619 202.27493489 C-115.96524166 202.2780058 -114.22779722 202.28112584 -112.49035287 202.28429389 C-100.76692008 202.30547954 -89.04373538 202.31921688 -77.3203125 202.28710938 C-69.41600068 202.26556167 -61.51212671 202.26875514 -53.60784352 202.30051792 C-49.4255353 202.31635453 -45.24406402 202.31963868 -41.06179428 202.29275894 C-37.12317218 202.267669 -33.18594924 202.27534143 -29.24739265 202.30763817 C-27.80589955 202.31371117 -26.36429778 202.30794625 -24.92291451 202.28914452 C-12.70024405 202.14078759 -12.70024405 202.14078759 -7.68812561 206.45127869 C-6.53423231 207.67015659 -5.40531205 208.91357106 -4.3125 210.1875 C-3.47106949 210.99146713 -2.62963898 211.79543427 -1.76271057 212.62376404 C-1.03736618 213.35434525 -0.31202179 214.08492645 0.43530273 214.83764648 C1.27234238 215.67798935 2.10938202 216.51833221 2.9717865 217.38414001 C3.84605789 218.26670975 4.72032928 219.14927948 5.62109375 220.05859375 C7.02406558 221.46734922 8.42704007 222.87610204 9.83017826 224.28469181 C12.26395003 226.72931098 14.69435224 229.17727532 17.125 231.625 C20.05511222 234.57550938 22.98583339 237.5253962 25.92042542 240.47145081 C27.74122588 242.29981251 29.55975537 244.13043901 31.37583923 245.96348572 C32.59830101 247.19090233 32.59830101 247.19090233 33.84545898 248.44311523 C34.56523422 249.16812729 35.28500946 249.89313934 36.02659607 250.64012146 C37.43110863 252.30110985 37.43110863 252.30110985 38.6875 252.1875 C38.69114563 251.63261902 38.69479126 251.07773804 38.69854736 250.50604248 C38.7403584 244.73065306 38.80969341 238.9560594 38.89501953 233.18115234 C38.92324499 231.02595987 38.94445165 228.87066357 38.95849609 226.71533203 C38.97990347 223.6169717 39.0265432 220.51986173 39.078125 217.421875 C39.07935364 216.45820007 39.08058228 215.49452515 39.08184814 214.50164795 C39.22580115 207.92671596 39.22580115 207.92671596 41.31787109 204.57714844 C44.43997213 202.74621921 46.59811246 202.70464724 50.2109375 202.71875 C51.479375 202.70457031 52.7478125 202.69039062 54.0546875 202.67578125 C55.39062971 202.67741603 56.72657098 202.68134215 58.0625 202.6875 C60.67448864 202.69518232 63.28660009 202.68538815 65.8984375 202.65625 C67.05649902 202.66076172 68.21456055 202.66527344 69.40771484 202.66992188 C73.43681707 202.07728335 75.55836102 200.76051104 78.6875 198.1875 C80.8725982 194.85123212 80.94072171 192.05830807 80.94819641 188.12147522 C80.95528122 186.87790756 80.96236603 185.6343399 80.96966553 184.35308838 C80.96737178 182.97766077 80.96486209 181.60223351 80.9621582 180.22680664 C80.96650609 178.77621702 80.97168949 177.32562969 80.97764587 175.87504578 C80.99103883 171.93703011 80.99161423 167.9991104 80.98908257 164.0610764 C80.98801308 160.77324985 80.99289567 157.48544273 80.997688 154.19762033 C81.00878417 146.44105828 81.00921995 138.68454466 81.00317383 130.92797852 C80.99713275 122.9265535 81.00944815 114.92530427 81.0307439 106.92390925 C81.04835753 100.05330759 81.05436164 93.1827619 81.05110615 86.3121385 C81.04929279 82.20900566 81.05193469 78.10599822 81.06582069 74.00288582 C81.07839063 70.14425726 81.07646301 66.28590283 81.06340981 62.42727852 C81.06104265 61.01193652 81.06378374 59.59657528 81.07203293 58.18125534 C81.0824892 56.24769825 81.0726033 54.31406316 81.0617218 52.38050842 C81.06188954 51.29890977 81.06205729 50.21731112 81.06223011 49.10293674 C80.52210992 44.90074908 78.86795713 42.25371934 75.75 39.4375 C72.29057111 37.34087643 69.09492567 37.06276004 65.10253906 37.07397461 C63.75159149 37.07408791 63.75159149 37.07408791 62.37335205 37.07420349 C60.92783966 37.08194542 60.92783966 37.08194542 59.453125 37.08984375 C58.45996277 37.0912587 57.46680054 37.09267365 56.44354248 37.09413147 C53.27483088 37.09972412 50.10619021 37.1122753 46.9375 37.125 C44.78776144 37.13001595 42.63802177 37.13457869 40.48828125 37.13867188 C35.22133001 37.14969114 29.95442007 37.166422 24.6875 37.1875 C24.75692307 37.77727631 24.82634613 38.36705261 24.89787292 38.97470093 C27.91301569 65.20485211 22.8564848 84.50418947 8.6875 106.75 C8.16889404 107.57113281 7.65028809 108.39226562 7.1159668 109.23828125 C4.92980754 112.69459384 2.73985224 116.12985934 0.39453125 119.48046875 C-5.24895832 128.28896691 -5.12646567 136.86588738 -5.14453125 147.02734375 C-5.21257734 151.11815786 -5.30941239 154.51995563 -7.3125 158.1875 C-8.83617187 158.87199219 -8.83617187 158.87199219 -10.390625 159.5703125 C-11.35484375 160.10398437 -12.3190625 160.63765625 -13.3125 161.1875 C-13.89630042 164.06302761 -14.10906632 166.19091006 -14.0625 169.0625 C-14.11361196 178.41598951 -14.11361196 178.41598951 -16.3125 182.1875 C-19.35277022 184.10745082 -21.73235552 184.44324296 -25.29296875 184.4621582 C-26.77470581 184.47645622 -26.77470581 184.47645622 -28.28637695 184.49104309 C-29.34687256 184.49013168 -30.40736816 184.48922028 -31.5 184.48828125 C-33.14198364 184.49470894 -33.14198364 184.49470894 -34.81713867 184.50126648 C-37.13036406 184.50700667 -39.4436075 184.50751234 -41.75683594 184.50317383 C-45.29914035 184.50001192 -48.84061123 184.52348451 -52.3828125 184.54882812 C-54.63020728 184.55110091 -56.87760431 184.55180471 -59.125 184.55078125 C-60.71574341 184.56459587 -60.71574341 184.56459587 -62.33862305 184.57868958 C-63.32644775 184.57246078 -64.31427246 184.56623199 -65.33203125 184.55981445 C-66.19932861 184.56044388 -67.06662598 184.5610733 -67.96020508 184.5617218 C-70.84871311 184.10219495 -72.20471365 183.1905839 -74.3125 181.1875 C-75.17669223 178.59492331 -75.48830932 176.84712293 -75.62890625 174.17578125 C-75.67080078 173.41845703 -75.71269531 172.66113281 -75.75585938 171.88085938 C-75.79517578 171.09517578 -75.83449219 170.30949219 -75.875 169.5 C-75.93977539 168.30407227 -75.93977539 168.30407227 -76.00585938 167.08398438 C-76.11177368 165.11868553 -76.21262551 163.15311504 -76.3125 161.1875 C-77.26125 160.775 -78.21 160.3625 -79.1875 159.9375 C-82.49569558 158.08491048 -83.06260628 157.59036584 -84.3125 154.1875 C-84.47265625 151.83178711 -84.47265625 151.83178711 -84.375 149.21484375 C-84.15924626 133.89505892 -86.95205686 123.93507869 -95.3125 111.1875 C-95.79170898 110.44387207 -96.27091797 109.70024414 -96.76464844 108.93408203 C-98.65063278 106.00959652 -100.54598303 103.09194008 -102.46826172 100.19116211 C-113.90106004 82.82028738 -118.36455647 64.38272486 -115.30078125 43.8203125 C-115.11684814 42.5739502 -114.93291504 41.32758789 -114.7434082 40.04345703 C-114.6012085 39.10099121 -114.45900879 38.15852539 -114.3125 37.1875 C-120.59293803 37.11118154 -126.87325562 37.05878779 -133.15405273 37.02270508 C-135.28886382 37.00765638 -137.42364419 36.98721264 -139.55834961 36.96118164 C-142.63402914 36.92462614 -145.70929844 36.9077341 -148.78515625 36.89453125 C-149.73334732 36.87904739 -150.68153839 36.86356354 -151.65846252 36.84761047 C-158.39112948 36.84591615 -163.55249573 37.35076098 -168.47358608 42.40866947 Z M-79.3125 54.1875 C-79.56661568 57.82575863 -79.56661568 57.82575863 -78.3125 61.1875 C-76.10188567 63.34843761 -74.82648017 64.12909316 -71.734375 64.48046875 C-70.85265625 64.44566406 -69.9709375 64.41085938 -69.0625 64.375 C-67.72445312 64.33439453 -67.72445312 64.33439453 -66.359375 64.29296875 C-65.68390625 64.25816406 -65.0084375 64.22335938 -64.3125 64.1875 C-63.65446733 57.22426867 -63.65446733 57.22426867 -66.5 51.0625 C-69.12331078 49.08589838 -69.12331078 49.08589838 -71.8125 48.5625 C-75.57249106 49.50249776 -77.0598603 51.07355689 -79.3125 54.1875 Z M-23.6875 50.5 C-26.28655576 54.79843838 -25.61655549 59.28882815 -25.3125 64.1875 C-23.89626784 64.24197047 -22.47941809 64.28050508 -21.0625 64.3125 C-19.87914062 64.34730469 -19.87914062 64.34730469 -18.671875 64.3828125 C-16.06939593 64.16737549 -14.52337351 63.55175893 -12.3125 62.1875 C-10.40548225 59.64480966 -10.30662241 58.33150107 -10.4375 55.125 C-11.09078665 52.16427559 -11.09078665 52.16427559 -13 50.3125 C-16.92598523 48.40256124 -19.85618262 48.38269303 -23.6875 50.5 Z M-51.3125 77.1875 C-51.3125 92.3675 -51.3125 107.5475 -51.3125 123.1875 C-47.0225 123.1875 -42.7325 123.1875 -38.3125 123.1875 C-38.3125 108.0075 -38.3125 92.8275 -38.3125 77.1875 C-42.6025 77.1875 -46.8925 77.1875 -51.3125 77.1875 Z M-72.3125 136.1875 C-72.3125 140.1475 -72.3125 144.1075 -72.3125 148.1875 C-54.1625 148.1875 -36.0125 148.1875 -17.3125 148.1875 C-17.3125 144.2275 -17.3125 140.2675 -17.3125 136.1875 C-35.4625 136.1875 -53.6125 136.1875 -72.3125 136.1875 Z M-63.3125 161.1875 C-63.3125 164.8175 -63.3125 168.4475 -63.3125 172.1875 C-51.1025 172.1875 -38.8925 172.1875 -26.3125 172.1875 C-26.3125 168.5575 -26.3125 164.9275 -26.3125 161.1875 C-38.5225 161.1875 -50.7325 161.1875 -63.3125 161.1875 Z " fill="#ff4200" transform="translate(187.3125,57.8125)"/>
<path d="M0 0 C1.51803756 1.31276036 3.01935951 2.64520056 4.5 4 C5.18191406 4.59039062 5.86382812 5.18078125 6.56640625 5.7890625 C21.46764776 19.49470538 29.33153732 39.97044511 30.42529297 59.86401367 C31.16257456 81.29348452 23.62313212 101.00643388 9.5 117 C7.22491736 119.39980362 4.89193346 121.71773387 2.5 124 C6.90525989 125.48389738 11.31239521 126.95207002 15.75390625 128.32421875 C26.23201364 131.60825792 35.87403141 135.72248438 45.5 141 C46.44617188 141.515625 47.39234375 142.03125 48.3671875 142.5625 C54.57318929 146.11983436 60.01463986 150.42886655 65.5 155 C66.09296875 155.44601562 66.6859375 155.89203125 67.296875 156.3515625 C82.68012696 168.29189616 92.11818147 188.01518407 94.78379822 207.02377319 C95.6309677 214.68417857 95.66386138 222.32005861 95.66796875 230.01953125 C95.6711894 231.45057711 95.67455406 232.88162265 95.67805481 234.31266785 C95.68400172 237.29203048 95.68589896 240.27136428 95.68530273 243.25073242 C95.68520054 247.06143817 95.69893089 250.87195998 95.71607494 254.68262196 C95.72719952 257.62947945 95.72922192 260.57629222 95.72869301 263.52316856 C95.72986941 264.92854136 95.73427207 266.33391545 95.74202538 267.73926735 C95.7518483 269.70090952 95.74767702 271.66260658 95.74291992 273.62426758 C95.74434494 274.73772049 95.74576996 275.8511734 95.74723816 276.99836731 C95.4749895 280.30364384 94.93222986 283.56777014 92.5 286 C90.95238789 286.11036207 89.39977914 286.15128843 87.84829712 286.16494751 C86.33055207 286.18180414 86.33055207 286.18180414 84.7821455 286.19900131 C83.65730409 286.20632404 82.53246267 286.21364677 81.37353516 286.22119141 C80.18939939 286.23266331 79.00526361 286.24413521 77.78524494 286.25595474 C74.48551715 286.28656051 71.18581608 286.31250403 67.88603473 286.33610296 C65.06258692 286.35691831 62.23917056 286.3810251 59.41574806 286.40499556 C50.12739087 286.48344293 40.83895696 286.54778581 31.55047178 286.6089077 C29.13552443 286.62493017 26.72058064 286.64141244 24.30563736 286.65803528 C-24.7581204 286.99458937 -73.81885523 287.08154777 -122.88305712 286.78909767 C-128.2803991 286.75737032 -133.67774343 286.73290444 -139.07513428 286.71124268 C-145.64367099 286.6844525 -152.21202357 286.64623334 -158.78040105 286.59297192 C-162.12850629 286.56591122 -165.47635374 286.54469353 -168.82456779 286.53277969 C-172.44492557 286.51863632 -176.06463752 286.48602369 -179.68481445 286.44824219 C-180.74786993 286.44810938 -181.81092541 286.44797657 -182.90619469 286.44783974 C-184.35409858 286.42686006 -184.35409858 286.42686006 -185.83125305 286.40545654 C-186.66649159 286.39954876 -187.50173014 286.39364098 -188.36227894 286.38755417 C-191.0178048 285.90612554 -191.91006948 285.154223 -193.5 283 C-193.88095093 279.88615417 -193.88095093 279.88615417 -193.88818359 275.99682617 C-193.89344055 275.2873584 -193.89869751 274.57789063 -193.90411377 273.84692383 C-193.91733955 271.49538268 -193.90855671 269.14451716 -193.8984375 266.79296875 C-193.90045997 265.14927542 -193.90337285 263.50558297 -193.90713501 261.8618927 C-193.91156387 258.40759789 -193.90511851 254.9535354 -193.89111328 251.49926758 C-193.87416855 247.10957255 -193.88376429 242.72043381 -193.90183067 238.33076 C-193.91278047 234.92883785 -193.909169 231.52704278 -193.9014473 228.12511635 C-193.89946828 226.50948328 -193.90182215 224.89383806 -193.90888596 223.27821922 C-193.99037407 199.36466201 -187.18300689 178.17252593 -170.23828125 160.7421875 C-169.33464844 159.83726562 -168.43101562 158.93234375 -167.5 158 C-166.43845703 156.92105469 -166.43845703 156.92105469 -165.35546875 155.8203125 C-149.75817125 140.96858372 -128.82809609 132.55687123 -108.50244141 126.59863281 C-105.81361747 125.79480493 -103.1557488 124.90642782 -100.5 124 C-100.96148437 123.65710938 -101.42296875 123.31421875 -101.8984375 122.9609375 C-116.96138858 110.87485423 -125.95535496 91.89342642 -128.5 73 C-129.90358673 49.3725042 -124.68470029 27.57570482 -108.8125 9.3125 C-80.17832383 -20.70371786 -33.16149901 -25.75847324 0 0 Z M-99.75 19.375 C-112.44957195 34.39984569 -116.98453228 52.58377404 -115.5 72 C-112.89324383 90.31087264 -102.95240705 105.67867579 -88.515625 116.9296875 C-72.54761274 127.89218296 -54.42792999 131.79981871 -35.3359375 128.34375 C-17.53194225 124.06784224 -3.54369809 113.90226805 6.75 98.890625 C11.43660684 91.14935477 15.31707543 83.02915842 16.5 74 C16.63277344 73.02675781 16.76554688 72.05351562 16.90234375 71.05078125 C18.76674873 53.68458205 14.29677245 36.14693059 3.39453125 22.33203125 C1.17080929 19.80211694 -1.12471488 17.38759229 -3.5 15 C-4.09167969 14.37351563 -4.68335938 13.74703125 -5.29296875 13.1015625 C-17.70076785 0.99505654 -34.93968306 -3.50089724 -51.73339844 -3.34985352 C-70.77518106 -2.84508652 -86.81893155 5.51679835 -99.75 19.375 Z M-165.5 175 C-174.90457038 187.03905099 -180.6445342 201.02196612 -180.61352539 216.46435547 C-180.61344986 217.72520966 -180.61337433 218.98606384 -180.61329651 220.28512573 C-180.60819109 221.6458134 -180.60297511 223.00650065 -180.59765625 224.3671875 C-180.59578912 225.77108713 -180.59436661 227.17498742 -180.59336853 228.57888794 C-180.58956658 232.25807522 -180.57975633 235.93722248 -180.56866455 239.61639404 C-180.55840031 243.37706969 -180.5538602 247.13775186 -180.54882812 250.8984375 C-180.53813179 258.26564317 -180.52108352 265.63281596 -180.5 273 C-160.45851225 273.20822597 -140.41685341 273.39355209 -120.375 273.5625 C-119.62072094 273.56888284 -118.86644188 273.57526568 -118.08930588 273.58184195 C-69.72115514 273.98966342 -21.36785839 274.00963464 27 273.5625 C27.69499257 273.55610205 28.38998514 273.5497041 29.10603809 273.54311228 C46.57090829 273.38194899 64.03555026 273.2017789 81.5 273 C81.56991506 264.60194928 81.62301976 256.20402284 81.65543652 247.8057518 C81.67100523 243.90490085 81.69207974 240.00425093 81.72631836 236.10351562 C81.75922949 232.32983715 81.77691889 228.55635043 81.78463173 224.78253937 C81.79011891 223.35222613 81.80083163 221.92192181 81.81719017 220.49169159 C82.01703762 202.27257687 77.30846533 187.98514097 65.5 174 C65.06429687 173.41992188 64.62859375 172.83984375 64.1796875 172.2421875 C47.2413473 150.43534233 13.75158743 138.97464979 -12.5 135 C-18.37978126 135.22187854 -23.84865756 137.26464947 -29.4140625 139.0625 C-44.98753867 143.79368263 -64.22589957 142.31267033 -79.1171875 135.8671875 C-104.25213842 126.71971356 -150.28547807 157.24141047 -165.5 175 Z " fill="#ff4200" transform="translate(413.5,222)"/>
<path d="M0 0 C2.70500409 1.95472723 4.98504711 4.24125751 7.3125 6.625 C8.26092773 7.53185547 8.26092773 7.53185547 9.22851562 8.45703125 C12.3406394 11.58583307 13.85548009 13.45805035 15.015625 17.80859375 C15 21 15 21 13.4375 23.4375 C10.15378489 25.54244559 8.87563386 25.66016011 5 25 C1.87494006 22.78175691 -0.71460515 20.12198998 -3.375 17.375 C-4.11105469 16.66214844 -4.84710938 15.94929688 -5.60546875 15.21484375 C-10.83233173 9.92979677 -10.83233173 9.92979677 -11.6015625 5.6640625 C-11 3 -11 3 -9 0 C-5.28703055 -1.23765648 -3.75938244 -1.12287409 0 0 Z " fill="#ff4200" transform="translate(70,36)"/>
<path d="M0 0 C1.9375 1.6875 1.9375 1.6875 3 4 C3 8.33619494 1.79066946 10.55235329 -1.08984375 13.61328125 C-2.35973616 14.85938796 -3.6427828 16.09220658 -4.9375 17.3125 C-5.58396484 17.94478516 -6.23042969 18.57707031 -6.89648438 19.22851562 C-12.74314084 24.89303326 -12.74314084 24.89303326 -16.9375 25.25 C-20 25 -20 25 -21.875 23.9375 C-23.73707112 20.73059975 -23.50277864 18.66362968 -23 15 C-20.89107626 12.00096551 -18.31130811 9.60542318 -15.625 7.125 C-14.92632812 6.44953125 -14.22765625 5.7740625 -13.5078125 5.078125 C-6.42535831 -1.7046869 -6.42535831 -1.7046869 0 0 Z " fill="#ff4200" transform="translate(223,36)"/>
<path d="M0 0 C2.96386596 4.44579894 2.40719581 8.64247581 2.4375 13.875 C2.47037109 14.86886719 2.50324219 15.86273437 2.53710938 16.88671875 C2.57273018 21.72467176 2.58569976 24.1961369 -0.328125 28.1953125 C-3 30 -3 30 -6.1875 30 C-9 29 -9 29 -11 26 C-11.25878906 23.50390625 -11.25878906 23.50390625 -11.265625 20.5625 C-11.26820313 19.50289062 -11.27078125 18.44328125 -11.2734375 17.3515625 C-11.26570312 16.24554687 -11.25796875 15.13953125 -11.25 14 C-11.25773438 12.89398438 -11.26546875 11.78796875 -11.2734375 10.6484375 C-11.27085937 9.58882812 -11.26828125 8.52921875 -11.265625 7.4375 C-11.26336914 6.46683594 -11.26111328 5.49617187 -11.25878906 4.49609375 C-11 2 -11 2 -9 -1 C-5.18652885 -2.27115705 -3.64026964 -1.54905091 0 0 Z " fill="#ff4200" transform="translate(147,5)"/>
</svg>
