<?xml version="1.0" standalone="no"?>
<!DOCTYPE svg PUBLIC "-//W3C//DTD SVG 20010904//EN"
 "http://www.w3.org/TR/2001/REC-SVG-20010904/DTD/svg10.dtd">
<svg version="1.0" xmlns="http://www.w3.org/2000/svg"
 width="512.000000pt" height="512.000000pt" viewBox="0 0 512.000000 512.000000"
 preserveAspectRatio="xMidYMid meet">

<g transform="translate(0.000000,512.000000) scale(0.100000,-0.100000)"
fill="#ff4200" stroke="none">
<path d="M2405 4625 c-247 -41 -461 -136 -658 -295 -253 -203 -432 -519 -482
-850 -8 -52 -15 -132 -15 -176 l0 -82 -63 -64 c-35 -35 -69 -78 -76 -96 -9
-21 -20 -32 -34 -32 -71 0 -158 -86 -172 -170 -15 -91 54 -197 146 -221 38
-10 49 -20 74 -62 36 -59 100 -118 163 -148 59 -29 219 -48 256 -31 l26 12 0
419 c0 362 -2 420 -15 431 -16 13 -154 9 -219 -6 l-29 -7 7 99 c4 54 16 143
27 196 80 398 352 741 724 913 174 81 346 118 545 118 204 -1 351 -33 548
-120 104 -46 132 -49 132 -13 0 38 -248 141 -422 175 -117 23 -351 28 -463 10z
m-895 -1796 l0 -372 -78 5 c-129 7 -221 72 -281 198 -23 49 -26 67 -26 170 0
104 3 121 26 171 43 91 122 166 197 189 15 5 57 9 95 9 l67 1 0 -371z"/>
<path d="M3407 4343 c-15 -15 -4 -34 45 -80 148 -138 231 -244 307 -393 86
-169 129 -325 138 -504 l6 -119 -29 7 c-52 11 -171 19 -198 12 l-26 -6 0 -425
c0 -261 4 -426 10 -430 5 -3 54 -6 109 -6 l100 0 -14 -46 c-31 -104 -122 -196
-230 -234 -50 -17 -86 -19 -419 -19 l-365 0 -16 31 c-11 20 -34 39 -68 55 -49
22 -63 24 -222 24 -191 0 -228 -10 -278 -69 -52 -62 -27 -150 55 -193 38 -20
60 -23 200 -26 190 -4 248 8 297 63 17 20 31 40 31 45 0 5 162 10 393 12 l392
3 68 33 c120 59 218 186 233 303 5 41 12 52 43 72 49 33 89 74 122 126 23 35
39 47 79 61 61 21 96 51 121 105 36 77 17 177 -43 231 -30 28 -82 54 -107 54
-14 0 -27 14 -42 42 -12 23 -45 65 -74 93 l-52 50 -7 115 c-21 334 -132 614
-338 847 -114 129 -196 191 -221 166z m501 -1174 c71 -35 118 -87 159 -175 25
-53 28 -70 28 -164 0 -99 -2 -110 -33 -172 -62 -127 -148 -188 -274 -196 l-78
-5 0 372 0 371 68 0 c57 0 80 -5 130 -31z"/>
<path d="M2302 4149 c-175 -75 -185 -86 -154 -162 12 -29 22 -55 22 -59 0 -4
-25 -32 -56 -63 l-57 -57 -50 21 c-61 26 -89 26 -110 3 -8 -9 -41 -81 -72
-159 -65 -165 -64 -171 19 -208 l53 -23 -2 -88 -2 -88 -54 -26 c-83 -39 -84
-51 -12 -222 73 -174 82 -183 165 -149 l55 22 64 -64 65 -63 -17 -40 c-25 -57
-24 -100 4 -118 33 -21 274 -116 296 -116 24 0 45 25 70 83 l20 47 89 0 90 0
28 -57 c39 -79 53 -79 224 -6 168 72 176 83 138 171 l-26 60 54 53 54 53 47
-17 c61 -22 86 -22 106 1 8 9 40 79 71 154 67 164 66 175 -19 212 l-55 25 0
70 c0 38 -3 76 -6 85 -4 11 9 23 52 43 96 46 97 52 23 227 -75 178 -79 181
-173 144 l-63 -25 -56 54 -56 54 20 45 c26 61 25 100 -3 118 -36 23 -273 116
-295 116 -26 0 -47 -24 -72 -82 l-20 -48 -76 0 -76 0 -24 54 c-20 46 -56 86
-75 86 -3 0 -69 -28 -148 -61z m93 -307 c0 -18 -15 -31 -70 -60 -50 -28 -81
-53 -109 -90 -41 -54 -55 -62 -76 -37 -10 12 -7 23 14 59 31 53 82 97 151 131
61 30 90 29 90 -3z m340 -84 c257 -65 389 -361 269 -603 -29 -58 -111 -146
-169 -179 -165 -97 -386 -65 -520 75 -165 172 -162 428 7 597 109 110 257 149
413 110z"/>
<path d="M2969 1939 c-61 -14 -140 -53 -225 -111 l-81 -55 -64 9 c-70 10 -217
3 -319 -15 -64 -12 -66 -12 -205 35 -247 83 -408 105 -544 73 -76 -18 -187
-72 -259 -126 -29 -22 -86 -58 -126 -80 l-74 -40 -4 105 c-3 103 -4 106 -34
137 -55 55 -158 50 -204 -9 -19 -24 -20 -44 -20 -667 0 -623 1 -643 20 -667
46 -59 149 -64 204 -9 31 31 31 33 34 145 3 76 8 116 15 119 7 2 135 28 285
58 l273 54 256 -38 c261 -38 283 -38 283 -1 0 8 -10 19 -22 24 -36 14 -446 70
-514 70 -33 0 -172 -23 -309 -50 -137 -28 -252 -50 -257 -50 -4 0 -8 160 -8
355 l0 355 73 36 c39 20 106 60 147 89 246 171 403 181 790 48 132 -45 136
-46 190 -33 93 21 334 25 413 6 73 -17 159 -57 224 -105 49 -35 136 -142 125
-153 -4 -4 -155 -14 -337 -23 -270 -13 -332 -19 -342 -32 -6 -8 -9 -21 -6 -29
7 -18 75 -18 432 1 259 13 275 15 297 36 13 12 24 32 24 43 0 16 32 42 124
103 374 248 649 344 755 266 35 -27 52 -62 40 -84 -11 -22 -1041 -790 -1097
-818 -92 -47 -144 -55 -372 -55 l-215 -1 0 -25 c0 -36 47 -42 265 -37 197 5
260 16 352 62 44 22 1019 742 1095 808 75 66 41 175 -69 221 -51 22 -159 20
-243 -3 l-70 -20 -30 28 c-47 44 -75 55 -145 54 -47 0 -84 -8 -133 -27 -50
-21 -71 -25 -81 -17 -50 42 -212 63 -307 40z m224 -70 c33 -15 34 -23 5 -36
-13 -6 -74 -47 -137 -92 l-114 -82 -98 50 -98 49 37 24 c56 38 120 69 182 90
62 20 175 19 223 -3z m375 -9 c17 -11 32 -22 32 -24 0 -2 -33 -19 -73 -39 -86
-40 -305 -170 -394 -233 l-61 -44 -36 42 c-20 23 -36 45 -36 50 0 11 202 152
280 196 129 73 225 90 288 52z"/>
</g>
</svg>
