<?xml version="1.0" encoding="UTF-8"?>
<svg version="1.1" xmlns="http://www.w3.org/2000/svg" width="512" height="512">
<path d="M0 0 C5.94 0 11.88 0 18 0 C18 28.05 18 56.1 18 85 C20.97 85.99 23.94 86.98 27 88 C29.31 89.32 31.62 90.64 34 92 C34 72.86 34 53.72 34 34 C39.94 34 45.88 34 52 34 C51.95697754 36.07748535 51.91395508 38.1549707 51.86962891 40.29541016 C51.7368228 47.21230723 51.68270074 54.12828036 51.66578102 61.046381 C51.65317883 65.23560888 51.61530741 69.42122098 51.51660156 73.609375 C51.42204462 77.66311065 51.39789508 81.71207591 51.41953659 85.76679611 C51.41593775 87.30174398 51.38830985 88.83685715 51.33458328 90.37086868 C51.31042721 91.10277798 51.28627113 91.83468727 51.26138306 92.58877563 C51.23304193 93.22432688 51.20470081 93.85987812 51.17550087 94.51468849 C52.00122775 108.2149647 55.40250571 107.40250571 67 119 C67.33 102.17 67.66 85.34 68 68 C73.94 68 79.88 68 86 68 C86.00410889 70.4963501 86.00821777 72.9927002 86.01245117 75.56469727 C86.02974593 83.86685812 86.07440856 92.16871542 86.13209057 100.47068882 C86.16619783 105.49801514 86.19144505 110.52504281 86.19555664 115.55249023 C86.19987474 120.41574455 86.22862478 125.27832703 86.27343178 130.14137077 C86.28629556 131.98500575 86.29075453 133.82872159 86.28615379 135.67239571 C86.26343754 147.55358968 87.68017456 156.90817154 92 168 C92.77405524 170.86211148 93.35849483 173.69644905 93.8125 176.625 C93.93012695 177.35299805 94.04775391 178.08099609 94.16894531 178.83105469 C95.76590841 189.87943205 96.22497345 202.01867944 94 213 C96.97 213 99.94 213 103 213 C103 218.94 103 224.88 103 231 C98.71 231 94.42 231 90 231 C89.62875 232.36125 89.2575 233.7225 88.875 235.125 C87.52004562 239.68301771 85.78567009 244.01561237 83.8828125 248.3671875 C83.4662439 249.32902954 83.4662439 249.32902954 83.04125977 250.31030273 C82.36333993 251.87462098 81.68202242 253.43746607 81 255 C81.41653052 255.41560873 81.83306105 255.83121746 82.26221371 256.25942039 C92.38815538 266.36329621 102.51134239 276.46992563 112.63145351 286.57964134 C117.52548923 291.46851655 122.42045971 296.35644897 127.31762695 301.2421875 C132.04014692 305.95369157 136.76006518 310.66778727 141.4783802 315.38350296 C143.2825054 317.18577482 145.08751313 318.98716367 146.89340019 320.78767014 C149.41489043 323.30194334 151.93327649 325.81928584 154.45092773 328.33740234 C155.20474228 329.08762161 155.95855682 329.83784088 156.73521423 330.61079407 C157.41813538 331.29508987 158.10105652 331.97938568 158.80467224 332.68441772 C159.69927233 333.57763513 159.69927233 333.57763513 160.61194515 334.48889732 C163.13591099 337.23660686 163.66840905 339.97525704 163.5625 343.6953125 C162.45317082 348.24048067 158.97837464 351.11093643 155.72265625 354.30371094 C153.62465094 356.36960392 151.5635322 358.46999262 149.5 360.5703125 C146.3147612 363.79660977 143.12536536 367.01837691 139.9140625 370.21875 C139.2329541 370.89873047 138.5518457 371.57871094 137.85009766 372.27929688 C134.05631928 375.80774105 131.44483159 376.65478593 126.41484261 376.51831055 C121.68800271 375.50376369 118.87749031 372.04583623 115.63452148 368.65625 C114.46212166 367.48582153 114.46212166 367.48582153 113.26603699 366.29174805 C110.69580406 363.71526028 108.15889238 361.1084078 105.62109375 358.5 C103.84230932 356.7044243 102.06152323 354.91082951 100.27882385 353.11914062 C96.07604513 348.88554616 91.89392985 344.63255131 87.72122103 340.3693924 C82.96755741 335.51495726 78.18815859 330.68620556 73.40647781 325.85939026 C63.57551496 315.93448023 53.77714159 305.9779139 44 296 C43.07131104 296.53979492 42.14262207 297.07958984 41.18579102 297.63574219 C39.93775606 298.35628141 38.6896225 299.07664988 37.44140625 299.796875 C36.8328479 300.15120605 36.22428955 300.50553711 35.59729004 300.87060547 C9.10992711 316.11639161 -23.56273505 321.58645087 -53.36328125 313.9296875 C-75.29643877 307.90032167 -93.43161887 297.5971312 -110 282 C-110.90492188 281.19175781 -110.90492188 281.19175781 -111.828125 280.3671875 C-124.72030584 268.37866419 -135.2906367 249.89442919 -140 233 C-140 232.34 -140 231.68 -140 231 C-178.28 231 -216.56 231 -256 231 C-256 225.06 -256 219.12 -256 213 C-219.04 213 -182.08 213 -144 213 C-144.33 211.02 -144.66 209.04 -145 207 C-145.70040799 196.90139024 -145.42720049 186.61844768 -143.8125 176.625 C-143.71163086 175.9743457 -143.61076172 175.32369141 -143.50683594 174.65332031 C-142.89445586 171.29100706 -142.08589295 168.2160678 -140.81933594 165.02998352 C-136.42651686 153.74864716 -136.26570949 143.18884417 -136.29296875 131.19140625 C-136.27982523 129.12774717 -136.26451297 127.06410088 -136.24714661 125.00047302 C-136.20759433 119.61983335 -136.1971255 114.23953249 -136.19311523 108.85876465 C-136.18372722 103.3477978 -136.14627873 97.8370254 -136.11132812 92.32617188 C-136.0470557 81.55074385 -136.01616674 70.77560767 -136 60 C-130.06 60 -124.12 60 -118 60 C-117.67 79.47 -117.34 98.94 -117 119 C-103.693731 107.67974774 -103.693731 107.67974774 -101.26138306 93.96096802 C-101.31176727 92.6770517 -101.36215149 91.39313538 -101.4140625 90.0703125 C-101.41774991 88.70026936 -101.4152144 87.330197 -101.40682983 85.96017456 C-101.40134638 82.40330734 -101.47864355 78.85321781 -101.57513428 75.29785156 C-101.65883487 71.65067755 -101.661633 68.00345766 -101.671875 64.35546875 C-101.70347499 57.23465109 -101.83030174 50.11906427 -102 43 C-96.06 43 -90.12 43 -84 43 C-84 59.17 -84 75.34 -84 92 C-79.38 89.69 -74.76 87.38 -70 85 C-69.34 85 -68.68 85 -68 85 C-68 73.78 -68 62.56 -68 51 C-62.06 51 -56.12 51 -50 51 C-50 60.24 -50 69.48 -50 79 C-44.72 78.34 -39.44 77.68 -34 77 C-34 57.2 -34 37.4 -34 17 C-28.06 17 -22.12 17 -16 17 C-16 36.8 -16 56.6 -16 77 C-10.72 77.66 -5.44 78.32 0 79 C0 52.93 0 26.86 0 0 Z M-91 119 C-91.70898438 119.54140625 -92.41796875 120.0828125 -93.1484375 120.640625 C-112.46477704 136.25138103 -123.96666093 161.78523394 -126.80371094 185.94897461 C-129.45687091 213.67185634 -121.11612449 240.34449245 -103.58984375 261.9375 C-85.87643996 283.13280002 -62.00831073 295.55667609 -34.5703125 298.68359375 C-7.59795546 301.07392298 19.02200649 292.75862058 39.94140625 275.6171875 C61.19786824 257.62733863 74.44944853 232.93011306 77 205 C78.79829888 177.07388784 70.18730268 151.26989636 52 130 C51.5565625 129.4121875 51.113125 128.824375 50.65625 128.21875 C36.94186184 110.49039458 12.18601363 98.75134138 -9.6015625 95.46875 C-40.07672488 91.75261011 -67.1135285 100.02539447 -91 119 Z M69 271 C67.05520875 272.9623119 65.20613649 274.93648578 63.375 277 C62.859375 277.57234375 62.34375 278.1446875 61.8125 278.734375 C60.53676727 280.15185582 59.26774803 281.57537345 58 283 C61.98534941 287.77636699 66.14481945 292.2858377 70.55615234 296.66967773 C71.18125702 297.29492844 71.80636169 297.92017914 72.45040894 298.56437683 C74.49322079 300.60649851 76.53953907 302.64506673 78.5859375 304.68359375 C80.01247683 306.10826572 81.43879384 307.53316032 82.86489868 308.95826721 C86.60103845 312.69060687 90.34017262 316.41993237 94.07995605 320.14862061 C97.90278697 323.96118329 101.72275387 327.77661322 105.54296875 331.59179688 C113.02585867 339.06399371 120.51191776 346.53300678 128 354 C131.63303084 352.30413874 133.94549046 350.26199512 136.75 347.375 C137.54921875 346.55773437 138.3484375 345.74046875 139.171875 344.8984375 C139.77515625 344.27195312 140.3784375 343.64546875 141 343 C139.71570434 340.18269406 138.37605464 338.12540182 136.19140625 335.93743896 C135.61938477 335.35977783 135.04736328 334.7821167 134.45800781 334.18695068 C133.51973145 333.25474701 133.51973145 333.25474701 132.5625 332.30371094 C131.5720166 331.30797058 131.5720166 331.30797058 130.56152344 330.29211426 C128.37935146 328.10114524 126.18995164 325.91756598 124 323.734375 C122.48277982 322.21580792 120.96585667 320.69694402 119.44921875 319.17779541 C116.27147303 315.99710144 113.09013812 312.82005286 109.90625 309.64550781 C105.81689153 305.56756302 101.73660186 301.4806806 97.65893555 297.39104843 C94.52968422 294.25458705 91.39570598 291.12288393 88.26025391 287.99262238 C86.75322453 286.48693085 85.24768957 284.97974209 83.74365234 283.47106171 C81.64638976 281.36874589 79.5428682 279.27290496 77.4375 277.17871094 C76.81198242 276.5491449 76.18646484 275.91957886 75.54199219 275.27093506 C72.78383617 272.08693947 72.78383617 272.08693947 69 271 Z " fill="#ff4200" transform="translate(345,136)"/>
<path d="M0 0 C1.4757889 -0.0039006 2.95157403 -0.0095471 4.4273504 -0.0167709 C8.45142989 -0.03143435 12.47511443 -0.02139914 16.49918079 -0.00703418 C20.85095898 0.00412377 25.20268394 -0.00788279 29.55445862 -0.01687622 C38.06666797 -0.03077727 46.57872851 -0.02327605 55.09093072 -0.00820064 C65.01048759 0.00869588 74.93000778 0.00544467 84.84957461 0.00170528 C102.55106273 -0.0041674 120.25247962 0.00997585 137.95394897 0.03465271 C155.11901519 0.05857899 172.28398627 0.06565337 189.44906616 0.05516052 C208.15723579 0.04374483 226.86536146 0.04182875 245.57353055 0.05625862 C247.56923699 0.05778441 249.56494343 0.05930476 251.56064987 0.06081963 C252.54249026 0.06157744 253.52433066 0.06233525 254.53592379 0.06311603 C261.44584738 0.06785325 268.3557513 0.06601146 275.26567459 0.06175423 C283.6881187 0.0568218 292.11047297 0.06283785 300.53289653 0.08264852 C304.82782705 0.09250281 309.12262092 0.09764576 313.41755867 0.08975601 C317.35293963 0.08267477 321.28804546 0.08956057 325.22339027 0.10735964 C326.64311412 0.1113883 328.06286324 0.11043098 329.48257752 0.10384078 C343.67774141 0.04361292 355.34067848 2.88093358 365.88363647 12.87620544 C376.44042687 24.20302055 378.226705 36.93360073 378.20484924 51.86088562 C378.2071148 52.99841648 378.20938036 54.13594734 378.21171457 55.30794883 C378.21804009 59.11619315 378.21722612 62.92440176 378.21640015 66.73265076 C378.21884957 69.46457046 378.22276704 72.19648766 378.22657776 74.92840576 C378.23487248 81.57733509 378.23763207 88.22625556 378.23819014 94.87518963 C378.23866588 100.2820618 378.24072356 105.68893106 378.24389076 111.09580231 C378.25269434 126.43789488 378.25731063 141.77998047 378.25656029 157.12207559 C378.25650035 158.36186157 378.25650035 158.36186157 378.25643921 159.62669373 C378.25639833 160.45423132 378.25635745 161.28176892 378.25631533 162.13438341 C378.255909 175.54132838 378.26547586 188.94824524 378.27957758 202.35518208 C378.29395533 216.13370001 378.30084698 229.91220424 378.2999838 243.69072986 C378.2996523 251.42132171 378.30237872 259.1518841 378.31316185 266.88246918 C378.3222853 273.46521066 378.324427 280.04790934 378.31765243 286.63065442 C378.31439642 289.98595592 378.31539264 293.34110861 378.32300568 296.69641304 C378.3307406 300.34221172 378.32607064 303.98779651 378.31837463 307.6335907 C378.3235182 308.68234918 378.32866176 309.73110766 378.33396119 310.8116467 C378.27944331 322.54141756 376.89963099 334.88701781 368.25863647 343.62620544 C367.53676147 344.24495544 366.81488647 344.86370544 366.07113647 345.50120544 C365.38406616 344.87472107 364.69699585 344.24823669 363.98910522 343.60276794 C362.63752319 342.37686951 362.63752319 342.37686951 361.25863647 341.12620544 C360.36531616 340.31409607 359.47199585 339.50198669 358.55160522 338.66526794 C356.07480973 336.41047638 356.07480973 336.41047638 353.07113647 334.50120544 C354.12358167 331.74865647 355.24771612 329.16923571 356.63363647 326.56370544 C359.65310375 320.13092734 359.21515518 313.36392832 359.20484924 306.400177 C359.2071148 305.27842365 359.20938036 304.15667029 359.21171457 303.00092441 C359.21804727 299.24018407 359.21722566 295.47947983 359.21640015 291.71873474 C359.21939209 289.02312587 359.22276639 286.32751983 359.22657776 283.63191223 C359.2348767 277.06840752 359.23763226 270.5049118 359.23819014 263.94140228 C359.23866566 258.60504582 359.24072221 253.26869233 359.24389076 247.93233681 C359.25269529 232.79555485 359.25731046 217.65877998 359.25656029 202.52199545 C359.25652033 201.70632859 359.25648038 200.89066174 359.25643921 200.05027771 C359.25639833 199.23361245 359.25635745 198.41694719 359.25631533 197.5755345 C359.25590892 184.34177089 359.2654777 171.10803574 359.27957758 157.87428036 C359.29394823 144.27886573 359.30084738 130.68346497 359.2999838 117.08804256 C359.29965207 109.45810387 359.30238873 101.82819501 359.31316185 94.19826317 C359.32227592 87.70181089 359.32443466 81.20540198 359.31765243 74.70894607 C359.31439179 71.39644358 359.31540515 68.08404134 359.32300568 64.7715435 C359.33072224 61.17534976 359.32608276 57.57937386 359.31837463 53.98318481 C359.32608998 52.42363108 359.32608998 52.42363108 359.33396119 50.83257121 C359.2870783 40.92185917 358.28887357 32.75053001 351.07113647 25.50120544 C345.62358601 21.35118118 341.13168711 19.37786803 334.22702503 19.36977768 C332.99983023 19.36593653 331.77263544 19.36209539 330.50825292 19.35813785 C329.13914345 19.35891813 327.77003403 19.35979693 326.40092468 19.36076355 C324.95210652 19.3581806 323.50328908 19.35516764 322.05447263 19.35176015 C318.06333803 19.34367846 314.07222141 19.34189993 310.0810796 19.34116268 C305.78032073 19.33931413 301.47957122 19.33176776 297.17881775 19.32502747 C287.7696687 19.31143487 278.3605239 19.30541786 268.95136666 19.30101681 C263.07755903 19.2982557 257.20375304 19.29401857 251.32994652 19.28951263 C235.07127772 19.27731829 218.81261024 19.26701961 202.55393696 19.26363754 C201.51295566 19.26341798 200.47197436 19.26319841 199.39944817 19.26297219 C197.83420759 19.26264477 197.83420759 19.26264477 196.23734599 19.26231074 C194.12277941 19.26186728 192.00821282 19.26142071 189.89364624 19.26097107 C188.84474483 19.26074964 187.79584342 19.26052821 186.71515711 19.26030007 C169.72023449 19.2563523 152.72535476 19.23889967 135.7304487 19.21561155 C118.28744197 19.19190211 100.84445676 19.17943586 83.40143365 19.17826962 C73.60568068 19.17735258 63.80998357 19.17159306 54.01424599 19.15345001 C45.67242392 19.13805447 37.33067496 19.1329253 28.98884139 19.14118811 C24.73268932 19.14509668 20.47668452 19.144155 16.22055054 19.13013077 C12.32255799 19.11740413 8.42482354 19.1185784 4.52683141 19.13072148 C3.11830647 19.13268064 1.70976332 19.12958988 0.30126397 19.12087712 C-8.47049969 19.07006128 -14.99742004 19.51940241 -22.61636353 24.12620544 C-27.69332721 29.34038436 -31.04770414 35.93633577 -31.0630846 43.24651432 C-31.06754245 44.22863803 -31.07200029 45.21076174 -31.07659322 46.22264677 C-31.07640886 47.30433447 -31.0762245 48.38602217 -31.07603455 49.50048828 C-31.07971123 50.64755766 -31.08338792 51.79462705 -31.08717602 52.97645611 C-31.09630383 56.16562219 -31.10091279 59.35475803 -31.10356534 62.54393494 C-31.10746856 65.98174154 -31.11704701 69.41953324 -31.1257782 72.85733032 C-31.14554398 81.16320479 -31.15560979 89.46908048 -31.16450599 97.77497259 C-31.16888944 101.68724183 -31.17425617 105.59950971 -31.17949486 109.51177788 C-31.19650864 122.51924261 -31.21100187 135.52670649 -31.2182436 148.53418064 C-31.22015347 151.90998905 -31.22207381 155.28579745 -31.22402954 158.66160583 C-31.22451328 159.50063959 -31.22499702 160.33967335 -31.22549542 161.20413237 C-31.23379215 174.78986681 -31.25912235 188.3755131 -31.29161022 201.96120907 C-31.32469996 215.9124872 -31.34269416 229.86372057 -31.34588784 243.81503814 C-31.34805136 251.64686449 -31.35677667 259.47856235 -31.38234901 267.31035042 C-31.40408236 273.98181384 -31.41209361 280.65311758 -31.40238223 287.32461239 C-31.39784484 290.72641957 -31.39969034 294.12789749 -31.41914368 297.52965927 C-31.43683913 301.22439548 -31.42976661 304.9183002 -31.41661072 308.61303711 C-31.42757996 309.67910976 -31.43854921 310.7451824 -31.44985086 311.84356028 C-31.38006011 319.97990712 -29.79332239 326.93998632 -24.61636353 333.37620544 C-19.24878006 337.6203412 -14.09926743 340.60710809 -7.12632751 340.65942383 C-6.1377475 340.66921265 -5.14916748 340.67900146 -4.13063049 340.68908691 C-2.50575462 340.69772011 -2.50575462 340.69772011 -0.84805298 340.70652771 C0.29355286 340.71642731 1.43515869 340.7263269 2.61135864 340.73652649 C6.39350291 340.76817245 10.17565974 340.79291126 13.95785522 340.81761169 C16.57673982 340.83817854 19.19562107 340.85917494 21.8144989 340.88058472 C28.00862634 340.93049671 34.2027795 340.97544107 40.39695722 341.01860708 C47.44891829 341.06799222 54.5008329 341.12290561 61.55274904 341.17828667 C76.05883441 341.29208378 90.56496681 341.39873168 105.07113647 341.50120544 C105.07113647 347.44120544 105.07113647 353.38120544 105.07113647 359.50120544 C89.78004463 359.59410886 74.4889858 359.66534047 59.19767475 359.70845413 C52.09639646 359.72901159 44.99529759 359.75700024 37.89413452 359.80296326 C31.69915788 359.84304151 25.50431128 359.8686877 19.30920857 359.87755942 C16.03393522 359.88273908 12.75911684 359.89692064 9.48394203 359.92412567 C5.81267366 359.95339299 2.14216195 359.9571516 -1.52920532 359.95530701 C-2.59520462 359.96968811 -3.66120392 359.98406921 -4.75950623 359.99888611 C-17.58589094 359.92968378 -28.37541885 356.07884522 -37.92886353 347.50120544 C-45.38250014 339.76271647 -50.04081346 329.18476498 -50.0630846 318.44009399 C-50.06754245 317.43842131 -50.07200029 316.43674862 -50.07659322 315.40472221 C-50.07640886 314.31145182 -50.0762245 313.21818142 -50.07603455 312.09178162 C-50.07971123 310.92470232 -50.08338792 309.75762302 -50.08717602 308.55517769 C-50.09628405 305.31931436 -50.10090843 302.08348084 -50.10356534 298.8476069 C-50.10747653 295.35592633 -50.11705434 291.86426034 -50.1257782 288.37258911 C-50.14552054 279.94146677 -50.15560639 271.51034327 -50.16450599 263.07920361 C-50.1688929 259.10506297 -50.1742587 255.13092365 -50.17949486 251.15678406 C-50.19650558 237.93907447 -50.21099833 224.7213657 -50.2182436 211.50364685 C-50.22015338 208.07526142 -50.22207372 204.646876 -50.22402954 201.2184906 C-50.22451328 200.3664217 -50.22499702 199.51435281 -50.22549542 198.63646364 C-50.23379043 184.84272155 -50.2591191 171.04906633 -50.29161022 157.25536215 C-50.32472377 143.08139381 -50.34269627 128.90746955 -50.34588784 114.73346233 C-50.34804906 106.78028665 -50.35674058 98.82723762 -50.38234901 90.87409973 C-50.40411488 84.09883344 -50.41207767 77.32372457 -50.40238223 70.54842728 C-50.39785435 67.09560458 -50.39963449 63.64310627 -50.41914368 60.1903286 C-50.436901 56.43544797 -50.42973628 52.68138051 -50.41661072 48.92649841 C-50.43306459 47.31336148 -50.43306459 47.31336148 -50.44985086 45.66763592 C-50.34317874 32.95614495 -46.61303198 21.87135023 -37.92886353 12.50120544 C-26.71345887 2.26779475 -14.82198833 -0.10952367 0 0 Z " fill="#ff4200" transform="translate(104.92886352539063,67.49879455566406)"/>
<path d="M0 0 C3.49407089 2.85095929 6.78460882 5.83910697 10 9 C11.04800781 10.02867187 11.04800781 10.02867187 12.1171875 11.078125 C26.63041614 26.32548583 33.86775826 47.64058866 34.375 68.4375 C33.75767067 92.89917459 24.75392127 113.80346109 7.65625 131.4140625 C-9.98926072 148.08563269 -32.0753369 155.24987981 -56 155 C-79.47044112 153.71426866 -100.1759515 143.66552496 -116.3125 126.6875 C-131.4892801 109.14934082 -138.84779407 87.82205685 -138.28515625 64.75390625 C-136.36906526 39.52974951 -125.09457398 17.60512883 -106 1 C-75.01699206 -22.99088367 -31.30381139 -23.54148418 0 0 Z M-70.6875 3.4375 C-71.66074219 3.70433594 -72.63398438 3.97117187 -73.63671875 4.24609375 C-75.93220927 4.77929048 -75.93220927 4.77929048 -77 6 C-77.0940067 7.96369153 -77.11743381 9.93079199 -77.11352539 11.89672852 C-77.11344986 13.15796036 -77.11337433 14.4191922 -77.11329651 15.71864319 C-77.1081891 17.10539794 -77.10297309 18.49215229 -77.09765625 19.87890625 C-77.09579201 21.28995209 -77.09436814 22.70099857 -77.09336853 24.11204529 C-77.08954379 27.83240535 -77.0797139 31.5527266 -77.06866455 35.27307129 C-77.05844948 39.06680781 -77.05387071 42.86055058 -77.04882812 46.65429688 C-77.03809158 54.10288436 -77.02049515 61.5514318 -77 69 C-82.94 69 -88.88 69 -95 69 C-95 51.84 -95 34.68 -95 17 C-109.26116659 29.22385708 -118.30365299 44.00091353 -120 63 C-120.39573027 70.86513909 -119.45858705 76.97777123 -118 85 C-74.44 85 -30.88 85 14 85 C17.84965437 63.82690099 14.85985189 47.05256707 3.16796875 29.203125 C-0.50691558 24.25903682 -4.13657234 21.16865228 -9 17 C-9 34.16 -9 51.32 -9 69 C-14.94 69 -20.88 69 -27 69 C-27 48.21 -27 27.42 -27 6 C-34.12566987 2.54565508 -34.12566987 2.54565508 -43 2 C-43 24.11 -43 46.22 -43 69 C-48.94 69 -54.88 69 -61 69 C-61 46.89 -61 24.78 -61 2 C-64.66970688 2 -67.19570085 2.46315284 -70.6875 3.4375 Z M-110 103 C-101.3402801 118.15450983 -88.63066908 128.39673856 -72.02734375 134.00390625 C-53.87464448 138.95464241 -35.75144633 137.24616291 -19.02734375 128.43359375 C-8.69795676 122.17203849 -0.23086546 114.39853043 6 104 C6 103.67 6 103.34 6 103 C-32.28 103 -70.56 103 -110 103 Z " fill="#ff4200" transform="translate(372,264)"/>
<path d="M0 0 C1.25669526 -0.00445784 2.51339052 -0.00891569 3.80816746 -0.01350862 C5.21058211 -0.01341932 6.61299675 -0.01322946 8.01541138 -0.01294994 C9.49921484 -0.01624854 10.9830174 -0.0199741 12.46681881 -0.02409142 C16.55477351 -0.03412039 20.64271353 -0.03782967 24.7306788 -0.04048073 C29.13579194 -0.04438123 33.54089343 -0.05395986 37.94599915 -0.0626936 C48.59079585 -0.08246707 59.23559351 -0.09252615 69.880404 -0.10142139 C74.89284483 -0.10580356 79.90528461 -0.11117062 84.91772461 -0.11641026 C101.58042685 -0.13342478 118.24312842 -0.14791838 134.90583801 -0.155159 C139.23109946 -0.15706891 143.55636089 -0.15898924 147.88162231 -0.16094494 C148.95665233 -0.16142868 150.03168234 -0.16191242 151.13928902 -0.16241082 C168.54928901 -0.1707089 185.95922024 -0.19604109 203.36919022 -0.22852562 C221.24274583 -0.2616032 239.11626652 -0.27960846 256.98985291 -0.28280324 C267.02549501 -0.28496788 277.0610369 -0.29370963 287.09664917 -0.31926441 C295.64480989 -0.34098109 304.19284606 -0.34901712 312.74103123 -0.33929763 C317.10088588 -0.3347555 321.46048361 -0.33663395 325.82030296 -0.35605907 C329.81658513 -0.37371024 333.81242333 -0.3726774 337.80871034 -0.35716178 C339.24959288 -0.35478863 340.69050631 -0.35909405 342.1313417 -0.37099043 C355.34011222 -0.47323896 365.21798038 2.03287079 375.02371216 11.13422108 C379.85375456 15.90687684 383.48923508 20.81604598 386.02371216 27.13422108 C386.38593872 28.00047108 386.74816528 28.86672108 387.12136841 29.75922108 C388.31830201 34.23606365 388.23894426 38.40044313 388.14871216 43.00922108 C388.135177 44.32793201 388.135177 44.32793201 388.12136841 45.67328358 C388.09795792 47.82704818 388.06209225 49.98067122 388.02371216 52.13422108 C382.08371216 52.13422108 376.14371216 52.13422108 370.02371216 52.13422108 C369.92058716 49.80359608 369.81746216 47.47297108 369.71121216 45.07172108 C369.19415939 36.58026317 367.37265021 31.43571088 362.01199341 24.81000233 C354.46673489 18.45063906 347.0931832 18.56146645 337.63833618 18.62628651 C336.17282286 18.62167364 334.70731416 18.61531813 333.24181509 18.60737753 C329.22764937 18.59071386 325.21386512 18.59891693 321.19969821 18.6113224 C316.86560431 18.62038276 312.53157544 18.60639828 308.19749451 18.59540272 C299.71215183 18.57762343 291.22695075 18.58145485 282.74160254 18.59305328 C275.84491987 18.60208965 268.94827686 18.60331072 262.05158997 18.59895802 C260.57880066 18.59803862 260.57880066 18.59803862 259.07625803 18.59710065 C257.08158114 18.59582173 255.08690427 18.59452488 253.0922274 18.59321028 C234.39151384 18.58180621 215.69087874 18.59491548 196.99017805 18.61641175 C180.94679206 18.63428256 164.90352184 18.63117841 148.86013794 18.6127367 C130.22599141 18.59132695 111.59191363 18.58290483 92.95775652 18.59518576 C90.97044914 18.59645994 88.98314175 18.59771743 86.99583435 18.59895802 C85.52917403 18.59988367 85.52917403 18.59988367 84.03288421 18.60082802 C77.14510039 18.6042806 70.2573602 18.59845455 63.36958313 18.5890398 C54.97478042 18.57781729 46.5801273 18.5808652 38.18534172 18.60216278 C33.9027978 18.61266978 29.62050323 18.61680103 25.3379612 18.60356617 C21.41602435 18.5916291 17.49456752 18.59822614 13.5726741 18.61947638 C12.15555762 18.62393691 10.73840042 18.62168844 9.32131022 18.61197323 C0.47649974 18.55599667 -5.98330699 18.92599163 -12.96456909 24.81000233 C-13.40156128 25.35011951 -13.83855347 25.8902367 -14.28878784 26.44672108 C-14.96361206 27.2452953 -14.96361206 27.2452953 -15.65206909 28.06000233 C-20.05736294 34.96032987 -20.40878201 40.65530264 -20.3639679 48.69717884 C-20.36935343 49.85653859 -20.37473897 51.01589834 -20.38028771 52.21039021 C-20.39209293 55.4153568 -20.39050821 58.61998867 -20.38312089 61.82495809 C-20.37838319 65.28654995 -20.39090443 68.7480865 -20.40113831 72.20966053 C-20.41832024 78.98628138 -20.41916754 85.76280948 -20.4139254 92.53944646 C-20.40988111 98.04884221 -20.41133034 103.55821058 -20.41667366 109.06760502 C-20.41779629 110.2445885 -20.41779629 110.2445885 -20.41894161 111.44534943 C-20.42047311 113.03947512 -20.42201146 114.6336008 -20.42355657 116.22772647 C-20.43727958 131.17196714 -20.43184547 146.11615543 -20.42037136 161.0603949 C-20.41044058 174.72415883 -20.42337729 188.38778731 -20.44730555 202.05153035 C-20.47170424 216.08995356 -20.48130245 230.12831371 -20.47465283 244.1667577 C-20.47116213 252.04486697 -20.47338267 259.9228721 -20.49090385 267.80096531 C-20.50563554 274.50787777 -20.50624881 281.21461276 -20.48883294 287.92152177 C-20.48032814 291.34144654 -20.47816017 294.76105442 -20.4934845 298.18096256 C-20.50666928 301.89337261 -20.49516735 305.60492292 -20.47749329 309.31729603 C-20.48709829 310.39133493 -20.4967033 311.46537384 -20.50659937 312.57195938 C-20.42877447 320.52460462 -18.78195468 326.60709705 -13.78878784 332.88422108 C-10.10904202 335.82801774 -6.16165406 337.99138652 -1.97628784 340.13422108 C-3.01509704 346.24551348 -4.13359062 352.21126572 -5.97628784 358.13422108 C-18.71287539 354.38961507 -28.49909106 347.90698269 -34.97628784 336.13422108 C-38.46199628 327.98516041 -39.55557372 320.58839069 -39.47749329 311.78690052 C-39.48579488 310.01188441 -39.48579488 310.01188441 -39.49426419 308.20100939 C-39.50543607 304.95215566 -39.49892088 301.7039223 -39.48452747 298.45510006 C-39.47334277 294.93768139 -39.48538475 291.42032751 -39.49436951 287.90291309 C-39.50825247 281.02700708 -39.50078297 274.15128558 -39.48569392 267.27538846 C-39.46877584 259.25891469 -39.4720513 251.24248614 -39.475788 243.22600003 C-39.48165733 228.91867719 -39.46753049 214.61144255 -39.44284058 200.30414295 C-39.41891354 186.43724736 -39.41184101 172.57046954 -39.42233276 158.70355701 C-39.43375372 143.58154835 -39.43565818 128.45959406 -39.42123467 113.33758605 C-39.41970891 111.72383444 -39.41818856 110.11008283 -39.41667366 108.49633121 C-39.41591585 107.70245032 -39.41515803 106.90856943 -39.41437725 106.09063154 C-39.40964423 100.50919951 -39.41147882 94.92779185 -39.41573906 89.34636021 C-39.4206763 82.54153025 -39.41463408 75.7368114 -39.39484476 68.93200682 C-39.38500438 65.46337485 -39.37983226 61.99491172 -39.38773727 58.52627087 C-39.39370555 54.75985887 -39.38115439 50.99394182 -39.3639679 47.22757435 C-39.36997794 46.14040414 -39.37598799 45.05323394 -39.38218015 43.93311918 C-39.27845721 31.40748569 -35.31784712 20.88363663 -26.97628784 11.44672108 C-20.12432594 4.94970314 -9.37182796 0.01538477 0 0 Z " fill="#ff4200" transform="translate(42.976287841796875,-0.13422107696533203)"/>
<path d="M0 0 C5.94 0 11.88 0 18 0 C18 33.99 18 67.98 18 103 C12.06 103 6.12 103 0 103 C0 69.01 0 35.02 0 0 Z " fill="#ff4200" transform="translate(140,230)"/>
<path d="M0 0 C5.94 0 11.88 0 18 0 C18 25.41 18 50.82 18 77 C12.06 77 6.12 77 0 77 C0 51.59 0 26.18 0 0 Z " fill="#ff4200" transform="translate(174,256)"/>
<path d="M0 0 C5.94 0 11.88 0 18 0 C18 17.16 18 34.32 18 52 C12.06 52 6.12 52 0 52 C0 34.84 0 17.68 0 0 Z " fill="#ff4200" transform="translate(106,281)"/>
<path d="M0 0 C5.94 0 11.88 0 18 0 C18 5.94 18 11.88 18 18 C12.06 18 6.12 18 0 18 C0 12.06 0 6.12 0 0 Z " fill="#ff4200" transform="translate(157,102)"/>
<path d="M0 0 C5.94 0 11.88 0 18 0 C18 5.94 18 11.88 18 18 C12.06 18 6.12 18 0 18 C0 12.06 0 6.12 0 0 Z " fill="#ff4200" transform="translate(123,102)"/>
<path d="M0 0 C5.94 0 11.88 0 18 0 C18 5.94 18 11.88 18 18 C12.06 18 6.12 18 0 18 C0 12.06 0 6.12 0 0 Z " fill="#ff4200" transform="translate(89,102)"/>
<path d="M0 0 C5.94 0 11.88 0 18 0 C18 5.94 18 11.88 18 18 C12.06 18 6.12 18 0 18 C0 12.06 0 6.12 0 0 Z " fill="#ff4200" transform="translate(106,34)"/>
<path d="M0 0 C5.94 0 11.88 0 18 0 C18 5.94 18 11.88 18 18 C12.06 18 6.12 18 0 18 C0 12.06 0 6.12 0 0 Z " fill="#ff4200" transform="translate(72,34)"/>
<path d="M0 0 C5.94 0 11.88 0 18 0 C18 5.94 18 11.88 18 18 C12.06 18 6.12 18 0 18 C0 12.06 0 6.12 0 0 Z " fill="#ff4200" transform="translate(38,34)"/>
</svg>
