<?xml version="1.0" encoding="UTF-8"?>
<svg version="1.1" xmlns="http://www.w3.org/2000/svg" width="512" height="512">
<path d="M0 0 C1.12135849 -0.00570007 2.24271698 -0.01140015 3.39805603 -0.01727295 C5.76544266 -0.02666828 8.13284204 -0.033235 10.50024414 -0.03710938 C14.02840746 -0.04670786 17.55595991 -0.07774017 21.08398438 -0.109375 C41.23741361 -0.20357296 61.27463963 1.35669781 81.02734375 5.515625 C82.04948975 5.72727295 83.07163574 5.9389209 84.12475586 6.15698242 C104.71614291 10.59004084 126.99029429 17.50104592 140.08984375 35.078125 C143.20609576 40.10433792 143.18628714 44.29937765 143.2043457 50.0456543 C143.2109169 50.95007767 143.2174881 51.85450104 143.22425842 52.78633118 C143.24398913 55.78333621 143.25565449 58.7802911 143.265625 61.77734375 C143.26970053 62.80166819 143.27377605 63.82599262 143.27797508 64.88135719 C143.29883639 70.30461043 143.31313699 75.72783836 143.32250977 81.15112305 C143.33356496 86.74535395 143.36795464 92.33918608 143.40768147 97.93327618 C143.43386349 102.24079616 143.4422031 106.54822143 143.44579124 110.85581398 C143.45065429 112.91742453 143.46226019 114.97903093 143.48082924 117.04056358 C143.50525059 119.93190186 143.5042499 122.82221259 143.49731445 125.71362305 C143.51652954 126.98186417 143.51652954 126.98186417 143.53613281 128.27572632 C143.46790497 136.11262644 140.67391021 142.11710446 135.15234375 147.703125 C109.66108173 171.82433547 63.44687106 176.27016794 30.0546875 176.40625 C28.37264977 176.41480011 28.37264977 176.41480011 26.65663147 176.42352295 C24.28924484 176.43291828 21.92184546 176.439485 19.55444336 176.44335938 C16.02628004 176.45295786 12.49872759 176.48399017 8.97070312 176.515625 C-28.90906337 176.69283757 -78.63315572 172.9544534 -107.40234375 145.26953125 C-112.12908755 139.04951267 -113.56490688 133.51795037 -113.49023438 125.79296875 C-113.49724365 124.88781525 -113.50425293 123.98266174 -113.51147461 123.05007935 C-113.52897396 120.07994233 -113.51746049 117.11077047 -113.50390625 114.140625 C-113.50660348 112.06371886 -113.51048782 109.98681395 -113.51550293 107.90991211 C-113.52138707 103.56579517 -113.51286984 99.22200815 -113.49414062 94.87792969 C-113.47135196 89.32299028 -113.48448084 83.76882404 -113.50843048 78.21391296 C-113.52291766 73.9277977 -113.51826904 69.64186429 -113.50791931 65.35574341 C-113.50526011 63.3081147 -113.50849327 61.26046922 -113.51783752 59.21286011 C-113.52805119 56.34589197 -113.51243474 53.48015799 -113.49023438 50.61328125 C-113.4983313 49.7756424 -113.50642822 48.93800354 -113.51477051 48.07498169 C-113.40348044 40.27662812 -110.59235382 34.261963 -105.09765625 28.703125 C-79.60639423 4.58191453 -33.39218356 0.13608206 0 0 Z M-93.6328125 41.61328125 C-97.231065 45.8829278 -97.26567916 50.67717166 -97.24731445 56.01928711 C-97.25242538 56.79066513 -97.25753632 57.56204315 -97.26280212 58.35679626 C-97.27666367 60.89810009 -97.27574401 63.43913169 -97.2734375 65.98046875 C-97.27732622 67.75256958 -97.28166126 69.52466949 -97.28642273 71.29676819 C-97.29387747 75.00801619 -97.293599 78.71916905 -97.28833008 82.43041992 C-97.28253539 87.17952586 -97.29946998 91.92824181 -97.32267475 96.67728329 C-97.33742664 100.33620978 -97.33828183 103.99504265 -97.33516502 107.65399361 C-97.33567747 109.40463598 -97.3409008 111.15528369 -97.35097694 112.90589714 C-97.36335287 115.35671001 -97.35654321 117.80676703 -97.3449707 120.25756836 C-97.35261444 120.97620056 -97.36025818 121.69483276 -97.36813354 122.4352417 C-97.31092822 127.93331818 -95.98930063 131.9824982 -92.2734375 136.07421875 C-55.34780954 165.16493941 9.74739741 162.95469592 53.65234375 157.953125 C76.8024316 155.08654399 108.05937548 150.94236456 125.02734375 133.203125 C126.82115446 129.58602049 127.2731992 126.69326399 127.25439453 122.6784668 C127.25424347 121.59772385 127.25409241 120.5169809 127.25393677 119.40348816 C127.2436142 118.2481105 127.23329163 117.09273285 127.22265625 115.90234375 C127.21982635 114.71083206 127.21699646 113.51932037 127.21408081 112.29170227 C127.20289808 108.49124044 127.17779655 104.69101544 127.15234375 100.890625 C127.1423115 98.31185237 127.13318608 95.73307603 127.125 93.15429688 C127.10296495 86.83715897 127.06950607 80.52015891 127.02734375 74.203125 C124.05787697 75.3835914 121.12486082 76.59184798 118.2265625 77.9375 C90.95134466 90.26147165 59.88040696 95.28470223 30.0546875 95.40625 C28.37264977 95.41480011 28.37264977 95.41480011 26.65663147 95.42352295 C24.28924484 95.43291828 21.92184546 95.439485 19.55444336 95.44335938 C16.02628004 95.45295786 12.49872759 95.48399017 8.97070312 95.515625 C-19.46120679 95.64863775 -51.42537396 93.47662844 -77.97265625 82.203125 C-80.52037792 78.38154249 -80.541323 75.67787977 -79.97265625 71.203125 C-78.97265625 69.203125 -78.97265625 69.203125 -76.97265625 68.203125 C-70.4517989 67.76694725 -65.23913274 69.05763815 -59.03515625 70.953125 C-50.68313211 73.36996919 -42.37546752 75.17232128 -33.78515625 76.515625 C-32.77138916 76.67450195 -31.75762207 76.83337891 -30.71313477 76.99707031 C14.7042043 83.78970381 81.06804975 85.61123393 120.421875 57.4921875 C123.80644119 54.66597134 125.80114438 52.8619204 126.40234375 48.453125 C125.91767626 44.25267343 123.92928115 42.08783454 121.02734375 39.203125 C72.38045132 3.77620468 -47.46683857 2.6713228 -93.6328125 41.61328125 Z " fill="#ff4200" transform="translate(128.97265625,47.796875)"/>
<path d="M0 0 C0.66 -0.0103125 1.32 -0.020625 2 -0.03125 C5.0142123 0.76940014 6.09555916 2.03244559 8 4.5 C8.38254733 7.31259445 8.53463453 9.74572552 8.50390625 12.5546875 C8.51332748 13.33385529 8.52274872 14.11302307 8.53245544 14.915802 C8.56108806 17.40246929 8.56418516 19.8881813 8.5625 22.375 C8.56611589 24.85453836 8.57575354 27.33338051 8.60325623 29.81277466 C8.61994872 31.35311159 8.62299589 32.89367691 8.61024475 34.43405151 C8.6653725 40.09934537 9.80993064 44.32356178 13.8828125 48.37109375 C56.14702706 77.89713912 125.86457533 75.50283604 174.08984375 66.95214844 C192.7832375 63.38611568 214.75338053 59.07210234 229 45.5 C231.3008198 41.21354787 231.27976109 37.02856653 231.2734375 32.27734375 C231.29371576 30.67121685 231.31456633 29.0650971 231.3359375 27.45898438 C231.35857612 24.94191415 231.37502866 22.42512654 231.38085938 19.90795898 C231.39037623 17.46807636 231.42412554 15.02944582 231.4609375 12.58984375 C231.45589203 11.83871811 231.45084656 11.08759247 231.44564819 10.31370544 C231.51208059 6.78600383 231.72301318 4.85879324 233.90869141 2.02758789 C236.17697431 0.37072983 237.22480293 -0.04336245 240 0 C240.66 -0.0103125 241.32 -0.020625 242 -0.03125 C245.07643023 0.78592678 246.08820099 1.93364954 248 4.5 C248.60666813 7.66802488 248.56036472 10.7980137 248.53125 14.015625 C248.5350769 14.94542175 248.53890381 15.87521851 248.54284668 16.83319092 C248.54556676 18.80010053 248.53819882 20.76704625 248.52148438 22.73388672 C248.5001726 25.72576986 248.52123236 28.71522514 248.546875 31.70703125 C248.54422985 33.62240109 248.539101 35.53776943 248.53125 37.453125 C248.53934692 38.33985901 248.54744385 39.22659302 248.55578613 40.14019775 C248.43605887 48.18659632 245.81296406 54.24563947 240.125 60 C214.63373798 84.12121047 168.41952731 88.56704294 135.02734375 88.703125 C133.34530602 88.71167511 133.34530602 88.71167511 131.62928772 88.72039795 C129.26190109 88.72979328 126.89450171 88.73636 124.52709961 88.74023438 C120.99893629 88.74983286 117.47138384 88.78086517 113.94335938 88.8125 C76.06359288 88.98971257 26.33950053 85.2513284 -2.4296875 57.56640625 C-7.31977812 51.13143625 -8.60418414 45.44050233 -8.53125 37.453125 C-8.5350769 36.51950134 -8.53890381 35.58587769 -8.54284668 34.6239624 C-8.54555317 32.6641735 -8.53828104 30.70434769 -8.52148438 28.74462891 C-8.49995914 25.74430411 -8.52137848 22.74634729 -8.546875 19.74609375 C-8.54423339 17.83593223 -8.53911188 15.92577217 -8.53125 14.015625 C-8.53934692 13.12079407 -8.54744385 12.22596313 -8.55578613 11.30401611 C-8.46239116 5.12070216 -8.46239116 5.12070216 -6.09179688 1.93847656 C-3.82977717 0.38294201 -2.71850116 -0.04247658 0 0 Z " fill="#ff4200" transform="translate(24,375.5)"/>
<path d="M0 0 C0.66 -0.0103125 1.32 -0.020625 2 -0.03125 C5.0142123 0.76940014 6.09555916 2.03244559 8 4.5 C8.38254733 7.31259445 8.53463453 9.74572552 8.50390625 12.5546875 C8.51332748 13.33385529 8.52274872 14.11302307 8.53245544 14.915802 C8.56108806 17.40246929 8.56418516 19.8881813 8.5625 22.375 C8.56611589 24.85453836 8.57575354 27.33338051 8.60325623 29.81277466 C8.61994872 31.35311159 8.62299589 32.89367691 8.61024475 34.43405151 C8.6653725 40.09934537 9.80993064 44.32356178 13.8828125 48.37109375 C56.14702706 77.89713912 125.86457533 75.50283604 174.08984375 66.95214844 C192.7832375 63.38611568 214.75338053 59.07210234 229 45.5 C231.3008198 41.21354787 231.27976109 37.02856653 231.2734375 32.27734375 C231.29371576 30.67121685 231.31456633 29.0650971 231.3359375 27.45898438 C231.35857612 24.94191415 231.37502866 22.42512654 231.38085938 19.90795898 C231.39037623 17.46807636 231.42412554 15.02944582 231.4609375 12.58984375 C231.45589203 11.83871811 231.45084656 11.08759247 231.44564819 10.31370544 C231.51208059 6.78600383 231.72301318 4.85879324 233.90869141 2.02758789 C236.17697431 0.37072983 237.22480293 -0.04336245 240 0 C240.66 -0.0103125 241.32 -0.020625 242 -0.03125 C245.07643023 0.78592678 246.08820099 1.93364954 248 4.5 C248.60666813 7.66802488 248.56036472 10.7980137 248.53125 14.015625 C248.5350769 14.94542175 248.53890381 15.87521851 248.54284668 16.83319092 C248.54556676 18.80010053 248.53819882 20.76704625 248.52148438 22.73388672 C248.5001726 25.72576986 248.52123236 28.71522514 248.546875 31.70703125 C248.54422985 33.62240109 248.539101 35.53776943 248.53125 37.453125 C248.53934692 38.33985901 248.54744385 39.22659302 248.55578613 40.14019775 C248.43605887 48.18659632 245.81296406 54.24563947 240.125 60 C214.63373798 84.12121047 168.41952731 88.56704294 135.02734375 88.703125 C133.34530602 88.71167511 133.34530602 88.71167511 131.62928772 88.72039795 C129.26190109 88.72979328 126.89450171 88.73636 124.52709961 88.74023438 C120.99893629 88.74983286 117.47138384 88.78086517 113.94335938 88.8125 C76.06359288 88.98971257 26.33950053 85.2513284 -2.4296875 57.56640625 C-7.31977812 51.13143625 -8.60418414 45.44050233 -8.53125 37.453125 C-8.5350769 36.51950134 -8.53890381 35.58587769 -8.54284668 34.6239624 C-8.54555317 32.6641735 -8.53828104 30.70434769 -8.52148438 28.74462891 C-8.49995914 25.74430411 -8.52137848 22.74634729 -8.546875 19.74609375 C-8.54423339 17.83593223 -8.53911188 15.92577217 -8.53125 14.015625 C-8.53934692 13.12079407 -8.54744385 12.22596313 -8.55578613 11.30401611 C-8.46239116 5.12070216 -8.46239116 5.12070216 -6.09179688 1.93847656 C-3.82977717 0.38294201 -2.71850116 -0.04247658 0 0 Z " fill="#ff4200" transform="translate(24,295.5)"/>
<path d="M0 0 C0.66 -0.0103125 1.32 -0.020625 2 -0.03125 C5.0142123 0.76940014 6.09555916 2.03244559 8 4.5 C8.38254733 7.31259445 8.53463453 9.74572552 8.50390625 12.5546875 C8.51332748 13.33385529 8.52274872 14.11302307 8.53245544 14.915802 C8.56108806 17.40246929 8.56418516 19.8881813 8.5625 22.375 C8.56611589 24.85453836 8.57575354 27.33338051 8.60325623 29.81277466 C8.61994872 31.35311159 8.62299589 32.89367691 8.61024475 34.43405151 C8.6653725 40.09934537 9.80993064 44.32356178 13.8828125 48.37109375 C56.14702706 77.89713912 125.86457533 75.50283604 174.08984375 66.95214844 C192.7832375 63.38611568 214.75338053 59.07210234 229 45.5 C231.3008198 41.21354787 231.27976109 37.02856653 231.2734375 32.27734375 C231.29371576 30.67121685 231.31456633 29.0650971 231.3359375 27.45898438 C231.35857612 24.94191415 231.37502866 22.42512654 231.38085938 19.90795898 C231.39037623 17.46807636 231.42412554 15.02944582 231.4609375 12.58984375 C231.45589203 11.83871811 231.45084656 11.08759247 231.44564819 10.31370544 C231.51208059 6.78600383 231.72301318 4.85879324 233.90869141 2.02758789 C236.17697431 0.37072983 237.22480293 -0.04336245 240 0 C240.66 -0.0103125 241.32 -0.020625 242 -0.03125 C245.07643023 0.78592678 246.08820099 1.93364954 248 4.5 C248.60666813 7.66802488 248.56036472 10.7980137 248.53125 14.015625 C248.5350769 14.94542175 248.53890381 15.87521851 248.54284668 16.83319092 C248.54556676 18.80010053 248.53819882 20.76704625 248.52148438 22.73388672 C248.5001726 25.72576986 248.52123236 28.71522514 248.546875 31.70703125 C248.54422985 33.62240109 248.539101 35.53776943 248.53125 37.453125 C248.53934692 38.33985901 248.54744385 39.22659302 248.55578613 40.14019775 C248.43605887 48.18659632 245.81296406 54.24563947 240.125 60 C214.63373798 84.12121047 168.41952731 88.56704294 135.02734375 88.703125 C133.34530602 88.71167511 133.34530602 88.71167511 131.62928772 88.72039795 C129.26190109 88.72979328 126.89450171 88.73636 124.52709961 88.74023438 C120.99893629 88.74983286 117.47138384 88.78086517 113.94335938 88.8125 C76.06359288 88.98971257 26.33950053 85.2513284 -2.4296875 57.56640625 C-7.31977812 51.13143625 -8.60418414 45.44050233 -8.53125 37.453125 C-8.5350769 36.51950134 -8.53890381 35.58587769 -8.54284668 34.6239624 C-8.54555317 32.6641735 -8.53828104 30.70434769 -8.52148438 28.74462891 C-8.49995914 25.74430411 -8.52137848 22.74634729 -8.546875 19.74609375 C-8.54423339 17.83593223 -8.53911188 15.92577217 -8.53125 14.015625 C-8.53934692 13.12079407 -8.54744385 12.22596313 -8.55578613 11.30401611 C-8.46239116 5.12070216 -8.46239116 5.12070216 -6.09179688 1.93847656 C-3.82977717 0.38294201 -2.71850116 -0.04247658 0 0 Z " fill="#ff4200" transform="translate(24,215.5)"/>
<path d="M0 0 C1.25520447 -0.02229172 2.51040894 -0.04458344 3.8036499 -0.06755066 C5.17150657 -0.07034755 6.53936704 -0.07163739 7.90722656 -0.0715332 C9.31724594 -0.08185489 10.72726005 -0.09291883 12.13726807 -0.10469055 C15.09295458 -0.12411606 18.0481681 -0.1275481 21.00390625 -0.12109375 C24.77505081 -0.11511199 28.54372121 -0.15923873 32.31435776 -0.21698284 C35.22801154 -0.2541333 38.14107835 -0.25887362 41.05493927 -0.25470924 C42.44393977 -0.25756612 43.83296678 -0.27152108 45.22173309 -0.2971859 C57.39234593 -0.4983901 57.39234593 -0.4983901 62.4699707 3.74804688 C65.30055861 6.7326499 67.5725471 9.93047232 69.68457031 13.46362305 C75.82456717 22.18188698 82.24467731 29.9724298 93.15826416 32.27380371 C112.1199573 34.79399928 131.76865779 33.65638818 150.79785156 32.56518555 C151.09731689 31.61667725 151.39678223 30.66816895 151.70532227 29.69091797 C153.68410033 24.02962286 157.89367715 20.76986732 162.86035156 17.62768555 C169.57093134 15.1985164 178.69104754 15.18927069 185.23535156 18.06518555 C191.06020935 21.58515337 195.78001738 27.05481489 197.79785156 33.56518555 C198.60299261 41.40126763 198.92245548 49.18441131 193.79785156 55.56518555 C188.99336517 60.61039777 184.63608101 64.1708155 177.52832031 64.90112305 C168.97899429 64.99538243 163.10475312 64.67020109 156.79785156 58.65893555 C153.74390659 55.35870469 151.77682138 52.98003475 150.79785156 48.56518555 C149.52784302 48.58850197 149.52784302 48.58850197 148.23217773 48.61228943 C140.22926389 48.75290382 132.22676846 48.85930164 124.22290039 48.92787075 C120.10851078 48.96430968 115.99514695 49.01368341 111.88134766 49.09326172 C107.90660621 49.16966352 103.93284738 49.21124601 99.95742798 49.22932625 C98.44553161 49.24219997 96.93368539 49.26734076 95.42221069 49.30529594 C82.11419869 49.62600141 82.11419869 49.62600141 77.05957031 45.39111328 C74.26745912 42.38525252 71.92456552 39.13707049 69.73535156 35.66674805 C63.65777337 27.32502394 57.25393109 19.19527027 46.68725586 16.88513184 C32.02897424 14.91678779 16.89704641 15.57892996 2.17572021 16.55825806 C0.60953949 16.6433815 0.60953949 16.6433815 -0.98828125 16.73022461 C-2.35862518 16.82548431 -2.35862518 16.82548431 -3.75665283 16.92266846 C-7.03788073 16.44301808 -8.15550697 15.10012949 -10.20214844 12.56518555 C-10.73339844 10.56518555 -10.73339844 10.56518555 -10.70214844 8.56518555 C-10.71761719 7.57518555 -10.71761719 7.57518555 -10.73339844 6.56518555 C-9.25255018 0.99022741 -5.20366516 0.05765341 0 0 Z M168.42285156 35.19018555 C166.3107865 38.27704986 166.18590011 39.89347685 166.79785156 43.56518555 C168.29785156 46.06518555 168.29785156 46.06518555 170.79785156 47.56518555 C174.46956026 48.177137 176.08598725 48.0522506 179.17285156 45.94018555 C181.28491662 42.85332123 181.40980301 41.23689424 180.79785156 37.56518555 C179.29785156 35.06518555 179.29785156 35.06518555 176.79785156 33.56518555 C173.12614287 32.9532341 171.50971588 33.07812049 168.42285156 35.19018555 Z " fill="#ff4200" transform="translate(298.2021484375,287.434814453125)"/>
<path d="M0 0 C6.16484317 2.69711889 10.91416648 7.72781073 13.921875 13.703125 C15.92844404 20.17714965 16.0261327 28.54777577 13.25 34.8125 C9.73003218 40.63735779 4.26037066 45.35716582 -2.25 47.375 C-10.08457059 48.17998575 -17.87123733 48.50079143 -24.25 43.375 C-28.10155594 39.70398574 -31.08406555 36.63300152 -32.25 31.375 C-41.78421114 30.63573355 -51.31536987 30.18546686 -60.875 30 C-61.57412632 29.98634399 -62.27325264 29.97268799 -62.99356461 29.95861816 C-78.97860507 29.71395816 -93.61496957 29.77734787 -106.10906982 41.0741272 C-111.75791464 46.69563808 -116.76059004 52.93693317 -121.23706055 59.5234375 C-123.25 62.375 -123.25 62.375 -125.25 63.375 C-127.26060859 63.48694551 -129.27492934 63.53431014 -131.28857422 63.55200195 C-133.19097366 63.57125481 -133.19097366 63.57125481 -135.13180542 63.59089661 C-136.52276215 63.59906334 -137.91372329 63.6065072 -139.3046875 63.61328125 C-140.00394474 63.61735678 -140.70320198 63.6214323 -141.42364883 63.62563133 C-145.12406367 63.64648921 -148.82444144 63.66079263 -152.52490234 63.67016602 C-156.34733301 63.68123581 -160.16918236 63.7156421 -163.99140739 63.75533772 C-166.93052251 63.78147785 -169.86949849 63.78985542 -172.80871964 63.79344749 C-174.21774348 63.79831953 -175.62676087 63.80995126 -177.03567123 63.82848549 C-179.00785061 63.85281876 -180.98031243 63.84949785 -182.95263672 63.8449707 C-184.07467499 63.85083694 -185.19671326 63.85670319 -186.35275269 63.86274719 C-189.89898986 63.26574354 -191.06279782 62.17050468 -193.25 59.375 C-193.78125 57.375 -193.78125 57.375 -193.75 55.375 C-193.7603125 54.715 -193.770625 54.055 -193.78125 53.375 C-193.00764145 50.46259133 -191.55634063 49.27049553 -189.25 47.375 C-186.84487915 47.05789185 -186.84487915 47.05789185 -184.13134766 47.30517578 C-182.59389893 47.41903122 -182.59389893 47.41903122 -181.02539062 47.53518677 C-179.91615234 47.62927826 -178.80691406 47.72336975 -177.6640625 47.8203125 C-148.64485851 50.55041713 -148.64485851 50.55041713 -122.9375 39.6796875 C-116.27673254 33.60627617 -110.53547886 26.57883443 -105.34228516 19.2265625 C-103.25 16.375 -103.25 16.375 -101.25 15.375 C-98.73883598 15.26131053 -96.25474561 15.20719333 -93.74267578 15.19799805 C-92.96852325 15.19142685 -92.19437073 15.18485565 -91.39675903 15.17808533 C-88.82960926 15.15834095 -86.26251797 15.1466881 -83.6953125 15.13671875 C-82.81953426 15.13264322 -81.94375603 15.1285677 -81.04143906 15.12436867 C-76.40734848 15.10350445 -71.77328756 15.08920348 -67.13916016 15.07983398 C-62.34823617 15.06876034 -57.55777547 15.03435067 -52.76701546 14.99466228 C-49.08673222 14.96854389 -45.40656025 14.96014649 -41.72619247 14.95655251 C-39.95991761 14.95167524 -38.19364809 14.94002892 -36.42746353 14.92151451 C-33.95663742 14.89722077 -31.48702173 14.89806958 -29.01611328 14.9050293 C-28.28557739 14.89221924 -27.5550415 14.87940918 -26.80236816 14.86621094 C-23.36860942 14.90149577 -21.57357997 15.12352605 -18.82565308 17.2591095 C-17.13946827 19.52342927 -16.36924633 21.35003596 -15.625 24.0625 C-15.01222301 26.39149015 -15.01222301 26.39149015 -14.25 28.375 C-11.45129973 29.77435013 -9.34501208 29.62765405 -6.25 29.375 C-4.25 28.375 -4.25 28.375 -3.25 26.375 C-2.69962539 22.29976292 -2.69962539 22.29976292 -4.48828125 18.78125 C-7.12723724 16.67476628 -9.97789485 16.1052359 -13.19140625 15.21875 C-15.25 14.375 -15.25 14.375 -17.25 11.375 C-17.89491363 4.60340691 -17.89491363 4.60340691 -15.9375 0.875 C-10.99118503 -1.88573393 -5.37486832 -1.49301898 0 0 Z " fill="#ff4200" transform="translate(481.25,192.625)"/>
<path d="M0 0 C0.86320862 -0.01094193 1.72641724 -0.02188385 2.61578369 -0.03315735 C4.44138631 -0.04900896 6.26710795 -0.05422278 8.09277344 -0.04956055 C10.86858231 -0.05077163 13.63906606 -0.11044614 16.4140625 -0.17382812 C18.19269552 -0.1819744 19.97134853 -0.18664263 21.75 -0.1875 C22.57111267 -0.21108078 23.39222534 -0.23466156 24.23822021 -0.25895691 C30.06214163 -0.1673645 33.00884043 1.47929902 37.14620972 5.52586365 C37.80436676 6.22244583 38.4625238 6.91902802 39.140625 7.63671875 C39.82931671 8.35227432 40.51800842 9.0678299 41.22756958 9.80506897 C43.48753918 12.19316472 45.70914323 14.61397629 47.93359375 17.03515625 C50.5092621 19.76301371 53.09419147 22.48186208 55.68041992 25.19970703 C57.44005936 27.06854309 59.18218882 28.95402801 60.90600586 30.85595703 C72.28201848 43.92478668 72.28201848 43.92478668 88.0728302 49.32949829 C92.1615408 49.37765066 96.08035531 49.1320927 100.140625 48.63671875 C100.44009033 47.68821045 100.73955566 46.73970215 101.0480957 45.76245117 C103.02687377 40.10115607 107.23645058 36.84140052 112.203125 33.69921875 C118.91370477 31.2700496 128.03382098 31.2608039 134.578125 34.13671875 C140.40298279 37.65668657 145.12279082 43.12634809 147.140625 49.63671875 C147.94576605 57.47280083 148.26522892 65.25594452 143.140625 71.63671875 C138.33613861 76.68193097 133.97885445 80.2423487 126.87109375 80.97265625 C118.32176773 81.06691563 112.44752655 80.74173429 106.140625 74.73046875 C103.08668002 71.43023789 101.11959482 69.05156795 100.140625 64.63671875 C99.30402344 64.67337646 98.46742188 64.71003418 97.60546875 64.74780273 C94.46708933 64.86792482 91.32988987 64.95524324 88.18994141 65.02124023 C86.17661269 65.0732884 84.16434823 65.16228985 82.15234375 65.25195312 C80.86972656 65.27451172 79.58710938 65.29707031 78.265625 65.3203125 C77.09257812 65.35697021 75.91953125 65.39362793 74.7109375 65.43139648 C66.98398639 63.71153695 61.97936168 56.50940916 56.95306396 50.77108765 C37.86447573 26.73589013 37.86447573 26.73589013 11.28417969 14.73757935 C5.42318606 14.57599991 -0.38201646 15.29297142 -6.10253906 16.54785156 C-8.859375 16.63671875 -8.859375 16.63671875 -11.20019531 14.81152344 C-12.97389268 12.48661229 -13.40430768 11.51241053 -13.359375 8.63671875 C-13.37484375 7.64671875 -13.37484375 7.64671875 -13.390625 6.63671875 C-11.57355215 -0.20402611 -5.90064634 0.00935211 0 0 Z M117.765625 51.26171875 C115.65355994 54.34858307 115.52867355 55.96501005 116.140625 59.63671875 C117.640625 62.13671875 117.640625 62.13671875 120.140625 63.63671875 C123.8123337 64.2486702 125.42876068 64.12378381 128.515625 62.01171875 C130.62769006 58.92485443 130.75257645 57.30842745 130.140625 53.63671875 C128.640625 51.13671875 128.640625 51.13671875 126.140625 49.63671875 C122.4689163 49.0247673 120.85248932 49.14965369 117.765625 51.26171875 Z " fill="#ff4200" transform="translate(300.859375,319.36328125)"/>
<path d="M0 0 C4.88201639 3.92090354 8.8728567 8.35850344 10.74609375 14.40234375 C11.5512348 22.23842583 11.87069767 30.02156952 6.74609375 36.40234375 C1.94160736 41.44755597 -2.4156768 45.0079737 -9.5234375 45.73828125 C-18.07276352 45.83254063 -23.9470047 45.50735929 -30.25390625 39.49609375 C-33.30785123 36.19586289 -35.27493643 33.81719295 -36.25390625 29.40234375 C-44.65136793 28.07916711 -52.85837409 27.58456496 -60.27093506 32.33642578 C-67.42480208 38.17389033 -73.67511984 44.94019117 -79.90313721 51.73657227 C-82.48272415 54.52997332 -85.11895056 57.26877362 -87.75195312 60.01171875 C-90.70367857 63.09159475 -93.64884631 66.17597512 -96.55253601 69.30126953 C-97.40555801 70.2189209 -98.25858002 71.13657227 -99.13745117 72.08203125 C-99.88685471 72.89397949 -100.63625824 73.70592773 -101.40837097 74.54248047 C-105.10203451 78.26482015 -109.10782836 77.59770538 -114.05859375 77.640625 C-114.93411896 77.64869675 -115.80964417 77.65676849 -116.71170044 77.66508484 C-118.56608092 77.67892596 -120.42048688 77.68964799 -122.27490234 77.69750977 C-125.11084191 77.71473404 -127.94561911 77.75862018 -130.78125 77.80273438 C-132.58202267 77.8128603 -134.38280526 77.82137672 -136.18359375 77.828125 C-137.03162567 77.84563309 -137.87965759 77.86314117 -138.75338745 77.88117981 C-144.64482934 77.85947422 -144.64482934 77.85947422 -147.78759766 75.50073242 C-149.37229506 73.2329212 -149.79668069 72.13990812 -149.75390625 69.40234375 C-149.769375 68.41234375 -149.769375 68.41234375 -149.78515625 67.40234375 C-148.99734567 64.43646862 -147.65407893 63.28538385 -145.25390625 61.40234375 C-142.25704956 61.22143555 -142.25704956 61.22143555 -138.73779297 61.6015625 C-126.18709505 62.45022865 -114.84014712 63.18875804 -104.74952316 54.69264221 C-99.39819782 49.85731403 -94.58234141 44.49901973 -89.84936523 39.06811523 C-87.36543158 36.25425514 -84.78898023 33.52779991 -82.21875 30.79296875 C-77.74378235 26.0151857 -73.35609831 21.17167589 -69.02542114 16.26220703 C-66.67904779 13.79881614 -65.79396435 13.42356456 -62.36474609 13.28881836 C-61.16027832 13.29405518 -59.95581055 13.29929199 -58.71484375 13.3046875 C-56.76191406 13.30952148 -56.76191406 13.30952148 -54.76953125 13.31445312 C-53.38932226 13.32280909 -52.00911393 13.33127404 -50.62890625 13.33984375 C-49.24088699 13.34485874 -47.85286603 13.34942165 -46.46484375 13.35351562 C-43.06115493 13.36533399 -39.65755186 13.38180941 -36.25390625 13.40234375 C-35.95444092 12.45383545 -35.65497559 11.50532715 -35.34643555 10.52807617 C-33.36765748 4.86678107 -29.15808067 1.60702552 -24.19140625 -1.53515625 C-16.82416665 -4.20203031 -6.77920269 -4.09667947 0 0 Z M-18.62890625 16.02734375 C-20.74097131 19.11420807 -20.8658577 20.73063505 -20.25390625 24.40234375 C-18.75390625 26.90234375 -18.75390625 26.90234375 -16.25390625 28.40234375 C-12.58219755 29.0142952 -10.96577057 28.88940881 -7.87890625 26.77734375 C-5.76684119 23.69047943 -5.6419548 22.07405245 -6.25390625 18.40234375 C-7.75390625 15.90234375 -7.75390625 15.90234375 -10.25390625 14.40234375 C-13.92561495 13.7903923 -15.54204193 13.91527869 -18.62890625 16.02734375 Z " fill="#ff4200" transform="translate(437.25390625,146.59765625)"/>
<path d="M0 0 C2.5 1.5 2.5 1.5 4 4 C4.791013 8.02098277 4.62153384 10.96411027 2.5 14.5 C-1.03588973 16.62153384 -3.97901723 16.791013 -8 16 C-10.5 14.5 -10.5 14.5 -12 12 C-12.791013 7.97901723 -12.62153384 5.03588973 -10.5 1.5 C-6.96411027 -0.62153384 -4.02098277 -0.791013 0 0 Z " fill="#ff4200" transform="translate(380,432)"/>
<path d="M0 0 C2.5 1.5 2.5 1.5 4 4 C4.791013 8.02098277 4.62153384 10.96411027 2.5 14.5 C-1.03588973 16.62153384 -3.97901723 16.791013 -8 16 C-10.5 14.5 -10.5 14.5 -12 12 C-12.791013 7.97901723 -12.62153384 5.03588973 -10.5 1.5 C-6.96411027 -0.62153384 -4.02098277 -0.791013 0 0 Z " fill="#ff4200" transform="translate(348,432)"/>
<path d="M0 0 C2.5 1.5 2.5 1.5 4 4 C4.791013 8.02098277 4.62153384 10.96411027 2.5 14.5 C-1.03588973 16.62153384 -3.97901723 16.791013 -8 16 C-10.5 14.5 -10.5 14.5 -12 12 C-12.791013 7.97901723 -12.62153384 5.03588973 -10.5 1.5 C-6.96411027 -0.62153384 -4.02098277 -0.791013 0 0 Z " fill="#ff4200" transform="translate(316,432)"/>
<path d="M0 0 C2.5 1.5 2.5 1.5 4 4 C4.791013 8.02098277 4.62153384 10.96411027 2.5 14.5 C-1.03588973 16.62153384 -3.97901723 16.791013 -8 16 C-10.5 14.5 -10.5 14.5 -12 12 C-12.791013 7.97901723 -12.62153384 5.03588973 -10.5 1.5 C-6.96411027 -0.62153384 -4.02098277 -0.791013 0 0 Z " fill="#ff4200" transform="translate(380,96)"/>
<path d="M0 0 C2.5 1.5 2.5 1.5 4 4 C4.791013 8.02098277 4.62153384 10.96411027 2.5 14.5 C-1.03588973 16.62153384 -3.97901723 16.791013 -8 16 C-10.5 14.5 -10.5 14.5 -12 12 C-12.791013 7.97901723 -12.62153384 5.03588973 -10.5 1.5 C-6.96411027 -0.62153384 -4.02098277 -0.791013 0 0 Z " fill="#ff4200" transform="translate(348,96)"/>
<path d="M0 0 C2.5 1.5 2.5 1.5 4 4 C4.791013 8.02098277 4.62153384 10.96411027 2.5 14.5 C-1.03588973 16.62153384 -3.97901723 16.791013 -8 16 C-10.5 14.5 -10.5 14.5 -12 12 C-12.791013 7.97901723 -12.62153384 5.03588973 -10.5 1.5 C-6.96411027 -0.62153384 -4.02098277 -0.791013 0 0 Z " fill="#ff4200" transform="translate(316,96)"/>
</svg>
