<?xml version="1.0" standalone="no"?>
<!DOCTYPE svg PUBLIC "-//W3C//DTD SVG 20010904//EN"
 "http://www.w3.org/TR/2001/REC-SVG-20010904/DTD/svg10.dtd">
<svg version="1.0" xmlns="http://www.w3.org/2000/svg"
 width="512.000000pt" height="512.000000pt" viewBox="0 0 512.000000 512.000000"
 preserveAspectRatio="xMidYMid meet">

<g transform="translate(0.000000,512.000000) scale(0.100000,-0.100000)"
fill="#ff4200" stroke="none">
<path d="M2864 4999 c-18 -20 -19 -46 -22 -535 l-3 -514 -54 0 -55 0 0 324 c0
289 -2 325 -17 337 -13 11 -74 14 -300 14 l-285 0 -19 -24 c-18 -22 -19 -43
-19 -337 l0 -314 -55 0 -55 0 0 99 c0 77 -4 103 -16 115 -13 14 -55 16 -304
16 -344 0 -320 10 -320 -137 l0 -93 -503 0 c-554 0 -556 0 -630 -61 -21 -17
-50 -54 -65 -83 l-27 -51 0 -1210 c0 -1147 1 -1212 18 -1257 22 -58 98 -129
155 -146 28 -9 188 -12 566 -12 l526 0 0 -115 0 -114 -388 -3 c-350 -3 -389
-5 -413 -21 -14 -9 -31 -29 -37 -43 -18 -38 -15 -238 3 -274 33 -64 -46 -60
1290 -60 l1217 0 45 -50 c58 -65 166 -150 190 -150 11 0 46 20 80 45 l60 45
59 -29 c32 -17 84 -38 116 -48 63 -19 63 -20 73 -104 3 -31 12 -65 19 -74 32
-44 369 -46 412 -4 8 8 20 48 27 89 l12 73 65 22 c36 12 88 34 116 48 l52 26
58 -44 c33 -25 69 -45 81 -45 11 0 43 17 70 38 64 51 203 199 214 229 10 27
-1 51 -52 120 l-31 41 26 54 c14 29 36 82 49 118 l23 64 72 11 c40 6 79 18 88
26 37 38 38 370 1 407 -8 7 -48 18 -90 24 l-75 11 -12 41 c-6 22 -27 76 -47
118 l-36 77 40 53 c51 68 54 77 37 116 -26 62 -240 262 -280 262 -7 0 -40 -21
-74 -46 l-63 -46 -63 31 c-36 17 -89 39 -118 48 l-55 17 -6 50 c-15 121 -17
124 -107 134 l-63 7 -5 730 c-6 809 -2 766 -72 837 -63 62 -96 72 -255 76
l-143 4 0 505 c0 503 -2 534 -34 555 -6 4 -137 8 -292 8 -273 0 -281 -1 -300
-21z m504 -1251 l-3 -1153 -197 -3 -198 -2 0 1155 0 1155 200 0 200 0 -2
-1152z m-758 -198 l0 -960 -197 2 -198 3 -3 945 c-1 520 0 951 3 958 3 9 53
12 200 12 l195 0 0 -960z m-750 -225 l0 -735 -200 0 -200 0 0 735 0 735 200 0
200 0 0 -735z m-520 -150 l0 -656 25 -24 24 -25 273 0 c231 0 277 2 296 16
l22 15 0 665 0 664 55 0 55 0 0 -655 0 -656 25 -24 24 -25 273 0 c231 0 277 2
296 16 l22 15 0 665 0 664 55 0 54 0 3 -661 3 -661 24 -19 c22 -18 42 -19 298
-19 l274 0 24 25 25 24 0 656 0 655 123 0 c140 0 178 -13 209 -71 17 -32 18
-75 18 -745 l0 -712 -60 -4 c-79 -6 -97 -22 -105 -102 -4 -35 -10 -67 -14 -73
-3 -5 -35 -20 -71 -32 -36 -13 -87 -35 -114 -48 l-49 -25 -41 31 c-22 18 -55
39 -73 48 -31 16 -33 15 -71 -9 -91 -61 -242 -229 -242 -271 0 -10 16 -41 35
-67 19 -26 35 -50 35 -54 0 -3 -638 -5 -1417 -4 l-1418 3 0 1020 0 1020 24 34
c44 61 37 60 584 61 l497 0 0 -655z m2666 -998 c3 -2 9 -30 14 -62 16 -100 10
-94 130 -130 30 -9 95 -36 143 -61 98 -49 94 -50 176 12 52 40 53 40 139 -50
l64 -66 -37 -48 c-63 -83 -63 -80 -12 -179 25 -48 55 -121 67 -161 12 -40 29
-79 36 -87 8 -8 41 -17 73 -21 32 -3 63 -9 69 -13 11 -6 18 -93 14 -172 l-2
-47 -66 -7 c-82 -9 -105 -28 -123 -107 -7 -31 -34 -100 -62 -153 -27 -53 -49
-100 -49 -105 0 -4 21 -36 46 -70 l46 -63 -73 -73 c-41 -41 -77 -74 -82 -74
-4 0 -32 18 -61 40 -29 22 -62 40 -74 40 -11 0 -53 -18 -94 -39 -40 -22 -107
-49 -148 -61 -94 -28 -109 -42 -117 -111 -10 -89 -10 -89 -116 -89 -51 0 -97
4 -104 8 -6 4 -15 32 -19 62 -12 94 -14 96 -109 125 -47 14 -119 44 -161 65
-41 22 -83 40 -93 40 -10 0 -43 -18 -74 -40 -44 -32 -61 -39 -74 -31 -23 12
-133 127 -133 138 0 5 18 34 40 63 22 29 40 61 40 71 0 10 -18 50 -39 91 -22
40 -52 112 -66 161 -15 48 -32 90 -38 94 -7 4 -43 12 -82 17 l-70 11 -3 107
c-3 121 -10 112 90 123 31 3 61 12 67 19 6 7 24 54 41 105 16 51 46 121 65
155 19 35 35 71 35 81 0 10 -18 42 -40 71 -22 29 -40 56 -40 60 0 13 63 85
105 120 l44 35 55 -41 c30 -23 63 -42 73 -43 11 0 55 17 99 40 43 23 113 51
154 63 41 12 82 30 91 41 10 10 20 46 24 83 6 60 8 65 33 70 31 5 181 0 188
-7z m-976 -613 c0 -4 -9 -33 -21 -65 l-21 -58 -64 -7 c-92 -9 -110 -27 -119
-114 l-7 -70 -1239 0 -1239 0 -36 33 c-42 39 -53 80 -54 200 l0 87 1400 0
c770 0 1400 -3 1400 -6z m-452 -551 l3 -113 -541 0 -540 0 0 115 0 115 538 -2
537 -3 3 -112z m226 86 c3 -17 6 -42 6 -55 0 -42 32 -62 109 -70 66 -6 70 -8
80 -37 6 -16 11 -32 11 -33 0 -2 -70 -4 -155 -4 l-155 0 0 115 0 115 49 0 c46
0 49 -1 55 -31z m270 -344 c16 -25 16 -27 -26 -80 l-43 -55 -1177 0 -1178 0 0
80 0 80 1204 0 1204 0 16 -25z"/>
<path d="M610 3650 c-20 -20 -20 -33 -20 -579 0 -607 -2 -583 53 -596 12 -3
143 -5 290 -3 253 3 269 4 283 22 12 17 14 113 14 582 l0 563 -22 15 c-19 14
-65 16 -300 16 -265 0 -279 -1 -298 -20z m500 -580 l0 -480 -200 0 -200 0 0
480 0 480 200 0 200 0 0 -480z"/>
<path d="M610 2280 c-24 -24 -25 -48 -4 -78 l15 -22 618 0 c586 0 619 1 634
18 24 26 21 68 -5 86 -20 14 -96 16 -630 16 -595 0 -608 0 -628 -20z"/>
<path d="M625 1998 c-40 -22 -47 -64 -17 -91 17 -16 87 -17 800 -17 859 0 812
-3 812 60 0 62 33 60 -810 60 -551 -1 -771 -4 -785 -12z"/>
<path d="M3750 1687 c-206 -70 -330 -226 -355 -447 -13 -113 41 -275 125 -372
186 -215 539 -227 738 -25 161 164 196 385 94 595 -36 75 -141 181 -213 216
-127 61 -271 73 -389 33z m313 -130 c73 -33 155 -115 192 -192 27 -54 30 -70
30 -160 0 -88 -3 -107 -27 -157 -116 -248 -438 -309 -628 -118 -152 151 -153
395 -3 545 83 83 167 116 288 112 72 -2 101 -8 148 -30z"/>
</g>
</svg>
