<?xml version="1.0" encoding="UTF-8"?>
<svg version="1.1" xmlns="http://www.w3.org/2000/svg" width="512" height="512">
<path d="M0 0 C0.69931641 -0.020625 1.39863281 -0.04125 2.11914062 -0.0625 C6.92225751 -0.09844475 10.1221298 0.70690498 14.1875 3.25 C20.33009131 9.6718 21.49878104 14.51506613 21.3125 23.0625 C21.30347656 23.85076172 21.29445313 24.63902344 21.28515625 25.45117188 C21.26172504 27.38424666 21.22585838 29.3171638 21.1875 31.25 C22.2084375 31.32476562 23.229375 31.39953125 24.28125 31.4765625 C63.97146885 34.8654322 102.82338254 51.58183464 133.1875 77.25 C133.73825195 77.71196777 134.28900391 78.17393555 134.85644531 78.64990234 C144.39381105 86.65953769 153.0647897 94.6371488 160.875 104.38671875 C162.34441946 106.20611818 163.8417664 108.00357469 165.375 109.76953125 C172.40319463 117.93980751 177.81171692 126.94812935 183.1875 136.25 C183.56293945 136.89485352 183.93837891 137.53970703 184.32519531 138.20410156 C198.3220129 162.48851546 207.67353814 191.21560278 209.1875 219.25 C210.321875 219.20359375 211.45625 219.1571875 212.625 219.109375 C228.7333822 218.64148186 228.7333822 218.64148186 234.1875 223.25 C238.11527508 227.05845027 240.07526378 230.2707574 240.390625 235.83203125 C240.4118492 237.24211434 240.42727185 238.65229428 240.4375 240.0625 C240.4684375 241.11147461 240.4684375 241.11147461 240.5 242.18164062 C240.53594475 246.98475751 239.73059502 250.1846298 237.1875 254.25 C230.7657 260.39259131 225.92243387 261.56128104 217.375 261.375 C216.58673828 261.36597656 215.79847656 261.35695313 214.98632812 261.34765625 C213.05325334 261.32422504 211.1203362 261.28835838 209.1875 261.25 C209.11273438 262.18714844 209.03796875 263.12429688 208.9609375 264.08984375 C207.03368704 284.98863093 201.40027369 304.98673776 193.1875 324.25 C192.87586914 324.9915332 192.56423828 325.73306641 192.24316406 326.49707031 C183.8832965 346.12727785 171.75160877 364.30387364 157.29296875 379.95703125 C155.42541796 381.99089454 153.6476578 384.07147023 151.875 386.1875 C120.33772601 422.21974178 71.91878538 443.33727355 25.1875 449.25 C23.8675 449.25 22.5475 449.25 21.1875 449.25 C21.23390625 450.384375 21.2803125 451.51875 21.328125 452.6875 C21.79601814 468.7958822 21.79601814 468.7958822 17.1875 474.25 C13.37904973 478.17777508 10.1667426 480.13776378 4.60546875 480.453125 C3.19538566 480.4743492 1.78520572 480.48977185 0.375 480.5 C-0.67397461 480.5309375 -0.67397461 480.5309375 -1.74414062 480.5625 C-6.54725751 480.59844475 -9.7471298 479.79309502 -13.8125 477.25 C-19.95509131 470.8282 -21.12378104 465.98493387 -20.9375 457.4375 C-20.92847656 456.64923828 -20.91945312 455.86097656 -20.91015625 455.04882812 C-20.88672504 453.11575334 -20.85085838 451.1828362 -20.8125 449.25 C-21.74964844 449.17523438 -22.68679687 449.10046875 -23.65234375 449.0234375 C-44.55310599 447.0960049 -64.54610943 441.45884722 -83.8125 433.25 C-84.54339844 432.94368652 -85.27429688 432.63737305 -86.02734375 432.32177734 C-102.93632389 425.1432172 -119.05732738 415.44255212 -132.8125 403.25 C-133.98337581 402.25639635 -135.15672614 401.26570415 -136.33203125 400.27734375 C-145.23467706 392.77398549 -153.20022986 385.22566323 -160.5 376.11328125 C-161.96941946 374.29388182 -163.4667664 372.49642531 -165 370.73046875 C-172.03048897 362.55752532 -177.42531056 353.54801228 -182.8125 344.25 C-183.36768311 343.30664795 -183.36768311 343.30664795 -183.93408203 342.34423828 C-197.53122779 319.06863522 -208.8125 288.5200466 -208.8125 261.25 C-209.946875 261.29640625 -211.08125 261.3428125 -212.25 261.390625 C-228.3583822 261.85851814 -228.3583822 261.85851814 -233.8125 257.25 C-237.74027508 253.44154973 -239.70026378 250.2292426 -240.015625 244.66796875 C-240.0368492 243.25788566 -240.05227185 241.84770572 -240.0625 240.4375 C-240.083125 239.73818359 -240.10375 239.03886719 -240.125 238.31835938 C-240.16094475 233.51524249 -239.35559502 230.3153702 -236.8125 226.25 C-230.3907 220.10740869 -225.54743387 218.93871896 -217 219.125 C-216.21173828 219.13402344 -215.42347656 219.14304688 -214.61132812 219.15234375 C-212.67825334 219.17577496 -210.7453362 219.21164162 -208.8125 219.25 C-208.73773438 218.2290625 -208.66296875 217.208125 -208.5859375 216.15625 C-204.31532923 166.24680205 -178.40506328 115.83823764 -140.33984375 83.125 C-137.52704432 80.79381658 -134.67763268 78.51650443 -131.8125 76.25 C-130.80058594 75.43273437 -129.78867188 74.61546875 -128.74609375 73.7734375 C-120.86085877 67.47892263 -112.58815457 62.21173373 -103.8125 57.25 C-103.21743652 56.90727051 -102.62237305 56.56454102 -102.00927734 56.21142578 C-78.43691409 42.69436105 -48.28611175 31.25 -20.8125 31.25 C-20.85890625 30.115625 -20.9053125 28.98125 -20.953125 27.8125 C-21.42101814 11.7041178 -21.42101814 11.7041178 -16.8125 6.25 C-11.66931811 0.94567403 -7.17758527 0.05205864 0 0 Z M-7.8125 14.25 C-9.29195006 17.20890013 -8.97712371 20.22080881 -8.98950195 23.46606445 C-8.99607315 24.20934998 -9.00264435 24.9526355 -9.00941467 25.71844482 C-9.029159 28.18339128 -9.04081283 30.64827678 -9.05078125 33.11328125 C-9.05485678 33.95471365 -9.0589323 34.79614605 -9.06313133 35.6630764 C-9.08399707 40.11677175 -9.0982965 44.57043625 -9.10766602 49.02416992 C-9.11873069 53.62443399 -9.15312952 58.22421437 -9.19283772 62.82430744 C-9.21898354 66.36137288 -9.22735603 69.89832273 -9.23094749 73.4354763 C-9.23581886 75.13114882 -9.24744855 76.82681599 -9.26598549 78.52239418 C-9.29033423 80.89723649 -9.28942027 83.27082303 -9.2824707 85.64575195 C-9.29528076 86.34464035 -9.30809082 87.04352875 -9.32128906 87.76359558 C-9.2836327 91.29870623 -8.85926349 93.17690955 -6.93547058 96.1837616 C-4.98714952 98.41388831 -4.98714952 98.41388831 -2.375 98.9140625 C-1.1065625 98.89472656 -1.1065625 98.89472656 0.1875 98.875 C1.033125 98.88789062 1.87875 98.90078125 2.75 98.9140625 C6.28850666 97.95004626 7.22556 96.30955187 9.1875 93.25 C9.5745288 90.58496815 9.73601823 88.33608782 9.70507812 85.67749023 C9.7120874 84.93216034 9.71909668 84.18683044 9.72631836 83.41891479 C9.74386653 80.96509101 9.732289 78.51242842 9.71875 76.05859375 C9.72144556 74.34896117 9.72532852 72.63933009 9.73034668 70.92970276 C9.73623714 67.35117967 9.72769251 63.77305659 9.70898438 60.19458008 C9.68617751 55.6087717 9.69933128 51.02389885 9.72327423 46.43812466 C9.73772986 42.90962171 9.73312767 39.38134052 9.72276306 35.85283089 C9.720096 34.16194612 9.72336482 32.47104118 9.73268127 30.78017998 C9.74284532 28.41728247 9.72735073 26.05589992 9.70507812 23.69311523 C9.71317505 22.9953447 9.72127197 22.29757416 9.72961426 21.57865906 C9.67176931 18.26486653 9.38915009 16.51643699 7.36608887 13.84339905 C2.11786984 10.00490188 -2.5999018 10.89904402 -7.8125 14.25 Z M21.1875 43.25 C21.1875 51.5 21.1875 59.75 21.1875 68.25 C23.76304687 68.77787109 23.76304687 68.77787109 26.390625 69.31640625 C65.94803785 77.62383432 103.90857867 94.28499628 130.1875 126.25 C130.84322998 127.02923828 130.84322998 127.02923828 131.51220703 127.82421875 C154.18201578 154.80667249 165.14801671 185.08780168 172.1875 219.25 C180.4375 219.25 188.6875 219.25 197.1875 219.25 C191.71874055 174.58846453 173.54070282 134.71344371 142.1875 102.25 C141.26789807 101.2672368 140.34863063 100.2841605 139.4296875 99.30078125 C108.4169406 66.64706343 65.21629524 48.67820763 21.1875 43.25 Z M-136.33300781 96.83789062 C-137.3141484 97.7743456 -138.30045247 98.70542231 -139.29199219 99.63085938 C-171.55410444 129.78753385 -191.03296799 172.84125284 -196.8125 216.25 C-196.8125 217.24 -196.8125 218.23 -196.8125 219.25 C-188.5625 219.25 -180.3125 219.25 -171.8125 219.25 C-171.46058594 217.53296875 -171.10867187 215.8159375 -170.74609375 214.046875 C-162.43866568 174.48946215 -145.77750372 136.52892133 -113.8125 110.25 C-113.03326172 109.59427002 -113.03326172 109.59427002 -112.23828125 108.92529297 C-85.25582751 86.25548422 -54.97469832 75.28948329 -20.8125 68.25 C-20.8125 60 -20.8125 51.75 -20.8125 43.25 C-62.62709712 43.25 -106.92735349 68.73096988 -136.33300781 96.83789062 Z M-109.8125 122.25 C-110.32506348 122.72405273 -110.83762695 123.19810547 -111.36572266 123.68652344 C-138.44957338 149.06650749 -153.5619947 182.10737229 -159.8125 218.25 C-159.8125 218.58 -159.8125 218.91 -159.8125 219.25 C-158.7503125 219.27578125 -157.688125 219.3015625 -156.59375 219.328125 C-140.46695961 219.89434521 -140.46695961 219.89434521 -134.23046875 225.73046875 C-129.88145292 231.15775296 -129.973007 237.80148501 -130.3359375 244.453125 C-131.08737879 250.44001792 -132.83226093 253.70516109 -137.36328125 257.57421875 C-143.86442575 261.6824808 -152.37636574 261.0695113 -159.8125 261.25 C-154.41639197 296.30276682 -139.95160985 327.26906685 -115.15087891 352.86474609 C-113.99678424 354.05926144 -112.86173142 355.27212082 -111.73046875 356.48828125 C-88.0933903 381.31965419 -54.92413119 394.52367518 -21.8125 400.25 C-21.4825 400.25 -21.1525 400.25 -20.8125 400.25 C-20.78671875 399.1878125 -20.7609375 398.125625 -20.734375 397.03125 C-20.16815479 380.90445961 -20.16815479 380.90445961 -14.33203125 374.66796875 C-8.90474704 370.31895292 -2.26101499 370.410507 4.390625 370.7734375 C10.37751792 371.52487879 13.64266109 373.26976093 17.51171875 377.80078125 C21.6199808 384.30192575 21.0070113 392.81386574 21.1875 400.25 C56.24026682 394.85389197 87.20656685 380.38910985 112.80224609 355.58837891 C113.99676144 354.43428424 115.20962082 353.29923142 116.42578125 352.16796875 C141.25715419 328.5308903 154.46117518 295.36163119 160.1875 262.25 C160.1875 261.92 160.1875 261.59 160.1875 261.25 C159.1253125 261.22421875 158.063125 261.1984375 156.96875 261.171875 C140.84195961 260.60565479 140.84195961 260.60565479 134.60546875 254.76953125 C130.25645292 249.34224704 130.348007 242.69851499 130.7109375 236.046875 C131.46237879 230.05998208 133.20726093 226.79483891 137.73828125 222.92578125 C144.23942575 218.8175192 152.75136574 219.4304887 160.1875 219.25 C154.79139197 184.19723318 140.32660985 153.23093315 115.52587891 127.63525391 C114.37178424 126.44073856 113.23673142 125.22787918 112.10546875 124.01171875 C88.4683903 99.18034581 55.29913119 85.97632482 22.1875 80.25 C21.8575 80.25 21.5275 80.25 21.1875 80.25 C21.16171875 81.3121875 21.1359375 82.374375 21.109375 83.46875 C20.54315479 99.59554039 20.54315479 99.59554039 14.70703125 105.83203125 C9.27974704 110.18104708 2.63601499 110.089493 -4.015625 109.7265625 C-10.00251792 108.97512121 -13.26766109 107.23023907 -17.13671875 102.69921875 C-21.2449808 96.19807425 -20.6320113 87.68613426 -20.8125 80.25 C-52.74460799 80.25 -87.28351168 101.40358404 -109.8125 122.25 Z M-226.21910095 233.07141113 C-228.48138709 236.16454175 -228.74682196 238.4406734 -228.8125 242.25 C-227.26454133 246.57393774 -227.26454133 246.57393774 -223.8125 249.25 C-221.39806936 249.36352237 -219.01178614 249.41778918 -216.59643555 249.42700195 C-215.85315002 249.43357315 -215.1098645 249.44014435 -214.34405518 249.44691467 C-211.87910872 249.466659 -209.41422322 249.47831283 -206.94921875 249.48828125 C-206.10778635 249.49235678 -205.26635395 249.4964323 -204.3994236 249.50063133 C-199.94572825 249.52149707 -195.49206375 249.5357965 -191.03833008 249.54516602 C-186.43806601 249.55623069 -181.83828563 249.59062952 -177.23819256 249.63033772 C-173.70112712 249.65648354 -170.16417727 249.66485603 -166.6270237 249.66844749 C-164.93135118 249.67331886 -163.23568401 249.68494855 -161.54010582 249.70348549 C-159.16526351 249.72783423 -156.79167697 249.72692027 -154.41674805 249.7199707 C-153.71785965 249.73278076 -153.01897125 249.74559082 -152.29890442 249.75878906 C-148.76379377 249.7211327 -146.88559045 249.29676349 -143.8787384 247.37297058 C-141.64861169 245.42464952 -141.64861169 245.42464952 -141.1484375 242.8125 C-141.16777344 241.5440625 -141.16777344 241.5440625 -141.1875 240.25 C-141.17460937 239.404375 -141.16171875 238.55875 -141.1484375 237.6875 C-142.11245374 234.14899334 -143.75294813 233.21194 -146.8125 231.25 C-149.47753185 230.8629712 -151.72641218 230.70148177 -154.38500977 230.73242188 C-155.50300461 230.72190796 -155.50300461 230.72190796 -156.64358521 230.71118164 C-159.09740899 230.69363347 -161.55007158 230.705211 -164.00390625 230.71875 C-165.71353883 230.71605444 -167.42316991 230.71217148 -169.13279724 230.70715332 C-172.71132033 230.70126286 -176.28944341 230.70980749 -179.86791992 230.72851562 C-184.4537283 230.75132249 -189.03860115 230.73816872 -193.62437534 230.71422577 C-197.15287829 230.69977014 -200.68115948 230.70437233 -204.20966911 230.71473694 C-205.90055388 230.717404 -207.59145882 230.71413518 -209.28232002 230.70481873 C-211.64521753 230.69465468 -214.00660008 230.71014927 -216.36938477 230.73242188 C-217.41604057 230.72027649 -217.41604057 230.72027649 -218.48384094 230.70788574 C-221.79763347 230.76573069 -223.54606301 231.04834991 -226.21910095 233.07141113 Z M142.1875 235.25 C141.40474536 237.67860541 141.40474536 237.67860541 141.5625 240.25 C141.54960937 241.095625 141.53671875 241.94125 141.5234375 242.8125 C142.48745374 246.35100666 144.12794813 247.28806 147.1875 249.25 C149.85253185 249.6370288 152.10141218 249.79851823 154.76000977 249.76757812 C155.87800461 249.77809204 155.87800461 249.77809204 157.01858521 249.78881836 C159.47240899 249.80636653 161.92507158 249.794789 164.37890625 249.78125 C166.08853883 249.78394556 167.79816991 249.78782852 169.50779724 249.79284668 C173.08632033 249.79873714 176.66444341 249.79019251 180.24291992 249.77148438 C184.8287283 249.74867751 189.41360115 249.76183128 193.99937534 249.78577423 C197.52787829 249.80022986 201.05615948 249.79562767 204.58466911 249.78526306 C206.27555388 249.782596 207.96645882 249.78586482 209.65732002 249.79518127 C212.02021753 249.80534532 214.38160008 249.78985073 216.74438477 249.76757812 C217.4421553 249.77567505 218.13992584 249.78377197 218.85884094 249.79211426 C222.17263347 249.73426931 223.92106301 249.45165009 226.59410095 247.42858887 C228.85638709 244.33545825 229.12182196 242.0593266 229.1875 238.25 C227.63954133 233.92606226 227.63954133 233.92606226 224.1875 231.25 C221.77306936 231.13647763 219.38678614 231.08221082 216.97143555 231.07299805 C216.22815002 231.06642685 215.4848645 231.05985565 214.71905518 231.05308533 C212.25410872 231.033341 209.78922322 231.02168717 207.32421875 231.01171875 C206.48278635 231.00764322 205.64135395 231.0035677 204.7744236 230.99936867 C200.32072825 230.97850293 195.86706375 230.9642035 191.41333008 230.95483398 C186.81306601 230.94376931 182.21328563 230.90937048 177.61319256 230.86966228 C174.07612712 230.84351646 170.53917727 230.83514397 167.0020237 230.83155251 C165.30635118 230.82668114 163.61068401 230.81505145 161.91510582 230.79651451 C159.54026351 230.77216577 157.16667697 230.77307973 154.79174805 230.7800293 C154.09285965 230.76721924 153.39397125 230.75440918 152.67390442 230.74121094 C147.93035898 230.79173967 145.49044958 231.85636218 142.1875 235.25 Z M-196.8125 261.25 C-195.031395 275.79569081 -192.35694252 289.323941 -187.8125 303.25 C-187.58191895 303.95962891 -187.35133789 304.66925781 -187.11376953 305.40039062 C-179.59337835 328.01071705 -167.38015994 349.22596748 -151.8125 367.25 C-151.1421875 368.02988281 -150.471875 368.80976563 -149.78125 369.61328125 C-147.50166563 372.20259175 -145.1719649 374.73323744 -142.8125 377.25 C-142.35278809 377.74371094 -141.89307617 378.23742187 -141.41943359 378.74609375 C-109.5950804 412.65261153 -66.38434119 431.47756678 -20.8125 437.25 C-20.8125 429 -20.8125 420.75 -20.8125 412.25 C-22.52953125 411.89808594 -24.2465625 411.54617188 -26.015625 411.18359375 C-65.57303785 402.87616568 -103.53357867 386.21500372 -129.8125 354.25 C-130.46822998 353.47076172 -130.46822998 353.47076172 -131.13720703 352.67578125 C-153.80701578 325.69332751 -164.77301671 295.41219832 -171.8125 261.25 C-180.0625 261.25 -188.3125 261.25 -196.8125 261.25 Z M172.1875 261.25 C171.83558594 262.96703125 171.48367188 264.6840625 171.12109375 266.453125 C162.81366568 306.01053785 146.15250372 343.97107867 114.1875 370.25 C113.40826172 370.90572998 113.40826172 370.90572998 112.61328125 371.57470703 C85.63082751 394.24451578 55.34969832 405.21051671 21.1875 412.25 C21.1875 420.5 21.1875 428.75 21.1875 437.25 C65.84903547 431.78124055 105.72405629 413.60320282 138.1875 382.25 C139.1702632 381.33039807 140.1533395 380.41113063 141.13671875 379.4921875 C173.8147993 348.45630219 191.61228648 305.26484356 197.1875 261.25 C188.9375 261.25 180.6875 261.25 172.1875 261.25 Z M-8.8125 387.25 C-9.1995288 389.91503185 -9.36101823 392.16391218 -9.33007812 394.82250977 C-9.3370874 395.56783966 -9.34409668 396.31316956 -9.35131836 397.08108521 C-9.36886653 399.53490899 -9.357289 401.98757158 -9.34375 404.44140625 C-9.34644556 406.15103883 -9.35032852 407.86066991 -9.35534668 409.57029724 C-9.36123714 413.14882033 -9.35269251 416.72694341 -9.33398438 420.30541992 C-9.31117751 424.8912283 -9.32433128 429.47610115 -9.34827423 434.06187534 C-9.36272986 437.59037829 -9.35812767 441.11865948 -9.34776306 444.64716911 C-9.345096 446.33805388 -9.34836482 448.02895882 -9.35768127 449.71982002 C-9.36784532 452.08271753 -9.35235073 454.44410008 -9.33007812 456.80688477 C-9.33817505 457.5046553 -9.34627197 458.20242584 -9.35461426 458.92134094 C-9.29676931 462.23513347 -9.01415009 463.98356301 -6.99108887 466.65660095 C-3.89795825 468.91888709 -1.6218266 469.18432196 2.1875 469.25 C6.51143774 467.70204133 6.51143774 467.70204133 9.1875 464.25 C9.30102237 461.83556936 9.35528918 459.44928614 9.36450195 457.03393555 C9.37107315 456.29065002 9.37764435 455.5473645 9.38441467 454.78155518 C9.404159 452.31660872 9.41581283 449.85172322 9.42578125 447.38671875 C9.42985678 446.54528635 9.4339323 445.70385395 9.43813133 444.8369236 C9.45899707 440.38322825 9.4732965 435.92956375 9.48266602 431.47583008 C9.49373069 426.87556601 9.52812952 422.27578563 9.56783772 417.67569256 C9.59398354 414.13862712 9.60235603 410.60167727 9.60594749 407.0645237 C9.61081886 405.36885118 9.62244855 403.67318401 9.64098549 401.97760582 C9.66533423 399.60276351 9.66442027 397.22917697 9.6574707 394.85424805 C9.67668579 393.80591545 9.67668579 393.80591545 9.69628906 392.73640442 C9.6586327 389.20129377 9.23426349 387.32309045 7.31047058 384.3162384 C5.36214952 382.08611169 5.36214952 382.08611169 2.75 381.5859375 C1.4815625 381.60527344 1.4815625 381.60527344 0.1875 381.625 C-0.658125 381.61210937 -1.50375 381.59921875 -2.375 381.5859375 C-5.91350666 382.54995374 -6.85056 384.19044813 -8.8125 387.25 Z " fill="#ff4200" transform="translate(255.8125,15.75)"/>
<path d="M0 0 C1.14252731 -0.00983414 2.28505463 -0.01966827 3.46220398 -0.02980042 C4.70650177 -0.02013245 5.95079956 -0.01046448 7.23280334 -0.00050354 C9.2091703 -0.00860802 9.2091703 -0.00860802 11.22546387 -0.01687622 C14.8330616 -0.03082214 18.44018193 -0.01966695 22.0477531 -0.00316501 C25.82725937 0.01070348 29.60673844 0.00422326 33.38626099 0.0007019 C39.73394954 -0.00199914 46.08144888 0.011465 52.42909241 0.03465271 C59.76082885 0.06125043 67.09224875 0.06301285 74.42401689 0.05126435 C81.48428315 0.04047211 88.54443525 0.04668569 95.60469246 0.06081963 C98.60576142 0.06656808 101.60674654 0.06650573 104.6078167 0.06175423 C108.80199688 0.05608079 112.99570738 0.07533456 117.18983459 0.09715271 C118.43210815 0.09265106 119.67438171 0.08814941 120.95429993 0.08351135 C127.7907188 0.14263074 132.64335354 0.4948639 138.08851624 5.00120544 C141.05003534 8.74207168 140.42131432 13.2894021 140.41645813 17.80073547 C140.41942925 18.65731691 140.42240037 19.51389836 140.42546153 20.39643681 C140.43415938 23.27756089 140.43565769 26.15864348 140.43714905 29.03977966 C140.44177641 31.10104969 140.44680095 33.16231887 140.45219421 35.22358704 C140.46532702 40.83100397 140.47176474 46.43840892 140.47620487 52.04583883 C140.47913381 55.5470162 140.48323825 59.04819028 140.48770905 62.549366 C140.50138549 73.49772307 140.51105177 84.44607265 140.51491094 95.39443767 C140.51939402 108.04419811 140.53695299 120.69385061 140.56591153 133.34357822 C140.58750515 143.11433888 140.59761395 152.88506912 140.59895205 162.65585339 C140.60000163 168.49498014 140.60594191 174.33400546 140.62377167 180.17310715 C140.64021252 185.66420689 140.64242725 191.15512851 140.63363266 196.64624405 C140.63286018 198.66307298 140.63723264 200.67991133 140.64709091 202.69671631 C140.65974871 205.44726081 140.65396728 208.19716853 140.64350891 210.94770813 C140.65559352 212.14844099 140.65559352 212.14844099 140.66792226 213.37343109 C140.62725826 217.93739896 140.08560198 220.86252822 137.27601624 224.50120544 C132.97003726 228.26893705 129.40997279 228.62756772 123.80548096 228.64164734 C123.14561559 228.64461846 122.48575023 228.64758958 121.80588895 228.65065074 C119.59043356 228.65933594 117.37503223 228.66084583 115.15956116 228.66233826 C113.57281377 228.66696656 111.98606749 228.67199124 110.39932251 228.67738342 C106.08518572 228.6905083 101.77106449 228.69695256 97.45691085 228.70139408 C94.76178194 228.70432468 92.0666573 228.70842947 89.37153053 228.71289825 C80.93961169 228.72657346 72.50770258 228.73623999 64.07577342 228.74010015 C54.34140509 228.744581 44.60717718 228.76213007 34.87285155 228.79110074 C27.34918975 228.81271513 19.82556746 228.8228043 12.30187494 228.82414126 C7.8080085 228.82518947 3.31427405 228.83110064 -1.17955971 228.84896088 C-5.40750466 228.86543736 -9.63521836 228.86759916 -13.86318398 228.85882187 C-15.41356526 228.85805126 -16.96395895 228.86239734 -18.51430893 228.87228012 C-20.63398001 228.88499789 -22.7528318 228.87912457 -24.87249756 228.86869812 C-26.05771405 228.87016468 -27.24293055 228.87163124 -28.46406269 228.87314224 C-32.85439625 228.37223238 -36.14091744 226.8113293 -39.53648376 224.00120544 C-42.29941716 220.51118431 -41.86972094 216.66130538 -41.90480042 212.41220093 C-41.91200493 211.68573744 -41.91920945 210.95927395 -41.92663229 210.21079642 C-41.94940266 207.76977323 -41.9649391 205.32876015 -41.98033142 202.88768005 C-41.99477967 201.13993583 -42.00953732 199.39219415 -42.02458191 197.64445496 C-42.154902 181.68228813 -42.22073558 165.71942138 -42.2724247 149.75682735 C-42.31132091 137.96047393 -42.37965277 126.16507627 -42.48697245 114.36914247 C-42.55991006 106.07176999 -42.59827299 97.77465836 -42.61145055 89.47697836 C-42.62030336 84.52310103 -42.6444544 79.57040545 -42.70611954 74.61688042 C-42.76353272 69.95184533 -42.77799242 65.28859619 -42.76024628 60.6232605 C-42.76112182 58.91645376 -42.7772721 57.20957173 -42.81029129 55.50308418 C-43.07553602 41.03719222 -43.07553602 41.03719222 -37.42475891 34.73046875 C-35.86895413 33.30845146 -34.30211913 31.89839922 -32.72398376 30.50120544 C-31.27770292 28.79673089 -29.85737102 27.0696102 -28.47398376 25.31370544 C-24.70719513 20.67153635 -20.86835017 16.0988961 -16.97398376 11.56370544 C-16.43096619 10.92473328 -15.88794861 10.28576111 -15.32847595 9.62742615 C-14.54198669 8.71609924 -14.54198669 8.71609924 -13.73960876 7.78636169 C-13.27844666 7.2489032 -12.81728455 6.7114447 -12.34214783 6.15769958 C-8.3939812 2.11601121 -5.77653625 0.00122052 0 0 Z M1.27601624 12.50120544 C0.94601624 22.07120544 0.61601624 31.64120544 0.27601624 41.50120544 C-4.72398376 47.50120544 -4.72398376 47.50120544 -6.72398376 48.50120544 C-14.31398376 48.83120544 -21.90398376 49.16120544 -29.72398376 49.50120544 C-29.72398376 104.61120544 -29.72398376 159.72120544 -29.72398376 216.50120544 C22.41601624 216.50120544 74.55601624 216.50120544 128.27601624 216.50120544 C128.27601624 149.18120544 128.27601624 81.86120544 128.27601624 12.50120544 C86.36601624 12.50120544 44.45601624 12.50120544 1.27601624 12.50120544 Z M-11.72398376 24.50120544 C-13.25765155 26.07321493 -14.75106464 27.68463825 -16.22398376 29.31370544 C-17.03867126 30.20702576 -17.85335876 31.10034607 -18.69273376 32.02073669 C-20.88893098 34.402054 -20.88893098 34.402054 -21.72398376 37.50120544 C-18.09398376 37.50120544 -14.46398376 37.50120544 -10.72398376 37.50120544 C-10.72398376 33.21120544 -10.72398376 28.92120544 -10.72398376 24.50120544 C-11.05398376 24.50120544 -11.38398376 24.50120544 -11.72398376 24.50120544 Z " fill="#ff4200" transform="translate(206.72398376464844,141.49879455566406)"/>
<path d="M0 0 C0.96741623 -0.00852997 1.93483246 -0.01705994 2.93156433 -0.02584839 C3.9914003 -0.02494202 5.05123627 -0.02403564 6.14318848 -0.02310181 C7.8191082 -0.03317764 7.8191082 -0.03317764 9.52888489 -0.04345703 C13.23174452 -0.06249593 16.93442354 -0.06636397 20.6373291 -0.06851196 C23.20418371 -0.07493486 25.77103758 -0.08166283 28.33789062 -0.08868408 C33.7214153 -0.10067097 39.10486794 -0.10444885 44.48840332 -0.10317993 C50.71367084 -0.10197749 56.93859222 -0.12309937 63.16377211 -0.15466726 C69.15082783 -0.18394723 75.13769521 -0.19115678 81.12483215 -0.18996048 C83.67342037 -0.19232683 86.22201091 -0.20120795 88.77055359 -0.21662521 C92.32865468 -0.236137 95.88585532 -0.23050534 99.44396973 -0.21841431 C100.50380569 -0.22965332 101.56364166 -0.24089233 102.65559387 -0.25247192 C104.10671822 -0.23988846 104.10671822 -0.23988846 105.5871582 -0.22705078 C106.42854591 -0.22814032 107.26993362 -0.22922985 108.13681793 -0.2303524 C110.2935791 0.26742554 110.2935791 0.26742554 112.09554291 2.10301781 C113.2935791 4.26742554 113.2935791 4.26742554 113.1685791 7.39242554 C112.2935791 10.26742554 112.2935791 10.26742554 109.2935791 12.26742554 C107.1524353 12.51910782 107.1524353 12.51910782 104.62512207 12.52139282 C103.18661896 12.52985229 103.18661896 12.52985229 101.71905518 12.53848267 C100.66856995 12.5344342 99.61808472 12.53038574 98.5357666 12.5262146 C97.42824036 12.52971924 96.32071411 12.53322388 95.17962646 12.53683472 C91.50921407 12.54565584 87.83899355 12.53980143 84.1685791 12.53305054 C81.62414513 12.53439707 79.07971141 12.53633751 76.53527832 12.53884888 C71.19882524 12.54180066 65.86244129 12.53769077 60.52600098 12.52816772 C54.3553645 12.51728323 48.18486019 12.52080885 42.01422691 12.53182054 C36.07952142 12.54198753 30.14485701 12.54091465 24.21014404 12.53505707 C21.68389874 12.53372016 19.15765008 12.53536973 16.63140869 12.54001617 C13.10464462 12.54507884 9.57813654 12.53737458 6.0513916 12.5262146 C4.47566376 12.53228729 4.47566376 12.53228729 2.86810303 12.53848267 C1.90910095 12.53284302 0.95009888 12.52720337 -0.03796387 12.52139282 C-1.28898392 12.52026175 -1.28898392 12.52026175 -2.5652771 12.51910782 C-4.7064209 12.26742554 -4.7064209 12.26742554 -7.7064209 10.26742554 C-8.1048584 8.39242554 -8.1048584 8.39242554 -8.0814209 6.26742554 C-8.08915527 5.56617554 -8.09688965 4.86492554 -8.1048584 4.14242554 C-7.21299521 -0.05457772 -3.55650493 0.01416742 0 0 Z " fill="#ff4200" transform="translate(203.7064208984375,210.73257446289063)"/>
<path d="M0 0 C0.95051743 -0.00990463 1.90103485 -0.01980927 2.88035583 -0.03001404 C4.43430809 -0.02326157 4.43430809 -0.02326157 6.01965332 -0.01637268 C7.66412193 -0.02666756 7.66412193 -0.02666756 9.34181213 -0.03717041 C12.96958323 -0.05548808 16.59692398 -0.05159401 20.22473145 -0.0459137 C22.74292136 -0.05047278 25.26111003 -0.05577753 27.77929688 -0.0617981 C33.05851165 -0.07073873 38.33761439 -0.06852803 43.61682129 -0.05836487 C49.71771079 -0.04687935 55.81816091 -0.06096677 61.91899252 -0.08776134 C67.79125804 -0.1125855 73.66335245 -0.1150974 79.53565979 -0.10864449 C82.03317496 -0.10849084 84.53069842 -0.11457037 87.02818298 -0.12693596 C90.5165601 -0.14177461 94.00396342 -0.13122064 97.49230957 -0.11402893 C99.04626183 -0.12853088 99.04626183 -0.12853088 100.63160706 -0.14332581 C107.60730989 -0.07115457 107.60730989 -0.07115457 110.90136719 2.25888062 C112.59104569 4.91423924 112.81076984 6.29671613 112.25598145 9.38768005 C110.6370812 11.53098087 109.75502423 12.30170691 107.08080959 12.76241016 C106.23074872 12.76224242 105.38068785 12.76207468 104.50486755 12.76190186 C103.52759201 12.76891617 102.55031647 12.77593048 101.54342651 12.78315735 C99.93728989 12.77169174 99.93728989 12.77169174 98.29870605 12.75999451 C97.17006638 12.76364517 96.0414267 12.76729584 94.87858582 12.77105713 C91.13834711 12.77918022 87.39853921 12.7655383 83.6583252 12.7509613 C81.06665548 12.75044295 78.47498537 12.7509597 75.88331604 12.75247192 C70.44847283 12.75238212 65.0137883 12.7422731 59.57897949 12.72386169 C53.29130118 12.70268332 47.00380548 12.6991864 40.71609873 12.70542365 C34.67138181 12.71111333 28.62674623 12.70537295 22.58203316 12.69425011 C20.00751569 12.69039034 17.4329927 12.68925309 14.85847282 12.69083595 C11.26682804 12.69120514 7.67546494 12.67862776 4.0838623 12.66233826 C2.47468933 12.66605438 2.47468933 12.66605438 0.83300781 12.66984558 C-0.14144791 12.66276077 -1.11590363 12.65567596 -2.11988831 12.64837646 C-3.39441408 12.64529716 -3.39441408 12.64529716 -4.69468784 12.64215565 C-6.74401855 12.38768005 -6.74401855 12.38768005 -8.74401855 10.38768005 C-9.11901855 6.95018005 -9.11901855 6.95018005 -8.74401855 3.38768005 C-5.93263035 0.62270522 -3.88426176 0.01144849 0 0 Z " fill="#ff4200" transform="translate(204.7440185546875,326.61231994628906)"/>
<path d="M0 0 C0.97590088 -0.00563965 1.95180176 -0.0112793 2.95727539 -0.01708984 C4.56880493 -0.01101715 4.56880493 -0.01101715 6.21289062 -0.00482178 C7.34138428 -0.00832642 8.46987793 -0.01183105 9.63256836 -0.01544189 C13.37815427 -0.02427403 17.12355266 -0.01840475 20.86914062 -0.01165771 C23.46223995 -0.01300394 26.05533904 -0.01494411 28.6484375 -0.01745605 C34.08921945 -0.02040933 39.52993037 -0.01629272 44.97070312 -0.0067749 C51.26573789 0.00410997 57.56064312 0.0005845 63.85567474 -0.01042771 C69.90518489 -0.02058786 75.95463152 -0.01952445 82.00415039 -0.01366425 C84.58146177 -0.01232622 87.15877644 -0.01398077 89.73608398 -0.01862335 C93.33260975 -0.02367948 96.92888371 -0.01599105 100.52539062 -0.00482178 C101.59974365 -0.00887024 102.67409668 -0.0129187 103.78100586 -0.01708984 C104.75690674 -0.0114502 105.73280762 -0.00581055 106.73828125 0 C107.58926392 0.00075405 108.44024658 0.0015081 109.3170166 0.002285 C111.36914062 0.25396729 111.36914062 0.25396729 113.36914062 2.25396729 C113.74414062 5.69146729 113.74414062 5.69146729 113.36914062 9.25396729 C110.56713143 12.0066183 108.53360919 12.62956005 104.66308594 12.63491821 C103.72098267 12.64337769 102.77887939 12.65183716 101.80822754 12.66055298 C100.78161011 12.65448029 99.75499268 12.64840759 98.69726562 12.64215088 C97.61070679 12.64740784 96.52414795 12.65266479 95.40466309 12.65808105 C91.80934315 12.67129588 88.21446515 12.66253739 84.61914062 12.65240479 C82.12337153 12.65442508 79.62760301 12.65733615 77.13183594 12.66110229 C71.89969362 12.66552766 66.66766647 12.65937333 61.43554688 12.64508057 C55.38925109 12.62875427 49.3432588 12.63404292 43.29697037 12.65055978 C37.4770384 12.66582106 31.65722166 12.66419694 25.83728027 12.65541458 C23.36210081 12.65341095 20.88691361 12.65587754 18.41174316 12.66285324 C14.95462418 12.67045774 11.4980909 12.6588768 8.04101562 12.64215088 C6.50108948 12.65125992 6.50108948 12.65125992 4.93005371 12.66055298 C3.5168988 12.64786377 3.5168988 12.64786377 2.07519531 12.63491821 C0.84962921 12.6332216 0.84962921 12.6332216 -0.4006958 12.63149071 C-3.22264495 12.15378947 -4.5975244 11.25148449 -6.63085938 9.25396729 C-7.00585938 5.69146729 -7.00585938 5.69146729 -6.63085938 2.25396729 C-4.14690932 -0.22998277 -3.42317114 0.00303325 0 0 Z " fill="#ff4200" transform="translate(202.630859375,249.74603271484375)"/>
<path d="M0 0 C0.97590088 -0.00563965 1.95180176 -0.0112793 2.95727539 -0.01708984 C4.56880493 -0.01101715 4.56880493 -0.01101715 6.21289062 -0.00482178 C7.34138428 -0.00832642 8.46987793 -0.01183105 9.63256836 -0.01544189 C13.37815427 -0.02427403 17.12355266 -0.01840475 20.86914062 -0.01165771 C23.46223995 -0.01300394 26.05533904 -0.01494411 28.6484375 -0.01745605 C34.08921945 -0.02040933 39.52993037 -0.01629272 44.97070312 -0.0067749 C51.26573789 0.00410997 57.56064312 0.0005845 63.85567474 -0.01042771 C69.90518489 -0.02058786 75.95463152 -0.01952445 82.00415039 -0.01366425 C84.58146177 -0.01232622 87.15877644 -0.01398077 89.73608398 -0.01862335 C93.33260975 -0.02367948 96.92888371 -0.01599105 100.52539062 -0.00482178 C101.59974365 -0.00887024 102.67409668 -0.0129187 103.78100586 -0.01708984 C104.75690674 -0.0114502 105.73280762 -0.00581055 106.73828125 0 C107.58926392 0.00075405 108.44024658 0.0015081 109.3170166 0.002285 C111.36914062 0.25396729 111.36914062 0.25396729 113.36914062 2.25396729 C113.61914062 5.75396729 113.61914062 5.75396729 113.36914062 9.25396729 C110.88519057 11.73791734 110.16145239 11.50490132 106.73828125 11.50793457 C105.76238037 11.51357422 104.78647949 11.51921387 103.78100586 11.52502441 C102.70665283 11.52097595 101.6322998 11.51692749 100.52539062 11.51275635 C99.39689697 11.51626099 98.26840332 11.51976562 97.10571289 11.52337646 C93.36012698 11.5322086 89.61472859 11.52633932 85.86914062 11.51959229 C83.2760413 11.52093851 80.68294221 11.52287868 78.08984375 11.52539062 C72.6490618 11.5283439 67.20835088 11.52422729 61.76757812 11.51470947 C55.47254336 11.5038246 49.17763813 11.50735007 42.88260651 11.51836228 C36.83309636 11.52852243 30.78364973 11.52745902 24.73413086 11.52159882 C22.15681948 11.52026079 19.57950481 11.52191534 17.00219727 11.52655792 C13.4056715 11.53161405 9.80939754 11.52392562 6.21289062 11.51275635 C4.60136108 11.51882904 4.60136108 11.51882904 2.95727539 11.52502441 C1.98137451 11.51938477 1.00547363 11.51374512 0 11.50793457 C-0.85098267 11.50718052 -1.70196533 11.50642647 -2.57873535 11.50564957 C-4.63085938 11.25396729 -4.63085938 11.25396729 -6.63085938 9.25396729 C-6.88085938 5.75396729 -6.88085938 5.75396729 -6.63085938 2.25396729 C-4.14690932 -0.22998277 -3.42317114 0.00303325 0 0 Z " fill="#ff4200" transform="translate(202.630859375,288.74603271484375)"/>
</svg>
