<?xml version="1.0" encoding="UTF-8"?>
<svg version="1.1" xmlns="http://www.w3.org/2000/svg" width="512" height="512">
<path d="M0 0 C0.9536293 -0.00671722 1.90725861 -0.01343445 2.88978577 -0.02035522 C6.03285983 -0.03930644 9.17572006 -0.04325788 12.31884766 -0.04541016 C14.51071255 -0.05183969 16.70257659 -0.05856816 18.8944397 -0.06558228 C23.48579905 -0.07754757 28.07708319 -0.08126382 32.66845703 -0.08007812 C38.541751 -0.07987489 44.41456134 -0.10718519 50.28774071 -0.14162254 C54.81401775 -0.16389615 59.34017844 -0.16791553 63.86650467 -0.16685867 C66.03137505 -0.16921361 68.19624869 -0.17803105 70.36106491 -0.19352341 C73.3933952 -0.21319376 76.42468295 -0.20734101 79.45703125 -0.1953125 C80.34456589 -0.20655151 81.23210052 -0.21779053 82.14653015 -0.22937012 C88.63158004 -0.16424245 94.05984474 1.23585716 98.92055321 5.73784828 C102.89737719 10.22902923 103.47315002 13.76319426 103.53491211 19.57470703 C103.54774734 20.62970398 103.56058258 21.68470093 103.57380676 22.77166748 C103.58488716 24.47483124 103.58488716 24.47483124 103.59619141 26.21240234 C103.60426315 27.38635559 103.6123349 28.56030884 103.62065125 29.76983643 C103.63447877 32.25458301 103.64520687 34.73934849 103.65307617 37.22412109 C103.67028172 41.01225011 103.71418094 44.79950468 103.75830078 48.58740234 C103.7684288 51.00406261 103.77694456 53.42073027 103.78369141 55.83740234 C103.80119949 56.96474792 103.81870758 58.09209351 103.83674622 59.25360107 C103.81803349 66.08229743 103.03109381 70.48559656 99.35791016 76.29052734 C95.15791016 80.29052734 95.15791016 80.29052734 92.35791016 80.29052734 C92.35791016 89.86052734 92.35791016 99.43052734 92.35791016 109.29052734 C95.32791016 109.62052734 98.29791016 109.95052734 101.35791016 110.29052734 C114.57084161 114.14843841 126.45784584 122.64276557 133.26806641 134.66162109 C141.2599729 149.91264022 143.49133164 164.77357242 138.38916016 181.45849609 C133.00463102 195.52012117 123.35493983 206.72692807 109.67041016 213.22802734 C103.93613707 215.60365477 98.62120141 217.29052734 92.35791016 217.29052734 C92.3667926 218.16003525 92.37567505 219.02954315 92.38482666 219.92539978 C92.46521698 228.14886613 92.52599826 236.37219912 92.56515884 244.5959692 C92.58596911 248.82318421 92.61416537 253.05007255 92.65966797 257.27709961 C92.70336181 261.36200196 92.72709652 265.44659153 92.73741913 269.53170967 C92.74476854 271.08453858 92.7591197 272.63735179 92.78083038 274.19004631 C92.92831618 285.18230199 92.12368949 294.33945631 84.23211098 302.61419487 C76.73703201 309.3179825 68.68485725 310.00210855 59.01367188 309.8581543 C57.71498672 309.85888443 56.41630157 309.85961456 55.07826233 309.86036682 C51.54762082 309.86179053 48.01784364 309.83257348 44.48740149 309.79749703 C40.78657865 309.76605668 37.08573193 309.76328897 33.38479614 309.75737 C26.39028631 309.74188306 19.39617127 309.70092535 12.40183461 309.65062255 C4.43324923 309.59456764 -3.53535586 309.56720219 -11.50408959 309.54214537 C-27.88365342 309.4900041 -44.2628211 309.40216339 -60.64208984 309.29052734 C-60.79532715 310.53382813 -60.94856445 311.77712891 -61.10644531 313.05810547 C-61.43436991 315.71874291 -61.80582358 318.35816104 -62.21240234 321.00927734 C-64.08603917 333.78167488 -63.79391134 345.68324137 -60.64208984 358.29052734 C-60.64208984 359.61052734 -60.64208984 360.93052734 -60.64208984 362.29052734 C-60.04783203 362.27481689 -59.45357422 362.25910645 -58.84130859 362.24291992 C-56.1083353 362.17996165 -53.37551529 362.14134639 -50.64208984 362.10302734 C-49.24023438 362.06532227 -49.24023438 362.06532227 -47.81005859 362.02685547 C-39.97166058 361.94463451 -33.04945538 363.11064465 -27.02880859 368.66943359 C-21.53859918 375.08756572 -19.79749532 381.75172328 -20.16162109 390.10693359 C-21.31339295 397.73859262 -24.85851478 403.31517399 -30.79833984 408.13427734 C-35.00355446 410.77144583 -38.63378279 411.542399 -43.56694031 411.56468201 C-44.75417191 411.57465714 -45.9414035 411.58463226 -47.16461182 411.59490967 C-48.45872986 411.59557434 -49.7528479 411.59623901 -51.08618164 411.59692383 C-52.46969549 411.60454966 -53.85320511 411.61297789 -55.23670959 411.62214661 C-58.98903964 411.64406122 -62.74128819 411.6528868 -66.49367499 411.65797305 C-68.84143836 411.6616213 -71.18918054 411.66786389 -73.53693581 411.67497444 C-81.73760537 411.69946182 -89.93821177 411.71251855 -98.13891602 411.71606445 C-105.76603282 411.71969555 -113.39274619 411.74956186 -121.01973981 411.79146904 C-127.58046608 411.82624514 -134.14105918 411.84161418 -140.70187694 411.84231049 C-144.61468501 411.84310105 -148.52708224 411.85173644 -152.43979454 411.88030815 C-156.12458672 411.90661389 -159.80863119 411.90862552 -163.49347496 411.89265251 C-165.47633975 411.88999276 -167.45919079 411.91193802 -169.44192505 411.93484497 C-177.16439122 411.87208175 -183.26582627 410.87795693 -189.64208984 406.29052734 C-195.93433991 399.63676555 -198.14093691 393.47790147 -197.95068359 384.35693359 C-197.21341004 377.03086097 -193.86591472 371.97533799 -188.81396484 366.79833984 C-182.05359656 362.10499064 -175.5915936 361.8892131 -167.64208984 362.10302734 C-166.67658203 362.1165625 -165.71107422 362.13009766 -164.71630859 362.14404297 C-162.35763559 362.17907277 -160.00017213 362.2281865 -157.64208984 362.29052734 C-157.13949698 359.31888603 -156.64198225 356.34660947 -156.15380859 353.37255859 C-155.79585364 351.21663146 -155.41503523 349.06443242 -155.01708984 346.91552734 C-153.90929362 336.20683055 -154.91218701 326.294073 -156.98583984 315.81005859 C-157.64208984 312.29052734 -157.64208984 312.29052734 -157.64208984 309.29052734 C-158.31408637 309.29421452 -158.9860829 309.29790169 -159.67844296 309.30170059 C-176.05484909 309.39016664 -192.43117921 309.45629272 -208.80776882 309.49777603 C-216.72748349 309.518372 -224.64703833 309.54643555 -232.56665039 309.59228516 C-239.47208249 309.63224412 -246.3773988 309.6579817 -253.28294331 309.66688132 C-256.93699394 309.67208084 -260.59071338 309.68423884 -264.24465752 309.71344757 C-268.33097694 309.74584547 -272.41672626 309.74648098 -276.50317383 309.74462891 C-277.70511383 309.75901001 -278.90705383 309.77339111 -280.14541626 309.78820801 C-288.85245435 309.7455764 -294.70460376 307.94075836 -301.89208984 303.10302734 C-308.71273174 296.12737086 -310.80292865 289.11653593 -310.75561523 279.58447266 C-310.75576126 278.81335648 -310.75590729 278.0422403 -310.75605774 277.24775696 C-310.75536233 274.70469325 -310.74758733 272.16170322 -310.73974609 269.61865234 C-310.73788059 267.85317017 -310.73645731 266.08768747 -310.73545837 264.32220459 C-310.73164359 259.67961188 -310.72182216 255.03705054 -310.71075439 250.39447021 C-310.70051795 245.65539982 -310.69595596 240.91632436 -310.69091797 236.17724609 C-310.68019897 226.88165941 -310.66313501 217.58609599 -310.64208984 208.29052734 C-311.73682617 208.30349854 -312.8315625 208.31646973 -313.95947266 208.32983398 C-325.37164818 208.20802543 -336.15523856 201.62442829 -344.39208984 194.10302734 C-354.75355125 182.99434516 -359.03544548 168.96476069 -358.53271484 154.04443359 C-357.20944363 140.16583913 -350.91392565 128.0495537 -340.70458984 118.63427734 C-331.9460866 111.93134119 -321.81091882 107.29052734 -310.64208984 107.29052734 C-310.66303711 106.10088379 -310.68398438 104.91124023 -310.70556641 103.68554688 C-310.77849091 99.23140715 -310.82407865 94.77731916 -310.86181641 90.32275391 C-310.88181321 88.40241595 -310.9090199 86.48213796 -310.94384766 84.56201172 C-311.33811737 62.25098413 -311.33811737 62.25098413 -304.26708984 52.91552734 C-298.30104304 46.94948054 -292.20891005 44.05506023 -283.76025391 44.01586914 C-282.62597961 44.00633713 -281.49170532 43.99680511 -280.32305908 43.98698425 C-278.50871368 43.98835136 -278.50871368 43.98835136 -276.65771484 43.98974609 C-275.40577332 43.98546097 -274.15383179 43.98117584 -272.86395264 43.97676086 C-270.22458753 43.97102848 -267.58561507 43.96957034 -264.94628906 43.97485352 C-261.56101907 43.98067627 -258.17629122 43.96363647 -254.79111099 43.94050884 C-251.5591492 43.92227364 -248.32721887 43.92595521 -245.09521484 43.92724609 C-243.87755432 43.91803635 -242.6598938 43.9088266 -241.40533447 43.89933777 C-239.722836 43.90868095 -239.722836 43.90868095 -238.00634766 43.91821289 C-237.01628723 43.91758347 -236.02622681 43.91695404 -235.00616455 43.91630554 C-234.2260199 44.03979874 -233.44587524 44.16329193 -232.64208984 44.29052734 C-230.32926397 47.75976615 -230.21730398 49.21258309 -230.64208984 53.29052734 C-231.84320068 54.95497131 -231.84320068 54.95497131 -233.64208984 56.29052734 C-235.96783447 56.66233826 -235.96783447 56.66233826 -238.73681641 56.65942383 C-240.29423553 56.66974892 -240.29423553 56.66974892 -241.88311768 56.68028259 C-243.00498474 56.6741243 -244.12685181 56.667966 -245.28271484 56.66162109 C-247.65641416 56.67900875 -250.03011205 56.69659307 -252.40380859 56.71435547 C-256.14748838 56.7244178 -259.89107289 56.72802781 -263.63476562 56.72631836 C-267.24687092 56.7298947 -270.85824066 56.75726961 -274.47021484 56.78662109 C-275.58398499 56.77843857 -276.69775513 56.77025604 -277.84527588 56.76182556 C-284.32932888 56.82374563 -288.38833201 57.38253979 -293.64208984 61.29052734 C-297.78962489 66.82057408 -297.82010243 72.28153858 -297.95849609 78.99365234 C-297.97927719 79.83144226 -298.00005829 80.66923218 -298.02146912 81.53240967 C-298.08671535 84.2017009 -298.14573342 86.87108832 -298.20458984 89.54052734 C-298.24779878 91.35303718 -298.29141383 93.16553739 -298.33544922 94.97802734 C-298.44237114 99.41542943 -298.54370851 103.85292802 -298.64208984 108.29052734 C-297.53905518 108.44126709 -296.43602051 108.59200684 -295.29956055 108.74731445 C-283.29374155 110.53043623 -273.87728023 117.85263912 -266.23974609 127.02490234 C-257.66397787 139.18613845 -255.2962828 151.74235317 -256.64208984 166.29052734 C-259.17355423 179.69578195 -266.27241602 191.65670654 -277.14208984 199.91552734 C-282.91819167 203.81615708 -291.55112855 208.29052734 -298.64208984 208.29052734 C-298.64208984 218.85052734 -298.64208984 229.41052734 -298.64208984 240.29052734 C-173.57208984 240.29052734 -48.50208984 240.29052734 80.35791016 240.29052734 C80.35791016 232.70052734 80.35791016 225.11052734 80.35791016 217.29052734 C77.71791016 216.96052734 75.07791016 216.63052734 72.35791016 216.29052734 C58.53991269 212.96946357 47.10050011 204.00947873 39.35791016 192.29052734 C31.87553941 178.81490632 30.22676381 163.70911258 33.04541016 148.60693359 C37.47532103 134.41276084 46.55984956 122.78340898 59.35791016 115.29052734 C66.67370075 111.59442949 71.99248862 110.22001863 80.35791016 109.29052734 C80.35791016 100.05052734 80.35791016 90.81052734 80.35791016 81.29052734 C62.53791016 81.29052734 44.71791016 81.29052734 26.35791016 81.29052734 C25.69791016 82.61052734 25.03791016 83.93052734 24.35791016 85.29052734 C23.43053074 86.68134322 22.47388952 88.05292703 21.49462891 89.40771484 C20.93710937 90.17986328 20.37958984 90.95201172 19.80517578 91.74755859 C19.22445313 92.54548828 18.64373047 93.34341797 18.04541016 94.16552734 C17.47628906 94.95572266 16.90716797 95.74591797 16.32080078 96.56005859 C14.68476445 98.8178263 13.02946484 101.0589555 11.35791016 103.29052734 C10.6622998 104.22481567 10.6622998 104.22481567 9.95263672 105.17797852 C6.7955532 109.22261722 6.7955532 109.22261722 2.73291016 109.85302734 C-0.80221821 109.26383928 -1.58607625 109.06002568 -3.64208984 106.29052734 C-3.90673828 104.19335938 -3.90673828 104.19335938 -3.75146484 101.79833984 C-3.70119141 100.92822266 -3.65091797 100.05810547 -3.59912109 99.16162109 C-3.53080078 98.25541016 -3.46248047 97.34919922 -3.39208984 96.41552734 C-3.33923828 95.51705078 -3.28638672 94.61857422 -3.23193359 93.69287109 C-2.96477683 89.48670535 -2.63913464 85.39903953 -1.64208984 81.29052734 C-2.43873047 81.33693359 -3.23537109 81.38333984 -4.05615234 81.43115234 C-12.70468793 81.72574966 -12.70468793 81.72574966 -17.14208984 79.66552734 C-21.24422251 75.76850131 -24.12183868 72.01329013 -24.64208984 66.29052734 C-24.70889902 62.95520747 -24.70037757 59.6258807 -24.64208984 56.29052734 C-25.53412109 56.33693359 -26.42615234 56.38333984 -27.34521484 56.43115234 C-28.51568359 56.46724609 -29.68615234 56.50333984 -30.89208984 56.54052734 C-32.05224609 56.58693359 -33.21240234 56.63333984 -34.40771484 56.68115234 C-37.64208984 56.29052734 -37.64208984 56.29052734 -40.07177734 54.47021484 C-41.64208984 52.29052734 -41.64208984 52.29052734 -41.51708984 49.16552734 C-40.64208984 46.29052734 -40.64208984 46.29052734 -38.64208984 44.29052734 C-35.38427734 44.09521484 -35.38427734 44.09521484 -31.51708984 44.16552734 C-29.59509766 44.19259766 -29.59509766 44.19259766 -27.63427734 44.22021484 C-26.64685547 44.24341797 -25.65943359 44.26662109 -24.64208984 44.29052734 C-24.65780029 43.48945557 -24.67351074 42.68838379 -24.68969727 41.86303711 C-24.75250132 38.1931072 -24.79122472 34.52329085 -24.82958984 30.85302734 C-24.86729492 28.96293945 -24.86729492 28.96293945 -24.90576172 27.03466797 C-25.02853535 11.36056818 -25.02853535 11.36056818 -20.33105469 5.71484375 C-14.28983509 0.23550669 -7.6998498 -0.00782757 0 0 Z M-11.64208984 15.29052734 C-11.94828278 17.58062785 -11.94828278 17.58062785 -11.90087891 20.25927734 C-11.90718323 21.29375 -11.91348755 22.32822266 -11.91998291 23.39404297 C-11.91593445 24.51488281 -11.91188599 25.63572266 -11.90771484 26.79052734 C-11.9096283 27.93714844 -11.91154175 29.08376953 -11.91351318 30.26513672 C-11.91487606 32.69287332 -11.91117252 35.12061718 -11.90283203 37.54833984 C-11.89213422 41.27506807 -11.90272415 45.0013142 -11.91552734 48.72802734 C-11.91420577 51.08219508 -11.91164341 53.43636251 -11.90771484 55.79052734 C-11.91176331 56.91136719 -11.91581177 58.03220703 -11.91998291 59.18701172 C-11.91367859 60.22148437 -11.90737427 61.25595703 -11.90087891 62.32177734 C-11.89928772 63.23507813 -11.89769653 64.14837891 -11.89605713 65.08935547 C-11.84919002 67.49769361 -11.84919002 67.49769361 -9.64208984 69.29052734 C-6.03484232 69.58280689 -2.46740776 69.70601973 1.14892578 69.76904297 C6.94173963 69.97361262 6.94173963 69.97361262 9.0612793 71.58764648 C11.08012537 74.23902124 11.05172192 77.04493199 11.35791016 80.29052734 C13.87420344 77.8441311 16.16319461 75.58299335 18.11325073 72.65397644 C20.35791016 70.29052734 20.35791016 70.29052734 23.40701294 69.66474915 C24.60011078 69.66411972 25.79320862 69.6634903 27.02246094 69.6628418 C27.68307526 69.65557068 28.34368958 69.64829956 29.02432251 69.64080811 C31.20117142 69.62225075 33.37637372 69.63826404 35.55322266 69.65380859 C37.0673062 69.64576882 38.58137845 69.6352509 40.09542847 69.62236023 C44.07650247 69.59381735 48.05705573 69.5932363 52.03820801 69.60021973 C58.41741811 69.60754593 64.79646013 69.57628565 71.17553329 69.53777122 C73.40588974 69.52889745 75.63588553 69.53423123 77.86624146 69.54133606 C79.22821146 69.53795286 80.59018063 69.53420397 81.95214844 69.5300293 C83.14365509 69.53178665 84.33516174 69.53354401 85.56277466 69.53535461 C88.49684559 69.58006538 88.49684559 69.58006538 90.35791016 67.29052734 C90.66410309 65.00042684 90.66410309 65.00042684 90.61669922 62.32177734 C90.6261557 60.77006836 90.6261557 60.77006836 90.63580322 59.18701172 C90.63175476 58.06617188 90.6277063 56.94533203 90.62353516 55.79052734 C90.62544861 54.64390625 90.62736206 53.49728516 90.6293335 52.31591797 C90.63069637 49.88818137 90.62699283 47.4604375 90.61865234 45.03271484 C90.60795453 41.30598662 90.61854447 37.57974049 90.63134766 33.85302734 C90.63002608 31.49885961 90.62746373 29.14469217 90.62353516 26.79052734 C90.62758362 25.6696875 90.63163208 24.54884766 90.63580322 23.39404297 C90.6294989 22.35957031 90.62319458 21.32509766 90.61669922 20.25927734 C90.61510803 19.34597656 90.61351685 18.43267578 90.61187744 17.49169922 C90.56501033 15.08336108 90.56501033 15.08336108 88.35791016 13.29052734 C85.26466813 13.09152029 82.26091242 13.01791152 79.16650391 13.03173828 C78.21357452 13.02823364 77.26064514 13.024729 76.27883911 13.02111816 C73.1176228 13.01228981 69.95662888 13.01815392 66.79541016 13.02490234 C64.60587521 13.02355601 62.41634056 13.02161575 60.22680664 13.019104 C55.63343465 13.01615124 51.04014033 13.02045529 46.44677734 13.02978516 C40.54825152 13.04117974 34.64990769 13.03462108 28.75138855 13.02264023 C24.22878642 13.01542575 19.70622768 13.01770767 15.18362427 13.02289581 C13.00822936 13.02423345 10.83283055 13.02258063 8.65744019 13.01793671 C5.62129218 13.01287826 2.58544213 13.02057216 -0.45068359 13.03173828 C-1.35672333 13.02768982 -2.26276306 13.02364136 -3.19625854 13.01947021 C-7.9027374 12.81990391 -7.9027374 12.81990391 -11.64208984 15.29052734 Z M-331.64208984 128.29052734 C-332.26857422 128.79326172 -332.89505859 129.29599609 -333.54052734 129.81396484 C-340.72768393 136.24788231 -345.03515395 145.43513669 -345.88037109 154.98193359 C-346.15921645 165.76884609 -343.70048098 174.95497658 -336.61474609 183.25927734 C-328.34386821 191.77582487 -319.6363504 196.38416442 -307.64208984 196.79052734 C-297.54109158 196.45934707 -288.27533102 193.00106904 -280.64208984 186.29052734 C-273.41409646 178.47091884 -268.75488984 168.92939525 -268.20458984 158.16552734 C-269.64849618 145.37664267 -274.3570753 135.25837745 -284.35693359 126.97802734 C-298.80384879 116.30953612 -317.75101898 116.97386344 -331.64208984 128.29052734 Z M54.03759766 135.79833984 C46.2960766 145.59664878 42.95785981 156.86081212 44.35791016 169.29052734 C46.48227105 180.40256894 52.24507713 190.89730505 61.60791016 197.41552734 C72.39232146 204.26362852 82.88463962 207.05902137 95.64306641 204.67724609 C107.28979741 201.52610433 115.95890279 195.29323542 122.69775391 185.27490234 C128.83921254 174.2347273 130.06638563 162.86007522 126.85791016 150.72802734 C122.95189311 139.35022159 115.76953488 131.22208298 105.35791016 125.29052734 C87.31758313 116.75401871 67.46730271 121.2834061 54.03759766 135.79833984 Z M-298.64208984 252.29052734 C-300.98031307 274.81497393 -300.98031307 274.81497393 -293.26708984 293.10302734 C-288.8645203 296.77183529 -285.18379582 297.54025561 -279.520648 297.55058956 C-278.28250432 297.55765515 -277.04436063 297.56472074 -275.76869744 297.57200044 C-274.39761173 297.56974917 -273.02652634 297.56730268 -271.65544128 297.56468201 C-270.19664543 297.56913479 -268.73785199 297.57444896 -267.27906209 297.58055073 C-263.26962798 297.59473625 -259.26027136 297.59639392 -255.25081575 297.59595382 C-250.92690385 297.59760153 -246.60302393 297.61066711 -242.27912903 297.62214661 C-232.82464449 297.64499852 -223.37018239 297.65291728 -213.91567397 297.65797305 C-208.01270637 297.66122956 -202.1097453 297.66775172 -196.20678139 297.67497444 C-179.86396463 297.69453987 -163.52115393 297.71094466 -147.1783247 297.71385098 C-145.60955528 297.71413233 -145.60955528 297.71413233 -144.00909354 297.71441937 C-141.88890382 297.71478562 -139.76871409 297.71514932 -137.64852437 297.71551048 C-136.59605674 297.71569329 -135.5435891 297.7158761 -134.45922852 297.71606445 C-132.87860106 297.71633528 -132.87860106 297.71633528 -131.26604173 297.71661157 C-114.18714466 297.72015408 -97.1083736 297.74718152 -80.02952024 297.78456234 C-62.49604414 297.82263125 -44.96263061 297.84200834 -27.42911226 297.84231049 C-17.58416538 297.84289534 -7.73936888 297.85140559 2.10553932 297.88030815 C10.48760966 297.90480297 18.86947478 297.91211772 27.25157122 297.89706063 C31.52808496 297.88988417 35.80419331 297.89078065 40.08066177 297.91347122 C43.99723427 297.93405314 47.91308952 297.93146885 51.82965418 297.91059638 C53.24485167 297.90709994 54.66010084 297.91201822 56.07523058 297.92630082 C62.9881944 297.99156335 68.79919592 297.96797336 74.72239608 294.14391571 C85.41219484 282.03008011 80.35791016 268.71493842 80.35791016 252.29052734 C-44.71208984 252.29052734 -169.78208984 252.29052734 -298.64208984 252.29052734 Z M-144.64208984 309.29052734 C-143.98208984 313.91052734 -143.32208984 318.53052734 -142.64208984 323.29052734 C-142.46632162 327.48828606 -142.36005286 331.59902197 -142.39208984 335.79052734 C-142.38435547 336.80244141 -142.37662109 337.81435547 -142.36865234 338.85693359 C-142.38918575 346.97789405 -143.46767019 354.06958978 -144.64208984 362.29052734 C-121.21208984 362.29052734 -97.78208984 362.29052734 -73.64208984 362.29052734 C-74.63208984 354.37052734 -74.63208984 354.37052734 -75.64208984 346.29052734 C-75.81012544 342.75189548 -75.92640309 339.31907249 -75.89208984 335.79052734 C-75.90369141 334.5975 -75.90369141 334.5975 -75.91552734 333.38037109 C-75.88974995 325.14449421 -74.68534921 317.63660229 -73.64208984 309.29052734 C-97.07208984 309.29052734 -120.50208984 309.29052734 -144.64208984 309.29052734 Z M-182.95458984 379.60302734 C-184.91897618 382.73149447 -185.56813817 384.59294343 -185.64208984 388.29052734 C-184.45245027 392.60297081 -183.38178923 394.71754616 -179.8296051 397.46911621 C-174.44183266 400.34539069 -168.60027621 399.84770226 -162.6418457 399.80810547 C-161.34348282 399.81511475 -160.04511993 399.82212402 -158.70741272 399.8293457 C-155.1619295 399.8475105 -151.61691421 399.84054079 -148.07142329 399.82782936 C-144.353313 399.81766807 -140.63524147 399.8271035 -136.91712952 399.83337402 C-130.67555584 399.84064047 -124.43417181 399.83108829 -118.19262695 399.81201172 C-110.98462138 399.79023519 -103.77706827 399.79730375 -96.56907362 399.81931734 C-90.3701246 399.83748871 -84.17131151 399.84002152 -77.97234446 399.82956266 C-74.27440988 399.82333844 -70.57668779 399.82246256 -66.87876701 399.83570862 C-62.75655327 399.84944465 -58.63511578 399.83038932 -54.51293945 399.80810547 C-52.68229446 399.82025085 -52.68229446 399.82025085 -50.81466675 399.8326416 C-44.49107443 399.7692764 -40.38406453 399.66991627 -35.64208984 395.29052734 C-33.24841921 391.89305934 -32.38777633 389.32016295 -32.64208984 385.22802734 C-33.38647544 380.99635707 -35.22641319 378.92991385 -38.64208984 376.29052734 C-42.27751076 374.54545668 -45.15971631 374.03847723 -49.17625427 374.02983093 C-50.82693909 374.01920372 -50.82693909 374.01920372 -52.51097107 374.00836182 C-54.30728722 374.01207794 -54.30728722 374.01207794 -56.13989258 374.01586914 C-57.4087027 374.01075821 -58.67751282 374.00564728 -59.98477173 374.00038147 C-63.45793765 373.98701239 -66.93099461 373.98641043 -70.40418124 373.98894477 C-73.30673885 373.99001587 -76.20927453 373.98512758 -79.11182743 373.98033935 C-85.96088021 373.96925148 -92.80987814 373.96880275 -99.65893555 373.97485352 C-106.71799693 373.98089403 -113.77685903 373.96857878 -120.83588642 373.94728345 C-126.90313499 373.92965498 -132.97032019 373.92366803 -139.03759342 373.92692119 C-142.6584074 373.92873216 -146.2790792 373.92611659 -149.89986992 373.91220665 C-153.93834199 373.89727202 -157.97640958 373.90660925 -162.01489258 373.91821289 C-163.21041245 373.91056915 -164.40593231 373.90292542 -165.63768005 373.89505005 C-172.76819091 373.94038378 -177.69700033 374.34543783 -182.95458984 379.60302734 Z " fill="#ff4200" transform="translate(364.64208984375,94.70947265625)"/>
<path d="M0 0 C1.01449219 -0.03738281 2.02898437 -0.07476562 3.07421875 -0.11328125 C10.39141956 0.8488115 15.12209956 5.73631647 19.98046875 10.86328125 C21.21525545 12.13109253 22.45028857 13.39866384 23.68554688 14.66601562 C25.60560845 16.65473021 27.52137862 18.64734559 29.43237305 20.64477539 C31.29190463 22.5824485 33.1663252 24.50469864 35.04296875 26.42578125 C35.8977607 27.33339958 35.8977607 27.33339958 36.76982117 28.25935364 C38.53983382 30.12155637 38.53983382 30.12155637 41.3125 32.3125 C44.54589026 31.85101085 47.42240231 30.47625693 50.4375 29.25 C59.21303453 26.0525313 66.80591432 26.5190226 75.3125 30.3125 C82.84749289 34.38139616 88.80462244 41.09223467 91.3125 49.3125 C92.91724287 58.17229888 92.31535056 65.42955194 88.25854492 73.46020508 C87.89508469 74.18138016 87.53162445 74.90255524 87.15715027 75.64558411 C86.73904839 76.47070747 86.73904839 76.47070747 86.3125 77.3125 C87.17004883 78.15433838 88.02759766 78.99617676 88.91113281 79.86352539 C92.10944636 83.00728548 95.29761375 86.16117122 98.48291016 89.31811523 C99.85942021 90.67959647 101.23861827 92.03836586 102.62060547 93.39428711 C104.61368838 95.35072718 106.59670233 97.31691617 108.578125 99.28515625 C109.19181946 99.88336685 109.80551392 100.48157745 110.43780518 101.09791565 C114.80767075 105.4660749 118.62376514 109.89732507 119.87890625 116.12109375 C119.86904754 122.75600713 118.87919909 127.34767842 114.3125 132.3125 C109.91086819 135.96491788 107.08276446 136.41708302 101.4375 136.5 C70.95929154 137.95134326 33.46487491 159.74989841 8.3125 176.3125 C12.92122732 181.86909884 17.86472005 186.92398045 23.03515625 191.95703125 C24.72521061 193.61983184 26.41464488 195.28326287 28.10351562 196.94726562 C30.73959578 199.54015146 33.37913858 202.12902592 36.02954102 204.70727539 C38.6056413 207.2163832 41.16519016 209.74145034 43.72265625 212.26953125 C44.90251854 213.40597832 44.90251854 213.40597832 46.10621643 214.56538391 C51.89497667 220.32598055 56.31608135 226.43590992 57.9765625 234.5625 C57.8614825 242.66413189 56.26470168 249.25074902 50.48046875 255.1953125 C43.80876027 260.64321647 37.50949289 261.68141374 29.09765625 261.08984375 C19.64043884 258.45031182 13.27593301 251.81679345 6.58984375 244.98046875 C5.5946789 243.9778265 4.59861456 242.97607633 3.60169983 241.97517395 C1.00353628 239.36187195 -1.58237814 236.73677985 -4.16577148 234.10888672 C-6.81338868 231.42005988 -9.47262851 228.74278017 -12.13085938 226.06445312 C-17.32773087 220.82491938 -22.5116931 215.57285212 -27.6875 210.3125 C-28.29005615 210.52403214 -28.8926123 210.73556427 -29.51342773 210.95350647 C-30.71140991 211.36529396 -30.71140991 211.36529396 -31.93359375 211.78540039 C-32.7217749 212.05880753 -33.50995605 212.33221466 -34.32202148 212.61390686 C-41.46587722 214.72369081 -50.78318956 214.53090282 -57.6875 211.75 C-66.17346136 206.93905276 -73.0420227 199.22043984 -79.9375 192.4375 C-80.82179688 191.59058594 -81.70609375 190.74367187 -82.6171875 189.87109375 C-90.26912781 182.32318284 -94.20772193 175.38922648 -94.9375 164.625 C-94.72366999 153.27062646 -89.33415607 145.75003347 -81.43200684 138.07731628 C-79.79780818 136.51031351 -78.16135717 134.94570432 -76.52392578 133.38208008 C-65.44231633 122.79145795 -55.93063371 112.64547273 -48.96630859 98.82714844 C-47.60650149 96.15322458 -46.165218 93.53553231 -44.70703125 90.9140625 C-36.81382727 76.53594921 -30.55070237 61.61465887 -24.6875 46.3125 C-24.30625977 45.33458496 -23.92501953 44.35666992 -23.53222656 43.34912109 C-18.57102141 30.84257972 -18.57102141 30.84257972 -17.61328125 17.56640625 C-17.74034902 13.70755878 -16.73352407 10.56624661 -14.6875 7.3125 C-10.14415421 2.4957121 -6.67446854 0.15911531 0 0 Z M-3.5625 13.4375 C-5.07782017 15.96303361 -5.02991851 17.39400501 -4.6875 20.3125 C-3.10116106 22.64827735 -3.10116106 22.64827735 -0.81086731 24.81732178 C0.47828079 26.12545082 0.47828079 26.12545082 1.79347229 27.46000671 C2.75814682 28.41336495 3.72307546 29.36646611 4.68823242 30.31933594 C5.69593313 31.33217487 6.70256043 32.34608272 7.70819092 33.36097717 C10.44277488 36.11409667 13.19287129 38.85121869 15.94653869 41.58523464 C18.82543159 44.44775539 21.69172455 47.32284501 24.55989075 50.19610596 C29.37921975 55.01995787 34.20865491 59.83350977 39.04418945 64.64111328 C44.63469127 70.1995715 50.2089947 75.77387828 55.77485961 81.35699821 C61.12846257 86.72646584 66.49330044 92.08457032 71.86336708 97.43756866 C74.14884588 99.71617462 76.43031826 101.99868427 78.70866966 104.2844162 C81.39258934 106.97599767 84.08620191 109.65748826 86.78761292 112.33151054 C87.77748341 113.31449472 88.76397575 114.30089421 89.74680519 115.29091835 C91.08893568 116.64173785 92.44462475 117.9790456 93.8009491 119.31561279 C94.93337178 120.44382509 94.93337178 120.44382509 96.08867168 121.59482956 C98.58380968 123.52205782 100.17845973 124.12083168 103.3125 124.3125 C105.79231752 122.74945474 105.79231752 122.74945474 107.3125 120.3125 C106.38911609 111.98793544 95.45399397 104.28887459 89.89233398 98.69946289 C88.97436035 97.77331177 88.05638672 96.84716064 87.1105957 95.89294434 C84.09693256 92.85335845 81.07808195 89.81895404 78.05859375 86.78515625 C77.01395771 85.73515217 75.96932642 84.68514337 74.92469978 83.63512993 C70.58167151 79.27053537 66.23723109 74.90735462 61.88906765 70.5478754 C55.67714017 64.31966571 49.47390277 58.0830758 43.28227562 51.83468252 C38.91375803 47.42748934 34.53572029 43.0298994 30.15046936 38.63935655 C27.53622889 36.02146547 24.92632716 33.39956852 22.32653618 30.76732063 C19.43245193 27.8376121 16.51893753 24.92800629 13.60327148 22.01977539 C12.74752029 21.14761887 11.8917691 20.27546234 11.01008606 19.37687683 C10.21260956 18.58771881 9.41513306 17.79856079 8.5934906 16.98548889 C7.90755042 16.29623857 7.22161024 15.60698824 6.514884 14.89685154 C3.38536174 12.64553505 -0.08277321 11.34966393 -3.5625 13.4375 Z M-7.6875 36.3125 C-7.90253174 36.94414063 -8.11756348 37.57578125 -8.33911133 38.2265625 C-17.46066163 64.80375865 -28.3267076 93.70889207 -45.00439453 116.57617188 C-45.91759459 118.32596716 -45.91759459 118.32596716 -44.99108887 120.14593506 C-43.44061688 122.7228198 -41.64710635 124.59242351 -39.51318359 126.71386719 C-38.65244232 127.5744574 -37.79170105 128.43504761 -36.90487671 129.32171631 C-35.97462677 130.24164368 -35.04437683 131.16157104 -34.0859375 132.109375 C-33.12428914 133.06729097 -32.16308306 134.02565114 -31.20230103 134.98443604 C-28.67826718 137.50085125 -26.14828409 140.01120107 -23.61700439 142.52032471 C-21.0327081 145.08412441 -18.45409801 147.65362918 -15.875 150.22265625 C-10.81804303 155.25819457 -5.75477744 160.2873456 -0.6875 165.3125 C3.01426449 163.86418876 6.43003932 162.22636355 9.90625 160.29296875 C33.57600369 147.27720911 57.67528135 135.99471449 83.3125 127.3125 C81.90557782 124.12905192 80.23626029 121.98519697 77.78259277 119.52862549 C77.05070236 118.79109543 76.31881195 118.05356537 75.56474304 117.29368591 C74.76156143 116.49455276 73.95837982 115.69541962 73.13085938 114.87207031 C72.28521927 114.02292557 71.43957916 113.17378082 70.5683136 112.29890442 C68.25187607 109.97517643 65.93099891 107.65600231 63.60774422 105.33909321 C61.17800505 102.91441945 58.75315142 100.48486776 56.32751465 98.05609131 C52.25562607 93.98056606 48.17954242 89.90927216 44.10107422 85.84033203 C39.3814265 81.13158289 34.66904675 76.41565217 29.96034956 71.69595456 C25.91897529 67.64551631 21.87373155 63.59897359 17.82520342 59.55568576 C15.4063465 57.13995157 12.98887242 54.72287522 10.57487488 52.30228424 C7.88609241 49.60845065 5.19103078 46.92106483 2.49414062 44.23535156 C1.69095901 43.42812149 0.8877774 42.62089142 0.06025696 41.78919983 C-1.03757866 40.69982368 -1.03757866 40.69982368 -2.15759277 39.58843994 C-2.79471947 38.9520673 -3.43184616 38.31569466 -4.08827972 37.66003799 C-5.59386234 36.09771105 -5.59386234 36.09771105 -7.6875 36.3125 Z M52.3125 42.3125 C53.87532982 46.07853869 56.2188475 48.44889151 59.1015625 51.296875 C59.56484955 51.75733215 60.0281366 52.21778931 60.50546265 52.69219971 C61.97815898 54.15375078 63.45767403 55.60817168 64.9375 57.0625 C65.94056322 58.05552611 66.94317257 59.04901089 67.9453125 60.04296875 C70.39580835 62.47147941 72.8524667 64.89364675 75.3125 67.3125 C78.67034032 64.2466458 79.26013549 62.11105877 79.5625 57.5 C79.46377912 52.59088009 78.18686919 49.1651751 74.625 45.64453125 C70.27902847 41.83275205 67.82718478 40.1644751 61.9375 40.125 C60.98101562 40.11082031 60.02453125 40.09664062 59.0390625 40.08203125 C56.28239983 40.31504428 54.66302605 40.90329836 52.3125 42.3125 Z M-59.9296875 134.3515625 C-60.45386261 134.87003754 -60.97803772 135.38851257 -61.51809692 135.92269897 C-62.6308394 137.02596989 -63.74211367 138.13072323 -64.85205078 139.23681641 C-66.54140937 140.91652979 -68.24112153 142.58526393 -69.94140625 144.25390625 C-71.02149531 145.3274594 -72.10094268 146.40165861 -73.1796875 147.4765625 C-73.93921219 148.21756699 -73.93921219 148.21756699 -74.71408081 148.97354126 C-78.46733253 152.75040481 -81.25537527 156.53334488 -82.0859375 161.875 C-82.07820313 162.679375 -82.07046875 163.48375 -82.0625 164.3125 C-82.07023437 165.116875 -82.07796875 165.92125 -82.0859375 166.75 C-80.83101066 174.820902 -74.53150477 179.95994899 -69.01904297 185.42700195 C-67.44344941 186.99408273 -65.88743017 188.578919 -64.33203125 190.16601562 C-63.32144449 191.17821479 -62.30976061 192.18932 -61.296875 193.19921875 C-60.38905273 194.10889404 -59.48123047 195.01856934 -58.54589844 195.95581055 C-52.99244607 200.53451534 -47.79496418 201.98940135 -40.6875 201.3125 C-28.43245446 195.99123023 -18.94015087 183.67893317 -9.6875 174.3125 C-14.37152713 168.6868988 -19.3695874 163.48444247 -24.55078125 158.31640625 C-25.3833696 157.48286118 -26.21595795 156.6493161 -27.07377625 155.79051208 C-28.82147467 154.04213672 -30.5704223 152.29500926 -32.32055664 150.54907227 C-35.01239628 147.86262856 -37.69880787 145.17083878 -40.38476562 142.47851562 C-42.08561659 140.77832473 -43.78677733 139.07844368 -45.48828125 137.37890625 C-46.29550125 136.56966202 -47.10272125 135.76041779 -47.93440247 134.926651 C-48.67574936 134.18845627 -49.41709625 133.45026154 -50.1809082 132.68969727 C-50.83565628 132.03574478 -51.49040436 131.3817923 -52.16499329 130.70802307 C-55.44790726 127.69891832 -57.44127096 131.88386599 -59.9296875 134.3515625 Z M-5.29150391 186.68945312 C-5.90944824 187.31787109 -6.52739258 187.94628906 -7.1640625 188.59375 C-7.834375 189.27050781 -8.5046875 189.94726562 -9.1953125 190.64453125 C-10.24332031 191.71767578 -10.24332031 191.71767578 -11.3125 192.8125 C-12.01890625 193.52792969 -12.7253125 194.24335938 -13.453125 194.98046875 C-15.20246001 196.75344342 -16.94611122 198.5317302 -18.6875 200.3125 C-14.0382008 205.88888472 -9.09354536 211.06714873 -3.96484375 216.203125 C-3.1417421 217.02955505 -2.31864044 217.85598511 -1.47059631 218.7074585 C0.26023357 220.44332603 1.99239885 222.17786297 3.72583008 223.91113281 C6.37544689 226.56294726 9.01695015 229.22267065 11.65820312 231.8828125 C13.3458642 233.57340592 15.03399901 235.26352659 16.72265625 236.953125 C17.50923111 237.74688538 18.29580597 238.54064575 19.10621643 239.35845947 C19.8472612 240.09642761 20.58830597 240.83439575 21.35180664 241.59472656 C21.99767227 242.24201721 22.6435379 242.88930786 23.30897522 243.55621338 C26.69820482 246.52720663 29.29522534 248.20350629 33.8125 248.6875 C37.62427679 248.27909534 39.38041771 247.75590191 42.3125 245.3125 C44.49637015 242.10949045 45.26531092 239.9259581 45.5625 236.0625 C44.26006974 232.15520921 43.03697582 230.62224827 40.29077148 227.64501953 C39.47687958 226.76235413 38.66298767 225.87968872 37.82443237 224.97027588 C34.07550973 221.00368972 30.26652353 217.10422678 26.41015625 213.2421875 C25.60638046 212.43508331 24.80260468 211.62797913 23.97447205 210.79641724 C22.29604966 209.11298031 20.61631532 207.43085046 18.93530273 205.75 C16.35177655 203.16425662 13.77639145 200.57057573 11.20117188 197.9765625 C9.56298824 196.33544999 7.92433375 194.69480732 6.28515625 193.0546875 C5.51438248 192.27672821 4.7436087 191.49876892 3.94947815 190.69723511 C3.23791061 189.9887442 2.52634308 189.2802533 1.79321289 188.55029297 C1.16749893 187.92315399 0.54178497 187.29601501 -0.10289001 186.64987183 C-2.31103722 184.78624994 -3.10177011 184.80968165 -5.29150391 186.68945312 Z " fill="#ff4200" transform="translate(197.6875,42.6875)"/>
<path d="M0 0 C2.03214282 0.59728727 2.03214282 0.59728727 4.66015625 -0.54296875 C10.43061143 -2.46645381 15.33564468 -1.93300946 20.859375 0.3515625 C26.45479865 3.2866865 30.85656523 7.3041352 32.84765625 13.39453125 C34.04368838 21.13514368 32.22442596 26.99552304 27.84765625 33.39453125 C24.40247289 37.63216298 20.71146996 41.53958531 16.84765625 45.39453125 C16.1220752 46.13195557 16.1220752 46.13195557 15.38183594 46.88427734 C6.32857868 56.00773855 6.32857868 56.00773855 -1.15234375 56.39453125 C-5.69987704 54.64547999 -8.78201508 50.86933729 -12.11328125 47.42578125 C-13.88827804 45.65758521 -15.68600356 44.12637149 -17.65234375 42.58203125 C-23.89364152 37.35942806 -30.21905783 29.43918542 -31.48828125 21.21875 C-31.59418763 15.42567084 -30.51242554 11.16334299 -27.15234375 6.39453125 C-19.30142642 -1.63481602 -10.65671994 -2.99780688 0 0 Z M-16.08984375 13.51953125 C-18.2741031 16.21160982 -18.2741031 16.21160982 -18.90234375 19.14453125 C-16.73618928 28.53120062 -7.13397944 35.34714699 -0.15234375 41.39453125 C4.10082609 39.6911733 7.10710278 36.65472554 10.41015625 33.58203125 C10.98701172 33.06060547 11.56386719 32.53917969 12.15820312 32.00195312 C16.17913747 28.28711067 19.41634 24.98242874 20.34765625 19.39453125 C19.65365131 15.23050162 18.23997905 13.848552 14.84765625 11.39453125 C11.0839676 10.86629425 8.91360225 10.61929779 5.78515625 12.89453125 C5.14578125 13.38953125 4.50640625 13.88453125 3.84765625 14.39453125 C0.46099483 14.81786393 -1.34416242 15.02022002 -4.08984375 12.89453125 C-8.29777492 9.83421768 -12.06809929 10.61018419 -16.08984375 13.51953125 Z " fill="#ff4200" transform="translate(450.15234375,230.60546875)"/>
<path d="M0 0 C1.39665894 0.80546265 1.39665894 0.80546265 2.8215332 1.62719727 C3.78679932 2.17126221 4.75206543 2.71532715 5.74658203 3.27587891 C8.61347013 4.89929747 11.46741337 6.5439688 14.3215332 8.18969727 C15.87704348 9.06554905 17.43298987 9.94062706 18.98950195 10.81469727 C20.33051959 11.58348657 21.67045208 12.35417341 23.0090332 13.12719727 C23.61360352 13.4674292 24.21817383 13.80766113 24.84106445 14.15820312 C28.48853589 16.32176867 30.58505031 18.30241276 32.3215332 22.18969727 C32.52999712 28.75631052 32.52999712 28.75631052 30.05834961 31.68798828 C24.96582048 35.98751832 19.45637116 39.09411127 13.5715332 42.18969727 C12.64598633 42.68469727 11.72043945 43.17969727 10.7668457 43.68969727 C8.90126968 44.68744266 7.03285904 45.67990642 5.16162109 46.66699219 C3.20189449 47.71769406 1.25637285 48.795176 -0.67675781 49.89404297 C-1.64282959 50.4414917 -2.60890137 50.98894043 -3.60424805 51.55297852 C-4.47218994 52.0535376 -5.34013184 52.55409668 -6.234375 53.06982422 C-10.28391599 54.92530764 -12.47258211 54.59165883 -16.6784668 53.18969727 C-19.68782327 50.25750378 -21.49807815 47.60046492 -21.81890869 43.31278992 C-21.82573669 42.60918839 -21.8325647 41.90558685 -21.83959961 41.18066406 C-21.84920715 40.37940598 -21.8588147 39.57814789 -21.86871338 38.75260925 C-21.87296326 37.89009048 -21.87721313 37.02757172 -21.8815918 36.13891602 C-21.88729187 35.24735306 -21.89299194 34.3557901 -21.89886475 33.43721008 C-21.90831029 31.55011175 -21.91484696 29.66299695 -21.91870117 27.77587891 C-21.92839486 24.89854906 -21.95941735 22.02193725 -21.9909668 19.14477539 C-21.99749837 17.30949316 -22.00274824 15.47420584 -22.0065918 13.63891602 C-22.0189386 12.78246994 -22.0312854 11.92602386 -22.04400635 11.04362488 C-22.02535606 6.00545014 -21.46314851 2.56311949 -18.6784668 -1.81030273 C-12.56680163 -6.61232536 -5.88335398 -3.26051989 0 0 Z M-8.6784668 11.18969727 C-8.6784668 20.42969727 -8.6784668 29.66969727 -8.6784668 39.18969727 C4.25811811 32.93915355 4.25811811 32.93915355 16.3215332 25.18969727 C11.95260607 21.39679501 7.17834419 18.70943866 2.1340332 15.93969727 C1.31483398 15.48079102 0.49563477 15.02188477 -0.34838867 14.54907227 C-4.29152324 12.1046298 -4.29152324 12.1046298 -8.6784668 11.18969727 Z " fill="#ff4200" transform="translate(57.678466796875,227.810302734375)"/>
<path d="M0 0 C1.1177758 -0.01029488 1.1177758 -0.01029488 2.25813293 -0.02079773 C4.71720522 -0.03907409 7.17564011 -0.03522764 9.63476562 -0.02954102 C11.34582731 -0.03410207 13.05688716 -0.03940741 14.76794434 -0.04542542 C18.35237068 -0.05435786 21.93657423 -0.0519315 25.52099609 -0.04199219 C30.11464659 -0.0304956 34.70752919 -0.05072344 39.3010788 -0.07990932 C42.83385095 -0.09825282 46.36643839 -0.09798271 49.89924622 -0.0922718 C51.59293191 -0.0921184 53.28662997 -0.09817876 54.98027039 -0.11056328 C57.34801479 -0.1254391 59.71433159 -0.11482335 62.08203125 -0.09765625 C62.78137283 -0.10732422 63.48071442 -0.11699219 64.20124817 -0.12695312 C67.52424039 -0.0764924 69.29642048 0.22505414 72.00720215 2.20884705 C73.54101562 4.40405273 73.54101562 4.40405273 73.54101562 8.02905273 C72.54101562 11.40405273 72.54101562 11.40405273 70.93797302 12.59584045 C67.68920687 13.69126781 64.57979242 13.70717606 61.18969727 13.71044922 C60.08896126 13.72293449 60.08896126 13.72293449 58.96598816 13.735672 C56.54432852 13.75973398 54.12293831 13.7685386 51.70117188 13.77514648 C50.01492737 13.78411453 48.32868367 13.79323641 46.6424408 13.80250549 C43.10934516 13.81898684 39.57634421 13.82669425 36.04321289 13.82958984 C31.51907179 13.83497803 26.99582171 13.8726789 22.47193241 13.91833401 C18.98974871 13.94809333 15.50778009 13.95531312 12.02548027 13.95631599 C10.35771025 13.96051926 8.68993966 13.97295796 7.022295 13.99383354 C4.68810756 14.0207313 2.35599247 14.01592972 0.02172852 14.00341797 C-0.66466705 14.01825226 -1.35106262 14.03308655 -2.05825806 14.04837036 C-5.87635636 13.99017432 -7.40118578 13.45034011 -10.42262268 11.03065491 C-12.45898438 8.40405273 -12.45898438 8.40405273 -12.52148438 5.77905273 C-9.98415768 0.10738129 -5.65345124 -0.03639115 0 0 Z " fill="#ff4200" transform="translate(373.458984375,115.595947265625)"/>
<path d="M0 0 C1.66699196 -0.01429802 1.66699196 -0.01429802 3.36766052 -0.02888489 C5.17545738 -0.02751778 5.17545738 -0.02751778 7.01977539 -0.02612305 C8.25280899 -0.03040817 9.48584259 -0.0346933 10.75624084 -0.03910828 C14.03817875 -0.04633604 17.31993422 -0.04321695 20.60186768 -0.03753662 C22.6139247 -0.03784127 24.62568728 -0.04787627 26.63769531 -0.06152344 C30.49436358 -0.08595224 34.35053958 -0.09018108 38.20727539 -0.08862305 C40.0120359 -0.10243767 40.0120359 -0.10243767 41.85325623 -0.11653137 C43.52497643 -0.10718819 43.52497643 -0.10718819 45.23046875 -0.09765625 C46.70367836 -0.09860039 46.70367836 -0.09860039 48.20664978 -0.0995636 C50.67993164 0.2746582 50.67993164 0.2746582 52.52833557 1.57527161 C53.67993164 3.2746582 53.67993164 3.2746582 53.55493164 6.8371582 C52.67993164 10.2746582 52.67993164 10.2746582 49.67993164 12.2746582 C47.29603577 12.54208374 47.29603577 12.54208374 44.44580078 12.56518555 C43.37781754 12.57794525 42.30983429 12.59070496 41.20948792 12.60385132 C39.4797599 12.60718979 39.4797599 12.60718979 37.71508789 12.6105957 C36.530233 12.6172525 35.34537811 12.6239093 34.12461853 12.63076782 C31.61711176 12.64089975 29.109578 12.64558468 26.60205078 12.64526367 C22.761024 12.64963703 18.92114567 12.68595384 15.08032227 12.72387695 C12.64608141 12.72974484 10.21183509 12.73371442 7.77758789 12.7355957 C6.62646011 12.74996674 5.47533234 12.76433777 4.2893219 12.77914429 C3.21818649 12.77299103 2.14705109 12.76683777 1.04345703 12.76049805 C-0.36860268 12.7647731 -0.36860268 12.7647731 -1.80918884 12.76913452 C-5.09212652 12.12261408 -6.30852029 10.90289133 -8.32006836 8.2746582 C-8.06062073 1.78846756 -6.31254517 0.02963727 0 0 Z " fill="#ff4200" transform="translate(393.320068359375,138.725341796875)"/>
<path d="M0 0 C1.14257263 -0.00287018 1.14257263 -0.00287018 2.30822754 -0.00579834 C3.91528657 -0.00715656 5.52235671 -0.0034855 7.12939453 0.00488281 C9.58521232 0.01558778 12.04029864 0.00497554 14.49609375 -0.0078125 C16.05989744 -0.00649084 17.62370068 -0.00392831 19.1875 0 C19.91988892 -0.00404846 20.65227783 -0.00809692 21.40686035 -0.01226807 C25.09624646 0.02156266 28.02156884 0.09443844 31.09375 2.265625 C32.50816874 5.09446247 32.41275332 7.13939245 32.09375 10.265625 C29.61115558 13.02374856 28.03255649 13.27215383 24.30664062 13.66967773 C22.78795928 13.69615439 21.26890126 13.7049638 19.75 13.69921875 C18.54083923 13.70708153 18.54083923 13.70708153 17.30725098 13.71510315 C15.60605011 13.72151528 13.90480486 13.72019679 12.20361328 13.71166992 C9.60238726 13.70315328 7.00335326 13.73194025 4.40234375 13.76367188 C2.74739649 13.76528389 1.09244535 13.76470635 -0.5625 13.76171875 C-1.33863647 13.77295273 -2.11477295 13.78418671 -2.91442871 13.79576111 C-6.43940387 13.75031077 -8.52621978 13.53758505 -11.42773438 11.46118164 C-12.90625 9.265625 -12.90625 9.265625 -12.90625 5.640625 C-11.90625 2.265625 -11.90625 2.265625 -10.33789062 1.07128906 C-6.9062375 -0.06570444 -3.57493257 -0.01976133 0 0 Z " fill="#ff4200" transform="translate(245.90625,362.734375)"/>
<path d="M0 0 C2 2 2 2 2.375 5.4375 C2 9 2 9 0.45483398 10.59057617 C-2.7654106 12.43945454 -6.0697554 13.27366909 -9.65234375 14.11328125 C-10.38949112 14.29134811 -11.12663849 14.46941498 -11.88612366 14.65287781 C-13.44072182 15.02494625 -14.99654307 15.39193652 -16.5534668 15.75415039 C-18.93036636 16.31082927 -21.2998166 16.89367168 -23.66992188 17.47851562 C-25.18451513 17.83754731 -26.69947851 18.19502196 -28.21484375 18.55078125 C-28.9201976 18.72668289 -29.62555145 18.90258453 -30.35227966 19.08381653 C-34.57063949 20.03588741 -37.20148145 20.15924465 -41 18 C-43 16 -43 16 -43.0625 12.5625 C-42 9 -42 9 -39.34375 7.51171875 C-33.8605204 5.41043258 -28.11089551 4.09977829 -22.41137695 2.72802734 C-20.43554399 2.2495263 -18.46505988 1.75220952 -16.49414062 1.25390625 C-15.23666016 0.94839844 -13.97917969 0.64289063 -12.68359375 0.328125 C-11.54462646 0.0487207 -10.40565918 -0.23068359 -9.23217773 -0.51855469 C-5.80890267 -1.02846468 -3.33916708 -0.8732604 0 0 Z " fill="#ff4200" transform="translate(352,64)"/>
<path d="M0 0 C2 2 2 2 2.33203125 5.69921875 C2.1889599 11.91349175 0.66942721 17.84155241 -0.82592773 23.84936523 C-1.31502499 25.82268738 -1.78244705 27.80031431 -2.24804688 29.77929688 C-4.87739877 40.55687189 -4.87739877 40.55687189 -8 44 C-9.875 44.9375 -9.875 44.9375 -12 45 C-14.24356294 43.85213059 -16.2095767 42.7904233 -18 41 C-17.53361779 33.52180248 -15.8560444 26.36549269 -14.09863281 19.09570312 C-13.62155981 17.11068596 -13.16211148 15.12207945 -12.703125 13.1328125 C-12.40148437 11.8746875 -12.09984375 10.6165625 -11.7890625 9.3203125 C-11.51787598 8.17836426 -11.24668945 7.03641602 -10.96728516 5.85986328 C-8.91835669 -0.19797317 -6.16957093 -0.56087008 0 0 Z " fill="#ff4200" transform="translate(294,6)"/>
<path d="M0 0 C1 1 1 1 1.36376953 4.20532227 C0.90503114 8.99067181 -0.45774491 10.34671384 -3.8203125 13.71484375 C-4.31659149 14.21544815 -4.81287048 14.71605255 -5.32418823 15.23182678 C-6.37332986 16.28134844 -7.43118665 17.32222198 -8.49707031 18.35473633 C-10.1224207 19.93499226 -11.71014325 21.54708718 -13.296875 23.16601562 C-14.32345603 24.18437736 -15.35203874 25.20072606 -16.3828125 26.21484375 C-17.31496582 27.13386475 -18.24711914 28.05288574 -19.20751953 28.99975586 C-22.4752868 31.3404463 -24.06714384 31.51963686 -28 31 C-29.875 29.9375 -29.875 29.9375 -31 28 C-31.46840837 23.78526591 -31.50559884 21.71749089 -29.02807617 18.20166016 C-28.12549072 17.32300293 -27.22290527 16.4443457 -26.29296875 15.5390625 C-25.81177078 15.06302582 -25.33057281 14.58698914 -24.83479309 14.0965271 C-23.81973734 13.09854482 -22.79638673 12.10893706 -21.76538086 11.12744141 C-20.186954 9.6244801 -18.63404893 8.0985524 -17.08398438 6.56640625 C-7.40094992 -2.89602388 -7.40094992 -2.89602388 0 0 Z " fill="#ff4200" transform="translate(324,36)"/>
</svg>
