<?xml version="1.0" encoding="UTF-8"?>
<svg version="1.1" xmlns="http://www.w3.org/2000/svg" width="512" height="512">
<path d="M0 0 C3.07838541 2.77746002 6.08804675 5.61299063 9.08203125 8.48046875 C9.64180664 9.00769531 10.20158203 9.53492188 10.77832031 10.078125 C45.38370508 42.77064931 65.76510857 89.63346106 67.40234375 137.11328125 C68.49155989 182.15731964 55.41945009 224.55672712 28.08203125 260.48046875 C27.39882813 261.38925781 26.715625 262.29804688 26.01171875 263.234375 C16.6243177 275.20955771 5.41424431 286.55971049 -6.91796875 295.48046875 C-7.86285156 296.18042969 -8.80773437 296.88039063 -9.78125 297.6015625 C-35.98554278 316.43079903 -66.79733708 328.90314166 -98.91796875 332.48046875 C-99.90410156 332.59261719 -100.89023437 332.70476562 -101.90625 332.8203125 C-152.19116406 337.58140034 -202.26317201 322.87009851 -241.34863281 290.80029297 C-277.77354797 260.16664466 -303.9376062 215.52603334 -308.72998047 167.66357422 C-312.78387571 120.58574138 -302.78189701 74.23565468 -274.91796875 35.48046875 C-274.26828125 34.54589844 -273.61859375 33.61132812 -272.94921875 32.6484375 C-244.85323653 -6.50771682 -200.65897712 -33.05153453 -153.29492188 -41.14501953 C-99.11816776 -49.68108576 -41.92195835 -36.19767488 0 0 Z M-132.41796875 -26.01953125 C-133.45953125 -25.92671875 -134.50109375 -25.83390625 -135.57421875 -25.73828125 C-136.34765625 -25.66609375 -137.12109375 -25.59390625 -137.91796875 -25.51953125 C-135.13301199 -23.29019394 -132.2248922 -21.52704098 -129.09667969 -19.81860352 C-119.02986667 -14.31237837 -110.72265067 -7.41785868 -102.33984375 0.40234375 C-99.65373292 2.70720014 -96.8946786 4.57055665 -93.91796875 6.48046875 C-82.15542425 -5.73790961 -82.15542425 -5.73790961 -75.91796875 -20.51953125 C-94.35534319 -24.95138555 -113.43192725 -27.74553502 -132.41796875 -26.01953125 Z M-177.91796875 -15.51953125 C-175.14581233 -6.52542375 -171.43474905 2.06327835 -167.79296875 10.73046875 C-167.11822855 12.34269826 -166.4436689 13.95500335 -165.76928711 15.56738281 C-160.88462503 27.23331569 -155.94435732 38.8748236 -150.91796875 50.48046875 C-134.77643604 42.18918965 -120.62108047 32.39621807 -106.91796875 20.48046875 C-112.86232392 6.25875881 -134.77164864 -5.08464296 -148.51953125 -11.09375 C-156.17756709 -14.11029008 -162.48211278 -15.68464238 -170.73046875 -15.58203125 C-171.42333984 -15.57751953 -172.11621094 -15.57300781 -172.83007812 -15.56835938 C-174.52607943 -15.55666281 -176.22203578 -15.53873049 -177.91796875 -15.51953125 Z M-58.91796875 -14.51953125 C-59.4284375 -13.62234375 -59.93890625 -12.72515625 -60.46484375 -11.80078125 C-66.57555564 -1.2487714 -73.24783654 9.81033654 -81.91796875 18.48046875 C-81.78180766 22.78899477 -78.44314574 25.68407482 -75.79296875 28.79296875 C-58.34434812 50.00069385 -45.16883593 74.53001624 -33.91796875 99.48046875 C-19.13933412 93.65459274 -4.419765 87.68219292 10.27005005 81.63619995 C12.1478843 80.86440545 14.02669507 80.09498271 15.90646362 79.32791138 C18.57189853 78.2394729 21.23359691 77.14235574 23.89453125 76.04296875 C24.70696793 75.71312485 25.5194046 75.38328094 26.35646057 75.04344177 C30.43714061 73.62135562 30.43714061 73.62135562 33.08203125 70.48046875 C32.10717186 68.19960725 31.07552349 66.09123798 29.89453125 63.91796875 C29.53649414 63.25684082 29.17845703 62.59571289 28.80957031 61.91455078 C21.64095531 49.03335149 12.84367991 37.46663792 2.53027344 26.95947266 C1.11770062 25.51689576 -0.27159485 24.0516412 -1.66015625 22.5859375 C-13.62563052 10.18693155 -27.45903358 0.84697524 -42.60546875 -7.26953125 C-43.30639648 -7.6466626 -44.00732422 -8.02379395 -44.72949219 -8.41235352 C-49.35271921 -10.84417093 -53.99405652 -12.77322792 -58.91796875 -14.51953125 Z M-199.91796875 -4.51953125 C-214.87951254 12.26086688 -220.21296455 36.01855799 -219.98046875 57.98046875 C-219.97595703 58.80289063 -219.97144531 59.6253125 -219.96679688 60.47265625 C-219.95515364 62.47529271 -219.93722431 64.47789102 -219.91796875 66.48046875 C-205.671128 67.16008836 -192.21859493 64.47673502 -178.48046875 60.91796875 C-177.26399658 60.60339722 -177.26399658 60.60339722 -176.02294922 60.2824707 C-172.57033405 59.34952061 -169.91636331 58.47939846 -166.91796875 56.48046875 C-175.79268169 34.75993947 -184.69331021 13.0553242 -193.91796875 -8.51953125 C-196.17956866 -8.51953125 -198.33432807 -5.87693754 -199.91796875 -4.51953125 Z M-230.91796875 13.48046875 C-243.46916949 24.77824324 -254.60706303 36.30854472 -263.91796875 50.48046875 C-264.42457031 51.23585937 -264.93117188 51.99125 -265.453125 52.76953125 C-268.2255064 56.77630211 -268.2255064 56.77630211 -268.91796875 61.48046875 C-253.54227032 64.8252578 -253.54227032 64.8252578 -237.91796875 66.48046875 C-237.19206815 62.78213036 -236.7957046 59.13774893 -236.55859375 55.3828125 C-235.82076539 43.89667189 -234.49187334 33.04148447 -231.50683594 21.90600586 C-231.28801758 21.08753174 -231.06919922 20.26905762 -230.84375 19.42578125 C-230.64177002 18.70922363 -230.43979004 17.99266602 -230.23168945 17.25439453 C-229.71879498 15.38203029 -229.71879498 15.38203029 -230.91796875 13.48046875 Z M-98.85546875 36.16796875 C-112.45004239 48.45315003 -127.89907317 57.72332554 -143.91796875 66.48046875 C-141.93803414 72.69224541 -139.67414905 78.71993575 -137.15234375 84.73046875 C-136.79585754 85.58745361 -136.43937134 86.44443848 -136.07208252 87.32739258 C-134.94034353 90.04633176 -133.80430134 92.76344664 -132.66796875 95.48046875 C-131.92157592 97.27070867 -131.17548003 99.06107242 -130.4296875 100.8515625 C-129.32776435 103.4969042 -128.22561618 106.14214909 -127.12219238 108.78686523 C-123.69351164 117.00687278 -120.30052567 125.24139157 -116.91796875 133.48046875 C-110.70619209 131.50053414 -104.67850175 129.23664905 -98.66796875 126.71484375 C-97.81098389 126.35835754 -96.95399902 126.00187134 -96.07104492 125.63458252 C-93.35210574 124.50284353 -90.63499086 123.36680134 -87.91796875 122.23046875 C-86.12772883 121.48407592 -84.33736508 120.73798003 -82.546875 119.9921875 C-79.9015333 118.89026435 -77.25628841 117.78811618 -74.61157227 116.68469238 C-66.39156472 113.25601164 -58.15704593 109.86302567 -49.91796875 106.48046875 C-58.66876406 79.66511106 -75.95362762 54.06724903 -93.91796875 32.48046875 C-95.87870315 32.48046875 -97.54318811 34.91849813 -98.85546875 36.16796875 Z M-168.1081543 75.05566406 C-182.75118165 79.71151677 -197.97181346 82.6544525 -213.3359375 83.3046875 C-216.03459794 83.37986651 -216.03459794 83.37986651 -218.91796875 84.48046875 C-218.44639371 112.86071233 -210.04139961 141.14981444 -199.91796875 167.48046875 C-196.53439153 166.88507904 -193.5344553 166.03915121 -190.36572266 164.71801758 C-189.4935611 164.35706497 -188.62139954 163.99611237 -187.72280884 163.6242218 C-186.32281143 163.03679451 -186.32281143 163.03679451 -184.89453125 162.4375 C-183.91616302 162.03142014 -182.9377948 161.62534027 -181.92977905 161.20695496 C-178.799039 159.90657963 -175.67092665 158.60002035 -172.54296875 157.29296875 C-169.45815741 156.00831578 -166.37280918 154.72496694 -163.28704834 153.44259644 C-161.28678601 152.6106137 -159.28730406 151.77675209 -157.28863525 150.94094849 C-152.92190013 149.11908233 -148.55264904 147.32126187 -144.13183594 145.63427734 C-143.4249765 145.36266281 -142.71811707 145.09104828 -141.98983765 144.811203 C-140.15239198 144.11125126 -138.30956254 143.42547677 -136.46630859 142.7409668 C-135.62535645 142.32500244 -134.7844043 141.90903809 -133.91796875 141.48046875 C-132.75800458 138.00057623 -133.05845741 137.47187196 -134.42163086 134.21875 C-134.77627914 133.35934814 -135.13092743 132.49994629 -135.49632263 131.61450195 C-135.89198929 130.683396 -136.28765594 129.75229004 -136.6953125 128.79296875 C-137.09947891 127.82125732 -137.50364532 126.8495459 -137.9200592 125.84838867 C-139.22295853 122.72194241 -140.5390181 119.60122975 -141.85546875 116.48046875 C-142.7085489 114.43916403 -143.5607718 112.39750083 -144.41210938 110.35546875 C-146.90166185 104.39189243 -149.4083748 98.43563283 -151.91796875 92.48046875 C-152.72293048 90.56775524 -153.52778356 88.654996 -154.33251953 86.7421875 C-156.19288487 82.32100217 -158.05489182 77.90051207 -159.91796875 73.48046875 C-162.94846525 73.48046875 -165.24390115 74.14282891 -168.1081543 75.05566406 Z M-277.91796875 76.48046875 C-295.15029518 116.6300128 -296.7507386 159.98215921 -282.91796875 201.48046875 C-277.51034214 200.8631795 -272.99339952 199.04769552 -268.03125 196.9453125 C-267.17476364 196.58836807 -266.31827728 196.23142365 -265.43583679 195.86366272 C-262.69817959 194.7210517 -259.96431644 193.5696604 -257.23046875 192.41796875 C-255.44360144 191.67064492 -253.65649393 190.92389513 -251.86914062 190.17773438 C-248.31855191 188.69505536 -244.77273863 187.20161238 -241.22900391 185.70263672 C-237.62997524 184.18512434 -234.01564321 182.71617549 -230.38427734 181.27783203 C-229.50370163 180.92338516 -228.62312592 180.56893829 -227.71586609 180.20375061 C-226.04128826 179.53072078 -224.36189834 178.86950714 -222.67732239 178.22190857 C-220.17192932 177.24662547 -220.17192932 177.24662547 -216.91796875 175.48046875 C-215.38677617 171.60524601 -216.46043847 169.11875865 -217.83203125 165.265625 C-218.2612085 164.03207275 -218.69038574 162.79852051 -219.13256836 161.52758789 C-219.36313934 160.87726593 -219.59371033 160.22694397 -219.83126831 159.55691528 C-224.37540575 146.69806438 -228.12367101 133.83596211 -230.91796875 120.48046875 C-231.20027344 119.21203125 -231.48257813 117.94359375 -231.7734375 116.63671875 C-234.11910863 105.68231552 -235.49801058 94.58597223 -236.91796875 83.48046875 C-237.52044434 83.41053711 -238.12291992 83.34060547 -238.74365234 83.26855469 C-252.00507163 81.70305786 -264.94787408 79.67036719 -277.91796875 76.48046875 Z M35.37036133 88.98999023 C34.579879 89.32159653 33.78939667 89.65320282 32.97496033 89.99485779 C31.6763784 90.54267662 31.6763784 90.54267662 30.3515625 91.1015625 C29.45679703 91.4772084 28.56203156 91.85285431 27.64015198 92.23988342 C24.72425276 93.46427153 21.8093471 94.69100401 18.89453125 95.91796875 C14.9562707 97.57420799 11.01747835 99.22917416 7.078125 100.8828125 C5.63418365 101.48897903 5.63418365 101.48897903 4.16107178 102.10739136 C-3.92158318 105.49444924 -12.02871835 108.81904545 -20.18823242 112.01733398 C-24.27973597 113.36737916 -24.27973597 113.36737916 -26.91796875 116.48046875 C-26.20331272 119.12828634 -26.20331272 119.12828634 -25.046875 122.15234375 C-24.63759766 123.291875 -24.22832031 124.43140625 -23.80664062 125.60546875 C-22.92802845 128.00709496 -22.04783984 130.40814507 -21.16601562 132.80859375 C-20.75544922 133.95328125 -20.34488281 135.09796875 -19.921875 136.27734375 C-19.53845947 137.32245117 -19.15504395 138.36755859 -18.76000977 139.44433594 C-17.8699587 142.65357777 -17.61684068 145.16777067 -17.91796875 148.48046875 C-19.98046875 151.41796875 -19.98046875 151.41796875 -22.91796875 153.48046875 C-26.33809209 153.48046875 -28.71095002 153.39246339 -31.49414062 151.28955078 C-33.40626183 148.86005522 -34.13079781 146.47690619 -35.07421875 143.53515625 C-35.45707031 142.37628906 -35.83992188 141.21742188 -36.234375 140.0234375 C-37.02572107 137.5710482 -37.8147711 135.11791685 -38.6015625 132.6640625 C-38.98441406 131.50777344 -39.36726563 130.35148437 -39.76171875 129.16015625 C-40.10396484 128.09522949 -40.44621094 127.03030273 -40.79882812 125.93310547 C-41.16814453 125.12373535 -41.53746094 124.31436523 -41.91796875 123.48046875 C-45.39786127 122.32050458 -45.92656554 122.62095741 -49.1796875 123.98413086 C-50.03908936 124.33877914 -50.89849121 124.69342743 -51.78393555 125.05882263 C-52.7150415 125.45448929 -53.64614746 125.85015594 -54.60546875 126.2578125 C-55.57718018 126.66197891 -56.5488916 127.06614532 -57.55004883 127.4825592 C-60.67649509 128.78545853 -63.79720775 130.1015181 -66.91796875 131.41796875 C-68.95927347 132.2710489 -71.00093667 133.1232718 -73.04296875 133.97460938 C-79.00654507 136.46416185 -84.96280467 138.9708748 -90.91796875 141.48046875 C-92.83068226 142.28543048 -94.7434415 143.09028356 -96.65625 143.89501953 C-101.07743533 145.75538487 -105.49792543 147.61739182 -109.91796875 149.48046875 C-104.08366493 164.27048131 -98.08634964 178.98833385 -91.98046875 193.66796875 C-91.65223114 194.45909058 -91.32399353 195.2502124 -90.98580933 196.06530762 C-90.03981333 198.34402511 -89.09073522 200.62143282 -88.140625 202.8984375 C-87.85970001 203.57567368 -87.57877502 204.25290985 -87.28933716 204.95066833 C-85.64566989 208.87648659 -83.86368717 212.69548125 -81.91796875 216.48046875 C-80.98339844 216.238125 -80.04882812 215.99578125 -79.0859375 215.74609375 C-62.42300782 211.47056683 -46.08981003 208.02488864 -28.90649414 206.71411133 C-26.8456573 206.47197249 -24.91812729 206.02566106 -22.91796875 205.48046875 C-23.45188375 196.29475642 -23.45188375 196.29475642 -24.53515625 187.1640625 C-24.63908691 186.45572266 -24.74301758 185.74738281 -24.85009766 185.01757812 C-25.1552939 183.00168897 -25.4814956 180.9890139 -25.80859375 178.9765625 C-25.93189986 175.03517087 -25.43756214 173.47493008 -22.91796875 170.48046875 C-19.46086111 169.53762121 -17.06370117 169.1398456 -13.60546875 170.16796875 C-10.63504041 172.4783019 -10.00117753 175.02122233 -9.33959961 178.67260742 C-9.11348999 180.51689331 -9.11348999 180.51689331 -8.8828125 182.3984375 C-8.75743858 183.38521233 -8.75743858 183.38521233 -8.62953186 184.391922 C-8.36459558 186.48314096 -8.10931313 188.5753767 -7.85546875 190.66796875 C-7.59698655 192.77110666 -7.33638694 194.87391096 -7.07069397 196.97615051 C-6.83107245 198.87564281 -6.59883367 200.77606206 -6.36694336 202.67651367 C-6.21536103 205.37854765 -6.21536103 205.37854765 -4.91796875 206.48046875 C-3.08843003 206.81482557 -1.24858971 207.09311588 0.59375 207.34765625 C1.7386792 207.50975586 2.8836084 207.67185547 4.06323242 207.83886719 C5.28631104 208.0093457 6.50938965 208.17982422 7.76953125 208.35546875 C17.30523586 209.71976855 26.71730095 211.1955438 36.08203125 213.48046875 C41.84755683 197.72979177 46.83911732 182.17247034 49.08203125 165.48046875 C49.19417969 164.66191406 49.30632812 163.84335938 49.421875 163 C52.30530808 137.52309126 48.68111462 111.55790218 40.08203125 87.48046875 C38.37660292 87.48046875 36.92838388 88.33429726 35.37036133 88.98999023 Z M-130.95263672 158.09765625 C-131.81218964 158.452229 -132.67174255 158.80680176 -133.55734253 159.17211914 C-134.49877106 159.56262451 -135.44019958 159.95312988 -136.41015625 160.35546875 C-137.87196823 160.95959595 -137.87196823 160.95959595 -139.36331177 161.57592773 C-141.44355772 162.43602525 -143.52345163 163.29697462 -145.60302734 164.15869141 C-148.7163833 165.44873497 -151.83073586 166.7363443 -154.9453125 168.0234375 C-167.28961643 173.12846418 -179.61392579 178.27917295 -191.91796875 183.48046875 C-187.1085937 210.08836466 -164.55923587 236.88006071 -147.91796875 257.48046875 C-146.43296875 256.19076172 -146.43296875 256.19076172 -144.91796875 254.875 C-130.33536301 242.38974192 -114.83223026 232.49376871 -97.91796875 223.48046875 C-103.05996244 210.5431115 -108.28548176 197.64342992 -113.61987305 184.78417969 C-114.74974493 182.05897539 -115.87589495 179.33225075 -117.00195312 176.60546875 C-117.7302462 174.84756403 -118.45875353 173.08974806 -119.1875 171.33203125 C-119.51877396 170.5289151 -119.85004791 169.72579895 -120.19136047 168.89834595 C-121.94919297 164.67108816 -123.81104296 160.54977117 -125.91796875 156.48046875 C-127.71239306 156.48046875 -129.31438818 157.41999758 -130.95263672 158.09765625 Z M-216.00195312 193.00585938 C-217.19600769 193.50768738 -217.19600769 193.50768738 -218.41418457 194.01965332 C-219.27137085 194.38828491 -220.12855713 194.7569165 -221.01171875 195.13671875 C-221.91305542 195.51727417 -222.81439209 195.89782959 -223.74304199 196.28991699 C-226.63757313 197.51340944 -229.52789709 198.74648389 -232.41796875 199.98046875 C-236.17711758 201.57721812 -239.93794001 203.16999393 -243.69921875 204.76171875 C-244.62371826 205.15367432 -245.54821777 205.54562988 -246.50073242 205.94946289 C-255.9188419 209.92972069 -265.40897322 213.72350866 -274.91796875 217.48046875 C-270.16009558 244.50461686 -239.19758699 271.19399154 -218.24609375 286.12109375 C-209.57387901 292.15428754 -200.50794253 297.0643183 -190.91796875 301.48046875 C-190.02335937 301.90328125 -189.12875 302.32609375 -188.20703125 302.76171875 C-185.52138431 303.60499356 -184.43799218 303.75093699 -181.91796875 302.48046875 C-180.238689 300.19711696 -180.238689 300.19711696 -178.79296875 297.29296875 C-176.04782048 292.34105259 -173.09998966 287.70088329 -169.79296875 283.10546875 C-169.18171143 282.25045776 -169.18171143 282.25045776 -168.55810547 281.37817383 C-165.82808776 277.60911953 -162.92977485 274.02818341 -159.91796875 270.48046875 C-162.52149995 266.4437437 -165.30809623 262.6479149 -168.28125 258.87670898 C-184.34066297 238.43114071 -197.69352599 215.38418881 -207.91796875 191.48046875 C-211.52458254 191.48046875 -212.8619678 191.66956756 -216.00195312 193.00585938 Z M-74.91796875 232.48046875 C-72.29533963 242.39602424 -68.19213106 251.63584797 -64.16796875 261.04296875 C-63.12166672 263.50143818 -62.07687429 265.96054468 -61.03234863 268.41976929 C-60.34503459 270.03788013 -59.65713371 271.65574183 -58.96862793 273.27334595 C-55.55068755 281.31461545 -52.22500119 289.39307017 -48.91796875 297.48046875 C-43.04540845 296.21477826 -40.36607165 292.21769905 -36.91796875 287.48046875 C-24.96439491 268.57268567 -21.23867831 245.51966969 -21.91796875 223.48046875 C-40.15913204 222.68864976 -57.71476127 226.61573893 -74.91796875 232.48046875 Z M-4.91796875 223.48046875 C-4.96284424 224.21458984 -5.00771973 224.94871094 -5.05395508 225.70507812 C-5.92034468 239.48962804 -6.84964722 252.99298052 -9.91796875 266.48046875 C-10.12808594 267.45757812 -10.33820313 268.4346875 -10.5546875 269.44140625 C-10.99217163 271.45817706 -11.4513104 273.47024816 -11.91796875 275.48046875 C4.90909257 266.83688061 19.1590985 246.21084218 27.08203125 229.48046875 C23.12298586 227.74509971 19.25390762 226.76840606 15.01953125 225.91796875 C13.81167969 225.66917969 12.60382813 225.42039062 11.359375 225.1640625 C5.97974873 224.19848855 0.52786512 223.8709547 -4.91796875 223.48046875 Z M-133.73046875 268.24609375 C-134.45234375 268.9834375 -135.17421875 269.72078125 -135.91796875 270.48046875 C-120.73235968 286.59161156 -101.97269387 300.74516611 -79.91796875 305.48046875 C-77.15608472 305.54979315 -74.42777306 305.57441872 -71.66796875 305.54296875 C-70.28548462 305.53147125 -68.90299737 305.52034613 -67.52050781 305.50952148 C-66.33166992 305.49993408 -65.14283203 305.49034668 -63.91796875 305.48046875 C-69.42296829 291.61702934 -75.06081645 277.81390145 -80.79296875 264.04296875 C-81.93159383 261.30442078 -83.06984262 258.56571694 -84.20779419 255.82688904 C-84.90628146 254.1460817 -85.6052086 252.46545705 -86.30465698 250.78504944 C-87.86777126 247.02658003 -89.41986033 243.26548747 -90.91796875 239.48046875 C-104.2274998 239.48046875 -125.26208027 259.91884507 -133.73046875 268.24609375 Z M-148.91796875 283.48046875 C-150.25055769 284.86232769 -150.25055769 284.86232769 -151.5625 286.69921875 C-152.07490234 287.385 -152.58730469 288.07078125 -153.11523438 288.77734375 C-153.64826172 289.504375 -154.18128906 290.23140625 -154.73046875 290.98046875 C-155.25189453 291.6765625 -155.77332031 292.37265625 -156.31054688 293.08984375 C-162.96923654 301.07522242 -162.96923654 301.07522242 -165.91796875 310.48046875 C-145.47883914 315.34243261 -125.87898907 317.16280661 -104.91796875 315.48046875 C-108.08112506 313.00000805 -111.39851054 310.96479568 -114.85546875 308.91796875 C-125.18429577 302.65207752 -134.43255427 295.24937938 -143.13696289 286.88354492 C-145.59552893 284.25011188 -145.59552893 284.25011188 -148.91796875 283.48046875 Z " fill="#ff4200" transform="translate(398.91796875,69.51953125)"/>
<path d="M0 0 C5.24447834 3.57578069 7.27219365 9.08665205 9 15 C9.52517864 19.0701345 9.69226841 20.94775201 7.4375 24.375 C4.23645227 26.50903182 1.82484946 26.86339823 -2 27 C-4.3125 26.375 -4.3125 26.375 -6 25 C-6.70560191 23.34944005 -7.37628554 21.68321196 -8 20 C-24.73503725 28.38607188 -40.77861602 37.72018794 -55 50 C-55.76828125 50.65871094 -56.5365625 51.31742188 -57.328125 51.99609375 C-69.45690127 62.65767934 -80.42629372 73.99514442 -90 87 C-90.74507812 87.98871094 -91.49015625 88.97742188 -92.2578125 89.99609375 C-119.38673662 127.38344617 -134.25606683 175.81883675 -132 222 C-131.95891113 222.85223145 -131.91782227 223.70446289 -131.87548828 224.58251953 C-129.05301429 276.80279717 -108.4960163 325.42875396 -72 363 C-71.47905762 363.54140625 -70.95811523 364.0828125 -70.42138672 364.640625 C-55.32329699 380.28129532 -38.1596738 392.74115268 -19 403 C-18.40316406 403.32564941 -17.80632812 403.65129883 -17.19140625 403.98681641 C10.98841899 419.26081788 41.48982412 425.38864857 73 429 C73.21076172 427.32550781 73.21076172 427.32550781 73.42578125 425.6171875 C74 422 74 422 75.1875 420.125 C77.85999726 418.4662086 79.85583653 418.12330053 83 418 C88.61176471 420.22352941 88.61176471 420.22352941 90 423 C90.039992 424.99960012 90.04346799 427.00047242 90 429 C104.91262907 427.35452964 119.74186581 425.68482437 134.3125 422 C135.25158203 421.7632959 136.19066406 421.5265918 137.15820312 421.28271484 C143.30836096 419.64526307 149.14461605 417.4870193 155 415 C154.81050781 414.24074219 154.62101562 413.48148437 154.42578125 412.69921875 C153.83169066 408.93301145 154.96727899 407.15422225 157 404 C159.62641487 401.84258779 161.05286942 402.0009441 164.5 402.0625 C168.85813077 403.22985646 169.71620959 404.14118171 172 408 C175.18697198 414.22422045 177.12385853 419.15645586 175 426 C169.6216065 430.60213052 162.88495319 432.34058184 156.25 434.5 C155.04657959 434.89582275 153.84315918 435.29164551 152.60327148 435.69946289 C143.15875347 438.74793396 133.75408008 441.20109179 124 443 C122.88625 443.21140625 121.7725 443.4228125 120.625 443.640625 C110.39895581 445.46670432 100.37985855 446.13480336 90 446 C90 451.28 90 456.56 90 462 C92.08795898 461.98952637 94.17591797 461.97905273 96.32714844 461.96826172 C103.26807978 461.93494703 110.2090149 461.91296096 117.15000534 461.89637566 C121.35346497 461.88599065 125.55684187 461.87192943 129.76025391 461.84912109 C133.82569427 461.82720242 137.89105565 461.81539178 141.9565506 461.81024551 C143.49848929 461.80658358 145.04042424 461.79943404 146.5823288 461.78853989 C162.65336759 461.67962939 177.61858643 462.65458226 190 474 C195.13866669 479.46376601 201 487.12908004 201 495 C202.2375 495.061875 203.475 495.12375 204.75 495.1875 C208.05392763 495.609278 208.88031108 495.89527219 211.5 498.1875 C213.29967286 501.56188662 213.7060807 503.23423628 213 507 C210.98005139 509.81697253 209.36506626 511.7037475 205.88005149 512.46008027 C203.18209203 512.64435124 200.52496216 512.66128321 197.82078552 512.62818909 C196.26890261 512.63883067 196.26890261 512.63883067 194.68566853 512.64968723 C191.21381621 512.66731006 187.74307701 512.64913958 184.27124023 512.63110352 C181.78440846 512.63624062 179.29758032 512.64352032 176.8107605 512.65278625 C170.7546409 512.66940697 164.69895888 512.66264902 158.64287668 512.64469803 C153.72166799 512.63067384 148.8005469 512.62677882 143.87932014 512.6301403 C142.82881907 512.63085647 142.82881907 512.63085647 141.75709574 512.6315871 C140.33440532 512.63261342 138.91171491 512.63366878 137.48902453 512.63475286 C124.90904097 512.64332039 112.32921322 512.62664259 99.74926758 512.59692383 C87.5395656 512.56808008 75.33008804 512.56100568 63.12036133 512.57641602 C49.82631961 512.59317191 36.53238444 512.59721915 23.23833996 512.57970566 C21.82118135 512.57786125 20.40402273 512.57602652 18.98686409 512.57420158 C18.28958198 512.57328949 17.59229987 512.5723774 16.873888 512.57143768 C11.95746121 512.56582892 7.04108638 512.56914254 2.1246624 512.57574654 C-4.49015271 512.58427913 -11.10469152 512.57134073 -17.71947098 512.54389763 C-20.15113423 512.53699444 -22.58282767 512.53693638 -25.01449013 512.54411316 C-28.32594859 512.55276243 -31.63639556 512.53692759 -34.94776917 512.5146637 C-35.91711712 512.52290446 -36.88646507 512.53114523 -37.88518721 512.53963572 C-44.37582557 512.45871924 -44.37582557 512.45871924 -47.5950613 510.09283352 C-49.55046976 507.18000581 -49.5638029 505.31777519 -49.3984375 501.90234375 C-48.79104423 499.00233861 -47.33500208 497.71691329 -45 496 C-42.29120665 494.64560332 -39.99066732 494.93498549 -37 495 C-36.95875 494.05125 -36.9175 493.1025 -36.875 492.125 C-35.5731717 483.29753412 -28.82386159 475.35339983 -22 470 C-9.28498511 461.89552876 4.0924275 461.70145728 18.703125 461.8046875 C20.27780984 461.8084272 21.85249704 461.81126964 23.42718506 461.81326294 C27.53048359 461.82082415 31.63363588 461.8404061 35.73687744 461.8626709 C39.94045027 461.88329316 44.1440472 461.89229934 48.34765625 461.90234375 C56.56517808 461.92366074 64.78255388 461.9587796 73 462 C73 456.72 73 451.44 73 446 C70.60814453 446.03480469 70.60814453 446.03480469 68.16796875 446.0703125 C23.50609378 446.02751243 -22.83168922 426.70103595 -58 400 C-58.87785156 399.33484375 -59.75570312 398.6696875 -60.66015625 397.984375 C-67.44306351 392.69564224 -73.76936318 386.91948911 -80 381 C-80.53560547 380.49307617 -81.07121094 379.98615234 -81.62304688 379.46386719 C-89.92125132 371.55541194 -97.14613508 363.17814693 -104 354 C-105.06154297 352.61361328 -105.06154297 352.61361328 -106.14453125 351.19921875 C-115.28983849 339.02351384 -122.50782805 325.74039029 -129 312 C-129.5878125 310.76963013 -129.5878125 310.76963013 -130.1875 309.5144043 C-139.00666794 290.65969012 -144.5616696 270.48131843 -148 250 C-148.12987305 249.26185059 -148.25974609 248.52370117 -148.39355469 247.76318359 C-157.84296491 191.82108694 -142.33787693 129.54280323 -110.14819336 83.35253906 C-101.66852662 71.43059918 -92.36112102 60.32948401 -82 50 C-80.75476563 48.68515625 -80.75476563 48.68515625 -79.484375 47.34375 C-63.8824718 31.11777068 -24.00950618 -4.53838227 0 0 Z M-15 488 C-15.763125 488.886875 -16.52625 489.77375 -17.3125 490.6875 C-19.19648969 492.79213938 -19.19648969 492.79213938 -19 495 C47.66 495 114.32 495 183 495 C179.83699502 489.0534945 179.83699502 489.0534945 175.625 484.6875 C175.08101562 484.21699219 174.53703125 483.74648438 173.9765625 483.26171875 C169.21615516 480.2229607 164.49706978 479.74860753 158.95437622 479.73930359 C158.2688574 479.73547804 157.58333858 479.73165249 156.87704647 479.72771102 C154.59259366 479.71743759 152.30839485 479.72136231 150.02392578 479.7253418 C148.38086719 479.72099216 146.73781064 479.71580817 145.09475708 479.70985413 C140.64014892 479.69647936 136.18562569 479.6958838 131.73100138 479.69841743 C128.00842574 479.69948825 124.28586721 479.69460086 120.56329525 479.689812 C111.77867467 479.6787219 102.99409685 479.6782765 94.20947266 479.68432617 C85.15606859 479.69036522 76.10281996 479.67805556 67.04944241 479.6567561 C59.26835902 479.63912505 51.48732504 479.63314115 43.70622241 479.63639385 C39.06255992 479.63820458 34.41900828 479.63559156 29.77536392 479.62167931 C25.4070087 479.60908124 21.03889528 479.61106374 16.67054367 479.62409019 C15.07101611 479.62645129 13.47147142 479.62373807 11.8719635 479.61546707 C-3.17958288 479.43616339 -3.17958288 479.43616339 -15 488 Z " fill="#ff4200" transform="translate(196,0)"/>
</svg>
