<?xml version="1.0" standalone="no"?>
<!DOCTYPE svg PUBLIC "-//W3C//DTD SVG 20010904//EN"
 "http://www.w3.org/TR/2001/REC-SVG-20010904/DTD/svg10.dtd">
<svg version="1.0" xmlns="http://www.w3.org/2000/svg"
 width="512.000000pt" height="512.000000pt" viewBox="0 0 512.000000 512.000000"
 preserveAspectRatio="xMidYMid meet">

<g transform="translate(0.000000,512.000000) scale(0.100000,-0.100000)"
fill="#ff4200" stroke="none">
<path d="M3545 4874 c-168 -26 -282 -62 -418 -132 -317 -162 -546 -464 -623
-822 -26 -118 -26 -362 0 -480 102 -473 464 -835 936 -936 106 -23 352 -26
455 -5 438 87 790 395 924 808 44 138 56 215 56 373 0 158 -12 235 -56 373
-129 399 -465 704 -879 798 -83 19 -327 33 -395 23z m301 -169 c427 -74 762
-394 848 -814 69 -329 -30 -682 -257 -918 l-60 -63 -27 69 c-63 162 -189 300
-345 377 -122 60 -197 78 -325 78 -128 0 -203 -18 -325 -78 -154 -76 -276
-207 -341 -367 l-31 -79 -60 63 c-385 401 -369 1058 35 1449 242 234 568 338
888 283z m-6 -1455 c167 -49 307 -182 365 -345 38 -109 40 -105 -82 -162 -135
-64 -247 -92 -389 -100 -185 -10 -327 20 -506 104 -110 52 -109 50 -77 146 95
285 397 442 689 357z"/>
<path d="M3561 4464 c-253 -68 -410 -331 -346 -579 67 -256 329 -415 580 -350
256 67 415 329 350 578 -67 259 -333 419 -584 351z m254 -175 c63 -30 123 -90
155 -154 35 -71 35 -197 0 -270 -31 -64 -91 -124 -155 -155 -73 -35 -199 -35
-270 0 -64 31 -124 91 -155 155 -35 71 -35 197 0 270 42 86 123 152 215 176
54 14 156 3 210 -22z"/>
<path d="M2110 4583 c-21 -27 -22 -60 -4 -139 5 -18 -5 -23 -89 -47 -288 -81
-587 -258 -807 -477 -223 -222 -376 -470 -472 -765 -23 -71 -43 -132 -44 -134
-2 -1 -35 3 -73 10 -58 10 -76 10 -95 0 -23 -13 -46 -50 -46 -75 0 -17 175
-287 197 -303 9 -7 28 -13 42 -13 29 0 297 173 312 201 32 61 -8 110 -104 129
-37 7 -69 15 -71 19 -10 15 71 229 134 356 93 186 178 304 330 455 152 152
271 238 455 329 131 65 324 136 349 128 5 -2 16 -39 23 -83 10 -64 17 -83 38
-101 30 -26 62 -29 91 -8 26 18 190 243 204 280 17 45 -6 73 -145 172 -106 75
-137 92 -167 93 -28 0 -41 -6 -58 -27z"/>
<path d="M1305 2634 c-170 -26 -296 -67 -431 -138 -311 -166 -534 -463 -610
-816 -26 -118 -26 -362 0 -480 104 -482 475 -845 961 -941 91 -18 339 -18 430
0 495 98 868 471 966 966 21 103 18 349 -5 455 -100 466 -454 826 -916 931
-83 19 -327 33 -395 23z m377 -183 c391 -102 663 -374 770 -769 17 -62 21
-108 21 -237 1 -143 -2 -171 -26 -260 -30 -113 -87 -237 -152 -334 -50 -75
-165 -194 -165 -170 0 9 -20 56 -44 105 -124 256 -364 407 -646 407 -303 -1
-557 -175 -672 -461 l-25 -62 -65 68 c-246 255 -339 659 -231 1007 118 380
447 664 838 725 95 14 308 4 397 -19z m-82 -1441 c167 -49 307 -182 365 -345
38 -109 40 -105 -82 -162 -135 -64 -247 -92 -389 -100 -128 -7 -242 7 -359 44
-96 30 -234 98 -242 119 -8 21 35 146 68 199 139 219 393 316 639 245z"/>
<path d="M1321 2224 c-253 -68 -410 -331 -346 -579 67 -256 329 -415 580 -350
256 67 415 329 350 578 -67 259 -333 419 -584 351z m254 -175 c63 -30 123 -90
155 -154 20 -41 25 -65 25 -135 -1 -77 -4 -91 -34 -148 -38 -70 -70 -101 -145
-140 -43 -22 -64 -26 -136 -26 -70 -1 -94 4 -135 24 -260 128 -238 495 35 594
63 23 170 16 235 -15z"/>
<path d="M4234 2386 c-78 -52 -144 -102 -148 -111 -24 -64 12 -107 107 -125
37 -7 69 -15 71 -19 10 -15 -71 -229 -134 -356 -179 -359 -462 -635 -825 -805
-114 -54 -289 -114 -309 -107 -7 3 -18 37 -25 80 -14 84 -29 112 -67 121 -49
13 -76 -10 -166 -139 -106 -149 -112 -162 -99 -196 9 -25 227 -194 282 -219
32 -14 72 0 95 34 13 22 14 35 6 83 -6 32 -7 61 -4 64 4 3 61 23 127 43 583
183 1062 662 1242 1244 l38 124 40 -6 c22 -3 57 -9 77 -12 32 -6 41 -3 68 24
16 17 30 39 30 50 0 22 -162 278 -192 305 -37 32 -67 21 -214 -77z"/>
</g>
</svg>
