<?xml version="1.0" standalone="no"?>
<!DOCTYPE svg PUBLIC "-//W3C//DTD SVG 20010904//EN"
 "http://www.w3.org/TR/2001/REC-SVG-20010904/DTD/svg10.dtd">
<svg version="1.0" xmlns="http://www.w3.org/2000/svg"
 width="512.000000pt" height="512.000000pt" viewBox="0 0 512.000000 512.000000"
 preserveAspectRatio="xMidYMid meet">

<g transform="translate(0.000000,512.000000) scale(0.100000,-0.100000)"
fill="#ff4200" stroke="none">
<path d="M2095 5106 c-95 -30 -162 -88 -204 -176 -25 -53 -26 -63 -31 -289
l-5 -233 -55 -23 -55 -22 -165 162 c-145 143 -172 165 -225 185 -48 17 -74 21
-130 18 -118 -8 -135 -21 -481 -370 -350 -352 -349 -350 -349 -488 0 -116 24
-155 208 -339 l155 -153 -23 -57 -23 -56 -234 -5 c-272 -6 -301 -14 -386 -104
-88 -93 -87 -86 -87 -596 0 -510 -1 -503 87 -596 85 -90 114 -98 386 -104
l234 -5 23 -56 23 -57 -155 -153 c-184 -184 -208 -223 -208 -339 0 -138 -1
-136 349 -488 362 -364 365 -367 501 -367 124 0 147 14 338 203 l157 157 58
-21 57 -20 5 -235 c6 -273 14 -302 104 -387 93 -88 85 -87 606 -87 l455 0 52
27 c68 36 120 90 152 158 25 53 26 63 31 288 l5 234 56 23 57 23 153 -155
c187 -186 222 -208 344 -208 136 1 138 2 497 363 353 354 353 355 353 487 0
121 -16 148 -201 335 l-162 165 23 55 23 55 234 5 c212 5 237 7 280 27 66 30
141 104 169 166 l24 52 0 450 c0 515 1 508 -87 601 -85 90 -114 98 -386 104
l-234 5 -23 56 -23 57 155 153 c188 188 208 222 208 349 0 135 -8 146 -354
492 -332 332 -353 348 -476 356 -56 3 -82 -1 -130 -18 -53 -20 -79 -42 -225
-185 l-165 -162 -55 22 -55 23 -5 233 c-5 226 -6 236 -31 289 -34 71 -89 126
-158 159 l-56 26 -440 2 c-336 2 -449 -1 -480 -11z m923 -147 c26 -13 54 -38
70 -62 l27 -40 3 -263 c3 -232 5 -263 20 -277 23 -20 209 -98 250 -104 32 -5
41 3 215 175 100 100 195 186 210 191 41 16 103 13 140 -5 44 -22 594 -570
618 -616 29 -56 25 -124 -10 -179 -16 -24 -101 -116 -190 -204 -108 -107 -161
-167 -161 -181 0 -12 15 -55 33 -95 19 -41 39 -90 46 -110 22 -68 18 -67 307
-71 l261 -3 42 -28 c81 -54 81 -53 81 -527 0 -474 0 -473 -81 -527 l-42 -28
-263 -3 c-231 -3 -264 -5 -277 -20 -18 -21 -97 -206 -104 -245 -5 -26 11 -45
171 -206 105 -107 182 -193 191 -214 21 -50 19 -110 -4 -155 -24 -46 -574
-594 -618 -616 -37 -18 -99 -21 -140 -5 -15 6 -110 92 -210 191 -174 171 -184
180 -215 175 -41 -6 -227 -84 -250 -104 -15 -14 -17 -45 -20 -277 l-3 -263
-27 -40 c-16 -24 -44 -49 -70 -62 -43 -20 -57 -21 -458 -21 -401 0 -415 1
-458 21 -26 13 -54 38 -70 62 l-27 40 -3 263 c-3 236 -5 264 -21 278 -22 20
-229 106 -255 106 -12 0 -88 -68 -196 -175 -106 -105 -192 -181 -213 -190 -46
-19 -98 -19 -145 0 -50 21 -595 564 -622 621 -22 45 -26 98 -9 141 5 15 91
109 190 209 200 201 196 194 153 291 -14 32 -34 81 -45 109 -32 86 -20 82
-315 86 l-261 3 -40 27 c-24 16 -49 44 -62 70 -20 43 -21 57 -21 458 0 401 1
415 21 458 13 26 38 54 62 70 l40 27 263 3 c231 3 264 5 277 20 21 23 98 209
104 250 5 32 -3 42 -175 215 -100 100 -186 195 -191 210 -17 43 -13 96 9 141
27 57 572 600 622 621 47 19 99 19 145 0 21 -9 107 -86 214 -191 161 -160 180
-176 206 -171 40 7 224 85 245 104 15 13 17 46 20 277 l3 263 27 40 c15 23 44
49 70 62 42 20 54 21 457 21 402 0 416 -1 459 -21z"/>
<path d="M2405 4124 c-393 -56 -672 -186 -928 -433 -125 -121 -213 -234 -286
-366 -302 -545 -258 -1208 113 -1705 87 -116 260 -281 381 -362 177 -118 390
-205 600 -244 139 -26 411 -26 550 0 637 119 1128 599 1267 1240 19 85 22 132
22 306 0 174 -3 221 -22 306 -136 631 -619 1112 -1239 1235 -104 20 -380 34
-458 23z m450 -164 c482 -103 893 -461 1053 -921 61 -173 77 -275 77 -479 0
-157 -3 -201 -23 -289 -64 -282 -187 -512 -382 -712 -357 -364 -875 -509
-1375 -383 -565 142 -999 638 -1065 1219 -88 774 460 1477 1235 1584 112 16
364 5 480 -19z"/>
<path d="M2185 3229 c-605 -467 -565 -434 -565 -473 0 -19 7 -42 16 -50 17
-18 79 -22 89 -6 22 35 25 -24 25 -447 0 -443 1 -458 21 -500 25 -53 86 -106
138 -121 55 -17 1248 -17 1303 0 52 15 121 78 144 130 17 39 19 82 24 498 3
250 9 449 13 443 12 -18 73 -16 91 3 24 23 20 77 -6 101 -13 12 -219 172 -458
357 -307 237 -442 336 -460 336 -17 0 -133 -84 -375 -271z m716 -151 l340
-261 -3 -499 -3 -500 -33 -29 -32 -29 -140 0 -140 0 0 268 c0 147 -5 287 -11
312 -14 61 -50 111 -102 141 -38 22 -55 24 -193 27 -171 4 -218 -4 -270 -50
-73 -64 -74 -72 -74 -403 l0 -295 -146 0 -146 0 -29 29 -29 29 0 504 1 503
332 257 c183 141 334 257 336 257 1 1 156 -117 342 -261z m-191 -718 c34 -18
40 -65 40 -336 l0 -264 -185 0 -185 0 0 285 c0 354 -16 325 176 325 74 0 144
-4 154 -10z"/>
</g>
</svg>
