<?xml version="1.0" encoding="UTF-8"?>
<svg version="1.1" xmlns="http://www.w3.org/2000/svg" width="512" height="512">
<path d="M0 0 C7.76192142 5.86630766 13.56924882 12.01705878 15.34375 21.91796875 C15.88402364 29.76544336 12.82149814 35.74321082 9.53125 42.65625 C7.86121263 45.69011826 7.86121263 45.69011826 8 48 C8.35449219 47.52691406 8.70898438 47.05382812 9.07421875 46.56640625 C20.0301068 32.9577608 36.95772168 24.81982694 54.0625 22.3125 C75.08340352 20.64417432 93.36573526 25.85766107 110 39 C113.14334817 41.87777444 116.12369714 44.85613408 119 48 C118.59007812 47.18917969 118.18015625 46.37835938 117.7578125 45.54296875 C113.4210058 36.63072723 109.13945894 27.34548372 111.99609375 17.3203125 C117.03096287 5.68329982 125.96308483 -0.57923209 137.3125 -5.375 C147.97155308 -9.29672708 158.33700267 -8.78685887 169 -5 C172.29652216 -3.31340727 175.13279194 -1.3358336 178 1 C178.62648438 1.50273437 179.25296875 2.00546875 179.8984375 2.5234375 C186.79953186 8.70127306 190.58349372 16.9962369 192.25 26 C194.57222431 37.38025714 201.0703624 47.56543551 206.52734375 57.69921875 C220.36587619 83.45426524 236.95481779 115.14503926 228.0234375 145.17578125 C224.05184544 156.13555628 218.16719121 163.90058631 210 172 C209.26394531 172.76957031 208.52789062 173.53914062 207.76953125 174.33203125 C198.20079781 183.73140658 185.68384459 189.83115558 174.06347656 196.32958984 C161.93166613 203.13977791 152.59405787 209.89798964 148.60693359 223.75561523 C147.09477667 231.83890298 147.52466564 240.24265462 147.48876953 248.43945312 C147.47309143 250.9156431 147.44013196 253.3911906 147.40625 255.8671875 C147.40927124 256.62450165 147.41229248 257.3818158 147.41540527 258.16207886 C147.37285066 261.1426395 147.245052 263.51909739 145.87924957 266.19941807 C143.16381428 268.80118199 141.2679807 268.50054588 137.54724121 268.50120544 C136.8893427 268.50673984 136.2314442 268.51227424 135.55360937 268.51797634 C133.34460243 268.53161198 131.13671975 268.51659943 128.92773438 268.50170898 C127.3459678 268.50549114 125.76420454 268.51099033 124.18244934 268.51808167 C119.88283562 268.53206723 115.58362067 268.52084496 111.28402901 268.50437045 C106.78908076 268.49054165 102.29415617 268.49697755 97.79919434 268.50050354 C90.25001584 268.50320739 82.70099618 268.48971511 75.15185547 268.46655273 C66.41820046 268.43994187 57.68481109 268.43819523 48.95112944 268.4499411 C40.5570914 268.46071227 32.16314965 268.45453702 23.76911926 268.44038582 C20.1934024 268.43462026 16.61775588 268.43471315 13.04203796 268.43945122 C8.83293469 268.44421603 4.62412307 268.43414014 0.4150753 268.41249657 C-1.13171213 268.40692172 -2.67852754 268.40646979 -4.225317 268.41144943 C-6.33295106 268.41738476 -8.43968811 268.40493242 -10.54724121 268.38768005 C-12.3181525 268.38403521 -12.3181525 268.38403521 -14.12483978 268.38031673 C-17 268 -17 268 -18.87450409 266.71563816 C-20.89865618 263.63014266 -20.52160167 259.92601108 -20.58984375 256.34375 C-20.65288139 254.58072511 -20.71603632 252.81770441 -20.77929688 251.0546875 C-20.86108061 248.28819999 -20.93693964 245.52165201 -21.00854492 242.75488281 C-21.51681768 223.36202192 -21.51681768 223.36202192 -31.5 207.17578125 C-39.16494481 200.50488397 -48.24778738 195.83246628 -57.125 191 C-64.63588692 186.90444388 -71.3852408 182.46226089 -78 177 C-78.87011719 176.29359375 -79.74023438 175.5871875 -80.63671875 174.859375 C-93.23382674 164.13350663 -101.74823734 151.04838988 -103.77734375 134.4609375 C-105.84447131 102.3297968 -88.60406042 71.44251277 -73.37890625 44.2734375 C-69.17404227 36.74330704 -66.20854808 29.98882706 -64.3737793 21.54296875 C-61.89241658 10.47889591 -55.40813653 2.7684557 -45.9609375 -3.3125 C-31.30471596 -11.25371964 -13.73941224 -8.81685212 0 0 Z M-41 10 C-41.886875 10.5775 -42.77375 11.155 -43.6875 11.75 C-48.72688986 16.65319014 -50.98453422 21.13439811 -52.0703125 28.1015625 C-54.06940415 37.86601462 -58.67621055 46.21929336 -63.25 55 C-64.09396396 56.64766184 -64.93642003 58.29609694 -65.77734375 59.9453125 C-67.41265651 63.14723763 -69.05401649 66.34591424 -70.70214844 69.54125977 C-77.67088377 82.74339453 -77.67088377 82.74339453 -83.25 96.5625 C-83.49250488 97.27591553 -83.73500977 97.98933105 -83.98486328 98.72436523 C-89.37745179 114.92932941 -92.05121041 130.83228381 -85 147 C-76.34691545 163.83540544 -61.75948888 172.5199037 -45.83447266 181.51342773 C-38.99863152 185.38682747 -32.37305856 189.39081926 -26 194 C-24.99646484 194.70962891 -24.99646484 194.70962891 -23.97265625 195.43359375 C-16.13984863 201.4838806 -11.42512276 210.56896705 -9 220 C-7.70953045 231.61422593 -7.44911789 243.32293493 -7 255 C39.2 255 85.4 255 133 255 C134.4016068 252.1967864 134.1456254 249.83260705 134.17578125 246.69921875 C134.19962891 245.41080078 134.22347656 244.12238281 134.24804688 242.79492188 C134.29397521 240.09928168 134.3219431 237.40512666 134.34179688 234.70898438 C134.6772596 218.94223609 138.75858839 206.84288183 150.02172852 195.75292969 C153.25958489 192.88389245 156.83634329 190.73679644 160.5625 188.5625 C161.34826416 188.09223389 162.13402832 187.62196777 162.94360352 187.13745117 C167.16157327 184.62497299 171.41851191 182.18733992 175.70068359 179.78637695 C182.51672949 175.96444736 188.82190077 171.78271839 195 167 C195.63292969 166.54496094 196.26585937 166.08992187 196.91796875 165.62109375 C206.75388724 158.08097317 213.45691422 145.83767309 215.55859375 133.80078125 C218.51542235 107.06739273 203.8458521 82.09183184 192.01789856 59.20062256 C190.65129755 56.55488008 189.29531027 53.90373665 187.93844604 51.25299072 C186.96778256 49.37120749 185.97880151 47.49993287 184.98852539 45.62841797 C181.3157007 38.54573503 178.98418199 31.91071888 177.69311523 24.01098633 C176.1938506 17.49797796 171.48283263 12.61064588 166 9 C158.97428071 4.90166375 151.11022493 4.84420233 143.25390625 6.62109375 C136.27555338 9.07059359 129.88466265 13.67300602 125.75 19.875 C123.96275935 24.93884851 125.10273882 28.89660808 127.36120605 33.63052368 C127.8804364 34.67386368 127.8804364 34.67386368 128.41015625 35.73828125 C128.94908508 36.8577565 128.94908508 36.8577565 129.49890137 37.99984741 C130.27365461 39.60643554 131.05358706 41.21053437 131.83816528 42.81234741 C133.91524252 47.05384279 135.95453915 51.3135062 138 55.5703125 C138.4173793 56.43607407 138.83475861 57.30183563 139.26478577 58.1938324 C143.48781706 66.96914066 147.54483609 75.81668512 151.5625 84.6875 C151.88509796 85.39717926 152.20769592 86.10685852 152.54006958 86.83804321 C160.9902247 105.428493 160.9902247 105.428493 158.28125 115.734375 C155.11499585 124.16069652 151.02883403 128.73392505 143.00048828 132.65063477 C136.26920917 135.6777934 129.28385512 138.12841762 122.34375 140.63085938 C115.27310808 143.3015638 109.82194554 146.27692456 104.09179688 151.21362305 C92.34781158 161.2428878 74.10983331 164.86212262 59 164 C43.93333399 162.7231639 28.77082149 157.85877076 17.31176758 147.59130859 C13.91517107 144.74196085 10.37776521 143.24389243 6.2578125 141.6953125 C4.7642278 141.10570965 3.27074124 140.51585812 1.77734375 139.92578125 C-0.5462615 139.02327241 -2.87180246 138.12622435 -5.19970703 137.23486328 C-24.74470485 129.70927289 -24.74470485 129.70927289 -30.4375 120.25 C-34.21926805 111.5046614 -33.261245 103.6713349 -30 95 C-27.91742449 90.12203514 -25.6088489 85.34753397 -23.30563354 80.57092285 C-22.16861204 78.21079405 -21.04209328 75.84590433 -19.91821289 73.47949219 C-16.56660551 66.42833202 -13.19182014 59.38873107 -9.78703308 52.36309814 C-8.46993338 49.63827055 -7.16472627 46.90785646 -5.86196899 44.17614746 C-5.25163325 42.90450217 -4.63550477 41.63561896 -4.01327515 40.36975098 C0.64718907 31.10273527 0.64718907 31.10273527 1 21 C-1.32895083 14.40539185 -8.04247349 10.89365573 -14 8 C-23.07867962 4.43901857 -32.83850691 4.39019091 -41 10 Z M41 40 C40.14277344 40.32742187 39.28554687 40.65484375 38.40234375 40.9921875 C25.00056129 46.81166197 14.65596292 59.09896286 9.1875 72.375 C3.78185388 87.61071546 3.99967297 101.92225515 10 117 C17.30986795 132.33289376 29.91027146 142.78080999 45.44921875 148.9765625 C59.94432705 153.72687364 75.4040973 151.63398334 89 145.375 C102.70824979 138.12186395 113.09930592 127.13376355 118.29296875 112.3828125 C122.7707779 97.2918535 122.07041158 81.93150615 115.421875 67.59765625 C106.67854185 51.98174816 94.08588645 42.2000524 77 37 C65.18378371 33.94747746 52.13688566 35.43644577 41 40 Z M5 50 C6 52 6 52 6 52 Z M132 75 C133 77 133 77 133 77 Z M-7 76 C-8.87147503 79.83177621 -10.72190115 83.67283098 -12.55419922 87.5234375 C-13.17916204 88.82950333 -13.8096076 90.13296132 -14.44580078 91.43359375 C-19.47295036 101.24800876 -19.47295036 101.24800876 -20 112 C-16.18087461 119.9437808 -8.80655274 122.26085869 -1 125 C-1.433125 123.80375 -1.86625 122.6075 -2.3125 121.375 C-7.25467912 106.26605239 -8.28396381 91.70225123 -6 76 C-6.33 76 -6.66 76 -7 76 Z M133 77 C133.02094727 77.76965088 133.04189453 78.53930176 133.06347656 79.33227539 C133.71641022 106.96831232 133.71641022 106.96831232 129 120 C128.64818919 121.32857745 128.30598103 122.66012519 128 124 C134.07443474 123.24069566 139.80152759 120.69255214 143.9375 116.125 C146.23805725 112.63930719 147.07866304 111.16914093 147 107 C144.44268865 96.54343803 138.68401382 86.63941256 134 77 C133.67 77 133.34 77 133 77 Z " fill="#ff4200" transform="translate(201,207)"/>
<path d="M0 0 C5.64784959 0.17795394 10.00570581 3.84525172 14.53125 6.8984375 C15.49651611 7.53241455 16.46178223 8.1663916 17.45629883 8.81958008 C19.4047422 10.10229855 21.34858462 11.39203511 23.28759766 12.68896484 C25.74782452 14.33393234 28.21950303 15.95885179 30.69921875 17.57421875 C32.03965109 18.45222708 33.37953884 19.33106766 34.71875 20.2109375 C35.32332031 20.60780762 35.92789063 21.00467773 36.55078125 21.41357422 C38.06269772 22.42313007 39.54882205 23.47105838 41.03125 24.5234375 C41.96904297 25.18279297 41.96904297 25.18279297 42.92578125 25.85546875 C44.8559807 28.76781915 44.44675742 31.14206679 44.03125 34.5234375 C42.265625 37.5234375 42.265625 37.5234375 39.78125 40.5234375 C39.33523438 41.07322266 38.88921875 41.62300781 38.4296875 42.18945312 C37.4723647 43.36759486 36.50793371 44.53999011 35.53710938 45.70703125 C33.50651922 48.15638124 31.52456948 50.64313321 29.54101562 53.13061523 C28.53672526 54.38971343 27.53022151 55.64704944 26.52148438 56.90258789 C21.594988 63.03594808 16.80001657 69.26706897 12.03125 75.5234375 C19.73047404 80.486653 27.75318479 84.84403013 35.78417969 89.23852539 C37.59471078 90.23033413 39.40292415 91.22626726 41.2109375 92.22265625 C42.81557861 93.10183716 42.81557861 93.10183716 44.45263672 93.9987793 C47.03125 95.5234375 47.03125 95.5234375 49.03125 97.5234375 C50.03253659 104.08047397 50.03253659 104.08047397 47.74609375 107.37548828 C45.92225857 109.23204032 44.02592201 110.91439578 42.03125 112.5859375 C41.33789551 113.19808105 40.64454102 113.81022461 39.93017578 114.44091797 C37.98072096 116.155907 36.01004232 117.84248735 34.03125 119.5234375 C32.65510185 120.73046307 31.2797748 121.93842756 29.90625 123.1484375 C29.31585938 123.65632813 28.72546875 124.16421875 28.1171875 124.6875 C25.20761823 127.24835685 22.37280922 129.88757294 19.53125 132.5234375 C15.44560564 136.31232346 11.32731439 140.04515863 7.11328125 143.69140625 C3.89633207 146.52208011 0.7515432 149.43110766 -2.40209961 152.33178711 C-7.22479359 156.76581128 -12.09264462 161.14824824 -16.96875 165.5234375 C-18.65637811 167.04412867 -20.34387771 168.56496248 -22.03125 170.0859375 C-22.85109375 170.81941406 -23.6709375 171.55289063 -24.515625 172.30859375 C-26.16667521 173.79927125 -27.80196979 175.30756632 -29.421875 176.83203125 C-30.20046875 177.55519531 -30.9790625 178.27835938 -31.78125 179.0234375 C-32.46832031 179.673125 -33.15539062 180.3228125 -33.86328125 180.9921875 C-36.29266145 182.75900946 -37.99202563 183.25326479 -40.96875 183.5234375 C-43.71875 182.5234375 -43.71875 182.5234375 -45.96875 180.5234375 C-47.7139253 174.18085136 -46.10287412 169.65836835 -43.9609375 163.70703125 C-43.63844025 162.77351334 -43.31594299 161.83999542 -42.9836731 160.87818909 C-41.95121628 157.900605 -40.89785525 154.93091765 -39.84375 151.9609375 C-39.15747142 149.99201788 -38.4725624 148.02262032 -37.7890625 146.05273438 C-35.35767656 139.06610683 -32.91940009 132.08218521 -30.36035156 125.14111328 C-30.12341583 124.49433121 -29.8864801 123.84754913 -29.6423645 123.1811676 C-29.02932093 121.51452476 -28.40787475 119.85097904 -27.78564453 118.18774414 C-26.77332491 115.35051181 -26.77332491 115.35051181 -26.96875 111.5234375 C-28.08117065 110.92656128 -28.08117065 110.92656128 -29.21606445 110.31762695 C-31.97816195 108.82761353 -34.73359368 107.32610625 -37.48510742 105.81665039 C-38.67464201 105.16715189 -39.86668412 104.52222318 -41.0612793 103.88208008 C-42.78314178 102.95834643 -44.4952228 102.01645337 -46.20703125 101.07421875 C-47.23868408 100.51387939 -48.27033691 99.95354004 -49.33325195 99.3762207 C-52.21603589 97.34959288 -53.48160008 95.69385205 -54.96875 92.5234375 C-54.86454933 87.75425318 -52.09545762 83.75237368 -49.78125 79.7109375 C-49.34127686 78.93105469 -48.90130371 78.15117188 -48.44799805 77.34765625 C-43.61270402 68.81527458 -38.64872615 60.35635918 -33.69140625 51.89453125 C-29.83660959 45.30921107 -26.02584239 38.69891582 -22.21875 32.0859375 C-13.44021793 16.85745643 -13.44021793 16.85745643 -9.15625 9.5234375 C-8.55248535 8.48231812 -8.55248535 8.48231812 -7.93652344 7.42016602 C-3.99852896 0.70500379 -3.99852896 0.70500379 0 0 Z M3.03125 16.5234375 C-2.61201389 25.01101105 -7.57515371 33.97279994 -12.59375 42.8359375 C-13.9840249 45.28219201 -15.37646767 47.72720765 -16.76953125 50.171875 C-17.11773422 50.78314743 -17.46593719 51.39441986 -17.82469177 52.0242157 C-21.4377157 58.35932714 -25.10298283 64.66347532 -28.78125 70.9609375 C-29.36148926 71.95456299 -29.94172852 72.94818848 -30.53955078 73.97192383 C-34.82688161 81.30235115 -34.82688161 81.30235115 -36.64331055 84.13305664 C-38.21121494 86.50517068 -38.21121494 86.50517068 -37.96875 89.5234375 C-35.72504588 91.23780072 -35.72504588 91.23780072 -32.7890625 92.80859375 C-31.17837891 93.72801758 -31.17837891 93.72801758 -29.53515625 94.66601562 C-28.39949219 95.29958984 -27.26382812 95.93316406 -26.09375 96.5859375 C-23.86573273 97.84508555 -21.6390994 99.10668655 -19.4140625 100.37109375 C-18.41906738 100.92804932 -17.42407227 101.48500488 -16.39892578 102.05883789 C-13.96875 103.5234375 -13.96875 103.5234375 -11.96875 105.5234375 C-11.43083454 111.84307652 -12.68469 116.70640322 -14.8125 122.6171875 C-15.10104858 123.44931763 -15.38959717 124.28144775 -15.68688965 125.13879395 C-16.60265599 127.77120434 -17.53536224 130.39723032 -18.46875 133.0234375 C-19.09618513 134.81731243 -19.72249871 136.61158006 -20.34765625 138.40625 C-21.87508899 142.78329365 -23.41773329 147.15469813 -24.96875 151.5234375 C-22.01826061 151.84343402 -22.01826061 151.84343402 -20.42578125 150.23828125 C-19.61173828 149.35849609 -19.61173828 149.35849609 -18.78125 148.4609375 C-16.36583554 145.93984866 -13.92806438 143.55080071 -11.28125 141.2734375 C-7.82723666 138.29376641 -4.44984012 135.23746334 -1.09375 132.1484375 C3.44115467 127.97692255 7.99928656 123.83346258 12.5859375 119.71875 C14.28182592 118.19624314 15.97430367 116.66993195 17.6640625 115.140625 C22.0490589 111.17449393 26.44954795 107.26114181 31.03125 103.5234375 C28.50156735 100.63994552 25.67728023 99.11441325 22.296875 97.34375 C20.59917969 96.44462891 20.59917969 96.44462891 18.8671875 95.52734375 C17.67218881 94.90044312 16.47687379 94.27414512 15.28125 93.6484375 C-1.05189895 85.08525234 -1.05189895 85.08525234 -4.96875 81.5234375 C-5.81674879 78.34887794 -5.6089535 76.68979478 -4.02587891 73.80566406 C-2.69377207 71.84227981 -1.26574783 69.99924594 0.21875 68.1484375 C0.75467773 67.4579834 1.29060547 66.7675293 1.84277344 66.05615234 C3.5544208 63.86375532 5.28870399 61.69133701 7.03125 59.5234375 C7.59730957 58.81703125 8.16336914 58.110625 8.74658203 57.3828125 C11.99643219 53.33805517 15.27657174 49.3190192 18.56982422 45.30957031 C21.76022142 41.41031439 24.89440382 37.4658182 28.03125 33.5234375 C25.32124749 30.66475558 22.60667851 28.42486731 19.30078125 26.2890625 C18.41583984 25.71542969 17.53089844 25.14179687 16.61914062 24.55078125 C15.70326172 23.96425781 14.78738281 23.37773438 13.84375 22.7734375 C12.91626953 22.17144531 11.98878906 21.56945312 11.03320312 20.94921875 C7.28501304 18.03756711 7.28501304 18.03756711 3.03125 16.5234375 Z " fill="#ff4200" transform="translate(453.96875,36.4765625)"/>
<path d="M0 0 C4.36451476 4.26312975 6.15959529 9.76070811 8.328125 15.33203125 C8.72199402 16.32377853 9.11586304 17.31552582 9.52166748 18.33732605 C10.77260422 21.49256145 12.01143846 24.65238909 13.25 27.8125 C14.0981632 29.9579968 14.94711279 32.10318289 15.796875 34.24804688 C17.87370777 39.49513242 19.94063558 44.74603575 22 50 C26.11601048 50 28.66576608 47.96474235 32.046875 45.84375 C33.46323257 44.97735908 34.87990953 44.11149011 36.296875 43.24609375 C38.52354972 41.87624739 40.74704197 40.50184616 42.96484375 39.11767578 C45.10898895 37.78331804 47.26430558 36.46875729 49.421875 35.15625 C50.40350616 34.53284729 50.40350616 34.53284729 51.40496826 33.89685059 C55.68873567 31.31216539 58.86514795 30.18553851 64 31 C66.45971033 33.65290052 67.47963738 35.98568931 68.2339325 39.48931885 C68.43158203 40.38357071 68.62923157 41.27782257 68.83287048 42.19917297 C69.03715164 43.17275253 69.2414328 44.14633209 69.4519043 45.14941406 C69.6766745 46.18077988 69.9014447 47.21214569 70.13302612 48.27476501 C70.87361844 51.68627231 71.59928328 55.10075916 72.32421875 58.515625 C72.83494003 60.88985083 73.34632737 63.26393347 73.85835266 65.63787842 C74.92976518 70.61642335 75.99396404 75.5964402 77.05297852 80.57763672 C78.40897527 86.9535229 79.78132539 93.32575189 81.15895367 99.69699478 C82.21769466 104.6011 83.26839652 109.50690041 84.31662941 114.41326141 C84.81947566 116.76282868 85.32464219 119.11190062 85.83218956 121.46045685 C86.54160775 124.74965039 87.24033399 128.040941 87.9362793 131.33300781 C88.14663315 132.29849045 88.356987 133.26397308 88.57371521 134.25871277 C91.3367772 147.4837135 91.3367772 147.4837135 88.9375 152 C85.65394979 153.69473559 83.64399841 153.60733307 80 153 C74.56675395 149.20674296 70.6287675 143.1337313 66.51953125 138.0234375 C63.78387783 134.7406534 60.92137295 131.61646938 58 128.5 C53.47189567 123.66377869 49.19874304 118.69054335 45.046875 113.5234375 C42.13022009 109.92771407 39.0798214 106.45613399 36 103 C30.55659483 104.52311496 26.10880931 107.10317816 21.3125 110 C20.55388672 110.45117188 19.79527344 110.90234375 19.01367188 111.3671875 C15.96222783 113.1878196 12.95742949 115.02838034 10 117 C4.95988363 117.90887344 4.95988363 117.90887344 2 117 C0.52246094 115.38378906 0.52246094 115.38378906 -0.828125 113.203125 C-1.34093018 112.38287842 -1.85373535 111.56263184 -2.38208008 110.7175293 C-2.91599365 109.82074463 -3.44990723 108.92395996 -4 108 C-4.54229248 107.08968018 -5.08458496 106.17936035 -5.64331055 105.24145508 C-7.42995744 102.19394815 -9.18683448 99.1308108 -10.9375 96.0625 C-11.92992138 94.3326544 -12.92234765 92.60281157 -13.91506958 90.87313843 C-14.93764091 89.09060128 -15.95890134 87.30731803 -16.97998047 85.52392578 C-19.5259915 81.07943264 -22.08638038 76.64326707 -24.6484375 72.20800781 C-25.88127342 70.07200253 -27.1117496 67.93463352 -28.33984375 65.79589844 C-31.25636454 60.7212138 -34.19143925 55.66033379 -37.19747925 50.63821411 C-38.61251801 48.27141832 -40.01637926 45.89808478 -41.41943359 43.52416992 C-42.41202576 41.85532972 -43.42066237 40.1960654 -44.4296875 38.53710938 C-50.32813942 28.53511079 -50.32813942 28.53511079 -49 23 C-45.27176799 18.83983868 -39.72472199 16.71284722 -34.75 14.3125 C-29.49702255 11.74939017 -24.26450139 9.18375938 -19.15234375 6.34765625 C-18.39791992 5.93153076 -17.64349609 5.51540527 -16.86621094 5.08666992 C-15.45264227 4.30052679 -14.04525606 3.50312202 -12.64550781 2.69262695 C-8.331319 0.30878328 -5.04275356 -0.85552091 0 0 Z M-8 16 C-10.56343844 17.00173591 -10.56343844 17.00173591 -13.4453125 18.52734375 C-14.52167969 19.07197266 -15.59804688 19.61660156 -16.70703125 20.17773438 C-17.83496094 20.75845703 -18.96289062 21.33917969 -20.125 21.9375 C-21.26066406 22.51435547 -22.39632812 23.09121094 -23.56640625 23.68554688 C-26.38129523 25.1166459 -29.1921983 26.55505865 -32 28 C-32 32.85526494 -30.22876994 35.67425445 -27.875 39.75 C-27.43051514 40.53439453 -26.98603027 41.31878906 -26.52807617 42.12695312 C-22.26434395 49.61959469 -17.91677455 57.06569468 -13.55102539 64.49926758 C-10.28122813 70.06771858 -7.05164428 75.65544127 -3.875 81.27734375 C-2.85304747 83.07807132 -1.83045564 84.87843445 -0.80770874 86.67871094 C0.17257384 88.41112165 1.14337219 90.14888794 2.11401367 91.88671875 C2.70931885 92.9334375 3.30462402 93.98015625 3.91796875 95.05859375 C4.44156982 95.98986084 4.9651709 96.92112793 5.50463867 97.88061523 C6.89372838 100.29393821 6.89372838 100.29393821 10 101 C12.49070735 99.93704524 12.49070735 99.93704524 15.1484375 98.2890625 C16.15390625 97.70382813 17.159375 97.11859375 18.1953125 96.515625 C19.24460938 95.89171875 20.29390625 95.2678125 21.375 94.625 C23.44154568 93.40246431 25.51173939 92.18606932 27.5859375 90.9765625 C28.5042334 90.43080566 29.4225293 89.88504883 30.36865234 89.32275391 C32.99490454 88.00256144 35.08335144 87.30549816 38 87 C42.09671758 88.81381389 44.3617059 91.36761036 47.0625 94.875 C50.60645273 99.34346213 54.29372271 103.58348331 58.1875 107.75 C62.23340442 112.08321766 66.19301305 116.45276559 70 121 C71.27104365 117.18686904 70.58889098 115.15712627 69.73657227 111.23364258 C69.59041473 110.55045456 69.4442572 109.86726654 69.29367065 109.16337585 C68.80867817 106.90541907 68.31260187 104.65005019 67.81640625 102.39453125 C67.47798902 100.82954947 67.14026502 99.26441763 66.8032074 97.69914246 C65.91414447 93.57945661 65.01566624 89.46187925 64.11523438 85.34466553 C63.19809802 81.14311562 62.28984989 76.93964641 61.38085938 72.73632812 C59.59594961 64.48897725 57.801092 56.24383197 56 48 C47.5872936 52.53544826 47.5872936 52.53544826 39.359375 57.39453125 C38.43382813 57.95720703 37.50828125 58.51988281 36.5546875 59.09960938 C34.66481371 60.2538011 32.77946377 61.41542901 30.8984375 62.58398438 C25.84854422 65.63584565 21.94381914 67.76191885 16 68 C12.22558973 62.88365986 10.02387718 57.51616823 7.7421875 51.60546875 C7.35306183 50.61750809 6.96393616 49.62954742 6.5630188 48.61164856 C5.32696606 45.47285053 4.09991958 42.33065807 2.875 39.1875 C1.25521689 35.03203384 -0.37347965 30.88023066 -2.0078125 26.73046875 C-2.37866974 25.77013229 -2.74952698 24.80979584 -3.13162231 23.82035828 C-3.47893402 22.93886612 -3.82624573 22.05737396 -4.18408203 21.14916992 C-4.48734406 20.3700676 -4.79060608 19.59096527 -5.10305786 18.78825378 C-5.86885587 16.81599181 -5.86885587 16.81599181 -8 16 Z " fill="#ff4200" transform="translate(58,37)"/>
<path d="M0 0 C0.80187744 0.0105542 1.60375488 0.0211084 2.42993164 0.03198242 C10.15278322 0.18909834 17.87163992 0.57158366 25.58337402 1.00723267 C26.98249138 1.08554087 28.38183416 1.15992315 29.78137207 1.23031616 C31.77040559 1.33322877 33.75831124 1.45726723 35.74609375 1.58203125 C37.48137329 1.68414917 37.48137329 1.68414917 39.25170898 1.78833008 C42.54962728 2.36488171 43.85111087 3.02592503 46.25 5.3125 C47.66599785 11.97859863 45.78399017 19.7104865 44.71875 26.3515625 C44.48569153 27.86186539 44.48569153 27.86186539 44.2479248 29.40267944 C43.75566064 32.58209663 43.2530163 35.7597681 42.75 38.9375 C42.41206964 41.10796548 42.0748235 43.2785376 41.73828125 45.44921875 C40.91675623 50.73823724 40.08672918 56.02586669 39.25 61.3125 C40.56718018 61.29155273 41.88436035 61.27060547 43.24145508 61.24902344 C48.12220413 61.17669557 53.0029057 61.13072638 57.8840332 61.09277344 C59.99772097 61.07264153 62.11135294 61.04533357 64.22485352 61.01074219 C67.26071935 60.96229373 70.29584978 60.93954724 73.33203125 60.921875 C74.7524749 60.89090729 74.7524749 60.89090729 76.20161438 60.85931396 C82.59807092 60.85711963 82.59807092 60.85711963 85.43237305 62.83691406 C87.89107018 70.28128223 83.60072674 78.95919068 81.234375 85.99609375 C80.6095869 87.8854563 79.98480252 89.77482008 79.36018181 91.66423798 C78.69863201 93.6608745 78.03355086 95.65630168 77.36737061 97.65139771 C75.30089138 103.84074672 73.2550292 110.0369185 71.20812607 116.23276329 C70.75114996 117.61561076 70.29388662 118.99836334 69.83633804 120.3810215 C65.09714693 134.70272893 60.52447777 149.07464975 56.03417969 163.47631836 C55.78783783 164.26227386 55.54149597 165.04822937 55.28768921 165.85800171 C54.83805254 167.29302608 54.3911994 168.72892738 53.94790649 170.16592407 C51.96448266 176.49023066 51.96448266 176.49023066 50.25 179.3125 C47.1667365 180.85413175 44.64121901 180.60997535 41.25 180.3125 C38.16939914 177.24810933 37.53472426 174.07406157 36.71606445 169.89160156 C36.58882996 169.25703537 36.46159546 168.62246918 36.33050537 167.96867371 C35.91469787 165.88200582 35.51393258 163.79275105 35.11328125 161.703125 C34.82703039 160.25134326 34.53984154 158.79974618 34.25175476 157.34832764 C33.49769376 153.53611433 32.75637458 149.7215313 32.0177002 145.90631104 C31.26103086 142.01024517 30.49231162 138.11656029 29.72460938 134.22265625 C28.22128352 126.58821412 26.73141348 118.95122779 25.25 111.3125 C24.26604248 111.29791748 23.28208496 111.28333496 22.26831055 111.26831055 C18.61706226 111.21033002 14.96643089 111.13309815 11.31567383 111.05004883 C9.73569757 111.01679812 8.15560248 110.98876654 6.57543945 110.96606445 C4.30368421 110.93251984 2.03301797 110.88020773 -0.23828125 110.82421875 C-0.94463211 110.81782883 -1.65098297 110.8114389 -2.3787384 110.80485535 C-7.28743744 110.65773996 -7.28743744 110.65773996 -9.43680763 109.05352783 C-11.07612455 106.88012471 -11.12692784 105.7278612 -11.13095093 103.02368164 C-11.1394104 102.14882111 -11.14786987 101.27396057 -11.15658569 100.37258911 C-11.150513 99.41561127 -11.14444031 98.45863342 -11.13818359 97.47265625 C-11.14344055 96.46266571 -11.14869751 95.45267517 -11.15411377 94.41207886 C-11.16734123 91.0662296 -11.15856576 87.72085428 -11.1484375 84.375 C-11.15045744 82.05476795 -11.15336821 79.73453651 -11.15713501 77.41430664 C-11.1615621 72.54860395 -11.15511481 67.68306634 -11.14111328 62.81738281 C-11.12402136 56.57252361 -11.13386046 50.32805118 -11.15183067 44.08320618 C-11.16265803 39.29118929 -11.15922696 34.49926449 -11.1514473 29.70724487 C-11.14944239 27.40428624 -11.15191468 25.10131932 -11.15888596 22.79837036 C-11.16648304 19.58280205 -11.15492025 16.36786491 -11.13818359 13.15234375 C-11.14425629 12.19536591 -11.15032898 11.23838806 -11.15658569 10.25241089 C-11.14389648 8.94012009 -11.14389648 8.94012009 -11.13095093 7.60131836 C-11.12981985 6.84104843 -11.12868877 6.0807785 -11.12752342 5.29747009 C-10.00012819 -0.63023051 -4.96898411 -0.11536176 0 0 Z M2.25 13.3125 C2.25 41.0325 2.25 68.7525 2.25 97.3125 C18.09 97.8075 18.09 97.8075 34.25 98.3125 C37.62445584 102.81177446 37.62445584 102.81177446 38.29321289 106.48266602 C38.44669693 107.29353165 38.60018097 108.10439728 38.75831604 108.93983459 C38.91154831 109.80660324 39.06478058 110.67337189 39.22265625 111.56640625 C39.39123642 112.46366928 39.55981659 113.36093231 39.73350525 114.28538513 C40.27007962 117.14679879 40.7924118 120.01054753 41.3125 122.875 C41.83750889 125.74272591 42.36568373 128.60973149 42.90220642 131.47532654 C43.23539833 133.25695087 43.56177903 135.03986536 43.88063049 136.82411194 C44.10612831 138.03568214 44.10612831 138.03568214 44.33618164 139.27172852 C44.5291256 140.33617943 44.5291256 140.33617943 44.72596741 141.4221344 C45.2291748 143.6195539 45.2291748 143.6195539 47.25 146.3125 C49.40395567 139.75642931 51.55391854 133.19905806 53.70141602 126.64086914 C54.42873894 124.42118376 55.15689661 122.20177169 55.88598633 119.98266602 C60.86828185 104.81571946 65.67282163 89.60678654 70.25 74.3125 C69.02893555 74.33344727 67.80787109 74.35439453 66.54980469 74.37597656 C62.01753476 74.44840159 57.48531593 74.49430888 52.95263672 74.53222656 C50.99128619 74.55233632 49.02999556 74.57962818 47.06884766 74.61425781 C44.24887305 74.66280421 41.42969135 74.68547486 38.609375 74.703125 C37.29510529 74.73409271 37.29510529 74.73409271 35.95428467 74.76568604 C29.89178097 74.76791823 29.89178097 74.76791823 26.6730957 72.48388672 C24.60330958 69.32576735 25.12538949 66.7443598 25.6875 63.1875 C25.78659668 62.44556396 25.88569336 61.70362793 25.98779297 60.93920898 C26.38221338 58.05938052 26.81654858 55.18672107 27.25 52.3125 C27.67293241 49.43133386 28.09189959 46.54959 28.51171875 43.66796875 C29.18866374 39.02892172 29.87062313 34.39079067 30.57202148 29.75537109 C30.68210037 29.02401443 30.79217926 28.29265778 30.90559387 27.53913879 C31.20969726 25.52202327 31.5161565 23.50526333 31.82275391 21.48852539 C32.31666068 18.35106917 32.31666068 18.35106917 32.25 15.3125 C27.81263383 14.977369 23.37508635 14.64470171 18.9375 14.3125 C17.67486328 14.21710937 16.41222656 14.12171875 15.11132812 14.0234375 C13.90283203 13.93320312 12.69433594 13.84296875 11.44921875 13.75 C10.33377686 13.66621094 9.21833496 13.58242188 8.0690918 13.49609375 C6.13253177 13.36997501 4.19066243 13.3125 2.25 13.3125 Z " fill="#ff4200" transform="translate(226.75,36.6875)"/>
</svg>
