<?xml version="1.0" standalone="no"?>
<!DOCTYPE svg PUBLIC "-//W3C//DTD SVG 20010904//EN"
 "http://www.w3.org/TR/2001/REC-SVG-20010904/DTD/svg10.dtd">
<svg version="1.0" xmlns="http://www.w3.org/2000/svg"
 width="512.000000pt" height="512.000000pt" viewBox="0 0 512.000000 512.000000"
 preserveAspectRatio="xMidYMid meet">

<g transform="translate(0.000000,512.000000) scale(0.100000,-0.100000)"
fill="#ff4200" stroke="none">
<path d="M2267 4760 c-32 -26 -33 -28 -52 -185 -9 -71 -17 -129 -18 -130 -68
-30 -41 -42 -218 93 -72 55 -87 63 -113 58 -23 -5 -76 -52 -203 -179 -149
-149 -173 -177 -173 -204 0 -24 21 -57 89 -144 82 -105 88 -115 79 -141 -6
-16 -18 -32 -27 -37 -9 -5 -72 -14 -140 -21 -105 -11 -127 -17 -152 -37 l-29
-25 0 -243 c0 -134 3 -251 6 -260 11 -28 56 -43 174 -56 141 -15 155 -20 168
-57 9 -28 6 -35 -59 -118 -82 -104 -101 -116 -87 -52 14 58 -4 119 -45 161
-27 26 -99 57 -381 165 -192 73 -361 135 -376 138 -14 3 -45 1 -68 -6 -88 -23
-84 -14 -371 -765 -145 -379 -266 -705 -268 -726 -3 -20 0 -52 6 -71 24 -74
53 -90 432 -234 323 -124 359 -135 406 -132 63 5 119 44 142 99 9 22 19 39 23
39 3 0 18 -21 33 -47 15 -27 45 -71 66 -100 38 -51 38 -52 24 -87 -21 -49 -19
-142 4 -191 34 -74 111 -132 192 -142 30 -4 39 -10 39 -25 0 -27 33 -89 66
-122 35 -34 87 -61 136 -70 33 -6 38 -11 53 -55 28 -84 123 -160 201 -161 28
0 33 -4 38 -34 15 -82 108 -169 192 -182 93 -14 164 12 231 83 l42 45 113 -97
c145 -125 173 -143 239 -157 119 -24 240 50 275 169 9 30 21 56 27 58 7 1 32
8 56 15 57 15 132 89 149 146 11 40 15 42 59 49 26 4 64 15 83 25 48 24 105
88 120 134 9 29 16 36 38 36 155 0 276 152 238 299 l-13 49 47 36 c48 36 120
110 228 234 35 40 77 79 93 87 28 15 29 15 44 -22 31 -74 88 -113 164 -113 27
0 153 43 392 135 377 143 406 159 430 233 6 19 9 51 6 71 -2 21 -123 347 -268
726 -287 751 -283 742 -371 765 -23 7 -54 9 -68 6 -15 -3 -184 -65 -376 -138
-282 -108 -354 -139 -381 -165 -41 -42 -59 -103 -45 -161 8 -37 7 -44 -9 -52
-37 -20 -55 -8 -132 91 -77 99 -78 100 -66 134 14 38 10 36 184 56 99 11 113
15 138 40 l28 28 -3 245 c-4 306 12 281 -189 307 -79 10 -145 18 -146 18 -7 4
-21 66 -16 75 4 6 39 52 78 101 88 111 99 130 90 163 -7 31 -304 335 -349 359
-15 8 -39 12 -51 9 -13 -3 -72 -44 -131 -91 -72 -57 -113 -83 -123 -79 -9 3
-24 9 -34 11 -21 6 -22 13 -41 173 -20 180 -3 170 -305 170 -224 0 -240 -1
-264 -20z m423 -270 c9 -69 21 -134 27 -145 10 -18 165 -91 203 -95 36 -5 54
4 151 81 l103 80 102 -102 c57 -57 100 -107 96 -113 -3 -6 -39 -53 -78 -104
-40 -51 -75 -101 -79 -111 -8 -26 75 -220 100 -234 11 -6 76 -18 145 -27 l125
-15 3 -147 c2 -117 0 -148 -11 -148 -40 0 -249 -30 -264 -39 -10 -5 -37 -57
-60 -115 -49 -123 -50 -118 31 -221 30 -38 53 -71 52 -73 -2 -2 -57 8 -122 22
-125 26 -354 59 -488 71 l-79 7 49 17 c215 72 363 302 340 526 -13 127 -66
234 -159 322 -95 89 -188 130 -317 139 -288 22 -540 -215 -540 -506 0 -243
179 -458 417 -502 l62 -11 -37 -19 c-20 -10 -86 -57 -145 -104 l-108 -87 -208
5 c-199 6 -210 7 -264 33 -31 14 -57 31 -57 36 0 5 36 54 80 110 55 68 80 108
80 127 0 32 -66 190 -89 214 -12 13 -50 22 -136 33 -66 8 -126 15 -132 15 -10
0 -13 36 -13 148 l0 148 131 16 c153 18 153 19 200 128 53 126 53 129 -42 249
l-82 103 104 104 104 104 103 -81 c71 -56 110 -80 130 -80 35 0 189 64 213 88
14 14 23 49 34 138 8 66 15 126 15 133 0 10 33 12 147 10 l148 -3 15 -125z
m-15 -614 c69 -31 134 -96 171 -172 25 -51 29 -70 29 -144 0 -76 -4 -93 -33
-152 -38 -77 -92 -130 -171 -167 -48 -22 -70 -26 -146 -26 -78 0 -98 4 -146
28 -67 32 -142 109 -172 175 -18 38 -22 65 -22 142 0 84 3 101 28 147 52 100
126 161 226 190 66 19 170 9 236 -21z m-1645 -678 c173 -66 318 -123 323 -127
9 -9 -503 -1352 -519 -1358 -13 -5 -674 246 -674 257 0 7 509 1340 517 1353 3
5 12 5 22 2 9 -4 158 -61 331 -127z m3674 -552 c142 -372 257 -679 254 -682
-13 -12 -662 -255 -672 -251 -11 4 -518 1317 -520 1346 -1 10 101 54 329 142
182 70 334 126 340 125 5 -2 126 -307 269 -680z m-1928 243 c160 -16 379 -54
549 -96 l149 -37 103 36 102 35 10 -26 c19 -48 361 -944 361 -946 0 -1 -27
-19 -60 -39 -33 -20 -83 -65 -112 -99 -79 -92 -188 -205 -230 -238 l-37 -30
-473 447 c-332 314 -486 453 -517 467 -135 60 -282 -17 -327 -171 -58 -198
-86 -253 -152 -297 -21 -14 -64 -31 -95 -37 -50 -11 -58 -10 -77 7 -19 17 -20
29 -19 269 0 169 4 261 12 283 9 23 82 86 282 245 149 118 279 220 290 226 25
14 102 15 241 1z m-1172 -129 c130 -62 154 -70 209 -71 34 -1 91 -4 126 -8
l63 -6 -78 -65 c-45 -38 -90 -85 -104 -110 -25 -45 -25 -47 -28 -334 -3 -250
-2 -294 13 -332 24 -62 52 -93 109 -120 58 -27 119 -30 187 -10 169 51 277
176 329 382 31 119 64 155 121 130 15 -6 250 -221 522 -478 517 -488 520 -492
494 -548 -15 -31 -61 -54 -91 -46 -13 3 -135 100 -271 216 -204 173 -253 210
-278 210 -44 0 -77 -35 -77 -81 0 -37 5 -42 219 -224 121 -102 222 -193 225
-201 8 -20 8 -58 0 -79 -9 -23 -62 -48 -90 -41 -13 4 -130 96 -259 206 -257
218 -271 225 -320 175 -34 -33 -33 -79 3 -114 15 -14 111 -97 213 -184 103
-86 190 -164 193 -173 25 -66 -21 -123 -96 -116 -9 1 -110 81 -224 177 -210
177 -228 188 -279 169 -22 -9 -43 -59 -37 -90 3 -17 64 -75 193 -184 198 -169
219 -190 219 -228 0 -30 -52 -82 -82 -82 -30 0 -51 15 -194 136 l-119 102 -1
59 c-1 45 -8 72 -30 112 -26 48 -82 99 -123 113 -11 3 -15 23 -16 74 -1 49 -7
80 -22 110 -27 50 -90 108 -134 123 -33 11 -34 13 -36 64 -1 63 -27 118 -75
164 -51 49 -99 65 -184 62 l-73 -3 -30 41 c-17 23 -52 54 -78 70 -41 24 -59
28 -118 28 -85 -1 -131 -22 -193 -89 -24 -26 -47 -44 -53 -41 -5 4 -31 43 -56
87 -31 53 -60 89 -85 106 -21 13 -38 28 -38 32 0 6 318 845 361 953 6 15 15
27 19 27 4 0 73 -31 154 -70z m-53 -1189 c16 -17 29 -40 29 -54 0 -27 -45 -88
-131 -179 -45 -48 -61 -58 -87 -58 -45 0 -82 38 -82 84 0 30 12 49 76 121 41
46 85 92 97 100 33 23 65 18 98 -14z m304 -117 c23 -9 48 -62 41 -90 -7 -27
-214 -266 -252 -291 -52 -34 -134 28 -119 90 4 14 60 86 126 161 109 124 123
136 154 136 18 0 41 -3 50 -6z m190 -280 c23 -9 48 -62 41 -90 -6 -22 -135
-179 -178 -216 -50 -43 -138 -4 -138 61 0 24 19 53 90 135 50 57 96 107 103
109 18 8 63 8 82 1z m160 -304 c33 -13 59 -69 46 -103 -5 -12 -33 -49 -63 -80
-63 -66 -101 -75 -143 -32 -40 39 -34 81 21 146 66 77 89 88 139 69z"/>
</g>
</svg>
