<?xml version="1.0" standalone="no"?>
<!DOCTYPE svg PUBLIC "-//W3C//DTD SVG 20010904//EN"
 "http://www.w3.org/TR/2001/REC-SVG-20010904/DTD/svg10.dtd">
<svg version="1.0" xmlns="http://www.w3.org/2000/svg"
 width="512.000000pt" height="512.000000pt" viewBox="0 0 512.000000 512.000000"
 preserveAspectRatio="xMidYMid meet">

<g transform="translate(0.000000,512.000000) scale(0.100000,-0.100000)"
fill="#ff4200" stroke="none">
<path d="M3065 5109 c-110 -13 -291 -55 -394 -90 -127 -44 -354 -160 -456
-234 -368 -264 -625 -637 -729 -1053 -44 -177 -51 -238 -51 -457 0 -219 7
-280 51 -457 47 -188 119 -358 223 -523 l62 -99 -155 -155 -155 -155 -70 67
c-118 114 -52 161 -704 -490 -345 -345 -573 -581 -598 -618 -111 -168 -114
-411 -8 -581 68 -108 177 -194 297 -236 53 -18 89 -23 172 -23 124 0 206 24
298 85 32 22 300 283 615 597 651 652 604 586 490 704 l-67 70 155 155 155
155 99 -62 c204 -128 413 -208 670 -256 116 -21 381 -28 517 -13 614 68 1161
449 1437 1005 81 162 119 267 155 426 115 514 7 1042 -302 1479 -79 112 -285
323 -392 402 -237 174 -512 292 -800 342 -114 20 -404 29 -515 15z m417 -204
c184 -24 327 -66 496 -145 712 -336 1087 -1139 888 -1901 -140 -537 -553 -976
-1076 -1148 -197 -64 -273 -75 -515 -75 -191 0 -234 3 -325 22 -660 143 -1149
632 -1292 1292 -19 91 -22 134 -22 325 0 242 11 318 75 515 158 485 552 880
1041 1044 99 33 274 71 363 79 102 9 264 6 367 -8z m-1589 -3157 l-148 -148
-72 72 -73 73 147 147 148 148 72 -72 73 -73 -147 -147z m-220 -570 l-108
-108 -247 247 -248 248 107 107 108 108 247 -247 248 -248 -107 -107z m-493
-3 l245 -245 -335 -335 c-388 -387 -392 -390 -540 -390 -76 0 -93 4 -152 33
-77 38 -130 92 -167 171 -22 47 -26 70 -26 141 0 147 3 152 388 537 182 183
334 333 337 333 3 0 115 -110 250 -245z"/>
<path d="M3120 4709 c-496 -55 -921 -353 -1141 -799 -56 -112 -89 -210 -121
-352 -32 -144 -32 -425 0 -570 44 -199 111 -360 219 -522 75 -112 229 -274
338 -354 426 -314 1001 -369 1480 -142 232 111 450 301 587 515 317 492 312
1108 -13 1600 -72 108 -279 315 -389 386 -291 191 -629 275 -960 238z m387
-214 c244 -46 464 -164 644 -344 240 -240 361 -532 362 -871 1 -351 -115 -635
-362 -881 -184 -185 -377 -290 -631 -345 -117 -25 -371 -26 -487 -1 -389 83
-702 324 -876 672 -42 86 -81 200 -104 308 -25 116 -24 370 1 487 55 255 170
463 352 641 112 108 187 162 312 224 137 68 287 111 447 129 69 7 259 -3 342
-19z"/>
<path d="M3170 4065 c-269 -76 -383 -384 -227 -614 26 -39 28 -45 14 -55 -145
-103 -196 -153 -255 -259 -65 -113 -75 -162 -80 -394 l-4 -213 30 -30 30 -30
587 0 c653 0 633 -2 655 66 18 52 7 380 -14 454 -42 148 -155 301 -279 380
l-56 35 25 33 c121 158 97 394 -55 534 -98 91 -245 128 -371 93z m165 -196
c58 -16 120 -84 133 -146 43 -197 -188 -329 -333 -189 -83 79 -86 196 -7 280
54 58 127 77 207 55z m125 -635 c93 -44 172 -120 215 -207 42 -86 55 -150 55
-268 l0 -89 -455 0 -455 0 0 103 c0 165 32 258 123 355 57 59 115 97 192 125
39 13 73 17 155 14 92 -3 113 -7 170 -33z"/>
</g>
</svg>
