<?xml version="1.0" encoding="UTF-8"?>
<svg version="1.1" xmlns="http://www.w3.org/2000/svg" width="512" height="512">
<path d="M0 0 C0.91768587 -0.00367669 1.83537174 -0.00735338 2.78086627 -0.01114148 C5.87471922 -0.02220851 8.96853863 -0.02602723 12.06240845 -0.02983093 C14.27293506 -0.0360932 16.4834606 -0.04273979 18.69398499 -0.04974365 C24.71253456 -0.06717306 30.73107618 -0.07771025 36.74964476 -0.08594918 C40.50626102 -0.09109419 44.26287478 -0.09717008 48.01948929 -0.10346031 C58.41653046 -0.12033131 68.81357004 -0.13496721 79.21062279 -0.14220905 C81.90910214 -0.144119 84.60758148 -0.14603933 87.30606079 -0.147995 C87.97676887 -0.14847874 88.64747695 -0.14896248 89.33850951 -0.14946087 C100.20919697 -0.15776533 111.07977454 -0.18310947 121.95041399 -0.21557567 C133.10597471 -0.24862181 144.2614956 -0.26632256 155.41710913 -0.26985329 C161.68270107 -0.27220929 167.94811929 -0.28124119 174.21366501 -0.30631447 C180.10531801 -0.32951047 185.99668187 -0.3338626 191.88836861 -0.32355309 C194.05397691 -0.32305558 196.21959905 -0.32943878 198.38516426 -0.34310913 C201.33549653 -0.36069541 204.28477608 -0.35378742 207.23510742 -0.34057617 C208.52877906 -0.35703004 208.52877906 -0.35703004 209.84858549 -0.37381631 C213.53881006 -0.33375859 215.6292036 -0.25126451 218.77588081 1.78624439 C220.67700984 4.84238858 220.74762904 6.81510111 220.75247192 10.40974426 C220.76939087 12.34036964 220.76939087 12.34036964 220.78665161 14.30999756 C220.77887457 15.73423992 220.77068191 17.15848006 220.76211548 18.5827179 C220.76753623 20.08419473 220.77465863 21.58566625 220.78335571 23.08712769 C220.80159789 27.16360821 220.79451804 31.239684 220.78183937 35.31617165 C220.77171626 39.58109762 220.78110313 43.84598881 220.78738403 48.11091614 C220.79466246 55.27329229 220.78506767 62.4355035 220.76602173 69.59785461 C220.74425253 77.8799758 220.75130377 86.16170312 220.77332735 94.44381475 C220.79147584 101.55306289 220.7940424 108.66219242 220.78357267 115.77145624 C220.77733468 120.01821506 220.77651042 124.26478871 220.78971863 128.51153564 C220.80126859 132.50404242 220.79326754 136.49604112 220.7701416 140.48849297 C220.76484987 141.95423476 220.7663763 143.42001926 220.77519226 144.88574409 C220.78611104 146.88534652 220.76999493 148.88504232 220.75247192 150.88459778 C220.75020977 152.56368603 220.75020977 152.56368603 220.74790192 154.27669525 C220.24453735 157.14717102 220.24453735 157.14717102 218.77783298 159.50725651 C214.99147503 161.95833378 211.62748914 161.69745928 207.20387268 161.64837646 C206.27968885 161.65391086 205.35550501 161.65944526 204.4033156 161.66514736 C201.29925528 161.67878619 198.1959945 161.66376697 195.09194946 161.64888 C192.86965085 161.65266197 190.6473546 161.658161 188.42506409 161.66525269 C182.38387004 161.67923961 176.34295976 161.66801501 170.30178142 161.65154147 C163.98774017 161.63771586 157.67371582 161.64414814 151.35966492 161.64767456 C140.75637594 161.65037845 130.15321154 161.6369723 119.54995728 161.61372375 C108.63617761 161.589797 97.72254752 161.58272159 86.80874634 161.59321594 C73.66131918 161.6058354 60.51397883 161.60334131 47.36654854 161.58755684 C42.34226428 161.58178799 37.31803006 161.58188675 32.29374504 161.58662224 C26.3815519 161.59138281 20.46956667 161.58132846 14.5574131 161.55966759 C12.38333716 161.55408725 10.20924129 161.55364577 8.03516388 161.55862045 C5.07594874 161.56454417 2.11737554 161.55212426 -0.84178162 161.53485107 C-1.70966893 161.54086112 -2.57755624 161.54687117 -3.47174317 161.55306333 C-9.32356615 161.49060515 -9.32356615 161.49060515 -11.43593115 159.81090122 C-21.94108582 146.56548562 -13.75546265 126.05277096 -13.75546265 109.14717102 C-59.62546265 109.14717102 -105.49546265 109.14717102 -152.75546265 109.14717102 C-152.75546265 124.32717102 -152.75546265 139.50717102 -152.75546265 155.14717102 C-155.75546265 160.14717102 -155.75546265 160.14717102 -156.75546265 161.14717102 C-172.92546265 161.14717102 -189.09546265 161.14717102 -205.75546265 161.14717102 C-205.75546265 225.49717102 -205.75546265 289.84717102 -205.75546265 356.14717102 C-184.96546265 356.14717102 -164.17546265 356.14717102 -142.75546265 356.14717102 C-137.75546265 359.14717102 -137.75546265 359.14717102 -135.75546265 363.14717102 C-135.75546265 369.08717102 -135.75546265 375.02717102 -135.75546265 381.14717102 C-116.61546265 381.14717102 -97.47546265 381.14717102 -77.75546265 381.14717102 C-77.77902832 372.82558777 -77.77902832 372.82558777 -77.80307007 364.33589172 C-77.85271115 346.0354016 -77.88604237 327.73490887 -77.91089916 309.43436909 C-77.92637471 298.33542769 -77.9474774 287.23655003 -77.98178101 276.13764954 C-78.01166227 266.46499168 -78.03103265 256.79237998 -78.03772813 247.11967725 C-78.04164254 241.99701709 -78.05085629 236.87448899 -78.07265282 231.75187111 C-78.09299781 226.93138983 -78.09930045 222.11109516 -78.09478569 217.29057503 C-78.09561178 215.52046444 -78.10158925 213.75034769 -78.11307907 211.9802742 C-78.12799222 209.56455134 -78.12442078 207.14953416 -78.1162262 204.73379517 C-78.12496472 204.03242489 -78.13370324 203.33105461 -78.14270657 202.60843068 C-78.1031206 198.29470493 -77.39146416 195.58244139 -74.75546265 192.14717102 C-71.618238 190.5785587 -68.28442507 191.06398911 -64.84434509 191.11680603 C-64.01735279 191.1252738 -63.19036048 191.13374158 -62.3383078 191.14246595 C-60.5190172 191.16156808 -58.69974961 191.18295893 -56.88050842 191.20629692 C-51.82311427 191.27084531 -46.76554282 191.31824318 -41.70799255 191.36875916 C-40.62775539 191.38004042 -39.54751822 191.39132168 -38.43454659 191.4029448 C-24.62242433 191.54395442 -10.80982646 191.59385896 3.00287521 191.64485097 C16.45836523 191.69476317 29.91190059 191.77463777 43.36636353 191.95283508 C54.04729408 192.09413949 64.72628256 192.16824519 75.40818173 192.16321504 C81.06160642 192.16299567 86.71030551 192.19628577 92.36266899 192.31067276 C97.68756975 192.4175417 103.00538187 192.43462696 108.33104515 192.38432503 C110.27947091 192.38154081 112.22826539 192.41102078 114.17560959 192.4759922 C122.99322145 192.82008527 122.99322145 192.82008527 131.24453735 190.14717102 C135.91462102 185.32524995 138.51482687 179.275646 141.21825325 173.21998668 C142.50531409 170.6204727 143.91503609 168.87834446 146.24453735 167.14717102 C154.12723116 165.68838933 159.56096197 169.59084453 166.18203735 173.52217102 C167.28579712 174.15977356 168.38955688 174.7973761 169.52676392 175.45429993 C172.77563647 177.33599773 176.01075731 179.23968786 179.24453735 181.14717102 C180.89603446 182.10696264 182.54828544 183.06545925 184.2015686 184.02217102 C188.23559899 186.36475599 192.24512191 188.7460583 196.24453735 191.14717102 C196.87907837 191.52631653 197.51361938 191.90546204 198.16738892 192.2960968 C199.98833708 193.38651017 201.80484674 194.48388154 203.61953735 195.58467102 C205.14707642 196.51086243 205.14707642 196.51086243 206.70547485 197.45576477 C207.54336548 198.01392883 208.3812561 198.5720929 209.24453735 199.14717102 C210.16106079 199.75238586 210.16106079 199.75238586 211.09609985 200.36982727 C213.1431148 203.53782658 212.96628844 206.5967762 212.24453735 210.14717102 C210.56800166 213.9872469 208.39958134 217.47314789 206.18203735 221.02217102 C204.38254495 223.97924415 202.60107007 226.9370093 200.87800598 229.9395752 C199.00184492 233.0894557 196.88218418 235.86831075 194.5766449 238.7159729 C178.77458056 259.7979981 181.24569172 283.87119019 181.62049389 309.06244683 C181.69816549 315.4233845 181.68693084 321.7841851 181.68502808 328.14550781 C181.69304567 338.79788513 181.75076625 349.44872611 181.85049438 360.10054016 C181.95277293 371.04419721 182.03151651 381.98753232 182.0741272 392.93159485 C182.07677726 393.608946 182.07942733 394.28629716 182.0821577 394.98417411 C182.11051482 402.38051823 182.13325382 409.77687311 182.15361404 417.17324352 C182.16090484 419.78175547 182.1682023 422.39026739 182.17550659 424.9987793 C182.17889707 426.27185273 182.18228755 427.54492616 182.18578076 428.85657758 C182.20848184 436.41553921 182.25451695 443.97390981 182.3212266 451.53260863 C182.36092442 456.2166751 182.38936482 460.90077085 182.41586113 465.58492851 C182.43104434 467.75823473 182.45152856 469.93151123 182.47765541 472.10471344 C182.51283358 475.06628445 182.52972513 478.02742616 182.54232788 480.98916626 C182.55740725 481.85178505 182.57248662 482.71440384 182.58802295 483.60316259 C182.58681171 488.27686879 182.30279196 491.35835556 179.24453735 495.14717102 C176.94656682 496.29615628 175.66061102 496.27438838 173.10527229 496.27859879 C172.2329081 496.28243993 171.3605439 496.28628108 170.46174443 496.29023862 C169.49756152 496.28937214 168.5333786 496.28850565 167.53997803 496.28761292 C166.01031601 496.2920696 166.01031601 496.2920696 164.44975173 496.29661632 C161.01040779 496.30533303 157.57109852 496.30681406 154.13174438 496.30830383 C151.67491582 496.31292987 149.21808798 496.31795423 146.76126099 496.323349 C140.07124022 496.33649481 133.38123312 496.34295848 126.69120264 496.34735966 C122.51581221 496.35012031 118.34042411 496.35435732 114.16503525 496.35886383 C102.60991371 496.37105752 91.05479404 496.3813568 79.49966621 496.38473892 C78.75983989 496.38495849 78.02001357 496.38517805 77.25776827 496.38540427 C76.14533983 496.38573169 76.14533983 496.38573169 75.01043808 496.38606572 C73.50757925 496.38650919 72.00472041 496.38695575 70.50186157 496.3874054 C69.75638812 496.38762683 69.01091468 496.38784826 68.24285112 496.38807639 C56.15971474 496.39202559 44.07663862 496.40948284 31.99352552 496.43276492 C19.59494442 496.45646249 7.19639358 496.46894004 -5.20221055 496.47010684 C-12.16640448 496.47102448 -19.13051989 496.47679896 -26.09469223 496.49492645 C-32.64291349 496.5119109 -39.19101175 496.51359201 -45.73925781 496.50478745 C-48.14674402 496.50401386 -50.55423805 496.50840181 -52.96170425 496.5182457 C-56.24029532 496.53086855 -59.51834949 496.525141 -62.79693604 496.5146637 C-63.7566575 496.5227201 -64.71637897 496.53077651 -65.70518291 496.53907704 C-72.09622524 496.49108599 -72.09622524 496.49108599 -75.31537056 494.81170273 C-78.64710406 490.96071562 -77.8892626 486.15170063 -77.86898804 481.36128235 C-77.86913406 480.46351578 -77.86928009 479.56574921 -77.86943054 478.64077759 C-77.86873329 475.67022799 -77.86094961 472.69974093 -77.8531189 469.72920227 C-77.85125405 467.67082758 -77.84983046 465.61245244 -77.84883118 463.55407715 C-77.84501123 458.13386309 -77.83518538 452.71367578 -77.8241272 447.29347229 C-77.81210436 440.79149681 -77.80750835 434.2895124 -77.80167389 427.78752899 C-77.79197338 417.90739106 -77.77281314 408.02731183 -77.75546265 398.14717102 C-96.89546265 398.14717102 -116.03546265 398.14717102 -135.75546265 398.14717102 C-135.72065796 404.73041321 -135.68585327 411.3136554 -135.6499939 418.09638977 C-135.63466579 422.26632051 -135.62022395 426.43621653 -135.60897827 430.6061554 C-135.59104295 437.225288 -135.56982232 443.84429613 -135.52914429 450.46333313 C-135.49655489 455.79958269 -135.47861042 461.13569878 -135.47083092 466.47204018 C-135.46528668 468.50821344 -135.4544602 470.54437937 -135.43827248 472.58049583 C-135.41650398 475.43190183 -135.4134955 478.28275588 -135.41488647 481.13423157 C-135.40410065 481.97652313 -135.39331482 482.8188147 -135.38220215 483.68663025 C-135.40670756 488.32730963 -135.73365545 491.38018349 -138.75546265 495.14717102 C-141.30107783 496.41997861 -143.09141165 496.28163786 -145.94232178 496.29434204 C-147.59115608 496.305075 -147.59115608 496.305075 -149.27330017 496.31602478 C-150.48477219 496.31871368 -151.6962442 496.32140259 -152.94442749 496.32417297 C-154.21601212 496.33074417 -155.48759674 496.33731537 -156.79771423 496.34408569 C-160.29154829 496.36149826 -163.78536867 496.37204783 -167.27923536 496.38029122 C-169.46126131 496.38544014 -171.643283 496.39151588 -173.82530594 496.39780235 C-180.65007343 496.41685394 -187.4748301 496.43108594 -194.29961908 496.43941432 C-202.18217621 496.44919198 -210.06445292 496.47552512 -217.94691122 496.51591522 C-224.03698734 496.54605224 -230.12698295 496.56088082 -236.21713221 496.56419533 C-239.85588364 496.56654833 -243.49433549 496.57554064 -247.13300705 496.60065651 C-251.1914213 496.62821727 -255.24920695 496.62411358 -259.30770874 496.61714172 C-260.51513229 496.62995178 -261.72255585 496.64276184 -262.96656799 496.65596008 C-264.07143051 496.64901627 -265.17629303 496.64207245 -266.31463623 496.63491821 C-267.27439047 496.63730657 -268.23414471 496.63969492 -269.22298241 496.64215565 C-272.58396413 495.98523669 -273.74465058 494.89209324 -275.75546265 492.14717102 C-276.2560339 489.6202774 -276.2560339 489.6202774 -276.25666809 486.71980286 C-276.26650223 485.61783066 -276.27633636 484.51585846 -276.28646851 483.38049316 C-276.27680054 482.1762117 -276.26713257 480.97193024 -276.25717163 479.7311554 C-276.26257462 478.45927872 -276.2679776 477.18740204 -276.27354431 475.87698364 C-276.28750348 472.39135231 -276.27632644 468.90621435 -276.2598331 465.42061043 C-276.24597972 461.77229045 -276.252443 458.12399902 -276.25596619 454.47566223 C-276.2586681 448.34899447 -276.24519454 442.22252263 -276.22201538 436.09590149 C-276.19540562 429.01351116 -276.19365854 421.93144843 -276.20540375 414.84902525 C-276.2161845 408.03489715 -276.20999216 401.2208875 -276.19584846 394.4067688 C-276.19009121 391.50731607 -276.19016927 388.60795009 -276.19491386 385.70849609 C-276.20057404 381.65987828 -276.18136208 377.61174938 -276.15951538 373.56318665 C-276.16401703 372.35890518 -276.16851868 371.15462372 -276.17315674 369.91384888 C-276.16325211 368.81187668 -276.15334747 367.70990448 -276.1431427 366.57453918 C-276.1407128 365.61738258 -276.13828291 364.66022598 -276.13577938 363.67406464 C-275.68427909 360.67421449 -274.84997903 359.31726852 -272.75546265 357.14717102 C-269.87583431 356.18729491 -268.08918824 356.02563288 -265.10043335 356.03364563 C-264.1596846 356.03372116 -263.21893585 356.03379669 -262.24967957 356.03387451 C-261.23709579 356.0390358 -260.22451202 356.04419708 -259.1812439 356.04951477 C-257.62278999 356.05163719 -257.62278999 356.05163719 -256.03285217 356.05380249 C-252.71119317 356.05940447 -249.38960132 356.0719573 -246.06796265 356.08467102 C-243.81731258 356.08968577 -241.56666145 356.09424872 -239.31600952 356.0983429 C-233.79580428 356.10937453 -228.27563826 356.12611459 -222.75546265 356.14717102 C-222.75822803 355.09526486 -222.7609934 354.04335871 -222.76384258 352.95957661 C-222.83040267 327.37979979 -222.87972159 301.80003418 -222.91089916 276.22018909 C-222.92637664 263.85003395 -222.94748303 251.47993596 -222.98178101 239.1098175 C-223.01165635 228.32966772 -223.03103124 217.54955933 -223.03772813 206.7693693 C-223.04164354 201.05985592 -223.05086367 195.35046097 -223.07265282 189.64098549 C-223.09298843 184.26894791 -223.09930234 178.89707775 -223.09478569 173.52500534 C-223.0956122 171.5517136 -223.10159518 169.57841635 -223.11307907 167.60515785 C-223.12797735 164.91357734 -223.12442597 162.22263118 -223.1162262 159.53103638 C-223.12496472 158.74795618 -223.13370324 157.96487599 -223.14270657 157.15806609 C-223.07916892 149.45617396 -219.83969937 145.98042062 -214.58139038 140.73017883 C-214.06722565 140.21411575 -213.55306091 139.69805267 -213.02331543 139.16635132 C-211.33339972 137.47274993 -209.63642601 135.78642421 -207.9390564 134.10029602 C-206.75949741 132.92192985 -205.58030862 131.74319299 -204.401474 130.56410217 C-201.93572014 128.09990919 -199.46665231 125.6391032 -196.9949646 123.18086243 C-193.8232292 120.02616291 -190.6581632 116.86487381 -187.4953146 113.70126724 C-185.06358631 111.26981045 -182.62926401 108.8409652 -180.19404793 106.41300201 C-179.0256255 105.24776566 -177.85781119 104.08191921 -176.69061089 102.91545868 C-175.06295542 101.28996476 -173.4320541 99.66780241 -171.80014038 98.04658508 C-170.87209091 97.12234741 -169.94404144 96.19810974 -168.98786926 95.24586487 C-165.47827678 91.94648379 -163.51704007 92.02299061 -158.78240967 92.0269165 C-157.50912308 92.02554184 -156.23583649 92.02416718 -154.92396545 92.02275085 C-153.50500465 92.02629024 -152.08604408 92.02992505 -150.66708374 92.03364563 C-149.17912294 92.03392757 -147.69116201 92.03376962 -146.20320129 92.03320312 C-142.15591603 92.03291544 -138.10866022 92.03880757 -134.06138182 92.04577708 C-129.83462389 92.05201535 -125.60786534 92.0526148 -121.38110352 92.05380249 C-113.37361338 92.0569144 -105.36613685 92.06512592 -97.35865271 92.07515198 C-88.24390858 92.08631744 -79.12916381 92.09182466 -70.01441455 92.09684741 C-51.26142286 92.10730864 -32.50844385 92.12490539 -13.75546265 92.14717102 C-13.7654554 90.54770378 -13.7654554 90.54770378 -13.77565002 88.91592407 C-13.83646812 78.86638738 -13.88143868 68.81688803 -13.91089916 58.76720905 C-13.92655427 53.60057212 -13.94778986 48.43408377 -13.98178101 43.26753235 C-14.01437976 38.28140998 -14.03231683 33.29543053 -14.04009438 28.30920982 C-14.04563694 26.40700722 -14.05646019 24.50481243 -14.07265282 22.60267067 C-14.09443391 19.93805164 -14.09742929 17.27402297 -14.09603882 14.60932922 C-14.11221756 13.43004852 -14.11221756 13.43004852 -14.12872314 12.22694397 C-14.10312508 7.69271181 -13.59019495 4.74179855 -10.75546265 1.14717102 C-7.41894951 -0.52108555 -3.66911931 -0.0007803 0 0 Z M3.24453735 16.14717102 C3.24453735 58.71717102 3.24453735 101.28717102 3.24453735 145.14717102 C69.57453735 145.14717102 135.90453735 145.14717102 204.24453735 145.14717102 C204.24453735 102.57717102 204.24453735 60.00717102 204.24453735 16.14717102 C137.91453735 16.14717102 71.58453735 16.14717102 3.24453735 16.14717102 Z M-174.37547302 124.62823486 C-174.87340866 125.12819473 -175.3713443 125.6281546 -175.8843689 126.14326477 C-176.39346298 126.65140213 -176.90255707 127.15953949 -177.42707825 127.68307495 C-178.50513763 128.76045239 -179.58192943 129.83909946 -180.65756226 130.91889954 C-182.31083603 132.57752135 -183.96936229 134.23075504 -185.62850952 135.88349915 C-186.67245012 136.92810052 -187.71608048 137.97301204 -188.7593689 139.01826477 C-189.5093087 139.76516823 -189.5093087 139.76516823 -190.2743988 140.52716064 C-192.69583106 142.49772676 -192.69583106 142.49772676 -193.75546265 145.14717102 C-185.83546265 145.14717102 -177.91546265 145.14717102 -169.75546265 145.14717102 C-169.75546265 137.22717102 -169.75546265 129.30717102 -169.75546265 121.14717102 C-171.80552937 121.14717102 -173.00428446 123.2664342 -174.37547302 124.62823486 Z M153.24453735 187.14717102 C152.95731812 187.63596741 152.67009888 188.12476379 152.37417603 188.62837219 C151.06036447 190.86394314 149.74620378 193.09930866 148.43203735 195.33467102 C147.98022095 196.1035968 147.52840454 196.87252258 147.06289673 197.66474915 C146.40064087 198.7910675 146.40064087 198.7910675 145.7250061 199.94013977 C145.29752075 200.66894348 144.8700354 201.39774719 144.42959595 202.14863586 C143.44844882 203.80328571 142.43809927 205.44058028 141.4203186 207.07295227 C140.08015849 209.03977311 140.08015849 209.03977311 140.24453735 211.14717102 C140.97978638 211.57014465 141.7150354 211.99311829 142.4725647 212.4289093 C145.25000391 214.02730048 148.026963 215.62652195 150.80361938 217.22627258 C151.99614163 217.91311922 153.18884432 218.59965267 154.38174438 219.2858429 C156.11515176 220.28302595 157.84781526 221.28150172 159.58047485 222.27998352 C160.70808228 222.92741516 161.8356897 223.5748468 162.99746704 224.24189758 C166.78070715 226.46177772 170.47714971 228.80443888 174.14541626 231.20918274 C176.17906122 232.29899112 176.17906122 232.29899112 178.33096313 232.09321594 C181.04079633 230.75351148 181.8099836 229.08815446 183.26016235 226.45576477 C183.78867798 225.51152649 184.3171936 224.56728821 184.86172485 223.59443665 C185.40055298 222.60121399 185.9393811 221.60799133 186.49453735 220.58467102 C187.32598267 219.08903625 187.32598267 219.08903625 188.17422485 217.56318665 C189.54280013 215.09739154 190.8988682 212.6255189 192.24453735 210.14717102 C189.61979716 207.15738934 186.54758057 205.45078017 183.1078186 203.49482727 C182.50954758 203.15342209 181.91127655 202.81201691 181.2948761 202.46026611 C180.02948041 201.73943333 178.7627489 201.02094112 177.49478149 200.30464172 C175.57822327 199.22164265 173.66595444 198.13138132 171.75430298 197.03974915 C165.66426053 193.57314631 159.56048639 190.18994898 153.24453735 187.14717102 Z M-60.75546265 208.14717102 C-60.75546265 217.71717102 -60.75546265 227.28717102 -60.75546265 237.14717102 C-5.97546265 237.14717102 48.80453735 237.14717102 105.24453735 237.14717102 C115.98330618 223.37449062 115.98330618 223.37449062 121.24453735 208.14717102 C61.18453735 208.14717102 1.12453735 208.14717102 -60.75546265 208.14717102 Z M130.24453735 226.14717102 C129.71835815 227.09463196 129.71835815 227.09463196 129.18154907 228.06123352 C121.53468597 241.81419237 113.76363697 255.48086153 105.80703735 269.05732727 C102.11240425 275.36287521 98.45601054 281.69011538 94.80703735 288.02217102 C93.87323242 289.64240173 93.87323242 289.64240173 92.92056274 291.29536438 C91.65876909 293.48513436 90.39713202 295.67499457 89.13565063 297.86494446 C86.00773587 303.29377044 82.87595288 308.72036383 79.74453735 314.14717102 C78.49451856 316.31382685 77.24451857 318.48049352 75.99453735 320.64717102 C68.49453735 333.64717102 68.49453735 333.64717102 66.61611938 336.90254211 C65.37687269 339.05093614 64.13825699 341.19969427 62.90029907 343.34883118 C59.96956104 348.43491019 57.03242319 353.51697331 54.07284546 358.58631897 C52.67275567 360.98536672 51.2762564 363.38649512 49.8800354 365.78779602 C48.89110498 367.48515328 47.89697897 369.17948004 46.90274048 370.87373352 C46.30654907 371.89982727 45.71035767 372.92592102 45.09609985 373.98310852 C44.30453491 375.33734924 44.30453491 375.33734924 43.49697876 376.71894836 C42.37269733 378.89869557 41.70420278 380.75119116 41.24453735 383.14717102 C41.93901978 383.53461487 42.6335022 383.92205872 43.34902954 384.32124329 C46.56485918 386.11620561 49.77970086 387.91293058 52.99453735 389.70967102 C54.08637329 390.31875305 55.17820923 390.92783508 56.3031311 391.55537415 C62.88940257 395.23823008 69.41910027 398.99493608 75.89004517 402.87739563 C78.09208123 404.30539475 78.09208123 404.30539475 80.24453735 404.14717102 C80.65067261 403.43512512 81.05680786 402.72307922 81.47525024 401.98945618 C90.73645269 385.75671647 100.03533595 369.54657297 109.38565063 353.36494446 C112.5077834 347.96046457 115.6259494 342.5536969 118.74453735 337.14717102 C119.99451857 334.98049352 121.24451856 332.81382685 122.49453735 330.64717102 C123.11328735 329.57467102 123.73203735 328.50217102 124.36953735 327.39717102 C126.24453735 324.14717102 128.11953735 320.89717102 129.99453735 317.64717102 C130.61344849 316.57434875 131.23235962 315.50152649 131.87002563 314.39619446 C133.1182477 312.23269626 134.36661975 310.06928459 135.61514282 307.90596008 C138.76858991 302.44152085 141.91929831 296.97553457 145.06484985 291.50654602 C145.69520142 290.41164856 146.32555298 289.3167511 146.9750061 288.18867493 C148.22634263 286.01463897 149.47636831 283.83984793 150.7250061 281.66426086 C153.7963871 276.32765487 156.90950298 271.02364755 160.11172485 265.76435852 C161.02897339 264.24890442 161.02897339 264.24890442 161.9647522 262.70283508 C163.12362547 260.79458889 164.29273782 258.8925113 165.47354126 256.99775696 C166.24190308 255.72980286 166.24190308 255.72980286 167.02578735 254.43623352 C167.70737915 253.33335999 167.70737915 253.33335999 168.40274048 252.20820618 C169.40448628 250.18809594 169.40448628 250.18809594 169.09805298 248.01826477 C168.0233162 245.66220566 167.08795108 245.11097471 164.80703735 243.92060852 C163.72337891 243.3393219 163.72337891 243.3393219 162.61782837 242.74629211 C161.83464233 242.34233215 161.0514563 241.93837219 160.24453735 241.52217102 C158.60659641 240.64946103 156.96990872 239.77439543 155.3343811 238.89717102 C154.49375122 238.44857727 153.65312134 237.99998352 152.78701782 237.53779602 C147.98299323 234.91020585 143.30981113 232.05509175 138.64102173 229.19551086 C134.72548453 226.77259703 134.72548453 226.77259703 130.24453735 226.14717102 Z M-60.75546265 254.14717102 C-60.75546265 328.72717102 -60.75546265 403.30717102 -60.75546265 480.14717102 C13.82453735 480.14717102 88.40453735 480.14717102 165.24453735 480.14717102 C165.24453735 417.77717102 165.24453735 355.40717102 165.24453735 291.14717102 C161.8606859 295.32416472 161.8606859 295.32416472 159.15859985 299.72920227 C158.79290894 300.40080383 158.42721802 301.0724054 158.05044556 301.76435852 C157.66074585 302.48881165 157.27104614 303.21326477 156.86953735 303.95967102 C152.8790314 311.25763015 148.76277093 318.4711638 144.55703735 325.64717102 C139.61268291 334.08975578 134.69225068 342.54520765 129.80703735 351.02217102 C129.184823 352.10176086 128.56260864 353.18135071 127.92153931 354.2936554 C126.65942219 356.48399622 125.39745951 358.67442604 124.13565063 360.86494446 C122.25505629 364.12891429 120.3731319 367.39211291 118.4906311 370.65498352 C117.56214355 372.26433777 117.56214355 372.26433777 116.61489868 373.90620422 C115.37424642 376.05600958 114.13320221 378.20558879 112.89175415 380.35493469 C109.97783993 385.40135478 107.06844411 390.45020598 104.17599487 395.50895691 C103.15247326 397.29853229 102.12744482 399.08723608 101.10195923 400.87568665 C99.81640359 403.11875958 98.53367566 405.36345642 97.25430298 407.61006165 C95.61147767 410.47275282 93.93242474 413.31091595 92.24453735 416.14717102 C91.88416382 416.81506653 91.52379028 417.48296204 91.15249634 418.1710968 C87.39713025 424.44613012 80.79558848 427.2687335 74.55703735 430.64717102 C73.31593939 431.33435056 72.07579873 432.02326165 70.83657837 432.71382141 C68.91881873 433.78183244 67.00033135 434.84831099 65.07832336 435.90866089 C60.59487512 438.3826399 56.14783586 440.91302695 51.72109985 443.48701477 C50.8251133 444.00777084 50.8251133 444.00777084 49.911026 444.53904724 C47.05067434 446.20319558 44.19212905 447.87043598 41.33364868 449.53779602 C39.80260498 450.42531555 39.80260498 450.42531555 38.2406311 451.33076477 C37.34529663 451.85210999 36.44996216 452.3734552 35.52749634 452.91059875 C31.9569091 454.84461911 29.20577097 455.27554884 25.20986938 455.29243469 C24.18515533 455.29881454 23.16044128 455.3051944 22.10467529 455.31176758 C20.9984079 455.3128804 19.8921405 455.31399323 18.75234985 455.31513977 C17.61425873 455.31846817 16.4761676 455.32179657 15.30358887 455.32522583 C12.89442347 455.33029174 10.48525104 455.33263426 8.07608032 455.33247375 C4.39122945 455.33465816 0.70667891 455.35281199 -2.9781189 455.3717804 C-5.31796162 455.37471479 -7.65780577 455.37669928 -9.99765015 455.37763977 C-11.65097855 455.38841805 -11.65097855 455.38841805 -13.33770752 455.39941406 C-14.88423508 455.39479912 -14.88423508 455.39479912 -16.46200562 455.39009094 C-17.36562836 455.39151596 -18.2692511 455.39294098 -19.20025635 455.39440918 C-22.05368687 455.11831526 -24.18056401 454.39207414 -26.75546265 453.14717102 C-28.93920581 450.46712259 -28.74930781 449.02817752 -28.56796265 445.52217102 C-27.75546265 442.14717102 -27.75546265 442.14717102 -24.75546265 440.14717102 C-22.68632507 439.86869812 -22.68632507 439.86869812 -20.2840271 439.82832336 C-18.93296623 439.79851883 -18.93296623 439.79851883 -17.55461121 439.76811218 C-16.58577499 439.75656097 -15.61693878 439.74500977 -14.6187439 439.73310852 C-13.62416672 439.71374237 -12.62958954 439.69437622 -11.60487366 439.67442322 C-8.42599075 439.61460943 -5.24707167 439.56823463 -2.06796265 439.52217102 C0.08635008 439.48399292 2.24064752 439.44494129 4.39492798 439.40498352 C9.67799544 439.30890651 14.96115488 439.22386428 20.24453735 439.14717102 C20.2326387 438.49001099 20.22074005 437.83285095 20.20848083 437.15577698 C20.09391979 430.20995711 20.05926755 423.26675665 20.0675354 416.32002258 C20.06063218 413.74046663 20.03449169 411.16087769 19.98745728 408.58174133 C19.6930341 391.55151117 21.1697888 379.33738427 30.8994751 365.12849426 C32.69672141 362.48108826 34.25483183 359.71849404 35.8187561 356.92842102 C36.85424215 355.1666656 37.8919943 353.40624008 38.93203735 351.64717102 C44.09894302 342.84899869 49.19490967 334.0129365 54.24453735 325.14717102 C59.77512334 315.441044 65.35931701 305.76816021 71.00161743 296.12641907 C76.15916377 287.30929836 81.26494132 278.4628864 86.36001587 269.60957336 C87.25224854 268.06003967 87.25224854 268.06003967 88.1625061 266.47920227 C88.68610718 265.56888245 89.20970825 264.65856262 89.74917603 263.72065735 C90.78233851 261.94260579 91.8472743 260.18277452 92.93716431 258.43891907 C94.40970769 256.29737612 94.40970769 256.29737612 94.24453735 254.14717102 C43.09453735 254.14717102 -8.05546265 254.14717102 -60.75546265 254.14717102 Z M-259.75546265 373.14717102 C-259.75546265 394.92717102 -259.75546265 416.70717102 -259.75546265 439.14717102 C-254.38541687 434.62187853 -254.38541687 434.62187853 -249.42562866 429.8039093 C-248.59425133 428.93368637 -248.59425133 428.93368637 -247.74607849 428.04588318 C-247.17296432 427.44251129 -246.59985016 426.8391394 -246.0093689 426.21748352 C-244.74807279 424.91436011 -243.48566988 423.61230722 -242.22225952 422.31123352 C-240.25914187 420.28628345 -238.3029997 418.25635716 -236.36459351 416.2077179 C-234.47299026 414.21299691 -232.55669641 412.24505318 -230.6343689 410.27998352 C-230.06327896 409.66446625 -229.49218903 409.04894897 -228.90379333 408.41477966 C-225.95776845 405.44850197 -223.87805542 403.75316337 -219.60678101 403.53144836 C-215.42183011 404.20050993 -214.10759645 404.83552886 -211.25546265 407.86592102 C-210.14364624 409.0164093 -210.14364624 409.0164093 -209.0093689 410.19013977 C-208.26557983 411.00096008 -207.52179077 411.8117804 -206.75546265 412.64717102 C-205.98073608 413.45799133 -205.20600952 414.26881165 -204.4078064 415.10420227 C-202.50434156 417.10166537 -200.6220395 419.11529786 -198.75546265 421.14717102 C-195.80362893 419.7380996 -193.81291245 418.34082203 -191.50546265 416.02217102 C-188.97943106 413.8408431 -187.17560097 412.63151527 -183.81796265 412.33467102 C-175.26217523 413.26820707 -168.01099142 423.79839035 -162.31796265 429.58467102 C-160.71737048 431.21060906 -159.11463077 432.83443689 -157.5093689 434.45576477 C-156.81142212 435.16531311 -156.11347534 435.87486145 -155.39437866 436.60591125 C-154.00901377 438.26134938 -154.00901377 438.26134938 -152.75546265 438.14717102 C-152.75546265 416.69717102 -152.75546265 395.24717102 -152.75546265 373.14717102 C-188.06546265 373.14717102 -223.37546265 373.14717102 -259.75546265 373.14717102 Z M37.24453735 401.14717102 C37.24453735 411.37717102 37.24453735 421.60717102 37.24453735 432.14717102 C41.02293903 430.63581035 44.0958337 429.165696 47.5453186 427.10810852 C48.52178345 426.5280304 49.49824829 425.94795227 50.50430298 425.35029602 C51.51170532 424.74701477 52.51910767 424.14373352 53.55703735 423.52217102 C54.58377563 422.9111554 55.61051392 422.30013977 56.66836548 421.67060852 C59.1956761 420.16597708 61.72097135 418.65807162 64.24453735 417.14717102 C61.84826354 414.51102304 59.26762611 412.82134597 56.2093811 411.01045227 C55.23549438 410.4335968 54.26160767 409.85674133 53.25820923 409.2624054 C52.24307251 408.66750305 51.22793579 408.07260071 50.18203735 407.45967102 C49.16303345 406.85316711 48.14402954 406.24666321 47.09414673 405.6217804 C42.45834213 402.47018509 42.45834213 402.47018509 37.24453735 401.14717102 Z M-224.47079468 427.34980774 C-225.23143219 428.05249786 -225.9920697 428.75518799 -226.77575684 429.47917175 C-230.25332924 432.76125843 -233.70689316 436.06693055 -237.14169312 439.39375305 C-238.95339888 441.13246086 -240.7827457 442.85298929 -242.62997437 444.5539093 C-245.30297716 447.01830156 -247.91061816 449.53851714 -250.51327515 452.07685852 C-251.33820465 452.815159 -252.16313416 453.55345947 -253.01306152 454.31413269 C-261.43870415 462.79669393 -258.75546265 466.2572737 -258.75546265 480.14717102 C-223.77546265 480.14717102 -188.79546265 480.14717102 -152.75546265 480.14717102 C-151.31940638 464.6840381 -151.31940638 464.6840381 -155.5093689 458.46333313 C-156.73607329 457.23925122 -158.00813347 456.05920756 -159.31796265 454.92451477 C-159.98384399 454.28268753 -160.64972534 453.64086029 -161.33578491 452.97958374 C-163.43881498 450.97054014 -165.59290302 449.0292814 -167.75546265 447.08467102 C-169.20463638 445.72092398 -170.64999213 444.35310781 -172.09140015 442.9811554 C-175.6038005 439.65458612 -179.16334092 436.38740493 -182.75546265 433.14717102 C-185.70737491 434.55791358 -187.73961162 435.97160461 -190.06796265 438.27217102 C-192.65114119 440.49810146 -193.75433327 441.14690408 -197.19296265 441.95967102 C-202.4053936 440.77087098 -205.06622796 437.88901511 -208.75546265 434.14717102 C-210.54702225 432.33456519 -212.33869107 430.52206731 -214.13046265 428.70967102 C-214.96319702 427.84471008 -215.7959314 426.97974915 -216.65390015 426.08857727 C-220.19151853 422.82055434 -221.32604072 424.43881709 -224.47079468 427.34980774 Z " fill="#ff4200" transform="translate(283.7554626464844,7.8528289794921875)"/>
<path d="M0 0 C1.46421387 0.86226196 1.46421387 0.86226196 2.95800781 1.74194336 C4.62549072 2.71006958 4.62549072 2.71006958 6.32666016 3.69775391 C7.52167155 4.40878383 8.71649134 5.12013584 9.91113281 5.83178711 C11.14821881 6.5567091 12.3860228 7.28040711 13.62451172 8.00292969 C16.187856 9.49993711 18.74729935 11.00334134 21.3046875 12.51049805 C25.04197668 14.7071425 28.80456838 16.85707284 32.57519531 18.99584961 C33.75789362 19.66880277 34.94051223 20.34189601 36.12304688 21.01513672 C38.34987432 22.28194349 40.57831891 23.54591305 42.80859375 24.80664062 C56.25943383 32.51503965 56.25943383 32.51503965 58.16113281 37.26928711 C58.16113281 40.35801963 57.68310435 42.07124666 56.16113281 44.76928711 C51.62312023 48.94206729 46.20765351 51.67948349 40.84863281 54.64428711 C30.25434244 60.56477633 19.75775098 66.6388842 9.28613281 72.77319336 C7.95932495 73.54759766 7.95932495 73.54759766 6.60571289 74.33764648 C5.07770535 75.23250679 3.55343179 76.13381003 2.03491211 77.04467773 C-1.85019075 79.34711184 -4.27658345 80.37759161 -8.83886719 79.76928711 C-11.35930794 78.92914019 -12.46889877 78.33034356 -13.93206787 76.1114502 C-15.13725057 72.9985956 -15.0932479 70.38263621 -15.09765625 67.04467773 C-15.10116089 66.37752243 -15.10466553 65.71036713 -15.10827637 65.022995 C-15.11705906 62.82373566 -15.11125694 60.62479956 -15.10449219 58.42553711 C-15.10583984 56.89383889 -15.1077812 55.36214109 -15.11029053 53.83044434 C-15.11323709 50.62267986 -15.10895922 47.41502689 -15.09960938 44.20727539 C-15.08821506 40.09809748 -15.09477704 35.98918084 -15.1067543 31.88001251 C-15.11398555 28.71785518 -15.11167917 25.55575967 -15.10649872 22.39360046 C-15.10516572 20.87855498 -15.10679769 19.36350387 -15.11145782 17.84846497 C-15.1165439 15.7301245 -15.10878396 13.61220561 -15.09765625 11.49389648 C-15.09606506 10.28906616 -15.09447388 9.08423584 -15.09283447 7.84289551 C-14.84814393 4.88155777 -14.4583792 3.22527423 -12.83886719 0.76928711 C-8.78665354 -2.12515121 -4.46041341 -1.93368971 0 0 Z M2.16113281 22.76928711 C2.16113281 33.65928711 2.16113281 44.54928711 2.16113281 55.76928711 C6.7396341 54.24312001 9.95018137 52.90479603 13.99707031 50.51147461 C15.06054688 49.8862793 16.12402344 49.26108398 17.21972656 48.61694336 C18.31414062 47.9659668 19.40855469 47.31499023 20.53613281 46.64428711 C21.65375 45.98557617 22.77136719 45.32686523 23.92285156 44.64819336 C26.67197006 43.02691835 29.41789563 41.40048698 32.16113281 39.76928711 C29.18989281 37.31522208 26.29583839 35.13902326 22.91113281 33.29663086 C22.13769531 32.87188477 21.36425781 32.44713867 20.56738281 32.00952148 C19.77332031 31.57961914 18.97925781 31.1497168 18.16113281 30.70678711 C16.57739378 29.84164395 14.99404948 28.97577774 13.41113281 28.10913086 C12.6725 27.70678223 11.93386719 27.30443359 11.17285156 26.88989258 C9.49812305 25.95700376 7.85606219 24.96576623 6.22363281 23.96069336 C4.26947543 22.60255523 4.26947543 22.60255523 2.16113281 22.76928711 Z " fill="#ff4200" transform="translate(365.8388671875,49.230712890625)"/>
<path d="M0 0 C2.9375 2.125 2.9375 2.125 5 5 C5.94596422 10.94100893 3.25142726 14.91839172 0.375 19.875 C-0.11718018 20.74576172 -0.60936035 21.61652344 -1.11645508 22.51367188 C-2.72821702 25.35202005 -4.36088318 28.17736905 -6 31 C-6.54027832 31.93231445 -7.08055664 32.86462891 -7.63720703 33.82519531 C-10.49927221 38.7555796 -13.3773535 43.67638629 -16.26171875 48.59375 C-20.22614408 55.36652849 -24.11587996 62.18103736 -28 69 C-34.74960582 80.84233849 -41.56696794 92.64331641 -48.47509766 104.39404297 C-49.90646169 106.84014923 -51.32082039 109.29524152 -52.73046875 111.75390625 C-53.52833207 113.12778643 -54.32648432 114.50149888 -55.125 115.875 C-55.46716553 116.48190674 -55.80933105 117.08881348 -56.16186523 117.71411133 C-58.02163769 120.88044759 -59.4245673 122.89062661 -63 124 C-67.14469235 123.92598764 -69.27768325 123.59591132 -72.5 120.9375 C-74.47292423 117.07385671 -74.00825072 114.08023542 -73 110 C-71.71486477 107.37832414 -70.43326614 105.06672147 -68.875 102.625 C-67.95785262 101.12739242 -67.0426126 99.62861571 -66.12890625 98.12890625 C-65.62762207 97.31309082 -65.12633789 96.49727539 -64.60986328 95.65673828 C-61.59145925 90.6755019 -58.71201282 85.61353102 -55.8125 80.5625 C-54.5171912 78.31364994 -53.22161481 76.06495398 -51.92578125 73.81640625 C-51.27561035 72.68734863 -50.62543945 71.55829102 -49.95556641 70.39501953 C-46.18823572 63.85463244 -42.41515691 57.31755899 -38.64160156 50.78076172 C-35.42329561 45.20478113 -32.20972462 39.62613776 -29.00390625 34.04296875 C-17.65007095 14.28115812 -17.65007095 14.28115812 -13.25 7 C-12.39148438 5.576875 -12.39148438 5.576875 -11.515625 4.125 C-8.32197406 -0.35269616 -5.20760295 -0.6285038 0 0 Z " fill="#ff4200" transform="translate(423,262)"/>
<path d="M0 0 C1.62727776 -0.01925285 1.62727776 -0.01925285 3.28742981 -0.03889465 C5.05300484 -0.04997505 5.05300484 -0.04997505 6.85424805 -0.0612793 C8.06034225 -0.06935104 9.26643646 -0.07742279 10.50907898 -0.08573914 C13.06544554 -0.09958904 15.62183066 -0.11030712 18.17822266 -0.11816406 C22.08946734 -0.1353814 25.99986802 -0.17926181 29.91088867 -0.22338867 C32.39200223 -0.23351485 34.873123 -0.24203118 37.35424805 -0.2487793 C38.52522537 -0.26628738 39.6962027 -0.28379547 40.90266418 -0.30183411 C49.01822519 -0.28013764 49.01822519 -0.28013764 53.02294922 2.05126953 C55.12446054 4.56023142 55.72371865 5.90732783 55.8034668 9.17700195 C54.81549741 12.6348948 53.64422118 14.9597176 50.8034668 17.17700195 C48.31240845 17.57141113 48.31240845 17.57141113 45.30981445 17.59692383 C43.62258774 17.62079163 43.62258774 17.62079163 41.90127563 17.6451416 C40.68563934 17.64534302 39.47000305 17.64554443 38.2175293 17.64575195 C36.96845795 17.65336548 35.7193866 17.660979 34.4324646 17.66882324 C31.78758028 17.67963967 29.14358846 17.68383721 26.4987793 17.67797852 C23.11672004 17.67208908 19.73609972 17.7026377 16.35431862 17.7430954 C13.12124936 17.77523564 9.88823366 17.77085607 6.6550293 17.77075195 C5.44344147 17.78714722 4.23185364 17.80354248 2.98355103 17.82043457 C-6.36839846 17.74349874 -6.36839846 17.74349874 -9.46459961 14.86254883 C-11.74384713 11.32833361 -11.87213765 9.30569577 -11.1965332 5.17700195 C-7.79666468 0.87050183 -5.32624662 0.0547573 0 0 Z " fill="#ff4200" transform="translate(115.196533203125,244.822998046875)"/>
<path d="M0 0 C1.24861313 -0.00241196 2.49722626 -0.00482391 3.78367615 -0.00730896 C6.42136145 -0.00633001 9.05677374 0.00447221 11.6940918 0.03198242 C15.06937577 0.06610192 18.44314045 0.06003125 21.81849766 0.04131985 C25.04575338 0.02819594 28.27277712 0.04646659 31.5 0.0625 C32.71047501 0.05754013 33.92095001 0.05258026 35.16810608 0.04747009 C36.29284836 0.06330643 37.41759064 0.07914276 38.57641602 0.09545898 C40.05936913 0.10475685 40.05936913 0.10475685 41.57228088 0.11424255 C44.90302958 0.77069987 46.08273924 2.01676211 48.18359375 4.62890625 C49.25707844 7.61932788 49.30206478 9.1765623 48.49609375 12.25390625 C46.9912357 14.97698273 45.83065297 16.01714027 43.18359375 17.62890625 C40.64147949 18.00312805 40.64147949 18.00312805 37.74414062 18.0012207 C36.65621216 18.00744949 35.56828369 18.01367828 34.4473877 18.02009583 C33.27752319 18.01088608 32.10765869 18.00167633 30.90234375 17.9921875 C29.09388977 17.99293526 29.09388977 17.99293526 27.24890137 17.99369812 C24.70025992 17.99135797 22.15161616 17.981633 19.60302734 17.96508789 C15.69868332 17.94149742 11.79502217 17.94452756 7.890625 17.95117188 C5.41536051 17.94559506 2.94009889 17.93848516 0.46484375 17.9296875 C-0.70502075 17.93059891 -1.87488525 17.93151031 -3.0802002 17.93244934 C-4.7120929 17.91815132 -4.7120929 17.91815132 -6.37695312 17.90356445 C-7.33307495 17.89895706 -8.28919678 17.89434967 -9.27429199 17.88960266 C-11.97235562 17.61291348 -13.55636061 17.11067504 -15.81640625 15.62890625 C-18.31672279 11.87843143 -18.35244179 10.07034359 -17.81640625 5.62890625 C-13.50091871 -1.08875339 -7.37339371 -0.08089531 0 0 Z " fill="#ff4200" transform="translate(121.81640625,198.37109375)"/>
<path d="M0 0 C1.24861313 -0.00241196 2.49722626 -0.00482391 3.78367615 -0.00730896 C6.42136145 -0.00633001 9.05677374 0.00447221 11.6940918 0.03198242 C15.06937577 0.06610192 18.44314045 0.06003125 21.81849766 0.04131985 C25.04575338 0.02819594 28.27277712 0.04646659 31.5 0.0625 C32.71047501 0.05754013 33.92095001 0.05258026 35.16810608 0.04747009 C36.29284836 0.06330643 37.41759064 0.07914276 38.57641602 0.09545898 C40.05936913 0.10475685 40.05936913 0.10475685 41.57228088 0.11424255 C44.90302958 0.77069987 46.08273924 2.01676211 48.18359375 4.62890625 C49.24649121 7.58983489 49.28752717 9.19238588 48.55859375 12.25390625 C46.82601922 15.24653499 45.26263892 16.09258075 42.18359375 17.62890625 C39.55918884 18.00312805 39.55918884 18.00312805 36.72241211 18.0012207 C35.65457993 18.00744949 34.58674774 18.01367828 33.48655701 18.02009583 C31.77231285 18.0062812 31.77231285 18.0062812 30.0234375 17.9921875 C28.84141251 17.992686 27.65938751 17.99318451 26.44154358 17.99369812 C23.94595659 17.99136024 21.45036712 17.98164867 18.95483398 17.96508789 C15.13178472 17.94147229 11.30943192 17.94453241 7.48632812 17.95117188 C5.06119375 17.94559575 2.63606232 17.93848628 0.2109375 17.9296875 C-0.93391617 17.93059891 -2.07876984 17.93151031 -3.25831604 17.93244934 C-4.32299606 17.92291733 -5.38767609 17.91338531 -6.48461914 17.90356445 C-7.41995987 17.89895706 -8.3553006 17.89434967 -9.31898499 17.88960266 C-11.99236203 17.61053889 -13.5732884 17.09405333 -15.81640625 15.62890625 C-18.31672279 11.87843143 -18.35244179 10.07034359 -17.81640625 5.62890625 C-13.50091871 -1.08875339 -7.37339371 -0.08089531 0 0 Z " fill="#ff4200" transform="translate(121.81640625,337.37109375)"/>
<path d="M0 0 C1.00454224 -0.00630432 2.00908447 -0.01260864 3.04406738 -0.019104 C4.65517395 -0.01303131 4.65517395 -0.01303131 6.29882812 -0.00683594 C7.9684259 -0.00970612 7.9684259 -0.00970612 9.67175293 -0.01263428 C12.02189358 -0.0139935 14.3720418 -0.01031542 16.72216797 -0.00195312 C20.31690353 0.00874984 23.91113934 -0.00185759 27.50585938 -0.01464844 C29.79101673 -0.0133268 32.07617377 -0.01076431 34.36132812 -0.00683594 C35.43539917 -0.0108844 36.50947021 -0.01493286 37.61608887 -0.019104 C38.6206311 -0.01279968 39.62517334 -0.00649536 40.66015625 0 C41.97989441 0.00238678 41.97989441 0.00238678 43.32629395 0.00482178 C47.04383882 0.38190491 49.87836769 1.43397335 52.70507812 3.88378906 C54.15431401 6.94328703 53.90664111 9.05020458 53.54492188 12.35644531 C52.54392808 15.0202922 51.24724075 15.78616436 48.83007812 17.25878906 C46.21203613 17.63973999 46.21203613 17.63973999 43.20703125 17.64697266 C42.07906128 17.65642914 40.95109131 17.66588562 39.78894043 17.67562866 C37.96852234 17.66651962 37.96852234 17.66651962 36.11132812 17.65722656 C34.23628601 17.66153183 34.23628601 17.66153183 32.32336426 17.66592407 C29.68026561 17.66796573 27.03799923 17.66393789 24.39501953 17.64990234 C21.01209507 17.63281019 17.62988467 17.64265485 14.24698639 17.66061974 C11.01424155 17.67408411 7.78158228 17.66464926 4.54882812 17.65722656 C2.72841003 17.6663356 2.72841003 17.6663356 0.87121582 17.67562866 C-0.25675415 17.66617218 -1.38472412 17.6567157 -2.546875 17.64697266 C-3.53852661 17.64458588 -4.53017822 17.6421991 -5.55187988 17.63973999 C-8.61907818 17.19343239 -9.97621651 16.42618095 -12.16992188 14.25878906 C-13.23988083 10.40693682 -13.53993287 8.18381655 -12.04492188 4.44628906 C-8.74314299 0.5942137 -4.90700167 0.00887444 0 0 Z " fill="#ff4200" transform="translate(267.169921875,290.7412109375)"/>
<path d="M0 0 C1.50208511 -0.01441132 1.50208511 -0.01441132 3.03451538 -0.02911377 C4.11061066 -0.03336365 5.18670593 -0.03761353 6.29541016 -0.04199219 C7.96357285 -0.0505423 7.96357285 -0.0505423 9.66543579 -0.05926514 C12.01734467 -0.06870716 14.36926673 -0.07524595 16.72119141 -0.07910156 C20.31387439 -0.08881152 23.90598629 -0.11984496 27.49853516 -0.15136719 C29.7849901 -0.15789711 32.07144912 -0.16314762 34.35791016 -0.16699219 C35.96598038 -0.18551239 35.96598038 -0.18551239 37.60653687 -0.20440674 C43.08030333 -0.18810486 47.33053335 -0.1293295 51.95947266 3.16113281 C53.52197266 6.47363281 53.52197266 6.47363281 53.95947266 10.16113281 C51.91401811 15.68386009 51.91401811 15.68386009 48.95947266 17.16113281 C47.13278283 17.27751791 45.30192618 17.3307879 43.47167969 17.35400391 C42.3235379 17.37006683 41.17539612 17.38612976 39.99246216 17.40267944 C34.74434145 17.44701303 29.4963083 17.48862587 24.24804688 17.51123047 C21.47557633 17.52457687 18.70384062 17.55244125 15.93164062 17.59326172 C11.94354163 17.65198564 7.95580182 17.66988063 3.96728516 17.68457031 C2.72552521 17.70723969 1.48376526 17.72990906 0.20437622 17.75326538 C-0.95006989 17.75041534 -2.10451599 17.74756531 -3.29394531 17.74462891 C-4.30939423 17.75271576 -5.32484314 17.76080261 -6.37106323 17.76913452 C-10.04144194 16.93316279 -11.07084055 15.28399463 -13.04052734 12.16113281 C-13.68872347 8.27195604 -13.38157025 6.70923748 -11.29052734 3.34863281 C-7.83458184 -0.0113142 -4.68349632 0.0363798 0 0 Z " fill="#ff4200" transform="translate(117.04052734375,290.8388671875)"/>
<path d="M0 0 C1.23687309 -0.01925285 1.23687309 -0.01925285 2.49873352 -0.03889465 C3.39142441 -0.04628159 4.2841153 -0.05366852 5.20385742 -0.0612793 C6.12140305 -0.06935104 7.03894867 -0.07742279 7.98429871 -0.08573914 C9.92864083 -0.09958298 11.87300729 -0.11030379 13.81738281 -0.11816406 C16.78717269 -0.1353697 19.7558473 -0.17925187 22.7253418 -0.22338867 C24.61400548 -0.23351623 26.50267864 -0.24203213 28.39135742 -0.2487793 C29.72128471 -0.27504143 29.72128471 -0.27504143 31.07807922 -0.30183411 C35.18861908 -0.28741551 37.43716018 -0.15678261 41.03466797 1.98876953 C43.75857554 5.02651789 43.99682617 7.13718283 43.99682617 11.17700195 C42.65120218 14.12455927 41.91128073 15.71977467 38.99682617 17.17700195 C37.59896384 17.28619757 36.19619424 17.33596608 34.79418945 17.35400391 C33.49241257 17.37325676 33.49241257 17.37325676 32.16433716 17.39289856 C31.22476166 17.40028549 30.28518616 17.40767242 29.31713867 17.4152832 C27.87067459 17.42739082 27.87067459 17.42739082 26.39498901 17.43974304 C24.35229289 17.45358676 22.30957361 17.46430762 20.2668457 17.47216797 C17.14123836 17.48939496 14.01668477 17.53328017 10.89135742 17.57739258 C8.90829229 17.58751813 6.92521817 17.59603466 4.94213867 17.6027832 C3.53884811 17.62904533 3.53884811 17.62904533 2.10720825 17.65583801 C-4.35738776 17.63420272 -4.35738776 17.63420272 -7.56225586 15.36523438 C-9.62915371 12.22636527 -10.00317383 9.92237604 -10.00317383 6.17700195 C-7.18420887 1.70554029 -5.19348046 0.07036261 0 0 Z " fill="#ff4200" transform="translate(264.003173828125,342.822998046875)"/>
<path d="M0 0 C0.80759766 -0.03738281 1.61519531 -0.07476562 2.44726562 -0.11328125 C6.81931814 -0.17773411 8.63191949 -0.04561301 12.2265625 2.67578125 C14.1875 5.375 14.1875 5.375 14.75 8.9375 C14.10878811 12.85601711 13.29250781 14.00058226 10.1875 16.375 C7.07262623 17.93243688 3.79174191 17.64186231 0.375 17.6875 C-0.33720703 17.71650391 -1.04941406 17.74550781 -1.78320312 17.77539062 C-5.45754102 17.81957785 -7.60433257 17.50238192 -10.76171875 15.5703125 C-13.588871 12.54391333 -13.8125 10.47253815 -13.8125 6.375 C-10.72826702 -0.3809389 -6.82821115 0.11819091 0 0 Z " fill="#ff4200" transform="translate(267.8125,394.625)"/>
</svg>
