<?xml version="1.0" encoding="UTF-8"?>
<svg version="1.1" xmlns="http://www.w3.org/2000/svg" width="512" height="512">
<path d="M0 0 C1.23088478 -0.00654048 1.23088478 -0.00654048 2.48663592 -0.0132131 C5.25418531 -0.02421794 8.02124155 -0.01372307 10.78878784 -0.00342751 C12.78579528 -0.006882 14.78280081 -0.01164516 16.77980232 -0.01760924 C22.28145573 -0.03017748 27.78295379 -0.02392244 33.28460789 -0.01465058 C39.21242407 -0.00788421 45.14021288 -0.01832931 51.06802368 -0.02659035 C62.01407357 -0.03918256 72.96006987 -0.03805865 83.90612262 -0.02985594 C94.01742734 -0.02231578 104.12871381 -0.02033613 114.24002075 -0.02392387 C114.91015714 -0.02415303 115.58029352 -0.02438218 116.27073707 -0.02461828 C118.99088935 -0.02555227 121.71104163 -0.02650746 124.4311939 -0.02749758 C149.95972054 -0.0366791 175.48821549 -0.02834703 201.01673725 -0.01220688 C223.70818646 0.00203044 246.39958517 0.00075657 269.09103394 -0.01358986 C294.57221438 -0.02964614 320.05336682 -0.03602801 345.53455162 -0.02675307 C348.24981053 -0.02579088 350.96506945 -0.02485237 353.68032837 -0.02392387 C354.68321208 -0.02356803 354.68321208 -0.02356803 355.70635606 -0.02320499 C365.81247462 -0.01978942 375.91857296 -0.02378926 386.02468872 -0.03136253 C397.51328228 -0.03976167 409.00181432 -0.03753087 420.49040079 -0.0215203 C426.35613041 -0.01361619 432.22175732 -0.01058233 438.08748627 -0.02046776 C443.45136733 -0.02937095 448.81504996 -0.02455438 454.17891288 -0.0085351 C456.12501381 -0.00516867 458.07113131 -0.0069228 460.01722169 -0.01416247 C462.6518397 -0.02321585 465.28576783 -0.01399923 467.92034912 0 C469.06762674 -0.01053525 469.06762674 -0.01053525 470.23808169 -0.02128333 C473.41393329 0.01270714 475.6278576 0.19324472 478.43120337 1.74777544 C480.61337027 4.07377225 480.4632571 5.64746964 480.46810913 8.8052578 C480.48502808 10.49618553 480.48502808 10.49618553 480.50228882 12.22127342 C480.49014343 14.07752342 480.49014343 14.07752342 480.47775269 15.97127342 C480.4882666 17.92516991 480.4882666 17.92516991 480.49899292 19.91853905 C480.51724625 23.49298001 480.51015086 27.06695977 480.49747658 30.64140892 C480.48735912 34.37963174 480.49673875 38.1178147 480.50302124 41.85603905 C480.51030134 48.13410607 480.50070057 54.41198496 480.48165894 60.69002342 C480.45988932 67.95139963 480.46694044 75.21232662 480.48896456 82.47369194 C480.50710836 88.70478477 480.50968194 94.93574225 480.49920988 101.16685295 C480.49296926 104.88990201 480.49215469 108.61273983 480.50535583 112.33577538 C480.51904136 116.48537931 480.5000815 120.63420715 480.47775269 124.78377342 C480.48584961 126.02127342 480.49394653 127.25877342 480.50228882 128.53377342 C480.49100952 129.66105858 480.47973022 130.78834373 480.46810913 131.94978905 C480.46584698 133.42203941 480.46584698 133.42203941 480.46353912 134.92403221 C479.96017456 137.37752342 479.96017456 137.37752342 478.43120337 139.00727141 C474.97805063 140.92213759 471.76642849 140.79036471 467.92034912 140.75504684 C467.09975927 140.75940717 466.27916941 140.76376749 465.4337132 140.76825994 C462.66616381 140.77926479 459.89910757 140.76876991 457.13156128 140.75847435 C455.13455385 140.76192884 453.13754831 140.766692 451.1405468 140.77265608 C445.63889339 140.78522432 440.13739533 140.77896928 434.63574123 140.76969743 C428.70792505 140.76293105 422.78013625 140.77337616 416.85232544 140.78163719 C405.90627555 140.79422941 394.96027926 140.79310549 384.0142265 140.78490279 C373.90292178 140.77736262 363.79163531 140.77538297 353.68032837 140.77897072 C353.01019199 140.77919987 352.3400556 140.77942903 351.64961205 140.77966513 C348.92945977 140.78059911 346.20930749 140.78155431 343.48915523 140.78254442 C317.96062858 140.79172594 292.43213363 140.78339387 266.90361187 140.76725373 C244.21216266 140.75301641 221.52076395 140.75429027 198.82931519 140.7686367 C173.34813474 140.78469298 147.86698231 140.79107485 122.3857975 140.78179991 C119.67053859 140.78083773 116.95527967 140.77989921 114.24002075 140.77897072 C113.57143161 140.77873349 112.90284247 140.77849625 112.21399306 140.77825183 C102.1078745 140.77483626 92.00177616 140.7788361 81.8956604 140.78640938 C70.40706684 140.79480851 58.91853481 140.79257772 47.42994833 140.77656715 C41.56421871 140.76866304 35.6985918 140.76562918 29.83286285 140.7755146 C24.46898179 140.7844178 19.10529916 140.77960122 13.74143624 140.76358195 C11.79533531 140.76021551 9.84921781 140.76196965 7.90312743 140.76920931 C5.26850942 140.77826269 2.63458129 140.76904607 0 140.75504684 C-1.14727762 140.76558209 -1.14727762 140.76558209 -2.31773257 140.77633017 C-5.49358417 140.74233971 -7.70750848 140.56180213 -10.51085424 139.00727141 C-12.69302115 136.6812746 -12.54290798 135.1075772 -12.54776001 131.94978905 C-12.55903931 130.82250389 -12.5703186 129.69521873 -12.5819397 128.53377342 C-12.56979431 126.67752342 -12.56979431 126.67752342 -12.55740356 124.78377342 C-12.56441284 123.48117577 -12.57142212 122.17857811 -12.5786438 120.8365078 C-12.59689712 117.26206683 -12.58980174 113.68808707 -12.57712746 110.11363792 C-12.56701 106.37541511 -12.57638963 102.63723214 -12.58267212 98.8990078 C-12.58995222 92.62094078 -12.58035145 86.34306189 -12.56130981 80.06502342 C-12.53954019 72.80364722 -12.54659132 65.54272022 -12.56861544 58.2813549 C-12.58675924 52.05026208 -12.58933282 45.8193046 -12.57886076 39.58819389 C-12.57262014 35.86514483 -12.57180557 32.14230701 -12.58500671 28.41927147 C-12.59869224 24.26966754 -12.57973238 20.12083969 -12.55740356 15.97127342 C-12.56550049 14.73377342 -12.57359741 13.49627342 -12.5819397 12.22127342 C-12.5706604 11.09398827 -12.5593811 9.96670311 -12.54776001 8.8052578 C-12.54625191 7.82375755 -12.5447438 6.84225731 -12.54319 5.83101463 C-12.03982544 3.37752342 -12.03982544 3.37752342 -10.51085424 1.74777544 C-7.05770151 -0.16709074 -3.84607937 -0.03531787 0 0 Z M-0.03982544 13.37752342 C-0.03982544 50.99752342 -0.03982544 88.61752342 -0.03982544 127.37752342 C154.40017456 127.37752342 308.84017456 127.37752342 467.96017456 127.37752342 C467.96017456 89.75752342 467.96017456 52.13752342 467.96017456 13.37752342 C313.52017456 13.37752342 159.08017456 13.37752342 -0.03982544 13.37752342 Z " fill="#ff4200" transform="translate(22.039825439453125,335.6224765777588)"/>
<path d="M0 0 C11.44779981 9.80751805 18.15889161 21.8977835 19.3671875 36.9921875 C19.52055677 51.10216055 15.42510899 63.21037663 5.9296875 73.6796875 C5.0840625 74.4428125 4.2384375 75.2059375 3.3671875 75.9921875 C2.54734375 76.74822266 2.54734375 76.74822266 1.7109375 77.51953125 C-1.84366436 80.70775967 -5.21700385 83.0535398 -9.6328125 84.9921875 C-6.09307512 86.9439224 -2.42279159 88.04700267 1.4296875 89.2421875 C24.75075147 96.84419013 41.91068916 113.45343798 53.1796875 134.9296875 C59.02354157 147.07839573 61.51125468 159.2527986 61.52832031 172.64355469 C61.53328522 173.58585434 61.53825012 174.52815399 61.54336548 175.49900818 C61.55789484 178.59570051 61.56477036 181.69234178 61.5703125 184.7890625 C61.5760675 186.94663494 61.58182519 189.10420736 61.58758545 191.26177979 C61.59806627 195.77396888 61.60392936 200.2861403 61.60742188 204.79833984 C61.61292868 210.58792518 61.63701534 216.37727795 61.66539383 222.16679001 C61.6839781 226.61735735 61.68922335 231.06786789 61.69075775 235.51847076 C61.69378968 237.65397679 61.70183628 239.78948169 61.71494293 241.92494965 C61.73193009 244.90294966 61.73014223 247.88037013 61.72363281 250.85839844 C61.7328476 251.74363693 61.74206238 252.62887543 61.7515564 253.54093933 C61.74320267 254.75621056 61.74320267 254.75621056 61.73468018 255.99603271 C61.73614674 256.69948696 61.7376133 257.40294121 61.7391243 258.12771225 C61.3671875 259.9921875 61.3671875 259.9921875 60.28785324 261.71813774 C57.33153484 263.67917483 54.78831413 263.37009045 51.26904297 263.37313843 C50.54172407 263.3778184 49.81440517 263.38249837 49.06504631 263.38732016 C46.6213052 263.39931218 44.17812054 263.38979682 41.734375 263.38037109 C39.98512443 263.38443494 38.23587642 263.38977576 36.4866333 263.39630127 C31.73049909 263.41000298 26.97455964 263.40466447 22.21842194 263.39516401 C17.24700892 263.38758218 12.27561287 263.39460891 7.30419922 263.39932251 C-1.04527793 263.40478437 -9.39467554 263.39757715 -17.74414062 263.38330078 C-27.40481757 263.36697345 -37.0653046 263.37226165 -46.72597694 263.38878 C-55.01223186 263.4023826 -63.29842953 263.40432053 -71.584692 263.39646399 C-76.53730763 263.39178072 -81.48983392 263.39118054 -86.44244385 263.40107346 C-91.09802414 263.40972303 -95.75335896 263.40375811 -100.40891266 263.38639069 C-102.12018679 263.38241507 -103.83148148 263.38357819 -105.5427475 263.39017868 C-107.87366902 263.39834208 -110.20379738 263.38813654 -112.53466797 263.37313843 C-113.84063934 263.37200735 -115.14661072 263.37087627 -116.49215698 263.36971092 C-119.6328125 262.9921875 -119.6328125 262.9921875 -121.5526371 261.71477318 C-123.55732144 258.51784745 -123.04648603 254.64835717 -123.02099609 250.98535156 C-123.02888153 249.60169151 -123.02888153 249.60169151 -123.03692627 248.19007874 C-123.05016556 245.12915263 -123.04136558 242.06874428 -123.03125 239.0078125 C-123.03327167 236.87326966 -123.03618389 234.73872749 -123.03994751 232.60418701 C-123.04437788 228.11838236 -123.03792447 223.63275654 -123.02392578 219.14697266 C-123.00695755 213.43463757 -123.01659153 207.72272921 -123.03464317 202.01041031 C-123.04556816 197.59363693 -123.04199291 193.17696185 -123.0342598 188.76018524 C-123.03227528 186.65693866 -123.0346547 184.5536828 -123.04169846 182.45044708 C-123.11522499 154.28671654 -116.60709064 130.26369341 -96.5 109.73828125 C-83.73261766 97.51012078 -68.70207266 90.04613679 -51.6328125 85.9921875 C-53.61186817 84.50238613 -55.59462907 83.01997107 -57.59765625 81.5625 C-70.12656509 72.38290342 -77.9444922 61.50417644 -80.37890625 45.9765625 C-81.65140351 31.01982551 -77.38380013 17.36353246 -67.8203125 5.80078125 C-50.19153045 -12.92979968 -20.61527025 -15.72143755 0 0 Z M-60.90625 18.578125 C-66.48334973 26.37597032 -68.5034953 35.53741406 -67.2265625 45.00390625 C-64.91274918 55.76038365 -60.22597721 63.74327041 -51.32421875 70.296875 C-41.79723068 76.29790958 -31.67429311 77.67626721 -20.6484375 75.3671875 C-10.69820821 72.21909236 -2.77756513 65.8876732 2.1796875 56.69140625 C6.72816228 46.35260339 7.49841537 36.65603343 3.8671875 25.9296875 C-0.66049144 15.68540673 -9.36402704 8.22438827 -19.69140625 4.1875 C-35.7633605 -0.53383867 -50.52933306 6.21677773 -60.90625 18.578125 Z M-85.6328125 117.9921875 C-86.54546875 118.76755859 -86.54546875 118.76755859 -87.4765625 119.55859375 C-99.93518705 130.85630101 -108.55068952 149.54969154 -109.79601669 166.17038345 C-110.04684895 172.13673011 -109.97831088 178.10436286 -109.92578125 184.07421875 C-109.92135894 185.76867374 -109.91830548 187.46313285 -109.91662598 189.15759277 C-109.90103002 195.37335436 -109.85914677 201.58902766 -109.8203125 207.8046875 C-109.7584375 221.7265625 -109.6965625 235.6484375 -109.6328125 249.9921875 C-57.4928125 249.9921875 -5.3528125 249.9921875 48.3671875 249.9921875 C48.4496875 236.1321875 48.5321875 222.2721875 48.6171875 207.9921875 C48.65360352 203.64804688 48.69001953 199.30390625 48.72753906 194.828125 C48.7409331 190.86597307 48.7409331 190.86597307 48.7489624 186.90380859 C48.75502502 185.16613645 48.76892338 183.42847898 48.78948975 181.69091797 C48.95500747 166.94418811 47.75145546 152.88674461 40.6171875 139.6171875 C40.27502197 138.95855713 39.93285645 138.29992676 39.58032227 137.62133789 C36.48786578 131.85539378 32.7785323 126.82752659 28.3671875 121.9921875 C27.85027344 121.38375 27.33335937 120.7753125 26.80078125 120.1484375 C15.38502849 107.55963746 -3.25907246 99.20443849 -19.98339844 97.68847656 C-23.47659274 97.55577309 -26.94977138 97.52403326 -30.4453125 97.5546875 C-32.29624512 97.56822266 -32.29624512 97.56822266 -34.18457031 97.58203125 C-53.66646676 97.95203825 -71.17464527 104.80180732 -85.6328125 117.9921875 Z " fill="#ff4200" transform="translate(286.6328125,46.0078125)"/>
<path d="M0 0 C8.5525271 5.94958407 14.22815372 14.92274773 16.1328125 25.16796875 C17.23273245 35.85983771 15.65949221 45.48580738 9.6484375 54.5625 C7.14878401 57.4331958 4.46693745 60.00934 1.6484375 62.5625 C0.6428165 63.55684722 -0.35929611 64.55482574 -1.3515625 65.5625 C0.5046875 65.8409375 0.5046875 65.8409375 2.3984375 66.125 C16.97632912 69.42047314 29.57517612 81.42656516 37.6484375 93.5625 C45.12581621 107.17777235 47.11299781 119.66074013 47.046875 134.9375 C47.04889979 136.59611132 47.05181459 138.25472178 47.05557251 139.91333008 C47.05996698 143.36597282 47.05365185 146.81838086 47.03955078 150.27099609 C47.02235247 154.69741186 47.03238479 159.12328609 47.05026817 163.54968262 C47.06109269 166.96401072 47.0576677 170.37820957 47.0498848 173.7925415 C47.04788464 175.42563949 47.05033559 177.05874923 47.05732346 178.6918335 C47.06492799 180.96544753 47.05335379 183.23817124 47.03662109 185.51171875 C47.03423431 186.80424561 47.03184753 188.09677246 47.02938843 189.4284668 C46.6484375 192.5625 46.6484375 192.5625 45.45674324 194.23414707 C42.99579304 196.04192234 41.37513416 195.94247902 38.33459473 195.95018005 C37.23255203 195.96008469 36.13050934 195.96998932 34.99507141 195.98019409 C33.18089973 195.97344162 33.18089973 195.97344162 31.33007812 195.96655273 C29.42007271 195.97684761 29.42007271 195.97684761 27.47148132 195.98735046 C23.97769452 196.00531462 20.48415842 196.00410764 16.99033928 195.99840808 C14.07516302 195.99532128 11.16003526 196.0014029 8.24486589 196.00744683 C1.36909494 196.02150077 -5.50655179 196.01992325 -12.38232422 196.00854492 C-19.4800948 195.99705892 -26.57748775 196.01114517 -33.67520857 196.0379414 C-39.76616313 196.06007731 -45.85699896 196.06674069 -51.94799089 196.06086498 C-55.58721998 196.05748956 -59.22620689 196.05994904 -62.86540222 196.07711601 C-66.92158034 196.09541454 -70.97702038 196.08142006 -75.03320312 196.06420898 C-76.8473748 196.07871094 -76.8473748 196.07871094 -78.69819641 196.09350586 C-79.80023911 196.08367172 -80.9022818 196.07383759 -82.03771973 196.06370544 C-83.47678555 196.06339152 -83.47678555 196.06339152 -84.9449234 196.06307125 C-87.3515625 195.5625 -87.3515625 195.5625 -89.15986824 193.72144222 C-90.82490521 190.70496497 -90.73286869 188.34072941 -90.73974609 184.90478516 C-90.74500305 184.24393921 -90.75026001 183.58309326 -90.75567627 182.90222168 C-90.76886959 180.71842731 -90.76013107 178.5353643 -90.75 176.3515625 C-90.75202334 174.82139955 -90.75493695 173.29123755 -90.75869751 171.76107788 C-90.76312195 168.54814506 -90.75669506 165.33546231 -90.74267578 162.12255859 C-90.72572803 158.04339551 -90.73533143 153.96483097 -90.75339317 149.88569069 C-90.76435221 146.71967249 -90.76072747 143.55379062 -90.7530098 140.38776779 C-90.75103346 138.88656923 -90.7533748 137.38535754 -90.76044846 135.88417435 C-90.80692533 123.23004746 -89.80077144 110.74666093 -83.7265625 99.375 C-83.37883789 98.70847412 -83.03111328 98.04194824 -82.67285156 97.35522461 C-73.81396904 80.95127689 -59.90752721 70.41448824 -42.3515625 64.5625 C-42.85945313 64.16160156 -43.36734375 63.76070313 -43.890625 63.34765625 C-52.00075779 56.64996232 -57.54710397 49.08850811 -59.3515625 38.5625 C-60.43965614 26.2912217 -58.25361073 16.15911839 -50.3515625 6.5625 C-37.02471598 -7.39895826 -16.48287563 -10.07591069 0 0 Z M-37.6328125 12.9921875 C-42.45394094 17.39694576 -45.84780684 22.39630453 -46.640625 28.953125 C-46.92675468 37.43296829 -44.78173503 43.75798366 -39.03125 50.0234375 C-33.21196212 55.35552919 -26.79413407 57.01213287 -19.07421875 56.8984375 C-11.2310958 55.9307064 -5.4914998 51.51321923 -0.6875 45.46875 C3.34221263 39.71875069 4.06023 33.44504749 3.0859375 26.625 C0.91144899 19.30950223 -3.42749621 13.18905922 -10.15234375 9.5 C-20.31561607 5.16752157 -29.06783342 5.95666897 -37.6328125 12.9921875 Z M-65.3515625 94.5625 C-79.21059574 112.49771949 -77.8651608 131.81437438 -77.6015625 153.5 C-77.5190625 163.090625 -77.4365625 172.68125 -77.3515625 182.5625 C-40.3915625 182.5625 -3.4315625 182.5625 34.6484375 182.5625 C38.36906732 135.60018465 38.36906732 135.60018465 20.6484375 93.5625 C20.10316406 92.93730469 19.55789063 92.31210938 18.99609375 91.66796875 C10.7141933 82.72351627 -1.9769182 76.24590804 -14.23803711 75.43823242 C-34.35791151 74.68892775 -51.38736947 79.07533046 -65.3515625 94.5625 Z " fill="#ff4200" transform="translate(455.3515625,113.4375)"/>
<path d="M0 0 C9.59150895 5.75847099 16.40551786 12.53371225 20.1015625 23.26171875 C22.85039094 34.47693878 21.24145882 44.70968887 15.74609375 54.734375 C12.53296869 59.8943265 8.88296188 63.53222724 4.1015625 67.26171875 C5.20951172 67.68130859 5.20951172 67.68130859 6.33984375 68.109375 C24.96822659 75.47078169 38.11679178 86.68701221 46.9765625 104.69921875 C51.77234242 116.42964004 52.55887137 128.30700379 52.5 140.80078125 C52.50202719 142.34060808 52.50494395 143.88043397 52.50869751 145.42025757 C52.51307733 148.61539027 52.50682315 151.81026837 52.49267578 155.00537109 C52.47543987 159.09643691 52.48554219 163.18691833 52.50339317 167.27796364 C52.51422576 170.44355698 52.51078965 173.60901111 52.5030098 176.77460861 C52.50101382 178.28407232 52.50344584 179.7935488 52.51044846 181.30299759 C52.51807064 183.40367625 52.5064562 185.50339669 52.48974609 187.60400391 C52.48735931 188.79643707 52.48497253 189.98887024 52.48251343 191.21743774 C52.05353365 194.64553014 51.49695927 195.82293655 49.1015625 198.26171875 C46.6949234 198.76229 46.6949234 198.76229 43.78771973 198.76292419 C42.68567703 198.77275833 41.58363434 198.78259247 40.44819641 198.79272461 C38.63402473 198.77822266 38.63402473 198.77822266 36.78320312 198.76342773 C35.50986618 198.76883072 34.23652924 198.7742337 32.92460632 198.77980042 C29.43071949 198.79377668 25.9373239 198.78257059 22.44346428 198.7660892 C18.78933183 198.75225161 15.13522828 198.7586973 11.4810791 198.76222229 C5.344239 198.76492545 -0.79240563 198.75143989 -6.92919922 198.72827148 C-14.02692536 198.70166093 -21.12432464 198.69991417 -28.22208357 198.71165985 C-35.04635779 198.72243447 -41.87051363 198.71625309 -48.69477844 198.70210457 C-51.60063979 198.69634197 -54.50641459 198.69642956 -57.41227722 198.70116997 C-61.46839231 198.70682294 -65.52401812 198.68763354 -69.58007812 198.66577148 C-70.78952591 198.67027313 -71.99897369 198.67477478 -73.24507141 198.67941284 C-74.34711411 198.66950821 -75.4491568 198.65960358 -76.58459473 198.6493988 C-77.54397194 198.64696891 -78.50334915 198.64453901 -79.4917984 198.64203548 C-81.8984375 198.26171875 -81.8984375 198.26171875 -83.70632267 196.93210411 C-85.65927664 194.19563474 -85.28856409 191.56669916 -85.30249023 188.25854492 C-85.30935349 187.54907715 -85.31621674 186.83960938 -85.32328796 186.10864258 C-85.34161995 183.75712155 -85.33770421 181.4062649 -85.33203125 179.0546875 C-85.33659526 177.41099329 -85.34190149 175.76730099 -85.34791565 174.12361145 C-85.35686317 170.6693246 -85.35441125 167.21526861 -85.34448242 163.76098633 C-85.33308477 159.37117626 -85.35305234 154.98218168 -85.38239956 150.59247875 C-85.40092396 147.19054727 -85.40043557 143.78880447 -85.39476204 140.3868351 C-85.39461029 138.77119123 -85.4005315 137.15553333 -85.41305351 135.53993797 C-85.54074367 116.33649653 -80.68987711 99.68718517 -67.22607422 85.44458008 C-59.32200265 77.4561377 -50.63692302 71.70864003 -39.8984375 68.26171875 C-38.9084375 68.26171875 -37.9184375 68.26171875 -36.8984375 68.26171875 C-37.5790625 67.60171875 -38.2596875 66.94171875 -38.9609375 66.26171875 C-49.08683336 56.04952264 -54.09782193 48.0159199 -54.8984375 33.26171875 C-54.4278684 24.00719313 -50.78258316 14.6558382 -44.54296875 7.703125 C-32.56474914 -2.79559955 -14.88918122 -7.2910939 0 0 Z M-32.81640625 15.36328125 C-37.44955388 19.5878774 -40.80611896 25.10545067 -41.8984375 31.32421875 C-41.8984375 39.5183987 -40.23060926 45.86488771 -34.328125 51.85546875 C-28.33786791 57.33534519 -22.54788664 59.83988054 -14.3828125 59.54296875 C-7.19366347 58.72910282 -1.76565944 55.57366148 3.1015625 50.26171875 C7.76919971 43.72702666 9.07640491 37.16247643 8.1015625 29.26171875 C5.45476519 20.93791225 0.19906079 14.99696174 -7.4609375 10.88671875 C-17.14810169 8.4028305 -24.64771857 9.49784877 -32.81640625 15.36328125 Z M-60.90234375 98.3828125 C-80.20084014 121.09918514 -72.8984375 160.34604072 -72.8984375 185.26171875 C-35.9384375 185.26171875 1.0215625 185.26171875 39.1015625 185.26171875 C39.1840625 175.67109375 39.2665625 166.08046875 39.3515625 156.19921875 C39.38797852 153.20335693 39.42439453 150.20749512 39.46191406 147.12084961 C39.61599813 125.48247253 38.05598067 109.07557716 22.72265625 92.65625 C9.10442779 80.21515604 -5.99680877 77.53644055 -23.70849609 78.12988281 C-39.06216437 79.05418391 -50.67032232 87.55242725 -60.90234375 98.3828125 Z " fill="#ff4200" transform="translate(94.8984375,110.73828125)"/>
<path d="M0 0 C2.45703125 1.65234375 2.45703125 1.65234375 4.8125 3.9375 C6.08673828 5.15566406 6.08673828 5.15566406 7.38671875 6.3984375 C8.24910156 7.25695312 9.11148438 8.11546875 10 9 C10.87269531 9.85851562 11.74539062 10.71703125 12.64453125 11.6015625 C14.77907311 13.71929694 16.89686147 15.85114107 19 18 C22.25471105 16.58763744 24.25551353 14.91106223 26.64453125 12.3046875 C27.32193359 11.58925781 27.99933594 10.87382812 28.69726562 10.13671875 C30.10588374 8.6305509 31.50440673 7.11487711 32.89257812 5.58984375 C38.1120847 0.1283733 38.1120847 0.1283733 42.890625 -0.5625 C46 0 46 0 47.9375 1.125 C49.63262266 4.11639292 49.64407189 5.58641899 49 9 C47.00912298 11.99617135 44.53118585 14.45585586 42 17 C41.53432617 17.47260254 41.06865234 17.94520508 40.58886719 18.43212891 C37.41885602 21.64848526 34.2193379 24.83305639 31 28 C32.34480376 31.00735841 33.82783179 33.0585216 36.1875 35.34765625 C36.80367187 35.95287109 37.41984375 36.55808594 38.0546875 37.18164062 C39.01761719 38.11266602 39.01761719 38.11266602 40 39.0625 C41.27308578 40.30107442 42.54400932 41.54187616 43.8125 42.78515625 C44.65748047 43.60318726 44.65748047 43.60318726 45.51953125 44.43774414 C47.87580332 46.92418626 48.95476034 48.56569924 49.3125 52 C49 55 49 55 47.9375 56.875 C45.6520887 58.20201301 43.72725944 58.64519071 41.08374023 58.60205078 C36.23654294 57.20156004 32.89770536 52.57976917 29.5625 49 C28.73556641 48.14148438 27.90863281 47.28296875 27.05664062 46.3984375 C25.02108862 44.28052212 23.00364384 42.14805346 21 40 C17.74545353 41.41054229 15.76504579 43.0773122 13.390625 45.6953125 C12.38128906 46.76845703 12.38128906 46.76845703 11.3515625 47.86328125 C9.95381826 49.36754503 8.56825113 50.8832188 7.1953125 52.41015625 C1.40853497 58.4939737 1.40853497 58.4939737 -3.38671875 58.62890625 C-7 58 -7 58 -9.0625 55.8125 C-10.15251879 52.54244363 -10.01620213 51.25974142 -9 48 C-7.23413086 45.7800293 -7.23413086 45.7800293 -4.96484375 43.57421875 C-3.75151367 42.38022461 -3.75151367 42.38022461 -2.51367188 41.16210938 C-1.2384668 39.93717773 -1.2384668 39.93717773 0.0625 38.6875 C0.91650391 37.85154297 1.77050781 37.01558594 2.65039062 36.15429688 C4.75821312 34.09357656 6.87479849 32.04276791 9 30 C7.58693407 26.76099702 5.90026787 24.70479019 3.33984375 22.28515625 C2.62892578 21.59873047 1.91800781 20.91230469 1.18554688 20.20507812 C-0.31325241 18.7765961 -1.8158678 17.35210737 -3.32226562 15.93164062 C-4.03189453 15.24392578 -4.74152344 14.55621094 -5.47265625 13.84765625 C-6.12500244 13.22898682 -6.77734863 12.61031738 -7.44946289 11.97290039 C-9.29546051 9.62405662 -9.71849496 7.95354965 -10 5 C-8.11601632 -0.21718559 -5.28213776 -0.51327046 0 0 Z " fill="#ff4200" transform="translate(178,377)"/>
<path d="M0 0 C4.84719729 1.40049075 8.18603488 6.02228162 11.52124023 9.60205078 C12.34817383 10.46056641 13.17510742 11.31908203 14.02709961 12.20361328 C16.06265162 14.32152866 18.0800964 16.45399732 20.08374023 18.60205078 C23.09109865 17.25724702 25.14226184 15.77421899 27.43139648 13.41455078 C28.03661133 12.79837891 28.64182617 12.18220703 29.26538086 11.54736328 C30.19640625 10.58443359 30.19640625 10.58443359 31.14624023 9.60205078 C32.38481465 8.328965 33.6256164 7.05804146 34.86889648 5.78955078 C35.41425049 5.22623047 35.95960449 4.66291016 36.52148438 4.08251953 C39.02211509 1.71280166 40.61885347 0.64079135 44.08374023 0.35205078 C47.08374023 0.60205078 47.08374023 0.60205078 50.08374023 2.60205078 C51.20874023 5.22705078 51.20874023 5.22705078 51.08374023 8.60205078 C49.18581065 11.67162642 46.63835325 14.07248299 44.08374023 16.60205078 C43.03609551 17.6611858 41.98927463 18.72113611 40.94311523 19.78173828 C38.01033966 22.7427931 35.0525333 25.6771315 32.08374023 28.60205078 C33.49680617 31.84105376 35.18347236 33.89726059 37.74389648 36.31689453 C38.45481445 37.00332031 39.16573242 37.68974609 39.89819336 38.39697266 C41.39699264 39.82545468 42.89960804 41.24994341 44.40600586 42.67041016 C45.11563477 43.358125 45.82526367 44.04583984 46.55639648 44.75439453 C47.20874268 45.37306396 47.86108887 45.9917334 48.53320312 46.62915039 C50.38690567 48.98779788 50.8143477 50.63277951 51.08374023 53.60205078 C50.14624023 56.41455078 50.14624023 56.41455078 48.08374023 58.60205078 C44.77084116 59.25730927 43.25033201 59.47992776 40.08374023 58.60205078 C36.49265494 55.99876689 33.58293687 52.85525104 30.58374023 49.60205078 C29.76131836 48.74353516 28.93889648 47.88501953 28.09155273 47.00048828 C26.06969382 44.88458942 24.06884668 42.75237095 22.08374023 40.60205078 C18.82902919 42.01441334 16.8282267 43.69098855 14.43920898 46.29736328 C13.42310547 47.37050781 13.42310547 47.37050781 12.38647461 48.46533203 C10.97785649 49.97149988 9.5793335 51.48717367 8.19116211 53.01220703 C2.97165554 58.47367748 2.97165554 58.47367748 -1.80688477 59.16455078 C-4.91625977 58.60205078 -4.91625977 58.60205078 -6.85375977 57.47705078 C-8.42181387 54.70989647 -8.22471694 52.74445827 -7.91625977 49.60205078 C-6.26391602 47.14501953 -6.26391602 47.14501953 -3.97875977 44.78955078 C-3.16665039 43.94005859 -2.35454102 43.09056641 -1.51782227 42.21533203 C-0.65930664 41.35294922 0.19920898 40.49056641 1.08374023 39.60205078 C1.94225586 38.72935547 2.80077148 37.85666016 3.68530273 36.95751953 C5.80303718 34.82297767 7.9348813 32.70518931 10.08374023 30.60205078 C8.69777157 27.4679941 7.09302867 25.38370896 4.64233398 23.00048828 C3.9765332 22.34564453 3.31073242 21.69080078 2.62475586 21.01611328 C1.58351563 20.00677734 1.58351563 20.00677734 0.52124023 18.97705078 C-0.85724513 17.63293209 -2.23365377 16.28667925 -3.60766602 14.93798828 C-4.21811768 14.34550293 -4.82856934 13.75301758 -5.45751953 13.14257812 C-7.57346664 10.90799632 -7.90135637 9.77716572 -8.16625977 6.66455078 C-7.91625977 3.60205078 -7.91625977 3.60205078 -6.85375977 1.72705078 C-4.56834847 0.40003777 -2.6435192 -0.04313993 0 0 Z " fill="#ff4200" transform="translate(292.916259765625,376.39794921875)"/>
<path d="M0 0 C2.99617135 1.99087702 5.45585586 4.46881415 8 7 C8.47260254 7.46567383 8.94520508 7.93134766 9.43212891 8.41113281 C12.64848526 11.58114398 15.83305639 14.7806621 19 18 C22.13405668 16.61403133 24.21834182 15.00928844 26.6015625 12.55859375 C27.25640625 11.89279297 27.91125 11.22699219 28.5859375 10.54101562 C29.59527344 9.49977539 29.59527344 9.49977539 30.625 8.4375 C31.96911869 7.05901463 33.31537153 5.68260599 34.6640625 4.30859375 C35.55279053 3.39291626 35.55279053 3.39291626 36.45947266 2.45874023 C38.69405446 0.34279312 39.82488507 0.0149034 42.9375 -0.25 C46 0 46 0 47.875 1.125 C49.65952249 4.09920415 49.64846 5.56316202 49 9 C47.00912298 11.99617135 44.53118585 14.45585586 42 17 C41.53432617 17.47260254 41.06865234 17.94520508 40.58886719 18.43212891 C37.41885602 21.64848526 34.2193379 24.83305639 31 28 C32.38596867 31.13405668 33.99071156 33.21834182 36.44140625 35.6015625 C37.10720703 36.25640625 37.77300781 36.91125 38.45898438 37.5859375 C39.50022461 38.59527344 39.50022461 38.59527344 40.5625 39.625 C41.94098537 40.96911869 43.31739401 42.31537153 44.69140625 43.6640625 C45.60708374 44.55279053 45.60708374 44.55279053 46.54125977 45.45947266 C48.65720688 47.69405446 48.9850966 48.82488507 49.25 51.9375 C49 55 49 55 47.9375 56.875 C45.6520887 58.20201301 43.72725944 58.64519071 41.08374023 58.60205078 C36.23654294 57.20156004 32.89770536 52.57976917 29.5625 49 C28.73556641 48.14148438 27.90863281 47.28296875 27.05664062 46.3984375 C25.02108862 44.28052212 23.00364384 42.14805346 21 40 C17.74545353 41.41054229 15.76504579 43.0773122 13.390625 45.6953125 C12.38128906 46.76845703 12.38128906 46.76845703 11.3515625 47.86328125 C9.95381826 49.36754503 8.56825113 50.8832188 7.1953125 52.41015625 C1.40886824 58.49362331 1.40886824 58.49362331 -3.390625 58.6171875 C-7 58 -7 58 -9 56 C-9.64248067 52.69998566 -9.86538317 51.15704601 -9 48 C-6.39766836 44.40830264 -3.25312939 41.4991313 0 38.5 C0.85851562 37.67757812 1.71703125 36.85515625 2.6015625 36.0078125 C4.71746136 33.98595359 6.84967983 31.98510645 9 30 C7.58763744 26.74528895 5.91106223 24.74448647 3.3046875 22.35546875 C2.58925781 21.67806641 1.87382812 21.00066406 1.13671875 20.30273438 C-0.3694491 18.89411626 -1.88512289 17.49559327 -3.41015625 16.10742188 C-8.8716267 10.8879153 -8.8716267 10.8879153 -9.5625 6.109375 C-9 3 -9 3 -7.875 1.0625 C-4.88360708 -0.63262266 -3.41358101 -0.64407189 0 0 Z " fill="#ff4200" transform="translate(411,377)"/>
<path d="M0 0 C2.99617135 1.99087702 5.45585586 4.46881415 8 7 C8.47260254 7.46567383 8.94520508 7.93134766 9.43212891 8.41113281 C12.64848526 11.58114398 15.83305639 14.7806621 19 18 C22.13405668 16.61403133 24.21834182 15.00928844 26.6015625 12.55859375 C27.25640625 11.89279297 27.91125 11.22699219 28.5859375 10.54101562 C29.59527344 9.49977539 29.59527344 9.49977539 30.625 8.4375 C31.96911869 7.05901463 33.31537153 5.68260599 34.6640625 4.30859375 C35.55279053 3.39291626 35.55279053 3.39291626 36.45947266 2.45874023 C38.69405446 0.34279312 39.82488507 0.0149034 42.9375 -0.25 C46 0 46 0 47.875 1.0625 C49.20201301 3.3479113 49.64519071 5.27274056 49.60205078 7.91625977 C48.20156004 12.76345706 43.57976917 16.10229464 40 19.4375 C39.14148438 20.26443359 38.28296875 21.09136719 37.3984375 21.94335938 C35.28052212 23.97891138 33.14805346 25.99635616 31 28 C32.41054229 31.25454647 34.0773122 33.23495421 36.6953125 35.609375 C37.76845703 36.61871094 37.76845703 36.61871094 38.86328125 37.6484375 C40.36754503 39.04618174 41.8832188 40.43174887 43.41015625 41.8046875 C49.49362331 47.59113176 49.49362331 47.59113176 49.6171875 52.390625 C49 56 49 56 47 58 C43.69998566 58.64248067 42.15704601 58.86538317 39 58 C35.40830264 55.39766836 32.4991313 52.25312939 29.5 49 C28.67757812 48.14148438 27.85515625 47.28296875 27.0078125 46.3984375 C24.98595359 44.28253864 22.98510645 42.15032017 21 40 C17.74528895 41.41236256 15.74448647 43.08893777 13.35546875 45.6953125 C12.33936523 46.76845703 12.33936523 46.76845703 11.30273438 47.86328125 C9.89411626 49.3694491 8.49559327 50.88512289 7.10742188 52.41015625 C1.8879153 57.8716267 1.8879153 57.8716267 -2.890625 58.5625 C-6 58 -6 58 -7.9375 56.875 C-9.63262266 53.88360708 -9.64407189 52.41358101 -9 49 C-7.00912298 46.00382865 -4.53118585 43.54414414 -2 41 C-1.30148926 40.29109619 -1.30148926 40.29109619 -0.58886719 39.56787109 C2.58114398 36.35151474 5.7806621 33.16694361 9 30 C7.61403133 26.86594332 6.00928844 24.78165818 3.55859375 22.3984375 C2.89279297 21.74359375 2.22699219 21.08875 1.54101562 20.4140625 C0.49977539 19.40472656 0.49977539 19.40472656 -0.5625 18.375 C-1.94098537 17.03088131 -3.31739401 15.68462847 -4.69140625 14.3359375 C-5.30185791 13.74345215 -5.91230957 13.1509668 -6.54125977 12.54052734 C-8.65720688 10.30594554 -8.9850966 9.17511493 -9.25 6.0625 C-9 3 -9 3 -7.875 1.125 C-4.90079585 -0.65952249 -3.43683798 -0.64846 0 0 Z " fill="#ff4200" transform="translate(61,377)"/>
</svg>
