<?xml version="1.0" standalone="no"?>
<!DOCTYPE svg PUBLIC "-//W3C//DTD SVG 20010904//EN"
 "http://www.w3.org/TR/2001/REC-SVG-20010904/DTD/svg10.dtd">
<svg version="1.0" xmlns="http://www.w3.org/2000/svg"
 width="512.000000pt" height="512.000000pt" viewBox="0 0 512.000000 512.000000"
 preserveAspectRatio="xMidYMid meet">

<g transform="translate(0.000000,512.000000) scale(0.100000,-0.100000)"
fill="#ff4200" stroke="none">
<path d="M3701 4992 c-19 -9 -44 -30 -55 -45 -21 -28 -21 -35 -24 -972 l-2
-944 -64 35 c-35 19 -99 47 -142 63 l-79 29 -5 423 -5 424 -23 33 c-44 61 -50
62 -386 62 l-304 0 -32 -26 c-61 -52 -60 -39 -60 -542 0 -419 -1 -460 -17
-466 -35 -14 -158 -101 -214 -153 l-59 -55 -2 784 -3 783 -24 34 c-42 58 -59
61 -384 61 -289 0 -295 0 -328 -23 -74 -49 -69 39 -69 -1224 l0 -1133 -145 0
-145 0 0 758 c0 844 3 801 -69 849 -33 23 -39 23 -330 23 -332 0 -347 -3 -386
-70 -20 -34 -20 -51 -23 -797 l-2 -763 -89 0 c-72 0 -91 -3 -104 -18 -21 -23
-22 -46 -1 -66 14 -14 110 -16 904 -16 l889 0 5 -47 c11 -93 44 -229 75 -309
68 -177 211 -364 369 -484 93 -71 267 -155 387 -187 89 -23 119 -26 270 -27
143 0 184 3 258 22 107 27 207 67 309 125 l76 44 161 -161 c146 -146 161 -164
161 -196 1 -71 31 -108 321 -397 276 -273 286 -282 343 -298 217 -63 404 124
341 341 -16 57 -25 67 -298 343 -289 290 -326 320 -397 321 -32 0 -50 15 -198
163 l-162 162 26 39 c42 61 110 214 133 296 11 41 25 114 32 162 l12 88 232 0
c212 0 233 2 248 18 22 24 21 45 -1 65 -15 13 -39 17 -110 17 l-92 0 0 1386
c0 1553 6 1425 -72 1465 -34 17 -62 19 -325 19 -254 0 -292 -2 -322 -18z m607
-94 c9 -9 12 -330 12 -1385 l0 -1373 -89 0 -89 0 -7 63 c-29 263 -144 497
-339 686 l-76 73 0 962 c0 735 3 965 12 974 17 17 559 17 576 0z m-2188 -497
c7 -13 10 -294 10 -841 l0 -821 -54 -89 c-80 -134 -127 -275 -151 -462 l-6
-48 -200 0 -199 0 0 1121 c0 753 3 1127 10 1140 10 18 24 19 295 19 271 0 285
-1 295 -19z m1100 -421 c7 -12 9 -151 8 -407 -3 -324 -5 -388 -17 -385 -7 2
-64 5 -125 8 -128 7 -268 -11 -389 -49 l-77 -25 0 427 c0 319 3 430 12 439 9
9 88 12 295 12 270 0 283 -1 293 -20z m-2202 -322 c9 -9 12 -193 12 -765 l0
-753 -305 0 -305 0 0 746 c0 495 3 752 10 765 10 18 24 19 293 19 207 0 286
-3 295 -12z m2247 -587 c190 -46 342 -134 485 -280 204 -208 300 -458 287
-746 -12 -263 -116 -494 -304 -676 -132 -128 -278 -211 -461 -261 -111 -31
-373 -31 -483 0 -186 51 -332 134 -465 267 -103 101 -171 200 -221 319 -135
318 -100 669 95 965 47 72 191 216 263 263 125 82 288 147 424 168 89 13 287
4 380 -19z m847 -2063 l-62 -63 -149 149 -149 149 61 62 62 63 150 -149 150
-149 -63 -62z m491 -245 c274 -272 306 -313 307 -381 0 -90 -82 -172 -173
-172 -67 1 -109 34 -379 307 -227 228 -268 273 -268 298 0 42 173 215 215 215
25 0 70 -41 298 -267z"/>
<path d="M2885 2906 c-269 -53 -487 -221 -601 -461 -63 -134 -78 -206 -78
-360 1 -99 6 -148 22 -206 39 -144 138 -309 240 -400 308 -274 751 -292 1072
-44 391 304 429 884 80 1235 -107 109 -237 184 -379 221 -99 26 -264 33 -356
15z m330 -110 c146 -39 303 -143 392 -260 170 -224 199 -512 78 -761 -78 -163
-177 -262 -340 -340 -359 -175 -789 -28 -965 330 -58 116 -74 189 -74 325 0
197 59 350 191 490 114 121 240 194 392 226 81 17 242 12 326 -10z"/>
<path d="M2961 2700 c-69 -15 -132 -50 -189 -107 -73 -73 -105 -145 -110 -252
-6 -114 10 -176 68 -264 77 -119 74 -109 80 -282 7 -180 18 -217 85 -273 87
-71 197 -68 280 9 61 57 75 104 75 259 0 146 6 168 71 268 100 152 112 289 39
439 -72 146 -245 234 -399 203z m185 -121 c53 -25 109 -86 137 -148 16 -34 21
-65 21 -121 -1 -87 -13 -121 -78 -215 -25 -37 -51 -86 -57 -109 -6 -22 -13
-47 -15 -53 -2 -7 -19 -13 -39 -13 l-35 0 0 134 0 134 43 48 c58 65 70 89 58
113 -10 18 -32 31 -52 31 -5 0 -30 -21 -54 -47 l-44 -48 -44 48 c-46 49 -56
54 -88 37 -34 -19 -24 -61 31 -124 l50 -57 0 -135 0 -134 -34 0 c-31 0 -34 3
-44 43 -6 23 -29 71 -52 107 -81 129 -92 162 -88 253 2 62 9 93 26 127 73 139
221 193 358 129z m4 -794 l0 -35 -120 0 -120 0 0 35 0 35 120 0 120 0 0 -35z
m-20 -156 c-15 -27 -69 -59 -101 -59 -32 0 -93 39 -97 63 -3 15 8 17 103 17
104 0 105 0 95 -21z"/>
</g>
</svg>
