<?xml version="1.0" standalone="no"?>
<!DOCTYPE svg PUBLIC "-//W3C//DTD SVG 20010904//EN"
 "http://www.w3.org/TR/2001/REC-SVG-20010904/DTD/svg10.dtd">
<svg version="1.0" xmlns="http://www.w3.org/2000/svg"
 width="512.000000pt" height="512.000000pt" viewBox="0 0 512.000000 512.000000"
 preserveAspectRatio="xMidYMid meet">

<g transform="translate(0.000000,512.000000) scale(0.100000,-0.100000)"
fill="#ff4200" stroke="none">
<path d="M2165 4789 c-500 -68 -872 -401 -1002 -897 -20 -77 -26 -129 -30
-257 -7 -230 23 -387 112 -570 114 -236 334 -445 582 -555 l88 -39 3 -165 2
-165 -67 -20 c-38 -11 -158 -45 -268 -77 -287 -81 -373 -124 -509 -253 -119
-114 -193 -235 -243 -398 l-27 -88 -4 -466 c-3 -437 -2 -467 15 -487 10 -13
34 -25 55 -28 30 -5 41 -2 62 19 l26 26 0 426 c0 481 4 521 70 661 48 104 108
184 189 250 106 88 176 118 477 204 l276 79 48 -38 c187 -148 432 -146 609 5
l39 34 277 -80 c177 -51 300 -92 343 -115 148 -77 244 -178 317 -330 71 -147
75 -183 75 -668 0 -402 1 -426 19 -448 27 -34 95 -33 123 1 18 23 19 40 16
484 -4 440 -5 465 -26 541 -46 163 -127 299 -248 416 -140 133 -218 171 -559
268 -137 40 -258 74 -267 77 -16 5 -18 22 -18 170 0 148 2 165 18 171 270 95
533 336 664 608 49 103 52 139 14 172 -58 49 -98 25 -156 -95 -166 -346 -467
-559 -834 -591 -275 -24 -532 50 -751 215 -331 248 -475 713 -348 1119 52 167
139 309 264 432 90 88 160 139 265 191 413 208 898 121 1219 -219 149 -157
245 -356 273 -567 l9 -63 -121 3 -120 3 -12 65 c-103 554 -746 828 -1217 520
-174 -113 -286 -270 -345 -485 -23 -84 -22 -297 2 -385 77 -282 294 -495 581
-572 111 -29 298 -30 406 0 149 40 296 132 389 244 86 103 96 143 48 188 -35
32 -76 26 -112 -17 -122 -144 -227 -219 -361 -259 -80 -24 -246 -24 -335 0
-481 131 -640 716 -290 1066 252 253 648 252 900 0 95 -96 157 -212 176 -329
l7 -41 -122 0 c-96 0 -121 3 -121 14 0 7 -16 45 -35 83 -98 197 -325 273 -530
179 -199 -91 -280 -331 -180 -533 42 -85 102 -142 195 -187 58 -27 75 -31 155
-31 70 0 97 4 118 18 33 21 43 58 27 97 -15 36 -50 49 -117 43 -96 -10 -183
36 -229 120 -70 130 -10 296 124 341 96 33 174 14 247 -59 52 -51 75 -102 75
-164 0 -21 9 -41 25 -56 l24 -25 678 0 677 0 121 -120 c125 -123 142 -133 188
-108 68 36 64 82 -15 164 l-61 64 37 0 c26 0 44 7 61 25 53 52 15 135 -61 135
l-37 0 61 64 c63 66 72 88 50 129 -17 32 -39 46 -72 47 -24 0 -51 -21 -151
-120 l-121 -120 -222 0 c-170 0 -223 3 -226 13 -2 6 -8 49 -14 95 -14 103 -70
273 -123 372 -169 312 -458 533 -799 611 -100 23 -313 32 -415 18z m150 -2384
c61 0 140 4 178 8 l67 9 0 -159 0 -158 -37 -29 c-121 -97 -273 -99 -398 -4
l-44 33 -1 158 0 158 63 -8 c34 -4 112 -8 172 -8z"/>
<path d="M1466 1017 l-26 -26 0 -309 c0 -289 1 -311 19 -333 27 -33 95 -33
122 0 18 22 19 44 19 331 0 345 0 345 -72 356 -30 5 -41 2 -62 -19z"/>
<path d="M3066 1017 l-26 -26 0 -309 c0 -289 1 -311 19 -333 27 -33 95 -33
122 0 18 22 19 44 19 331 0 345 0 345 -72 356 -30 5 -41 2 -62 -19z"/>
</g>
</svg>
