<?xml version="1.0" standalone="no"?>
<!DOCTYPE svg PUBLIC "-//W3C//DTD SVG 20010904//EN"
 "http://www.w3.org/TR/2001/REC-SVG-20010904/DTD/svg10.dtd">
<svg version="1.0" xmlns="http://www.w3.org/2000/svg"
 width="512.000000pt" height="512.000000pt" viewBox="0 0 512.000000 512.000000"
 preserveAspectRatio="xMidYMid meet">

<g transform="translate(0.000000,512.000000) scale(0.100000,-0.100000)"
fill="#ff4200" stroke="none">
<path d="M1037 4903 c-11 -3 -195 -156 -410 -340 -283 -242 -395 -344 -404
-366 -17 -46 -16 -249 1 -292 20 -46 61 -65 141 -65 l65 0 0 -280 c0 -179 4
-288 11 -303 6 -13 23 -31 39 -40 25 -15 83 -17 585 -17 485 0 560 2 586 16
54 28 59 55 59 353 l0 269 75 4 c66 3 78 7 102 31 27 27 28 30 31 163 2 89 -1
146 -8 164 -13 32 -742 663 -800 692 -35 18 -41 19 -73 11z m366 -532 c273
-234 308 -267 305 -290 -3 -25 -6 -26 -79 -31 -136 -9 -139 -17 -139 -370 l0
-270 -425 0 -425 0 0 281 c0 244 -2 285 -17 309 -22 38 -52 50 -129 50 l-65 0
3 34 c3 31 31 58 318 304 257 220 318 268 330 258 8 -6 153 -130 323 -275z"/>
<path d="M2379 4661 c-47 -48 -37 -130 21 -164 26 -16 126 -17 1225 -17 1329
0 1242 -5 1271 67 19 43 5 93 -33 123 -25 20 -38 20 -1240 20 l-1215 0 -29
-29z"/>
<path d="M2414 4256 c-41 -18 -64 -52 -64 -96 0 -45 23 -78 66 -96 50 -21
1518 -21 1568 0 43 18 66 51 66 96 0 45 -23 78 -66 96 -49 20 -1523 20 -1570
0z"/>
<path d="M2398 3823 c-56 -35 -66 -117 -19 -164 l29 -29 996 0 c712 0 1002 3
1020 11 60 28 71 122 20 170 l-26 24 -996 2 c-916 2 -999 1 -1024 -14z"/>
<path d="M1027 2871 c-10 -4 -194 -157 -408 -340 -333 -286 -390 -339 -399
-370 -16 -59 -13 -247 6 -286 21 -44 67 -65 143 -65 l61 0 0 -283 c0 -245 2
-286 16 -306 36 -50 43 -51 625 -51 601 0 592 -1 623 65 13 28 16 78 16 304
l0 271 55 0 c71 0 120 20 139 59 18 35 23 261 6 305 -8 23 -751 670 -798 695
-23 12 -58 13 -85 2z m363 -514 c254 -219 316 -277 318 -299 3 -28 3 -28 -58
-28 -36 0 -76 -7 -95 -16 -61 -29 -65 -50 -65 -353 l0 -271 -425 0 -425 0 0
275 c0 308 -3 325 -65 351 -19 8 -60 14 -90 14 l-56 0 3 31 c3 26 45 66 318
300 173 148 317 269 320 268 3 0 147 -123 320 -272z"/>
<path d="M2414 2656 c-41 -18 -64 -52 -64 -96 0 -45 23 -78 66 -96 50 -21
2158 -21 2208 0 43 18 66 51 66 96 0 45 -23 78 -66 96 -49 21 -2163 20 -2210
0z"/>
<path d="M2398 2223 c-56 -35 -66 -117 -19 -164 l29 -29 792 0 792 0 29 29
c48 49 34 142 -26 169 -19 9 -220 12 -798 12 -701 -1 -774 -2 -799 -17z"/>
<path d="M2379 1781 c-49 -49 -36 -134 25 -166 28 -14 95 -16 703 -13 l671 3
26 24 c51 48 40 142 -20 170 -18 8 -224 11 -700 11 l-676 0 -29 -29z"/>
<path d="M1990 1379 c-13 -6 -32 -17 -42 -26 -43 -38 -39 -56 136 -580 92
-275 173 -509 181 -520 8 -12 31 -27 50 -33 30 -10 41 -9 73 7 34 16 46 36
143 226 l105 209 205 104 c112 57 214 116 227 130 32 37 30 95 -5 133 -24 25
-101 53 -528 195 -275 91 -505 166 -510 165 -6 0 -21 -5 -35 -10z m700 -435
c9 -4 -25 -26 -93 -60 -119 -60 -138 -81 -193 -210 -15 -35 -30 -64 -35 -64
-6 0 -169 473 -169 492 0 5 418 -129 490 -158z"/>
</g>
</svg>
