<?xml version="1.0" standalone="no"?>
<!DOCTYPE svg PUBLIC "-//W3C//DTD SVG 20010904//EN"
 "http://www.w3.org/TR/2001/REC-SVG-20010904/DTD/svg10.dtd">
<svg version="1.0" xmlns="http://www.w3.org/2000/svg"
 width="512.000000pt" height="512.000000pt" viewBox="0 0 512.000000 512.000000"
 preserveAspectRatio="xMidYMid meet">

<g transform="translate(0.000000,512.000000) scale(0.100000,-0.100000)"
fill="#ff4200" stroke="none">
<path d="M2475 4729 c-106 -10 -252 -58 -350 -115 -107 -63 -244 -202 -304
-307 -145 -258 -157 -552 -31 -812 21 -44 57 -105 80 -135 22 -30 227 -248
454 -485 227 -236 478 -503 556 -592 150 -170 172 -186 231 -168 12 4 86 68
163 143 78 74 346 316 596 537 250 221 473 422 495 446 88 96 166 241 201 374
28 106 26 323 -4 430 -86 303 -322 535 -627 616 -114 30 -308 30 -420 0 -95
-25 -201 -74 -283 -129 l-58 -40 -67 53 c-172 139 -403 206 -632 184z m273
-173 c119 -32 232 -98 326 -190 85 -84 100 -84 197 -1 71 61 215 131 307 150
267 55 531 -41 702 -254 100 -125 150 -270 150 -438 0 -164 -52 -317 -149
-440 -22 -29 -250 -237 -506 -463 -256 -227 -517 -461 -579 -521 l-114 -109
-112 127 c-62 71 -300 323 -529 561 -237 247 -436 463 -463 502 -85 126 -123
266 -115 425 17 326 246 594 566 661 79 16 241 11 319 -10z"/>
<path d="M590 2467 c-161 -38 -268 -157 -291 -327 -6 -41 -9 -354 -7 -762 l3
-693 23 -57 c41 -102 120 -179 225 -221 46 -18 80 -21 282 -25 327 -6 407 10
510 100 58 51 101 126 116 199 l11 56 136 -44 c581 -188 1081 -270 1325 -218
178 38 488 196 917 470 153 98 330 202 649 381 111 63 212 127 238 152 99 95
125 260 61 386 -32 64 -107 130 -174 156 -48 18 -73 21 -139 18 -97 -6 -65 11
-588 -292 -225 -130 -412 -234 -417 -231 -4 2 -10 22 -13 42 -8 50 -67 136
-118 173 -23 16 -67 39 -98 52 -53 21 -75 22 -407 27 l-351 6 -52 63 c-123
148 -285 233 -481 252 -52 5 -183 10 -291 10 -210 0 -209 0 -209 49 0 39 -62
141 -116 190 -96 88 -126 95 -429 98 -182 1 -276 -2 -315 -10z m563 -158 c47
-13 102 -60 130 -113 l22 -41 0 -725 0 -725 -22 -42 c-28 -52 -83 -98 -137
-113 -28 -8 -122 -10 -291 -8 l-250 3 -47 28 c-31 18 -57 44 -75 75 l-28 47 0
736 0 736 30 48 c22 36 45 57 84 77 l53 28 247 0 c141 0 262 -5 284 -11z m850
-344 c136 -28 266 -116 340 -228 20 -29 43 -60 53 -68 14 -11 89 -15 398 -19
l381 -5 45 -25 c131 -74 117 -213 -30 -279 -43 -20 -63 -21 -557 -21 l-512 0
-26 -22 c-37 -32 -37 -83 -1 -115 l27 -23 535 0 c526 0 535 0 577 21 23 12
292 168 597 347 305 179 574 334 598 345 83 36 180 -2 221 -85 26 -56 27 -100
0 -154 -25 -52 -21 -49 -444 -289 -181 -103 -386 -224 -455 -268 -322 -208
-607 -367 -760 -422 -242 -87 -660 -28 -1337 187 l-193 62 0 538 0 538 238 0
c167 0 257 -5 305 -15z"/>
<path d="M845 2158 c-39 -21 -45 -39 -45 -139 0 -82 3 -100 21 -123 27 -34 86
-37 115 -5 16 18 19 37 19 126 0 102 -1 105 -28 129 -31 26 -51 29 -82 12z"/>
</g>
</svg>
