<?xml version="1.0" standalone="no"?>
<!DOCTYPE svg PUBLIC "-//W3C//DTD SVG 20010904//EN"
 "http://www.w3.org/TR/2001/REC-SVG-20010904/DTD/svg10.dtd">
<svg version="1.0" xmlns="http://www.w3.org/2000/svg"
 width="512.000000pt" height="512.000000pt" viewBox="0 0 512.000000 512.000000"
 preserveAspectRatio="xMidYMid meet">

<g transform="translate(0.000000,512.000000) scale(0.100000,-0.100000)"
fill="#ff4200" stroke="none">
<path d="M1089 5090 l-30 -29 3 -464 3 -463 24 -35 c13 -19 166 -141 343 -274
437 -327 382 -295 498 -295 l97 0 5 -79 c3 -52 12 -92 26 -122 12 -23 20 -43
19 -44 -1 -1 -42 -16 -92 -34 -170 -63 -334 -156 -474 -269 -35 -29 -68 -52
-72 -52 -5 0 -192 131 -416 292 -224 160 -420 296 -435 302 -42 16 -79 -3
-115 -57 -67 -99 -98 -225 -90 -357 7 -115 28 -187 86 -302 26 -54 48 -98 47
-98 -1 0 -56 18 -121 40 -65 22 -127 40 -136 40 -32 0 -76 -48 -88 -95 -54
-214 14 -441 185 -617 l47 -48 -173 0 -172 0 -29 -29 c-34 -34 -37 -75 -15
-181 47 -220 216 -397 476 -497 21 -9 6 -16 -120 -58 -159 -53 -190 -74 -190
-128 0 -49 62 -167 122 -233 192 -209 534 -282 811 -173 47 19 51 19 60 4 27
-49 179 -224 248 -287 431 -391 1006 -536 1558 -394 277 72 540 219 749 420
51 48 199 225 219 261 9 15 13 15 60 -4 276 -109 615 -38 807 169 63 68 126
187 126 237 0 54 -31 75 -189 128 l-142 47 77 34 c251 109 411 311 430 548 7
74 6 75 -24 105 l-30 31 -172 0 -173 0 47 48 c171 176 239 403 185 617 -12 47
-56 95 -88 95 -9 0 -71 -18 -136 -40 -65 -22 -120 -40 -121 -40 -2 0 17 37 41
83 60 114 86 203 92 322 7 118 -9 192 -62 302 -50 102 -98 133 -157 102 -11
-6 -202 -141 -424 -300 -222 -159 -408 -289 -412 -289 -5 0 -38 23 -73 52
-140 113 -304 206 -474 269 -49 18 -91 33 -92 34 -1 1 7 21 19 44 14 30 23 70
26 122 l5 79 94 0 c52 0 104 5 116 11 59 30 706 526 728 557 l24 36 3 463 3
464 -30 29 -29 30 -1442 0 -1442 0 -29 -30z m681 -720 c0 -313 -2 -570 -5
-570 -3 0 -122 88 -265 195 l-260 195 0 375 0 375 265 0 265 0 0 -570z m350
381 c0 -174 2 -190 20 -214 45 -56 130 -39 149 31 6 20 11 112 11 205 l0 167
260 0 260 0 0 -167 c0 -93 5 -185 11 -205 19 -70 104 -87 149 -31 18 24 20 40
20 214 l0 189 90 0 90 0 0 -615 0 -615 -620 0 -620 0 0 615 0 615 90 0 90 0 0
-189z m1760 -186 l0 -375 -260 -195 c-143 -107 -262 -195 -265 -195 -3 0 -5
257 -5 570 l0 570 265 0 265 0 0 -375z m-970 -1094 c0 -49 -4 -65 -24 -88
l-24 -28 -302 0 -302 0 -24 28 c-20 23 -24 39 -24 88 l0 59 350 0 350 0 0 -59z
m-1947 -424 l348 -249 -25 -31 c-14 -18 -54 -72 -88 -121 -35 -48 -70 -98 -79
-109 -15 -20 -18 -19 -156 52 -77 40 -163 91 -190 114 -102 87 -167 190 -199
316 -27 108 -7 307 28 285 7 -5 170 -120 361 -257z m3587 215 c19 -69 12 -194
-15 -280 -54 -172 -157 -279 -372 -390 -77 -39 -143 -72 -147 -72 -3 0 -29 35
-57 78 -29 42 -74 105 -101 139 l-48 61 356 256 c197 140 361 253 365 250 5
-3 13 -21 19 -42z m-1730 -108 c118 -19 302 -79 407 -132 235 -119 459 -321
605 -548 88 -137 171 -353 204 -529 26 -138 26 -392 0 -530 -113 -608 -563
-1071 -1174 -1208 -82 -18 -128 -21 -302 -21 -174 0 -220 3 -302 21 -140 32
-238 66 -366 129 -420 207 -715 597 -808 1069 -26 128 -26 404 0 540 59 318
206 588 443 816 242 232 528 366 873 409 99 12 301 5 420 -16z m-2136 -684
c185 -60 339 -110 341 -110 2 0 -4 -19 -14 -42 -21 -49 -65 -183 -81 -246
l-11 -44 -93 4 c-88 3 -99 6 -182 48 -147 74 -254 200 -298 349 -17 57 -22
151 -8 151 5 0 160 -49 346 -110z m4106 61 c0 -168 -137 -364 -318 -454 -79
-39 -93 -42 -179 -45 -51 -2 -93 -2 -93 1 0 15 -71 238 -89 279 l-20 46 97 31
c53 17 205 67 337 110 132 44 246 80 253 80 8 1 12 -15 12 -48z m-3905 -868
l0 -188 -50 -7 c-206 -27 -385 31 -522 168 -58 57 -123 164 -123 202 0 9 76
12 348 12 l347 0 0 -187z m4045 175 c0 -40 -66 -147 -129 -208 -122 -121 -281
-179 -453 -166 -48 4 -94 9 -102 12 -10 4 -13 43 -12 190 l1 184 348 0 c271 0
347 -3 347 -12z m-3970 -657 c18 -62 40 -116 106 -267 18 -41 -259 -70 -376
-39 -97 25 -193 79 -250 142 -28 30 -50 58 -50 62 0 10 534 190 541 183 4 -4
16 -40 29 -81z m3770 -102 c0 -4 -23 -33 -51 -64 -60 -65 -176 -126 -277 -146
-79 -15 -241 -7 -304 16 -27 9 -48 18 -48 20 0 1 16 36 35 78 19 41 49 117 65
169 17 51 33 99 35 105 3 9 87 -15 275 -79 148 -51 270 -96 270 -99z"/>
<path d="M2420 2995 c-8 -2 -49 -9 -90 -15 -163 -26 -361 -106 -513 -207 -96
-64 -259 -223 -330 -321 -115 -160 -199 -361 -233 -562 -22 -129 -14 -389 15
-506 43 -174 101 -305 199 -454 66 -99 236 -276 275 -285 63 -16 130 51 108
107 -5 13 -49 64 -99 113 -368 369 -445 928 -187 1379 167 294 453 497 786
561 115 21 321 20 434 -4 174 -37 335 -109 475 -215 74 -55 116 -61 155 -21
37 37 34 88 -7 127 -126 117 -369 235 -583 283 -64 14 -367 30 -405 20z"/>
<path d="M2512 2404 c-13 -9 -65 -100 -118 -207 -53 -106 -98 -194 -100 -196
-2 -2 -104 -19 -226 -37 -208 -31 -225 -35 -245 -59 -14 -15 -23 -39 -23 -58
0 -28 20 -52 165 -195 l164 -163 -34 -202 c-43 -252 -44 -258 -4 -291 17 -14
40 -26 52 -26 12 0 111 47 220 104 l197 103 198 -103 c108 -57 205 -104 215
-104 23 0 58 18 74 39 19 24 15 69 -22 281 l-33 195 164 166 c142 143 164 170
164 197 0 18 -10 42 -23 58 -21 25 -36 28 -245 58 -122 18 -224 35 -226 37 -2
2 -47 90 -100 196 -53 107 -105 198 -118 207 -12 9 -34 16 -48 16 -14 0 -36
-7 -48 -16z m121 -411 c36 -76 74 -143 85 -150 11 -6 86 -21 168 -33 82 -12
150 -23 151 -24 2 -1 -49 -53 -112 -115 -134 -131 -128 -111 -91 -313 13 -71
20 -128 17 -128 -3 0 -70 32 -149 72 l-142 73 -143 -73 c-78 -40 -145 -73
-148 -72 -3 0 4 57 17 128 37 204 43 184 -91 314 -63 61 -114 112 -113 114 2
1 70 12 152 24 82 12 157 27 168 33 11 7 49 74 85 150 37 75 69 137 73 137 4
0 36 -62 73 -137z"/>
<path d="M3577 2360 c-44 -35 -43 -61 11 -178 58 -126 77 -181 96 -282 45
-237 21 -455 -75 -686 -93 -223 -312 -451 -547 -568 -243 -122 -556 -148 -821
-69 -132 40 -145 40 -181 5 -38 -38 -40 -83 -6 -117 27 -27 144 -66 272 -91
116 -23 337 -23 460 -1 481 87 874 425 1028 888 87 259 89 565 5 822 -37 112
-88 223 -123 265 -33 38 -79 43 -119 12z"/>
</g>
</svg>
