<?xml version="1.0" standalone="no"?>
<!DOCTYPE svg PUBLIC "-//W3C//DTD SVG 20010904//EN"
 "http://www.w3.org/TR/2001/REC-SVG-20010904/DTD/svg10.dtd">
<svg version="1.0" xmlns="http://www.w3.org/2000/svg"
 width="512.000000pt" height="512.000000pt" viewBox="0 0 512.000000 512.000000"
 preserveAspectRatio="xMidYMid meet">

<g transform="translate(0.000000,512.000000) scale(0.100000,-0.100000)"
fill="#ff4200" stroke="none">
<path d="M354 4819 c-59 -17 -126 -71 -158 -129 l-31 -55 -3 -594 c-3 -684 -5
-669 76 -750 83 -83 62 -81 741 -81 l596 -1 170 -140 c94 -78 184 -149 200
-160 40 -26 71 -24 100 6 24 23 25 29 25 158 l0 134 83 5 c123 7 200 56 246
158 20 44 21 63 21 650 l0 605 -24 51 c-13 27 -42 66 -66 87 -83 70 -32 67
-1039 66 -511 0 -920 -5 -937 -10z m1856 -166 c16 -9 33 -27 39 -40 8 -16 11
-207 11 -601 0 -532 -2 -579 -18 -598 -29 -36 -57 -44 -161 -44 -154 0 -171
-15 -171 -152 l0 -82 -27 26 c-16 14 -79 67 -141 117 l-114 91 -619 0 -619 0
-32 29 -33 29 0 590 c0 576 0 590 20 612 11 12 29 26 40 31 11 4 420 8 908 8
812 1 891 0 917 -16z"/>
<path d="M855 4075 c-55 -54 -15 -135 67 -135 46 1 68 12 86 47 18 34 14 52
-17 84 -39 39 -100 41 -136 4z"/>
<path d="M1225 4075 c-55 -54 -15 -135 68 -135 54 0 90 33 90 82 0 70 -106
106 -158 53z"/>
<path d="M1596 4079 c-20 -16 -26 -29 -26 -59 0 -49 35 -80 90 -80 55 0 90 31
90 80 0 49 -35 80 -90 80 -23 0 -48 -8 -64 -21z"/>
<path d="M2945 3804 c-58 -20 -106 -64 -140 -125 l-30 -54 0 -585 c0 -572 0
-586 21 -630 44 -95 129 -149 246 -158 l66 -5 4 -129 c3 -122 4 -131 27 -149
51 -41 74 -31 267 129 l179 147 590 5 590 5 51 27 c29 15 66 44 83 65 62 76
62 71 59 709 -3 572 -3 579 -25 619 -25 47 -74 95 -123 121 -33 18 -78 19
-930 21 -758 1 -901 -1 -935 -13z m1800 -156 c55 -25 55 -20 55 -617 l0 -551
-29 -32 -29 -33 -604 -3 -604 -2 -127 -105 c-69 -58 -129 -105 -132 -105 -3 0
-5 37 -5 82 0 70 -3 85 -22 105 -20 21 -30 23 -127 23 -127 0 -163 15 -181 77
-8 26 -10 204 -8 576 l3 539 33 29 32 29 860 0 c645 0 866 -3 885 -12z"/>
<path d="M3465 3109 c-51 -29 -61 -90 -22 -127 31 -30 108 -31 137 -2 30 30
30 83 1 113 -22 23 -89 32 -116 16z"/>
<path d="M3820 3107 c-32 -16 -52 -55 -45 -87 9 -40 41 -60 95 -60 41 0 52 4
69 26 31 39 27 77 -10 108 -33 28 -70 33 -109 13z"/>
<path d="M4175 3109 c-51 -29 -61 -90 -22 -127 31 -30 108 -31 137 -2 30 30
30 83 1 113 -22 23 -89 32 -116 16z"/>
<path d="M805 2746 c-27 -12 -68 -43 -91 -68 -80 -87 -75 2 -72 -1228 l3
-1095 27 -47 c16 -25 47 -63 70 -82 82 -70 -38 -66 1819 -66 1531 0 1681 1
1728 17 62 20 122 69 159 131 l27 47 3 884 2 884 -22 24 c-21 23 -59 30 -93
17 -45 -18 -45 -12 -45 -894 l0 -832 -520 513 -520 513 301 302 c296 297 302
303 295 336 -8 42 -39 68 -82 68 -30 0 -79 -45 -601 -564 -599 -594 -591 -587
-665 -571 -25 6 -206 180 -820 789 l-789 781 858 5 c472 3 866 9 876 14 42 20
50 90 14 124 l-23 22 -895 0 -894 0 -50 -24z m663 -908 l372 -373 -267 -265
c-148 -146 -382 -377 -520 -515 l-253 -250 0 1029 0 1028 148 -140 c81 -77
315 -309 520 -514z m807 -800 c124 -120 147 -138 195 -152 69 -21 115 -20 181
1 48 16 78 41 283 240 l230 221 26 -18 c14 -10 248 -242 520 -514 l495 -496
-1645 0 -1645 1 519 516 518 516 92 -90 c50 -49 154 -150 231 -225z"/>
</g>
</svg>
