<?xml version="1.0" encoding="UTF-8"?>
<svg version="1.1" xmlns="http://www.w3.org/2000/svg" width="512" height="512">
<path d="M0 0 C1.258125 -0.01546875 2.51625 -0.0309375 3.8125 -0.046875 C15.44243645 0.00240439 15.44243645 0.00240439 20 4.5 C24.7932203 9.97357667 24.48700314 14.8104832 24.25 21.875 C24.23195313 22.89722656 24.21390625 23.91945313 24.1953125 24.97265625 C24.14839491 27.48274749 24.08276729 29.99087764 24 32.5 C24.80875895 32.49631283 25.61751789 32.49262566 26.45078468 32.48882675 C46.13083321 32.40048446 65.81084755 32.33429463 85.49105263 32.29275131 C95.00826768 32.27212721 104.52535037 32.2440095 114.04248047 32.19824219 C122.33774192 32.15836979 130.6329075 32.13256608 138.92826211 32.12364602 C143.32051675 32.11843195 147.71249713 32.10618021 152.10466385 32.07707977 C156.23985321 32.04990425 160.37465567 32.04155927 164.50992584 32.04756927 C166.02645598 32.04646999 167.54299922 32.03852858 169.05945206 32.0231781 C171.13350108 32.00321535 173.20609783 32.0080819 175.28018188 32.01898193 C176.43979746 32.01529476 177.59941303 32.01160759 178.79416847 32.00780869 C183.88960819 32.79011155 186.97137287 35.34697676 190.34179688 39.125 C192.58245986 43.68550134 192.57575828 47.48318577 192.53125 52.5 C192.5350769 53.45390625 192.53890381 54.4078125 192.54284668 55.390625 C192.54556036 57.40105245 192.53823737 59.41151553 192.52148438 61.421875 C192.50006709 64.49038787 192.52130466 67.55655952 192.546875 70.625 C192.54423163 72.58333848 192.53910645 74.5416755 192.53125 76.5 C192.53934692 77.41265625 192.54744385 78.3253125 192.55578613 79.265625 C192.474444 84.82079872 191.84199474 88.19337704 188 92.5 C183.62585947 95.923746 180.81758455 96.99862507 175.28018188 96.98101807 C174.62985406 96.98443577 173.97952624 96.98785347 173.30949152 96.99137473 C171.14418387 96.99793016 168.98013358 96.97601899 166.81494141 96.95410156 C165.25742624 96.95297257 163.69990895 96.95360797 162.14239502 96.95587158 C157.92368917 96.95701763 153.70543971 96.93352622 149.48683977 96.90557575 C145.074614 96.88054382 140.66237737 96.87821869 136.25009155 96.87347412 C127.89910555 96.8610496 119.5483294 96.82823511 111.19743574 96.78807616 C101.68843825 96.74334213 92.17943067 96.72136731 82.67035413 96.70129442 C63.1134492 96.659502 43.55674522 96.5883529 24 96.5 C24 104.42 24 112.34 24 120.5 C27.78549316 120.47905273 31.57098633 120.45810547 35.47119141 120.43652344 C47.97215473 120.37027315 60.47311534 120.32586865 72.97420692 120.29275131 C80.55434754 120.27213611 88.1343217 120.24403564 95.71435547 120.19824219 C102.32201035 120.15834226 108.92954467 120.13255961 115.53731668 120.12364602 C119.03534075 120.11843653 122.53301996 120.10621469 126.03093338 120.07707977 C129.93816791 120.04480024 133.84506668 120.04404263 137.75244141 120.04589844 C138.90906281 120.03151733 140.0656842 120.01713623 141.25735474 120.00231934 C147.49314366 120.03441168 151.28482173 120.27043971 156 124.5 C160.54282076 129.59220276 160.58891916 133.99973908 160.53125 140.5 C160.5350769 141.45390625 160.53890381 142.4078125 160.54284668 143.390625 C160.54556036 145.40105245 160.53823737 147.41151553 160.52148438 149.421875 C160.50006709 152.49038787 160.52130466 155.55655952 160.546875 158.625 C160.54423163 160.58333848 160.53910645 162.5416755 160.53125 164.5 C160.53934692 165.41265625 160.54744385 166.3253125 160.55578613 167.265625 C160.474444 172.82079872 159.84199474 176.19337704 156 180.5 C150.41469119 185.51007576 145.00555996 185.04428479 137.75244141 184.95410156 C135.90770233 184.95497772 135.90770233 184.95497772 134.0256958 184.95587158 C130.66626491 184.95356782 127.30782611 184.93355576 123.94857073 184.90557575 C120.43322219 184.88051285 116.9178594 184.87821627 113.4024353 184.87347412 C106.75138974 184.86105861 100.10060824 184.8282566 93.44967878 184.78807616 C85.87535594 184.74331383 78.30102027 184.72136024 70.72659802 184.70129442 C55.15088655 184.65952239 39.57553865 184.58618823 24 184.5 C24 192.42 24 200.34 24 208.5 C25.76566315 208.49111755 27.53132629 208.48223511 29.35049438 208.4730835 C45.97783799 208.39205025 62.60513377 208.3318194 79.23262978 208.29275131 C87.78130655 208.27213116 96.32983585 208.24402109 104.87841797 208.19824219 C112.32987612 208.15835759 119.78122747 208.13256321 127.2327894 208.12364602 C131.17792697 208.11843398 135.12275902 208.10619548 139.06779861 208.07707977 C142.78276228 208.04988481 146.49729519 208.0415631 150.21234894 208.04756927 C152.22227986 208.04594797 154.2321641 208.02444654 156.24197388 208.00231934 C167.2330827 208.05255494 167.2330827 208.05255494 172 212.5 C176.54282076 217.59220276 176.58891916 221.99973908 176.53125 228.5 C176.5350769 229.45390625 176.53890381 230.4078125 176.54284668 231.390625 C176.54556036 233.40105245 176.53823737 235.41151553 176.52148438 237.421875 C176.50006709 240.49038787 176.52130466 243.55655952 176.546875 246.625 C176.54423163 248.58333848 176.53910645 250.5416755 176.53125 252.5 C176.53934692 253.41265625 176.54744385 254.3253125 176.55578613 255.265625 C176.474444 260.82079872 175.84199474 264.19337704 172 268.5 C166.22649662 273.88657113 159.83667001 273.03725683 152.28369141 272.95410156 C150.88380974 272.95297236 149.4839257 272.95360838 148.08404541 272.95587158 C144.29505635 272.95701682 140.50657627 272.93353889 136.71770525 272.90557575 C132.75391773 272.88053009 128.79011787 272.87821761 124.82626343 272.87347412 C117.32524913 272.8610536 109.82446869 272.82824463 102.32355726 272.78807616 C93.78189666 272.74332959 85.24022475 272.72136418 76.69847608 272.70129442 C59.13217841 272.65951107 41.56612289 272.58836915 24 272.5 C24 280.42 24 288.34 24 296.5 C29.31472412 296.4685791 29.31472412 296.4685791 34.73681641 296.43652344 C46.43948937 296.37026335 58.1421888 296.32586466 69.8449955 296.29275131 C76.9408691 296.27213908 84.03656481 296.24404441 91.13232422 296.19824219 C97.97931988 296.15406682 104.82613054 296.13086615 111.67325974 296.12049103 C114.28636968 296.11309664 116.89946944 296.09865732 119.51250076 296.07707977 C123.1708289 296.04807023 126.82839187 296.04404316 130.48681641 296.04589844 C131.5686319 296.03151733 132.65044739 296.01713623 133.76504517 296.00231934 C139.84729626 296.0357262 143.37636993 296.43100087 148 300.5 C152.54282076 305.59220276 152.58891916 309.99973908 152.53125 316.5 C152.5350769 317.45390625 152.53890381 318.4078125 152.54284668 319.390625 C152.54556036 321.40105245 152.53823737 323.41151553 152.52148438 325.421875 C152.50006709 328.49038787 152.52130466 331.55655952 152.546875 334.625 C152.54423163 336.58333848 152.53910645 338.5416755 152.53125 340.5 C152.53934692 341.41265625 152.54744385 342.3253125 152.55578613 343.265625 C152.474444 348.82079872 151.84199474 352.19337704 148 356.5 C142.5246982 361.31850794 137.5703057 361.04826586 130.48681641 360.95410156 C129.33501892 360.95468567 128.18322144 360.95526978 126.996521 360.95587158 C123.19789258 360.95308984 119.40005347 360.92199167 115.6015625 360.890625 C112.96455311 360.88316298 110.32753816 360.87746987 107.69052124 360.87347412 C101.46445855 360.86106163 95.23867815 360.82826381 89.01273954 360.78807616 C81.92208603 360.74330434 74.83141876 360.72135788 67.740659 360.70129442 C53.16027325 360.6595293 38.58019275 360.58619878 24 360.5 C24 368.42 24 376.34 24 384.5 C25.96611237 384.49111755 27.93222473 384.48223511 29.95791626 384.4730835 C48.46892301 384.3913662 66.979906 384.33182684 85.49105263 384.29275131 C95.00826768 384.27212721 104.52535037 384.2440095 114.04248047 384.19824219 C122.33774192 384.15836979 130.6329075 384.13256608 138.92826211 384.12364602 C143.32051675 384.11843195 147.71249713 384.10618021 152.10466385 384.07707977 C156.23985321 384.04990425 160.37465567 384.04155927 164.50992584 384.04756927 C166.02645598 384.04646999 167.54299922 384.03852858 169.05945206 384.0231781 C171.13350108 384.00321535 173.20609783 384.0080819 175.28018188 384.01898193 C176.43979746 384.01529476 177.59941303 384.01160759 178.79416847 384.00780869 C183.88960819 384.79011155 186.97137287 387.34697676 190.34179688 391.125 C192.58245986 395.68550134 192.57575828 399.48318577 192.53125 404.5 C192.5350769 405.45390625 192.53890381 406.4078125 192.54284668 407.390625 C192.54556036 409.40105245 192.53823737 411.41151553 192.52148438 413.421875 C192.50006709 416.49038787 192.52130466 419.55655952 192.546875 422.625 C192.54423163 424.58333848 192.53910645 426.5416755 192.53125 428.5 C192.53934692 429.41265625 192.54744385 430.3253125 192.55578613 431.265625 C192.474444 436.82079872 191.84199474 440.19337704 188 444.5 C183.62585947 447.923746 180.81758455 448.99862507 175.28018188 448.98101807 C174.62985406 448.98443577 173.97952624 448.98785347 173.30949152 448.99137473 C171.14418387 448.99793016 168.98013358 448.97601899 166.81494141 448.95410156 C165.25742624 448.95297257 163.69990895 448.95360797 162.14239502 448.95587158 C157.92368917 448.95701763 153.70543971 448.93352622 149.48683977 448.90557575 C145.074614 448.88054382 140.66237737 448.87821869 136.25009155 448.87347412 C127.89910555 448.8610496 119.5483294 448.82823511 111.19743574 448.78807616 C101.68843825 448.74334213 92.17943067 448.72136731 82.67035413 448.70129442 C63.11345236 448.659502 43.55673941 448.58916014 24 448.5 C24.02094727 449.13502441 24.04189453 449.77004883 24.06347656 450.42431641 C24.14704581 453.32438076 24.19878774 456.22419116 24.25 459.125 C24.28351563 460.12402344 24.31703125 461.12304688 24.3515625 462.15234375 C24.43317933 468.31441457 24.10678824 471.81028853 20 476.5 C15.19541613 481.24136566 10.21936214 481.01972728 3.8125 481.046875 C2.554375 481.03140625 1.29625 481.0159375 0 481 C-1.258125 481.01546875 -2.51625 481.0309375 -3.8125 481.046875 C-15.44243645 480.99759561 -15.44243645 480.99759561 -20 476.5 C-24.7932203 471.02642333 -24.48700314 466.1895168 -24.25 459.125 C-24.23195312 458.10277344 -24.21390625 457.08054687 -24.1953125 456.02734375 C-24.14839491 453.51725251 -24.08276729 451.00912236 -24 448.5 C-24.72629923 448.50368717 -25.45259846 448.50737434 -26.20090675 448.51117325 C-43.8781091 448.59953298 -61.55525531 448.6657138 -79.23262978 448.70724869 C-87.78130655 448.72786884 -96.32983585 448.75597891 -104.87841797 448.80175781 C-112.32987612 448.84164241 -119.78122747 448.86743679 -127.2327894 448.87635398 C-131.17792697 448.88156602 -135.12275902 448.89380452 -139.06779861 448.92292023 C-142.78276228 448.95011519 -146.49729519 448.9584369 -150.21234894 448.95243073 C-152.22227986 448.95405203 -154.2321641 448.97555346 -156.24197388 448.99768066 C-167.2330827 448.94744506 -167.2330827 448.94744506 -172 444.5 C-176.54282076 439.40779724 -176.58891916 435.00026092 -176.53125 428.5 C-176.5350769 427.54609375 -176.53890381 426.5921875 -176.54284668 425.609375 C-176.54556036 423.59894755 -176.53823737 421.58848447 -176.52148438 419.578125 C-176.50006709 416.50961213 -176.52130466 413.44344048 -176.546875 410.375 C-176.54423163 408.41666152 -176.53910645 406.4583245 -176.53125 404.5 C-176.53934692 403.58734375 -176.54744385 402.6746875 -176.55578613 401.734375 C-176.474444 396.17920128 -175.84199474 392.80662296 -172 388.5 C-166.22649662 383.11342887 -159.83667001 383.96274317 -152.28369141 384.04589844 C-150.88380974 384.04702764 -149.4839257 384.04639162 -148.08404541 384.04412842 C-144.29505635 384.04298318 -140.50657627 384.06646111 -136.71770525 384.09442425 C-132.75391773 384.11946991 -128.79011787 384.12178239 -124.82626343 384.12652588 C-117.32524913 384.1389464 -109.82446869 384.17175537 -102.32355726 384.21192384 C-93.78189666 384.25667041 -85.24022475 384.27863582 -76.69847608 384.29870558 C-59.13217841 384.34048893 -41.56612289 384.41163085 -24 384.5 C-24 376.58 -24 368.66 -24 360.5 C-27.24984238 360.51332367 -27.24984238 360.51332367 -30.56533813 360.5269165 C-50.96001547 360.60862068 -71.35467125 360.66816707 -91.74947548 360.70724869 C-102.23523036 360.72787601 -112.72086516 360.75599995 -123.20654297 360.80175781 C-132.34560774 360.84162027 -141.48458554 360.86743157 -150.62373483 360.87635398 C-155.46310908 360.88156971 -160.30223455 360.89383223 -165.14152908 360.92292023 C-169.69694626 360.95007993 -174.25201229 360.95844386 -178.80750275 360.95243073 C-180.4788364 360.95353071 -182.15018185 360.96148138 -183.82144547 360.9768219 C-186.10564696 360.99675925 -188.38852718 360.99192656 -190.67276001 360.98101807 C-191.95036509 360.98470524 -193.22797016 360.98839241 -194.54429054 360.99219131 C-199.81410985 360.24161916 -202.85933522 357.77861007 -206.34179688 353.875 C-208.58245986 349.31449866 -208.57575828 345.51681423 -208.53125 340.5 C-208.5350769 339.54609375 -208.53890381 338.5921875 -208.54284668 337.609375 C-208.54556036 335.59894755 -208.53823737 333.58848447 -208.52148438 331.578125 C-208.50006709 328.50961213 -208.52130466 325.44344048 -208.546875 322.375 C-208.54423163 320.41666152 -208.53910645 318.4583245 -208.53125 316.5 C-208.53934692 315.58734375 -208.54744385 314.6746875 -208.55578613 313.734375 C-208.474444 308.17920128 -207.84199474 304.80662296 -204 300.5 C-199.43782253 296.87864676 -196.46624659 296.00226191 -190.67276001 296.01898193 C-189.95709535 296.01556423 -189.24143069 296.01214653 -188.50407922 296.00862527 C-186.11770275 296.00206216 -183.73246338 296.02399487 -181.34619141 296.04589844 C-179.63104275 296.04702726 -177.91589216 296.04639237 -176.20074463 296.04412842 C-171.55231795 296.04298171 -166.90430492 296.06648409 -162.25597429 296.09442425 C-157.39531081 296.119445 -152.53463763 296.12178044 -147.67391968 296.12652588 C-138.47295983 296.13895366 -129.2721903 296.17177265 -120.07131422 296.21192384 C-109.59498049 296.25664764 -99.11863762 296.27863013 -88.64223218 296.29870558 C-67.0947124 296.34050542 -45.5473749 296.4116603 -24 296.5 C-24 288.58 -24 280.66 -24 272.5 C-26.49815781 272.51332367 -26.49815781 272.51332367 -29.04678345 272.5269165 C-44.73229696 272.60795889 -60.4177455 272.66818499 -76.10341835 272.70724869 C-84.16782673 272.72786652 -92.23207872 272.75597207 -100.29638672 272.80175781 C-107.32594323 272.84164962 -114.35538648 272.86743849 -121.38505304 272.87635398 C-125.10663334 272.88156482 -128.82788963 272.89379549 -132.549366 272.92292023 C-136.70574515 272.95518417 -140.86156241 272.95595792 -145.01806641 272.95410156 C-146.24949371 272.96848267 -147.48092102 272.98286377 -148.74966431 272.99768066 C-155.12698795 272.96680513 -159.20282868 272.88769416 -164 268.5 C-168.54282076 263.40779724 -168.58891916 259.00026092 -168.53125 252.5 C-168.5350769 251.54609375 -168.53890381 250.5921875 -168.54284668 249.609375 C-168.54556036 247.59894755 -168.53823737 245.58848447 -168.52148438 243.578125 C-168.50006709 240.50961213 -168.52130466 237.44344048 -168.546875 234.375 C-168.54423163 232.41666152 -168.53910645 230.4583245 -168.53125 228.5 C-168.53934692 227.58734375 -168.54744385 226.6746875 -168.55578613 225.734375 C-168.474444 220.17920128 -167.84199474 216.80662296 -164 212.5 C-158.31546476 207.30068556 -152.42732655 207.95937012 -145.01806641 208.04589844 C-143.05628448 208.04502228 -143.05628448 208.04502228 -141.05487061 208.04412842 C-137.48073797 208.04298365 -133.90714543 208.06645362 -130.33313799 208.09442425 C-126.59356985 208.11947801 -122.85398848 208.12178302 -119.11434937 208.12652588 C-112.03831987 208.13894404 -104.96253843 208.17174975 -97.88661802 208.21192384 C-89.82862617 208.25667782 -81.7706223 208.27863767 -73.71253705 208.29870558 C-57.14154221 208.34048359 -40.57081258 208.41162126 -24 208.5 C-24 200.58 -24 192.66 -24 184.5 C-25.86588776 184.50888245 -27.73177551 184.51776489 -29.65420532 184.5269165 C-47.22338152 184.6079416 -64.79251996 184.66817668 -82.3618412 184.70724869 C-91.39478689 184.72787092 -100.42759307 184.75598502 -109.46044922 184.80175781 C-117.33380902 184.84163598 -125.20706777 184.86743528 -133.08052576 184.87635398 C-137.24922149 184.88156709 -141.41762817 184.89381257 -145.58623123 184.92292023 C-149.51130743 184.95010495 -153.43597599 184.95843892 -157.36113739 184.95243073 C-158.80026592 184.95352961 -160.23940833 184.96146563 -161.67845535 184.9768219 C-163.64683369 184.99679338 -165.61543161 184.98953833 -167.58389282 184.98101807 C-168.68451365 184.98470524 -169.78513447 184.98839241 -170.91910744 184.99219131 C-175.9279646 184.19199593 -179.02692409 181.59075398 -182.34179688 177.875 C-184.58245986 173.31449866 -184.57575828 169.51681423 -184.53125 164.5 C-184.5350769 163.54609375 -184.53890381 162.5921875 -184.54284668 161.609375 C-184.54556036 159.59894755 -184.53823737 157.58848447 -184.52148438 155.578125 C-184.50006709 152.50961213 -184.52130466 149.44344048 -184.546875 146.375 C-184.54423163 144.41666152 -184.53910645 142.4583245 -184.53125 140.5 C-184.53934692 139.58734375 -184.54744385 138.6746875 -184.55578613 137.734375 C-184.474444 132.17920128 -183.84199474 128.80662296 -180 124.5 C-175.72638107 121.17806314 -172.98686159 120.00088154 -167.58389282 120.01898193 C-166.31352173 120.01348328 -165.04315063 120.00798462 -163.73428345 120.00231934 C-162.3392906 120.01647316 -160.94430163 120.03101236 -159.54931641 120.04589844 C-158.07061799 120.04702753 -156.59191733 120.04639184 -155.11322021 120.04412842 C-151.10937335 120.04298275 -147.10600773 120.06646779 -143.10227251 120.09442425 C-138.91426579 120.11946268 -134.72624751 120.12178182 -130.53817749 120.12652588 C-122.61217765 120.1389485 -114.68639902 120.17176038 -106.7604965 120.21192384 C-97.73516736 120.25666381 -88.70982756 120.27863417 -79.6844151 120.29870558 C-61.1228146 120.34049371 -42.56143321 120.41163942 -24 120.5 C-24 112.58 -24 104.66 -24 96.5 C-27.24984238 96.51332367 -27.24984238 96.51332367 -30.56533813 96.5269165 C-50.96001547 96.60862068 -71.35467125 96.66816707 -91.74947548 96.70724869 C-102.23523036 96.72787601 -112.72086516 96.75599995 -123.20654297 96.80175781 C-132.34560774 96.84162027 -141.48458554 96.86743157 -150.62373483 96.87635398 C-155.46310908 96.88156971 -160.30223455 96.89383223 -165.14152908 96.92292023 C-169.69694626 96.95007993 -174.25201229 96.95844386 -178.80750275 96.95243073 C-180.4788364 96.95353071 -182.15018185 96.96148138 -183.82144547 96.9768219 C-186.10564696 96.99675925 -188.38852718 96.99192656 -190.67276001 96.98101807 C-191.95036509 96.98470524 -193.22797016 96.98839241 -194.54429054 96.99219131 C-199.81410985 96.24161916 -202.85933522 93.77861007 -206.34179688 89.875 C-208.58245986 85.31449866 -208.57575828 81.51681423 -208.53125 76.5 C-208.5350769 75.54609375 -208.53890381 74.5921875 -208.54284668 73.609375 C-208.54556036 71.59894755 -208.53823737 69.58848447 -208.52148438 67.578125 C-208.50006709 64.50961213 -208.52130466 61.44344048 -208.546875 58.375 C-208.54423163 56.41666152 -208.53910645 54.4583245 -208.53125 52.5 C-208.53934692 51.58734375 -208.54744385 50.6746875 -208.55578613 49.734375 C-208.474444 44.17920128 -207.84199474 40.80662296 -204 36.5 C-199.43782253 32.87864676 -196.46624659 32.00226191 -190.67276001 32.01898193 C-189.95709535 32.01556423 -189.24143069 32.01214653 -188.50407922 32.00862527 C-186.11770275 32.00206216 -183.73246338 32.02399487 -181.34619141 32.04589844 C-179.63104275 32.04702726 -177.91589216 32.04639237 -176.20074463 32.04412842 C-171.55231795 32.04298171 -166.90430492 32.06648409 -162.25597429 32.09442425 C-157.39531081 32.119445 -152.53463763 32.12178044 -147.67391968 32.12652588 C-138.47295983 32.13895366 -129.2721903 32.17177265 -120.07131422 32.21192384 C-109.59498049 32.25664764 -99.11863762 32.27863013 -88.64223218 32.29870558 C-67.09471527 32.34050541 -45.54736963 32.41085369 -24 32.5 C-24.02094727 31.86497559 -24.04189453 31.22995117 -24.06347656 30.57568359 C-24.14704581 27.67561924 -24.19878774 24.77580884 -24.25 21.875 C-24.28351563 20.87597656 -24.31703125 19.87695312 -24.3515625 18.84765625 C-24.43317933 12.68558543 -24.10678824 9.18971147 -20 4.5 C-14.38621483 -1.03991958 -7.39116829 -0.09087502 0 0 Z M-8 16.5 C-8 164.34 -8 312.18 -8 464.5 C-2.72 464.5 2.56 464.5 8 464.5 C8 316.66 8 168.82 8 16.5 C2.72 16.5 -2.56 16.5 -8 16.5 Z M-192 48.5 C-192 59.06 -192 69.62 -192 80.5 C-136.56 80.5 -81.12 80.5 -24 80.5 C-24 69.94 -24 59.38 -24 48.5 C-79.44 48.5 -134.88 48.5 -192 48.5 Z M24 48.5 C24 59.06 24 69.62 24 80.5 C74.16 80.5 124.32 80.5 176 80.5 C176 69.94 176 59.38 176 48.5 C125.84 48.5 75.68 48.5 24 48.5 Z M-168 136.5 C-168 147.06 -168 157.62 -168 168.5 C-120.48 168.5 -72.96 168.5 -24 168.5 C-24 157.94 -24 147.38 -24 136.5 C-71.52 136.5 -119.04 136.5 -168 136.5 Z M24 136.5 C24 147.06 24 157.62 24 168.5 C63.6 168.5 103.2 168.5 144 168.5 C144 157.94 144 147.38 144 136.5 C104.4 136.5 64.8 136.5 24 136.5 Z M-152 224.5 C-152 235.06 -152 245.62 -152 256.5 C-109.76 256.5 -67.52 256.5 -24 256.5 C-24 245.94 -24 235.38 -24 224.5 C-66.24 224.5 -108.48 224.5 -152 224.5 Z M24 224.5 C24 235.06 24 245.62 24 256.5 C68.88 256.5 113.76 256.5 160 256.5 C160 245.94 160 235.38 160 224.5 C115.12 224.5 70.24 224.5 24 224.5 Z M-192 312.5 C-192 323.06 -192 333.62 -192 344.5 C-136.56 344.5 -81.12 344.5 -24 344.5 C-24 333.94 -24 323.38 -24 312.5 C-79.44 312.5 -134.88 312.5 -192 312.5 Z M24 312.5 C24 323.06 24 333.62 24 344.5 C60.96 344.5 97.92 344.5 136 344.5 C136 333.94 136 323.38 136 312.5 C99.04 312.5 62.08 312.5 24 312.5 Z M-160 400.5 C-160 411.06 -160 421.62 -160 432.5 C-115.12 432.5 -70.24 432.5 -24 432.5 C-24 421.94 -24 411.38 -24 400.5 C-68.88 400.5 -113.76 400.5 -160 400.5 Z M24 400.5 C24 411.06 24 421.62 24 432.5 C74.16 432.5 124.32 432.5 176 432.5 C176 421.94 176 411.38 176 400.5 C125.84 400.5 75.68 400.5 24 400.5 Z " fill="#ff4200" transform="translate(264,15.5)"/>
</svg>
