<?xml version="1.0" standalone="no"?>
<!DOCTYPE svg PUBLIC "-//W3C//DTD SVG 20010904//EN"
 "http://www.w3.org/TR/2001/REC-SVG-20010904/DTD/svg10.dtd">
<svg version="1.0" xmlns="http://www.w3.org/2000/svg"
 width="512.000000pt" height="512.000000pt" viewBox="0 0 512.000000 512.000000"
 preserveAspectRatio="xMidYMid meet">

<g transform="translate(0.000000,512.000000) scale(0.100000,-0.100000)"
fill="#ff4200" stroke="none">
<path d="M466 5024 c-258 -62 -428 -328 -375 -586 38 -181 188 -339 370 -388
109 -30 261 -8 368 52 l54 30 127 -127 128 -127 -67 -80 c-91 -109 -171 -232
-240 -368 -131 -257 -195 -508 -207 -810 -6 -139 -6 -146 15 -172 30 -37 81
-39 109 -3 17 21 20 46 25 187 5 185 29 320 83 487 42 130 133 317 209 430 58
86 164 221 175 221 3 0 79 -74 169 -164 l163 -164 -67 -93 c-113 -157 -193
-344 -232 -537 -24 -120 -24 -384 0 -504 39 -193 119 -380 232 -537 l67 -93
-166 -167 -167 -166 -45 50 c-129 144 -275 408 -340 615 -48 154 -50 159 -78
171 -35 16 -73 3 -91 -30 -13 -27 -12 -37 15 -133 69 -248 202 -499 370 -699
33 -39 60 -74 60 -78 0 -3 -56 -62 -124 -130 l-123 -123 -54 30 c-107 60 -259
82 -368 52 -218 -59 -382 -268 -381 -488 1 -123 60 -264 149 -352 231 -228
596 -188 777 85 97 148 102 353 12 514 l-30 54 123 123 c68 68 127 124 130
124 4 0 39 -27 78 -60 259 -217 566 -358 919 -422 93 -16 158 -21 317 -21 208
0 311 11 479 54 271 69 571 223 773 397 l70 60 127 -127 128 -128 -30 -54
c-89 -159 -85 -362 10 -511 68 -107 203 -201 326 -227 344 -72 663 247 591
591 -26 125 -119 257 -228 327 -148 94 -351 98 -510 9 l-54 -30 -127 127 -128
128 60 71 c147 173 292 434 361 651 156 485 118 997 -107 1450 -72 146 -150
266 -248 383 l-66 80 128 127 127 127 54 -30 c251 -141 569 -43 693 212 57
118 69 216 41 335 -62 263 -327 434 -587 380 -125 -26 -257 -119 -327 -228
-94 -148 -98 -351 -9 -510 l30 -54 -128 -128 -127 -127 -74 63 c-256 219 -590
371 -948 431 -150 26 -462 24 -615 -4 -348 -63 -657 -206 -918 -424 l-80 -66
-127 128 -127 127 30 54 c43 77 64 160 64 249 0 136 -42 238 -139 341 -126
133 -300 186 -477 143z m266 -162 c74 -37 134 -96 170 -170 30 -60 33 -75 33
-157 0 -79 -3 -97 -29 -149 -37 -76 -96 -135 -172 -172 -52 -26 -70 -29 -149
-29 -82 0 -97 3 -157 33 -74 36 -133 96 -170 170 -34 70 -37 196 -7 277 30 80
121 173 199 203 77 30 214 27 282 -6z m3935 6 c81 -30 171 -121 202 -203 30
-81 27 -207 -7 -277 -37 -74 -96 -134 -170 -170 -60 -30 -75 -33 -157 -33 -79
0 -97 3 -149 29 -244 120 -277 445 -61 608 67 51 115 66 207 67 56 1 93 -5
135 -21z m-1763 -547 c290 -59 571 -192 798 -379 37 -31 68 -59 68 -62 0 -3
-64 -69 -142 -147 l-143 -142 -80 59 c-160 118 -376 211 -570 244 -116 20
-345 21 -459 1 -231 -40 -467 -151 -639 -298 l-59 -50 -164 164 c-90 90 -164
167 -164 170 0 4 36 35 80 70 266 211 537 331 865 384 138 22 467 14 609 -14z
m1041 -623 c193 -242 317 -504 377 -800 20 -98 23 -143 23 -338 0 -195 -3
-240 -23 -338 -64 -316 -194 -582 -416 -847 l-25 -30 -145 145 -146 144 29 31
c90 94 199 278 254 425 60 162 81 280 81 470 0 193 -21 310 -84 478 -55 146
-179 351 -256 423 l-25 23 143 143 c79 79 146 143 149 143 3 0 32 -33 64 -72z
m-1415 -513 l0 -555 -251 0 -252 0 7 100 c26 378 149 721 321 895 59 60 139
115 168 115 4 0 7 -250 7 -555z m243 513 c204 -129 370 -530 403 -975 l7 -93
-252 0 -251 0 0 556 0 555 23 -6 c12 -4 43 -21 70 -37z m-575 -27 c-95 -112
-188 -314 -244 -528 -33 -132 -64 -325 -64 -407 0 -24 -3 -58 -6 -75 l-6 -31
-239 0 -239 0 0 34 c0 19 7 71 16 117 66 347 271 639 575 820 64 38 214 109
232 109 5 0 -6 -18 -25 -39z m863 9 c407 -168 701 -556 745 -984 l7 -66 -244
2 -244 3 -7 114 c-21 335 -137 697 -287 895 -28 36 -49 66 -47 66 2 0 36 -14
77 -30z m-1177 -1221 c3 -17 6 -51 6 -75 0 -82 31 -275 64 -407 56 -215 149
-416 245 -529 33 -38 33 -40 10 -33 -13 4 -65 26 -115 50 -355 166 -605 489
-679 876 -8 44 -15 96 -15 115 l0 34 239 0 239 0 6 -31z m646 -525 l0 -555
-22 6 c-45 14 -119 68 -171 125 -160 177 -278 521 -303 880 l-7 100 252 0 251
0 0 -556z m646 464 c-28 -373 -145 -711 -310 -895 -46 -51 -121 -105 -163
-118 l-23 -6 0 555 0 556 251 0 252 0 -7 -92z m630 26 c-38 -372 -277 -733
-609 -918 -51 -29 -200 -96 -213 -96 -2 0 19 30 47 66 149 197 268 567 285
883 3 58 7 112 10 119 2 9 60 12 245 12 l242 0 -7 -66z m-2068 -903 c171 -146
406 -255 637 -295 115 -20 332 -20 455 -1 194 32 417 127 576 246 l79 59 142
-142 c79 -79 143 -146 143 -149 0 -11 -143 -121 -242 -186 -182 -120 -403
-209 -630 -255 -98 -20 -143 -23 -338 -23 -253 0 -358 15 -561 81 -198 64
-471 218 -613 346 l-41 37 165 165 c91 91 166 166 168 166 2 0 29 -22 60 -49z
m-1002 -616 c74 -36 133 -95 170 -171 26 -52 29 -70 29 -149 0 -82 -3 -97 -33
-157 -36 -74 -96 -133 -170 -170 -70 -34 -196 -37 -277 -7 -82 31 -173 121
-203 202 -26 70 -29 182 -7 248 33 96 132 191 234 224 73 23 186 15 257 -20z
m3958 -4 c72 -35 132 -95 168 -169 34 -70 37 -196 7 -277 -31 -83 -121 -173
-204 -204 -81 -30 -207 -27 -277 7 -73 36 -134 96 -169 167 -96 196 -3 423
206 498 78 28 186 19 269 -22z"/>
</g>
</svg>
