<?xml version="1.0" standalone="no"?>
<!DOCTYPE svg PUBLIC "-//W3C//DTD SVG 20010904//EN"
 "http://www.w3.org/TR/2001/REC-SVG-20010904/DTD/svg10.dtd">
<svg version="1.0" xmlns="http://www.w3.org/2000/svg"
 width="512.000000pt" height="512.000000pt" viewBox="0 0 512.000000 512.000000"
 preserveAspectRatio="xMidYMid meet">

<g transform="translate(0.000000,512.000000) scale(0.100000,-0.100000)"
fill="#ff4200" stroke="none">
<path d="M2286 4998 c-7 -13 -26 -104 -40 -203 -15 -99 -29 -194 -32 -212 -6
-31 -9 -33 -83 -49 -209 -45 -456 -146 -637 -260 -78 -49 -91 -54 -109 -44
-11 7 -93 66 -181 131 -97 72 -171 119 -185 119 -33 0 -379 -346 -379 -379 0
-14 47 -88 119 -185 65 -88 124 -170 131 -181 11 -18 6 -30 -40 -100 -107
-164 -208 -405 -255 -614 -13 -57 -25 -105 -27 -106 -2 -2 -98 -18 -213 -36
-116 -17 -220 -38 -233 -46 -22 -13 -22 -15 -22 -273 0 -258 0 -260 23 -273
12 -8 103 -26 202 -41 99 -15 194 -29 211 -32 31 -6 32 -8 54 -102 49 -211
144 -441 255 -617 50 -78 55 -92 45 -110 -7 -11 -66 -93 -131 -181 -71 -96
-119 -171 -119 -185 0 -33 345 -379 378 -379 15 0 92 50 204 132 150 109 183
130 197 120 190 -131 456 -247 694 -302 53 -12 97 -25 97 -29 -1 -40 66 -422
76 -438 14 -23 16 -23 274 -23 258 0 260 0 274 23 7 12 28 116 45 231 17 116
33 211 34 212 1 1 61 16 132 34 214 53 450 155 608 262 71 48 41 60 263 -103
99 -73 170 -119 185 -119 35 0 379 345 379 380 0 16 -46 86 -130 200 -72 96
-130 178 -130 183 0 4 18 34 39 66 106 156 209 394 261 606 18 72 33 131 34
132 1 1 96 16 211 34 116 17 220 37 233 45 22 14 22 16 22 274 0 258 0 260
-22 274 -17 10 -399 77 -439 76 -4 0 -17 44 -29 98 -49 211 -144 440 -255 617
-50 79 -55 92 -44 110 6 11 65 93 130 181 73 98 119 170 119 185 0 33 -346
379 -378 379 -13 0 -91 -50 -185 -119 -89 -65 -171 -124 -182 -130 -18 -11
-31 -6 -110 44 -177 111 -406 206 -617 255 -54 12 -98 25 -98 27 0 43 -66 424
-76 441 -14 22 -16 22 -274 22 -258 0 -260 0 -274 -22z m454 -95 c3 -53 69
-436 77 -444 6 -6 64 -22 129 -36 235 -49 454 -140 649 -267 56 -36 111 -66
125 -66 16 0 84 44 195 125 94 69 173 124 177 122 4 -1 62 -53 128 -116 80
-75 120 -120 117 -130 -2 -9 -59 -91 -125 -182 -76 -103 -122 -175 -122 -190
0 -13 23 -58 50 -99 121 -180 210 -379 265 -596 19 -74 35 -146 35 -159 0 -44
37 -59 196 -83 82 -13 177 -28 212 -34 l62 -10 0 -179 c0 -98 -3 -179 -7 -179
-5 -1 -104 -16 -222 -34 -226 -35 -241 -40 -241 -92 0 -12 -15 -82 -34 -156
-55 -220 -139 -409 -262 -592 -30 -45 -54 -92 -54 -106 0 -16 44 -85 125 -194
69 -94 125 -175 125 -181 0 -20 -238 -248 -253 -242 -8 3 -88 60 -179 126 -95
69 -175 121 -188 121 -12 0 -60 -25 -107 -56 -219 -146 -460 -240 -769 -300
-31 -6 -41 -38 -69 -229 -14 -93 -28 -185 -31 -202 l-6 -33 -178 0 -178 0 -5
33 c-4 17 -18 113 -33 212 -31 206 -37 219 -112 230 -83 11 -270 64 -375 106
-120 48 -241 111 -353 185 -44 30 -91 54 -105 54 -15 0 -76 -39 -159 -100 -74
-56 -152 -112 -173 -127 l-38 -27 -125 125 c-68 68 -124 126 -124 129 0 3 56
82 125 175 81 110 125 179 125 195 0 14 -23 59 -50 100 -144 213 -265 514
-296 734 -4 27 -14 56 -23 65 -12 12 -72 25 -207 45 -104 16 -201 30 -217 33
l-27 6 0 178 c0 99 3 179 8 179 40 1 436 70 443 77 6 6 21 61 34 123 54 253
143 466 282 675 29 44 53 91 53 104 0 15 -45 85 -118 185 -65 89 -122 167
-126 175 -6 9 27 49 115 137 68 68 126 124 129 124 3 0 82 -56 175 -125 111
-82 179 -125 195 -125 14 0 70 30 125 66 193 125 401 212 639 264 71 16 134
34 139 39 8 8 76 401 77 444 0 4 81 7 180 7 99 0 180 -3 180 -7z"/>
<path d="M2343 4021 c-52 -9 -73 -26 -73 -61 0 -46 29 -63 96 -55 86 11 120
59 74 105 -21 21 -29 22 -97 11z"/>
<path d="M2592 4018 c-19 -19 -15 -76 6 -87 9 -5 42 -12 73 -16 50 -6 60 -4
78 14 26 26 27 55 1 81 -16 16 -33 20 -83 20 -36 0 -68 -5 -75 -12z"/>
<path d="M2895 3960 c-40 -44 10 -97 100 -108 47 -5 75 14 75 52 0 59 -134
101 -175 56z"/>
<path d="M2046 3944 c-70 -25 -91 -58 -66 -105 14 -25 61 -25 117 0 50 23 67
50 54 84 -15 39 -42 45 -105 21z"/>
<path d="M3187 3852 c-34 -37 -19 -73 44 -110 47 -28 95 -29 109 -1 20 36 7
62 -44 97 -55 36 -85 40 -109 14z"/>
<path d="M1752 3794 c-50 -33 -53 -38 -50 -72 4 -49 42 -65 91 -39 83 46 103
82 63 122 -14 14 -31 25 -38 25 -7 0 -37 -16 -66 -36z"/>
<path d="M3463 3689 c-56 -21 -49 -75 15 -126 48 -39 84 -42 106 -11 22 32 20
42 -15 83 -41 46 -77 65 -106 54z"/>
<path d="M1515 3599 c-53 -49 -65 -81 -40 -109 29 -32 64 -25 112 22 50 49 57
87 21 112 -33 23 -44 20 -93 -25z"/>
<path d="M3657 3452 c-25 -27 -21 -58 13 -108 33 -47 66 -62 98 -45 43 23 35
70 -24 140 -29 35 -63 40 -87 13z"/>
<path d="M1330 3370 c-39 -42 -55 -86 -44 -118 8 -22 17 -28 46 -30 35 -3 39
0 67 45 35 55 39 93 13 116 -27 25 -50 21 -82 -13z"/>
<path d="M2850 3350 c-11 -11 -20 -29 -20 -40 0 -11 9 -29 20 -40 18 -18 33
-20 167 -20 l148 0 -255 -255 c-168 -168 -260 -253 -270 -250 -34 14 -98 16
-137 6 -178 -48 -192 -304 -21 -376 107 -44 233 13 268 121 12 34 9 103 -5
149 -5 16 43 69 250 275 l255 255 0 -151 c0 -164 6 -186 53 -186 56 0 57 3 57
262 0 217 -2 238 -18 253 -16 15 -48 17 -245 17 -214 0 -228 -1 -247 -20z"/>
<path d="M3810 3185 c-19 -23 -15 -59 11 -112 20 -40 29 -48 55 -51 35 -3 64
18 64 47 0 25 -28 92 -48 114 -19 21 -65 22 -82 2z"/>
<path d="M1197 3105 c-22 -22 -50 -111 -42 -135 11 -33 54 -45 84 -22 44 33
65 126 35 156 -20 20 -58 21 -77 1z"/>
<path d="M3909 2889 c-18 -18 -20 -28 -14 -72 9 -68 28 -97 64 -97 45 0 65 30
56 87 -14 97 -57 131 -106 82z"/>
<path d="M1118 2803 c-9 -10 -19 -44 -23 -76 -6 -48 -4 -61 10 -77 21 -23 53
-26 79 -7 22 16 37 118 22 150 -15 29 -66 35 -88 10z"/>
<path d="M3942 2584 c-19 -13 -22 -24 -22 -79 0 -69 15 -95 53 -95 37 0 49 16
58 71 10 63 3 96 -21 109 -26 14 -42 12 -68 -6z"/>
<path d="M1105 2493 c-23 -22 -15 -125 11 -154 22 -25 56 -24 79 1 14 16 17
31 12 80 -3 34 -11 67 -17 75 -17 20 -65 19 -85 -2z"/>
<path d="M3897 2268 c-8 -13 -20 -44 -27 -69 -14 -55 -3 -85 34 -95 40 -10 63
11 81 73 15 50 15 61 3 83 -19 35 -71 40 -91 8z"/>
<path d="M1168 2193 c-27 -32 -28 -40 -11 -89 26 -79 55 -100 104 -74 50 27
-1 180 -61 180 -9 0 -24 -8 -32 -17z"/>
<path d="M3793 1976 c-10 -13 -27 -42 -37 -64 -18 -39 -18 -43 -2 -67 20 -30
65 -34 88 -7 27 29 48 80 48 111 0 52 -64 70 -97 27z"/>
<path d="M1282 1908 c-29 -29 8 -129 61 -162 25 -16 71 12 75 46 3 25 -37 104
-62 120 -17 12 -61 9 -74 -4z"/>
<path d="M3618 1703 c-64 -68 -69 -106 -17 -133 30 -16 53 -5 93 47 41 53 44
75 16 103 -29 29 -51 25 -92 -17z"/>
<path d="M1466 1654 c-29 -28 -19 -66 27 -112 44 -43 71 -51 99 -29 33 25 30
52 -8 98 -20 24 -41 47 -48 51 -19 13 -54 9 -70 -8z"/>
</g>
</svg>
