<?xml version="1.0" encoding="UTF-8"?>
<!DOCTYPE svg PUBLIC "-//W3C//DTD SVG 1.1//EN" "http://www.w3.org/Graphics/SVG/1.1/DTD/svg11.dtd">
<svg xmlns="http://www.w3.org/2000/svg" version="1.1" width="512px" height="512px" style="shape-rendering:geometricPrecision; text-rendering:geometricPrecision; image-rendering:optimizeQuality; fill-rule:evenodd; clip-rule:evenodd" xmlns:xlink="http://www.w3.org/1999/xlink">
<g><path style="opacity:0.928" fill="#ff4200" d="M 208.5,30.5 C 288.333,32.3071 345.5,68.9737 380,140.5C 394.879,176.933 397.879,214.266 389,252.5C 381.377,258.812 375.877,257.312 372.5,248C 385.126,178.952 364.126,122.619 309.5,79C 251.972,41.0821 192.639,38.0821 131.5,70C 74.7206,106.052 47.8873,157.885 51,225.5C 59.6614,291.859 94.6614,338.192 156,364.5C 159.903,371.898 157.903,376.898 150,379.5C 87.258,354.079 49.258,308.079 36,241.5C 26.2967,164.195 53.13,103.361 116.5,59C 144.852,41.7141 175.518,32.2141 208.5,30.5 Z M 211.5,130.5 C 228.576,131.577 238.243,140.577 240.5,157.5C 237.179,178.328 225.179,186.828 204.5,183C 186.617,173.302 182.45,159.468 192,141.5C 197.341,135.584 203.841,131.918 211.5,130.5 Z"/></g>
<g><path style="opacity:0.949" fill="#ff4200" d="M 200.5,71.5 C 255.965,68.9841 299.465,90.3175 331,135.5C 353.307,172.287 358.307,211.287 346,252.5C 342.743,255.428 338.909,256.262 334.5,255C 332.951,253.786 331.785,252.286 331,250.5C 333.415,237.495 334.915,224.328 335.5,211C 333.511,161.999 311.178,125.665 268.5,102C 217.913,79.7105 171.58,86.3772 129.5,122C 91.4406,161.759 81.9406,207.592 101,259.5C 107.322,273.813 115.989,286.48 127,297.5C 127.534,261.234 143.701,234.734 175.5,218C 179.683,216.204 184.016,214.871 188.5,214C 196.715,214.04 204.882,214.873 213,216.5C 220.314,215.955 227.481,214.622 234.5,212.5C 265.678,221.012 286.012,240.679 295.5,271.5C 345.834,271.333 396.168,271.5 446.5,272C 465.678,277.181 476.178,289.681 478,309.5C 478.667,353.5 478.667,397.5 478,441.5C 476.178,461.319 465.678,473.819 446.5,479C 365.833,479.667 285.167,479.667 204.5,479C 188.333,474.833 178.167,464.667 174,448.5C 173.019,398.455 173.352,348.455 175,298.5C 179.5,286 188,277.5 200.5,273C 226.451,271.703 252.451,271.036 278.5,271C 269.816,250.742 254.983,237.242 234,230.5C 220,234.5 206,234.5 192,230.5C 162.022,241.776 146.189,263.443 144.5,295.5C 143.771,302.478 145.105,308.978 148.5,315C 153.827,316.156 156.827,319.322 157.5,324.5C 157.658,330.009 154.991,333.009 149.5,333.5C 144.941,332.221 140.608,330.388 136.5,328C 90.1605,294.805 69.6605,249.639 75,192.5C 83.7572,138.116 113.591,100.616 164.5,80C 176.349,75.9349 188.349,73.1015 200.5,71.5 Z M 211.5,130.5 C 203.841,131.918 197.341,135.584 192,141.5C 182.45,159.468 186.617,173.302 204.5,183C 225.179,186.828 237.179,178.328 240.5,157.5C 238.243,140.577 228.576,131.577 211.5,130.5 Z M 213.5,287.5 C 288.167,287.333 362.834,287.5 437.5,288C 448.795,288.963 456.295,294.796 460,305.5C 460.667,352.167 460.667,398.833 460,445.5C 456.295,456.204 448.795,462.037 437.5,463C 362.833,463.667 288.167,463.667 213.5,463C 200.457,462.071 192.623,455.238 190,442.5C 189.333,397.833 189.333,353.167 190,308.5C 192.858,295.836 200.691,288.836 213.5,287.5 Z M 284.5,324.5 C 292.518,326.09 294.684,330.423 291,337.5C 282.378,341.53 278.378,338.863 279,329.5C 280.107,326.887 281.94,325.22 284.5,324.5 Z M 366.5,372.5 C 371.691,372.69 374.691,375.357 375.5,380.5C 373.253,386.628 369.253,388.295 363.5,385.5C 359.01,379.953 360.01,375.619 366.5,372.5 Z M 299.5,420.5 C 306.649,420.817 309.483,424.484 308,431.5C 304.93,435.707 301.097,436.54 296.5,434C 292.588,428.542 293.588,424.042 299.5,420.5 Z"/></g>
<g><path style="opacity:0.929" fill="#ff4200" d="M 211.5,113.5 C 239.798,114.965 255.131,129.798 257.5,158C 254.931,184.736 240.264,199.236 213.5,201.5C 186.551,199.217 171.884,184.551 169.5,157.5C 170.132,140.394 177.798,127.561 192.5,119C 198.645,116.052 204.978,114.219 211.5,113.5 Z M 211.5,130.5 C 203.841,131.918 197.341,135.584 192,141.5C 182.45,159.468 186.617,173.302 204.5,183C 225.179,186.828 237.179,178.328 240.5,157.5C 238.243,140.577 228.576,131.577 211.5,130.5 Z"/></g>
<g><path style="opacity:0.937" fill="#ff4200" d="M 278.5,308.5 C 292.09,306.129 302.09,310.963 308.5,323C 346.5,323.333 384.5,323.667 422.5,324C 428.964,325.756 431.13,329.923 429,336.5C 427.833,337.667 426.667,338.833 425.5,340C 386.5,340.333 347.5,340.667 308.5,341C 299.562,356.975 286.895,360.642 270.5,352C 266.984,349.129 264.317,345.629 262.5,341.5C 250.18,340.667 237.847,340.167 225.5,340C 222.484,338.471 221.151,335.971 221.5,332.5C 221.118,327.43 223.452,324.597 228.5,324C 239.833,323.667 251.167,323.333 262.5,323C 266.157,316.169 271.491,311.336 278.5,308.5 Z M 284.5,324.5 C 281.94,325.22 280.107,326.887 279,329.5C 278.378,338.863 282.378,341.53 291,337.5C 294.684,330.423 292.518,326.09 284.5,324.5 Z"/></g>
<g><path style="opacity:0.937" fill="#ff4200" d="M 364.5,355.5 C 376.534,354.845 385.201,359.845 390.5,370.5C 401.485,371.332 412.485,371.832 423.5,372C 429.095,374.354 430.928,378.521 429,384.5C 427.833,385.667 426.667,386.833 425.5,388C 413.819,388.167 402.152,388.667 390.5,389.5C 384.92,400.624 375.92,405.457 363.5,404C 354.971,402.304 348.971,397.471 345.5,389.5C 305.504,388.667 265.504,388.167 225.5,388C 220.547,383.357 220.213,378.357 224.5,373C 225.5,372.667 226.5,372.333 227.5,372C 266.838,371.833 306.171,371.333 345.5,370.5C 349.466,362.367 355.799,357.367 364.5,355.5 Z M 366.5,372.5 C 360.01,375.619 359.01,379.953 363.5,385.5C 369.253,388.295 373.253,386.628 375.5,380.5C 374.691,375.357 371.691,372.69 366.5,372.5 Z"/></g>
<g><path style="opacity:0.938" fill="#ff4200" d="M 294.5,404.5 C 308.09,402.129 318.09,406.963 324.5,419C 357.5,419.333 390.5,419.667 423.5,420C 429.095,422.354 430.928,426.521 429,432.5C 427.833,433.667 426.667,434.833 425.5,436C 391.828,436.167 358.162,436.667 324.5,437.5C 318.646,448.928 309.313,453.761 296.5,452C 287.775,450.275 281.775,445.275 278.5,437C 260.833,436.667 243.167,436.333 225.5,436C 221.212,432.229 220.379,427.729 223,422.5C 224.171,421.107 225.671,420.273 227.5,420C 244.5,419.667 261.5,419.333 278.5,419C 282.157,412.169 287.491,407.336 294.5,404.5 Z M 299.5,420.5 C 293.588,424.042 292.588,428.542 296.5,434C 301.097,436.54 304.93,435.707 308,431.5C 309.483,424.484 306.649,420.817 299.5,420.5 Z"/></g>
</svg>
