<?xml version="1.0" encoding="UTF-8"?>
<svg version="1.1" xmlns="http://www.w3.org/2000/svg" width="512" height="512">
<path d="M0 0 C23.55054002 20.35993542 39.30072968 45.47469844 47.25 75.5625 C47.73146484 77.33947266 47.73146484 77.33947266 48.22265625 79.15234375 C56.5032582 116.47282418 48.08194558 155.7587656 27.9375 187.75 C7.957483 218.4761201 -22.56068927 239.26539855 -57.75 248.5625 C-59.52697266 249.04396484 -59.52697266 249.04396484 -61.33984375 249.53515625 C-82.54215334 254.23948707 -107.95706931 253.63403576 -128.75 247.5625 C-129.89178711 247.24104004 -129.89178711 247.24104004 -131.05664062 246.91308594 C-154.83801285 240.07718522 -174.7102651 227.33734531 -192.75 210.5625 C-193.36746094 209.99917969 -193.98492187 209.43585938 -194.62109375 208.85546875 C-200.34716858 203.42032613 -209.1848318 194.76204747 -210.0625 186.6875 C-209.75 183.5625 -209.75 183.5625 -208.125 181.25 C-205.19063211 179.16505439 -203.3478095 178.63592468 -199.75 178.5625 C-195.28931933 180.64027634 -192.85309647 183.71419862 -190.0625 187.625 C-171.23306459 212.85960216 -142.34444243 228.53773504 -111.57421875 234.03125 C-77.19775427 238.80673434 -42.99471168 230.48211243 -15.22802734 209.51733398 C-3.41307371 200.32989459 5.86208704 189.90163241 14.25 177.5625 C14.8996875 176.60859375 15.549375 175.6546875 16.21875 174.671875 C33.25196513 147.57357821 38.04262954 112.28408604 31.0847168 81.2800293 C22.56418656 47.20148989 1.33231697 18.68475124 -28.75 0.5625 C-57.42743128 -15.90830616 -91.616867 -20.52101697 -123.625 -12.1875 C-154.82826135 -3.51439927 -179.58009411 14.83345837 -197.75 41.5625 C-198.3996875 42.51640625 -199.049375 43.4703125 -199.71875 44.453125 C-216.37519924 70.95202151 -221.57860436 105.97517872 -214.9375 136.4375 C-213.7428949 141.58515138 -212.11868868 146.53541601 -210.31713867 151.50097656 C-209.2231391 155.47761557 -209.85595991 158.9321916 -211.8125 162.5 C-214.94027986 164.21523412 -218.33705202 164.39444701 -221.75 163.5625 C-225.69482424 160.58916233 -226.98032043 156.96837741 -228.3125 152.375 C-228.52156982 151.66069824 -228.73063965 150.94639648 -228.94604492 150.21044922 C-229.57245684 148.00046603 -230.16589604 145.78400193 -230.75 143.5625 C-231.07484375 142.36238281 -231.3996875 141.16226563 -231.734375 139.92578125 C-239.99874296 102.61917681 -231.57253486 63.35128932 -211.4375 31.375 C-191.457483 0.6488799 -160.93931073 -20.14039855 -125.75 -29.4375 C-124.56535156 -29.75847656 -123.38070312 -30.07945313 -122.16015625 -30.41015625 C-79.57834604 -39.85813272 -33.19884566 -27.9540928 0 0 Z " fill="#ff4200" transform="translate(347.75,91.4375)"/>
<path d="M0 0 C1.21121521 -0.01475876 1.21121521 -0.01475876 2.44689941 -0.02981567 C20.69143166 -0.20621067 38.40239339 -0.02909191 56.25 4.23828125 C57.23774414 4.47434082 58.22548828 4.71040039 59.24316406 4.95361328 C92.01259421 13.10131866 121.02457874 28.96657688 146.25 51.23828125 C147.09433594 51.96015625 147.93867188 52.68203125 148.80859375 53.42578125 C153.75991234 57.70078145 158.05100928 62.23342363 162.25 67.23828125 C163.08402344 68.18445313 163.91804688 69.130625 164.77734375 70.10546875 C199.40015466 109.58989166 215.75204619 162.27377824 212.92993164 214.4387207 C210.56397536 248.07730296 200.87213286 280.96743914 186.25 311.23828125 C185.92032227 311.92792969 185.59064453 312.61757813 185.25097656 313.328125 C183.33903777 317.31116907 181.36216367 321.25526901 179.32324219 325.17480469 C178.59435141 326.57621162 177.87123488 327.9806339 177.15332031 329.38769531 C165.91669191 351.2957679 151.76023462 372.18296551 136.57373047 391.54980469 C135.20601468 393.29438647 133.85423882 395.05053244 132.50390625 396.80859375 C127.76713122 402.94386118 122.88735357 408.95099646 117.875 414.86328125 C117.38708984 415.44352051 116.89917969 416.02375977 116.39648438 416.62158203 C113.60321933 419.87879034 110.83716807 422.82520273 107.25 425.23828125 C103.78241058 425.17849523 101.36173251 424.84794102 98.3125 423.17578125 C96.4285592 419.7403598 96.22764826 416.92736977 97.25 413.23828125 C99.43221265 409.8418631 102.06953075 406.90838497 104.76513672 403.91064453 C149.69458965 353.30775854 195.03115435 281.85189457 195.453125 211.8125 C195.46013931 211.03145905 195.46715363 210.25041809 195.47438049 209.44570923 C195.49179225 206.9390073 195.49823267 204.43254143 195.5 201.92578125 C195.50067474 201.07035736 195.50134949 200.21493347 195.50204468 199.33358765 C195.48661554 187.04636801 195.13262358 175.23408093 192.25 163.23828125 C192.08371094 162.48740234 191.91742188 161.73652344 191.74609375 160.96289062 C185.97837227 135.0935917 174.5449712 110.15822777 158.25 89.23828125 C157.26386719 87.91957031 157.26386719 87.91957031 156.2578125 86.57421875 C127.84158282 49.97588402 84.21473553 24.53015544 38.25 18.23828125 C-7.51733985 12.73200006 -55.75366815 21.12986471 -93.49609375 48.9765625 C-97.12703865 51.50035253 -99.35660246 52.15538696 -103.75 52.23828125 C-106.39816011 51.45099041 -107.37884529 50.71548016 -109.0625 48.55078125 C-110.15606175 44.87243719 -109.93692405 42.92399279 -108.75 39.23828125 C-85.15224887 12.83868632 -33.59653339 0.34008428 0 0 Z " fill="#ff4200" transform="translate(244.75,-0.23828125)"/>
<path d="M0 0 C2.375 1.0625 2.375 1.0625 4 3 C5.125 6.1875 5.125 6.1875 5 10 C3.00439234 13.87856005 -0.00663729 16.94992958 -2.984375 20.09765625 C-10.4268911 28.01551554 -16.21951285 36.82380986 -22 46 C-22.586604 46.9288501 -22.586604 46.9288501 -23.18505859 47.87646484 C-50.07287937 91.05550039 -53.7628681 143.15646263 -42.71875 191.796875 C-37.12423407 215.11167635 -27.75149724 236.64727104 -17 258 C-16.60844727 258.78955078 -16.21689453 259.57910156 -15.81347656 260.39257812 C4.32887417 300.8944478 34.21842281 337.30174839 65.15283203 370.03515625 C67.07073993 372.07524649 68.97240587 374.12951825 70.87109375 376.1875 C76.93381672 382.74321387 82.9865782 389.12306052 89.734375 394.98828125 C92.12969629 397.11516136 94.3774253 399.34302365 96.625 401.625 C99.93523669 404.97581752 103.33982654 408.12966347 106.9140625 411.1953125 C109.25025501 413.21651276 111.52964851 415.29378839 113.8125 417.375 C120.63945699 423.53822506 127.81670101 429.26109865 135 435 C140.73209972 432.43772501 145.23858196 428.01014644 150 424 C150.53979492 423.54802246 151.07958984 423.09604492 151.63574219 422.63037109 C166.18235529 410.42875033 179.78721079 397.35011142 193.11938477 383.84399414 C194.41573853 382.53483032 194.41573853 382.53483032 195.73828125 381.19921875 C196.51212158 380.41377686 197.28596191 379.62833496 198.08325195 378.8190918 C201.20686393 375.85462449 203.71261148 375.58955101 208.01953125 375.66015625 C210 376 210 376 212.5625 378.0625 C214.53869207 382.10080554 214.44942473 383.72419703 213 388 C211.14833623 390.21170951 209.16721095 392.13883033 207.046875 394.09375 C204.81262361 396.08792034 204.81262361 396.08792034 202.5 399.0625 C199.9624618 402.04410738 197.27650922 404.42036669 194.3046875 406.94921875 C191.59372479 409.36151608 189.04550176 411.91646 186.5 414.5 C182.16205203 418.88425274 177.69177561 422.99980941 173 427 C171.89862633 427.96357277 170.79848094 428.92855036 169.69921875 429.89453125 C163.13547738 435.6492109 156.50159542 441.29292443 149.6875 446.75 C149.0473999 447.26328857 148.4072998 447.77657715 147.74780273 448.30541992 C142.96237911 452.10738605 140.09188349 453.73145904 133.96484375 453.65234375 C127.58988675 452.24968523 122.80611445 447.18623261 118 443 C116.8051045 441.99144935 115.60847181 440.98495344 114.41015625 439.98046875 C108.29011842 434.82269581 102.2919595 429.52929601 96.3671875 424.1484375 C94.73403525 422.66620361 93.09288501 421.19275088 91.4453125 419.7265625 C86.87375099 415.65523265 82.43005109 411.52424652 78.1796875 407.1171875 C76.25084501 405.24365232 74.27186892 403.50581555 72.23046875 401.7578125 C68.00797651 398.08875371 64.2143284 394.12017643 60.4375 390 C56.23214771 385.44092649 51.99940101 380.93990685 47.57495117 376.59179688 C44.55437811 373.53891572 41.80039816 370.25340374 39 367 C38.04240391 365.90560447 37.08400243 364.81191339 36.125 363.71875 C23.27080629 349.03641306 11.23324032 333.96095059 0 318 C-0.47147461 317.33532715 -0.94294922 316.6706543 -1.42871094 315.98583984 C-15.40190395 296.25577065 -27.20075237 275.62383711 -38 254 C-38.37882324 253.25024902 -38.75764648 252.50049805 -39.14794922 251.72802734 C-66.31616277 197.70513205 -74.09429376 134.6665523 -55.3125 76.8125 C-46.65480493 51.40547901 -33.42442631 29.31840677 -16 9 C-15.23945312 8.09765625 -14.47890625 7.1953125 -13.6953125 6.265625 C-9.18912972 0.99283021 -7.30472559 -0.50377418 0 0 Z " fill="#ff4200" transform="translate(120,59)"/>
<path d="M0 0 C16.99747205 12.01392003 26.40459156 27.88577686 30.984375 48.109375 C32.763061 58.57526656 32.23091607 68.73765183 26.59375 77.97265625 C21.62466329 84.56996312 15.95213191 88.8258962 7.984375 91.109375 C5.15471675 91.49945342 2.37742487 91.53076327 -0.47607422 91.51342773 C-1.68268204 91.52372261 -1.68268204 91.52372261 -2.91366577 91.53422546 C-5.5493988 91.55239383 -8.18453082 91.54866992 -10.8203125 91.54296875 C-12.66822501 91.54753574 -14.51613581 91.55284284 -16.36404419 91.55885315 C-20.22893186 91.56776502 -24.0936127 91.56538357 -27.95849609 91.55541992 C-32.889964 91.54394005 -37.82071478 91.5641365 -42.75208855 91.59333706 C-46.5664619 91.61176194 -50.38066545 91.61139399 -54.19507217 91.60569954 C-56.01218801 91.60554705 -57.82931589 91.61153068 -59.64638901 91.62399101 C-70.69385618 91.68907662 -79.07043776 91.12214985 -88.828125 85.484375 C-98.16577528 75.34635469 -97.60353803 62.87801023 -97.19482422 49.97607422 C-96.11595875 32.71716647 -87.07688463 17.44023052 -74.640625 5.859375 C-53.55350394 -12.05023467 -23.58598122 -14.60084552 0 0 Z M-71.078125 25.5078125 C-74.04365496 29.48975394 -76.20230481 33.49429733 -78.015625 38.109375 C-78.33402344 38.91503906 -78.65242188 39.72070312 -78.98046875 40.55078125 C-80.94974816 46.49491956 -81.31760541 52.27334154 -81.390625 58.484375 C-81.40456299 59.2578125 -81.41850098 60.03125 -81.43286133 60.828125 C-81.38629181 66.38259853 -80.27574667 69.76554512 -76.328125 73.859375 C-69.184877 77.72059014 -58.9911139 76.29120827 -51.11328125 76.3125 C-50.40370207 76.31532738 -49.69412289 76.31815475 -48.96304131 76.32106781 C-45.21144117 76.33598033 -41.45987874 76.34526118 -37.70825195 76.34960938 C-33.85744826 76.35509789 -30.00699741 76.37915652 -26.15630436 76.40758133 C-23.17153438 76.42629864 -20.18684815 76.43141801 -17.20202446 76.43294525 C-15.78319802 76.43594928 -14.36437226 76.44390065 -12.94560432 76.45713043 C-0.3809496 76.90517744 -0.3809496 76.90517744 10.59361267 71.6572876 C15.7823381 65.64908 15.62817375 59.80952739 15.20654297 52.21142578 C13.80192142 38.92154498 6.3505377 25.49910979 -4.015625 17.109375 C-26.24604705 0.89265375 -53.03709299 4.18073537 -71.078125 25.5078125 Z " fill="#ff4200" transform="translate(289.015625,206.890625)"/>
<path d="M0 0 C0.87406494 0.00684814 1.74812988 0.01369629 2.64868164 0.02075195 C10.99916998 0.22782731 17.54278618 1.76839951 24.3125 6.8125 C26.125 9.4375 26.125 9.4375 26.6875 12.4375 C25.96702557 16.2800303 25.11597304 17.89517292 22.125 20.4375 C17.50998379 21.04274803 15.19071248 20.94904199 11 18.9375 C4.72823541 15.95231228 -3.22541542 16.3693289 -9.7578125 18.28125 C-17.28642303 21.68869452 -22.87754035 27.08920427 -25.8125 34.875 C-27.95487663 42.6327986 -27.57790845 50.21807111 -23.875 57.4375 C-19.5085136 63.80273018 -14.54097295 68.69575428 -6.875 70.4375 C2.13258558 71.53572849 9.69315924 70.90521141 17.125 65.4375 C24.06251877 59.39344956 26.86517106 52.6754394 27.5625 43.625 C27.8384289 40.58447583 28.04921899 39.54976817 29.8125 36.9375 C32.72199804 35.05025803 34.65297325 34.50835769 38.125 34.4375 C42.69021739 36.56793478 42.69021739 36.56793478 44.125 39.4375 C45.35501939 50.50767449 42.39755386 61.40677036 35.8125 70.37890625 C30.08995979 77.35987544 24.55518128 82.02842983 16.125 85.4375 C15.23425781 85.80359375 14.34351563 86.1696875 13.42578125 86.546875 C2.79262226 89.41594038 -11.24633464 88.93494745 -20.875 83.4375 C-32.38412058 76.13072279 -40.21430964 66.28492991 -43.484375 52.953125 C-45.45570901 40.25773397 -43.14148659 27.88111323 -35.50390625 17.4296875 C-26.06565848 5.88650677 -15.05283025 -0.18160446 0 0 Z " fill="#ff4200" transform="translate(255.875,98.5625)"/>
</svg>
