<?xml version="1.0" encoding="UTF-8"?>
<svg version="1.1" xmlns="http://www.w3.org/2000/svg" width="512" height="512">
<path d="M0 0 C10.36886987 7.4433673 17.81814566 17.05420972 20.06640625 29.91796875 C21.49189756 43.42619595 19.28892173 55.09634065 11.3125 66.25 C10.6525 66.91 9.9925 67.57 9.3125 68.25 C12.71941548 69.11182842 15.80161733 69.62597688 19.3125 69.25 C21.29450938 67.56230292 22.39339658 65.78302424 23.76953125 63.578125 C29.43007851 55.03714736 38.92017475 49.4939299 48.6875 46.9375 C61.62797931 44.57228058 74.08361719 46.5036133 85.1328125 53.72265625 C91.54351845 58.2147459 95.18338165 62.66307311 99.3125 69.25 C102.6125 68.92 105.9125 68.59 109.3125 68.25 C108.405 66.991875 107.4975 65.73375 106.5625 64.4375 C99.17589356 53.24408457 96.95332644 41.31447209 99.375 28.125 C102.5257422 15.35172083 109.14176802 5.96410256 120.25 -1.0625 C127.79806381 -5.58098074 135.33457629 -7.31798772 144.0625 -7.25 C145.37130127 -7.24033203 145.37130127 -7.24033203 146.70654297 -7.23046875 C159.0004435 -6.88550422 168.54049116 -2.3309669 177.3125 6.25 C187.5308905 17.61602831 190.25436691 30.15495853 189.5078125 45.06738281 C188.71123798 53.96910302 184.61540081 61.25017093 179.3125 68.25 C180.19550781 68.39695312 181.07851563 68.54390625 181.98828125 68.6953125 C195.66229219 71.25092786 205.65567796 76.29354853 214.03125 87.5625 C221.22587771 98.56604826 221.764476 110.3797963 221.67578125 123.15625 C221.6752612 124.65409342 221.67578448 126.15193752 221.67729187 127.64978027 C221.6772029 130.76271984 221.66691992 133.87539633 221.64868164 136.98828125 C221.62583797 140.97393865 221.62548686 144.9592183 221.63219929 148.9449234 C221.6355395 152.02644198 221.62891082 155.10787457 221.61907005 158.18937683 C221.61523052 159.65976004 221.61406465 161.13015281 221.6156559 162.60054016 C221.61602708 164.64859332 221.60339754 166.69616059 221.5871582 168.74414062 C221.58255081 169.90707642 221.57794342 171.07001221 221.57319641 172.26818848 C221.31912716 175.17419942 220.92250827 176.84351408 219.3125 179.25 C216.23980298 180.78634851 213.02048882 180.37967825 209.64990234 180.36352539 C208.85957108 180.36367142 208.06923981 180.36381744 207.25495911 180.3639679 C204.63609089 180.36326983 202.01729333 180.35548239 199.3984375 180.34765625 C197.58525634 180.34579169 195.77207467 180.34436797 193.95889282 180.34336853 C189.18146377 180.33954632 184.40406501 180.32971855 179.62664795 180.31866455 C174.75370697 180.30844407 169.8807611 180.30386954 165.0078125 180.29882812 C155.44269501 180.28809603 145.87760002 180.27102314 136.3125 180.25 C136.3125 182.56 136.3125 184.87 136.3125 187.25 C137.47434814 187.31912598 137.47434814 187.31912598 138.65966797 187.38964844 C147.0224327 187.95157828 155.18524142 189.04997928 163.4375 190.5 C165.33338867 190.83161133 165.33338867 190.83161133 167.26757812 191.16992188 C215.28337454 199.80444869 215.28337454 199.80444869 226.625 215.4375 C228.83052551 219.66777024 229.22870653 223.5797791 228.3125 228.25 C225.90133812 233.93900867 221.46767388 238.56645339 217.6015625 243.30859375 C214.44158072 247.36911641 211.56490026 251.60066232 208.67480469 255.85546875 C204.68246576 261.73254383 200.5946423 267.5369378 196.45996094 273.31469727 C193.23052314 277.8553312 190.21423516 282.4933682 187.3125 287.25 C187.92134033 287.53649414 188.53018066 287.82298828 189.1574707 288.11816406 C203.01256895 295.39495521 213.35988403 315.05292374 217.94970703 329.21630859 C223.70153255 348.58488653 222.6599659 368.20760231 216.3125 387.25 C216.96347656 387.47171875 217.61445313 387.6934375 218.28515625 387.921875 C222.37888668 389.71783416 225.99676462 392.08409756 229.75 394.5 C231.44134633 395.58082293 233.13275525 396.66154794 234.82421875 397.7421875 C235.71286621 398.31163086 236.60151367 398.88107422 237.51708984 399.46777344 C240.40451406 401.30866399 243.30408843 403.12900469 246.20703125 404.9453125 C248.15885698 406.17187053 250.11067995 407.39843294 252.0625 408.625 C252.97829834 409.19508789 253.89409668 409.76517578 254.83764648 410.35253906 C269.61094375 419.67902615 269.61094375 419.67902615 271.8671875 427.26171875 C273.70351461 435.46075822 270.62625208 441.35373559 266.3125 448.25 C262.43140102 453.16983593 258.16406298 454.99770911 252.1328125 456.31640625 C244.5331461 456.13746674 238.06205049 452.23120033 231.8125 448.25 C231.04204346 447.76942139 230.27158691 447.28884277 229.4777832 446.79370117 C224.118033 443.43627892 218.80687546 440.00269002 213.5 436.5625 C212.45356323 435.88537964 212.45356323 435.88537964 211.38598633 435.19458008 C208.07784887 433.05186676 204.78027326 430.89607787 201.5 428.7109375 C200.33379206 427.95241925 199.16715097 427.19456638 198 426.4375 C196.99324219 425.77105469 195.98648437 425.10460937 194.94921875 424.41796875 C192.46643342 422.98625153 192.46643342 422.98625153 190.3515625 423.78515625 C189.67867188 424.26855469 189.00578125 424.75195312 188.3125 425.25 C187.34699219 425.89453125 186.38148438 426.5390625 185.38671875 427.203125 C184.84539307 427.57228027 184.30406738 427.94143555 183.74633789 428.32177734 C168.34586046 438.71220151 151.96609055 443.44884268 133.375 443.5625 C132.4989209 443.56813965 131.6228418 443.5737793 130.72021484 443.57958984 C125.27236459 443.51828464 120.54519831 442.77190878 115.3125 441.25 C115.33868408 441.9205542 115.36486816 442.5911084 115.3918457 443.28198242 C115.49607238 446.33358128 115.56090623 449.38480542 115.625 452.4375 C115.6878418 454.02014648 115.6878418 454.02014648 115.75195312 455.63476562 C115.76806641 456.65634766 115.78417969 457.67792969 115.80078125 458.73046875 C115.84005737 460.13655396 115.84005737 460.13655396 115.88012695 461.57104492 C115.06364351 465.42449561 113.3514074 466.80179297 110.3125 469.25 C107.93775123 470.42412105 105.7327237 471.38471425 103.26171875 472.28125 C102.55485931 472.55037704 101.84799988 472.81950409 101.11972046 473.0967865 C98.75130191 473.99461889 96.37604351 474.87256438 94 475.75 C92.31202516 476.383148 90.62445451 477.01737443 88.93725586 477.65258789 C85.18615403 479.06281673 81.43206912 480.46479319 77.67675781 481.86376953 C71.89340795 484.02440497 66.12729549 486.22888398 60.3636322 488.44137573 C55.92627292 490.14460401 51.48496763 491.83742428 47.04261112 493.52757072 C43.90208787 494.72275094 40.76318805 495.92183612 37.6277771 497.13037109 C34.08076444 498.49417385 30.52765271 499.84076411 26.97265625 501.18359375 C25.38268326 501.80124855 25.38268326 501.80124855 23.7605896 502.43138123 C18.05222898 504.56655479 13.41952999 506.02981346 7.3125 505.25 C5.14207906 503.66494202 4.40394269 502.79840685 3.95846558 500.12675858 C3.96814362 499.30095669 3.97782166 498.4751548 3.98779297 497.62432861 C3.99115158 496.6742543 3.99451019 495.72417999 3.99797058 494.74531555 C4.01668716 493.70433212 4.03540375 492.66334869 4.0546875 491.59082031 C4.06590385 489.94381386 4.06590385 489.94381386 4.0773468 488.26353455 C4.09437172 485.87355892 4.11763618 483.48362162 4.14633179 481.09375763 C4.18780448 477.30027421 4.20409716 473.50749955 4.2121582 469.71380615 C4.2360603 458.9253921 4.27552417 448.13780774 4.40478516 437.35009766 C4.4835581 430.75223684 4.5035226 424.15568765 4.49151611 417.55727386 C4.49712175 415.05198434 4.52259675 412.54665165 4.56903076 410.04178619 C4.85877804 393.8962699 3.66028338 384.07269587 -7.6875 372.25 C-8.81070311 370.74380768 -9.91311825 369.2210063 -10.96484375 367.6640625 C-11.6309668 366.71756836 -11.6309668 366.71756836 -12.31054688 365.75195312 C-12.74431641 365.13255859 -13.17808594 364.51316406 -13.625 363.875 C-14.63407524 362.4400765 -15.64319102 361.0051815 -16.65234375 359.5703125 C-17.40427002 358.49958496 -17.40427002 358.49958496 -18.17138672 357.40722656 C-20.67093325 353.85070593 -23.17963758 350.30065901 -25.6875 346.75 C-26.68754474 345.33336492 -27.68754472 343.91669823 -28.6875 342.5 C-29.1825 341.79875 -29.6775 341.0975 -30.1875 340.375 C-70.6875 283 -70.6875 283 -72.18725586 280.87524414 C-73.18794188 279.45767346 -74.18875583 278.04019308 -75.18969727 276.62280273 C-77.68025451 273.09569428 -80.16861592 269.56707783 -82.65234375 266.03515625 C-87.95803569 258.49493834 -93.29705321 250.97992072 -98.6875 243.5 C-99.22753662 242.74920166 -99.76757324 241.99840332 -100.32397461 241.22485352 C-102.48133435 238.2389155 -104.62515438 235.32380544 -107.00390625 232.5078125 C-109.66835726 228.93460442 -109.84591615 225.61775954 -109.6875 221.25 C-107.97854907 214.29212835 -103.49594368 210.24330503 -97.6875 206.25 C-74.03034413 193.27142143 -44.26178081 189.02835259 -17.6875 187.25 C-17.6875 184.94 -17.6875 182.63 -17.6875 180.25 C-18.69561234 180.25666183 -19.70372467 180.26332367 -20.74238586 180.27018738 C-30.23333001 180.33094805 -39.72423481 180.37594834 -49.21532917 180.40543652 C-54.09505112 180.42110624 -58.97461632 180.44236831 -63.85424805 180.47631836 C-68.56155632 180.50886528 -73.26871363 180.52684317 -77.97612572 180.53463173 C-79.77392136 180.54018364 -81.57170854 180.55102494 -83.36944008 180.56719017 C-85.88360204 180.58890262 -88.39713664 180.59196956 -90.91137695 180.59057617 C-91.65800095 180.601362 -92.40462494 180.61214783 -93.1738739 180.6232605 C-98.16819113 180.59322197 -98.16819113 180.59322197 -100.61100769 178.97871399 C-102.9142446 175.27999935 -102.81702616 171.67805665 -102.83276367 167.40258789 C-102.83914352 166.22358414 -102.84552338 165.04458038 -102.85209656 163.82984924 C-102.85320938 162.55697556 -102.8543222 161.28410187 -102.85546875 159.97265625 C-102.85879715 158.65518906 -102.86212555 157.33772186 -102.86555481 155.98033142 C-102.87154095 153.18699324 -102.87339557 150.39368594 -102.87280273 147.6003418 C-102.87270189 144.05704272 -102.88627517 140.51394755 -102.90357494 136.97069645 C-102.91481891 134.21737296 -102.91671808 131.46409656 -102.91619301 128.71075249 C-102.9179169 126.78070965 -102.9286897 124.85068151 -102.93974304 122.92066956 C-102.8981679 106.60518095 -100.61333543 92.51995582 -89.02734375 80.2890625 C-80.35742585 72.73364156 -70.92239298 69.43262031 -59.6875 68.25 C-60.07421875 67.78851563 -60.4609375 67.32703125 -60.859375 66.8515625 C-69.44396989 56.09956989 -71.68556844 44.81529637 -70.6875 31.25 C-67.99631774 17.51728139 -61.03211916 7.87066711 -49.875 -0.328125 C-34.72727228 -10.17414802 -15.07841184 -9.33789972 0 0 Z M-47.5078125 16.8125 C-53.01996446 22.57394526 -55.81044513 30.34441618 -56.1875 38.25 C-55.7751293 46.63043676 -52.71632695 54.4227096 -46.84375 60.45703125 C-39.11052359 66.88737713 -31.39809767 69.27998596 -21.375 68.828125 C-12.7780373 67.4802961 -5.45803411 63.40242764 -0.08984375 56.51171875 C4.3532709 49.34580403 6.56587615 41.64891232 5.3125 33.25 C3.19335981 24.29694617 -0.65370062 17.42122437 -8.52734375 12.4609375 C-22.58441566 4.98037716 -35.28795251 6.32334979 -47.5078125 16.8125 Z M122.625 16.5625 C116.28692076 23.92837587 112.91925696 30.80580905 113.375 40.625 C114.35352303 48.9136657 117.93533837 55.82941261 124.3125 61.25 C125.4571875 62.301875 125.4571875 62.301875 126.625 63.375 C134.35512632 68.76811138 142.09673181 69.18109943 151.3125 68.25 C159.20450486 66.27405839 165.54305312 61.2240677 170.14453125 54.62109375 C174.88746412 46.27930784 176.04201798 37.99613153 173.64453125 28.64453125 C170.56086175 20.82089816 164.63865919 14.30276891 157.3125 10.25 C144.30613826 4.87780711 133.01516322 7.622127 122.625 16.5625 Z M36.3125 71.25 C29.82020711 79.45245785 28.34378068 87.95735726 29.3125 98.25 C31.40343399 106.82758148 35.96414276 113.23838761 43.3125 118.0625 C51.17935517 122.55784581 59.08189434 123.68294861 67.99609375 121.6328125 C75.84190331 118.86658323 82.78993237 113.6733002 86.75 106.25 C87.30892035 104.93217862 87.83138667 103.59817473 88.3125 102.25 C88.54710937 101.61320312 88.78171875 100.97640625 89.0234375 100.3203125 C91.4420941 92.49894245 90.18332163 84.67012515 86.59375 77.4140625 C81.75308943 69.23806873 75.39764774 64.37689903 66.26953125 61.63671875 C54.84993261 59.38015135 44.46115624 63.16576001 36.3125 71.25 Z M-80.5 94.125 C-88.04469849 103.28519202 -87.83757495 113.1689965 -87.78515625 124.52734375 C-87.78414917 125.56217896 -87.78314209 126.59701416 -87.78210449 127.66320801 C-87.77689833 131.50465005 -87.76293717 135.34607621 -87.75 139.1875 C-87.729375 147.788125 -87.70875 156.38875 -87.6875 165.25 C-64.5875 165.25 -41.4875 165.25 -17.6875 165.25 C-16.3675 159.97 -15.0475 154.69 -13.6875 149.25 C-7.75671903 137.76699854 0.49926874 129.61052097 12.703125 125.0625 C16.84359421 123.7732521 21.03552255 122.94159635 25.3125 122.25 C24.84199219 121.49976563 24.37148437 120.74953125 23.88671875 119.9765625 C16.56178276 107.93515633 14.8094597 98.06205248 14.3125 84.25 C10.03623401 83.43724269 5.98997421 83.11919666 1.63964844 83.10473633 C0.33098816 83.09835648 -0.97767212 83.09197662 -2.32598877 83.08540344 C-3.74336713 83.08387417 -5.160746 83.08276053 -6.578125 83.08203125 C-8.04775016 83.07881317 -9.517375 83.07544869 -10.98699951 83.07194519 C-14.06344342 83.06597084 -17.1398593 83.06410348 -20.21630859 83.06469727 C-24.13425199 83.06479864 -28.05201315 83.05116464 -31.96991348 83.03392506 C-35.00533859 83.02273589 -38.04072064 83.02078019 -41.07616425 83.02130699 C-42.51927059 83.02013657 -43.9623784 83.0157683 -45.40546417 83.00797462 C-59.30836096 82.93993275 -70.61650122 83.45578375 -80.5 94.125 Z M104.3125 84.25 C104.33570313 84.83265625 104.35890625 85.4153125 104.3828125 86.015625 C104.65221823 98.25434229 102.24596634 107.5439629 96.3125 118.25 C95.63875067 119.57976842 94.96904682 120.91165457 94.3125 122.25 C95.29089844 122.48074219 96.26929688 122.71148437 97.27734375 122.94921875 C110.54461485 126.19699792 121.93469951 131.04783348 129.625 143 C133.57310022 150.03791779 134.99707573 157.35745439 136.3125 165.25 C159.4125 165.25 182.5125 165.25 206.3125 165.25 C206.374375 156.030625 206.43625 146.81125 206.5 137.3125 C206.52731201 134.41863525 206.55462402 131.52477051 206.58276367 128.54321289 C206.5915324 126.22803158 206.59917542 123.91284561 206.60546875 121.59765625 C206.62081665 120.41296753 206.63616455 119.22827881 206.65197754 118.00769043 C206.65496373 108.48471394 205.24821963 100.64073771 199.171875 93.10546875 C190.15340698 84.10594709 179.22502142 82.99435317 167.07905579 82.99775696 C165.64254583 83.00465422 164.20603761 83.01192116 162.76953125 83.01953125 C161.27219177 83.0207259 159.77485153 83.02117561 158.2775116 83.0209198 C155.15509276 83.02247564 152.03279004 83.03069775 148.91040039 83.04418945 C144.91932739 83.06122222 140.92838099 83.06500194 136.93727589 83.06424427 C133.85140284 83.06451678 130.76555714 83.07001035 127.67969322 83.07724571 C126.20816949 83.080414 124.73664269 83.08239546 123.26511574 83.08313942 C121.20769645 83.08532014 119.15040839 83.09410007 117.09301758 83.10473633 C115.9254744 83.10854813 114.75793121 83.11235992 113.55500793 83.11628723 C110.39401769 83.24663842 107.41728183 83.65835641 104.3125 84.25 Z M3.3125 148.25 C-10.05030138 169.87707754 -2.6875 191.89056091 -2.6875 219.25 C38.2325 219.25 79.1525 219.25 121.3125 219.25 C126.07131433 179.06677698 126.07131433 179.06677698 112.3125 145.04296875 C105.59479295 139.02064935 98.98442076 137.14041279 90.14819336 137.07299805 C89.43376068 137.06642685 88.719328 137.05985565 87.98324585 137.05308533 C85.62294393 137.03340652 83.26270566 137.02169856 80.90234375 137.01171875 C80.09229952 137.00764322 79.28225529 137.0035677 78.44766426 136.99936867 C74.1556232 136.97852566 69.86361388 136.96421931 65.5715332 136.95483398 C61.16247704 136.94380527 56.75393052 136.9094417 52.34505367 136.86966228 C48.93470903 136.8433687 45.52448316 136.83513067 42.1140461 136.83155251 C40.4903172 136.82671519 38.86659257 136.8151838 37.24296379 136.79651451 C24.31078483 136.6571196 12.15579633 137.64205497 3.3125 148.25 Z M-94.6875 223.25 C-78.0602617 243.31735657 -32.62021403 244.36911407 -8.32714844 246.68286133 C-1.78535902 247.28161121 4.75796457 247.81042549 11.3125 248.25 C11.99413208 248.29732269 12.67576416 248.34464539 13.37805176 248.3934021 C28.3885839 249.41001318 43.39775525 249.45057888 58.4375 249.4375 C59.72140625 249.43689575 61.0053125 249.4362915 62.328125 249.43566895 C82.06383093 249.41048331 101.65493223 249.13165078 121.3125 247.25 C122.34005402 247.15171906 122.34005402 247.15171906 123.3883667 247.05145264 C148.32395879 244.63709785 173.62487812 241.77416797 197.3125 233.25 C198.29476563 232.91097656 199.27703125 232.57195312 200.2890625 232.22265625 C205.52163216 230.30096031 209.26114278 228.08812789 213.3125 224.25 C196.77780824 205.64847177 159.33199767 204.10820041 136.3125 202.25 C136.29791748 203.08249268 136.28333496 203.91498535 136.26831055 204.77270508 C136.2072137 207.86489653 136.13305444 210.95642082 136.05004883 214.0480957 C136.00048681 216.0429063 135.96598867 218.03807257 135.93164062 220.03320312 C135.89619141 221.28681641 135.86074219 222.54042969 135.82421875 223.83203125 C135.79803467 224.98936768 135.77185059 226.1467041 135.74487305 227.33911133 C135.3125 230.25 135.3125 230.25 134.15038967 231.90770054 C131.54969502 233.80711327 129.67813486 233.63034392 126.47389221 233.63768005 C124.64629868 233.652537 124.64629868 233.652537 122.78178406 233.66769409 C121.42947287 233.66345584 120.07716266 233.65889796 118.72485352 233.65405273 C117.30234235 233.65975425 115.87983577 233.66671766 114.45733643 233.67485046 C110.59160056 233.69282189 106.72609118 233.69160603 102.86032605 233.68590808 C99.63457979 233.68282181 96.40887739 233.68890243 93.18313736 233.69494683 C85.57379614 233.70900365 77.96456716 233.70742131 70.35522461 233.69604492 C62.50199804 233.68456344 54.64911296 233.69863705 46.7959314 233.7254414 C40.05613693 233.74758524 33.31644975 233.75423874 26.57662147 233.74836498 C22.55004225 233.7449909 18.52368193 233.7474401 14.49713326 233.76461601 C10.71066658 233.78006222 6.92470638 233.77615607 3.13825989 233.75731087 C1.74830155 233.7536184 0.35830589 233.75675268 -1.03161812 233.76719666 C-2.92834341 233.780361 -4.82519909 233.76647916 -6.72190857 233.75120544 C-7.7836048 233.75099616 -8.84530104 233.75078688 -9.93916988 233.75057125 C-13.38815777 233.12238464 -14.56878653 231.9945242 -16.6875 229.25 C-17.23339844 226.31738281 -17.23339844 226.31738281 -17.296875 222.953125 C-17.32910156 221.74785156 -17.36132812 220.54257813 -17.39453125 219.30078125 C-17.40871094 218.04652344 -17.42289062 216.79226562 -17.4375 215.5 C-17.46714844 214.23027344 -17.49679688 212.96054688 -17.52734375 211.65234375 C-17.59803951 208.51816515 -17.65074012 205.38473044 -17.6875 202.25 C-41.87330952 202.25 -75.31814538 208.68544653 -94.6875 223.25 Z M-74.6875 250.25 C-70.46387134 257.18367026 -65.91722204 263.76499631 -61.08642578 270.28198242 C-56.00948325 277.13782664 -51.10615011 284.11166184 -46.20361328 291.09277344 C-43.70406675 294.64929407 -41.19536242 298.19934099 -38.6875 301.75 C-37.68745526 303.16663508 -36.68745528 304.58330177 -35.6875 306 C-35.1925 306.70125 -34.6975 307.4025 -34.1875 308.125 C-24.6875 321.58333333 -15.1875 335.04166667 -5.6875 348.5 C-4.94391235 349.55320435 -4.94391235 349.55320435 -4.18530273 350.62768555 C-3.19208936 352.03502114 -2.19940764 353.44273211 -1.20727539 354.85083008 C1.39217607 358.53862283 4.00236736 362.21815829 6.62890625 365.88671875 C7.17224609 366.64855469 7.71558594 367.41039062 8.27539062 368.1953125 C9.31103071 369.64697895 10.34988999 371.09635639 11.39257812 372.54296875 C11.86244141 373.20296875 12.33230469 373.86296875 12.81640625 374.54296875 C13.22705322 375.1155542 13.6377002 375.68813965 14.06079102 376.27807617 C18.0363743 382.54115131 18.75596346 387.1098714 18.74487305 394.38623047 C18.76016052 395.89447136 18.76016052 395.89447136 18.77575684 397.43318176 C18.80586284 400.74457387 18.81514933 404.05567657 18.82421875 407.3671875 C18.84106717 409.6679073 18.85921762 411.96861791 18.87861633 414.26931763 C18.92610452 420.31580736 18.95592173 426.3622598 18.98205566 432.40887451 C19.01186698 438.58255375 19.05839541 444.75610453 19.10351562 450.9296875 C19.18953544 463.03639112 19.25688678 475.14312119 19.3125 487.25 C34.62648659 481.94716567 34.62648659 481.94716567 49.8203125 476.3125 C50.68155731 475.98386963 51.54280212 475.65523926 52.43014526 475.31665039 C55.1002604 474.2970181 57.76888969 473.27356314 60.4375 472.25 C62.21735526 471.57006991 63.9973031 470.89038211 65.77734375 470.2109375 C70.105751 468.55744002 74.43165726 466.89754319 78.75598145 465.23339844 C80.48990567 464.56642171 82.22421219 463.90043813 83.9588623 463.23535156 C86.49185496 462.26377341 89.02345016 461.28864062 91.5546875 460.3125 C92.32434845 460.01786865 93.0940094 459.7232373 93.88699341 459.41967773 C97.35959363 458.27159649 97.35959363 458.27159649 100.3125 456.25 C100.39919432 454.7612814 100.41953494 453.268555 100.41015625 451.77734375 C100.40693359 450.87822266 100.40371094 449.97910156 100.40039062 449.05273438 C100.39201172 448.10720703 100.38363281 447.16167969 100.375 446.1875 C100.36823242 444.7634082 100.36823242 444.7634082 100.36132812 443.31054688 C100.3495011 440.95696935 100.33302025 438.60351523 100.3125 436.25 C98.86230469 435.52296875 98.86230469 435.52296875 97.3828125 434.78125 C89.31777422 430.66098839 82.07242533 426.36269844 75.3125 420.25 C74.60609375 419.61320313 73.8996875 418.97640625 73.171875 418.3203125 C57.06545064 403.01306186 48.38311246 381.23597459 47.3125 359.25 C46.80540802 334.61330633 55.87318284 311.86253387 72.6484375 293.796875 C87.76476498 279.34548861 108.3337442 270.1690693 129.3125 269.25 C130.06144531 269.21003906 130.81039062 269.17007812 131.58203125 269.12890625 C146.42725556 268.72120219 160.69839372 272.605764 174.3125 278.25 C180.88300445 269.0558285 187.36745884 259.86463427 193.3125 250.25 C192.38074951 250.44577637 192.38074951 250.44577637 191.43017578 250.64550781 C169.37374229 255.24781862 147.38489185 258.95405536 124.9375 260.9375 C124.25350128 260.99834778 123.56950256 261.05919556 122.86477661 261.12188721 C102.1223488 262.93785304 81.443497 263.4560189 60.625 263.4375 C58.73740463 263.43659363 58.73740463 263.43659363 56.81167603 263.43566895 C37.22983198 263.41019703 17.8201615 263.05259119 -1.6875 261.25 C-2.742789 261.15525391 -2.742789 261.15525391 -3.81939697 261.05859375 C-24.7274886 259.17750521 -45.19371325 256.21635744 -65.73193359 251.85083008 C-68.70798328 251.245836 -71.68924016 250.73163357 -74.6875 250.25 Z M79.1875 308.48828125 C66.12583663 323.6673627 60.26809804 342.78642734 61.52734375 362.63671875 C63.43851819 377.43466944 68.69843447 389.31093611 77.3125 401.25 C77.79332031 401.93578125 78.27414063 402.6215625 78.76953125 403.328125 C88.55838505 415.98561572 105.28889095 424.77795712 120.74609375 427.8125 C141.54721358 430.36422554 161.10851817 426.56376067 178.125 413.875 C179.54070092 412.69000589 180.93664241 411.48103048 182.3125 410.25 C183.06015625 409.59515625 183.8078125 408.9403125 184.578125 408.265625 C197.61075574 396.11956778 205.64831031 378.7314095 206.56640625 360.96875 C207.31739518 338.73354282 200.34836985 320.21227684 185.00390625 303.77734375 C170.90689217 290.28217263 151.79670735 282.76483405 132.2734375 283.03515625 C111.20282581 284.56402649 93.71497583 293.18636277 79.1875 308.48828125 Z M209.3125 400.25 C208.08801086 402.05883767 206.90768892 403.89769772 205.75 405.75 C205.10933594 406.7709375 204.46867187 407.791875 203.80859375 408.84375 C203.31488281 409.6378125 202.82117188 410.431875 202.3125 411.25 C202.86373535 411.60078613 203.4149707 411.95157227 203.98291016 412.31298828 C205.6619088 413.38144196 207.34085899 414.44997179 209.01977539 415.51855469 C210.98215564 416.76714806 212.94488971 418.01518552 214.90795898 419.26269531 C220.11235701 422.57115515 225.31057075 425.88858356 230.49609375 429.2265625 C231.48206543 429.85933105 232.46803711 430.49209961 233.48388672 431.14404297 C235.37962916 432.36101933 237.27326458 433.58128552 239.16455078 434.80517578 C240.02935059 435.35931152 240.89415039 435.91344727 241.78515625 436.484375 C242.54062744 436.97131836 243.29609863 437.45826172 244.07446289 437.95996094 C246.42094547 439.31250964 248.7777565 440.304321 251.3125 441.25 C252.5190625 439.88875 252.5190625 439.88875 253.75 438.5 C254.20246094 437.98953125 254.65492188 437.4790625 255.12109375 436.953125 C256.44160177 435.06544796 256.88733003 433.49802514 257.3125 431.25 C251.2044935 426.01711724 244.5743518 421.8706802 237.7019043 417.74560547 C230.55235456 413.44102209 223.56487766 408.90783227 216.59838867 404.31396484 C215.38759644 403.51853271 215.38759644 403.51853271 214.15234375 402.70703125 C213.43425537 402.23241455 212.71616699 401.75779785 211.97631836 401.26879883 C210.49552313 400.162966 210.49552313 400.162966 209.3125 400.25 Z " fill="#ff4200" transform="translate(174.6875,6.75)"/>
<path d="M0 0 C13.85090345 10.3253617 23.00160173 24.47437335 26.4921875 41.42578125 C29.00327717 59.09998931 26.01387213 76.0186165 16 91 C13.20958004 94.57334355 10.2208721 97.81303181 7 101 C6.40960938 101.62390625 5.81921875 102.2478125 5.2109375 102.890625 C-6.13401172 113.98568547 -22.50110235 118.92625686 -38 119.375 C-56.8203935 118.83008883 -74.08444256 111.41444032 -87.13671875 97.765625 C-100.86774517 81.75917135 -104.41524587 63.5589735 -103 43 C-101.36798423 30.47427895 -95.2557968 19.40243525 -87 10 C-86.41734375 9.32324219 -85.8346875 8.64648438 -85.234375 7.94921875 C-63.25114514 -15.8351581 -26.17352319 -17.49123082 0 0 Z M-73 17 C-83.64536988 27.7556846 -88.30032189 40.39701393 -88.31469727 55.27392578 C-88.07466824 68.63317464 -82.73938011 80.05611035 -73.6875 89.8125 C-63.19777459 99.57799047 -49.4220459 104.38461453 -35.25 104.2109375 C-21.52715929 103.32027236 -9.26144631 97.11931184 0 87 C9.24994249 74.94759969 12.94826829 62.05160402 12 47 C9.61162853 32.83902586 2.26322838 21.63010225 -8.875 12.6875 C-29.43300873 -1.56982236 -54.42254141 0.92924496 -73 17 Z " fill="#ff4200" transform="translate(347,309)"/>
<path d="M0 0 C2.4396485 2.19568365 2.93752421 3.50440553 3.34765625 6.7578125 C2.90650618 10.87190863 1.13469836 13.12063009 -1.4375 16.1875 C-1.89342529 16.75428467 -2.34935059 17.32106934 -2.8190918 17.9050293 C-4.19938285 19.61477056 -5.59798776 21.30805609 -7 23 C-7.72960937 23.89976562 -8.45921875 24.79953125 -9.2109375 25.7265625 C-10.6335814 27.47710203 -12.06350191 29.22174874 -13.5 30.9609375 C-15.45019959 33.33164887 -17.38582227 35.71182529 -19.3125 38.1015625 C-20.18007935 39.17603638 -20.18007935 39.17603638 -21.06518555 40.2722168 C-22.20636761 41.68637689 -23.34592697 43.10184842 -24.48364258 44.51879883 C-31.95258143 53.75828802 -31.95258143 53.75828802 -36.25 54.75 C-44.58793439 53.08241312 -49.82699375 43.94834319 -54.87890625 37.609375 C-56.69724033 35.37245573 -58.58968481 33.28564698 -60.5625 31.1875 C-62.54843947 28.8631742 -63.00175566 27.99201975 -63.6875 24.875 C-62.73162278 20.87769526 -61.35147823 19.35316557 -58 17 C-54.61099433 16.97182537 -52.10380927 17.160975 -49.34106445 19.26098633 C-47.69655645 20.90091849 -46.18506625 22.60010667 -44.6875 24.375 C-44.16349609 24.96539062 -43.63949219 25.55578125 -43.09960938 26.1640625 C-40.86579043 28.70392323 -38.88152533 31.17771201 -37 34 C-31.86599831 28.49837844 -27.00695957 22.86403699 -22.375 16.9375 C-21.90916504 16.34146973 -21.44333008 15.74543945 -20.96337891 15.13134766 C-18.9138193 12.49640659 -16.88676172 9.84866677 -14.88671875 7.17578125 C-14.28472656 6.37527344 -13.68273437 5.57476562 -13.0625 4.75 C-12.55847656 4.06421875 -12.05445313 3.3784375 -11.53515625 2.671875 C-8.00252606 -1.17536602 -4.92378498 -1.46665936 0 0 Z " fill="#ff4200" transform="translate(336,338)"/>
</svg>
