<?xml version="1.0" standalone="no"?>
<!DOCTYPE svg PUBLIC "-//W3C//DTD SVG 20010904//EN"
 "http://www.w3.org/TR/2001/REC-SVG-20010904/DTD/svg10.dtd">
<svg version="1.0" xmlns="http://www.w3.org/2000/svg"
 width="512.000000pt" height="512.000000pt" viewBox="0 0 512.000000 512.000000"
 preserveAspectRatio="xMidYMid meet">

<g transform="translate(0.000000,512.000000) scale(0.100000,-0.100000)"
fill="#ff4200" stroke="none">
<path d="M1217 5106 c-21 -8 -48 -22 -60 -33 -12 -10 -267 -259 -566 -553
-584 -574 -591 -582 -591 -680 0 -98 6 -105 607 -696 519 -512 563 -552 612
-569 117 -39 237 12 297 125 17 31 19 65 22 333 l4 298 926 -3 927 -3 100 -28
c684 -186 985 -963 602 -1554 -153 -238 -428 -413 -711 -452 -42 -6 -169 -11
-282 -11 l-204 0 0 63 c0 79 -24 131 -83 183 -217 192 -828 240 -1200 96 l-76
-29 -3 251 c-3 273 -5 283 -67 349 -159 171 -681 247 -1071 156 -154 -36 -247
-77 -318 -142 -88 -81 -82 -5 -82 -1012 0 -840 1 -892 19 -930 76 -166 414
-276 806 -262 241 9 439 56 566 132 31 19 59 35 62 35 3 0 25 -13 49 -29 144
-96 432 -151 718 -137 316 15 562 103 646 232 16 24 17 24 188 24 94 0 210 5
256 10 790 98 1450 634 1701 1383 248 737 58 1545 -492 2096 -301 301 -648
483 -1093 574 -96 19 -142 20 -993 24 l-891 4 -4 297 c-3 324 -4 328 -67 395
-59 64 -175 93 -254 63z m124 -175 l24 -19 5 -349 c3 -191 7 -349 8 -350 25
-27 72 -28 982 -33 834 -5 945 -8 1025 -23 296 -58 542 -160 775 -325 124 -87
355 -318 442 -442 140 -197 262 -478 307 -705 42 -212 50 -392 26 -595 -77
-647 -472 -1200 -1060 -1481 -256 -122 -515 -179 -822 -179 l-153 0 0 340 0
340 218 0 c144 0 248 5 309 15 676 110 1122 755 983 1422 -105 507 -522 885
-1038 943 -65 7 -402 10 -1029 8 -879 -3 -933 -4 -950 -21 -16 -16 -18 -49
-23 -363 l-5 -346 -24 -19 c-13 -10 -34 -19 -48 -19 -18 0 -149 124 -568 537
-300 295 -548 545 -551 555 -3 10 -3 26 0 36 4 10 251 260 551 555 419 413
550 537 568 537 14 0 35 -9 48 -19z m-299 -2735 c153 -28 308 -96 316 -140 8
-38 -66 -86 -193 -125 -278 -86 -736 -59 -932 55 -60 35 -71 59 -41 91 49 55
224 113 396 133 105 12 348 4 454 -14z m-800 -401 c164 -65 345 -90 593 -82
184 6 313 28 433 73 115 43 105 46 100 -30 -5 -77 -12 -86 -106 -132 -117 -56
-285 -84 -500 -84 -230 0 -434 43 -539 113 l-48 32 -3 68 c-2 37 -1 67 2 67 3
0 34 -11 68 -25z m2151 -281 c161 -26 315 -91 334 -140 12 -32 -82 -94 -197
-128 -149 -45 -435 -61 -620 -36 -200 27 -370 101 -370 161 0 40 150 109 305
139 153 31 377 32 548 4z m-2108 -75 c137 -47 217 -60 420 -66 257 -7 434 17
594 83 34 13 63 24 66 24 3 0 5 -27 5 -60 0 -51 -4 -65 -24 -85 -81 -81 -309
-136 -571 -136 -224 0 -390 29 -510 88 -84 42 -95 57 -95 131 0 57 2 63 18 57
9 -4 53 -20 97 -36z m0 -341 c255 -93 690 -95 955 -4 52 18 103 36 113 41 15
6 17 0 17 -54 0 -75 -18 -98 -116 -142 -252 -114 -752 -111 -986 6 -87 44 -98
58 -98 133 0 57 2 63 18 57 9 -5 53 -21 97 -37z m1451 -26 c108 -27 132 -31
275 -42 223 -17 508 20 653 84 32 14 60 26 62 26 2 0 4 -29 4 -64 0 -62 -1
-66 -37 -95 -158 -131 -667 -167 -975 -70 -38 12 -93 36 -121 53 l-52 31 -3
72 -3 72 59 -24 c32 -13 94 -32 138 -43z m-1503 -297 c133 -58 316 -89 537
-89 216 0 407 32 539 90 29 13 55 24 57 24 12 0 2 -119 -12 -138 -42 -61 -246
-125 -456 -144 -267 -24 -581 32 -690 123 -37 29 -38 33 -38 95 0 35 2 64 4
64 2 0 29 -11 59 -25z m1427 -23 c296 -97 722 -89 996 17 l74 29 0 -62 c0 -55
-3 -65 -27 -89 -37 -35 -128 -74 -227 -97 -304 -72 -707 -36 -889 80 l-47 30
0 70 0 71 28 -14 c15 -8 56 -24 92 -35z m-1251 -373 c147 -32 341 -44 498 -31
151 13 309 47 396 86 30 13 58 22 61 18 3 -3 6 -30 6 -60 0 -49 -3 -58 -35
-88 -79 -74 -333 -134 -567 -134 -237 0 -491 61 -570 137 -25 24 -28 34 -28
89 l0 62 76 -30 c42 -16 116 -38 163 -49z m1318 12 c149 -37 226 -45 408 -45
120 0 212 6 277 17 98 17 241 58 291 83 l27 15 0 -66 c0 -75 -10 -89 -90 -130
-262 -133 -839 -120 -1055 24 -40 27 -40 27 -43 98 l-3 72 55 -24 c30 -13 90
-33 133 -44z"/>
</g>
</svg>
