<?xml version="1.0" encoding="UTF-8"?>
<!DOCTYPE svg PUBLIC "-//W3C//DTD SVG 1.1//EN" "http://www.w3.org/Graphics/SVG/1.1/DTD/svg11.dtd">
<svg xmlns="http://www.w3.org/2000/svg" version="1.1" width="512px" height="512px" style="shape-rendering:geometricPrecision; text-rendering:geometricPrecision; image-rendering:optimizeQuality; fill-rule:evenodd; clip-rule:evenodd" xmlns:xlink="http://www.w3.org/1999/xlink">
<g><path style="opacity:0.93" fill="#ff4200" d="M 239.5,-0.5 C 264.167,-0.5 288.833,-0.5 313.5,-0.5C 324.038,2.85847 329.538,10.1918 330,21.5C 330.667,42.1667 330.667,62.8333 330,83.5C 325.985,103.596 314.152,110.43 294.5,104C 286.937,97.7048 282.937,89.5381 282.5,79.5C 264.015,96.8176 245.682,114.318 227.5,132C 220.367,139.488 211.701,142.154 201.5,140C 192.554,136.194 183.888,131.861 175.5,127C 174.5,126.333 173.5,126.333 172.5,127C 135.5,164 98.5,201 61.5,238C 46.7157,245.846 34.8823,242.679 26,228.5C 23.0764,219.137 24.4097,210.47 30,202.5C 71.1945,161.639 112.028,120.472 152.5,79C 159.031,73.9516 166.365,72.2849 174.5,74C 184.446,78.3061 194.112,83.1394 203.5,88.5C 218.289,75.2123 232.622,61.379 246.5,47C 226.479,43.4525 219.313,31.9525 225,12.5C 228.162,6.16411 232.996,1.83077 239.5,-0.5 Z M 246.5,14.5 C 266.503,14.3334 286.503,14.5 306.5,15C 311.333,15.1667 313.833,17.6667 314,22.5C 314.167,32.6667 314.333,42.8333 314.5,53C 314.634,64.2349 314.134,75.4015 313,86.5C 308.667,91.8333 304.333,91.8333 300,86.5C 298.74,76.2393 298.073,65.906 298,55.5C 295.487,51.7885 291.987,50.6218 287.5,52C 262.167,76 236.833,100 211.5,124C 209.167,124.667 206.833,124.667 204.5,124C 194.99,118.745 185.324,113.745 175.5,109C 172.833,108.333 170.167,108.333 167.5,109C 128.887,147.613 90.2208,186.279 51.5,225C 45.4074,227.454 41.7407,225.454 40.5,219C 40.5419,217.033 41.0419,215.199 42,213.5C 82.8612,172.972 123.361,132.139 163.5,91C 166.03,89.5783 168.697,89.245 171.5,90C 181.167,95 190.833,100 200.5,105C 204.366,107.12 208.033,106.786 211.5,104C 232.333,83.8333 253.167,63.6667 274,43.5C 275.457,40.634 275.79,37.634 275,34.5C 274.5,32.6667 273.333,31.5 271.5,31C 263.167,30.6667 254.833,30.3333 246.5,30C 239.408,27.8407 237.742,23.5074 241.5,17C 243.315,16.2432 244.981,15.4098 246.5,14.5 Z"/></g>
<g><path style="opacity:0.931" fill="#ff4200" d="M 109.5,511.5 C 102.833,511.5 96.1667,511.5 89.5,511.5C 74.9822,507.486 64.1488,498.82 57,485.5C 51.2483,468.831 47.2483,451.831 45,434.5C 49.4625,429.032 54.1292,428.699 59,433.5C 62.5321,445.766 65.8655,458.099 69,470.5C 74.3444,489.497 86.8444,497.664 106.5,495C 122.529,491.461 138.529,487.794 154.5,484C 171.426,476.715 178.592,463.882 176,445.5C 160.53,403.423 144.863,361.423 129,319.5C 128.439,318.978 127.772,318.645 127,318.5C 106.522,324.411 86.0224,330.244 65.5,336C 51.4341,341.295 44.1008,351.461 43.5,366.5C 45.7665,379.735 48.4332,392.902 51.5,406C 51.3712,411.462 48.5379,414.296 43,414.5C 39.3598,413.526 37.0264,411.193 36,407.5C 33.0199,396.913 30.3532,386.246 28,375.5C 25.0493,352.906 33.216,335.739 52.5,324C 77.9151,315.562 103.582,307.895 129.5,301C 137.657,297.088 145.657,292.922 153.5,288.5C 154.333,264.174 154.833,239.84 155,215.5C 157.204,202.298 164.704,193.798 177.5,190C 222.612,180.783 242.445,198.95 237,244.5C 240.836,241.914 244.836,239.581 249,237.5C 249.333,210.5 249.667,183.5 250,156.5C 252.636,141.198 261.47,131.698 276.5,128C 286.167,127.333 295.833,127.333 305.5,128C 319.519,132.02 328.019,141.187 331,155.5C 331.5,209.832 331.667,264.166 331.5,318.5C 335.644,318.67 339.644,318.003 343.5,316.5C 344.333,238.502 344.833,160.502 345,82.5C 350.883,62.4541 364.383,53.1208 385.5,54.5C 414.801,55.1381 428.468,70.1381 426.5,99.5C 426.621,105.273 426.121,110.939 425,116.5C 419.559,120.926 414.892,120.259 411,114.5C 410.667,104.833 410.333,95.1667 410,85.5C 407.473,76.6365 401.639,71.8032 392.5,71C 385.776,70.226 379.11,70.5594 372.5,72C 366.912,74.5864 363.079,78.7531 361,84.5C 360.167,159.502 360.333,234.502 361.5,309.5C 378.629,299.521 394.796,288.187 410,275.5C 410.333,230.167 410.667,184.833 411,139.5C 413.435,134.776 417.269,133.276 422.5,135C 424.049,136.214 425.215,137.714 426,139.5C 426.333,181.167 426.667,222.833 427,264.5C 447.873,250.483 466.207,253.149 482,272.5C 492.528,293.554 488.361,311.054 469.5,325C 444.876,344.622 420.542,364.622 396.5,385C 385.055,394.557 372.055,401.223 357.5,405C 302.231,418.067 247.231,431.9 192.5,446.5C 195.404,471.864 185.07,489.364 161.5,499C 144.19,503.829 126.856,507.996 109.5,511.5 Z M 278.5,143.5 C 286.507,143.334 294.507,143.5 302.5,144C 309.097,146.263 313.264,150.763 315,157.5C 315.5,211.499 315.667,265.499 315.5,319.5C 299.486,319.833 283.486,319.499 267.5,318.5C 272.037,313.798 277.037,309.631 282.5,306C 300.9,289.731 308.4,269.564 305,245.5C 296.319,229.66 283.319,224.327 266,229.5C 265.333,205.5 265.333,181.5 266,157.5C 267.926,150.745 272.093,146.078 278.5,143.5 Z M 183.5,204.5 C 191.507,204.334 199.507,204.5 207.5,205C 213.469,206.298 217.635,209.798 220,215.5C 220.833,228.18 220.666,240.846 219.5,253.5C 203.095,261.785 186.928,270.452 171,279.5C 170.333,258.5 170.333,237.5 171,216.5C 173.085,210.246 177.252,206.246 183.5,204.5 Z M 272.5,243.5 C 282.764,242.129 289.097,246.463 291.5,256.5C 288.1,277.056 277.433,292.556 259.5,303C 248.387,314.181 249.054,324.514 261.5,334C 285.117,335.626 308.783,335.959 332.5,335C 346.839,333.664 360.173,329.331 372.5,322C 394.11,307.389 415.444,292.389 436.5,277C 447.413,269.084 457.58,269.917 467,279.5C 472.564,287.253 472.897,295.253 468,303.5C 439.669,328.251 410.836,352.418 381.5,376C 375.154,380.174 368.488,383.841 361.5,387C 303.654,401.962 245.654,415.962 187.5,429C 172.982,390.127 158.315,351.293 143.5,312.5C 186.434,289.202 229.434,266.202 272.5,243.5 Z M 113.5,434.5 C 126.673,433.505 132.506,439.505 131,452.5C 125.66,462.782 118.16,464.782 108.5,458.5C 101.29,448.669 102.957,440.669 113.5,434.5 Z"/></g>
<g><path style="opacity:0.928" fill="#ff4200" d="M 111.5,418.5 C 137.155,417.653 148.988,429.987 147,455.5C 142.105,471.534 131.271,479.034 114.5,478C 98.0928,475.058 89.0928,465.225 87.5,448.5C 88.875,433.033 96.875,423.033 111.5,418.5 Z M 113.5,434.5 C 102.957,440.669 101.29,448.669 108.5,458.5C 118.16,464.782 125.66,462.782 131,452.5C 132.506,439.505 126.673,433.505 113.5,434.5 Z"/></g>
</svg>
