<?xml version="1.0" standalone="no"?>
<!DOCTYPE svg PUBLIC "-//W3C//DTD SVG 20010904//EN"
 "http://www.w3.org/TR/2001/REC-SVG-20010904/DTD/svg10.dtd">
<svg version="1.0" xmlns="http://www.w3.org/2000/svg"
 width="512.000000pt" height="512.000000pt" viewBox="0 0 512.000000 512.000000"
 preserveAspectRatio="xMidYMid meet">

<g transform="translate(0.000000,512.000000) scale(0.100000,-0.100000)"
fill="#ff4200" stroke="none">
<path d="M4040 4183 c-82 -56 -380 -307 -385 -324 -4 -12 0 -30 9 -44 16 -24
20 -25 131 -25 l115 0 0 -100 0 -100 60 0 60 0 0 133 c0 166 -5 175 -91 179
l-60 3 96 78 c64 53 100 75 109 70 23 -14 175 -138 176 -144 0 -3 -22 -5 -50
-5 -34 0 -56 -6 -70 -19 -20 -18 -20 -28 -20 -447 l0 -428 -45 0 -45 0 0 200
0 200 -60 0 -60 0 0 -238 c0 -190 3 -242 14 -258 13 -17 27 -19 151 -19 124 0
138 2 151 19 12 16 14 94 14 448 l0 427 117 3 c116 3 118 3 130 30 7 14 10 34
7 43 -8 21 -399 335 -417 335 -7 0 -24 -8 -37 -17z"/>
<path d="M2350 3684 c-107 -86 -198 -161 -202 -167 -13 -21 -8 -53 10 -70 15
-14 40 -17 130 -17 l112 0 0 -428 c0 -403 1 -430 18 -445 15 -14 42 -17 150
-17 124 0 132 1 146 22 14 19 16 79 16 445 l0 423 109 0 c124 0 144 9 139 63
-3 27 -29 52 -198 189 -107 87 -204 158 -215 158 -11 0 -108 -70 -215 -156z
m309 -58 l90 -74 -54 -4 c-91 -8 -85 27 -85 -464 l0 -434 -50 0 -50 0 0 434
c0 491 6 456 -85 464 l-55 4 93 74 c50 41 95 74 99 74 3 0 47 -33 97 -74z"/>
<path d="M3910 3505 l0 -55 55 0 55 0 0 55 0 55 -55 0 -55 0 0 -55z"/>
<path d="M1029 3542 c-9 -4 -102 -77 -208 -161 -174 -141 -191 -158 -191 -186
0 -50 13 -55 137 -55 l113 0 0 -430 c0 -417 1 -431 20 -450 18 -18 33 -20 145
-20 112 0 127 2 145 20 19 19 20 33 20 450 l0 430 115 0 c111 0 115 1 131 25
9 14 13 33 9 44 -7 24 -396 343 -415 340 -3 0 -12 -3 -21 -7z m120 -212 l93
-75 -62 -5 c-46 -4 -65 -10 -76 -24 -12 -16 -14 -94 -14 -443 l0 -423 -45 0
-45 0 0 427 c0 490 5 463 -87 463 -29 0 -53 3 -53 8 1 9 183 153 190 149 3 -1
47 -36 99 -77z"/>
<path d="M3933 2619 c-191 -17 -350 -70 -433 -145 -74 -67 -70 -26 -70 -694 0
-676 -4 -641 75 -705 55 -46 132 -80 252 -112 92 -25 111 -27 318 -27 207 0
226 2 318 27 174 47 274 105 308 181 17 38 19 79 19 634 0 664 4 629 -72 698
-83 75 -241 125 -448 144 -127 11 -135 11 -267 -1z m402 -138 c151 -32 265
-94 265 -146 0 -45 -99 -107 -224 -139 -251 -66 -613 -35 -769 64 -80 51 -80
97 2 149 58 36 161 70 266 87 107 18 341 10 460 -15z m-559 -404 c243 -61 557
-39 760 53 l64 29 0 -63 c0 -81 -17 -104 -113 -150 -109 -53 -211 -71 -412
-71 -195 0 -299 17 -407 67 -90 41 -120 73 -126 137 -7 81 -3 85 70 52 35 -16
109 -40 164 -54z m-188 -226 c130 -66 313 -96 544 -88 176 5 293 28 411 80
l57 26 0 -59 c0 -71 -26 -107 -102 -146 -92 -47 -189 -65 -369 -71 -187 -6
-293 5 -407 43 -134 44 -182 93 -182 182 0 28 2 52 5 52 3 0 22 -8 43 -19z
m152 -340 c262 -67 605 -46 803 48 l57 27 0 -56 c0 -50 -3 -59 -32 -87 -95
-91 -333 -139 -604 -122 -157 10 -260 38 -347 92 -57 35 -77 70 -77 131 l0 45
63 -29 c34 -16 96 -38 137 -49z m-121 -230 c148 -63 225 -76 451 -76 225 0
298 12 452 76 39 16 72 29 74 29 2 0 4 -26 4 -58 0 -50 -4 -62 -27 -85 -134
-127 -584 -168 -857 -77 -81 27 -154 73 -166 106 -11 27 -14 114 -4 114 3 0
36 -13 73 -29z"/>
<path d="M2355 2329 c-240 -37 -405 -128 -435 -238 -7 -28 -10 -185 -8 -480
l3 -439 30 -44 c57 -80 158 -132 335 -171 136 -30 424 -30 560 0 177 39 278
91 335 171 l30 44 3 439 c2 295 -1 452 -8 480 -17 61 -72 114 -164 159 -129
61 -240 82 -446 86 -96 1 -202 -1 -235 -7z m308 -109 c188 -16 341 -63 403
-125 31 -31 30 -55 -3 -87 -159 -149 -687 -173 -944 -43 -47 24 -89 65 -89 87
0 69 197 150 409 167 53 5 98 9 101 9 3 1 58 -3 123 -8z m-433 -419 c47 -12
140 -27 207 -33 206 -19 459 15 595 80 l58 28 0 -52 c0 -45 -5 -59 -30 -87
-71 -82 -252 -128 -500 -128 -248 0 -429 46 -500 128 -25 28 -30 42 -30 87 l0
53 58 -27 c31 -15 95 -37 142 -49z m-138 -227 c28 -14 94 -38 147 -52 88 -23
114 -25 306 -26 269 -1 317 8 533 101 9 4 12 -11 12 -55 0 -50 -4 -66 -25 -90
-31 -37 -116 -75 -231 -104 -119 -30 -408 -33 -521 -6 -115 29 -212 68 -249
103 -32 30 -34 37 -34 94 0 33 2 61 5 61 3 0 29 -12 57 -26z m-4 -278 c141
-71 309 -101 530 -93 175 6 260 23 394 81 l78 34 0 -60 c0 -72 -19 -95 -114
-138 -258 -117 -778 -86 -919 55 -23 24 -27 36 -27 86 0 33 2 59 5 59 3 0 27
-11 53 -24z"/>
<path d="M835 2105 c-182 -29 -305 -78 -379 -151 -54 -55 -56 -66 -56 -409 0
-354 0 -356 70 -419 194 -175 755 -208 1055 -61 80 39 104 57 139 110 l26 38
0 331 c0 387 1 380 -105 451 -153 103 -488 152 -750 110z m405 -119 c217 -33
362 -113 327 -181 -15 -28 -33 -42 -104 -76 -100 -49 -232 -72 -413 -72 -188
0 -316 23 -428 78 -118 59 -132 107 -48 163 127 85 424 124 666 88z m-631
-372 c242 -100 668 -95 908 11 30 14 57 25 59 25 2 0 4 -25 4 -55 0 -95 -58
-139 -259 -193 -86 -23 -114 -25 -276 -25 -162 0 -189 2 -275 25 -116 32 -175
57 -218 92 -30 26 -32 32 -32 93 0 48 3 64 13 60 6 -3 41 -18 76 -33z m20
-288 c248 -102 630 -94 884 18 32 14 60 26 62 26 9 0 5 -99 -5 -124 -22 -59
-175 -123 -347 -146 -113 -16 -338 -8 -440 14 -96 21 -197 62 -233 96 -28 26
-30 34 -30 95 0 50 3 66 13 62 6 -4 50 -22 96 -41z"/>
</g>
</svg>
