<?xml version="1.0" standalone="no"?>
<!DOCTYPE svg PUBLIC "-//W3C//DTD SVG 20010904//EN"
 "http://www.w3.org/TR/2001/REC-SVG-20010904/DTD/svg10.dtd">
<svg version="1.0" xmlns="http://www.w3.org/2000/svg"
 width="512.000000pt" height="512.000000pt" viewBox="0 0 512.000000 512.000000"
 preserveAspectRatio="xMidYMid meet">
<metadata>
Created by potrace 1.16, written by Peter Selinger 2001-2019
</metadata>
<g transform="translate(0.000000,512.000000) scale(0.100000,-0.100000)"
fill="#ff4200" stroke="none">
<path d="M1255 5103 c-70 -36 -93 -76 -120 -207 -63 -298 -344 -543 -682 -597
-125 -19 -188 -63 -214 -148 -14 -46 -6 -1114 9 -1179 5 -24 18 -49 28 -57 24
-18 75 -19 99 -1 19 13 19 34 16 610 l-3 596 24 9 c12 5 57 15 98 21 93 15
239 67 325 114 238 134 424 387 461 626 13 88 -119 80 1264 80 1383 0 1251 8
1264 -80 37 -239 223 -492 461 -626 86 -47 232 -99 325 -114 41 -6 86 -16 98
-21 l24 -9 -3 -591 -3 -591 23 -19 c31 -25 64 -24 96 4 23 20 26 32 35 142 5
66 10 333 10 593 0 404 -2 478 -15 510 -33 78 -88 112 -208 131 -346 55 -619
299 -686 614 -23 104 -55 158 -111 187 -39 20 -54 20 -1312 20 -1141 -1 -1276
-2 -1303 -17z"/>
<path d="M1578 4778 c-58 -15 -119 -76 -168 -169 -63 -117 -142 -220 -246
-319 -109 -105 -224 -183 -376 -254 -127 -59 -167 -96 -188 -171 -19 -67 -8
-754 14 -910 51 -356 137 -637 296 -960 134 -273 283 -499 476 -720 276 -315
659 -619 1011 -802 90 -46 110 -53 161 -53 71 0 156 39 348 158 895 556 1461
1397 1600 2377 22 156 33 843 14 910 -21 75 -61 112 -188 171 -277 131 -489
326 -622 573 -52 97 -110 154 -175 170 -57 14 -1902 14 -1957 -1z m1932 -158
c10 -5 39 -48 64 -94 145 -265 365 -472 653 -613 123 -60 133 -67 144 -101 17
-51 5 -623 -16 -792 -70 -557 -279 -1054 -641 -1520 -111 -143 -373 -408 -519
-524 -192 -153 -397 -288 -572 -379 l-63 -32 -63 32 c-293 152 -584 369 -842
627 -553 555 -863 1236 -905 1984 -13 239 -13 571 1 610 9 27 28 40 142 95
288 141 508 348 653 613 25 46 53 88 62 94 23 13 1877 14 1902 0z"/>
<path d="M2470 4360 c-242 -31 -455 -187 -555 -405 -57 -122 -65 -176 -65
-422 l0 -220 -90 -5 c-109 -7 -170 -33 -217 -95 -52 -70 -54 -98 -51 -699 3
-542 3 -550 25 -590 29 -54 93 -110 140 -123 25 -7 327 -11 913 -11 l875 0 50
24 c60 28 87 56 114 116 20 44 21 63 21 620 0 638 2 617 -68 686 -48 48 -96
66 -193 72 l-87 5 -4 236 c-4 219 -6 241 -30 313 -90 273 -319 462 -599 498
-90 11 -97 11 -179 0z m196 -161 c184 -34 349 -173 421 -355 26 -67 27 -76 31
-301 l4 -233 -561 0 -561 0 0 193 c0 126 5 215 14 258 23 105 78 203 160 284
136 134 308 188 492 154z m781 -1073 l28 -24 0 -551 0 -551 -28 -27 -27 -28
-818 -3 c-449 -2 -837 0 -861 3 -26 4 -53 16 -67 30 l-24 24 0 541 c0 555 1
568 39 597 12 10 215 12 873 13 l857 0 28 -24z"/>
<path d="M2482 2783 c-54 -26 -85 -76 -90 -142 -5 -65 12 -107 58 -150 27 -25
28 -30 32 -144 3 -111 5 -120 27 -138 32 -26 82 -25 109 4 20 21 22 34 22 138
l0 115 31 23 c96 71 84 231 -22 290 -45 26 -120 27 -167 4z"/>
<path d="M335 2645 c-30 -29 -31 -44 -4 -148 98 -390 254 -740 484 -1087 137
-205 249 -344 425 -524 338 -346 636 -563 1123 -815 125 -65 142 -71 197 -71
55 0 72 6 197 71 369 192 621 358 878 580 133 115 371 360 469 482 332 415
565 881 687 1369 18 74 19 93 9 117 -21 51 -93 61 -128 18 -7 -8 -28 -73 -47
-144 -184 -698 -604 -1331 -1200 -1810 -215 -173 -441 -316 -762 -483 l-102
-53 -103 53 c-613 314 -1039 661 -1397 1137 -129 172 -212 303 -307 488 -116
224 -209 467 -264 685 -27 109 -39 139 -61 150 -31 17 -69 11 -94 -15z"/>
</g>
</svg>
