<?xml version="1.0" encoding="UTF-8"?>
<!DOCTYPE svg PUBLIC "-//W3C//DTD SVG 1.1//EN" "http://www.w3.org/Graphics/SVG/1.1/DTD/svg11.dtd">
<svg xmlns="http://www.w3.org/2000/svg" version="1.1" width="512px" height="512px" style="shape-rendering:geometricPrecision; text-rendering:geometricPrecision; image-rendering:optimizeQuality; fill-rule:evenodd; clip-rule:evenodd" xmlns:xlink="http://www.w3.org/1999/xlink">
<g><path style="opacity:0.982" fill="#ff4200" d="M 355.5,15.5 C 358.978,15.1842 362.312,15.6842 365.5,17C 381.667,33.1667 397.833,49.3333 414,65.5C 416.109,69.7809 415.942,73.9476 413.5,78C 406.281,79.4286 398.947,79.9286 391.5,79.5C 391.5,84.8333 391.5,90.1667 391.5,95.5C 405.171,95.3334 418.837,95.5001 432.5,96C 448.667,100.167 458.833,110.333 463,126.5C 463.5,182.832 463.667,239.166 463.5,295.5C 458.167,295.5 452.833,295.5 447.5,295.5C 447.975,240.134 447.475,184.801 446,129.5C 443.167,121.333 437.667,115.833 429.5,113C 416.88,111.626 404.213,111.126 391.5,111.5C 391.5,159.5 391.5,207.5 391.5,255.5C 386.167,255.5 380.833,255.5 375.5,255.5C 375.333,192.832 375.5,130.166 376,67.5C 376.5,65.6667 377.667,64.5 379.5,64C 381.833,63.6667 384.167,63.3333 386.5,63C 377.652,53.9856 368.652,45.1522 359.5,36.5C 350.348,45.1522 341.348,53.9856 332.5,63C 334.833,63.3333 337.167,63.6667 339.5,64C 341.333,64.5 342.5,65.6667 343,67.5C 343.5,132.832 343.667,198.166 343.5,263.5C 338.167,263.5 332.833,263.5 327.5,263.5C 327.5,212.833 327.5,162.167 327.5,111.5C 234.803,111.015 142.136,111.515 49.5,113C 41.3333,115.833 35.8333,121.333 33,129.5C 31.6264,142.12 31.1264,154.787 31.5,167.5C 26.1667,167.5 20.8333,167.5 15.5,167.5C 15.3334,153.829 15.5001,140.163 16,126.5C 20.1667,110.333 30.3333,100.167 46.5,96C 140.166,95.5 233.833,95.3333 327.5,95.5C 327.5,90.1667 327.5,84.8333 327.5,79.5C 320.053,79.9286 312.719,79.4286 305.5,78C 303.571,74.7441 303.071,71.2441 304,67.5C 320.7,49.6335 337.867,32.3002 355.5,15.5 Z"/></g>
<g><path style="opacity:0.929" fill="#ff4200" d="M 407.5,15.5 C 432.636,16.4637 448.469,29.1304 455,53.5C 455.498,56.8168 455.665,60.1501 455.5,63.5C 449.833,63.5 444.167,63.5 438.5,63.5C 437.167,44.1667 426.833,33.8333 407.5,32.5C 407.5,26.8333 407.5,21.1667 407.5,15.5 Z"/></g>
<g><path style="opacity:1" fill="#ff4200" d="M 55.5,127.5 C 60.8333,127.5 66.1667,127.5 71.5,127.5C 71.5,132.833 71.5,138.167 71.5,143.5C 66.1667,143.5 60.8333,143.5 55.5,143.5C 55.5,138.167 55.5,132.833 55.5,127.5 Z"/></g>
<g><path style="opacity:1" fill="#ff4200" d="M 87.5,127.5 C 92.8333,127.5 98.1667,127.5 103.5,127.5C 103.5,132.833 103.5,138.167 103.5,143.5C 98.1667,143.5 92.8333,143.5 87.5,143.5C 87.5,138.167 87.5,132.833 87.5,127.5 Z"/></g>
<g><path style="opacity:1" fill="#ff4200" d="M 119.5,127.5 C 124.833,127.5 130.167,127.5 135.5,127.5C 135.5,132.833 135.5,138.167 135.5,143.5C 130.167,143.5 124.833,143.5 119.5,143.5C 119.5,138.167 119.5,132.833 119.5,127.5 Z"/></g>
<g><path style="opacity:0.998" fill="#ff4200" d="M 251.5,135.5 C 270.17,135.333 288.836,135.5 307.5,136C 309.333,136.5 310.5,137.667 311,139.5C 311.5,186.165 311.667,232.832 311.5,279.5C 306.167,279.5 300.833,279.5 295.5,279.5C 295.5,236.833 295.5,194.167 295.5,151.5C 284.833,151.5 274.167,151.5 263.5,151.5C 263.5,212.833 263.5,274.167 263.5,335.5C 194.167,335.5 124.833,335.5 55.5,335.5C 55.5,330.167 55.5,324.833 55.5,319.5C 66.1667,319.5 76.8333,319.5 87.5,319.5C 87.3334,296.831 87.5,274.164 88,251.5C 88.5,249.667 89.6667,248.5 91.5,248C 110.167,247.333 128.833,247.333 147.5,248C 149.333,248.5 150.5,249.667 151,251.5C 151.5,274.164 151.667,296.831 151.5,319.5C 156.833,319.5 162.167,319.5 167.5,319.5C 167.333,278.165 167.5,236.832 168,195.5C 168.5,193.667 169.667,192.5 171.5,192C 190.167,191.333 208.833,191.333 227.5,192C 229.333,192.5 230.5,193.667 231,195.5C 231.5,236.832 231.667,278.165 231.5,319.5C 236.833,319.5 242.167,319.5 247.5,319.5C 247.333,259.499 247.5,199.499 248,139.5C 248.69,137.65 249.856,136.316 251.5,135.5 Z M 183.5,207.5 C 194.167,207.5 204.833,207.5 215.5,207.5C 215.5,244.833 215.5,282.167 215.5,319.5C 204.833,319.5 194.167,319.5 183.5,319.5C 183.5,282.167 183.5,244.833 183.5,207.5 Z M 103.5,263.5 C 114.167,263.5 124.833,263.5 135.5,263.5C 135.5,282.167 135.5,300.833 135.5,319.5C 124.833,319.5 114.167,319.5 103.5,319.5C 103.5,300.833 103.5,282.167 103.5,263.5 Z"/></g>
<g><path style="opacity:0.987" fill="#ff4200" d="M 15.5,183.5 C 20.8333,183.5 26.1667,183.5 31.5,183.5C 31.5,239.5 31.5,295.5 31.5,351.5C 106.167,351.5 180.833,351.5 255.5,351.5C 255.5,356.833 255.5,362.167 255.5,367.5C 180.833,367.5 106.167,367.5 31.5,367.5C 29.9784,385.457 37.9784,395.957 55.5,399C 124.833,399.5 194.166,399.667 263.5,399.5C 263.5,404.833 263.5,410.167 263.5,415.5C 244.167,415.5 224.833,415.5 205.5,415.5C 199.5,436.833 193.5,458.167 187.5,479.5C 222.167,479.5 256.833,479.5 291.5,479.5C 289.35,469.879 286.683,460.379 283.5,451C 283.645,450.228 283.978,449.561 284.5,449C 289.265,447.801 293.931,446.301 298.5,444.5C 303.135,455.746 306.802,467.412 309.5,479.5C 315.5,479.5 321.5,479.5 327.5,479.5C 327.5,484.833 327.5,490.167 327.5,495.5C 268.833,495.5 210.167,495.5 151.5,495.5C 151.5,490.167 151.5,484.833 151.5,479.5C 157.5,479.5 163.5,479.5 169.5,479.5C 175.5,458.167 181.5,436.833 187.5,415.5C 140.499,415.667 93.4988,415.5 46.5,415C 30.3333,410.833 20.1667,400.667 16,384.5C 15.5,317.501 15.3333,250.501 15.5,183.5 Z"/></g>
<g><path style="opacity:0.934" fill="#ff4200" d="M 362.5,270.5 C 410.905,271.267 443.405,294.267 460,339.5C 466.974,366.124 464.141,391.624 451.5,416C 464.625,430.126 478.125,443.959 492,457.5C 498.41,470.709 496.243,482.209 485.5,492C 476.167,496.667 466.833,496.667 457.5,492C 443.959,478.125 430.126,464.625 416,451.5C 389.417,464.956 361.917,467.123 333.5,458C 293.875,440.95 272.875,410.784 270.5,367.5C 271.928,332.135 287.261,304.635 316.5,285C 330.925,276.8 346.258,271.967 362.5,270.5 Z M 368.5,287.5 C 416.478,292.811 442.478,319.478 446.5,367.5C 444.131,408.03 423.464,433.864 384.5,445C 348.881,450.941 320.714,439.108 300,409.5C 282.082,375.464 285.082,343.464 309,313.5C 325.485,297.004 345.318,288.338 368.5,287.5 Z M 366.5,319.5 C 391.518,321.354 407.352,334.354 414,358.5C 416.577,387.246 404.077,405.746 376.5,414C 347.595,416.803 329.095,404.303 321,376.5C 317.797,349.393 328.963,331.226 354.5,322C 358.637,321.161 362.637,320.327 366.5,319.5 Z M 440.5,430.5 C 452.798,442.298 464.965,454.298 477,466.5C 480.566,472.949 478.733,477.282 471.5,479.5C 469.833,478.667 468.167,477.833 466.5,477C 454.5,465 442.5,453 430.5,441C 434.037,437.631 437.371,434.131 440.5,430.5 Z"/></g>
<g><path style="opacity:0.93" fill="#ff4200" d="M 356.5,303.5 C 390.082,300.531 413.915,314.198 428,344.5C 437.669,376.493 429.169,402.326 402.5,422C 384.064,432.264 364.73,434.264 344.5,428C 313.74,413.66 300.24,389.493 304,355.5C 310.77,327.23 328.27,309.896 356.5,303.5 Z M 366.5,319.5 C 362.637,320.327 358.637,321.161 354.5,322C 328.963,331.226 317.797,349.393 321,376.5C 329.095,404.303 347.595,416.803 376.5,414C 404.077,405.746 416.577,387.246 414,358.5C 407.352,334.354 391.518,321.354 366.5,319.5 Z"/></g>
<g><path style="opacity:0.93" fill="#ff4200" d="M 359.5,335.5 C 362.167,335.5 364.833,335.5 367.5,335.5C 367.5,341.167 367.5,346.833 367.5,352.5C 358.167,353.167 353.167,358.167 352.5,367.5C 346.833,367.5 341.167,367.5 335.5,367.5C 336.261,351.28 344.261,340.613 359.5,335.5 Z"/></g>
</svg>
