<?xml version="1.0" encoding="UTF-8"?>
<svg version="1.1" xmlns="http://www.w3.org/2000/svg" width="512" height="512">
<path d="M0 0 C0.66 -0.0103125 1.32 -0.020625 2 -0.03125 C4.98174986 0.76077731 6.16411059 2.04673186 8 4.5 C8.390625 7.515625 8.390625 7.515625 8.25 10.75 C8.21390625 11.82765625 8.1778125 12.9053125 8.140625 14.015625 C8.09421875 14.83546875 8.0478125 15.6553125 8 16.5 C8.57363281 16.46519531 9.14726562 16.43039063 9.73828125 16.39453125 C49.02380753 15.14264043 89.96255653 35.11750147 118.375 61.125 C120.25754845 62.90873366 122.13301645 64.69998143 124 66.5 C125.23943359 67.6446875 125.23943359 67.6446875 126.50390625 68.8125 C154.52795245 95.44209126 174.90560729 137.77902194 176.09765625 176.6875 C176.08025391 178.0796875 176.08025391 178.0796875 176.0625 179.5 C176.05347656 180.44875 176.04445313 181.3975 176.03515625 182.375 C176.02355469 183.07625 176.01195312 183.7775 176 184.5 C176.81984375 184.45359375 177.6396875 184.4071875 178.484375 184.359375 C179.56203125 184.32328125 180.6396875 184.2871875 181.75 184.25 C182.81734375 184.20359375 183.8846875 184.1571875 184.984375 184.109375 C188 184.5 188 184.5 190.359375 186.265625 C192.09023982 188.62289805 192.54492653 189.62470206 192.5 192.5 C192.51546875 193.49 192.51546875 193.49 192.53125 194.5 C191.73922269 197.48174986 190.45326814 198.66411059 188 200.5 C184.984375 200.890625 184.984375 200.890625 181.75 200.75 C180.67234375 200.71390625 179.5946875 200.6778125 178.484375 200.640625 C177.66453125 200.59421875 176.8446875 200.5478125 176 200.5 C176.03480469 201.07363281 176.06960938 201.64726562 176.10546875 202.23828125 C177.35735957 241.52380753 157.38249853 282.46255653 131.375 310.875 C129.59126634 312.75754845 127.80001857 314.63301645 126 316.5 C124.8553125 317.73943359 124.8553125 317.73943359 123.6875 319.00390625 C98.36772748 345.64954524 62.84671674 361.49567495 27 367.5 C26.236875 367.63148438 25.47375 367.76296875 24.6875 367.8984375 C19.14982738 368.72462253 13.58219973 368.59235257 8 368.5 C8.04640625 369.31984375 8.0928125 370.1396875 8.140625 370.984375 C8.17671875 372.06203125 8.2128125 373.1396875 8.25 374.25 C8.29640625 375.31734375 8.3428125 376.3846875 8.390625 377.484375 C8 380.5 8 380.5 6.234375 382.859375 C3.87710195 384.59023982 2.87529794 385.04492653 0 385 C-0.99 385.01546875 -0.99 385.01546875 -2 385.03125 C-4.98174986 384.23922269 -6.16411059 382.95326814 -8 380.5 C-8.390625 377.484375 -8.390625 377.484375 -8.25 374.25 C-8.21390625 373.17234375 -8.1778125 372.0946875 -8.140625 370.984375 C-8.09421875 370.16453125 -8.0478125 369.3446875 -8 368.5 C-9.00075562 368.52827881 -9.00075562 368.52827881 -10.02172852 368.55712891 C-16.83725545 368.66549144 -23.23669581 368.0889349 -29.9375 366.875 C-30.93112549 366.69606201 -31.92475098 366.51712402 -32.94848633 366.33276367 C-67.98575892 359.72022102 -98.4307751 343.1521078 -124 318.5 C-124.82628906 317.736875 -125.65257812 316.97375 -126.50390625 316.1875 C-153.15513304 290.86241772 -168.9948903 255.3514012 -175 219.5 C-175.19722656 218.3553125 -175.19722656 218.3553125 -175.3984375 217.1875 C-176.22462253 211.64982738 -176.09235257 206.08219973 -176 200.5 C-176.81984375 200.54640625 -177.6396875 200.5928125 -178.484375 200.640625 C-179.56203125 200.67671875 -180.6396875 200.7128125 -181.75 200.75 C-182.81734375 200.79640625 -183.8846875 200.8428125 -184.984375 200.890625 C-188 200.5 -188 200.5 -190.359375 198.734375 C-192.09023982 196.37710195 -192.54492653 195.37529794 -192.5 192.5 C-192.51546875 191.51 -192.51546875 191.51 -192.53125 190.5 C-191.73922269 187.51825014 -190.45326814 186.33588941 -188 184.5 C-184.984375 184.109375 -184.984375 184.109375 -181.75 184.25 C-180.67234375 184.28609375 -179.5946875 184.3221875 -178.484375 184.359375 C-177.66453125 184.40578125 -176.8446875 184.4521875 -176 184.5 C-176.05220703 183.63955078 -176.05220703 183.63955078 -176.10546875 182.76171875 C-177.35736441 143.47604068 -157.42653392 102.54779668 -131.375 74.125 C-129.59126634 72.24245155 -127.80001857 70.36698355 -126 68.5 C-125.236875 67.67371094 -124.47375 66.84742188 -123.6875 65.99609375 C-96.52091315 37.40693225 -54.76123234 18.19923782 -15.3828125 16.328125 C-12.91045028 16.315543 -10.46712638 16.35030919 -8 16.5 C-8.04640625 15.68015625 -8.0928125 14.8603125 -8.140625 14.015625 C-8.17671875 12.93796875 -8.2128125 11.8603125 -8.25 10.75 C-8.29640625 9.68265625 -8.3428125 8.6153125 -8.390625 7.515625 C-8 4.5 -8 4.5 -6.234375 2.140625 C-3.87710195 0.40976018 -2.87529794 -0.04492653 0 0 Z M-90 60.5 C-91.52753906 61.60408203 -91.52753906 61.60408203 -93.0859375 62.73046875 C-127.52623986 88.19598194 -151.05780685 125.01792252 -158 167.5 C-158.19722656 168.68335938 -158.19722656 168.68335938 -158.3984375 169.890625 C-158.90222229 173.34903953 -159.03546527 176.74019857 -159.01953125 180.2265625 C-159.01671143 181.02916504 -159.0138916 181.83176758 -159.01098633 182.65869141 C-159.00736084 183.26632324 -159.00373535 183.87395508 -159 184.5 C-157.43318481 184.52187378 -157.43318481 184.52187378 -155.8347168 184.54418945 C-151.95985655 184.60215551 -148.08557849 184.67938774 -144.21118164 184.76245117 C-142.53419441 184.79570863 -140.85709503 184.82373808 -139.17993164 184.84643555 C-136.76920775 184.87996737 -134.35951238 184.93227978 -131.94921875 184.98828125 C-131.19912033 184.99467117 -130.44902191 185.0010611 -129.67619324 185.00764465 C-124.48304271 185.15438853 -124.48304271 185.15438853 -122.02807617 186.91088867 C-120.74349107 188.89648935 -120.59823379 190.14457381 -120.625 192.5 C-120.61339844 193.5209375 -120.61339844 193.5209375 -120.6015625 194.5625 C-121.14954961 197.22722163 -121.76994004 197.90441791 -124 199.5 C-126.72024096 199.83098913 -129.22459295 199.98850826 -131.94921875 200.01171875 C-132.72183548 200.02966995 -133.49445221 200.04762115 -134.29048157 200.06611633 C-136.756099 200.12026104 -139.22152243 200.15412731 -141.6875 200.1875 C-143.36005306 200.22066952 -145.03258051 200.25515885 -146.70507812 200.29101562 C-150.8032455 200.37598949 -154.90135494 200.4427802 -159 200.5 C-159.11154658 206.47067749 -158.83550248 212.05838905 -157.8125 217.9375 C-157.6786792 218.70900391 -157.5448584 219.48050781 -157.40698242 220.27539062 C-149.97789325 261.10020154 -126.53851602 298.97228465 -92.4375 322.91625977 C-67.93415791 339.58055189 -38.01059226 352.03011841 -8 351.5 C-7.98541748 350.45545654 -7.97083496 349.41091309 -7.95581055 348.3347168 C-7.89784449 344.45985655 -7.82061226 340.58557849 -7.73754883 336.71118164 C-7.70429137 335.03419441 -7.67626192 333.35709503 -7.65356445 331.67993164 C-7.62003263 329.26920775 -7.56772022 326.85951238 -7.51171875 324.44921875 C-7.50532883 323.69912033 -7.4989389 322.94902191 -7.49235535 322.17619324 C-7.34561147 316.98304271 -7.34561147 316.98304271 -5.58911133 314.52807617 C-3.60351065 313.24349107 -2.35542619 313.09823379 0 313.125 C0.680625 313.11726563 1.36125 313.10953125 2.0625 313.1015625 C4.72722163 313.64954961 5.40441791 314.26994004 7 316.5 C7.33098913 319.22024096 7.48850826 321.72459295 7.51171875 324.44921875 C7.52966995 325.22183548 7.54762115 325.99445221 7.56611633 326.79048157 C7.62026104 329.256099 7.65412731 331.72152243 7.6875 334.1875 C7.72066952 335.86005306 7.75515885 337.53258051 7.79101562 339.20507812 C7.87598949 343.3032455 7.9427802 347.40135494 8 351.5 C13.98968906 351.6120119 19.60079753 351.33248344 25.5 350.3125 C26.65786011 350.11394409 26.65786011 350.11394409 27.83911133 349.91137695 C68.66552061 342.51218748 106.51482958 318.97792351 130.41625977 284.9375 C145.96413498 262.07574852 159.14810513 232.8757808 159.01953125 204.76953125 C159.01671143 203.96749268 159.0138916 203.1654541 159.01098633 202.33911133 C159.00736084 201.73220459 159.00373535 201.12529785 159 200.5 C157.95545654 200.48541748 156.91091309 200.47083496 155.8347168 200.45581055 C151.95985655 200.39784449 148.08557849 200.32061226 144.21118164 200.23754883 C142.53419441 200.20429137 140.85709503 200.17626192 139.17993164 200.15356445 C136.76920775 200.12003263 134.35951238 200.06772022 131.94921875 200.01171875 C131.19912033 200.00532883 130.44902191 199.9989389 129.67619324 199.99235535 C124.48304271 199.84561147 124.48304271 199.84561147 122.02807617 198.08911133 C120.74349107 196.10351065 120.59823379 194.85542619 120.625 192.5 C120.61726563 191.819375 120.60953125 191.13875 120.6015625 190.4375 C121.14954961 187.77277837 121.76994004 187.09558209 124 185.5 C126.72024096 185.16901087 129.22459295 185.01149174 131.94921875 184.98828125 C132.72183548 184.97033005 133.49445221 184.95237885 134.29048157 184.93388367 C136.756099 184.87973896 139.22152243 184.84587269 141.6875 184.8125 C143.36005306 184.77933048 145.03258051 184.74484115 146.70507812 184.70898438 C150.8032455 184.62401051 154.90135494 184.5572198 159 184.5 C159.1120119 178.51031094 158.83248344 172.89920247 157.8125 167 C157.61394409 165.84213989 157.61394409 165.84213989 157.41137695 164.66088867 C149.99644765 123.7476319 126.41373965 85.93573014 92.29907227 62.01342773 C72.91165991 48.80021409 51.59578921 39.42775041 28.5 35.125 C27.60466553 34.95718018 26.70933105 34.78936035 25.78686523 34.61645508 C19.81242748 33.58901813 14.05630241 33.30972412 8 33.5 C7.98541748 34.54454346 7.97083496 35.58908691 7.95581055 36.6652832 C7.89784449 40.54014345 7.82061226 44.41442151 7.73754883 48.28881836 C7.70429137 49.96580559 7.67626192 51.64290497 7.65356445 53.32006836 C7.62003263 55.73079225 7.56772022 58.14048762 7.51171875 60.55078125 C7.50532883 61.30087967 7.4989389 62.05097809 7.49235535 62.82380676 C7.34561147 68.01695729 7.34561147 68.01695729 5.58911133 70.47192383 C3.60351065 71.75650893 2.35542619 71.90176621 0 71.875 C-1.0209375 71.88660156 -1.0209375 71.88660156 -2.0625 71.8984375 C-4.72722163 71.35045039 -5.40441791 70.73005996 -7 68.5 C-7.33098913 65.77975904 -7.48850826 63.27540705 -7.51171875 60.55078125 C-7.52966995 59.77816452 -7.54762115 59.00554779 -7.56611633 58.20951843 C-7.62026104 55.743901 -7.65412731 53.27847757 -7.6875 50.8125 C-7.72066952 49.13994694 -7.75515885 47.46741949 -7.79101562 45.79492188 C-7.87598949 41.6967545 -7.9427802 37.59864506 -8 33.5 C-36.30430427 32.61074017 -67.21539608 44.02877704 -90 60.5 Z " fill="#ff4200" transform="translate(256,63.5)"/>
<path d="M0 0 C0.81730591 -0.00623996 1.63461182 -0.01247993 2.47668457 -0.01890898 C5.21912364 -0.03488145 7.96067912 -0.02221833 10.703125 -0.00964355 C12.66764851 -0.01506279 14.63216796 -0.02218433 16.59667969 -0.03088379 C21.93548516 -0.04914366 27.27398199 -0.04203856 32.61279297 -0.02936745 C38.19499556 -0.01925361 43.77717139 -0.02862863 49.359375 -0.03491211 C58.73442336 -0.04219322 68.10934576 -0.03258861 77.484375 -0.0135498 C88.32944839 0.00821976 99.17422101 0.00116873 110.01928711 -0.02085543 C119.32383808 -0.03899618 128.6282984 -0.04157422 137.93286133 -0.03110075 C143.49305147 -0.02485855 149.05310015 -0.02405019 154.61328125 -0.0372467 C159.84019072 -0.04878526 165.06671169 -0.04081586 170.2935791 -0.01766968 C172.21406407 -0.01237193 174.13458162 -0.01391451 176.05505371 -0.02272034 C178.67256338 -0.03361744 181.2888206 -0.01998354 183.90625 0 C184.67005981 -0.00892289 185.43386963 -0.01784577 186.2208252 -0.02703905 C189.55105309 0.02243223 191.6244772 0.28946749 194.42430878 2.1506424 C196.39911378 5.19560772 196.45614756 7.11061563 196.46105957 10.73254395 C196.47233887 12.01121338 196.48361816 13.28988281 196.49523926 14.6072998 C196.48746223 16.02209699 196.47926957 17.43689194 196.47070312 18.85168457 C196.47612392 20.34330936 196.48324634 21.8349288 196.49194336 23.32653809 C196.51018504 27.37616085 196.5031059 31.42537618 196.49042702 35.4750061 C196.48030364 39.71190493 196.48969085 43.94876875 196.49597168 48.18566895 C196.50325003 55.30096707 196.49365552 62.41609915 196.47460938 69.53137207 C196.45284019 77.75896257 196.45989143 85.9861566 196.481915 94.21373749 C196.5000637 101.27627711 196.50262994 108.33869734 196.49216032 115.40125275 C196.48592244 119.62006632 196.48509774 123.8386935 196.49830627 128.05749512 C196.50985656 132.0237383 196.50185462 135.98947006 196.47872925 139.95565796 C196.47343768 141.41172435 196.47496366 142.86783374 196.48377991 144.32388306 C196.49469934 146.31034819 196.478582 148.29690733 196.46105957 150.2833252 C196.45955147 151.39534302 196.45804337 152.50736084 196.45648956 153.65307617 C195.953125 156.50793457 195.953125 156.50793457 194.42430878 158.86522675 C190.98997914 161.14818126 187.89348456 161.06244833 183.90625 161.01586914 C183.08894409 161.0221091 182.27163818 161.02834907 181.42956543 161.03477812 C178.68712636 161.05075059 175.94557088 161.03808747 173.203125 161.0255127 C171.23860149 161.03093193 169.27408204 161.03805347 167.30957031 161.04675293 C161.97076484 161.0650128 156.63226801 161.0579077 151.29345703 161.04523659 C145.71125444 161.03512275 140.12907861 161.04449777 134.546875 161.05078125 C125.17182664 161.05806236 115.79690424 161.04845775 106.421875 161.02941895 C95.57680161 161.00764938 84.73202899 161.01470041 73.88696289 161.03672457 C64.58241192 161.05486532 55.2779516 161.05744336 45.97338867 161.04696989 C40.41319853 161.04072769 34.85314985 161.03991933 29.29296875 161.05311584 C24.06605928 161.0646544 18.83953831 161.056685 13.6126709 161.03353882 C11.69218593 161.02824107 9.77166838 161.02978365 7.85119629 161.03858948 C5.23368662 161.04948658 2.6174294 161.03585268 0 161.01586914 C-0.76380981 161.02479203 -1.52761963 161.03371491 -2.3145752 161.04290819 C-5.64480309 160.99343691 -7.7182272 160.72640166 -10.51805878 158.86522675 C-12.49286378 155.82026142 -12.54989756 153.90525351 -12.55480957 150.2833252 C-12.56608887 149.00465576 -12.57736816 147.72598633 -12.58898926 146.40856934 C-12.58121223 144.99377215 -12.57301957 143.5789772 -12.56445312 142.16418457 C-12.56987392 140.67255978 -12.57699634 139.18094034 -12.58569336 137.68933105 C-12.60393504 133.63970829 -12.5968559 129.59049296 -12.58417702 125.54086304 C-12.57405364 121.30396421 -12.58344085 117.06710039 -12.58972168 112.8302002 C-12.59700003 105.71490207 -12.58740552 98.59976999 -12.56835938 91.48449707 C-12.54659019 83.25690657 -12.55364143 75.02971254 -12.575665 66.80213165 C-12.5938137 59.73959203 -12.59637994 52.6771718 -12.58591032 45.61461639 C-12.57967244 41.39580282 -12.57884774 37.17717564 -12.59205627 32.95837402 C-12.60360656 28.99213084 -12.59560462 25.02639908 -12.57247925 21.06021118 C-12.56718768 19.60414479 -12.56871366 18.1480354 -12.57752991 16.69198608 C-12.58844934 14.70552095 -12.572332 12.71896181 -12.55480957 10.73254395 C-12.55330147 9.62052612 -12.55179337 8.5085083 -12.55023956 7.36279297 C-12.046875 4.50793457 -12.046875 4.50793457 -10.51805878 2.1506424 C-7.08372914 -0.13231212 -3.98723456 -0.04657919 0 0 Z M3.953125 16.50793457 C5.02480641 20.85042484 5.02480641 20.85042484 8.34741211 23.17980957 C9.07416641 23.67071075 9.80092072 24.16161194 10.54969788 24.66738892 C11.35185226 25.19226898 12.15400665 25.71714905 12.98046875 26.25793457 C14.24031837 27.10217484 14.24031837 27.10217484 15.52561951 27.96347046 C18.3065442 29.82302096 21.09812505 31.66582102 23.890625 33.50793457 C25.82105494 34.79107982 27.75089837 36.07510786 29.68017578 37.35998535 C32.68511603 39.36027416 35.69100705 41.35904202 38.70019531 43.35293579 C44.8349541 47.41954646 50.94148195 51.52423012 57.02253723 55.67071533 C60.86351969 58.28974263 64.71214016 60.89741439 68.56155396 63.50402832 C70.4032369 64.75480032 72.2416987 66.01032868 74.07687378 67.27062988 C76.63843986 69.02777889 79.21193968 70.76590155 81.7890625 72.50012207 C82.54553574 73.02572723 83.30200897 73.5513324 84.08140564 74.09286499 C84.78463455 74.56096588 85.48786346 75.02906677 86.21240234 75.51135254 C86.81772797 75.9235202 87.42305359 76.33568787 88.04672241 76.76034546 C90.70677691 77.80347653 92.25038498 77.33719013 94.953125 76.50793457 C96.99206026 75.49489497 96.99206026 75.49489497 98.92504883 74.1607666 C99.6778714 73.66642624 100.43069397 73.17208588 101.20632935 72.6627655 C102.01609222 72.11924942 102.8258551 71.57573334 103.66015625 71.01574707 C104.52228729 70.44616776 105.38441833 69.87658844 106.27267456 69.28974915 C109.10922764 67.41238937 111.93768549 65.52323992 114.765625 63.63293457 C116.72670561 62.32858279 118.6880531 61.0246322 120.6496582 59.72106934 C124.7116854 57.01902475 128.76970299 54.31108496 132.82519531 51.59924316 C137.82425355 48.25783843 142.83525883 44.93493433 147.85096741 41.61859131 C151.56862763 39.15752411 155.27934856 36.68615531 158.98812866 34.21173096 C160.75362846 33.03608525 162.52155226 31.86407146 164.29190063 30.69573975 C166.75284003 29.0697822 169.20364504 27.42959183 171.65234375 25.78527832 C172.38250702 25.30734329 173.11267029 24.82940826 173.86495972 24.33699036 C178.20831223 21.42448433 178.20831223 21.42448433 179.953125 16.50793457 C121.873125 16.50793457 63.793125 16.50793457 3.953125 16.50793457 Z M3.953125 40.50793457 C3.953125 74.82793457 3.953125 109.14793457 3.953125 144.50793457 C62.033125 144.50793457 120.113125 144.50793457 179.953125 144.50793457 C179.953125 110.18793457 179.953125 75.86793457 179.953125 40.50793457 C173.06121783 44.27282455 173.06121783 44.27282455 166.49194336 48.40441895 C165.73390411 48.91756149 164.97586487 49.43070404 164.19485474 49.95939636 C163.40223236 50.50135147 162.60960999 51.04330658 161.79296875 51.60168457 C160.50928909 52.47244377 160.50928909 52.47244377 159.19967651 53.36079407 C157.37252202 54.6002876 155.54635264 55.84123437 153.72109985 57.08352661 C148.92380028 60.34515654 144.11301204 63.58680947 139.3046875 66.83215332 C133.845065 70.51926429 128.38735374 74.20893961 122.94433594 77.92053223 C119.24000779 80.44617685 115.52485832 82.95493959 111.80007935 85.45031738 C110.4549423 86.35620912 109.11423562 87.26871802 107.77828979 88.18811035 C105.93742871 89.45397047 104.08258335 90.69610676 102.22265625 91.93371582 C101.19760986 92.62892334 100.17256348 93.32413086 99.11645508 94.04040527 C95.23361029 95.8417312 92.10887685 96.40499536 87.953125 95.50793457 C84.69745568 94.03936881 81.84948702 92.10698654 78.91796875 90.07824707 C78.05734833 89.50433731 77.19672791 88.93042755 76.31002808 88.33912659 C73.49176488 86.45399043 70.69155033 84.54371404 67.890625 82.63293457 C65.94154335 81.32296787 63.99125146 80.01480021 62.03979492 78.70837402 C58.01518169 76.01022879 53.99750253 73.30221225 49.98535156 70.58557129 C41.46820489 64.82126664 32.90845173 59.12104614 24.34939575 53.41925049 C21.78946069 51.71133704 19.23303488 49.99828768 16.67749023 48.28381348 C15.89084991 47.75718613 15.10420959 47.23055878 14.29373169 46.68797302 C12.824265 45.70419536 11.35592072 44.71873837 9.8888855 43.7313385 C7.13507402 41.51201544 7.13507402 41.51201544 3.953125 40.50793457 Z " fill="#ff4200" transform="translate(164.046875,175.4920654296875)"/>
</svg>
