<?xml version="1.0" encoding="UTF-8"?>
<svg version="1.1" xmlns="http://www.w3.org/2000/svg" width="512" height="512">
<path d="M0 0 C1.11554764 -0.00574036 1.11554764 -0.00574036 2.25363159 -0.01159668 C3.82535151 -0.01431133 5.39711696 -0.00698128 6.96875 0.00976562 C9.33960588 0.03100293 11.70736846 0.0100475 14.078125 -0.015625 C26.30427043 -0.03966784 36.14323813 1.53225732 45.296875 10.30859375 C51.36452107 17.24130582 53.30526382 23.4771705 53.2421875 32.53125 C53.79803654 32.52756283 54.35388557 32.52387566 54.92657852 32.52007675 C68.50002621 32.43144114 82.07342267 32.36565881 95.64709854 32.32400131 C102.21145708 32.30317506 108.77560589 32.27494778 115.33984375 32.22949219 C121.68112993 32.18585799 128.02221504 32.16207561 134.36363983 32.15174103 C136.77641716 32.1443812 139.18918416 32.13000953 141.60187531 32.10832977 C165.87222282 31.89902395 165.87222282 31.89902395 175.2421875 36.53125 C176.03420563 36.91194138 176.82622375 37.29263275 177.64224243 37.68486023 C179.68550204 38.70603618 181.64780879 39.81228928 183.6171875 40.96875 C184.27589844 41.33806641 184.93460938 41.70738281 185.61328125 42.08789062 C188.90482893 43.97578627 191.51471567 45.77432078 194.15625 48.50390625 C196.91656128 50.77945199 196.91656128 50.77945199 199.29174805 50.33129883 C201.71458736 49.56274824 203.94373785 48.61616759 206.2421875 47.53125 C206.99290527 47.19125977 207.74362305 46.85126953 208.51708984 46.50097656 C210.83932342 45.42010057 213.13441797 44.29315475 215.4296875 43.15625 C237.62990705 32.39885748 237.62990705 32.39885748 249.51301575 32.41099548 C250.55483002 32.40962082 251.59664429 32.40824615 252.67002869 32.40682983 C254.36827538 32.41222275 254.36827538 32.41222275 256.10083008 32.41772461 C257.30124939 32.41757858 258.5016687 32.41743256 259.73846436 32.4172821 C263.02113856 32.41785852 266.30376988 32.4228666 269.58643556 32.42985606 C273.02040561 32.43611623 276.45437656 32.43669551 279.88835144 32.43788147 C286.38702302 32.44098694 292.88567773 32.44918974 299.3843419 32.45923096 C306.78455654 32.47041646 314.18477201 32.47590869 321.584993 32.48092639 C336.8040676 32.49137301 352.02312537 32.50895726 367.2421875 32.53125 C367.3021843 31.91509827 367.36218109 31.29894653 367.42399597 30.66412354 C367.50732681 29.85489441 367.59065765 29.04566528 367.67651367 28.21191406 C367.75713547 27.41013733 367.83775726 26.6083606 367.92082214 25.7822876 C368.80186442 19.61093386 372.82477425 12.8292737 377.2421875 8.53125 C385.21482941 3.03714962 392.0752692 0.22353394 401.74609375 0.1953125 C402.94745216 0.1853273 402.94745216 0.1853273 404.17308044 0.17514038 C405.8581209 0.1650596 407.54320091 0.16032194 409.22827148 0.16064453 C411.80063386 0.15625691 414.37129834 0.11985207 416.94335938 0.08203125 C418.58593167 0.07616488 420.22851206 0.07219429 421.87109375 0.0703125 C422.63579483 0.05594147 423.40049591 0.04157043 424.18836975 0.02676392 C427.60729216 0.05594119 429.95157652 0.36674612 432.94473171 2.06105804 C436.04969954 5.39947552 435.93792107 8.20343388 435.87037659 12.54016113 C435.87747097 13.35338349 435.88456536 14.16660584 435.89187473 15.0044713 C435.90949673 17.73327734 435.8913292 20.46066689 435.87329102 23.18945312 C435.87842824 25.14412587 435.88570802 27.098794 435.89497375 29.05345154 C435.913521 34.36547108 435.9005281 39.67699004 435.88088346 44.98898888 C435.86452313 50.54316181 435.8733062 56.09730239 435.87840271 61.65148926 C435.88292659 70.97949235 435.8670355 80.30729511 435.83911133 89.63525391 C435.80705818 100.42580494 435.80707425 111.2159946 435.8243261 122.00657129 C435.84017961 132.3788523 435.83346517 142.75100057 435.81638908 153.12327576 C435.80950928 157.54108708 435.81056059 161.95879231 435.81793404 166.37660217 C435.82558466 171.57726413 435.81351063 176.77751392 435.78608513 181.97810555 C435.77918737 183.88890929 435.77911815 185.79975143 435.78630066 187.71055412 C435.79496358 190.31494526 435.77909373 192.91805511 435.7568512 195.52233887 C435.76509196 196.28225773 435.77333273 197.0421766 435.78182322 197.82512331 C435.72776137 201.24417729 435.48325677 203.19883307 433.45223904 205.99945831 C430.07097442 208.34302042 426.63985558 208.10260732 422.671875 208.0625 C421.83560577 208.0663269 420.99933655 208.07015381 420.13772583 208.07409668 C418.36752113 208.07681624 416.59727628 208.06945189 414.82714844 208.05273438 C412.14684721 208.03148514 409.46927601 208.05244867 406.7890625 208.078125 C394.59130569 208.0990001 385.17511041 207.08287193 375.9375 198.40625 C373.19731014 195.37562527 370.2421875 191.77163795 370.2421875 187.53125 C369.65695312 187.55630615 369.07171875 187.5813623 368.46875 187.60717773 C365.39347315 187.73444848 362.31785545 187.85130612 359.2421875 187.96875 C358.02080078 188.01966797 356.79941406 188.07058594 355.54101562 188.12304688 C347.28700552 188.4414631 339.04975096 188.55040336 330.78930664 188.51686096 C325.71962863 188.49942111 320.65023207 188.51568888 315.58056641 188.53250122 C313.02159169 188.53166706 310.462572 188.51479902 307.90380859 188.48190308 C304.25496221 188.43685887 300.60991735 188.44742994 296.9609375 188.46875 C295.8536731 188.44099991 294.74640869 188.41324982 293.60559082 188.38465881 C290.55906794 188.43251254 288.12626264 188.54264197 285.2421875 189.53125 C282.81404698 192.27601134 281.60867912 195.16853374 280.2421875 198.53125 C274.96025798 204.64171748 268.3127569 208.52242883 260.2421875 209.53125 C253.68663194 209.75347222 253.68663194 209.75347222 251.2421875 208.53125 C250.9328125 210.4803125 250.9328125 210.4803125 250.6171875 212.46875 C248.90259706 219.98929841 245.11217789 225.53413218 238.8046875 229.96875 C231.57386164 234.31205805 224.57373156 235.3525022 216.2421875 234.53125 C213.38979878 233.75536439 210.9473553 232.75623165 208.2421875 231.53125 C207.96246094 232.17191406 207.68273437 232.81257812 207.39453125 233.47265625 C203.39799693 242.09540393 198.73400049 248.26217733 189.69140625 251.80859375 C181.47107987 254.2340489 174.04001726 254.15360763 166.2421875 250.53125 C160.73687541 247.4534264 155.49725355 244.01468603 150.2421875 240.53125 C149.35160645 239.94617676 148.46102539 239.36110352 147.54345703 238.75830078 C133.47342216 229.51200332 119.61285384 219.97988056 105.81787109 210.32958984 C100.23092988 206.42879278 94.61722548 202.56741513 88.98828125 198.72753906 C87.24402235 197.5325071 85.50846026 196.32557749 83.7734375 195.1171875 C82.18015625 194.02277344 82.18015625 194.02277344 80.5546875 192.90625 C79.64332031 192.27460938 78.73195313 191.64296875 77.79296875 190.9921875 C72.55008077 187.98936957 66.65612195 188.16346607 60.7421875 187.96875 C59.90042969 187.90623047 59.05867188 187.84371094 58.19140625 187.77929688 C55.6468835 187.71317935 53.67358229 187.76481056 51.2421875 188.53125 C49.00388808 190.92786901 47.70893664 193.62228048 46.2421875 196.53125 C44.35546875 198.703125 44.35546875 198.703125 42.5546875 200.28125 C41.68263672 201.07789063 41.68263672 201.07789063 40.79296875 201.890625 C31.46643875 207.88931198 22.68216713 208.16194808 11.89941406 208.05273438 C9.35126525 208.03111491 6.80588041 208.05270299 4.2578125 208.078125 C2.63020214 208.07548463 1.00259349 208.07036567 -0.625 208.0625 C-1.38231415 208.07059692 -2.1396283 208.07869385 -2.91989136 208.08703613 C-6.12604488 208.02995355 -8.29298237 207.85510627 -10.95638943 205.99945831 C-13.43777085 202.59960942 -13.31641453 199.5740938 -13.2724762 195.52233887 C-13.27942172 194.70911651 -13.28636725 193.89589416 -13.29352325 193.0580287 C-13.31183919 190.32942353 -13.30151643 187.6016833 -13.29125977 184.87304688 C-13.29831588 182.9183741 -13.3070596 180.96370679 -13.31736755 179.00904846 C-13.33990457 173.69711346 -13.3369119 168.38547579 -13.32804608 163.07351112 C-13.32294316 158.64232651 -13.33022301 154.21119811 -13.33751816 149.78001928 C-13.35453054 139.32904509 -13.3509374 128.87821686 -13.33422852 118.42724609 C-13.31730005 107.63665748 -13.33314882 96.84647317 -13.3654514 86.05592871 C-13.39211823 76.7980822 -13.39943133 67.54036178 -13.39093632 58.28248072 C-13.38599932 52.75019515 -13.38826464 47.218153 -13.40872383 41.68589783 C-13.42703562 36.48519172 -13.42117737 31.28506893 -13.39652443 26.08439445 C-13.39150248 24.17358125 -13.395042 22.26272394 -13.40767288 20.35194588 C-13.42353081 17.74734071 -13.40872283 15.14467361 -13.38600159 12.54016113 C-13.39783732 11.78024227 -13.40967304 11.0203234 -13.42186743 10.23737669 C-13.35492315 6.47201169 -13.05859311 4.85209038 -10.443923 2.06304169 C-6.95284819 0.07220796 -3.91471075 -0.04494335 0 0 Z M3.2421875 17.53125 C3.2421875 74.62125 3.2421875 131.71125 3.2421875 190.53125 C23.40233894 192.35042611 23.40233894 192.35042611 32.2421875 186.53125 C37.61220038 180.18824083 36.80883315 172.94489397 36.75976562 164.98632812 C36.76519136 163.50898042 36.77231655 162.03163814 36.78100586 160.55430603 C36.79918878 156.55630833 36.79219272 152.55872508 36.77948952 148.56072044 C36.76933564 144.36928598 36.77876181 140.17788611 36.78503418 135.9864502 C36.79230365 128.9487473 36.78274133 121.91121251 36.76367188 114.87353516 C36.7419044 106.74648265 36.74895627 98.61983158 36.7709775 90.49278879 C36.78915152 83.50487545 36.79168006 76.5170827 36.78122282 69.52915335 C36.77499886 65.3600313 36.7741219 61.19109772 36.78736877 57.02198792 C36.79895593 53.10165758 36.79084986 49.18184292 36.76779175 45.26156807 C36.76251986 43.82611 36.76399238 42.39060824 36.77284241 40.95516777 C37.0082735 30.45067978 37.0082735 30.45067978 32.2421875 21.53125 C23.40233894 15.71207389 23.40233894 15.71207389 3.2421875 17.53125 Z M388.59765625 22.03125 C384.9524362 26.71273662 384.11772985 29.66074906 384.10174561 35.508255 C384.09603546 36.75741699 384.09032532 38.00657898 384.08444214 39.29359436 C384.08319679 40.68051138 384.0820717 42.0674285 384.08105469 43.4543457 C384.07642603 44.91301601 384.07140131 46.3716851 384.06600952 47.83035278 C384.05288787 51.79532712 384.046441 55.76028453 384.04199886 59.72527719 C384.03906769 62.20264365 384.03496279 64.68000548 384.03049469 67.15736961 C384.01682023 74.909054 384.00715338 82.66072782 384.0032928 90.41242343 C383.99881236 99.35951006 383.98126495 108.3064439 383.9522922 117.25348407 C383.93067278 124.16993247 383.92058838 131.08633789 383.91925168 138.00281972 C383.91820381 142.1333972 383.91230003 146.26383104 383.89443207 150.39437294 C383.87794688 154.2808813 383.87579796 158.1671381 383.88457108 162.05366898 C383.88534122 163.47827135 383.88100164 164.90288726 383.87111282 166.32745552 C383.85838237 168.27602715 383.86606582 170.22469996 383.87469482 172.17329407 C383.87322826 173.26264409 383.8717617 174.35199411 383.8702507 175.47435474 C384.38259107 179.6852068 385.87120687 183.06259136 388.77734375 186.17578125 C399.51679023 194.38829915 398.48742287 190.53125 419.2421875 190.53125 C419.2421875 133.44125 419.2421875 76.35125 419.2421875 17.53125 C402.13896282 15.71286154 402.13896282 15.71286154 388.59765625 22.03125 Z M53.2421875 49.53125 C53.2421875 89.46125 53.2421875 129.39125 53.2421875 170.53125 C61.1621875 171.19125 69.0821875 171.85125 77.2421875 172.53125 C87.31997665 175.89051305 87.31997665 175.89051305 92.3671875 179.71875 C93.59113242 180.62547634 94.81649636 181.53028909 96.04296875 182.43359375 C97.04577881 183.17778564 97.04577881 183.17778564 98.06884766 183.93701172 C102.18205205 186.95422411 106.36861612 189.86638758 110.5546875 192.78125 C111.50770752 193.44503662 112.46072754 194.10882324 113.44262695 194.79272461 C125.70049671 203.2881516 138.13822544 211.51553566 150.56997681 219.75328064 C154.44831096 222.32717779 158.30470063 224.92946212 162.140625 227.56640625 C163.38622192 228.4176709 163.38622192 228.4176709 164.65698242 229.28613281 C166.10835243 230.28084123 167.55442669 231.28335117 168.9934082 232.29589844 C172.72529915 234.84148973 175.69915532 236.30057418 180.2421875 236.53125 C184.49835224 235.28375344 186.72960119 234.1095525 189.6796875 230.78125 C191.53306669 226.92622128 191.84645867 224.76114818 191.2421875 220.53125 C188.45793292 215.57848946 185.21090611 212.5922981 180.7421875 209.28125 C179.49604445 208.33380606 178.25127978 207.38454678 177.0078125 206.43359375 C176.06905273 205.71792236 176.06905273 205.71792236 175.11132812 204.98779297 C171.15376786 201.90383208 167.3742285 198.60197509 163.5703125 195.33203125 C161.46907214 193.32730828 161.46907214 193.32730828 159.2421875 193.53125 C157.92459681 186.46417266 157.92459681 186.46417266 159.2421875 182.59375 C161.2421875 180.53125 161.2421875 180.53125 164.6171875 179.53125 C171.227259 179.53125 175.62324749 184.3607777 180.4921875 188.40625 C186.98066111 193.74183797 193.5805064 198.90205898 200.27270508 203.97900391 C205.068803 207.62074496 209.79197164 211.33175986 214.45703125 215.140625 C217.55895998 217.55700712 220.12183164 217.97864702 224.0703125 217.95703125 C228.0197671 217.18276767 230.62460837 214.45990376 233.2421875 211.53125 C234.90228226 208.21106047 234.95360711 205.09470001 234.2421875 201.53125 C229.56289042 192.8855175 218.83526826 186.49686582 211.2421875 180.53125 C210.55946777 179.9940332 209.87674805 179.45681641 209.17333984 178.90332031 C205.38418274 175.92332932 205.38418274 175.92332932 201.58374023 172.95776367 C195.33344162 168.09044675 195.33344162 168.09044675 194.90625 165.47265625 C194.80145501 159.09064124 194.80145501 159.09064124 196.8671875 156.46875 C199.88319006 155.27822267 202.01033676 155.27093984 205.2421875 155.53125 C207.63671875 156.7890625 207.63671875 156.7890625 210.0546875 158.65625 C211.0034375 159.38457031 211.9521875 160.11289062 212.9296875 160.86328125 C218.31864603 165.17212525 223.63051148 169.57611019 228.94140625 173.98046875 C232.88566948 177.24538814 236.85642679 180.473376 240.8671875 183.65625 C241.41028564 184.09300049 241.95338379 184.52975098 242.51293945 184.97973633 C248.91715965 190.13778851 248.91715965 190.13778851 256.5 192.87890625 C262.41251888 191.97594835 265.00105602 189.48546877 268.6171875 184.71875 C269.60763237 181.25219297 269.48344281 177.88076809 268.2421875 174.53125 C264.90533204 170.81899831 261.12145744 167.61313582 257.3046875 164.40625 C256.74910156 163.93687012 256.19351563 163.46749023 255.62109375 162.98388672 C250.84269487 158.97477806 245.95423074 155.11333928 241.00024414 151.32373047 C231.68906785 144.13649127 231.68906785 144.13649127 230.6484375 140.3984375 C230.7821013 137.55808175 230.95981401 135.09599699 232.2421875 132.53125 C235.476307 130.91419025 238.74229647 130.99834145 242.2421875 131.53125 C244.75156631 133.02194051 246.59385964 134.32723153 248.7421875 136.21875 C249.32967773 136.70770752 249.91716797 137.19666504 250.52246094 137.70043945 C251.78232306 138.74982855 253.03575343 139.80697942 254.28320312 140.87109375 C257.63730234 143.71355071 261.07174707 146.45684845 264.4921875 149.21875 C268.10598881 152.15364178 271.71423797 155.09432625 275.30078125 158.0625 C276.16832031 158.7740625 277.03585937 159.485625 277.9296875 160.21875 C278.65542969 160.82074219 279.38117188 161.42273438 280.12890625 162.04296875 C284.93879128 165.43033695 289.4965376 166.26548112 295.2421875 165.53125 C298.70839544 164.14476682 299.9807693 162.90594941 302.1171875 159.84375 C303.47611585 155.84246098 303.83596276 152.50802577 302.2421875 148.53125 C298.50556597 144.32057947 294.11854178 140.86133607 289.7421875 137.34375 C289.03586182 136.77422607 288.32953613 136.20470215 287.60180664 135.61791992 C285.48603676 133.91715636 283.36530389 132.2228304 281.2421875 130.53125 C280.65808105 130.06460938 280.07397461 129.59796875 279.47216797 129.1171875 C272.70944975 123.73761528 265.77531848 118.88131443 258.49609375 114.234375 C253.78558902 111.1335396 250.33801129 107.67812905 247.05078125 103.05078125 C246.15552734 102.29861328 246.15552734 102.29861328 245.2421875 101.53125 C241.16279739 101.93189621 237.75506413 102.98262426 234.0222168 104.63256836 C233.03066086 105.06649399 232.03910492 105.50041962 231.01750183 105.94749451 C229.96114029 106.41728226 228.90477875 106.88707001 227.81640625 107.37109375 C225.55274763 108.36135843 223.28907533 109.35159183 221.02539062 110.34179688 C217.47628208 111.90420952 213.92838228 113.46932641 210.38110352 115.03588867 C206.94578662 116.55019833 203.50629448 118.05470364 200.06640625 119.55859375 C199.0161174 120.02635727 197.96582855 120.49412079 196.88371277 120.97605896 C182.86389315 127.09761314 168.94698076 128.882105 154.2421875 123.53125 C146.86582378 120.08825138 140.67917253 115.76360021 137.1796875 108.25 C134.45318284 100.55736185 134.56125306 92.73223737 137.8671875 85.21875 C141.85061198 78.4253444 148.09144524 74.72039804 155.14453125 71.6640625 C155.8670961 71.33961151 156.58966095 71.01516052 157.3341217 70.68087769 C159.6111731 69.66145154 161.89509402 68.65864164 164.1796875 67.65625 C165.73811735 66.96203003 167.29606512 66.26672681 168.85351562 65.5703125 C172.64429 63.87806917 176.44131097 62.20067205 180.2421875 60.53125 C176.86545953 57.04509267 174.15752844 54.69943499 169.6796875 52.78125 C168.75027344 52.37390625 167.82085937 51.9665625 166.86328125 51.546875 C163.0390707 50.06506465 159.8023814 49.40617935 155.69903564 49.41099548 C154.79509693 49.40961799 153.89115822 49.40824049 152.95982742 49.40682125 C151.4777939 49.41221841 151.4777939 49.41221841 149.96582031 49.41772461 C148.3741913 49.41754381 148.3741913 49.41754381 146.75040817 49.41735935 C143.31535497 49.4181058 139.880356 49.42572189 136.4453125 49.43359375 C134.3247073 49.435064 132.20410173 49.4360842 130.08349609 49.43664551 C122.21972103 49.44188878 114.35595373 49.45584997 106.4921875 49.46875 C88.9196875 49.489375 71.3471875 49.51 53.2421875 49.53125 Z M225.76953125 57.296875 C225.01511246 57.64763092 224.26069366 57.99838684 223.4834137 58.35977173 C221.04604095 59.49437669 218.61288818 60.63772934 216.1796875 61.78125 C213.59925753 62.98557862 211.01781318 64.18771421 208.43630981 65.38973999 C206.6747899 66.21013452 204.91362194 67.03128515 203.15280151 67.85317993 C197.16697855 70.64500114 191.16596542 73.40142095 185.15234375 76.1328125 C184.35239487 76.49644897 183.55244598 76.86008545 182.72825623 77.23474121 C179.65392444 78.63164297 176.57932911 80.02792189 173.50216675 81.4185791 C171.40374214 82.36725812 169.30720512 83.32000386 167.2109375 84.2734375 C166.02951172 84.8082373 164.84808594 85.34303711 163.63085938 85.89404297 C157.07193003 88.83033472 157.07193003 88.83033472 151.7421875 93.40625 C151.0112301 96.51281895 151.30655112 98.47483781 152.2421875 101.53125 C156.45281878 106.70431129 161.59620404 109.75846123 168.2421875 110.53125 C182.8078662 111.91845749 197.70575075 102.85319434 210.7421875 97.09375 C212.43860263 96.34785351 214.13521645 95.60240872 215.83203125 94.85742188 C216.66285721 94.49253159 217.49368317 94.1276413 218.34968567 93.75169373 C219.99386803 93.02984944 221.63814345 92.30821709 223.28251648 91.58680725 C224.07189102 91.24048752 224.86126556 90.89416779 225.67456055 90.53735352 C226.82569839 90.03245895 226.82569839 90.03245895 228.00009155 89.5173645 C230.13999977 88.57619402 232.2767694 87.62818205 234.41333008 86.67944336 C235.66473876 86.12973234 236.91627623 85.58031439 238.16796875 85.03125 C239.23700439 84.55816406 240.30604004 84.08507812 241.4074707 83.59765625 C245.3876739 82.10032376 248.05496552 81.82021231 252.2421875 82.53125 C254.80715666 84.59977352 255.97638949 86.83481867 257.3671875 89.78125 C262.84479392 99.7937294 273.13601963 104.15396038 283.6796875 107.24609375 C288.33880439 108.26900884 292.92670767 108.5797002 297.68359375 108.7265625 C299.15820068 108.77441895 299.15820068 108.77441895 300.66259766 108.82324219 C302.65010075 108.87792345 304.63825783 108.91292108 306.62646484 108.92675781 C313.60233386 109.08980795 313.60233386 109.08980795 316.875 111.34765625 C318.87398947 114.540328 318.71075152 116.84967555 318.2421875 120.53125 C316.69955937 122.63483381 315.56110433 123.37179159 313.2421875 124.53125 C311.37161959 124.7587515 309.49532792 124.94087811 307.6171875 125.09375 C306.61429688 125.17753906 305.61140625 125.26132812 304.578125 125.34765625 C303.80726563 125.40824219 303.03640625 125.46882813 302.2421875 125.53125 C304.04250213 127.40357721 305.81792398 129.20953358 307.890625 130.78125 C314.01234037 135.48614915 317.75327911 141.9195857 319.2421875 149.53125 C319.81689638 155.31149507 319.03907675 160.06993502 316.99609375 165.48828125 C316.25883585 167.48613556 315.74234023 169.46350266 315.2421875 171.53125 C321.52269624 171.55668977 327.80319159 171.57415455 334.08374023 171.58618164 C336.21851091 171.59119778 338.35327817 171.59801224 340.48803711 171.60668945 C343.56364792 171.61887435 346.63921313 171.62450562 349.71484375 171.62890625 C351.13713036 171.63664818 351.13713036 171.63664818 352.58815002 171.64454651 C353.48855515 171.64462204 354.38896027 171.64469757 355.31665039 171.64477539 C356.10052628 171.646996 356.88440216 171.64921661 357.69203186 171.65150452 C360.89368591 171.5005281 364.06918972 170.9845354 367.2421875 170.53125 C367.2421875 130.60125 367.2421875 90.67125 367.2421875 49.53125 C347.5246875 49.44875 327.8071875 49.36625 307.4921875 49.28125 C298.1804834 49.22662598 298.1804834 49.22662598 288.68066406 49.17089844 C283.07785476 49.15751423 283.07785476 49.15751423 277.47503662 49.1494751 C274.99470137 49.14336434 272.51437742 49.12936189 270.03411865 49.10894775 C266.25984299 49.07945705 262.48628851 49.07563299 258.71191406 49.07714844 C257.62151951 49.062756 256.53112495 49.04836357 255.40768814 49.033535 C244.63196635 49.09103961 235.39185487 52.73659621 225.76953125 57.296875 Z " fill="#ff4200" transform="translate(44.7578125,214.46875)"/>
<path d="M0 0 C0.75925781 0.66386719 1.51851562 1.32773438 2.30078125 2.01171875 C2.98785156 2.60339844 3.67492187 3.19507812 4.3828125 3.8046875 C20.25134858 18.48386585 28.52561067 40.82827489 29.71875 62.05078125 C30.56545446 87.36043206 23.6320657 109.20743182 6.30078125 128.01171875 C5.70136719 128.70265625 5.10195313 129.39359375 4.484375 130.10546875 C-10.41194005 146.32089593 -33.05883635 155.01788822 -54.703125 156.171875 C-78.49917055 156.79452466 -100.14727635 149.1704657 -118.07421875 133.51171875 C-119.63419063 132.03076505 -121.17691262 130.5313635 -122.69921875 129.01171875 C-123.3953125 128.32722656 -124.09140625 127.64273438 -124.80859375 126.9375 C-133.55322115 117.76919879 -139.53870322 105.89440326 -143.69921875 94.01171875 C-144.01890625 93.10164063 -144.33859375 92.1915625 -144.66796875 91.25390625 C-151.18700265 68.61837188 -146.79746744 42.46636271 -135.69921875 22.01171875 C-124.02661185 1.80743735 -105.33313011 -11.89690083 -82.9765625 -18.2109375 C-53.51927775 -25.19782626 -23.34670637 -19.54867758 0 0 Z M-112.32421875 19.63671875 C-126.78808699 36.32776671 -131.07643648 55.44977706 -129.69921875 77.01171875 C-127.52418626 95.55297928 -118.00809424 111.43036597 -103.9375 123.3515625 C-86.91712228 136.38999735 -66.52741775 140.42924943 -45.50878906 137.73046875 C-27.81578485 134.67306203 -12.61516003 124.96216383 -1.38671875 111.19921875 C10.69515167 93.62882902 15.40758373 72.85229843 11.640625 51.796875 C7.09620369 32.73391288 -5.03606833 16.01255705 -21.73413086 5.7409668 C-28.71723461 1.64854767 -35.81084518 -1.06772813 -43.69921875 -2.98828125 C-44.83037109 -3.27445313 -44.83037109 -3.27445313 -45.984375 -3.56640625 C-71.27274031 -7.49610906 -94.7354826 1.32885199 -112.32421875 19.63671875 Z " fill="#ff4200" transform="translate(314.69921875,64.98828125)"/>
<path d="M0 0 C0.85218109 -0.0049649 1.70436218 -0.00992981 2.58236694 -0.01504517 C5.40924885 -0.02968317 8.23607466 -0.0364714 11.06298828 -0.04199219 C13.02352908 -0.04774215 14.98406985 -0.0534999 16.9446106 -0.05926514 C21.05877953 -0.0697797 25.17292889 -0.07561943 29.28710938 -0.07910156 C34.56221048 -0.0845882 39.83705371 -0.10861798 45.1120739 -0.13707352 C49.16294107 -0.15568504 53.21374593 -0.1609047 57.26465225 -0.16243744 C59.20953914 -0.1654677 61.15442483 -0.17350876 63.09926987 -0.18662262 C65.81898442 -0.20365259 68.53806645 -0.20181042 71.2578125 -0.1953125 C72.4658252 -0.20913467 72.4658252 -0.20913467 73.69824219 -0.22323608 C76.99928996 -0.19849489 79.33815463 -0.0765693 82.2427063 1.56671143 C84.52812721 3.97099834 84.66769397 5.94281056 84.93408203 9.15722656 C84.65083742 12.3862151 83.04946313 14.00089402 80.75830078 16.16113281 C77.59528206 17.74264217 74.19034355 17.32629623 70.71606445 17.33813477 C69.46946297 17.34799156 69.46946297 17.34799156 68.19767761 17.35804749 C65.44054072 17.37779848 62.68345834 17.38944695 59.92626953 17.39941406 C58.98554407 17.40348959 58.04481861 17.40756512 57.07558632 17.41176414 C52.09669844 17.43263237 47.11783819 17.44693094 42.13891602 17.45629883 C36.99386774 17.46736607 31.84925163 17.50176744 26.70435619 17.54147053 C22.75038341 17.56760437 18.7965141 17.57598778 14.84246254 17.57958031 C12.9458353 17.58445448 11.04921293 17.59609205 9.15266991 17.6146183 C6.49767095 17.63894164 3.84379674 17.63805737 1.1887207 17.63110352 C0.40567566 17.64391357 -0.37736938 17.65672363 -1.18414307 17.66992188 C-4.85829003 17.63485783 -7.04561761 17.28115565 -10.20610046 15.34660339 C-13.02025136 12.32525944 -13.24169922 10.24588228 -13.24169922 6.16113281 C-10.21271436 -0.47378641 -6.68294917 0.0092299 0 0 Z " fill="#ff4200" transform="translate(220.24169921875,123.8388671875)"/>
</svg>
