<?xml version="1.0" encoding="UTF-8"?>
<svg version="1.1" xmlns="http://www.w3.org/2000/svg" width="512" height="512">
<path d="M0 0 C7.51100564 5.48639052 13.90802342 12.26752537 20.47050476 18.82270813 C21.83700515 20.18277093 23.20365094 21.54268766 24.57043457 22.90246582 C27.42406294 25.74416624 30.27357574 28.58992177 33.12065125 31.43818665 C36.75515135 35.07289021 40.40323389 38.69362161 44.05498791 42.31097889 C46.87841017 45.11208622 49.69261672 47.92231592 52.50437355 50.7351284 C53.8450722 52.07347992 55.18898523 53.40862 56.5362606 54.74035072 C73.87498811 71.8975709 73.87498811 71.8975709 74.42753601 84.29536438 C73.74687134 98.97219636 60.43125953 109.16265363 50.74003601 118.81880188 C49.42130371 120.13888423 48.10286818 121.45926311 46.78471375 122.77992249 C44.03444903 125.53312041 41.28063906 128.28270775 38.5242157 131.02973938 C35.00383744 134.53870174 31.49254632 138.05659883 27.9838562 141.5772438 C25.26790756 144.30044068 22.5471873 147.01883016 19.82502747 149.73581696 C18.52867645 151.03084084 17.23378996 152.32733258 15.94044495 153.62535858 C14.12975919 155.44116098 12.31272019 157.2503674 10.49394226 159.05805969 C9.70662216 159.85145248 9.70662216 159.85145248 8.90339661 160.66087341 C1.93300533 167.55332257 -4.51340107 172.00026909 -14.57246399 172.30317688 C-22.43157486 172.13802869 -28.29047911 170.25971319 -34.08808899 164.83442688 C-39.8405585 158.24421909 -41.46332504 151.66434943 -41.02949524 143.01802063 C-39.68889325 130.79488487 -30.31038588 123.59572375 -21.99873352 115.28926086 C-21.19211273 114.4830278 -20.38549194 113.67679474 -19.5544281 112.84613037 C-18.94162994 112.23383072 -18.32883179 111.62153107 -17.69746399 110.99067688 C-18.48715541 110.99007979 -19.27684683 110.9894827 -20.09046829 110.98886752 C-66.89540758 110.95297254 -113.70028237 110.89633196 -160.50516205 110.81275593 C-166.12525202 110.80273849 -171.74534228 110.79289435 -177.36543274 110.78315735 C-178.48429017 110.78121598 -179.60314761 110.7792746 -180.75590982 110.7772744 C-198.87159159 110.74625446 -216.9872607 110.72927376 -235.10296403 110.71748266 C-253.69175245 110.70507108 -272.2804744 110.67756949 -290.86922085 110.63606381 C-302.33920456 110.61092867 -313.80907801 110.59755962 -325.27908964 110.59924731 C-333.14481909 110.59927707 -341.01043624 110.58464745 -348.87612192 110.5585126 C-353.41402809 110.54386697 -357.95170397 110.53566347 -362.48962975 110.54487419 C-366.64761347 110.55317084 -370.80513481 110.54297976 -374.96305002 110.51834026 C-376.46388076 110.512664 -377.96475544 110.51366069 -379.46557282 110.52216443 C-389.02956201 110.57169369 -397.51927498 110.0267318 -405.31855774 103.94770813 C-410.84968138 97.41741377 -414.46467948 90.99848768 -414.04121399 82.15864563 C-412.69825185 73.68882757 -409.53245288 67.19859707 -402.69746399 61.99067688 C-395.10688158 57.11976051 -387.03218144 57.4226849 -378.34075928 57.47169495 C-376.78205952 57.46581381 -375.22336555 57.4581837 -373.66468197 57.44896388 C-369.39792188 57.42875325 -365.13149522 57.4332445 -360.86470926 57.4418714 C-356.25742454 57.44682354 -351.65022278 57.42872227 -347.04296875 57.41345215 C-339.0660352 57.39015426 -331.08919253 57.38139098 -323.11222649 57.38256073 C-311.57896156 57.38423088 -300.04581767 57.36388592 -288.51258505 57.33820543 C-269.79972182 57.29713457 -251.08688038 57.27381408 -232.37397766 57.26167297 C-214.19850063 57.2498425 -196.02306461 57.22964192 -177.84761047 57.19819641 C-176.72686465 57.19626031 -175.60611882 57.19432421 -174.451411 57.19232944 C-168.82883567 57.18256477 -163.20626065 57.17263568 -157.58368576 57.16262484 C-110.95496518 57.07981631 -64.32624321 57.02582199 -17.69746399 56.99067688 C-18.15596741 56.54788391 -18.61447083 56.10509094 -19.08686829 55.64888 C-21.19439837 53.60437638 -23.28964991 51.5476954 -25.38496399 49.49067688 C-26.10619446 48.79458313 -26.82742493 48.09848938 -27.57051086 47.38130188 C-34.92460363 40.12795011 -40.03167909 33.18115382 -41.00996399 22.61567688 C-40.27721061 14.11573764 -37.0429845 7.41585264 -31.07246399 1.30317688 C-22.10763681 -5.73251027 -9.5722552 -5.69172515 0 0 Z M-22.69746399 16.99067688 C-24.32770213 20.25115316 -24.16481749 22.36868723 -23.69746399 25.99067688 C-18.2662102 34.1484832 -9.77324657 40.99127652 -2.82246399 47.86567688 C-0.36387328 50.29770874 2.09139904 52.73302165 4.54472351 55.17036438 C5.10819489 55.72553741 5.67166626 56.28071045 6.25221252 56.85270691 C11.16607404 61.73522673 11.16607404 61.73522673 11.61503601 65.86567688 C11.30253601 68.99067688 11.30253601 68.99067688 9.70039982 71.15477508 C6.52129789 73.58882447 4.60777921 73.49046143 0.62421513 73.49010563 C-0.04918662 73.49551059 -0.72258837 73.50091555 -1.41639623 73.5064843 C-3.68346485 73.51978907 -5.94944662 73.5044998 -8.2164917 73.48947144 C-9.853931 73.49319677 -11.49136708 73.4986847 -13.12879521 73.50578827 C-17.63664834 73.52027491 -22.14415716 73.50984728 -26.65199816 73.49550521 C-31.51030168 73.48441411 -36.36855287 73.49637598 -41.22685242 73.50569153 C-49.64804704 73.51879768 -58.06914246 73.51760704 -66.49033928 73.50709724 C-78.67148281 73.49217736 -90.85250961 73.50205745 -103.03364647 73.51861643 C-122.80285505 73.54509326 -142.57203748 73.55593577 -162.34126282 73.55488586 C-163.52496332 73.55482754 -164.70866383 73.55476922 -165.92823405 73.55470913 C-170.72459967 73.55444327 -175.52096528 73.55412598 -180.31733089 73.55374587 C-193.51931897 73.55277968 -206.72130626 73.55410724 -219.92329407 73.55683899 C-221.69623307 73.55719883 -221.69623307 73.55719883 -223.50498902 73.55756593 C-243.19787878 73.56196929 -262.89074422 73.57818995 -282.58361965 73.60205978 C-294.73717132 73.61614952 -306.89063077 73.61899333 -319.04418565 73.60743689 C-327.3686131 73.60012578 -335.69299404 73.60315723 -344.01741701 73.61439533 C-348.8240678 73.62048146 -353.63058859 73.62152206 -358.43723106 73.60951805 C-362.834635 73.59860179 -367.23180792 73.60133914 -371.62920202 73.61506151 C-373.222701 73.61756431 -374.81621765 73.61494903 -376.4096977 73.60678763 C-378.57118284 73.59642959 -380.73184698 73.60443317 -382.89330196 73.61708927 C-384.09522684 73.61681958 -385.29715172 73.61654989 -386.53549856 73.61627203 C-390.04747686 74.03212152 -391.8930644 74.86908796 -394.69746399 76.99067688 C-397.14609649 80.66362563 -397.52929837 83.72336653 -396.69746399 87.99067688 C-394.16292742 91.21022333 -392.58449094 92.69500123 -388.69746399 93.99067688 C-386.51213909 94.08515189 -384.32397022 94.1172785 -382.13660431 94.11816883 C-381.46375721 94.11981266 -380.79091012 94.12145649 -380.09767371 94.12315014 C-377.8268394 94.12748656 -375.55606861 94.12468338 -373.28523254 94.12197876 C-371.6472352 94.12368011 -370.00923827 94.12582943 -368.37124205 94.12839001 C-364.8015511 94.13299506 -361.23187751 94.13440631 -357.66218376 94.13342476 C-351.85497223 94.13183492 -346.04777799 94.13702768 -340.24057007 94.14305115 C-331.81010951 94.15117079 -323.37965198 94.1561102 -314.94918823 94.15934181 C-301.63215354 94.16483177 -288.31514455 94.18172178 -274.99812317 94.20068359 C-270.44521336 94.20704052 -265.89230349 94.2133489 -261.33939362 94.21966076 C-259.63261619 94.2220364 -259.63261619 94.2220364 -257.89135841 94.22446004 C-244.93398789 94.24240305 -231.97661557 94.25862711 -219.01924133 94.27363586 C-217.24205539 94.27569967 -217.24205539 94.27569967 -215.4289667 94.27780517 C-196.215902 94.29974977 -177.00284389 94.31049481 -157.78976887 94.31800661 C-138.08108346 94.32606764 -118.37245473 94.34932419 -98.66380167 94.38596028 C-86.49725627 94.40802754 -74.3308273 94.41763706 -62.16426289 94.41145995 C-53.83280555 94.40829393 -45.50144791 94.41955854 -37.17002141 94.44235436 C-32.35752461 94.45506643 -27.54524979 94.46113888 -22.73274422 94.44993782 C-18.33223999 94.43982684 -13.93216822 94.44789821 -9.53171545 94.47080078 C-7.93486455 94.47582686 -6.33797535 94.47400728 -4.74114269 94.46486811 C-2.57967361 94.45346437 -0.41970403 94.46637442 1.74167633 94.48566151 C2.94490272 94.48663832 4.14812911 94.48761512 5.38781691 94.48862153 C8.30253601 94.99067688 8.30253601 94.99067688 10.17352724 96.85036534 C11.82455149 99.98028457 11.97839209 101.47622527 11.30253601 104.99067688 C7.51655391 110.46980597 2.28491038 115.02145372 -2.47090149 119.65083313 C-3.38982681 120.54761276 -3.38982681 120.54761276 -4.32731628 121.46250916 C-6.891652 123.96298599 -9.4557157 126.46308764 -12.0436554 128.93916321 C-13.95005696 130.76674652 -15.83663097 132.6129759 -17.72090149 134.46333313 C-18.30624664 135.01457352 -18.8915918 135.5658139 -19.49467468 136.13375854 C-23.25015421 139.86353969 -24.6027607 142.4859453 -24.69746399 147.99067688 C-23.38812064 151.19129395 -22.06255271 152.694659 -19.38496399 154.86567688 C-15.78991807 156.37057982 -14.39361123 156.29519944 -10.69746399 154.99067688 C-2.77289224 149.14831918 4.01544311 141.42323273 10.95487976 134.47114563 C12.26369896 133.16300103 13.57266649 131.85500483 14.8817749 130.54714966 C17.60902285 127.8213682 20.33447318 125.0938056 23.05863953 122.36494446 C26.55462803 118.86322516 30.05513297 115.36606039 33.55696774 111.87018871 C36.25327996 109.17748152 38.94721654 106.48240779 41.64042854 103.78660011 C42.93112816 102.49523283 44.22257265 101.2046096 45.5147686 99.91473961 C47.31225445 98.11978297 49.10652143 96.32167039 50.89994812 94.5226593 C51.43547806 93.98915359 51.971008 93.45564789 52.52276611 92.90597534 C55.33741819 90.0750007 57.04726187 88.33086614 57.80253601 84.36567688 C56.42095381 75.039997 43.32011205 65.86354509 36.78300476 59.33833313 C35.47486016 58.02951393 34.16686396 56.7205464 32.85900879 55.41143799 C30.13322733 52.68419004 27.40566473 49.95873971 24.67680359 47.23457336 C21.17508429 43.73858486 17.67791952 40.23807992 14.18204784 36.73624516 C11.48934065 34.03993293 8.79426692 31.34599635 6.09845924 28.65278435 C4.80709196 27.36208473 3.51646873 26.07064024 2.22659874 24.77844429 C0.4316421 22.98095844 -1.36647048 21.18669146 -3.16548157 19.39326477 C-3.69898727 18.85773483 -4.23249298 18.3222049 -4.78216553 17.77044678 C-8.71607687 13.85339295 -8.71607687 13.85339295 -14.00996399 12.67817688 C-18.27282509 13.0394363 -19.71738453 14.01059742 -22.69746399 16.99067688 Z " fill="#ff4200" transform="translate(425.6974639892578,16.009323120117188)"/>
<path d="M0 0 C1.09824097 -0.00096176 2.19648193 -0.00192352 3.32800293 -0.00291443 C4.57609741 -0.01544754 5.82419189 -0.02798065 7.11010742 -0.04089355 C8.46855716 -0.02862519 9.82699692 -0.01520516 11.1854248 -0.00071716 C12.58260279 -0.00154611 13.97978068 -0.00400649 15.37695312 -0.00802612 C18.30250469 -0.01088241 21.22728992 0.00379847 24.15270996 0.03126526 C27.89902742 0.06534951 31.64397491 0.05932923 35.39035797 0.04060268 C38.27467223 0.03002392 41.15866876 0.0389781 44.04295349 0.0539875 C45.42401689 0.05916346 46.80511354 0.05869458 48.18617249 0.05244255 C50.11760763 0.04698094 52.04905927 0.07023686 53.98034668 0.09474182 C55.07858765 0.1009404 56.17682861 0.10713898 57.30834961 0.11352539 C60.89970729 0.76301764 61.89547473 1.8020692 64.1541748 4.62818909 C64.65442079 7.22993803 64.65442079 7.22993803 64.65474606 10.24732208 C64.66456035 11.39885663 64.67437464 12.55039117 64.68448633 13.7368207 C64.67488132 15.00256284 64.66527632 16.26830499 64.65538025 17.57240295 C64.65927216 18.93006966 64.66491172 20.28773229 64.67215115 21.64538527 C64.68693997 25.3798877 64.67670457 29.11396995 64.66241443 32.84845901 C64.65132784 36.87442737 64.66323955 40.90033567 64.67225647 44.92630005 C64.68620677 52.81461991 64.67861959 60.70277995 64.66358089 68.59109223 C64.64674139 77.77262632 64.64992844 86.95412036 64.65367497 96.13566512 C64.65955683 112.51520416 64.64536921 128.89466638 64.62072754 145.27418518 C64.59680581 161.17688374 64.58972286 177.07947967 64.60021973 192.98219299 C64.6116229 210.28903609 64.61356643 227.59583168 64.59912163 244.9026742 C64.59759575 246.74730078 64.5960754 248.59192736 64.59456062 250.43655396 C64.59380281 251.34420343 64.59304499 252.25185291 64.59226422 253.18700692 C64.58751674 259.59070221 64.58937611 265.99437632 64.59362602 272.39807129 C64.59854711 280.19945323 64.5925933 288.00073802 64.57273173 295.80209768 C64.5628439 299.78434171 64.55777059 303.76643766 64.56562424 307.74868965 C64.57266201 311.39171819 64.56592148 315.03444744 64.54802061 318.67743641 C64.54203668 320.62480505 64.55082061 322.5722016 64.56006712 324.51955748 C64.54740721 326.24685929 64.54740721 326.24685929 64.53449154 328.00905609 C64.53346241 329.00479283 64.53243328 330.00052957 64.53137296 331.02644014 C64.08914652 334.07672595 63.28982603 335.43146941 61.1541748 337.62818909 C58.01748078 338.67375376 55.7702475 338.77360437 52.47692871 338.80519104 C51.3120694 338.81802628 50.14721008 338.83086151 48.947052 338.84408569 C47.68766815 338.85147263 46.4282843 338.85885956 45.1307373 338.86647034 C43.83727386 338.87454208 42.54381042 338.88261383 41.21115112 338.89093018 C38.47243379 338.90594122 35.73374226 338.91578734 32.99499512 338.9233551 C29.49215356 338.93442301 25.98994665 338.96883344 22.48732948 339.0085268 C19.13932423 339.04099901 15.79138787 339.04547157 12.4432373 339.05397034 C11.18790192 339.07147842 9.93256653 339.08898651 8.63919067 339.10702515 C7.46802704 339.10409958 6.2968634 339.10117401 5.09020996 339.09815979 C4.06223297 339.10402603 3.03425598 339.10989227 1.97512817 339.11593628 C-1.58803671 338.49985957 -3.25905575 337.1017957 -5.8458252 334.62818909 C-7.13846608 332.04290733 -6.97481283 330.18561127 -6.98004627 327.2891798 C-6.98450412 326.14921085 -6.98896196 325.00924189 -6.99355489 323.83472842 C-6.99337053 322.57162461 -6.99318617 321.3085208 -6.99299622 320.00714111 C-6.99629402 318.66016766 -7.00001941 317.31319521 -7.00413769 315.96622401 C-7.01417518 312.25207965 -7.01787729 308.53795145 -7.02052701 304.82379544 C-7.02442485 300.82300891 -7.0340035 296.82223525 -7.04273987 292.82145691 C-7.06251835 283.15366586 -7.07257195 273.48587375 -7.08146766 263.81806752 C-7.08584804 259.26858131 -7.09121547 254.71909626 -7.09645653 250.16961098 C-7.11346971 235.05189982 -7.12796498 219.9341894 -7.13520527 204.81647015 C-7.13711525 200.891812 -7.13903557 196.96715385 -7.14099121 193.04249573 C-7.14147495 192.06700725 -7.14195869 191.09151878 -7.14245709 190.08647005 C-7.15076148 174.27604838 -7.17610489 158.46570228 -7.20857189 142.65531363 C-7.24161219 126.43389663 -7.25965126 110.21251807 -7.26284951 93.99106723 C-7.26501735 84.87892238 -7.27380603 75.76688774 -7.29931068 66.65477562 C-7.32097631 58.89619631 -7.32908856 51.13775397 -7.3193439 43.37914785 C-7.31478721 39.41901136 -7.31676437 35.4591577 -7.33610535 31.49905968 C-7.35365278 27.87497088 -7.35280864 24.25137301 -7.33720805 20.62727962 C-7.33368575 18.69245778 -7.34992096 16.75763128 -7.36681253 14.82287997 C-7.35823163 13.67508777 -7.34965074 12.52729557 -7.34080982 11.34472179 C-7.34178663 10.35435616 -7.34276344 9.36399052 -7.34376985 8.3436138 C-6.52519103 3.87968566 -4.48391751 0.98978253 0 0 Z M10.1541748 16.62818909 C10.1541748 117.27818909 10.1541748 217.92818909 10.1541748 321.62818909 C22.6941748 321.62818909 35.2341748 321.62818909 48.1541748 321.62818909 C48.1541748 220.97818909 48.1541748 120.32818909 48.1541748 16.62818909 C35.6141748 16.62818909 23.0741748 16.62818909 10.1541748 16.62818909 Z " fill="#ff4200" transform="translate(211.8458251953125,161.37181091308594)"/>
<path d="M0 0 C1.09824097 -0.00096176 2.19648193 -0.00192352 3.32800293 -0.00291443 C4.57609741 -0.01544754 5.82419189 -0.02798065 7.11010742 -0.04089355 C8.46855716 -0.02862519 9.82699692 -0.01520516 11.1854248 -0.00071716 C12.58260279 -0.00154611 13.97978068 -0.00400649 15.37695312 -0.00802612 C18.30250469 -0.01088241 21.22728992 0.00379847 24.15270996 0.03126526 C27.89902742 0.06534951 31.64397491 0.05932923 35.39035797 0.04060268 C38.27467223 0.03002392 41.15866876 0.0389781 44.04295349 0.0539875 C45.42401689 0.05916346 46.80511354 0.05869458 48.18617249 0.05244255 C50.11760763 0.04698094 52.04905927 0.07023686 53.98034668 0.09474182 C55.07858765 0.1009404 56.17682861 0.10713898 57.30834961 0.11352539 C60.89970729 0.76301764 61.89547473 1.8020692 64.1541748 4.62818909 C64.65442079 7.22993803 64.65442079 7.22993803 64.65474606 10.24732208 C64.66456035 11.39885663 64.67437464 12.55039117 64.68448633 13.7368207 C64.67488132 15.00256284 64.66527632 16.26830499 64.65538025 17.57240295 C64.65927216 18.93006966 64.66491172 20.28773229 64.67215115 21.64538527 C64.68693997 25.3798877 64.67670457 29.11396995 64.66241443 32.84845901 C64.65132784 36.87442737 64.66323955 40.90033567 64.67225647 44.92630005 C64.68620677 52.81461991 64.67861959 60.70277995 64.66358089 68.59109223 C64.64674139 77.77262632 64.64992844 86.95412036 64.65367497 96.13566512 C64.65955683 112.51520416 64.64536921 128.89466638 64.62072754 145.27418518 C64.59680581 161.17688374 64.58972286 177.07947967 64.60021973 192.98219299 C64.6116229 210.28903609 64.61356643 227.59583168 64.59912163 244.9026742 C64.59759575 246.74730078 64.5960754 248.59192736 64.59456062 250.43655396 C64.59380281 251.34420343 64.59304499 252.25185291 64.59226422 253.18700692 C64.58751674 259.59070221 64.58937611 265.99437632 64.59362602 272.39807129 C64.59854711 280.19945323 64.5925933 288.00073802 64.57273173 295.80209768 C64.5628439 299.78434171 64.55777059 303.76643766 64.56562424 307.74868965 C64.57266201 311.39171819 64.56592148 315.03444744 64.54802061 318.67743641 C64.54203668 320.62480505 64.55082061 322.5722016 64.56006712 324.51955748 C64.54740721 326.24685929 64.54740721 326.24685929 64.53449154 328.00905609 C64.53346241 329.00479283 64.53243328 330.00052957 64.53137296 331.02644014 C64.08914652 334.07672595 63.28982603 335.43146941 61.1541748 337.62818909 C58.01748078 338.67375376 55.7702475 338.77360437 52.47692871 338.80519104 C51.3120694 338.81802628 50.14721008 338.83086151 48.947052 338.84408569 C47.68766815 338.85147263 46.4282843 338.85885956 45.1307373 338.86647034 C43.83727386 338.87454208 42.54381042 338.88261383 41.21115112 338.89093018 C38.47243379 338.90594122 35.73374226 338.91578734 32.99499512 338.9233551 C29.49215356 338.93442301 25.98994665 338.96883344 22.48732948 339.0085268 C19.13932423 339.04099901 15.79138787 339.04547157 12.4432373 339.05397034 C11.18790192 339.07147842 9.93256653 339.08898651 8.63919067 339.10702515 C7.46802704 339.10409958 6.2968634 339.10117401 5.09020996 339.09815979 C4.06223297 339.10402603 3.03425598 339.10989227 1.97512817 339.11593628 C-1.58803671 338.49985957 -3.25905575 337.1017957 -5.8458252 334.62818909 C-7.13846608 332.04290733 -6.97481283 330.18561127 -6.98004627 327.2891798 C-6.98450412 326.14921085 -6.98896196 325.00924189 -6.99355489 323.83472842 C-6.99337053 322.57162461 -6.99318617 321.3085208 -6.99299622 320.00714111 C-6.99629402 318.66016766 -7.00001941 317.31319521 -7.00413769 315.96622401 C-7.01417518 312.25207965 -7.01787729 308.53795145 -7.02052701 304.82379544 C-7.02442485 300.82300891 -7.0340035 296.82223525 -7.04273987 292.82145691 C-7.06251835 283.15366586 -7.07257195 273.48587375 -7.08146766 263.81806752 C-7.08584804 259.26858131 -7.09121547 254.71909626 -7.09645653 250.16961098 C-7.11346971 235.05189982 -7.12796498 219.9341894 -7.13520527 204.81647015 C-7.13711525 200.891812 -7.13903557 196.96715385 -7.14099121 193.04249573 C-7.14147495 192.06700725 -7.14195869 191.09151878 -7.14245709 190.08647005 C-7.15076148 174.27604838 -7.17610489 158.46570228 -7.20857189 142.65531363 C-7.24161219 126.43389663 -7.25965126 110.21251807 -7.26284951 93.99106723 C-7.26501735 84.87892238 -7.27380603 75.76688774 -7.29931068 66.65477562 C-7.32097631 58.89619631 -7.32908856 51.13775397 -7.3193439 43.37914785 C-7.31478721 39.41901136 -7.31676437 35.4591577 -7.33610535 31.49905968 C-7.35365278 27.87497088 -7.35280864 24.25137301 -7.33720805 20.62727962 C-7.33368575 18.69245778 -7.34992096 16.75763128 -7.36681253 14.82287997 C-7.35823163 13.67508777 -7.34965074 12.52729557 -7.34080982 11.34472179 C-7.34178663 10.35435616 -7.34276344 9.36399052 -7.34376985 8.3436138 C-6.52519103 3.87968566 -4.48391751 0.98978253 0 0 Z M10.1541748 16.62818909 C10.1541748 117.27818909 10.1541748 217.92818909 10.1541748 321.62818909 C22.6941748 321.62818909 35.2341748 321.62818909 48.1541748 321.62818909 C48.1541748 220.97818909 48.1541748 120.32818909 48.1541748 16.62818909 C35.6141748 16.62818909 23.0741748 16.62818909 10.1541748 16.62818909 Z " fill="#ff4200" transform="translate(18.8458251953125,161.37181091308594)"/>
<path d="M0 0 C1.87214172 -0.0237545 1.87214172 -0.0237545 3.78210449 -0.04798889 C5.14054743 -0.04414756 6.49898743 -0.03910859 7.85742188 -0.03295898 C9.2546022 -0.03819535 10.65177898 -0.04447188 12.0489502 -0.05174255 C14.97437193 -0.06214239 17.89930712 -0.05759155 20.82470703 -0.04296875 C24.57115757 -0.0257734 28.31607551 -0.0492845 32.06235504 -0.08445835 C34.94665664 -0.1064324 37.8305914 -0.10499128 40.71495056 -0.09669304 C42.09604067 -0.09587363 43.47715774 -0.10273521 44.85816956 -0.11746407 C46.78949348 -0.13490615 48.72103844 -0.11705003 50.65234375 -0.09765625 C51.75058472 -0.09669449 52.84882568 -0.09573273 53.98034668 -0.09474182 C57.83342562 0.75578904 58.68695048 2.28098025 60.82617188 5.53344727 C61.3252672 8.24657065 61.3252672 8.24657065 61.32394981 11.24439335 C61.33314741 12.39095215 61.342345 13.53751095 61.3518213 14.71881396 C61.34153418 15.97386136 61.33124705 17.22890877 61.32064819 18.52198792 C61.32382516 19.87226721 61.32875314 21.22254333 61.33528101 22.57281059 C61.34811037 26.28226105 61.33597065 29.99127506 61.31975245 33.70069683 C61.30659942 37.7014187 61.31649515 41.70209175 61.32351685 45.70281982 C61.33360276 53.53954096 61.32231548 61.37609337 61.30381624 69.21279354 C61.2830556 78.33508781 61.28318842 87.45734552 61.2841614 96.57965898 C61.28516282 112.85327184 61.26683452 129.12680612 61.23779297 145.40039062 C61.20961315 161.19923331 61.19545161 176.99800683 61.19677734 192.796875 C61.19689721 194.25663349 61.19689721 194.25663349 61.1970195 195.74588204 C61.19714057 197.20309256 61.19714057 197.20309256 61.19726408 198.68974167 C61.19864312 216.66581463 61.18686793 234.64185813 61.16895764 252.61792155 C61.16292032 258.98004418 61.16079798 265.3421614 61.15989304 271.70428658 C61.15852994 279.4543911 61.14961688 287.20444601 61.13122742 294.95452947 C61.12198221 298.91042262 61.11590383 302.86625222 61.11841583 306.82215691 C61.12060243 310.44103376 61.11359062 314.05976996 61.09911878 317.67861747 C61.0937605 319.61301265 61.09821765 321.54742725 61.10298288 323.48182398 C61.09330954 325.19775056 61.09330954 325.19775056 61.08344078 326.94834232 C61.08203193 327.93746146 61.08062308 328.9265806 61.07917154 329.94567305 C60.81565079 332.64106079 60.26716206 334.25762507 58.82617188 336.53344727 C55.65408959 338.75153016 52.83761097 338.79100054 49.03540039 338.80810547 C47.87061661 338.81763748 46.70583282 338.82716949 45.50575256 338.83699036 C44.25153 338.83607895 42.99730743 338.83516754 41.70507812 338.83422852 C40.41302963 338.83851364 39.12098114 338.84279877 37.78977966 338.84721375 C35.05699558 338.85466652 32.3243407 338.85439161 29.59155273 338.84912109 C26.09666734 338.84332779 22.60231214 338.86025789 19.10751438 338.88346577 C15.76501366 338.90177606 12.42262871 338.8980172 9.08007812 338.89672852 C7.82787979 338.90593826 6.57568146 338.91514801 5.28553772 338.92463684 C4.11760178 338.91840805 2.94966583 338.91217926 1.74633789 338.90576172 C0.20889671 338.90670586 0.20889671 338.90670586 -1.35960388 338.90766907 C-4.63411418 338.47224067 -6.52096149 337.47150752 -9.17382812 335.53344727 C-10.47054992 332.94000367 -10.30283392 331.06608792 -10.3080492 328.16040993 C-10.31250705 327.01285748 -10.31696489 325.86530504 -10.32155782 324.68297827 C-10.32137346 323.41141044 -10.32118909 322.13984262 -10.32099915 320.82974243 C-10.32429693 319.4738067 -10.32802232 318.11787194 -10.33214062 316.76193845 C-10.34217821 313.02306034 -10.34588023 309.28419827 -10.34852993 305.54530859 C-10.35242771 301.51795612 -10.36200631 297.49061643 -10.3707428 293.46327209 C-10.39052075 283.73171122 -10.4005745 274.00014929 -10.40947059 264.26857334 C-10.41385077 259.68957041 -10.41921823 255.11056864 -10.42445946 250.53156662 C-10.44147205 235.31691795 -10.45596772 220.10227002 -10.4632082 204.8876133 C-10.46511819 200.93785221 -10.46703851 196.98809114 -10.46899414 193.03833008 C-10.46971975 191.56573206 -10.46971975 191.56573206 -10.47046002 190.06338458 C-10.47876589 174.14882318 -10.50411206 158.23433681 -10.53657482 142.3198082 C-10.56960741 125.99330488 -10.58765346 109.66683975 -10.59085244 93.34030282 C-10.59302092 84.16838643 -10.601819 74.99657949 -10.62731361 65.82469559 C-10.64896868 58.01594894 -10.65709671 50.20733833 -10.64734683 42.39856507 C-10.64278714 38.41222475 -10.64478452 34.4261654 -10.66410828 30.4398632 C-10.68163444 26.79300574 -10.68082917 23.14663639 -10.66521098 19.4997745 C-10.66168243 17.55029557 -10.67793957 15.60081214 -10.69481546 13.65140307 C-10.68623456 12.49863513 -10.67765367 11.34586719 -10.66881275 10.15816689 C-10.66978956 9.161346 -10.67076637 8.16452512 -10.67177278 7.13749754 C-9.52009657 1.11469415 -5.55287541 0.03134096 0 0 Z M5.82617188 16.53344727 C5.82617188 117.18344727 5.82617188 217.83344727 5.82617188 321.53344727 C18.69617188 321.53344727 31.56617188 321.53344727 44.82617188 321.53344727 C44.82617188 220.88344727 44.82617188 120.23344727 44.82617188 16.53344727 C31.95617187 16.53344727 19.08617187 16.53344727 5.82617188 16.53344727 Z " fill="#ff4200" transform="translate(119.173828125,161.466552734375)"/>
<path d="M0 0 C0.81726563 0.76957031 1.63453125 1.53914063 2.4765625 2.33203125 C3.39695312 3.17378906 4.31734375 4.01554687 5.265625 4.8828125 C25.600527 24.23738176 36.01612695 50.19385159 36.7890625 78.01953125 C36.30606734 104.94651146 26.8247308 128.03546409 9.4765625 148.33203125 C8.90550781 149.00621094 8.33445312 149.68039062 7.74609375 150.375 C-6.60575249 165.90746084 -27.04639985 175.40044002 -47.5234375 179.33203125 C-48.42707031 179.5228125 -49.33070313 179.71359375 -50.26171875 179.91015625 C-77.41245226 183.42186789 -104.34406229 177.30593704 -126.48828125 161.171875 C-148.45159489 143.70595798 -162.0837761 121.53808323 -167.13671875 93.98828125 C-170.00602966 66.86025083 -164.77199029 38.99065118 -147.6484375 17.14453125 C-146.28508828 15.53045114 -144.9099485 13.92625926 -143.5234375 12.33203125 C-142.49089844 11.08292969 -142.49089844 11.08292969 -141.4375 9.80859375 C-125.07772692 -9.38608585 -100.86985231 -20.69759116 -76.0234375 -23.29296875 C-48.77921464 -25.38283243 -20.82005633 -18.40286712 0 0 Z M-127.5234375 19.33203125 C-128.22210938 20.0178125 -128.92078125 20.70359375 -129.640625 21.41015625 C-144.04348322 36.54156372 -151.24689295 57.68090173 -151.8984375 78.33203125 C-151.08450614 103.15693778 -141.13693462 125.69200223 -123.01513672 142.75195312 C-105.0536159 158.58244605 -82.29069884 165.65913721 -58.5234375 164.33203125 C-34.37362816 161.68165934 -12.99292032 149.89471472 2.34765625 131.03125 C16.86838804 111.27141231 21.82150082 88.97038745 19.20849609 64.85839844 C15.98534346 43.82356642 3.13165976 23.01347802 -13.6484375 10.14453125 C-50.25447081 -15.03504251 -95.6697279 -11.98178497 -127.5234375 19.33203125 Z " fill="#ff4200" transform="translate(463.5234375,254.66796875)"/>
<path d="M0 0 C14.29954283 11.10317443 23.79492146 24.02259801 29.3125 41.3125 C29.68181641 42.46878906 29.68181641 42.46878906 30.05859375 43.6484375 C35.11728233 63.53431676 30.3313744 84.15514016 20.36816406 101.56591797 C10.13656244 118.49396561 -6.4547192 129.60238164 -25.390625 134.40625 C-45.71826808 138.9969553 -66.18252737 135.1273901 -83.875 124.2578125 C-88.56284681 121.01538512 -92.65265742 117.32682643 -96.6875 113.3125 C-97.38617188 112.64863281 -98.08484375 111.98476563 -98.8046875 111.30078125 C-105.28229856 104.68454428 -108.97009015 96.67839638 -112.6875 88.3125 C-113.23083984 87.10787109 -113.23083984 87.10787109 -113.78515625 85.87890625 C-120.75155829 67.92029195 -118.00533847 46.63138438 -110.6875 29.3125 C-101.63875906 10.68892853 -85.88591703 -2.30936365 -66.71386719 -9.41943359 C-44.60944466 -16.87842469 -19.15660849 -13.2790127 0 0 Z M-87.6875 24.3125 C-98.05344505 37.92131755 -102.24361569 52.33452165 -100.6875 69.3125 C-98.13427318 84.75417118 -90.83401405 98.38841955 -78.21923828 107.81567383 C-64.02059283 117.9656339 -48.49993735 121.20769489 -31.328125 118.8515625 C-15.21635067 115.22854446 -2.12237724 105.72126838 6.8515625 91.91015625 C15.19159528 77.08095358 17.38551142 62.5975142 13.07641602 46.15698242 C8.77384133 30.87291046 -0.30878569 19.7696152 -13.6875 11.3125 C-14.31914062 10.90386719 -14.95078125 10.49523437 -15.6015625 10.07421875 C-40.03516829 -3.86477663 -69.60982977 4.3813985 -87.6875 24.3125 Z " fill="#ff4200" transform="translate(440.6875,271.6875)"/>
<path d="M0 0 C1.87214172 -0.0237545 1.87214172 -0.0237545 3.78210449 -0.04798889 C5.14054743 -0.04414756 6.49898743 -0.03910859 7.85742188 -0.03295898 C9.2546022 -0.03819535 10.65177898 -0.04447188 12.0489502 -0.05174255 C14.97437193 -0.06214239 17.89930712 -0.05759155 20.82470703 -0.04296875 C24.57115757 -0.0257734 28.31607551 -0.0492845 32.06235504 -0.08445835 C34.94665664 -0.1064324 37.8305914 -0.10499128 40.71495056 -0.09669304 C42.09604067 -0.09587363 43.47715774 -0.10273521 44.85816956 -0.11746407 C46.78949348 -0.13490615 48.72103844 -0.11705003 50.65234375 -0.09765625 C51.75058472 -0.09669449 52.84882568 -0.09573273 53.98034668 -0.09474182 C56.82617188 0.53344727 56.82617188 0.53344727 59.1796875 2.76124573 C60.91897409 5.68969925 61.33108921 7.16082071 61.34375 10.51977539 C61.35635864 11.48427612 61.36896729 12.44877686 61.38195801 13.44250488 C61.37386108 14.47282837 61.36576416 15.50315186 61.35742188 16.56469727 C61.36316223 18.16770691 61.36316223 18.16770691 61.36901855 19.80310059 C61.37173652 22.05909163 61.36438353 24.31511425 61.34765625 26.57104492 C61.32624621 30.0214676 61.34746316 33.46980799 61.37304688 36.92016602 C61.37040358 39.11418102 61.36527857 41.30819473 61.35742188 43.50219727 C61.3655188 44.53252075 61.37361572 45.56284424 61.38195801 46.62438965 C61.32329038 51.11218179 61.28040142 53.78358496 58.91796875 57.68359375 C56.65847684 59.6817462 55.79740948 60.19460164 52.82617188 60.09594727 C52.16617188 60.09723633 51.50617188 60.09852539 50.82617188 60.09985352 C47.79289106 59.24081891 46.73011997 58.06168477 44.82617188 55.53344727 C44.26919514 52.55651352 44.36034249 49.63099883 44.43554688 46.61157227 C44.44158936 45.46760986 44.44158936 45.46760986 44.44775391 44.30053711 C44.46862679 41.46126119 44.52447266 38.62232919 44.57617188 35.78344727 C44.65867187 29.43094727 44.74117188 23.07844727 44.82617188 16.53344727 C31.95617187 16.53344727 19.08617187 16.53344727 5.82617188 16.53344727 C5.87257813 21.61235352 5.91898437 26.69125977 5.96679688 31.92407227 C5.98723493 35.14154062 6.00649055 38.35892895 6.02148438 41.57641602 C6.04539675 46.68351867 6.07368563 51.7903345 6.12792969 56.8972168 C6.17138897 61.0145151 6.19530915 65.13150584 6.20568085 69.24901581 C6.21307214 70.81993197 6.22750576 72.39083128 6.2490921 73.96161652 C6.2781287 76.16203696 6.282128 78.3611864 6.28027344 80.56176758 C6.28915588 81.8141925 6.29803833 83.06661743 6.30718994 84.35699463 C5.73954991 88.10546436 4.80208202 89.26601703 1.82617188 91.53344727 C-0.17382812 92.06469727 -0.17382812 92.06469727 -2.17382812 92.03344727 C-2.83382813 92.04375977 -3.49382812 92.05407227 -4.17382812 92.06469727 C-7.18595607 91.26460078 -8.2691103 89.9974512 -10.17382812 87.53344727 C-10.56852336 84.73206911 -10.72141554 82.3235594 -10.69140625 79.52368164 C-10.69841553 78.71997635 -10.7054248 77.91627106 -10.71264648 77.08821106 C-10.73023736 74.43418729 -10.7186003 71.78123169 -10.70507812 69.12719727 C-10.70777274 67.28161413 -10.7116549 65.43603238 -10.7166748 63.5904541 C-10.72257132 59.72349524 -10.71400203 55.8569061 -10.6953125 51.98999023 C-10.67252278 47.03312502 -10.68564505 42.07712609 -10.70960236 37.12029266 C-10.72405623 33.30956494 -10.71945625 29.49904262 -10.70909119 25.68830872 C-10.70642276 23.86066078 -10.70969773 22.0329942 -10.7190094 20.20536804 C-10.72916839 17.65081384 -10.71368413 15.09766258 -10.69140625 12.54321289 C-10.69950317 11.78776688 -10.7076001 11.03232086 -10.71594238 10.25398254 C-10.66220047 6.92781423 -10.39109109 4.85901754 -8.52734375 2.06617737 C-5.50481134 0.09774922 -3.59837022 0.02030955 0 0 Z " fill="#ff4200" transform="translate(312.173828125,161.466552734375)"/>
<path d="M0 0 C2.36074847 2.29400791 2.95864082 3.66195436 3.36076355 6.94866943 C3.35410172 8.094505 3.34743988 9.24034058 3.34057617 10.42089844 C3.34034958 11.72194519 3.34012299 13.02299194 3.33988953 14.36346436 C3.32457067 15.77877142 3.3089227 17.19407495 3.29296875 18.609375 C3.28737107 20.06096966 3.28310178 21.51257 3.28010559 22.96417236 C3.2686702 26.77833804 3.23921465 30.59215911 3.20599365 34.40618896 C3.16985834 38.98583353 3.15612535 43.56559354 3.13863373 48.14533997 C3.10957608 55.09713273 3.05208086 62.04816989 3 69 C15.87 69 28.74 69 42 69 C41.80237974 57.99010391 41.80237974 57.99010391 41.54956055 46.98144531 C41.53495196 45.59702482 41.52221215 44.2125828 41.51171875 42.828125 C41.473349 41.75763916 41.473349 41.75763916 41.4342041 40.66552734 C41.43084707 36.83313756 41.68080145 35.32856092 44.3972168 32.5324707 C47.06316051 30.96281226 48.11956627 30.50731047 51.125 30.9375 C52.11886719 31.04384766 52.11886719 31.04384766 53.1328125 31.15234375 C56.06303953 32.48259326 56.65681619 34.0799338 58 37 C58.42841443 40.25345952 58.39673764 43.4764052 58.36328125 46.75390625 C58.36402901 48.160709 58.36402901 48.160709 58.36479187 49.59593201 C58.36245655 51.57366053 58.35276006 53.55139232 58.33618164 55.52905273 C58.31255507 58.55544598 58.31562919 61.58095959 58.32226562 64.60742188 C58.31668959 66.53125525 58.30958017 68.45508492 58.30078125 70.37890625 C58.30169266 71.28314835 58.30260406 72.18739044 58.30354309 73.11903381 C58.29401108 73.96348557 58.28447906 74.80793732 58.2746582 75.67797852 C58.26774712 76.78786888 58.26774712 76.78786888 58.26069641 77.92018127 C57.95065088 80.39370401 57.38158675 81.92131855 56 84 C52.82791771 86.2180829 50.01143909 86.25755327 46.20922852 86.2746582 C45.04444473 86.28419022 43.87966095 86.29372223 42.67958069 86.30354309 C41.42535812 86.30263168 40.17113556 86.30172028 38.87890625 86.30078125 C37.58685776 86.30506638 36.29480927 86.3093515 34.96360779 86.31376648 C32.2308237 86.32121925 29.49816883 86.32094434 26.76538086 86.31567383 C23.27049546 86.30988053 19.77614027 86.32681063 16.28134251 86.3500185 C12.93884178 86.36832879 9.59645683 86.36456994 6.25390625 86.36328125 C5.00170792 86.372491 3.74950958 86.38170074 2.45936584 86.39118958 C1.2914299 86.38496078 0.12349396 86.37873199 -1.07983398 86.37231445 C-2.61727516 86.37325859 -2.61727516 86.37325859 -4.18577576 86.3742218 C-7.46028606 85.93879341 -9.34713336 84.93806025 -12 83 C-13.48190876 80.03618249 -13.15599043 77.01826114 -13.16113281 73.76806641 C-13.16609772 73.02317459 -13.17106262 72.27828278 -13.17617798 71.51081848 C-13.19080989 69.04105717 -13.19760326 66.57136008 -13.203125 64.1015625 C-13.20887557 62.38764443 -13.21463331 60.67372638 -13.22039795 58.95980835 C-13.23091084 55.36350199 -13.23675163 51.76721801 -13.24023438 48.17089844 C-13.24572 43.56165671 -13.26974813 38.95271026 -13.29820633 34.34356117 C-13.31682587 30.80224747 -13.32203794 27.26100498 -13.32357025 23.71964645 C-13.32659882 22.02037313 -13.33463424 20.32110112 -13.34775543 18.62187576 C-13.36480211 16.24459592 -13.36293936 13.86803874 -13.35644531 11.49072266 C-13.3656601 10.78823898 -13.37487488 10.08575531 -13.3843689 9.36198425 C-13.35841931 6.33097368 -13.14799835 4.26673743 -11.66522217 1.59432983 C-8.07088412 -1.84698898 -4.53351491 -1.0524231 0 0 Z " fill="#ff4200" transform="translate(315,414)"/>
<path d="M0 0 C2.5 1.875 2.5 1.875 4 5 C4.3080206 8.36255818 4.23524404 11.6347033 4 15 C5.09441406 15.16628906 5.09441406 15.16628906 6.2109375 15.3359375 C11.31634857 16.55151156 16.16707658 19.52528143 19.31640625 23.77734375 C20.71678774 26.64718384 21.07673526 28.62484984 20.4375 31.75 C18.77884801 34.34615095 17.78620161 35.64455057 15 37 C10.47278064 37 7.65683165 35.92499595 4 33.4375 C0.21113426 30.90424674 -2.37914122 30.28909865 -7 31 C-9.50098982 32.01990794 -9.50098982 32.01990794 -11 34 C-11.33425735 36.62625139 -11.33425735 36.62625139 -11 39 C-6.46228045 41.80906449 -1.88077228 43.91311231 3.0625 45.9375 C10.4498251 49.03678007 15.89348992 52.04687465 19.3046875 59.62890625 C21.10697179 65.77489817 21.04548575 72.48162961 18.4375 78.375 C16.09895435 82.34721052 12.95839077 85.62167374 9 88 C6.27734375 88.66015625 6.27734375 88.66015625 4 89 C4.05220703 90.12148438 4.05220703 90.12148438 4.10546875 91.265625 C4.13253906 92.25046875 4.15960938 93.2353125 4.1875 94.25 C4.23970703 95.71179688 4.23970703 95.71179688 4.29296875 97.203125 C3.95331441 100.44569178 3.3095569 101.72693723 1 104 C-2.90194743 105.56730943 -6.16722605 105.34698914 -10 103.75 C-13.1128829 99.46978601 -12.39734271 95.121306 -12 90 C-13.485 89.7215625 -13.485 89.7215625 -15 89.4375 C-20.00117834 87.99838542 -23.63429541 84.89541596 -27 81 C-28.41921568 77.2652219 -28.38658377 75.89524662 -26.8125 72.25 C-24.88971429 69.8630936 -23.93359496 68.83816999 -21 68 C-15.97281486 68.21392277 -13.82371474 69.9410282 -10 73 C-6.21249471 74.20877828 -4.47236858 74.16042706 -0.6875 72.875 C2.21724623 71.24979209 2.21724623 71.24979209 2.875 68.3125 C2.91625 67.549375 2.9575 66.78625 3 66 C-0.90465558 62.98783712 -4.57236393 61.40300671 -9.25 59.8125 C-17.00445359 56.92897893 -24.29865378 52.11726331 -28.125 44.5 C-30.04503973 36.81984109 -29.46373227 31.31881372 -25.62890625 24.3046875 C-22.22927273 19.49465446 -17.81041514 16.1517304 -12 15 C-12.04640625 14.25234375 -12.0928125 13.5046875 -12.140625 12.734375 C-12.43234391 4.77461617 -12.43234391 4.77461617 -10.5 1.3125 C-6.930506 -0.56148435 -3.93866806 -0.89588556 0 0 Z " fill="#ff4200" transform="translate(402,281)"/>
</svg>
