<?xml version="1.0" encoding="UTF-8"?>
<!DOCTYPE svg PUBLIC "-//W3C//DTD SVG 1.1//EN" "http://www.w3.org/Graphics/SVG/1.1/DTD/svg11.dtd">
<svg xmlns="http://www.w3.org/2000/svg" version="1.1" width="512px" height="512px" style="shape-rendering:geometricPrecision; text-rendering:geometricPrecision; image-rendering:optimizeQuality; fill-rule:evenodd; clip-rule:evenodd" xmlns:xlink="http://www.w3.org/1999/xlink">
<g><path style="opacity:0.884" fill="#ff4200" d="M 226.5,-0.5 C 245.833,-0.5 265.167,-0.5 284.5,-0.5C 310.945,1.18778 336.945,6.02111 362.5,14C 372.729,17.359 381.562,22.859 389,30.5C 390.439,32.2746 391.439,34.2746 392,36.5C 392.718,46.5698 392.218,56.5698 390.5,66.5C 405.425,65.1516 419.425,67.9849 432.5,75C 442.049,82.4648 446.716,92.2981 446.5,104.5C 444.683,123.473 438.85,141.139 429,157.5C 411.447,187.386 388.113,211.72 359,230.5C 360.015,241.651 355.515,249.484 345.5,254C 337.869,256.126 330.203,258.126 322.5,260C 318.894,261.274 316.227,263.607 314.5,267C 326.662,300.15 338.828,333.317 351,366.5C 352.668,372.493 350.502,374.993 344.5,374C 332.833,368.167 321.167,362.333 309.5,356.5C 306.692,361.083 304.359,365.916 302.5,371C 306.012,383.87 310.512,396.37 316,408.5C 325.089,409.319 334.256,409.819 343.5,410C 351.129,426.091 358.629,442.258 366,458.5C 366.806,476.21 366.639,493.877 365.5,511.5C 292.167,511.5 218.833,511.5 145.5,511.5C 144.361,493.877 144.194,476.21 145,458.5C 152.371,442.258 159.871,426.091 167.5,410C 176.744,409.819 185.911,409.319 195,408.5C 200.488,396.37 204.988,383.87 208.5,371C 206.832,365.831 204.498,360.997 201.5,356.5C 189.833,362.333 178.167,368.167 166.5,374C 160.498,374.993 158.332,372.493 160,366.5C 172.172,333.317 184.338,300.15 196.5,267C 194.773,263.607 192.106,261.274 188.5,260C 180.797,258.126 173.131,256.126 165.5,254C 155.485,249.484 150.985,241.651 152,230.5C 112.997,205.82 85.3302,171.82 69,128.5C 64.8159,117.076 63.8159,105.409 66,93.5C 72.2648,76.7641 84.4315,67.9308 102.5,67C 108.491,66.5005 114.491,66.3338 120.5,66.5C 118.847,56.565 118.347,46.565 119,36.5C 121.702,30.4601 125.869,25.6267 131.5,22C 144.709,14.8191 158.709,9.81905 173.5,7C 191.175,3.49854 208.842,0.998535 226.5,-0.5 Z M 253.5,7.5 C 282.827,7.63845 311.827,10.8051 340.5,17C 352.507,19.6741 363.84,24.0074 374.5,30C 377.295,31.7932 379.795,33.9598 382,36.5C 383.072,39.5438 383.572,42.7104 383.5,46C 383.22,51.5198 382.72,57.0198 382,62.5C 376.694,58.4293 370.861,55.2626 364.5,53C 329.076,41.63 292.743,36.4633 255.5,37.5C 218.257,36.4633 181.924,41.63 146.5,53C 140.139,55.2626 134.306,58.4293 129,62.5C 127.735,54.5311 127.402,46.5311 128,38.5C 131.397,33.383 135.897,29.5496 141.5,27C 164.575,17.5652 188.575,11.8985 213.5,10C 226.987,9.11774 240.321,8.2844 253.5,7.5 Z M 228.5,46.5 C 268.699,44.2714 308.366,47.7714 347.5,57C 357.36,59.8399 366.693,63.8399 375.5,69C 369.166,75.4877 365.832,83.321 365.5,92.5C 365.444,100.785 367.777,108.285 372.5,115C 369.238,126.208 365.738,137.375 362,148.5C 360.414,146.33 359.08,143.996 358,141.5C 357.922,130.831 357.922,120.164 358,109.5C 356.325,103.159 352.492,98.6587 346.5,96C 337.797,93.7929 329.13,91.4595 320.5,89C 319.421,88.044 318.255,87.2106 317,86.5C 312.416,79.6676 308.083,72.6676 304,65.5C 298.164,58.2214 290.664,55.7214 281.5,58C 273.079,61.8623 264.412,65.029 255.5,67.5C 246.588,65.029 237.921,61.8623 229.5,58C 220.336,55.7214 212.836,58.2214 207,65.5C 202.875,72.9193 198.375,80.086 193.5,87C 190.785,88.9078 187.785,90.2411 184.5,91C 177.754,92.3532 171.087,94.0199 164.5,96C 158.508,98.6587 154.675,103.159 153,109.5C 153.078,120.164 153.078,130.831 153,141.5C 151.92,143.996 150.586,146.33 149,148.5C 145.262,137.375 141.762,126.208 138.5,115C 143.044,108.368 145.377,101.035 145.5,93C 145.28,83.6644 141.946,75.6644 135.5,69C 147.98,61.8384 161.313,56.8384 175.5,54C 193.186,50.5833 210.853,48.0833 228.5,46.5 Z M 219.5,66.5 C 227.407,66.6142 234.74,68.7808 241.5,73C 250.833,77.6667 260.167,77.6667 269.5,73C 274.167,71 278.833,69 283.5,67C 288.437,65.6306 292.604,66.7973 296,70.5C 300.717,79.2126 306.217,87.3792 312.5,95C 321.759,99.2537 331.426,102.254 341.5,104C 345.36,105.193 347.86,107.693 349,111.5C 348.734,122.158 348.734,132.824 349,143.5C 352.757,151.932 358.09,159.265 365,165.5C 369.888,170.362 370.554,175.696 367,181.5C 362.333,186.833 357.667,192.167 353,197.5C 351.632,200.186 350.299,202.853 349,205.5C 348.715,216.509 348.715,227.509 349,238.5C 348.214,241.583 346.381,243.749 343.5,245C 336.934,247.047 330.267,248.713 323.5,250C 317.318,251.517 312.151,254.683 308,259.5C 303.917,266.668 299.584,273.668 295,280.5C 291.912,283.097 288.412,283.931 284.5,283C 277.833,280.333 271.167,277.667 264.5,275C 258.5,273 252.5,273 246.5,275C 239.833,277.667 233.167,280.333 226.5,283C 222.588,283.931 219.088,283.097 216,280.5C 211.416,273.668 207.083,266.668 203,259.5C 198.849,254.683 193.682,251.517 187.5,250C 180.733,248.713 174.066,247.047 167.5,245C 164.619,243.749 162.786,241.583 162,238.5C 162.285,227.509 162.285,216.509 162,205.5C 156.973,196.784 150.973,188.784 144,181.5C 140.446,175.696 141.112,170.362 146,165.5C 152.91,159.265 158.243,151.932 162,143.5C 162.633,134.821 162.466,126.155 161.5,117.5C 160.56,110.786 163.227,106.286 169.5,104C 179.574,102.254 189.241,99.2537 198.5,95C 204.783,87.3792 210.283,79.2126 215,70.5C 216.397,68.9297 217.897,67.5964 219.5,66.5 Z M 103.5,75.5 C 112.546,75.2356 121.546,75.7356 130.5,77C 137.744,87.4723 138.078,98.1389 131.5,109C 123.645,108.054 115.978,106.054 108.5,103C 95.1867,99.6445 89.3534,104.811 91,118.5C 101.504,155.866 122.17,186.2 153,209.5C 153.824,212.882 153.657,216.216 152.5,219.5C 117.677,196.53 92.8435,165.53 78,126.5C 73.3558,115.339 72.6892,104.006 76,92.5C 82.2732,82.1151 91.4399,76.4485 103.5,75.5 Z M 387.5,75.5 C 434.605,73.0248 448.438,93.3581 429,136.5C 413.242,170.757 389.742,198.424 358.5,219.5C 357.343,216.216 357.176,212.882 358,209.5C 387.22,187.258 407.553,158.591 419,123.5C 420.29,118.89 420.624,114.223 420,109.5C 418.455,104.623 415.121,101.957 410,101.5C 400.289,103.959 390.622,106.625 381,109.5C 380.228,109.355 379.561,109.022 379,108.5C 373.156,97.699 373.656,87.199 380.5,77C 383.036,76.8138 385.369,76.3138 387.5,75.5 Z M 249.5,91.5 C 287.726,91.354 315.226,108.354 332,142.5C 345.79,182.117 336.623,215.283 304.5,242C 271.833,264 239.167,264 206.5,242C 176.17,217.006 166.337,185.506 177,147.5C 190.595,114.972 214.762,96.3055 249.5,91.5 Z M 100.5,110.5 C 110.948,113.372 121.115,116.706 131,120.5C 133.839,132.682 137.672,144.515 142.5,156C 135.932,161.637 132.432,168.804 132,177.5C 118.044,160.928 107.71,142.261 101,121.5C 99.6792,117.796 99.5126,114.129 100.5,110.5 Z M 408.5,110.5 C 410.722,110.559 411.722,111.725 411.5,114C 407.942,129.946 401.775,144.779 393,158.5C 388.577,165.011 383.911,171.345 379,177.5C 378.568,168.804 375.068,161.637 368.5,156C 373.328,144.515 377.161,132.682 380,120.5C 380.388,119.572 381.055,118.905 382,118.5C 391.152,116.502 399.985,113.835 408.5,110.5 Z M 291.5,137.5 C 296.501,136.671 298.668,138.671 298,143.5C 281.622,166.422 265.122,189.255 248.5,212C 247.167,212.667 245.833,212.667 244.5,212C 234,201.5 223.5,191 213,180.5C 212.167,176 214,174.167 218.5,175C 226.167,182.667 233.833,190.333 241.5,198C 243.365,199.301 245.365,199.635 247.5,199C 262.773,178.9 277.44,158.4 291.5,137.5 Z M 202.5,277.5 C 207.686,288.509 216.352,293.343 228.5,292C 236.278,289.277 243.945,286.277 251.5,283C 253.5,282.333 255.5,282.333 257.5,283C 245.475,314.739 233.642,346.573 222,378.5C 217.295,367.592 212.462,356.759 207.5,346C 205.5,345.333 203.5,345.333 201.5,346C 191.753,351.219 182.086,355.719 172.5,359.5C 182.312,332.061 192.312,304.728 202.5,277.5 Z M 307.5,277.5 C 309.117,279.121 310.284,281.121 311,283.5C 320.433,309.138 329.433,334.805 338,360.5C 328.578,355.539 319.078,350.706 309.5,346C 307.5,345.333 305.5,345.333 303.5,346C 298.538,356.759 293.705,367.592 289,378.5C 279.361,352.721 269.861,326.888 260.5,301C 262.012,295.627 264.012,290.461 266.5,285.5C 274.524,290.457 283.191,292.623 292.5,292C 299.984,289.682 304.984,284.849 307.5,277.5 Z M 254.5,315.5 C 255.497,315.47 256.164,315.97 256.5,317C 266,342.833 275.5,368.667 285,394.5C 287.064,395.591 289.231,395.758 291.5,395C 293.476,391.547 295.309,388.047 297,384.5C 301.934,403.535 310.434,420.701 322.5,436C 312.15,439.282 301.483,441.282 290.5,442C 264.133,444.202 237.8,443.869 211.5,441C 203.555,440.29 195.889,438.624 188.5,436C 200.566,420.701 209.066,403.535 214,384.5C 215.691,388.047 217.524,391.547 219.5,395C 221.769,395.758 223.936,395.591 226,394.5C 236.078,368.351 245.578,342.018 254.5,315.5 Z M 173.5,418.5 C 178.844,418.334 184.177,418.501 189.5,419C 186.101,425.068 181.935,430.568 177,435.5C 176.247,439.493 177.747,442.326 181.5,444C 205.74,450.305 230.407,453.138 255.5,452.5C 280.596,453.138 305.263,450.304 329.5,444C 333.253,442.326 334.753,439.493 334,435.5C 329.065,430.568 324.899,425.068 321.5,419C 326.833,418.333 332.167,418.333 337.5,419C 343.453,431.022 349.12,443.188 354.5,455.5C 288.5,456.833 222.5,456.833 156.5,455.5C 162.367,443.222 168.033,430.888 173.5,418.5 Z M 153.5,465.5 C 221.5,465.5 289.5,465.5 357.5,465.5C 357.5,478.167 357.5,490.833 357.5,503.5C 289.5,503.5 221.5,503.5 153.5,503.5C 153.5,490.833 153.5,478.167 153.5,465.5 Z"/></g>
<g><path style="opacity:0.873" fill="#ff4200" d="M 249.5,82.5 C 294.869,82.7417 326.036,103.742 343,145.5C 354.955,191.989 341.122,228.489 301.5,255C 279.337,266.771 256.004,269.771 231.5,264C 184.438,247.589 161.938,214.422 164,164.5C 169.773,126.06 190.939,100.227 227.5,87C 234.882,85.0241 242.216,83.5241 249.5,82.5 Z M 249.5,91.5 C 214.762,96.3055 190.595,114.972 177,147.5C 166.337,185.506 176.17,217.006 206.5,242C 239.167,264 271.833,264 304.5,242C 336.623,215.283 345.79,182.117 332,142.5C 315.226,108.354 287.726,91.354 249.5,91.5 Z M 291.5,137.5 C 277.44,158.4 262.773,178.9 247.5,199C 245.365,199.635 243.365,199.301 241.5,198C 233.833,190.333 226.167,182.667 218.5,175C 214,174.167 212.167,176 213,180.5C 223.5,191 234,201.5 244.5,212C 245.833,212.667 247.167,212.667 248.5,212C 265.122,189.255 281.622,166.422 298,143.5C 298.668,138.671 296.501,136.671 291.5,137.5 Z"/></g>
<g><path style="opacity:0.849" fill="#ff4200" d="M 289.5,128.5 C 306.353,128.527 311.186,136.194 304,151.5C 288.755,172.324 273.755,193.324 259,214.5C 253.927,221.361 247.427,223.194 239.5,220C 228.363,209.863 217.529,199.363 207,188.5C 200.954,178.977 202.787,171.477 212.5,166C 216.261,165.262 219.928,165.595 223.5,167C 230.97,173.468 238.136,180.302 245,187.5C 257.667,169.5 270.333,151.5 283,133.5C 284.965,131.45 287.132,129.783 289.5,128.5 Z M 291.5,137.5 C 277.44,158.4 262.773,178.9 247.5,199C 245.365,199.635 243.365,199.301 241.5,198C 233.833,190.333 226.167,182.667 218.5,175C 214,174.167 212.167,176 213,180.5C 223.5,191 234,201.5 244.5,212C 245.833,212.667 247.167,212.667 248.5,212C 265.122,189.255 281.622,166.422 298,143.5C 298.668,138.671 296.501,136.671 291.5,137.5 Z"/></g>
</svg>
