<?xml version="1.0" encoding="UTF-8"?>
<!DOCTYPE svg PUBLIC "-//W3C//DTD SVG 1.1//EN" "http://www.w3.org/Graphics/SVG/1.1/DTD/svg11.dtd">
<svg xmlns="http://www.w3.org/2000/svg" version="1.1" width="512px" height="512px" style="shape-rendering:geometricPrecision; text-rendering:geometricPrecision; image-rendering:optimizeQuality; fill-rule:evenodd; clip-rule:evenodd" xmlns:xlink="http://www.w3.org/1999/xlink">
<g><path style="opacity:0.911" fill="#ff4200" d="M 197.5,111.5 C 211.48,112.517 225.48,113.351 239.5,114C 243.277,114.779 245.277,117.112 245.5,121C 244.39,134.142 243.557,147.308 243,160.5C 240.263,166.635 236.263,167.635 231,163.5C 230.453,154.46 230.453,145.46 231,136.5C 199.519,169.156 163.353,195.322 122.5,215C 89.5887,229.083 55.2554,235.083 19.5,233C 17.6711,232.727 16.1711,231.893 15,230.5C 13.9963,227.007 14.4963,223.841 16.5,221C 65.742,222.692 111.075,210.359 152.5,184C 177.248,167.265 200.248,148.265 221.5,127C 212.506,126.068 203.506,124.735 194.5,123C 192.478,118.208 193.478,114.375 197.5,111.5 Z"/></g>
<g><path style="opacity:0.912" fill="#ff4200" d="M 300.5,129.5 C 330.846,126.113 356.68,135.113 378,156.5C 395.452,177.856 396.452,199.856 381,222.5C 377.599,226.071 374.099,229.405 370.5,232.5C 371.996,243.459 373.163,254.459 374,265.5C 377.314,261.019 381.148,257.019 385.5,253.5C 384.271,233.898 392.271,219.398 409.5,210C 428.123,204.469 445.79,206.802 462.5,217C 475.287,224.787 485.787,234.954 494,247.5C 496.941,251.68 497.108,255.847 494.5,260C 486.935,261.059 479.601,263.059 472.5,266C 465.833,270 459.167,274 452.5,278C 437.75,287.687 422.084,289.687 405.5,284C 398.386,280.553 392.886,275.386 389,268.5C 383.555,274.614 378.888,281.28 375,288.5C 373.725,315.479 372.725,342.479 372,369.5C 368.047,374.809 364.047,374.809 360,369.5C 359.872,343.493 360.372,317.493 361.5,291.5C 361.035,273.118 359.869,254.784 358,236.5C 340.975,240.963 325.975,237.296 313,225.5C 311.07,219.859 312.903,216.526 318.5,215.5C 323.804,218.819 329.471,221.652 335.5,224C 342.13,225.83 348.796,225.997 355.5,224.5C 354.134,210.226 348.968,197.559 340,186.5C 337.691,177.977 340.858,174.977 349.5,177.5C 358.855,188.88 365.021,201.88 368,216.5C 379.962,203.06 381.629,188.393 373,172.5C 358.33,152.165 338.33,142.165 313,142.5C 303.52,142.219 294.354,143.719 285.5,147C 298.106,157.716 305.272,171.216 307,187.5C 303.888,190.723 300.388,191.223 296.5,189C 292.547,177.42 286.547,167.087 278.5,158C 275.443,155.277 272.11,152.944 268.5,151C 263.041,145.713 263.708,141.38 270.5,138C 280.276,133.894 290.276,131.06 300.5,129.5 Z M 423.5,219.5 C 445.675,221.004 463.842,230.338 478,247.5C 478.483,248.448 478.649,249.448 478.5,250.5C 476.073,250.523 473.74,251.023 471.5,252C 461.841,256.828 452.508,262.161 443.5,268C 431.782,275.576 419.782,276.242 407.5,270C 404.96,267.795 402.793,265.295 401,262.5C 400.219,261.056 400.386,259.723 401.5,258.5C 412.23,252.066 423.897,248.9 436.5,249C 441.321,245.399 441.654,241.399 437.5,237C 424.086,235.736 411.419,238.236 399.5,244.5C 401.252,230.41 409.252,222.077 423.5,219.5 Z"/></g>
<g><path style="opacity:0.921" fill="#ff4200" d="M 210.5,201.5 C 231.503,201.333 252.503,201.5 273.5,202C 274.931,202.465 276.097,203.299 277,204.5C 277.667,259.5 277.667,314.5 277,369.5C 276.626,370.416 276.126,371.25 275.5,372C 254.564,373.632 233.564,373.966 212.5,373C 210.671,372.727 209.171,371.893 208,370.5C 206.346,316.225 206.013,261.891 207,207.5C 207.564,205.113 208.73,203.113 210.5,201.5 Z M 219.5,214.5 C 234.5,214.5 249.5,214.5 264.5,214.5C 264.5,263.167 264.5,311.833 264.5,360.5C 249.5,360.5 234.5,360.5 219.5,360.5C 219.5,311.833 219.5,263.167 219.5,214.5 Z"/></g>
<g><path style="opacity:0.923" fill="#ff4200" d="M 116.5,250.5 C 137.169,250.333 157.836,250.5 178.5,251C 179.931,251.465 181.097,252.299 182,253.5C 182.667,292.167 182.667,330.833 182,369.5C 181.626,370.416 181.126,371.25 180.5,372C 159.564,373.632 138.564,373.966 117.5,373C 115.671,372.727 114.171,371.893 113,370.5C 112.333,331.5 112.333,292.5 113,253.5C 114.145,252.364 115.312,251.364 116.5,250.5 Z M 125.5,263.5 C 140.167,263.5 154.833,263.5 169.5,263.5C 169.5,295.833 169.5,328.167 169.5,360.5C 154.833,360.5 140.167,360.5 125.5,360.5C 125.5,328.167 125.5,295.833 125.5,263.5 Z"/></g>
<g><path style="opacity:0.924" fill="#ff4200" d="M 21.5,285.5 C 42.1694,285.333 62.836,285.5 83.5,286C 84.9308,286.465 86.0975,287.299 87,288.5C 87.6667,315.833 87.6667,343.167 87,370.5C 86.5,371 86,371.5 85.5,372C 64.5643,373.632 43.5643,373.966 22.5,373C 20.6711,372.727 19.1711,371.893 18,370.5C 17.3333,343.167 17.3333,315.833 18,288.5C 19.1451,287.364 20.3117,286.364 21.5,285.5 Z M 30.5,298.5 C 45.1667,298.5 59.8333,298.5 74.5,298.5C 74.5,319.167 74.5,339.833 74.5,360.5C 59.8333,360.5 45.1667,360.5 30.5,360.5C 30.5,339.833 30.5,319.167 30.5,298.5 Z"/></g>
<g><path style="opacity:0.92" fill="#ff4200" d="M 19.5,386.5 C 140.167,386.333 260.834,386.5 381.5,387C 385.802,391.797 385.136,395.797 379.5,399C 260.167,399.667 140.833,399.667 21.5,399C 16.782,397.551 15.282,394.385 17,389.5C 17.6979,388.309 18.5313,387.309 19.5,386.5 Z"/></g>
</svg>
