<?xml version="1.0" encoding="UTF-8"?>
<svg version="1.1" xmlns="http://www.w3.org/2000/svg" width="512" height="512">
<path d="M0 0 C2.9375 1.75 2.9375 1.75 5 5 C6.79263698 12.66987993 7.48681463 20.62772114 8.2890625 28.453125 C8.39721283 29.47935974 8.50536316 30.50559448 8.61679077 31.56292725 C8.95626741 34.79160542 9.29072616 38.02077946 9.625 41.25 C9.8564368 43.45967043 10.08820479 45.6693062 10.3203125 47.87890625 C10.88403034 53.25221018 11.44364664 58.62592882 12 64 C13.0923999 64.11069824 14.1847998 64.22139648 15.31030273 64.33544922 C19.44992799 64.75530675 23.58936769 65.17697134 27.72875977 65.59912109 C29.50410198 65.77993558 31.27949105 65.96029076 33.05493164 66.14013672 C38.20460645 66.66195488 43.35289617 67.195241 48.50018311 67.7401123 C50.95506875 67.99532883 53.41111515 68.23515843 55.86767578 68.47363281 C57.38189668 68.63027327 58.89606002 68.78747151 60.41015625 68.9453125 C61.0912999 69.00733856 61.77244354 69.06936462 62.47422791 69.13327026 C66.87242832 69.61057828 70.22432833 70.69015279 74 73 C76.74193275 77.11289912 76.92193715 80.18601534 76 85 C74.68057156 86.94922638 74.68057156 86.94922638 72.93907166 88.81945801 C72.30129728 89.51023941 71.66352291 90.20102081 71.00642204 90.91273499 C70.34430277 91.60153244 69.68218349 92.2903299 69 93 C68.39751497 93.62744614 67.79502995 94.25489227 67.1742878 94.90135193 C65.27027311 96.85190295 63.34497442 98.77897153 61.41235352 100.70117188 C60.68956711 101.42410431 59.9667807 102.14703674 59.22209167 102.89187622 C56.86006209 105.2532156 54.49452287 107.61100465 52.12890625 109.96875 C50.47959367 111.61619522 48.83050343 113.26386306 47.18162537 114.91174316 C42.86188328 119.22768507 38.53914547 123.54061417 34.21575928 127.85290527 C29.79630959 132.26208686 25.37972402 136.67413536 20.96289062 141.0859375 C12.31138144 149.72675349 3.65670212 158.36438671 -5 167 C-4.44901138 168.09803452 -3.89802277 169.19606903 -3.33033752 170.32737732 C-2.60112928 171.78260501 -1.87195956 173.237852 -1.14282227 174.69311523 C-0.78040688 175.4150985 -0.41799149 176.13708176 -0.04459381 176.8809433 C28.42562534 233.73319456 31.80025188 297.85321665 12.32177734 358.09765625 C-6.62609804 415.04033777 -49.69429819 462.20733425 -103 489 C-123.97311447 499.18584683 -145.93651307 506.42305725 -169 510 C-170.13606689 510.17660156 -171.27213379 510.35320312 -172.44262695 510.53515625 C-183.40948254 512.07871619 -194.24679275 512.39977929 -205.3125 512.375 C-206.69038193 512.37418427 -206.69038193 512.37418427 -208.09609985 512.37335205 C-223.70163838 512.33106108 -238.70040457 511.3048937 -254 508 C-255.49152588 507.67854004 -255.49152588 507.67854004 -257.01318359 507.35058594 C-277.03123189 502.87170654 -295.95021167 495.70601825 -314 486 C-314.64743164 485.65888184 -315.29486328 485.31776367 -315.96191406 484.96630859 C-331.81721012 476.58587515 -346.09260685 466.31205499 -359.45703125 454.37548828 C-360.90898194 453.08113857 -362.37590633 451.80364189 -363.84375 450.52734375 C-368.22124205 446.68385299 -372.30850674 442.77880431 -376.05078125 438.3125 C-377.53382218 436.55306066 -379.06023891 434.8300812 -380.60546875 433.125 C-410.86247658 399.5151886 -429.34689717 355.65266604 -435 311 C-435.09571289 310.29335205 -435.19142578 309.5867041 -435.29003906 308.85864258 C-436.32275388 300.21474549 -436.2437576 291.50530103 -436.25 282.8125 C-436.25067474 281.96751953 -436.25134949 281.12253906 -436.25204468 280.25195312 C-436.23480596 266.63110875 -435.57225063 253.40810957 -433 240 C-432.83371094 239.10539063 -432.66742188 238.21078125 -432.49609375 237.2890625 C-424.565433 195.81464403 -404.88999259 158.40899836 -377 127 C-376.54560547 126.48244141 -376.09121094 125.96488281 -375.62304688 125.43164062 C-370.403761 119.48980265 -365.06246946 114.06633932 -359 109 C-357.68902344 107.82244141 -357.68902344 107.82244141 -356.3515625 106.62109375 C-319.38324765 73.69503997 -267.47858896 52.06952827 -217.70703125 51.796875 C-216.41658401 51.78635353 -216.41658401 51.78635353 -215.10006714 51.77561951 C-212.33749095 51.75820537 -209.57512907 51.75176687 -206.8125 51.75 C-205.86903717 51.74932526 -204.92557434 51.74865051 -203.95352173 51.74795532 C-190.09291735 51.76372393 -176.61029777 52.14362096 -163 55 C-161.72286133 55.25740967 -161.72286133 55.25740967 -160.41992188 55.52001953 C-137.31160308 60.27686441 -115.89561129 68.53749555 -94.83784485 79.07881165 C-94.118756 79.43868321 -93.39966715 79.79855478 -92.65878773 80.16933155 C-91.8376878 80.58051243 -91.8376878 80.58051243 -91 81 C-90.589545 80.58862321 -90.17909 80.17724642 -89.75619698 79.75340366 C-79.77749921 69.7526398 -69.79604804 59.75463117 -59.81151009 49.75969791 C-54.98316898 44.92619636 -50.1557707 40.09176011 -45.33056641 35.25512695 C-40.67741779 30.59096224 -36.02167545 25.9293975 -31.36431503 21.26943779 C-29.58437184 19.48764129 -27.80531165 17.70496229 -26.02713394 15.92140388 C-23.54399381 13.43104648 -21.05778436 10.94379371 -18.57080078 8.45727539 C-17.82993225 7.71281158 -17.08906372 6.96834778 -16.32574463 6.20132446 C-15.64986298 5.52681747 -14.97398132 4.85231049 -14.27761841 4.15736389 C-13.68951448 3.56833817 -13.10141056 2.97931246 -12.49548531 2.37243748 C-8.9103502 -0.9177144 -4.60617003 -0.65347049 0 0 Z M-14 34 C-22.24067046 42.03200397 -30.45677299 50.08825684 -38.64253998 58.17623043 C-42.44446168 61.93121217 -46.25428251 65.6773785 -50.08349609 69.40454102 C-53.77967881 73.00282796 -57.45333882 76.62275717 -61.11253357 80.25863838 C-62.51133792 81.6408321 -63.91803217 83.01508852 -65.33265686 84.38108635 C-67.31561437 86.29855608 -69.26843552 88.24253985 -71.21679688 90.19506836 C-71.8058934 90.7518074 -72.39498993 91.30854645 -73.00193787 91.88215637 C-76.13315927 95.08645835 -77.34803533 97.15568851 -77.37866211 101.70654297 C-77.28289382 103.14005514 -77.15869937 104.57208431 -77 106 C-76.90912109 107.15508057 -76.81824219 108.31016113 -76.72460938 109.50024414 C-76.59892578 110.58426514 -76.47324219 111.66828613 -76.34375 112.78515625 C-76.20839844 113.97431641 -76.07304687 115.16347656 -75.93359375 116.38867188 C-75.79050781 117.60103516 -75.64742188 118.81339844 -75.5 120.0625 C-75.35691406 121.30966797 -75.21382813 122.55683594 -75.06640625 123.84179688 C-74.71545379 126.89508332 -74.3598759 129.94775468 -74 133 C-69.9033735 131.35515496 -67.04911096 128.42969128 -63.93041992 125.41137695 C-63.33326172 124.84021149 -62.73610352 124.26904602 -62.12084961 123.68057251 C-55.89351034 117.70647754 -49.7346301 111.66122261 -43.58129883 105.61108398 C-40.66348552 102.74674144 -37.72534395 99.90602951 -34.7668457 97.08374023 C-31.18613138 93.66743957 -27.64673578 90.21296093 -24.13247108 86.72838402 C-22.79171229 85.41203241 -21.43727283 84.109458 -20.06896019 82.82177162 C-11.97017132 75.6655434 -11.97017132 75.6655434 -8.40275574 65.93240356 C-8.49122205 62.19600627 -9.1941004 58.64700699 -10 55 C-10.18116652 53.23687233 -10.34269874 51.47132213 -10.46484375 49.703125 C-10.61918243 48.21841244 -10.77659866 46.73401569 -10.9375 45.25 C-11.01162109 44.48429687 -11.08574219 43.71859375 -11.16210938 42.9296875 C-11.55907269 39.25051535 -11.91209993 37.1318501 -14 34 Z M-362 142 C-390.34956514 174.06433574 -408.00733217 212.58245028 -414 255 C-414.1016748 255.66410889 -414.20334961 256.32821777 -414.30810547 257.01245117 C-421.402216 309.69981576 -405.69649113 365.43449479 -373.87915039 407.68652344 C-362.57645283 422.181138 -349.46382974 435.68205323 -335 447 C-334.4534375 447.42829102 -333.906875 447.85658203 -333.34375 448.29785156 C-300.86118242 473.52720945 -258.85194136 490.8215927 -217.34765625 491.23828125 C-216.5385379 491.24802979 -215.72941956 491.25777832 -214.89578247 491.26782227 C-196.54605885 491.44328129 -178.97668565 491.10829141 -161 487 C-159.70545898 486.71116943 -159.70545898 486.71116943 -158.38476562 486.41650391 C-118.8655531 477.38203152 -84.47590751 456.52213463 -56 428 C-55.34 427.38640625 -54.68 426.7728125 -54 426.140625 C-17.35588009 391.5004804 2.58853948 337.65774734 4 288 C4.46891413 249.26769302 -4.73366279 213.06206118 -23 179 C-23.33781494 178.13987305 -23.67562988 177.27974609 -24.02368164 176.39355469 C-26.67274041 173.18523199 -28.64671923 173.15306242 -32.66506958 172.67118835 C-33.56192474 172.58762589 -34.45877991 172.50406342 -35.3828125 172.41796875 C-36.31165253 172.31406326 -37.24049255 172.21015778 -38.19747925 172.10310364 C-41.17145281 171.77638326 -44.14770138 171.48219868 -47.125 171.1875 C-49.10698956 170.97139774 -51.08876484 170.75332053 -53.0703125 170.53320312 C-61.42182283 169.63201913 -69.59190533 168.87514835 -78 169 C-76.824375 170.546875 -76.824375 170.546875 -75.625 172.125 C-75.07199219 172.87136719 -74.51898438 173.61773437 -73.94921875 174.38671875 C-72.59861405 176.19744929 -71.22444688 177.99075165 -69.83203125 179.76953125 C-56.88296745 196.90116378 -47.81502515 216.38943123 -42 237 C-41.66613281 238.14726562 -41.33226562 239.29453125 -40.98828125 240.4765625 C-30.62985267 278.77748378 -36.27540545 320.4674704 -53 356 C-53.47179687 357.03640625 -53.94359375 358.0728125 -54.4296875 359.140625 C-63.84720256 379.03978112 -78.8220957 398.20885836 -96 412 C-96.94230469 412.76828125 -97.88460938 413.5365625 -98.85546875 414.328125 C-122.55015372 433.31557402 -150.98512607 445.53043114 -181 450 C-182.06476563 450.17055908 -183.12953125 450.34111816 -184.2265625 450.5168457 C-188.09305369 451.01191468 -191.89408763 451.19507239 -195.78515625 451.23828125 C-196.51515335 451.24798447 -197.24515045 451.25768768 -197.99726868 451.26768494 C-200.35240225 451.29254217 -202.70724843 451.30520579 -205.0625 451.3125 C-206.26860931 451.31642761 -206.26860931 451.31642761 -207.49908447 451.32043457 C-220.70410145 451.32503894 -233.16298397 450.28429052 -246 447 C-247.918125 446.53207031 -247.918125 446.53207031 -249.875 446.0546875 C-253.29720545 445.14566418 -256.64075002 444.11843727 -260 443 C-261.85044922 442.38898438 -261.85044922 442.38898438 -263.73828125 441.765625 C-280.2260349 436.07352233 -295.21634555 427.62961974 -309 417 C-309.94746094 416.27554687 -310.89492188 415.55109375 -311.87109375 414.8046875 C-315.61967029 411.87489365 -319.18239069 408.91330958 -322.5 405.5 C-323.325 404.675 -324.15 403.85 -325 403 C-325.66 403 -326.32 403 -327 403 C-327.26345215 402.40646729 -327.5269043 401.81293457 -327.79833984 401.20141602 C-329.05035248 398.90775532 -330.3186107 397.5450765 -332.2265625 395.77734375 C-336.09328232 392.01564348 -339.24832659 387.94826866 -342.375 383.5625 C-342.93662842 382.77609131 -343.49825684 381.98968262 -344.0769043 381.17944336 C-357.61099516 361.93151737 -366.50901283 340.85016639 -372 318 C-372.26901123 316.89712646 -372.26901123 316.89712646 -372.54345703 315.77197266 C-377.55013702 294.10950524 -377.26152056 267.57081609 -372 246 C-371.80132324 245.17322754 -371.60264648 244.34645508 -371.39794922 243.49462891 C-364.25693045 214.66844904 -350.49314385 184.57786134 -328.1796875 164.26953125 C-326.77309653 163.04465313 -326.77309653 163.04465313 -327 161 C-326.40646729 160.73654785 -325.81293457 160.4730957 -325.20141602 160.20166016 C-322.90775532 158.94964752 -321.5450765 157.6813893 -319.77734375 155.7734375 C-316.01558038 151.90665282 -311.94805602 148.75206713 -307.5625 145.625 C-306.7782666 145.06409668 -305.9940332 144.50319336 -305.18603516 143.92529297 C-279.68391088 125.97364658 -247.64998746 112.99774573 -216.109375 112.796875 C-215.00255119 112.78628555 -215.00255119 112.78628555 -213.87336731 112.77548218 C-182.95197881 112.54690851 -182.95197881 112.54690851 -169 116 C-168.17612793 116.19867676 -167.35225586 116.39735352 -166.50341797 116.60205078 C-142.09971935 122.6452594 -121.11906893 133.06009733 -101 148 C-100.1234375 148.6496875 -99.246875 149.299375 -98.34375 149.96875 C-96.55572553 151.30347249 -94.77644386 152.64990266 -93 154 C-92.64861849 144.91949586 -93.60739579 136.06466899 -94.65405273 127.06396484 C-94.93927306 124.60974347 -95.21548401 122.15463225 -95.49023438 119.69921875 C-95.66875357 118.12494126 -95.84777207 116.55072029 -96.02734375 114.9765625 C-96.10967758 114.24942047 -96.19201141 113.52227844 -96.27684021 112.77310181 C-96.5018757 110.84679573 -96.74997852 108.92322264 -97 107 C-97.12604614 105.61119629 -97.12604614 105.61119629 -97.25463867 104.19433594 C-98.33210369 101.02229021 -99.95858607 100.42641217 -102.8984375 98.9140625 C-103.92533691 98.37918213 -104.95223633 97.84430176 -106.01025391 97.29321289 C-107.12062012 96.74270264 -108.23098633 96.19219238 -109.375 95.625 C-110.51243652 95.05064209 -111.64987305 94.47628418 -112.82177734 93.88452148 C-197.17577689 52.02753829 -293.25478063 73.97473143 -362 142 Z M-1.48193359 90.4284668 C-2.06364319 91.00564957 -2.64535278 91.58283234 -3.24468994 92.17750549 C-5.15164095 94.08054733 -7.02458232 96.0136259 -8.8984375 97.94921875 C-10.22177036 99.28427379 -11.54696588 100.61748487 -12.87393188 101.94892883 C-15.64610408 104.7393909 -18.40318055 107.54364087 -21.14892578 110.36010742 C-24.66407415 113.96574012 -28.2024963 117.54730575 -31.7508297 121.12025738 C-35.14083003 124.53505501 -38.52060568 127.95988934 -41.8984375 131.38671875 C-42.54117992 132.0377677 -43.18392235 132.68881664 -43.84614182 133.35959435 C-45.66781674 135.20921977 -47.48227766 137.06561343 -49.29443359 138.92456055 C-49.83055267 139.46762848 -50.36667175 140.01069641 -50.91903687 140.57022095 C-53.76894639 143.51066579 -56.05468945 146.39268387 -58 150 C-53.7093897 150.50934629 -49.41737379 151.00575364 -45.125 151.5 C-43.92101562 151.64308594 -42.71703125 151.78617187 -41.4765625 151.93359375 C-40.290625 152.06894531 -39.1046875 152.20429688 -37.8828125 152.34375 C-36.80402832 152.46943359 -35.72524414 152.59511719 -34.61376953 152.72460938 C-33.42122559 152.81548828 -32.22868164 152.90636719 -31 153 C-29.86289581 153.11395363 -29.86289581 153.11395363 -28.70281982 153.23020935 C-24.19747029 153.498141 -20.9858822 153.5588866 -17.4057312 150.60827637 C-16.27216209 149.50336057 -15.16510872 148.37079129 -14.08154297 147.21679688 C-13.46560776 146.60232193 -12.84967255 145.98784698 -12.21507263 145.35475159 C-10.19946907 143.33222031 -8.22154743 141.27671122 -6.2421875 139.21875 C-4.84620359 137.80410077 -3.44798467 136.39165389 -2.04763794 134.98132324 C1.62119231 131.27442313 5.25899521 127.5384842 8.89105225 123.79559326 C12.60693902 119.97716706 16.3515164 116.18710819 20.09375 112.39453125 C27.42412379 104.95710719 34.7220184 97.48867585 42 90 C41.505 89.01 41.505 89.01 41 88 C38.43331749 87.43313632 38.43331749 87.43313632 35.3125 87.1484375 C34.13816406 87.01953125 32.96382813 86.890625 31.75390625 86.7578125 C29.89572266 86.56832031 29.89572266 86.56832031 28 86.375 C26.79214844 86.2409375 25.58429688 86.106875 24.33984375 85.96875 C20.89161832 85.60103934 17.45951636 85.24191405 14 85 C13.31322363 84.92916923 12.62644726 84.85833845 11.91885948 84.78536129 C5.54972909 84.38615116 2.82581646 85.88052794 -1.48193359 90.4284668 Z M-239 136 C-240.81371094 136.45246094 -240.81371094 136.45246094 -242.6640625 136.9140625 C-261.73940967 142.02575684 -279.20340624 150.19988136 -295 162 C-295.81339844 162.58910156 -296.62679687 163.17820313 -297.46484375 163.78515625 C-325.49713765 185.00760837 -343.27599529 215.33057896 -352 249 C-352.27118652 250.00691895 -352.27118652 250.00691895 -352.54785156 251.03417969 C-357.62528379 270.6272134 -357.1731353 295.49832787 -352 315 C-351.72591309 316.11713379 -351.72591309 316.11713379 -351.44628906 317.25683594 C-346.63248191 336.61482234 -338.25552817 355.21010602 -326 371 C-325.12214844 372.2065625 -325.12214844 372.2065625 -324.2265625 373.4375 C-313.41761823 387.78649151 -300.05414744 399.34990549 -285 409 C-283.96359375 409.67546875 -282.9271875 410.3509375 -281.859375 411.046875 C-250.27944657 430.54704938 -208.95332736 436.36523928 -172.90625 428.2578125 C-159.07468534 424.82170333 -146.50355217 419.81237416 -134 413 C-132.94167969 412.43410156 -131.88335937 411.86820312 -130.79296875 411.28515625 C-113.85116002 401.84836895 -98.63913434 388.48050872 -87 373 C-86.40960938 372.22527344 -85.81921875 371.45054687 -85.2109375 370.65234375 C-61.62627345 338.39843105 -51.80791951 298.05591908 -57.890625 258.62695312 C-62.57835363 230.88273316 -74.39105563 206.8553491 -92 185 C-96.00517396 186.60373148 -98.6771098 189.42113986 -101.640625 192.4453125 C-102.16767029 192.97518768 -102.69471558 193.50506287 -103.23773193 194.05099487 C-104.91325675 195.73767825 -106.58167722 197.43119564 -108.25 199.125 C-109.38755851 200.27259388 -110.52557436 201.41973461 -111.6640625 202.56640625 C-114.44803465 205.37238137 -117.2256576 208.18450464 -120 211 C-118.6208275 214.59208205 -117.13787818 217.36714941 -114.8125 220.4375 C-98.06149092 244.01428409 -93.35879637 273.60019614 -97.62011719 301.81494141 C-102.38663158 329.23158909 -118.55920409 355.28598757 -141.27734375 371.37109375 C-166.75460132 388.7062097 -197.65768244 395.48588539 -228.1875 389.875 C-230.47306827 389.30624108 -232.74491 388.67961616 -235 388 C-235.65935547 387.80664062 -236.31871094 387.61328125 -236.99804688 387.4140625 C-252.34039497 382.81561589 -265.90609787 375.53552273 -278 365 C-278.65871094 364.484375 -279.31742187 363.96875 -279.99609375 363.4375 C-299.07359629 348.08337321 -311.95472085 321.58410365 -314.7890625 297.51367188 C-317.85576165 260.96884031 -317.85576165 260.96884031 -309.63671875 251.1875 C-306.39424581 248.49744837 -304.97884567 248.22133964 -300.9375 248.53515625 C-297.23565016 249.42330168 -296.00317169 250.80744512 -294 254 C-293.41866934 258.50869245 -293.55292829 262.91005878 -294.50439453 267.35791016 C-298.66722291 289.5500918 -292.73798258 312.72219753 -280.76953125 331.51171875 C-273.42317303 341.84202821 -265.37376334 349.76691731 -255 357 C-253.97326172 357.75023437 -253.97326172 357.75023437 -252.92578125 358.515625 C-234.68797453 371.01702831 -209.63838291 374.09391996 -188.25390625 370.2734375 C-184.41345249 369.43820595 -180.71425259 368.28749463 -177 367 C-175.96230469 366.649375 -174.92460937 366.29875 -173.85546875 365.9375 C-151.09248065 357.34544158 -133.90269929 339.75763821 -123.72265625 317.94140625 C-114.53413386 297.37045872 -113.29854311 273.28346359 -121 252 C-124.68026898 243.11715962 -129.38686289 234.80080294 -135 227 C-141.36590304 232.24458586 -147.13570612 238.02097322 -152.9375 243.875 C-153.91708237 244.85960919 -154.89689837 245.843986 -155.87695312 246.828125 C-158.25360252 249.21648203 -160.62787356 251.60715212 -163 254 C-161.98367392 257.14973472 -160.95819547 260.08535092 -159.5 263.0625 C-154.48353295 274.70786994 -155.01083672 288.24069336 -159.3125 299.9375 C-161.1578105 304.32208393 -163.03472319 308.24979697 -166 312 C-166.46792969 312.62132812 -166.93585938 313.24265625 -167.41796875 313.8828125 C-174.55948192 322.80546316 -184.7529647 328.91812819 -196 331 C-211.47926453 332.50864233 -224.40807342 330.60102985 -237 321 C-238.051875 320.236875 -239.10375 319.47375 -240.1875 318.6875 C-249.20865096 310.06728908 -254.99155398 297.32120917 -255.29223633 284.85717773 C-255.41647584 270.40497913 -251.59278525 257.55373905 -241.7265625 246.625 C-231.90636245 237.38245877 -219.66536826 232.60215289 -206.3125 232.625 C-205.43271484 232.62516113 -204.55292969 232.62532227 -203.64648438 232.62548828 C-195.80682913 232.76229343 -188.78756126 234.22539063 -181.9375 238.1953125 C-179.35293839 239.2687393 -178.61027897 239.0442819 -176 238 C-173.93942935 236.1947132 -172.04348368 234.39244564 -170.140625 232.43359375 C-169.59138367 231.88010757 -169.04214233 231.3266214 -168.47625732 230.75636292 C-166.72699536 228.99033441 -164.98846356 227.21415308 -163.25 225.4375 C-162.064495 224.23694559 -160.87830476 223.0370674 -159.69140625 221.83789062 C-156.78626707 218.89970905 -153.89070663 215.95237926 -151 213 C-152.88211371 207.35365887 -159.89057084 204.69164415 -165 202 C-169.8771927 199.64146179 -174.88048074 197.76137801 -180 196 C-180.96550781 195.65839844 -181.93101562 195.31679687 -182.92578125 194.96484375 C-203.52015862 188.97324546 -225.46055691 192.60460141 -244.46875 201.37890625 C-253.58527005 205.56403437 -253.58527005 205.56403437 -259 205 C-263.63235294 202.73529412 -263.63235294 202.73529412 -265 200 C-265.2734375 198.01171875 -265.2734375 198.01171875 -265.375 195.6875 C-265.44847656 194.54861328 -265.44847656 194.54861328 -265.5234375 193.38671875 C-264.72272285 189.73569897 -262.85103688 188.35191637 -260 186 C-257.58019042 184.59776027 -255.0839173 183.50155727 -252.5 182.4375 C-251.44594971 181.99144409 -251.44594971 181.99144409 -250.37060547 181.53637695 C-244.05062421 178.91507792 -237.6371598 176.67918551 -231 175 C-230.3080957 174.82339844 -229.61619141 174.64679688 -228.90332031 174.46484375 C-221.45436046 172.75314186 -214.11987669 172.61489725 -206.5 172.625 C-205.83936554 172.62521149 -205.17873108 172.62542297 -204.49807739 172.62564087 C-179.98244937 172.70381641 -156.16380537 180.35607725 -137 196 C-132.99482604 194.39626852 -130.3228902 191.57886014 -127.359375 188.5546875 C-126.83232971 188.02481232 -126.30528442 187.49493713 -125.76226807 186.94900513 C-124.08674325 185.26232175 -122.41832278 183.56880436 -120.75 181.875 C-119.61244149 180.72740612 -118.47442564 179.58026539 -117.3359375 178.43359375 C-114.55196535 175.62761863 -111.7743424 172.81549536 -109 170 C-110.8453657 165.87528801 -113.47898773 163.83903947 -117.125 161.3125 C-117.74463623 160.87897217 -118.36427246 160.44544434 -119.00268555 159.9987793 C-145.00770535 142.13474383 -174.10318498 132.52089348 -205.75 132.6875 C-206.80365753 132.68973572 -206.80365753 132.68973572 -207.87860107 132.6920166 C-218.53264005 132.73261496 -228.63899098 133.3239778 -239 136 Z M-223 258 C-224.36125 258.8353125 -224.36125 258.8353125 -225.75 259.6875 C-232.97935014 267.11766542 -235.37986492 274.72009572 -235.28125 284.828125 C-234.61650237 292.32500109 -231.43232592 298.80386217 -226 304 C-216.87962575 310.21179336 -210.0754266 311.8463754 -199 311 C-190.83003605 308.99376625 -184.55648481 303.43107171 -179.625 296.8125 C-175.58019998 288.77707139 -175.46914062 280.43619794 -178 272 C-181.01472181 271.68185085 -181.01472181 271.68185085 -182.85351562 273.52880859 C-183.53091797 274.22828613 -184.20832031 274.92776367 -184.90625 275.6484375 C-185.65003906 276.40640625 -186.39382812 277.164375 -187.16015625 277.9453125 C-187.93230469 278.74710937 -188.70445312 279.54890625 -189.5 280.375 C-191.02905468 281.94745022 -192.56021748 283.51785398 -194.09375 285.0859375 C-194.77115234 285.7876709 -195.44855469 286.4894043 -196.14648438 287.21240234 C-199.15073802 290.10981346 -201.25435457 291.31795909 -205.375 291.4375 C-208.93070046 291.33889167 -209.95338032 291.0304455 -213.0625 289 C-215.05073972 285.92143528 -215.87391359 283.77772442 -215.5859375 280.08203125 C-214.36463471 275.74233534 -211.15012832 273.07594948 -208 270 C-206.80440208 268.79584498 -205.61053811 267.58996702 -204.41796875 266.3828125 C-200.96670797 262.89991297 -197.48881288 259.4452632 -194 256 C-197.42126965 252.57873035 -200.92149849 252.75745449 -205.5625 252.625 C-212.56233097 252.66838738 -217.19570207 254.19335719 -223 258 Z " fill="#ff4200" transform="translate(436,0)"/>
<path d="M0 0 C3.348157 2.37161121 4.65750859 4.01533721 6 7.875 C6 11.90306262 4.89929459 14.47273862 3 18 C-1.01858595 20.6790573 -4.27641721 20.69610694 -9 20 C-11.87029869 18.20606332 -13.49131638 17.01736724 -15 14 C-15.5811138 6.91041162 -15.5811138 6.91041162 -13.125 3.0625 C-9.22986962 -0.71806772 -5.22963138 -0.79483171 0 0 Z " fill="#ff4200" transform="translate(155,212)"/>
</svg>
