<?xml version="1.0" encoding="UTF-8"?>
<!DOCTYPE svg PUBLIC "-//W3C//DTD SVG 1.1//EN" "http://www.w3.org/Graphics/SVG/1.1/DTD/svg11.dtd">
<svg xmlns="http://www.w3.org/2000/svg" version="1.1" width="512px" height="512px" style="shape-rendering:geometricPrecision; text-rendering:geometricPrecision; image-rendering:optimizeQuality; fill-rule:evenodd; clip-rule:evenodd" xmlns:xlink="http://www.w3.org/1999/xlink">
<g><path style="opacity:0.963" fill="#ff4200" d="M 308.5,7.5 C 358.501,7.33334 408.501,7.50001 458.5,8C 482.64,13.4732 497.473,28.3065 503,52.5C 503.667,91.8333 503.667,131.167 503,170.5C 497.5,194.667 482.667,209.5 458.5,215C 436.5,215.333 414.5,215.667 392.5,216C 385.06,216.191 378.394,218.525 372.5,223C 363.167,232.333 353.833,241.667 344.5,251C 333.318,258.831 323.151,257.665 314,247.5C 313.138,245.913 312.471,244.246 312,242.5C 311.667,236.167 311.333,229.833 311,223.5C 310.681,220.027 309.181,217.194 306.5,215C 283.68,207.848 269.513,192.682 264,169.5C 263.023,129.12 263.357,88.7869 265,48.5C 272.155,27.0113 286.655,13.3447 308.5,7.5 Z M 319.5,23.5 C 362.168,23.3333 404.835,23.5 447.5,24C 471.333,26.5 484.5,39.6667 487,63.5C 487.667,95.5 487.667,127.5 487,159.5C 484.5,183.333 471.333,196.5 447.5,199C 424.45,199.041 401.45,199.708 378.5,201C 373.108,202.53 368.108,204.863 363.5,208C 352.363,218.137 341.529,228.637 331,239.5C 330.075,238.953 329.242,238.287 328.5,237.5C 327.7,230.216 327.2,222.883 327,215.5C 325.078,209.57 321.578,204.737 316.5,201C 305.823,197.916 296.656,192.416 289,184.5C 283.234,177.204 280.234,168.871 280,159.5C 279.333,127.5 279.333,95.5 280,63.5C 282.678,39.6563 295.844,26.323 319.5,23.5 Z M 382.5,71.5 C 407.518,73.3544 423.352,86.3544 430,110.5C 432.577,139.246 420.077,157.746 392.5,166C 371.486,169.073 354.986,161.906 343,144.5C 330.485,118.396 335.652,96.5625 358.5,79C 366.155,74.9457 374.155,72.4457 382.5,71.5 Z"/></g>
<g><path style="opacity:0.938" fill="#ff4200" d="M 355.5,31.5 C 374.17,31.3334 392.836,31.5001 411.5,32C 413.333,32.5 414.5,33.6667 415,35.5C 415.929,39.2441 415.429,42.7441 413.5,46C 406.281,47.4286 398.947,47.9286 391.5,47.5C 391.5,50.1667 391.5,52.8333 391.5,55.5C 419.812,59.9782 437.978,75.9782 446,103.5C 451.593,129.311 444.76,151.144 425.5,169C 397.5,189.667 369.5,189.667 341.5,169C 322.238,151.136 315.405,129.303 321,103.5C 329.013,75.9876 347.18,59.9876 375.5,55.5C 375.5,52.8333 375.5,50.1667 375.5,47.5C 368.053,47.9286 360.719,47.4286 353.5,46C 351.571,42.7441 351.071,39.2441 352,35.5C 352.69,33.6498 353.856,32.3164 355.5,31.5 Z M 382.5,71.5 C 374.155,72.4457 366.155,74.9457 358.5,79C 335.652,96.5625 330.485,118.396 343,144.5C 354.986,161.906 371.486,169.073 392.5,166C 420.077,157.746 432.577,139.246 430,110.5C 423.352,86.3544 407.518,73.3544 382.5,71.5 Z"/></g>
<g><path style="opacity:0.985" fill="#ff4200" d="M 38.5,87.5 C 97.8343,87.3333 157.168,87.5 216.5,88C 232.667,92.1667 242.833,102.333 247,118.5C 247.667,236.5 247.667,354.5 247,472.5C 242.833,488.667 232.667,498.833 216.5,503C 157.167,503.667 97.8333,503.667 38.5,503C 22.3333,498.833 12.1667,488.667 8,472.5C 7.33333,354.5 7.33333,236.5 8,118.5C 12.3489,102.319 22.5156,91.9852 38.5,87.5 Z M 47.5,103.5 C 53.1764,103.334 58.8431,103.501 64.5,104C 66.2786,110.945 68.4453,117.779 71,124.5C 74.1005,129.8 78.6005,133.3 84.5,135C 113.167,135.667 141.833,135.667 170.5,135C 176.4,133.3 180.9,129.8 184,124.5C 186.555,117.779 188.721,110.945 190.5,104C 198.542,103.277 206.542,103.61 214.5,105C 224.595,109.1 230.095,116.6 231,127.5C 231.667,239.5 231.667,351.5 231,463.5C 229.167,477.333 221.333,485.167 207.5,487C 154.167,487.667 100.833,487.667 47.5,487C 33.3333,485.5 25.5,477.667 24,463.5C 23.3333,351.5 23.3333,239.5 24,127.5C 25.6947,113.307 33.5281,105.307 47.5,103.5 Z M 82.5,103.5 C 112.5,103.5 142.5,103.5 172.5,103.5C 172.15,109.059 170.15,113.892 166.5,118C 153.553,119.129 140.553,119.629 127.5,119.5C 114.447,119.629 101.447,119.129 88.5,118C 84.8502,113.892 82.8502,109.059 82.5,103.5 Z M 63.5,183.5 C 106.168,183.333 148.835,183.5 191.5,184C 196,184.5 198.5,187 199,191.5C 199.667,239.5 199.667,287.5 199,335.5C 198.5,340 196,342.5 191.5,343C 148.833,343.667 106.167,343.667 63.5,343C 59,342.5 56.5,340 56,335.5C 55.3333,287.5 55.3333,239.5 56,191.5C 56.6804,186.989 59.1804,184.323 63.5,183.5 Z M 119.5,208.5 C 139.065,206.019 151.898,214.019 158,232.5C 158.804,238.569 158.471,244.569 157,250.5C 147.167,269.5 137.333,288.5 127.5,307.5C 116.785,287.404 106.619,267.071 97,246.5C 94.5228,227.772 102.023,215.105 119.5,208.5 Z M 87.5,415.5 C 114.169,415.333 140.835,415.5 167.5,416C 170.494,416.406 172.661,417.906 174,420.5C 176.148,425.984 175.815,431.317 173,436.5C 171.352,437.717 169.519,438.55 167.5,439C 140.833,439.667 114.167,439.667 87.5,439C 81.7876,437.44 79.1209,433.607 79.5,427.5C 79.2389,421.311 81.9056,417.311 87.5,415.5 Z"/></g>
<g><path style="opacity:0.969" fill="#ff4200" d="M 379.5,87.5 C 383.257,87.0708 386.757,87.7375 390,89.5C 391.429,96.7194 391.929,104.053 391.5,111.5C 398.175,111.334 404.842,111.5 411.5,112C 412.416,112.374 413.25,112.874 414,113.5C 415.483,116.702 415.817,120.036 415,123.5C 414.5,125.333 413.333,126.5 411.5,127C 400.069,127.955 388.736,127.622 377.5,126C 376.874,125.25 376.374,124.416 376,123.5C 375.333,112.833 375.333,102.167 376,91.5C 376.69,89.6498 377.856,88.3164 379.5,87.5 Z"/></g>
<g><path style="opacity:0.989" fill="#ff4200" d="M 56.5,167.5 C 103.835,167.333 151.168,167.5 198.5,168C 206.667,170.833 212.167,176.333 215,184.5C 215.667,237.167 215.667,289.833 215,342.5C 212.167,350.667 206.667,356.167 198.5,359C 151.167,359.667 103.833,359.667 56.5,359C 48.3333,356.167 42.8333,350.667 40,342.5C 39.3333,289.833 39.3333,237.167 40,184.5C 43.0191,176.316 48.5191,170.649 56.5,167.5 Z M 63.5,183.5 C 59.1804,184.323 56.6804,186.989 56,191.5C 55.3333,239.5 55.3333,287.5 56,335.5C 56.5,340 59,342.5 63.5,343C 106.167,343.667 148.833,343.667 191.5,343C 196,342.5 198.5,340 199,335.5C 199.667,287.5 199.667,239.5 199,191.5C 198.5,187 196,184.5 191.5,184C 148.835,183.5 106.168,183.333 63.5,183.5 Z M 119.5,208.5 C 102.023,215.105 94.5228,227.772 97,246.5C 106.619,267.071 116.785,287.404 127.5,307.5C 137.333,288.5 147.167,269.5 157,250.5C 158.471,244.569 158.804,238.569 158,232.5C 151.898,214.019 139.065,206.019 119.5,208.5 Z"/></g>
<g><path style="opacity:0.936" fill="#ff4200" d="M 117.5,191.5 C 147.16,188.564 166.326,201.231 175,229.5C 176.583,240.573 175.249,251.239 171,261.5C 160.156,281.186 149.823,301.186 140,321.5C 131.667,330.833 123.333,330.833 115,321.5C 102.752,297.673 91.0851,273.673 80,249.5C 76.699,219.735 89.199,200.402 117.5,191.5 Z M 119.5,208.5 C 102.023,215.105 94.5228,227.772 97,246.5C 106.619,267.071 116.785,287.404 127.5,307.5C 137.333,288.5 147.167,269.5 157,250.5C 158.471,244.569 158.804,238.569 158,232.5C 151.898,214.019 139.065,206.019 119.5,208.5 Z"/></g>
<g><path style="opacity:1" fill="#ff4200" d="M 119.5,231.5 C 124.833,231.5 130.167,231.5 135.5,231.5C 135.5,236.833 135.5,242.167 135.5,247.5C 130.167,247.5 124.833,247.5 119.5,247.5C 119.5,242.167 119.5,236.833 119.5,231.5 Z"/></g>
<g><path style="opacity:0.975" fill="#ff4200" d="M 80.5,399.5 C 112.896,399.022 145.229,399.522 177.5,401C 184.149,404.314 188.649,409.481 191,416.5C 191.905,424.911 191.572,433.245 190,441.5C 186.686,448.149 181.519,452.649 174.5,455C 142.106,455.978 109.773,455.645 77.5,454C 72,451.167 67.8333,447 65,441.5C 63.4279,433.245 63.0946,424.911 64,416.5C 67.0191,408.316 72.5191,402.649 80.5,399.5 Z M 87.5,415.5 C 81.9056,417.311 79.2389,421.311 79.5,427.5C 79.1209,433.607 81.7876,437.44 87.5,439C 114.167,439.667 140.833,439.667 167.5,439C 169.519,438.55 171.352,437.717 173,436.5C 175.815,431.317 176.148,425.984 174,420.5C 172.661,417.906 170.494,416.406 167.5,416C 140.835,415.5 114.169,415.333 87.5,415.5 Z"/></g>
</svg>
