<?xml version="1.0" standalone="no"?>
<!DOCTYPE svg PUBLIC "-//W3C//DTD SVG 20010904//EN"
 "http://www.w3.org/TR/2001/REC-SVG-20010904/DTD/svg10.dtd">
<svg version="1.0" xmlns="http://www.w3.org/2000/svg"
 width="512.000000pt" height="512.000000pt" viewBox="0 0 512.000000 512.000000"
 preserveAspectRatio="xMidYMid meet">

<g transform="translate(0.000000,512.000000) scale(0.100000,-0.100000)"
fill="#ff4200" stroke="none">
<path d="M2320 4949 c-986 -100 -1807 -795 -2074 -1754 -149 -534 -98 -1145
136 -1637 l52 -109 -56 -57 c-236 -241 -284 -579 -123 -869 50 -90 178 -218
268 -268 290 -161 628 -113 869 123 l57 56 108 -52 c59 -28 160 -68 223 -90
959 -328 2008 -26 2649 761 208 257 372 584 456 911 56 221 69 332 70 596 0
264 -13 372 -70 596 -273 1068 -1245 1814 -2350 1803 -71 -1 -168 -6 -215 -10z
m570 -174 c637 -99 1193 -455 1542 -990 178 -272 292 -570 345 -905 27 -170
24 -501 -5 -670 -86 -499 -305 -919 -658 -1260 -340 -328 -747 -529 -1229
-607 -156 -25 -498 -25 -650 1 -223 36 -432 100 -627 189 l-76 35 31 89 c29
81 31 99 32 224 l1 136 31 37 c16 20 35 54 42 75 7 26 11 182 11 495 l0 456
-80 0 -80 0 0 -432 0 -431 -49 70 c-46 65 -164 183 -183 183 -4 0 -8 281 -8
625 l0 625 -80 0 -80 0 0 -321 0 -321 -32 6 c-39 7 -74 31 -102 70 -20 26 -21
42 -24 349 -4 378 -2 388 72 462 71 70 93 75 350 75 l216 0 0 81 0 81 -248 -4
-248 -3 -76 -37 c-91 -45 -147 -103 -191 -196 l-32 -67 0 -370 c0 -364 0 -371
23 -415 12 -25 35 -62 51 -81 37 -44 131 -95 193 -104 l48 -7 0 -180 c0 -168
-1 -180 -17 -173 -10 4 -54 14 -98 22 -113 22 -241 12 -352 -26 l-85 -29 -35
76 c-256 557 -279 1177 -67 1747 78 207 237 476 383 649 371 437 912 723 1486
785 123 13 427 5 555 -14z m-1829 -3367 c149 -55 254 -147 319 -282 106 -220
65 -469 -106 -640 -299 -299 -792 -175 -930 234 -26 76 -26 244 0 320 59 176
175 300 339 362 81 31 125 37 222 33 63 -2 110 -11 156 -27z"/>
<path d="M2466 4310 c-63 -16 -153 -70 -197 -117 -22 -24 -55 -74 -72 -111
-29 -61 -32 -76 -32 -163 0 -90 2 -99 37 -171 45 -91 103 -147 196 -191 61
-29 76 -32 162 -32 86 0 101 3 162 32 93 44 151 100 196 191 35 72 37 81 37
172 0 91 -2 100 -37 172 -68 136 -188 217 -336 224 -42 2 -94 -1 -116 -6z
m168 -162 c86 -26 166 -136 166 -228 0 -124 -116 -240 -240 -240 -124 0 -240
116 -240 240 0 63 23 114 75 165 70 71 145 90 239 63z"/>
<path d="M1506 4150 c-63 -16 -153 -70 -197 -117 -22 -24 -55 -74 -72 -111
-29 -61 -32 -76 -32 -163 0 -90 2 -99 37 -171 45 -91 103 -147 196 -191 61
-29 76 -32 162 -32 86 0 101 3 162 32 93 44 151 100 196 191 35 72 37 81 37
172 0 91 -2 100 -37 172 -68 136 -188 217 -336 224 -42 2 -94 -1 -116 -6z
m168 -162 c55 -16 138 -99 154 -154 28 -94 8 -169 -63 -239 -51 -52 -102 -75
-165 -75 -124 0 -240 116 -240 240 0 63 23 114 75 165 70 71 145 90 239 63z"/>
<path d="M3426 4150 c-63 -16 -153 -70 -197 -117 -22 -24 -55 -74 -72 -111
-29 -61 -32 -76 -32 -163 0 -90 2 -99 37 -171 45 -91 103 -147 196 -191 61
-29 76 -32 162 -32 86 0 101 3 162 32 93 44 151 100 196 191 35 72 37 81 37
172 0 91 -2 100 -37 172 -68 136 -188 217 -336 224 -42 2 -94 -1 -116 -6z
m168 -162 c86 -26 166 -136 166 -228 0 -124 -116 -240 -240 -240 -63 0 -114
23 -165 75 -102 101 -102 229 0 330 70 71 145 90 239 63z"/>
<path d="M2066 3349 c-62 -15 -153 -68 -197 -116 -22 -24 -55 -74 -72 -111
l-32 -67 0 -410 c0 -406 0 -410 23 -455 12 -25 35 -62 51 -81 37 -44 131 -95
194 -104 l47 -7 0 -415 c0 -297 3 -427 12 -457 16 -55 99 -138 154 -154 52
-15 180 -16 225 0 19 6 46 20 62 30 27 19 27 19 55 0 15 -10 42 -24 61 -30 45
-16 173 -15 225 0 55 16 138 99 154 154 9 30 12 160 12 457 l0 415 48 7 c59 8
155 59 188 98 14 16 37 53 52 81 l27 51 0 410 0 410 -32 67 c-44 93 -100 151
-191 196 l-76 37 -475 2 c-268 1 -493 -3 -515 -8z m968 -161 c58 -17 138 -99
155 -158 9 -33 11 -141 9 -407 -3 -347 -4 -363 -24 -389 -28 -39 -63 -63 -101
-70 l-33 -6 0 281 0 281 -80 0 -80 0 0 -775 0 -776 -25 -24 c-21 -22 -33 -25
-95 -25 -62 0 -74 3 -95 25 l-25 24 0 496 0 495 -80 0 -80 0 0 -495 0 -496
-25 -24 c-21 -22 -33 -25 -95 -25 -62 0 -74 3 -95 25 l-25 24 0 776 0 775 -80
0 -80 0 0 -281 0 -281 -32 6 c-39 7 -74 31 -102 70 -20 26 -21 42 -24 389 -2
266 0 374 9 407 16 55 97 140 149 157 52 16 899 17 954 1z"/>
<path d="M3520 3121 l0 -81 216 0 c257 0 279 -5 350 -75 74 -74 76 -84 72
-462 -3 -307 -4 -323 -24 -349 -28 -39 -63 -63 -101 -70 l-33 -6 0 321 0 321
-80 0 -80 0 0 -775 0 -776 -25 -24 c-21 -22 -33 -25 -95 -25 -62 0 -74 3 -95
25 l-25 24 0 456 0 455 -80 0 -80 0 0 -456 c0 -329 3 -468 12 -498 16 -55 99
-138 154 -154 58 -17 182 -15 237 4 57 19 128 93 145 152 8 27 12 154 12 415
l0 375 48 7 c59 8 155 59 188 98 14 16 37 53 52 81 l27 51 0 370 0 370 -32 67
c-44 93 -100 151 -191 196 l-76 37 -248 3 -248 4 0 -81z"/>
<path d="M597 1163 l-57 -58 112 -112 113 -113 -113 -113 -112 -112 57 -58 58
-57 112 112 113 113 113 -113 112 -112 58 57 57 58 -112 112 -113 113 113 113
112 112 -57 58 -58 57 -112 -112 -113 -113 -113 113 -112 112 -58 -57z"/>
</g>
</svg>
