<svg width="764" height="650" viewBox="0 0 764 650" fill="none" xmlns="http://www.w3.org/2000/svg">
<path d="M418.696 286.646C418.696 287.213 418.473 287.754 418.073 288.154C417.673 288.554 417.131 288.779 416.564 288.779C415.999 288.779 415.458 288.554 415.058 288.154C414.657 287.754 414.433 287.213 414.433 286.646V263.569C414.433 263.004 414.657 262.461 415.058 262.063C415.458 261.663 415.999 261.438 416.564 261.438C417.131 261.438 417.673 261.663 418.073 262.063C418.473 262.461 418.696 263.004 418.696 263.569V286.646Z" fill="#5c63713a"/>
<path d="M426.926 258.193C427.129 258.389 427.294 258.624 427.406 258.884C427.517 259.144 427.576 259.424 427.579 259.705C427.582 259.99 427.528 260.271 427.42 260.533C427.314 260.793 427.155 261.031 426.954 261.232C426.754 261.432 426.517 261.591 426.255 261.698C425.993 261.805 425.713 261.859 425.429 261.856C425.148 261.853 424.868 261.794 424.608 261.682C424.347 261.57 424.112 261.407 423.916 261.203L416.732 254.018L409.542 261.207C409.347 261.412 409.111 261.575 408.851 261.687C408.591 261.799 408.311 261.858 408.029 261.861C407.745 261.865 407.465 261.812 407.204 261.704C406.942 261.597 406.704 261.438 406.505 261.239C406.304 261.038 406.146 260.802 406.039 260.54C405.932 260.278 405.877 259.997 405.882 259.714C405.884 259.431 405.943 259.151 406.055 258.891C406.168 258.632 406.332 258.396 406.535 258.2L415.228 249.506C415.426 249.308 415.659 249.15 415.918 249.043C416.177 248.935 416.454 248.879 416.734 248.878C417.013 248.879 417.29 248.935 417.549 249.042C417.808 249.15 418.04 249.307 418.239 249.505L426.926 258.193Z" fill="#5c63713a"/>
<path d="M599.631 548.361C599.631 548.947 599.804 549.52 600.129 550.007C600.457 550.493 600.919 550.874 601.463 551.098C602.004 551.321 602.601 551.38 603.177 551.265C603.753 551.152 604.281 550.869 604.696 550.454C605.109 550.042 605.394 549.513 605.507 548.938C605.621 548.365 605.563 547.768 605.338 547.227C605.114 546.686 604.733 546.224 604.245 545.899C603.757 545.574 603.183 545.401 602.597 545.401C601.809 545.401 601.056 545.713 600.5 546.267C599.943 546.823 599.631 547.576 599.631 548.361Z" fill="#5c63713a"/>
<path d="M562.337 556.671C560.716 556.671 559.131 557.153 557.782 558.051C556.434 558.951 555.383 560.228 554.763 561.723C554.144 563.22 553.982 564.864 554.298 566.451C554.617 568.038 555.398 569.497 556.546 570.639C557.693 571.783 559.154 572.561 560.744 572.876C562.337 573.19 563.984 573.025 565.482 572.405C566.978 571.783 568.258 570.733 569.157 569.388C570.056 568.04 570.535 566.458 570.533 564.839C570.533 563.765 570.321 562.702 569.908 561.71C569.497 560.72 568.894 559.817 568.132 559.06C567.37 558.301 566.467 557.7 565.472 557.289C564.479 556.881 563.413 556.669 562.337 556.671Z" fill="#5c63713a26"/>
<path d="M642.775 444.571C644.585 444.571 646.053 443.107 646.053 441.299C646.053 439.492 644.585 438.027 642.775 438.027C640.964 438.027 639.496 439.492 639.496 441.299C639.496 443.107 640.964 444.571 642.775 444.571Z" fill="#5c63713a"/>
<path d="M707.778 352.195C727.111 348.435 740.585 331.108 740.955 311.775C740.878 303.383 738.27 295.211 733.474 288.319C728.676 281.426 721.911 276.135 714.059 273.134C713.006 272.752 711.953 272.405 710.877 272.108C710.963 271.605 711.022 271.098 711.057 270.592C710.267 256.047 688.323 255.916 688.323 270.592C688.323 271.13 688.357 271.669 688.43 272.202C680.261 274.48 672.996 279.217 667.624 285.767C662.255 292.354 659.055 300.432 658.461 308.903C657.866 317.372 659.905 325.817 664.301 333.086C668.699 340.353 675.236 346.091 683.022 349.511C690.808 352.93 699.462 353.869 707.802 352.195H707.778ZM668.654 293.684C673.46 285.59 681.25 279.691 690.358 277.253C694.57 283.034 704.333 282.951 708.795 277.11C724.481 281.205 735.261 295.596 735.571 311.738C735.571 317.243 734.3 322.671 731.858 327.605C729.416 332.539 725.868 336.844 721.489 340.188C717.111 343.531 712.018 345.824 706.61 346.887C701.2 347.949 695.616 347.755 690.294 346.316C684.972 344.876 680.054 342.233 675.921 338.591C671.787 334.949 668.551 330.406 666.46 325.314C664.371 320.22 663.485 314.718 663.873 309.228C664.258 303.738 665.908 298.411 668.69 293.661L668.654 293.684Z" fill="#5c63713a"/>
<path d="M737.091 492.776C730.902 490.462 724.246 489.669 717.685 490.464C711.123 491.26 704.849 493.619 699.396 497.344C693.941 501.07 689.466 506.052 686.346 511.867C683.228 517.684 681.559 524.164 681.479 530.76C664.922 530.247 648.219 529.661 631.935 526.391C616.907 523.369 602.61 517.851 588.622 511.596C590.013 506.382 590.202 500.924 589.17 495.629C588.141 490.334 585.919 485.34 582.675 481.026C578.656 475.691 573.22 471.584 566.982 469.172C560.746 466.762 553.956 466.144 547.383 467.386C540.811 468.629 534.721 471.685 529.799 476.206C524.876 480.727 521.324 486.533 519.539 492.966L519.24 492.836C513.605 490.447 507.168 489.527 501.186 488.514C493.435 487.154 485.619 486.195 477.77 485.648L473.5 485.349C477.973 482.372 482.525 479.519 487.152 476.788C510.343 463.357 535.226 453.07 561.14 446.195C591.541 437.895 622.805 433.226 653.986 428.868C654.174 435.681 656.071 442.341 659.501 448.237C663.886 455.605 670.441 461.447 678.274 464.963C686.104 468.481 694.833 469.504 703.267 467.891C722.59 464.129 736.061 446.804 736.434 427.458C736.434 418.947 733.791 410.643 728.873 403.688C723.953 396.733 716.996 391.47 708.96 388.621C700.922 385.77 692.197 385.473 683.985 387.77C675.772 390.069 668.472 394.847 663.09 401.451C658.005 407.753 654.885 415.405 654.117 423.459C597.882 431.304 541.064 440.677 490.764 468.548L488.885 469.61C504.67 450.046 524.155 433.774 546.232 421.716C546.596 421.532 546.906 421.259 547.133 420.923C547.362 420.587 547.501 420.198 547.535 419.794C551.233 422.514 555.83 423.724 560.391 423.181C564.949 422.636 569.131 420.375 572.08 416.862C575.029 413.348 576.522 408.842 576.259 404.265C575.994 399.691 573.991 395.386 570.659 392.233C567.325 389.079 562.912 387.312 558.319 387.295C553.727 387.276 549.299 389.006 545.941 392.133C542.581 395.257 540.544 399.545 540.242 404.12C539.94 408.692 541.398 413.209 544.317 416.748C544.028 416.802 543.75 416.902 543.493 417.045C517.17 431.614 493.876 451.854 476.92 476.751C469.096 481.696 461.518 486.985 454.188 492.62C446.328 498.591 439.7 504.049 434.816 512.706C424.204 531.549 419.168 553.829 414.837 574.798C409.804 598.411 406.482 622.355 404.894 646.444C404.691 649.919 410.112 649.906 410.315 646.444C411.655 626.123 414.276 605.907 418.163 585.915C422.231 564.148 427.005 541.53 436.469 521.363C439.927 513.982 444.019 507.558 450.396 502.413C455.038 498.679 459.78 495.069 464.621 491.583C464.807 491.544 464.987 491.484 465.16 491.403C468.019 490.09 472.888 490.843 475.927 490.997C481.911 491.307 487.952 491.989 493.876 492.859C499.367 493.659 504.846 494.592 510.23 495.858C512.28 496.294 514.3 496.854 516.284 497.528C516.477 497.601 516.978 497.874 517.48 498.078C517.568 498.732 517.866 499.339 518.33 499.81C518.33 499.953 518.33 500.096 518.33 500.24C517.868 507.736 519.757 515.189 523.74 521.562C527.723 527.933 533.599 532.907 540.548 535.788C547.46 538.609 555.096 539.143 562.336 537.317C562.464 537.567 562.625 537.8 562.815 538.008C562.925 538.121 563.047 538.226 563.175 538.32C562.349 537.937 564.132 539.154 564.525 539.513L568.713 543.286L582.209 555.418C592.188 564.385 602.167 573.329 612.266 582.189C607.476 588.922 604.825 596.935 604.656 605.19C604.484 613.443 606.804 621.559 611.311 628.482C615.818 635.404 622.305 640.817 629.932 644.014C637.559 647.214 645.972 648.052 654.08 646.42C673.416 642.659 686.887 625.334 687.26 606.001C687.262 597.714 684.762 589.619 680.084 582.773C675.408 575.927 668.772 570.647 661.042 567.623C653.312 564.597 644.848 563.968 636.756 565.818C628.663 567.666 621.316 571.907 615.675 577.987C605.396 568.983 595.227 559.849 585.057 550.713L571.896 538.893C570.699 537.854 569.503 536.432 568.2 535.309C572.403 533.632 576.221 531.117 579.42 527.922C582.619 524.725 585.136 520.914 586.816 516.718C600.911 522.986 615.292 528.587 630.439 531.632C647.273 535.011 664.539 535.668 681.659 536.205C682.269 541.859 684.062 547.323 686.924 552.242C691.336 559.612 697.921 565.442 705.778 568.938C713.634 572.435 722.38 573.425 730.823 571.779C750.145 568.027 763.617 550.69 764 531.357C763.908 522.975 761.295 514.814 756.495 507.932C751.697 501.052 744.936 495.772 737.091 492.776ZM664.106 409.344C667.886 402.991 673.523 397.946 680.262 394.883C686.999 391.823 694.514 390.895 701.795 392.22C718.785 395.409 730.666 410.431 730.99 427.424C731 432.931 729.74 438.367 727.304 443.31C724.867 448.252 721.323 452.568 716.944 455.921C712.566 459.272 707.47 461.574 702.056 462.641C696.642 463.71 691.054 463.518 685.727 462.08C680.399 460.641 675.474 457.998 671.338 454.351C667.201 450.705 663.963 446.156 661.872 441.06C659.784 435.962 658.902 430.45 659.293 424.956C659.685 419.462 661.339 414.133 664.132 409.381L664.106 409.344ZM652.694 570.81C669.683 573.998 681.552 589.02 681.886 606.024C681.882 613.396 679.6 620.586 675.35 626.615C671.102 632.643 665.093 637.216 658.142 639.712C651.193 642.207 643.641 642.502 636.519 640.556C629.395 638.61 623.045 634.519 618.337 628.839C613.629 623.161 610.791 616.17 610.211 608.824C609.629 601.475 611.333 594.127 615.091 587.78C618.846 581.434 624.475 576.4 631.203 573.363C637.933 570.326 645.437 569.435 652.694 570.81ZM536.613 527.597C533.328 525.313 530.528 522.404 528.369 519.04C526.212 515.676 524.737 511.921 524.035 507.988C522.612 500.047 524.412 491.867 529.032 485.248C533.655 478.629 540.721 474.112 548.68 472.694C552.62 471.993 556.661 472.07 560.57 472.927C564.478 473.783 568.181 475.4 571.465 477.684C585.417 487.331 588.119 506.185 579.039 520.026C574.361 526.57 567.301 531.027 559.372 532.443C551.443 533.857 543.272 532.118 536.613 527.597ZM734.985 565.102C729.795 566.984 724.24 567.642 718.751 567.031C713.263 566.419 707.99 564.552 703.344 561.573C698.696 558.596 694.801 554.588 691.959 549.862C689.117 545.136 687.407 539.821 686.96 534.327C686.515 528.833 687.343 523.311 689.385 518.191C691.426 513.069 694.624 508.486 698.728 504.801C702.833 501.114 707.736 498.422 713.052 496.936C718.37 495.449 723.959 495.205 729.387 496.228C746.364 499.404 758.245 514.438 758.579 531.429C758.511 538.76 756.221 545.897 752.009 551.904C747.798 557.91 741.863 562.503 734.985 565.078V565.102Z" fill="#5c63713a"/>
<path d="M614.812 413.047C619.525 413.047 623.345 409.236 623.345 404.533C623.345 399.83 619.525 396.019 614.812 396.019C610.102 396.019 606.282 399.83 606.282 404.533C606.282 409.236 610.102 413.047 614.812 413.047Z" fill="#5c63713a"/>
<path d="M722.723 383.887C727.433 383.887 731.253 380.076 731.253 375.373C731.253 370.672 727.433 366.859 722.723 366.859C718.01 366.859 714.192 370.672 714.192 375.373C714.192 380.076 718.01 383.887 722.723 383.887Z" fill="#5c63713a"/>
<path d="M480.978 507.022C481.853 507.022 482.709 506.763 483.437 506.278C484.164 505.792 484.731 505.101 485.067 504.295C485.401 503.487 485.489 502.599 485.32 501.742C485.149 500.886 484.727 500.097 484.106 499.481C483.488 498.863 482.7 498.442 481.84 498.271C480.982 498.099 480.092 498.187 479.283 498.523C478.474 498.857 477.782 499.423 477.297 500.15C476.809 500.875 476.55 501.731 476.55 502.603C476.55 503.775 477.016 504.9 477.847 505.728C478.677 506.558 479.803 507.022 480.978 507.022Z" fill="#5c63713a"/>
<path d="M456.151 522.747C459.958 522.747 463.042 519.667 463.042 515.869C463.042 512.071 459.958 508.991 456.151 508.991C452.344 508.991 449.26 512.071 449.26 515.869C449.26 519.667 452.344 522.747 456.151 522.747Z" fill="#5c63713a"/>
<path d="M476.013 531.406C476.013 540.589 489.76 540.516 490.25 531.406C489.76 522.295 476.013 522.222 476.013 531.406Z" fill="#5c63713a"/>
<path d="M609.681 479.401C609.681 488.584 623.439 488.501 623.931 479.401C623.439 470.278 609.681 470.207 609.681 479.401Z" fill="#5c63713a"/>
<path d="M409.643 487.954C412.395 479.034 417.217 470.507 421.202 462.089C432.95 437.252 445.585 412.833 459.729 389.248C467.48 394.238 476.843 396.098 485.919 394.456C492.05 393.28 497.768 390.521 502.498 386.451C507.228 382.383 510.806 377.146 512.875 371.267H512.946C550.957 374.716 588.575 374.716 626.694 374.143C626.882 374.135 627.071 374.111 627.257 374.073C627.589 379.9 630.144 385.382 634.396 389.391C638.651 393.401 644.279 395.636 650.128 395.636C655.979 395.636 661.607 393.406 665.861 389.396C670.116 385.388 672.671 379.907 673.007 374.079C673.341 368.249 671.43 362.513 667.663 358.046C663.895 353.578 658.559 350.719 652.747 350.052C646.935 349.384 641.088 350.963 636.403 354.462C631.721 357.958 628.554 363.112 627.556 368.865C627.278 368.771 626.987 368.726 626.694 368.735C589.053 369.295 551.891 369.295 514.358 365.976C514.818 363.762 515.075 361.513 515.124 359.254C514.979 352.13 512.8 345.195 508.843 339.265C515.257 328.824 523.025 319.277 531.947 310.868C532.253 311.287 532.666 311.617 533.144 311.824C571.5 327.359 613.317 332.387 654.273 326.392C657.718 325.902 656.246 320.697 652.837 321.174C613.336 326.807 573.045 321.963 536.013 307.132C552.274 292.467 571.393 280.478 590.011 270.461C593.913 276.426 599.492 281.111 606.049 283.93C612.604 286.749 619.848 287.574 626.874 286.306C643.887 283.19 655.696 268.072 656.079 251.115C656.096 245.769 654.913 240.484 652.619 235.651C650.322 230.818 646.971 226.56 642.811 223.189C638.651 219.819 633.786 217.419 628.575 216.17C623.366 214.919 617.941 214.849 612.7 215.965C607.459 217.079 602.535 219.352 598.287 222.616C594.041 225.877 590.581 230.048 588.16 234.821C585.742 239.592 584.422 244.845 584.302 250.191C584.18 255.538 585.26 260.844 587.463 265.72L587.319 265.78C556.402 282.414 524.288 304.469 505.325 334.763C501.556 330.719 496.889 327.613 491.697 325.699C491.74 325.507 491.763 325.31 491.77 325.113C491.853 311.49 493.54 296.683 501.34 285.113C503.382 285.94 505.563 286.37 507.767 286.379C517.493 286.379 524.767 278.496 525.114 269.052C524.767 259.618 517.493 251.737 507.767 251.737C504.199 251.727 500.717 252.815 497.794 254.858C494.873 256.898 492.654 259.789 491.442 263.138C490.231 266.485 490.086 270.125 491.027 273.56C491.967 276.992 493.948 280.051 496.698 282.318C488.562 294.39 486.576 309.925 486.409 324.183C479.625 322.821 472.589 323.445 466.153 325.982C459.716 328.518 454.15 332.859 450.127 338.48C446.103 344.098 443.794 350.76 443.477 357.659C443.161 364.56 444.847 371.404 448.337 377.368C450.249 380.608 452.673 383.521 455.517 385.989C442.476 407.662 430.714 430.064 419.766 452.859C414.454 463.916 408.567 474.855 404.787 486.508C400.873 466.435 388.035 449.037 380.318 429.897C401.293 425.919 416.08 407.125 416.453 386.096C416.269 373.983 411.291 362.432 402.609 353.963L402.752 353.7C406.461 344.806 410.386 336.769 411.894 327.156C411.969 326.674 411.92 326.18 411.749 325.723C417.238 326.313 422.783 326.108 428.212 325.113C455.228 320.135 474.553 295.955 474.874 268.849C474.756 259.595 472.447 250.499 468.139 242.304C486.867 240.807 505.289 236.669 522.854 230.016C538.109 224.284 556.738 215.593 563.306 199.531C571.446 202.766 580.524 202.732 588.64 199.436C596.757 196.139 603.278 189.836 606.843 181.848C610.406 173.859 610.733 164.804 607.757 156.579C604.78 148.355 598.73 141.599 590.874 137.727C583.018 133.855 573.963 133.167 565.61 135.808C557.258 138.449 550.253 144.213 546.063 151.893C541.873 159.573 540.824 168.573 543.136 177.008C545.447 185.443 550.938 192.659 558.46 197.143C552.477 212.905 532.305 221.025 517.684 226.172C501.289 232.017 484.183 235.655 466.823 236.99C466.235 237.024 465.672 237.246 465.22 237.623C464.262 236.149 463.237 234.721 462.145 233.337C462.646 233.112 463.065 232.736 463.341 232.261C468.709 223.891 474.592 215.858 480.954 208.212C483.584 209.958 486.771 210.663 489.895 210.191C493.02 209.72 495.855 208.105 497.852 205.661C499.846 203.218 500.861 200.12 500.694 196.972C500.527 193.823 499.194 190.849 496.949 188.629L496.615 188.319C500.857 182.681 504.687 176.747 508.077 170.562C519.263 149.558 521.945 125.963 522.291 102.499C529.02 101.891 535.448 99.4404 540.871 95.4178C555.026 84.8501 559.094 66.1864 552.179 50.2931C545.406 36.4535 530.702 27.7008 515.171 29.3129C507.634 30.0539 500.508 33.0939 494.762 38.0196C489.014 42.9452 484.928 49.5176 483.056 56.843C481.183 64.1684 481.617 71.8914 484.299 78.9618C486.978 86.0325 491.776 92.1077 498.038 96.3612C503.613 100.156 510.132 102.338 516.871 102.666C516.511 126.369 513.712 150.191 501.593 171.064C498.663 176.055 495.468 180.886 492.02 185.536C489.54 184.726 486.869 184.698 484.374 185.456C481.876 186.213 479.674 187.72 478.065 189.77C476.456 191.821 475.518 194.316 475.379 196.917C475.242 199.518 475.91 202.099 477.292 204.308C470.637 212.284 464.476 220.659 458.843 229.383C452.902 223.099 445.607 218.245 437.509 215.186C434.275 213.974 430.935 213.067 427.532 212.475C427.68 212.226 427.776 211.95 427.819 211.663C431.863 189.226 432.45 165.977 431.121 143.253C429.685 118.918 426.072 93.7343 415.47 71.524C415.447 71.4951 415.426 71.463 415.411 71.4286C431.157 67.4163 441.913 52.9199 442.283 36.7997C442.283 31.2968 441.012 25.868 438.57 20.9344C436.128 16.0008 432.58 11.695 428.202 8.35099C423.823 5.00701 418.73 2.71483 413.322 1.65224C407.912 0.589646 402.328 0.78522 397.006 2.22378C391.684 3.66236 386.766 6.30524 382.633 9.9474C378.499 13.5896 375.263 18.1331 373.172 23.2255C371.084 28.318 370.198 33.8223 370.585 39.3115C370.97 44.8009 372.618 50.1276 375.402 54.8783C378.97 60.857 384.189 65.683 390.434 68.7788C396.679 71.8749 403.683 73.11 410.613 72.336C410.426 72.9883 410.488 73.687 410.792 74.2943C421.178 96.0509 424.504 121.043 425.783 144.877C426.982 166.586 426.455 188.82 422.601 210.266C422.492 210.813 422.556 211.38 422.781 211.89C408.111 210.512 393.473 214.828 381.91 223.942C370.345 233.055 362.746 246.265 360.687 260.827C358.628 275.388 362.273 290.181 370.859 302.132C379.447 314.082 392.317 322.269 406.797 324.996C406.686 325.225 406.609 325.47 406.57 325.723C405.17 334.596 401.699 342.19 398.254 350.31C394.738 347.667 390.847 345.563 386.708 344.064C380.273 341.805 373.41 341.033 366.632 341.805C359.857 342.575 353.343 344.872 347.584 348.518C341.23 333.52 334.758 318.582 328.045 303.753C328.045 288.539 332.353 274.52 338.886 261.351C340.958 261.197 342.961 260.54 344.72 259.436C346.479 258.333 347.939 256.815 348.973 255.016C350.008 253.217 350.584 251.192 350.652 249.12C350.721 247.047 350.28 244.99 349.366 243.127C354.847 234.77 360.865 226.637 366.75 218.769C381.683 198.767 400.109 173.261 392.033 146.967C396.364 144.812 400.028 141.521 402.628 137.446C405.23 133.371 406.671 128.667 406.797 123.837C406.341 109.914 395.405 98.2359 381.133 98.2359C374.33 98.2359 367.805 100.933 362.994 105.735C358.183 110.536 355.48 117.048 355.48 123.837C355.48 130.627 358.183 137.139 362.994 141.94C367.805 146.742 374.33 149.439 381.133 149.439C383.083 149.438 385.026 149.214 386.924 148.77C394.928 175.781 372.567 202.087 357.479 222.171C353.458 227.496 349.486 233.001 345.741 238.662C343.866 237.206 341.619 236.303 339.257 236.059C337.857 223.651 335.728 211.209 331 199.77C327.578 191.411 321.693 185.62 316.225 178.635C308.566 168.843 302.155 157.821 301.808 145.092C301.806 144.845 301.765 144.599 301.688 144.364C302.745 144.226 303.796 144.03 304.834 143.779C319.455 140.28 329.027 126.381 328.141 111.682C326.765 98.9525 318.485 88.0383 305.947 84.4322C299.948 82.769 293.588 82.9407 287.688 84.9247C281.788 86.9087 276.619 90.6141 272.853 95.5611C257.646 115.861 273.283 143.707 296.423 144.615C296.423 144.77 296.423 144.925 296.423 145.092C296.71 155.756 300.671 165.476 306.486 174.312C311.941 182.671 319.958 189.429 324.433 198.277C330.331 209.884 332.58 223.354 334.003 236.643C331.925 237.31 330.054 238.499 328.569 240.099C327.086 241.697 326.04 243.649 325.532 245.769C325.025 247.888 325.075 250.104 325.674 252.197C326.273 254.293 327.403 256.199 328.954 257.732C330.174 258.945 331.627 259.898 333.226 260.538C328.139 270.87 324.758 281.954 323.213 293.363C316.596 279.035 309.739 264.836 302.514 250.805C302.298 250.375 301.966 250.016 301.555 249.768C305.146 246.855 307.494 242.689 308.119 238.112C308.746 233.538 307.605 228.897 304.928 225.131C302.251 221.365 298.238 218.756 293.703 217.832C289.171 216.91 284.456 217.744 280.514 220.163C276.574 222.584 273.705 226.41 272.485 230.865C271.267 235.319 271.794 240.069 273.955 244.152C276.119 248.234 279.757 251.344 284.131 252.847C288.505 254.351 293.288 254.137 297.513 252.251C297.508 252.7 297.62 253.145 297.836 253.54C314.25 285.386 328.824 318.116 342.775 351.11C342.869 351.337 342.993 351.549 343.145 351.743C340.958 353.531 338.955 355.531 337.162 357.712C331.576 364.434 328.092 372.644 327.14 381.325C326.187 390.005 327.812 398.771 331.809 406.539C335.807 414.306 342.002 420.731 349.627 425.014C357.25 429.298 365.969 431.253 374.696 430.637C374.696 430.637 374.696 430.707 374.696 430.757C384.063 454.482 402.215 475.832 400.253 502.676C400.193 503.236 400.332 503.799 400.646 504.265C396.064 531.323 394.785 559.193 393.469 586.454C392.846 599.183 392.272 611.948 392.272 624.665C392.272 628.14 397.691 628.153 397.691 624.665C397.691 598.61 399.379 572.459 401.472 546.501C402.669 531.872 403.998 517.184 406.461 502.712C407.191 497.727 408.254 492.796 409.643 487.954ZM620.15 220.715C637.056 220.715 650.252 234.554 650.624 251.128C650.252 267.715 637.056 281.541 620.15 281.541C612.067 281.541 604.315 278.338 598.602 272.634C592.885 266.93 589.675 259.195 589.675 251.128C589.675 243.061 592.885 235.326 598.602 229.622C604.315 223.918 612.067 220.715 620.15 220.715ZM448.768 359.288C448.843 351.249 452.076 343.559 457.773 337.874C463.47 332.19 471.174 328.963 479.231 328.888C496.136 328.888 509.333 342.716 509.704 359.288C509.333 375.875 496.136 389.704 479.231 389.704C471.172 389.629 463.466 386.4 457.769 380.711C452.072 375.024 448.84 367.332 448.768 359.288ZM490.094 78.8797C486.743 71.2722 486.518 62.6566 489.467 54.8855C492.416 47.1145 498.303 40.809 505.864 37.3252C521.812 30.1606 539.988 37.6954 547.501 53.0632C554.332 68.7658 547.501 87.5131 531.731 94.6178C524.108 97.9583 515.477 98.1809 507.692 95.2382C499.906 92.2953 493.587 86.4218 490.094 78.8797ZM406.341 67.1894C398.292 67.115 390.592 63.8927 384.898 58.2152C379.201 52.5376 375.965 44.8574 375.879 36.8237C375.942 28.7735 379.173 21.07 384.872 15.3741C390.573 9.67822 398.288 6.44598 406.354 6.37416C423.26 6.37416 436.456 20.2018 436.828 36.7877C436.456 53.3618 423.247 67.1894 406.354 67.1894H406.341ZM377.268 302.187C371.901 295.761 368.165 288.139 366.375 279.965C364.586 271.791 364.794 263.307 366.985 255.232C369.175 247.157 373.284 239.727 378.959 233.57C384.637 227.415 391.716 222.714 399.598 219.866C407.48 217.019 415.933 216.108 424.243 217.212C432.552 218.315 440.473 221.399 447.336 226.205C454.199 231.01 459.8 237.394 463.667 244.817C467.534 252.238 469.552 260.482 469.552 268.849C469.263 290.677 455.624 310.641 434.782 317.972C424.72 321.441 413.844 321.788 403.58 318.971C393.317 316.153 384.149 310.303 377.279 302.187H377.268ZM360.901 123.837C360.953 118.631 363.001 113.643 366.624 109.897C370.245 106.151 375.167 103.931 380.378 103.693C391.973 103.251 401.006 112.577 401.376 123.861C401.019 134.871 392.439 144.053 381.133 144.053C375.779 144.004 370.658 141.857 366.874 138.076C363.088 134.295 360.944 129.181 360.901 123.837ZM272.194 116.255C271.588 109.568 273.666 102.914 277.974 97.7566C282.282 92.5994 288.467 89.3613 295.167 88.7548C298.484 88.4545 301.829 88.8093 305.009 89.7991C308.189 90.7886 311.143 92.3938 313.702 94.5228C318.868 98.8223 322.113 104.995 322.72 111.682C323.487 125.414 313.867 137.952 299.749 139.146C293.068 139.686 286.442 137.592 281.291 133.313C276.14 129.033 272.874 122.91 272.194 116.255ZM341.422 411.257C336.081 404.862 332.916 396.939 332.387 388.632C331.856 380.324 333.99 372.064 338.478 365.046C342.965 358.029 349.574 352.62 357.347 349.6C365.119 346.581 373.654 346.108 381.713 348.251C389.773 350.394 396.94 355.039 402.179 361.519C407.415 367.997 410.452 375.97 410.846 384.287C411.242 392.602 408.975 400.825 404.376 407.769C399.775 414.713 393.081 420.016 385.259 422.91C377.636 425.682 369.344 426.052 361.505 423.966C353.664 421.881 346.655 417.446 341.422 411.257Z" fill="#5c63713a"/>
<path d="M292.918 612.825C299.154 597.801 292.004 580.575 276.949 574.351C261.896 568.128 244.636 575.262 238.4 590.288C232.164 605.312 239.314 622.538 254.367 628.762C269.422 634.985 286.682 627.851 292.918 612.825Z" fill="#5c63713a"/>
<path d="M352.956 611.182C348.96 599.074 344.808 587.014 340.287 575.098C329.734 547.287 317.553 518.974 299.319 495.235C291.063 484.489 281.086 474.279 268.438 468.858C272.65 464.841 275.937 459.961 278.077 454.555C280.219 449.146 281.159 443.342 280.836 437.536C280.513 431.731 278.933 426.066 276.207 420.929C273.478 415.792 269.669 411.305 265.038 407.779C260.407 404.252 255.065 401.767 249.381 400.499C243.695 399.229 237.804 399.205 232.107 400.426C226.412 401.647 221.049 404.085 216.39 407.574C211.729 411.062 207.881 415.514 205.11 420.628C193.289 413.632 181.352 406.834 169.3 400.234C157.335 393.63 145.299 386.692 132.616 381.534C129.386 380.221 127.986 385.45 131.169 386.752C143.839 391.9 155.864 398.981 167.804 405.582C179.745 412.187 191.279 418.718 202.849 425.572C199.792 433.673 199.434 442.544 201.827 450.866C204.221 459.187 209.239 466.516 216.135 471.764C223.033 477.014 231.443 479.906 240.117 480.008C248.791 480.109 257.267 477.419 264.287 472.333C264.531 472.844 264.959 473.244 265.483 473.456C280.69 479.891 292.272 492.846 301.592 507.141C276.562 503.272 250.971 507.487 226.275 512.06C197.177 517.445 172.842 523.846 143.289 523.869C143.289 523.632 143.289 523.405 143.289 523.166C143.272 512.934 140.098 502.958 134.197 494.592C128.297 486.225 119.957 479.878 110.313 476.411C100.669 472.942 90.1887 472.525 80.2982 475.216C70.4077 477.904 61.5877 483.569 55.0378 491.439C48.4974 499.331 44.555 509.044 43.7482 519.254C42.9414 529.464 45.3096 539.674 50.5296 548.491C55.7498 557.309 63.5679 564.304 72.918 568.526C82.2679 572.745 92.6947 573.986 102.777 572.076C124.217 568.134 140.07 550.273 142.918 529.267C171.262 529.267 194.425 523.572 222.29 518.294C227.401 517.327 232.556 516.348 237.75 515.428C216.979 529.673 199.463 547.274 181.253 564.745C178.549 562.437 175.464 560.619 172.136 559.37C166.169 557.214 159.684 556.939 153.555 558.577C147.425 560.213 141.947 563.688 137.857 568.53C119.91 590.023 139.053 623.039 166.572 618.454C181.48 615.971 191.829 602.932 192.224 588.184C192.071 581.043 189.546 574.154 185.045 568.6C205.182 549.233 224.529 529.65 248.457 514.866C249.007 514.566 249.433 514.079 249.655 513.493C268.152 510.77 286.901 509.564 305.217 513.206H305.494C309.585 520.05 313.221 527.034 316.536 533.626C329.028 558.643 338.598 584.912 347.357 611.386C349.883 619.003 352.012 626.908 355.207 634.275C356.594 637.464 361.259 634.718 359.896 631.553C357.311 625.618 355.171 617.786 352.956 611.182ZM108.639 565.867C99.5557 569.077 89.6836 569.321 80.4521 566.562C71.2207 563.801 63.1091 558.181 57.2913 550.512C51.4738 542.845 48.2519 533.529 48.0927 523.912C47.9333 514.297 50.8446 504.878 56.4051 497.023C61.9654 489.168 69.8864 483.283 79.0214 480.218C88.1563 477.155 98.0311 477.072 107.216 479.983C116.401 482.893 124.42 488.646 130.111 496.407C135.803 504.168 138.872 513.535 138.874 523.153C138.623 542.139 126.754 559.526 108.639 565.867ZM161.523 613.488C154.799 613.488 148.35 610.821 143.596 606.075C138.841 601.33 136.17 594.895 136.17 588.184C136.17 581.473 138.841 575.038 143.596 570.292C148.35 565.546 154.799 562.882 161.523 562.882C164.792 562.875 168.03 563.515 171.05 564.764C174.071 566.013 176.814 567.843 179.123 570.153C179.246 570.305 179.382 570.444 179.53 570.57C184.095 575.322 186.716 581.603 186.876 588.184C186.798 594.871 184.102 601.261 179.364 605.99C174.626 610.718 168.223 613.409 161.523 613.488Z" fill="#5c63713a"/>
<path d="M349.439 507.905C349.801 508.405 350.201 508.876 350.635 509.314C352.688 511.37 355.386 512.663 358.277 512.978C361.169 513.292 364.081 512.61 366.529 511.044C368.98 509.479 370.818 507.124 371.74 504.37C372.665 501.617 372.616 498.632 371.603 495.912C370.591 493.189 368.678 490.894 366.178 489.41C363.679 487.924 360.747 487.336 357.866 487.744C354.986 488.153 352.334 489.532 350.348 491.652C348.362 493.773 347.162 496.508 346.95 499.404C336.917 465.244 324.028 431.986 308.412 399.984C303.689 390.431 298.645 381.017 293.275 371.744C293.173 371.414 293.001 371.109 292.775 370.848C287.095 361.113 281.032 351.602 274.588 342.321C274.308 341.889 273.91 341.547 273.441 341.335C272.973 341.123 272.453 341.05 271.943 341.127C276.029 336.79 278.866 331.435 280.161 325.625C281.454 319.816 281.154 313.764 279.292 308.111C277.43 302.457 274.077 297.408 269.583 293.494C265.091 289.58 259.623 286.95 253.757 285.876C253.806 285.647 253.83 285.416 253.83 285.183C252.524 239.902 252.931 184.365 219.657 149.187C233.454 138.56 237.39 120.135 230.533 104.409C223.738 90.5573 209.069 81.8525 193.539 83.4644C188.087 83.9986 182.823 85.7386 178.13 88.5579C173.437 91.3774 169.432 95.2054 166.407 99.7636C163.382 104.322 161.413 109.495 160.643 114.908C159.873 120.321 160.322 125.837 161.956 131.056C163.591 136.274 166.37 141.063 170.092 145.074C173.814 149.086 178.385 152.219 183.472 154.246C188.56 156.273 194.036 157.143 199.503 156.793C204.97 156.443 210.29 154.881 215.076 152.221C231.503 169.213 239.066 192.318 243.108 215.137C247.226 238.256 247.752 261.815 248.422 285.22C248.415 285.275 248.415 285.331 248.422 285.387H247.763C240.352 285.38 233.155 287.861 227.327 292.431C226.681 291.993 225.988 291.627 225.258 291.345C224.565 291.011 224.828 291.345 224.062 290.592C218.557 284.933 214.836 277.17 211.02 270.376C209.309 267.343 204.619 270.065 206.342 273.111C210.266 280.085 214.166 288.455 219.981 294.163C220.886 295.081 221.958 295.819 223.139 296.336C217.498 302.594 214.459 310.763 214.637 319.179C214.814 327.596 218.198 335.629 224.1 341.645C230 347.661 237.974 351.207 246.402 351.564C254.829 351.919 263.077 349.057 269.467 343.563C269.454 344.1 269.621 344.626 269.944 345.056C275.641 353.247 281.036 361.605 286.134 370.131C259.238 370.681 230.953 370.668 206.21 359.038C192.606 352.627 181.288 342.727 170.376 332.564C159.113 322.081 148.221 311.21 137.7 299.955C135.308 297.41 131.491 301.244 133.872 303.774C144.863 315.485 156.246 326.814 168.019 337.759C179.254 348.148 191.039 358.155 205.109 364.46C231.432 376.233 260.948 376.079 289.243 375.469C324.36 436.092 345.478 504.635 359.619 572.816C364.633 596.891 368.738 621.13 372.147 645.478C372.626 648.917 377.842 647.447 377.365 644.045C370.961 598.383 362.192 552.529 349.439 507.905ZM168.45 132.96C165.116 125.352 164.904 116.742 167.859 108.98C170.814 101.218 176.7 94.9207 184.255 91.441C200.204 84.2764 218.39 91.8112 225.891 107.179C227.591 110.943 228.53 115.003 228.656 119.129C228.783 123.255 228.091 127.365 226.628 131.224C225.162 135.084 222.949 138.618 220.115 141.624C217.28 144.631 213.881 147.05 210.11 148.746C206.339 150.441 202.271 151.378 198.137 151.504C194.003 151.63 189.885 150.942 186.018 149.479C178.207 146.526 171.892 140.596 168.461 132.996L168.45 132.96Z" fill="#5c63713a"/>
<path d="M88.0118 327.943C122.709 321.375 147.727 290.269 148.086 255.307C147.965 240.249 143.295 225.578 134.686 213.21C126.077 200.843 113.93 191.356 99.8328 185.989C85.3922 180.714 69.6717 180.016 54.8189 183.991C39.966 187.966 26.7048 196.42 16.8463 208.199C-2.81154 232.081 -5.64716 266.65 10.3495 293.254C18.2374 306.219 29.8917 316.482 43.7638 322.677C57.6361 328.875 73.0689 330.71 88.0118 327.943ZM21.1296 299.129C12.0811 288.233 6.6318 274.811 5.52911 260.702C4.42645 246.592 7.72443 232.488 14.9707 220.323C22.2171 208.16 33.0567 198.531 46.0029 192.757C58.9492 186.984 73.3683 185.35 87.282 188.078C119.347 194.455 142.319 222.935 142.666 255.354C142.379 283.797 124.719 309.852 97.727 319.715C84.3816 324.508 69.8855 325.103 56.1904 321.422C42.4956 317.741 30.2594 309.961 21.1296 299.129Z" fill="#5c63713a"/>
<path d="M189.244 272.347C204.14 272.347 215.675 260.191 216.045 245.6C215.675 231.019 204.14 218.852 189.244 218.852C182.136 218.852 175.319 221.669 170.293 226.686C165.267 231.701 162.443 238.506 162.443 245.6C162.443 252.693 165.267 259.496 170.293 264.514C175.319 269.529 182.136 272.347 189.244 272.347Z" fill="#5c63713a"/>
<path d="M110.074 346.093C104.107 343.938 97.6221 343.662 91.4928 345.3C85.3635 346.936 79.8847 350.411 75.7953 355.253C57.8483 376.746 76.9916 409.762 104.51 405.177C119.406 402.694 129.767 389.715 130.15 374.907C130.082 368.649 128.132 362.556 124.552 357.419C120.972 352.28 115.928 348.335 110.074 346.093ZM99.3654 400.185C92.6414 400.185 86.1927 397.52 81.4382 392.775C76.6836 388.029 74.0124 381.594 74.0124 374.883C74.0124 368.172 76.6836 361.737 81.4382 356.992C86.1927 352.246 92.6414 349.581 99.3654 349.581C113.46 349.581 124.36 361.091 124.718 374.883C124.641 381.571 121.945 387.961 117.207 392.689C112.469 397.418 106.065 400.108 99.3654 400.185Z" fill="#5c63713a"/>
<path d="M257.693 179.302C258.375 179.302 259.041 179.101 259.608 178.723C260.175 178.345 260.616 177.808 260.877 177.179C261.138 176.551 261.207 175.86 261.074 175.192C260.939 174.525 260.612 173.913 260.13 173.432C259.649 172.951 259.034 172.623 258.365 172.49C257.697 172.358 257.003 172.426 256.374 172.686C255.745 172.947 255.206 173.387 254.829 173.953C254.45 174.518 254.247 175.183 254.247 175.863C254.247 176.775 254.611 177.65 255.257 178.295C255.903 178.94 256.779 179.302 257.693 179.302Z" fill="#5c63713a"/>
<path d="M462.061 164.866C469.943 164.866 476.335 158.488 476.335 150.621C476.335 142.753 469.943 136.375 462.061 136.375C454.177 136.375 447.787 142.753 447.787 150.621C447.787 158.488 454.177 164.866 462.061 164.866Z" fill="#5c63713a"/>
<path d="M271.309 398.632C271.309 397.617 271.008 396.624 270.443 395.78C269.878 394.937 269.073 394.278 268.134 393.889C267.192 393.5 266.158 393.399 265.161 393.596C264.162 393.795 263.246 394.285 262.527 395.003C261.808 395.72 261.318 396.635 261.119 397.632C260.92 398.628 261.022 399.659 261.412 400.598C261.801 401.537 262.46 402.339 263.306 402.903C264.153 403.466 265.146 403.767 266.165 403.767C267.528 403.767 268.838 403.226 269.803 402.264C270.768 401.301 271.309 399.995 271.309 398.632Z" fill="#5c63713a"/>
<path d="M161.271 422.694C163.055 420.921 164.272 418.661 164.767 416.197C165.263 413.733 165.014 411.178 164.053 408.855C163.092 406.533 161.462 404.546 159.369 403.149C157.277 401.753 154.815 401.006 152.297 401.006C149.78 401.006 147.318 401.753 145.226 403.149C143.133 404.546 141.503 406.533 140.542 408.855C139.581 411.178 139.332 413.733 139.828 416.197C140.323 418.661 141.54 420.921 143.324 422.694C145.706 425.066 148.933 426.398 152.297 426.398C155.662 426.398 158.889 425.066 161.271 422.694Z" fill="#5c63713a"/>
<path d="M321.081 481.6C320.591 472.5 306.833 472.417 306.833 481.6C306.833 490.781 320.651 490.711 321.081 481.6Z" fill="#5c63713a"/>
<path d="M417.311 239.757C423.906 239.761 430.299 242.043 435.403 246.218C440.507 250.392 444.01 256.201 445.32 262.662C446.63 269.122 445.664 275.835 442.587 281.665C439.512 287.495 434.513 292.085 428.439 294.653C421.456 297.579 413.598 297.615 406.587 294.76C399.576 291.903 393.986 286.385 391.039 279.415C388.095 272.446 388.035 264.593 390.873 257.58C393.712 250.566 399.217 244.962 406.183 242C409.703 240.512 413.489 239.748 417.311 239.757ZM417.311 236.248C399.583 236.248 385.21 250.61 385.21 268.327C385.21 286.043 399.583 300.406 417.311 300.406C435.039 300.406 449.412 286.043 449.412 268.327C449.412 250.61 435.039 236.248 417.311 236.248Z" fill="#5c63713a"/>
<path d="M315.293 306.533C315.295 305.656 315.036 304.799 314.55 304.069C314.062 303.338 313.371 302.769 312.56 302.431C311.749 302.095 310.856 302.006 309.994 302.174C309.132 302.346 308.34 302.765 307.719 303.385C307.096 304.003 306.673 304.792 306.499 305.652C306.328 306.512 306.416 307.403 306.752 308.214C307.086 309.024 307.655 309.717 308.385 310.205C309.117 310.69 309.975 310.951 310.852 310.951C312.027 310.951 313.155 310.487 313.987 309.658C314.82 308.83 315.289 307.707 315.293 306.533Z" fill="#5c63713a"/>
<path d="M295.598 306.043C295.598 304.683 295.193 303.352 294.436 302.221C293.68 301.09 292.604 300.209 291.343 299.689C290.085 299.167 288.698 299.032 287.363 299.298C286.025 299.563 284.797 300.217 283.834 301.18C282.869 302.142 282.214 303.367 281.946 304.702C281.681 306.034 281.818 307.418 282.34 308.675C282.86 309.931 283.744 311.007 284.878 311.761C286.01 312.516 287.344 312.921 288.707 312.921C290.534 312.921 292.287 312.196 293.58 310.906C294.872 309.616 295.598 307.867 295.598 306.043Z" fill="#5c63713a"/>
<path d="M577.209 299.631C577.209 308.812 590.967 308.729 591.457 299.631C590.967 290.519 577.209 290.435 577.209 299.631Z" fill="#5c63713a"/>
<path d="M310.878 384.613C318.76 384.613 325.15 378.236 325.15 370.368C325.15 362.502 318.76 356.123 310.878 356.123C302.994 356.123 296.604 362.502 296.604 370.368C296.604 378.236 302.994 384.613 310.878 384.613Z" fill="#5c63713a"/>
<path d="M427.865 375.372C429.77 375.372 431.313 373.833 431.313 371.934C431.313 370.034 429.77 368.495 427.865 368.495C425.963 368.495 424.42 370.034 424.42 371.934C424.42 373.833 425.963 375.372 427.865 375.372Z" fill="#5c63713a"/>
<path d="M346.651 315.442C346.659 316.218 346.899 316.973 347.34 317.613C347.779 318.254 348.397 318.75 349.12 319.039C349.842 319.328 350.631 319.398 351.393 319.238C352.155 319.08 352.85 318.699 353.396 318.145C353.94 317.593 354.308 316.89 354.453 316.128C354.599 315.365 354.515 314.578 354.212 313.864C353.91 313.147 353.4 312.54 352.752 312.112C352.101 311.687 351.342 311.46 350.563 311.464C350.045 311.468 349.531 311.573 349.054 311.776C348.575 311.977 348.142 312.27 347.779 312.64C347.415 313.01 347.128 313.449 346.935 313.928C346.741 314.409 346.644 314.924 346.651 315.442Z" fill="#5c63713a"/>
<path d="M538.408 336.54C536.623 338.313 535.405 340.576 534.911 343.039C534.415 345.503 534.665 348.059 535.626 350.381C536.587 352.704 538.215 354.688 540.308 356.087C542.401 357.483 544.862 358.23 547.381 358.23C549.898 358.23 552.359 357.483 554.452 356.087C556.545 354.688 558.176 352.704 559.136 350.381C560.097 348.059 560.346 345.503 559.851 343.039C559.355 340.576 558.139 338.313 556.354 336.54C553.968 334.175 550.743 332.847 547.381 332.847C544.017 332.847 540.792 334.175 538.408 336.54Z" fill="#5c63713a"/>
</svg>
