<svg width="288" height="48" viewBox="0 0 288 48" fill="none" xmlns="http://www.w3.org/2000/svg">
<g clip-path="url(#clip0_2068_84729)">
<path d="M62.8325 37.2202L37.7932 2.82382C36.4216 0.938889 34.2443 -0.0443206 32.0525 -3.18345e-05C29.8644 -0.042549 27.6925 0.940661 26.3226 2.82205L1.28341 37.2202C-0.924559 40.2531 -0.212603 44.4729 2.87314 46.6431C4.08437 47.4952 5.48124 47.9044 6.8655 47.9044C9.00858 47.9044 11.1192 46.923 12.4602 45.0806L30.2159 20.6899C31.1189 19.4498 32.9952 19.4498 33.9 20.6899L51.6556 45.0806C52.9966 46.923 55.1073 47.9044 57.2504 47.9044C58.6346 47.9044 60.0315 47.4952 61.2427 46.6431C64.3285 44.4729 65.0404 40.2531 62.8325 37.2202Z" fill="white"/>
<path d="M33.308 47.777C37.5586 47.0988 40.4452 43.1622 39.7552 38.9843C39.0652 34.8065 35.06 31.9694 30.8093 32.6476C26.5586 33.3257 23.6721 37.2623 24.3621 41.4402C25.0521 45.6181 29.0573 48.4551 33.308 47.777Z" fill="white"/>
<path d="M99.2701 13.2245V37.2219H92.2803V34.8214C90.413 36.7028 87.8769 37.7852 84.9084 37.7852C78.207 37.7852 73.1313 32.3749 73.1313 25.2232C73.1313 18.0714 78.2052 12.6611 84.9084 12.6611C87.8769 12.6611 90.413 13.7435 92.2803 15.6249V13.2245H99.2701ZM92.2803 25.2232C92.2803 21.836 89.7425 19.2938 86.2962 19.2938C82.85 19.2938 80.3609 21.8342 80.3609 25.2232C80.3609 28.6122 82.8987 31.1526 86.2962 31.1526C89.6938 31.1526 92.2803 28.6122 92.2803 25.2232Z" fill="white"/>
<path d="M101.424 25.2232C101.424 18.0714 107.073 12.6611 114.589 12.6611C119.52 12.6611 123.637 14.9659 125.886 18.6366L119.807 22.2594C118.801 20.4719 116.887 19.2956 114.589 19.2956C111.142 19.2956 108.605 21.836 108.605 25.225C108.605 28.6139 111.142 31.1543 114.589 31.1543C116.887 31.1543 118.801 29.978 119.807 28.1905L125.886 31.8133C123.637 35.484 119.52 37.7888 114.589 37.7888C107.073 37.7888 101.424 32.3785 101.424 25.2267V25.2232Z" fill="white"/>
<path d="M152.575 13.2245V46.1611H145.585V34.8214C143.718 36.7028 141.182 37.7852 138.213 37.7852C131.512 37.7852 126.436 32.3749 126.436 25.2232C126.436 18.0714 131.51 12.6611 138.213 12.6611C141.182 12.6611 143.718 13.7435 145.585 15.6249V13.2245H152.575ZM145.585 25.2232C145.585 21.836 143.047 19.2938 139.601 19.2938C136.155 19.2938 133.666 21.8342 133.666 25.2232C133.666 28.6122 136.203 31.1526 139.601 31.1526C142.998 31.1526 145.585 28.6122 145.585 25.2232Z" fill="white"/>
<path d="M156.261 27.6238V13.2246H163.251V26.6813C163.251 29.3634 165.069 31.1509 167.798 31.1509C170.527 31.1509 172.346 29.3634 172.346 26.6813V13.2246H179.335V27.622C179.335 33.7391 174.788 37.7854 167.798 37.7854C160.808 37.7854 156.261 33.7391 156.261 27.622V27.6238Z" fill="white"/>
<path d="M182.253 5.93281C182.253 3.53237 184.121 1.74487 186.561 1.74487C189.002 1.74487 190.918 3.53237 190.918 5.93281C190.918 8.33326 189.05 10.1668 186.561 10.1668C184.072 10.1668 182.253 8.37932 182.253 5.93281ZM183.068 13.2263H190.058V37.2219H183.068V13.2245V13.2263Z" fill="white"/>
<path d="M208.821 12.8489V19.9068H207.768C203.508 19.9068 201.163 22.3072 201.163 26.0239V37.2219H194.173V13.2245H201.163V15.9527C202.886 13.9774 205.137 12.8472 207.768 12.8472H208.821V12.8489Z" fill="white"/>
<path d="M235.212 27.482H217.02C217.882 30.1641 220.229 31.8099 223.291 31.8099C226.069 31.8099 228.269 30.5397 229.419 29.1277L234.111 33.1279C231.526 35.9978 227.601 37.7853 223.1 37.7853C215.344 37.7853 209.504 32.3272 209.504 25.0815C209.504 17.8359 215.105 12.6594 222.525 12.6594C229.946 12.6594 235.355 18.0237 235.355 25.3171C235.355 25.9762 235.306 26.869 235.211 27.482H235.212ZM216.974 22.9185H227.936C227.17 20.2363 225.063 18.5906 222.431 18.5906C219.8 18.5906 217.693 20.2842 216.974 22.9185Z" fill="white"/>
<path d="M236.193 35.5513C236.193 34.4919 237.031 33.6699 238.107 33.6699C239.183 33.6699 240.021 34.4937 240.021 35.5513C240.021 36.6089 239.207 37.4097 238.107 37.4097C237.008 37.4097 236.193 36.6107 236.193 35.5513Z" fill="white"/>
<path d="M240.766 31.2215C240.766 27.6466 243.567 24.9414 247.299 24.9414C249.74 24.9414 251.8 26.1177 252.9 27.9282L250.578 29.3171C249.931 28.2117 248.736 27.4818 247.299 27.4818C245.146 27.4818 243.518 29.1045 243.518 31.2215C243.518 33.3385 245.146 34.9613 247.299 34.9613C248.736 34.9613 249.933 34.2314 250.578 33.126L252.9 34.5149C251.798 36.3254 249.74 37.5017 247.299 37.5017C243.565 37.5017 240.766 34.7965 240.766 31.2198V31.2215Z" fill="white"/>
<path d="M253.427 31.2215C253.427 27.6466 256.228 24.9414 259.961 24.9414C263.694 24.9414 266.495 27.6466 266.495 31.2215C266.495 34.7965 263.67 37.5035 259.961 37.5035C256.252 37.5035 253.427 34.7983 253.427 31.2215ZM263.719 31.2215C263.719 29.1045 262.115 27.4818 259.961 27.4818C257.807 27.4818 256.18 29.1045 256.18 31.2215C256.18 33.3385 257.807 34.9613 259.961 34.9613C262.115 34.9613 263.719 33.3385 263.719 31.2215Z" fill="white"/>
<path d="M287.437 29.4342V37.2201H284.757V30.2101C284.757 28.5626 283.705 27.4819 282.054 27.4819C280.403 27.4819 279.157 28.5874 279.157 30.2579V37.2219H276.477V30.2119C276.477 28.5643 275.424 27.4837 273.772 27.4837C272.119 27.4837 270.875 28.5891 270.875 30.2597V37.2237H268.195V25.2267H270.875V26.6387C271.785 25.5332 273.078 24.9451 274.656 24.9451C276.452 24.9451 277.84 25.744 278.582 27.0621C279.539 25.698 281.024 24.9451 282.867 24.9451C285.642 24.9451 287.437 26.7326 287.437 29.4377V29.4342Z" fill="white"/>
</g>
<defs>
<clipPath id="clip0_2068_84729">
<rect width="287.437" height="47.9062" fill="white"/>
</clipPath>
</defs>
</svg>
