<svg width="185" height="20" viewBox="0 0 185 20" fill="none" xmlns="http://www.w3.org/2000/svg">
<path d="M19.1706 13.8479C18.1531 14.7465 16.0256 16.6359 11.7937 16.6359C6.40562 16.6359 3.515 13.1797 3.515 9.90783C3.515 6.65899 6.475 3.27189 11.4006 3.27189C15.3087 3.27189 17.9681 5.29954 18.9856 6.08295L19.3556 6.38249L21.8994 4.17051L21.3906 3.73272C20.35 2.78802 17.1587 0 11.3544 0C5.85062 0 0 3.47926 0 9.95392C0 13.0184 1.295 15.5991 3.74625 17.4194C5.85063 18.9862 8.74125 19.8848 11.6781 19.8848C17.3669 19.8848 20.0956 17.5346 21.4137 16.4055C21.5062 16.3134 21.5987 16.2442 21.6681 16.1751L22.1537 15.7604L19.7487 13.341L19.1706 13.8479Z" fill="#161616"/>
<path d="M34.2943 0.391693L24.1425 19.5161H28.0968L31.2418 13.364H40.145L43.4056 19.5161H47.3368L37.3468 0.391693H34.2943ZM33.0225 10.0922L35.8206 4.79261L38.5031 10.0922H33.0225Z" fill="#161616"/>
<path d="M62.9 0.391693H51.245V19.5161H54.76V11.8203H62.9C67.34 11.8203 69.7912 9.79261 69.7912 6.10598C69.7681 4.76957 69.2825 0.391693 62.9 0.391693ZM62.9 8.54838H54.7831V3.66358H62.9C65.2587 3.66358 66.2762 4.40091 66.2762 6.12902C66.2531 7.85713 65.2819 8.54838 62.9 8.54838Z" fill="#161616"/>
<path d="M78.0699 11.2442H85.5162V7.97234H78.0699V3.66358H92.1762V0.391693H74.5549V19.5161H92.7774V16.2442H78.0699V11.2442Z" fill="#161616"/>
<path d="M99.2756 19.5161H102.791V11.2442H111.601V7.97234H102.791V3.66358H116.92V0.391693H99.2756V19.5161Z" fill="#161616"/>
<path d="M129.292 0C122.932 0 117.938 4.37788 117.938 9.95392C117.938 15.4378 123.025 19.9078 129.292 19.9078C135.559 19.9078 140.646 15.4378 140.646 9.95392C140.646 4.47005 135.559 0 129.292 0ZM129.292 16.6359C124.898 16.6359 121.453 13.7097 121.453 9.95392C121.453 6.19816 124.898 3.27189 129.292 3.27189C133.686 3.27189 137.131 6.19816 137.131 9.95392C137.131 13.7097 133.686 16.6359 129.292 16.6359Z" fill="#161616"/>
<path d="M176.097 9.12441L183.705 0.391693H179.172L173.807 6.54377L168.512 0.391693H163.979L171.518 9.10137L162.823 19.1475L154.244 9.12441L161.852 0.391693H157.319L151.954 6.54377L146.659 0.391693H142.126L149.665 9.10137L140.646 19.5161H145.179L151.931 11.7051L158.614 19.5161H162.499H163.147H167.032L173.784 11.7051L180.467 19.5161H185L176.097 9.12441Z" fill="#161616"/>
</svg>
