<?xml version="1.0" encoding="utf-8"?>
<!-- Generator: Adobe Illustrator 25.4.1, SVG Export Plug-In . SVG Version: 6.00 Build 0)  -->
<svg version="1.0" id="Layer_1" xmlns="http://www.w3.org/2000/svg" xmlns:xlink="http://www.w3.org/1999/xlink" x="0px" y="0px"
	 viewBox="0 0 930 598" style="enable-background:new 0 0 930 598;" xml:space="preserve">
<style type="text/css">
	.st0{fill:#EE3524;}
	.st1{fill:#FFFFFF;}
	.st2{fill:#405464;}
	.st3{fill:none;}
</style>
<polygon id="_Path_" className="st0" points="308.2,291.3 308.2,261.9 337.5,261.9 337.5,233 308.2,233 308.2,261.9 278.8,261.9 
	278.8,233 102.6,233 102.6,467.8 337.5,467.8 337.5,291.3 "/>
<rect id="_Path_2" x="255.3" y="168.7" className="st0" width="32.8" height="32.8"/>
<rect id="_Path_3" x="397.8" y="187.6" className="st0" width="24.5" height="24.5"/>
<rect id="_Path_4" x="373.6" y="130.2" className="st0" width="32.8" height="32.8"/>
<rect id="_Path_5" x="360.5" y="223.3" className="st0" width="24.5" height="24.5"/>
<rect id="_Path_6" x="357.7" y="280.9" className="st0" width="24.5" height="24.5"/>
<rect id="_Path_7" x="312.7" y="164.5" className="st0" width="24.5" height="24.5"/>
<path id="_Path_8" className="st1" d="M269.5,398h48.8v-24.4h-48.8v-27.5h51.8v-24.6h-81.7v108.3c0,27.3,31.4,24.4,31.4,24.4h53.2v-24.6
	h-54.5V398H269.5z"/>
<path className="st2" d="M412.2,379c-17.3-6.7-24.6-10.5-24.6-19c0-6.7,6.3-12.8,19.3-12.8c9.5-0.1,19,2.1,27.5,6.3l6.7-24.1
	c-7.9-3.7-18.7-6.7-33.8-6.7c-31.1,0-50.2,17.1-50.2,39.8c0,19.5,14.5,31.7,36.6,39.6c15.9,5.5,22.3,10.5,22.3,18.5
	c0,8.8-7.3,14.5-21,14.5c-11.6-0.2-22.9-3-33.2-8.2l-6,24.6c7.4,4.2,22.4,8.2,37.7,8.2c36.5,0,53.4-18.9,53.4-41.1
	C446.6,399.8,435.7,387.6,412.2,379 M782.9,420.1c-3.4-12.2-8.5-20.9-17.8-24.6v-0.6c11.4-4.2,23.5-15.8,23.5-32.5
	c0-12.2-4.3-21.5-12.4-27.8c-9.4-7.7-23.2-10.7-43-10.7c-16.2,0-30.3,1.2-40,2.9V376h13.4v25.2H693v56.2h29.8v-52.2h8.8
	c12.4,0.2,18.1,4.5,21.9,21.3c3.7,16.4,7.1,27.2,9.1,30.9h30.7C790.8,452.5,786.9,435.2,782.9,420.1 M734.7,383.9h-11.9v-36.5
	c2.2-0.6,6.3-0.9,13.6-0.9c13.8,0,22.1,6.3,22.1,18.4C758.5,376.3,749.7,383.9,734.7,383.9 M573.3,324.9h-37.1l-30,44.2
	c-3.1,4.8-6.3,9.4-9.3,14.5h-0.3v-58.7h-29.8v132.7h29.8v-43.3l11.3-14l32.7,57.3h34.9l-46.1-76.2L573.3,324.9z"/>
<path id="_Path_9" className="st2" d="M617,403.7h48.8v-24.4H617v-27.6h51.8v-24.6h-81.7v108.3c0,27.3,31.4,24.4,31.4,24.4h53.2v-24.6
	h-54.6v-31.5L617,403.7z"/>
<path className="st2" d="M827.4,336.7c0.1,2.5-0.6,4.9-1.9,7c-1.2,2.1-3,3.9-5.1,5.1c-6.7,3.8-15.2,1.5-19.1-5.1c-1.3-2.1-1.9-4.5-1.9-7
	c0-2.5,0.6-4.9,1.9-7c1.2-2.1,3-3.9,5.1-5.1c2.1-1.3,4.5-1.9,7-1.9c2.5,0,4.9,0.6,7,1.9C824.8,327,827.5,331.6,827.4,336.7
	 M825.5,336.6c0-2.1-0.6-4.1-1.6-5.9c-1-1.8-2.6-3.4-4.4-4.4c-1.8-1.1-3.8-1.6-5.9-1.6c-2.1,0-4.2,0.6-6,1.6c-1.9,1-3.4,2.6-4.4,4.4
	c-1.1,1.8-1.6,3.9-1.6,6c0,2.1,0.5,4.2,1.5,6c1.1,1.8,2.6,3.3,4.4,4.4c1.8,1.1,3.9,1.6,6,1.6c2.1,0,4.1-0.6,5.9-1.6
	c1.8-1.1,3.4-2.6,4.4-4.4c1.1-1.8,1.7-3.9,1.6-6 M807.7,328.7h6.6c1.1-0.1,2.3,0.1,3.4,0.5c0.7,0.3,1.3,0.8,1.6,1.5
	c0.5,0.7,0.7,1.6,0.7,2.4c0,0.7-0.1,1.4-0.3,2.1c-0.4,0.6-0.9,1.1-1.5,1.4c0.6,0.3,1.1,0.7,1.4,1.3c0.3,0.7,0.4,1.5,0.3,2.3v1.7
	c0,0.7,0.2,1.5,0.6,2.1l0.2,0.5h-2.9c-0.1-0.8-0.2-1.5-0.2-2.3l-0.1-2c0-0.5-0.1-1.1-0.3-1.5c-0.2-0.3-0.5-0.5-0.8-0.6
	c-0.7-0.2-1.3-0.3-2-0.2h-4v6.6h-2.6L807.7,328.7L807.7,328.7z M810.3,331v4.8h3.8c0.8,0.1,1.7-0.1,2.4-0.5c0.6-0.5,1-1.2,0.9-2
	c0.1-0.7-0.2-1.3-0.7-1.7c-0.7-0.4-1.6-0.7-2.4-0.6L810.3,331z"/>
<rect x="65" y="107" className="st3" width="800" height="384"/>
</svg>
