<svg id="Layer_1" data-name="Layer 1" xmlns="http://www.w3.org/2000/svg" width="185" height="26"><defs><style>.cls-1{fill:#121643}</style></defs><path className="cls-1" d="M65.42 1.14h.51v23.63h-.51zM79.56 24.88H72.8V1.4h6.76a11.41 11.41 0 0 1 4.62.92 10.72 10.72 0 0 1 3.69 2.62 11.42 11.42 0 0 1 2.27 3.72 12.75 12.75 0 0 1 0 8.89 11.88 11.88 0 0 1-2.27 3.75 10.57 10.57 0 0 1-3.69 2.7 11.58 11.58 0 0 1-4.62.88zm-5.13-1.63h5.13a9.11 9.11 0 0 0 7.12-3.07A9.57 9.57 0 0 0 88.61 17a11.36 11.36 0 0 0 .67-3.89 11.15 11.15 0 0 0-.67-3.84 9.51 9.51 0 0 0-1.93-3.2 9.29 9.29 0 0 0-7.12-3h-5.13zM93.94 24.88V1.4h1.62v23.48zM118.9 24.88h-8.49a11.47 11.47 0 0 1-5.92-1.59 11.8 11.8 0 0 1-4.3-4.32 11.64 11.64 0 0 1-1.59-6 11.6 11.6 0 0 1 1.59-5.94 11.9 11.9 0 0 1 4.3-4.33 11.3 11.3 0 0 1 5.92-1.61 11.43 11.43 0 0 1 4.71 1A11.6 11.6 0 0 1 119 4.94l-1.19 1.12a10.14 10.14 0 0 0-12.53-1.88 10.34 10.34 0 0 0-3.73 3.7 10 10 0 0 0-1.33 5.12 10 10 0 0 0 1.37 5.13 10.29 10.29 0 0 0 3.73 3.74 9.77 9.77 0 0 0 5.09 1.39h6.79v-8.42h-7.73v-1.63h9.43zM123.38 24.88V1.4H125v23.48zM147.87 1.4v1.66h-9.28v21.82h-1.66V3.06h-9.32V1.4zM150.08 18.92l-2.78 6h-1.81l11-23.77L167 24.88h-1.77l-2.63-6zm6.39-13.8-5.63 12.17h11zM169.19 24.88V1.4h1.62v21.85H184v1.63zM20.72 13a6.33 6.33 0 0 0-1.59-4.3A6.53 6.53 0 0 0 14 6.38a6.58 6.58 0 0 0-3.8 1.19 6.49 6.49 0 0 0-2.44 3.16A6.65 6.65 0 0 0 7.35 13a6.45 6.45 0 0 0 1.59 4.27A6.36 6.36 0 0 0 14 19.62 6.63 6.63 0 0 0 20.72 13zm6.35 0a12.34 12.34 0 0 1-3.19 8.42A12.47 12.47 0 0 1 14 25.55a12.46 12.46 0 0 1-9.84-4.12A12.34 12.34 0 0 1 1 13a12.93 12.93 0 0 1 .86-4.5 12.55 12.55 0 0 1 2.32-3.93A12.44 12.44 0 0 1 14 .45 12.46 12.46 0 0 1 27.07 13zm17.39 3.91q0 6-5.24 7.79a12 12 0 0 1-3.93.63 13.92 13.92 0 0 1-8.2-2.67l2.62-4.93a8.26 8.26 0 0 0 5.41 2.5 3.59 3.59 0 0 0 2-.56 2 2 0 0 0-.12-3.51 10.4 10.4 0 0 0-2.68-1.06c-1.52-.45-2.47-.76-2.86-.93a6.66 6.66 0 0 1-1.59-.93A5.72 5.72 0 0 1 28 8.55a7.65 7.65 0 0 1 8-8 15.91 15.91 0 0 1 7.52 1.95l-2.45 4.76a6.6 6.6 0 0 0-4-1.57 3.24 3.24 0 0 0-1.77.5 1.75 1.75 0 0 0-.88 1.53 1.93 1.93 0 0 0 1.16 1.61 19.21 19.21 0 0 0 3.11 1.07 8.9 8.9 0 0 1 4.63 2.7 5.87 5.87 0 0 1 1.19 3.82zM60.05 6.26h-7.36v4h6.71v5.11h-6.71v9.32h-6.13V1.15h13.49z"/></svg>